<?xml version="1.0" encoding="UTF-8"?>
<svg width="24px" height="24px" viewBox="0 0 24 24" version="1.1" xmlns="http://www.w3.org/2000/svg" xmlns:xlink="http://www.w3.org/1999/xlink">
    <!-- Generator: Sketch 57.1 (83088) - https://sketch.com -->
    <title>Component / icon / 24px / Richtext / Bold </title>
    <desc>Created with Sketch.</desc>
    <g id="Component-/-icon-/-24px-/-Richtext-/-Bold-" stroke="none" stroke-width="1"  fill-rule="evenodd">
        <g id="Component-/-icon-/-16px-/-Richtext-/-Bold-" fill="#1A1A1A">
            <path d="M6,3 L11.5986328,3 C14.1498174,3 16.0016544,3.36298465 17.1541992,4.08896484 C18.306744,4.81494504 18.8830078,5.96952333 18.8830078,7.55273437 C18.8830078,8.62734912 18.6307642,9.50917624 18.1262695,10.1982422 C17.6217748,10.8873081 16.9511761,11.3015618 16.1144531,11.4410156 L16.1144531,11.5640625 C17.2546932,11.8183606 18.0770483,12.2941371 18.581543,12.9914063 C19.0860377,13.6886754 19.3382812,14.6156192 19.3382812,15.7722656 C19.3382812,17.4128988 18.7456114,18.6925735 17.5602539,19.6113281 C16.3748964,20.5300827 14.7650492,20.9894531 12.7306641,20.9894531 L6,20.9894531 L6,3 Z M9.81445312,10.1244141 L12.0292969,10.1244141 C13.0628958,10.1244141 13.8114235,9.96445472 14.2749023,9.64453125 C14.7383812,9.32460778 14.9701172,8.7955115 14.9701172,8.05722656 C14.9701172,7.36816062 14.7178736,6.87392728 14.2133789,6.57451172 C13.7088842,6.27509616 12.9111383,6.12539063 11.8201172,6.12539063 L9.81445312,6.12539063 L9.81445312,10.1244141 Z M9.81445312,13.1513672 L9.81445312,17.8394531 L12.3,17.8394531 C13.3500053,17.8394531 14.1251928,17.6384786 14.6255859,17.2365234 C15.1259791,16.8345683 15.3761719,16.2193401 15.3761719,15.3908203 C15.3761719,13.8978441 14.3097763,13.1513672 12.1769531,13.1513672 L9.81445312,13.1513672 Z" id="B"></path>
        </g>
    </g>
</svg>