<?xml version="1.0" encoding="UTF-8"?>
<svg width="24px" height="24px" viewBox="0 0 24 24" version="1.1" xmlns="http://www.w3.org/2000/svg" xmlns:xlink="http://www.w3.org/1999/xlink">
    <!-- Generator: Sketch 57.1 (83088) - https://sketch.com -->
    <title>Component / icon / 16px / Richtext / Expand</title>
    <desc>Created with Sketch.</desc>
    <g id="Component-/-icon-/-16px-/-Richtext-/-Expand" stroke="none" stroke-width="1"  fill-rule="evenodd">
        <g id="Component-/-icon-/-16px-/-Richtext-/-Indent" fill="#1A1A1A">
            <g id="full-size-copy-3" transform="translate(3.000000, 3.000000)">
                <path d="M11.9017433,10.9304567 L11.9880266,11.0038386 L16.6080963,15.624087 L16.6080963,12.6567243 C16.6080963,12.2723841 16.9195836,11.9607919 17.3040018,11.9607919 C17.6563,11.9607919 17.947472,12.2226159 17.9936256,12.562293 L18,12.6567243 L18,17.3040677 C18,17.6563795 17.7382642,17.9475628 17.3985417,17.9936467 L17.3040946,18 L12.6567453,18 C12.2723271,18 11.9608399,17.6884079 11.9608399,17.3040677 C11.9608399,16.9517558 12.2225757,16.6605725 12.5622982,16.6144886 L12.6567453,16.6081353 L15.6238077,16.6081353 L11.0038307,11.9879797 C10.7320564,11.7162877 10.7320564,11.2756234 11.0038307,11.0038386 C11.2484275,10.7592323 11.6297364,10.7347717 11.9017433,10.9304567 Z M6.99607201,11.0037518 C7.24077168,11.2483514 7.26524164,11.6297397 7.06954956,11.9016971 L6.99616481,11.9879588 L2.37610149,16.6081734 L5.34349092,16.6081734 C5.72793942,16.6081734 6.03945129,16.919757 6.03945129,17.3040867 C6.03945129,17.656389 5.77761682,17.9475642 5.43792597,17.9936469 L5.34349092,18 L0.695960369,18 C0.343549237,18 0.052425148,17.7381832 0.00635176608,17.3985154 L9.1038288e-14,17.3040867 L9.1038288e-14,12.656685 C9.1038288e-14,12.2723553 0.311511861,11.9607718 0.695960369,11.9607718 C1.0483715,11.9607718 1.33949559,12.2225885 1.38556897,12.5622564 L1.39192074,12.656685 L1.39192074,15.6238737 L6.01189125,11.0038446 C6.28377977,10.7320673 6.72446188,10.7320673 6.99607201,11.0037518 Z M5.44801328,-2.26485497e-14 C5.83994784,-2.26485497e-14 6.15752551,0.317712454 6.15752551,0.709601966 C6.15752551,1.06883402 5.89059256,1.36573674 5.54428719,1.41272586 L5.44801328,1.41920393 L2.42218014,1.41920393 L6.99210109,5.98866214 C7.26928387,6.26569074 7.26928387,6.71501071 6.99219569,6.99213393 C6.85369891,7.13074285 6.67206378,7.2 6.49042865,7.2 C6.34519622,7.2 6.1999638,7.15567542 6.07672134,7.06702627 L5.9887562,6.99222854 L1.41902445,2.42286495 L1.41902445,5.44841851 C1.41902445,5.84030802 1.10144678,6.15802047 0.709512227,6.15802047 C0.350238885,6.15802047 0.0534459793,5.89105376 0.00647544874,5.54477747 L9.1038288e-14,5.44851312 L9.1038288e-14,0.709601966 C9.1038288e-14,0.350369913 0.266853461,0.053467194 0.613218443,0.00647807461 L0.709512227,-2.26485497e-14 L5.44801328,-2.26485497e-14 Z M17.2903372,-2.26485497e-14 C17.6822081,-2.26485497e-14 17.9999054,0.317596973 18,0.709555345 L18,0.709555345 L18,5.44806055 C18,5.83992431 17.6823973,6.15761589 17.2904318,6.15761589 C16.8984664,6.15761589 16.5808637,5.83992431 16.5808637,5.44806055 L16.5808637,5.44806055 L16.5808637,2.42251656 L12.0114339,6.99214759 C11.8728316,7.13065279 11.6911821,7.2 11.5096273,7.2 C11.3280725,7.2 11.146423,7.1307474 11.0079153,6.99224219 C10.7307107,6.71513718 10.7307107,6.26584674 11.0078207,5.98874172 L11.0078207,5.98874172 L15.5772505,1.41911069 L12.5517464,1.41911069 C12.159781,1.41911069 11.8421782,1.10141911 11.8421782,0.709555345 C11.8421782,0.31769158 12.159781,-2.26485497e-14 12.5517464,-2.26485497e-14 L12.5517464,-2.26485497e-14 Z" id="Combined-Shape"></path>
            </g>
        </g>
    </g>
</svg>