<?xml version="1.0" encoding="UTF-8"?>
<svg width="24px" height="24px" viewBox="0 0 24 24" version="1.1" xmlns="http://www.w3.org/2000/svg" xmlns:xlink="http://www.w3.org/1999/xlink">
    <!-- Generator: Sketch 57.1 (83088) - https://sketch.com -->
    <title>Component / icon / 24px / Richtext / Number-list</title>
    <desc>Created with Sketch.</desc>
    <g id="Component-/-icon-/-24px-/-Richtext-/-Number-list" stroke="none" stroke-width="1"  fill-rule="evenodd">
        <g id="Component-/-icon-/-16px-/-Richtext-/-Number-list" fill="#1A1A1A">
            <path d="M4.41996047,16 C4.86857932,16 5.22282479,16.1020172 5.48270751,16.3060546 C5.74259023,16.5100919 5.87252964,16.7939658 5.87252964,17.1576846 C5.87252964,17.4615229 5.79051465,17.7198925 5.62648221,17.9328011 C5.46244977,18.1457096 5.23221492,18.2920821 4.93577075,18.3719228 L4.93577075,18.3918829 C5.28557487,18.4406745 5.55039436,18.5598793 5.73023715,18.749501 C5.91007995,18.9391227 6,19.1947201 6,19.5163007 C6,19.9842561 5.84881574,20.3485239 5.54644269,20.6091151 C5.24406963,20.8697063 4.81225577,21 4.25098814,21 C3.78063006,21 3.36363818,20.9123983 3,20.7371923 L3,19.8622754 C3.16798503,19.9576408 3.35276579,20.0352625 3.55434783,20.095143 C3.75592986,20.1550236 3.95553261,20.1849634 4.15316206,20.1849634 C4.45553511,20.1849634 4.67885303,20.1273015 4.82312253,20.011976 C4.96739203,19.8966506 5.03952569,19.7114672 5.03952569,19.4564205 C5.03952569,19.2279873 4.95652257,19.0660905 4.79051383,18.9707252 C4.6245051,18.8753599 4.35968561,18.827678 3.99604743,18.827678 L3.66699605,18.827678 L3.66699605,18.0392548 L4.00197628,18.0392548 C4.33794634,18.0392548 4.58349725,17.9899096 4.73863636,17.8912176 C4.89377548,17.7925256 4.97134387,17.623421 4.97134387,17.3838989 C4.97134387,17.0157444 4.76581233,16.83167 4.35474308,16.83167 C4.21244988,16.83167 4.06768848,16.8582832 3.92045455,16.9115103 C3.77322061,16.9647375 3.60968469,17.0567747 3.4298419,17.1876248 L3.00592885,16.4790419 C3.40118775,16.159679 3.87252691,16 4.41996047,16 Z M20.749977,17.9615385 C20.8177571,17.9615385 20.8762883,17.9739894 20.9258441,17.9986723 C20.9588084,18.0151914 20.9807785,18.0337234 20.9917625,18.05426 L21,18.0865675 L21,18.8365641 C21,18.8704689 20.9753726,18.8997765 20.9258441,18.9245004 C20.8928069,18.9410195 20.8557928,18.9519745 20.8146964,18.9574424 L20.749977,18.9615385 L10.2499683,18.9615385 C10.1821882,18.9615385 10.1237117,18.9492381 10.0742106,18.9245004 C10.0412099,18.9080178 10.0192276,18.889498 10.0082395,18.868937 L10,18.8365641 L10,18.0865675 C10,18.0527585 10.0247369,18.0233552 10.0742106,17.9986723 C10.1071931,17.982217 10.1442255,17.9711982 10.1853076,17.9656807 L10.2499683,17.9615385 L20.749977,17.9615385 Z M4.52631579,9 C4.79337365,9 5.02923874,9.05619184 5.23391813,9.16857721 C5.43859751,9.28096258 5.59746532,9.43829973 5.71052632,9.64059339 C5.82358731,9.84288705 5.88011696,10.0743974 5.88011696,10.3351315 C5.88011696,10.5621499 5.84551692,10.775117 5.77631579,10.9740391 C5.70711466,11.1729612 5.59990326,11.3769376 5.45467836,11.5859744 C5.30945346,11.7950112 5.05360807,12.0928279 4.6871345,12.4794336 L4.1374269,13.0761969 L4.1374269,13.1233985 L6,13.1233985 L6,14 L3.01169591,14 L3.01169591,13.275118 L4.08479532,12.0242751 C4.4025357,11.648908 4.61013596,11.3887398 4.70760234,11.2437626 C4.80506871,11.0987855 4.87524345,10.964487 4.91812865,10.8408631 C4.96101386,10.7172392 4.98245614,10.5891218 4.98245614,10.4565071 C4.98245614,10.2587088 4.93518566,10.1114862 4.84064327,10.0148348 C4.74610089,9.91818338 4.61988383,9.8698584 4.4619883,9.8698584 C4.29629547,9.8698584 4.13547836,9.91368803 3.97953216,10.0013486 C3.82358596,10.0890092 3.66081956,10.2137551 3.49122807,10.37559 L3,9.70465273 C3.21052737,9.49786365 3.38498956,9.35176487 3.52339181,9.26635199 C3.66179406,9.18093911 3.81286468,9.11519466 3.97660819,9.06911666 C4.1403517,9.02303865 4.32358573,9 4.52631579,9 Z M20.749977,11.5 C20.8177571,11.5 20.8762883,11.5123548 20.9258441,11.5370644 C20.9588084,11.553574 20.9807785,11.5721024 20.9917625,11.5926537 L21,11.6249983 L21,12.3750017 C21,12.4088372 20.9753726,12.4381439 20.9258441,12.4628946 C20.8928069,12.4793767 20.8557928,12.490374 20.8146964,12.4958741 L20.749977,12.5 L10.2499683,12.5 C10.1821882,12.5 10.1237117,12.4875631 10.0742106,12.4628946 C10.0412099,12.4463941 10.0192276,12.4278688 10.0082395,12.4073266 L10,12.3750017 L10,11.6249983 C10,11.5911355 10.0247095,11.5618287 10.0742106,11.5370644 C10.1071931,11.520564 10.1442255,11.509591 10.1853076,11.5041091 L10.2499683,11.5 L20.749977,11.5 Z M5,3 L5,7 L4.14758621,7 L4.14758621,4.68536252 L4.15586207,4.30506156 L4.16965517,3.88919289 C4.02804527,4.02964047 3.92965545,4.12175081 3.87448276,4.16552668 L3.41103448,4.53488372 L3,4.02599179 L4.29931034,3 L5,3 Z M20.749977,5.03846154 C20.8177845,5.03846154 20.8762883,5.05087107 20.9258441,5.07556699 C20.9587901,5.09206742 20.9807541,5.11058669 20.9917442,5.13112888 L21,5.16345983 L21,5.91346325 C21,5.94732607 20.9753726,5.97660545 20.9258441,6.00135609 C20.8928069,6.01788389 20.8557928,6.02886593 20.8146964,6.03435087 L20.749977,6.03846154 L10.2499683,6.03846154 C10.1821882,6.03846154 10.1237117,6.02610674 10.0742106,6.00135609 C10.0412099,5.98485566 10.0192276,5.96634246 10.0082395,5.94580028 L10,5.91346325 L10,5.16345983 C10,5.129597 10.0247369,5.10031763 10.0742106,5.07556699 C10.1071931,5.05906655 10.1442255,5.04807539 10.1853076,5.04258133 L10.2499683,5.03846154 L20.749977,5.03846154 Z" id="Combined-Shape"></path>
        </g>
    </g>
</svg>