<?xml version="1.0" encoding="UTF-8"?>
<svg width="24px" height="24px" viewBox="0 0 24 24" version="1.1" xmlns="http://www.w3.org/2000/svg" xmlns:xlink="http://www.w3.org/1999/xlink">
    <!-- Generator: Sketch 57.1 (83088) - https://sketch.com -->
    <title>Component / icon / 24px / Richtext / Strike-trough</title>
    <desc>Created with Sketch.</desc>
    <g id="Component-/-icon-/-24px-/-Richtext-/-Strike-trough" stroke="none" stroke-width="1"  fill-rule="evenodd">
        <g id="Component-/-icon-/-16px-/-Richtext-/-Strike-trough" fill="#1A1A1A">
            <path d="M11.6484375,3 C13.351571,3 14.9179616,3.31249688 16.3476562,3.9375 L15.7265625,5.671875 C14.3124929,5.07812203 12.9375067,4.78125 11.6015625,4.78125 C10.5468697,4.78125 9.72265922,5.00781023 9.12890625,5.4609375 C8.53515328,5.91406477 8.23828125,6.54296473 8.23828125,7.34765625 C8.23828125,7.94140922 8.34765516,8.42773248 8.56640625,8.80664062 C8.78515734,9.18554877 9.15429428,9.53320154 9.67382812,9.84960938 C10.193362,10.1660172 10.9882759,10.5156231 12.0585938,10.8984375 C13.0483773,11.2513169 13.8680748,11.6184159 14.5176923,11.9997379 L19.5,12 L19.5,13.25 L16.0065714,13.2484696 C16.523026,13.938576 16.78125,14.7958506 16.78125,15.8203125 C16.78125,17.3281325 16.2343805,18.503902 15.140625,19.3476562 C14.0468695,20.1914105 12.5625094,20.6132812 10.6875,20.6132812 C8.65623984,20.6132812 7.09375547,20.3515651 6,19.828125 L6,17.90625 C6.70312852,18.2031265 7.46874586,18.4374991 8.296875,18.609375 C9.12500414,18.7812509 9.94530844,18.8671875 10.7578125,18.8671875 C12.0859441,18.8671875 13.0859341,18.6152369 13.7578125,18.1113281 C14.4296909,17.6074194 14.765625,16.9062545 14.765625,16.0078125 C14.765625,15.4140595 14.6464856,14.9277363 14.4082031,14.5488281 C14.1699207,14.16992 13.7714872,13.8203141 13.2128906,13.5 C13.0720996,13.4192667 12.9128221,13.335804 12.7350578,13.2496119 L4.5,13.25 L4.5,12 L9.63705882,12.0001102 C8.57082547,11.5235618 7.77449335,10.9844656 7.24804688,10.3828125 C6.56444971,9.60155859 6.22265625,8.58203754 6.22265625,7.32421875 C6.22265625,6.00389965 6.71874504,4.95312891 7.7109375,4.171875 C8.70312996,3.39062109 10.0156168,3 11.6484375,3 Z" id="Combined-Shape"></path>
        </g>
    </g>
</svg>