<?xml version="1.0" encoding="UTF-8"?>
<svg width="24px" height="24px" viewBox="0 0 24 24" version="1.1" xmlns="http://www.w3.org/2000/svg" xmlns:xlink="http://www.w3.org/1999/xlink">
    <!-- Generator: Sketch 57.1 (83088) - https://sketch.com -->
    <title>Component / icon / 24px / Richtext / Sub-script</title>
    <desc>Created with Sketch.</desc>
    <g id="Component-/-icon-/-24px-/-Richtext-/-Sub-script" stroke="none" stroke-width="1"  fill-rule="evenodd">
        <polygon id="x" fill="#333333" fill-rule="nonzero" transform="translate(8.541504, 9.822510) scale(1, -1) translate(-8.541504, -9.822510) " points="6.60864258 9.70825195 3.1809082 4.5 6.4753418 4.5 8.54150391 7.88964844 10.626709 4.5 13.9211426 4.5 10.4553223 9.70825195 14.0830078 15.1450195 10.7790527 15.1450195 8.54150391 11.498291 6.29443359 15.1450195 3 15.1450195"></polygon>
        <path d="M21.0439453,19.5 L15.0556641,19.5 L15.0556641,18.2402344 L17.2060547,16.0664062 C17.8427766,15.4140592 18.2587881,14.9619153 18.4541016,14.7099609 C18.649415,14.4580066 18.7900386,14.2246104 18.8759766,14.0097656 C18.9619145,13.7949208 19.0048828,13.5722668 19.0048828,13.3417969 C19.0048828,12.9980452 18.9101572,12.7421883 18.7207031,12.5742188 C18.5312491,12.4062492 18.2783219,12.3222656 17.9619141,12.3222656 C17.6298812,12.3222656 17.3076187,12.3984367 16.9951172,12.5507812 C16.6826156,12.7031258 16.356447,12.9199205 16.0166016,13.2011719 L15.0322266,12.0351562 C15.4541037,11.6757795 15.8037096,11.4218757 16.0810547,11.2734375 C16.3583998,11.1249993 16.6611312,11.0107426 16.9892578,10.9306641 C17.3173845,10.8505855 17.6845683,10.8105469 18.0908203,10.8105469 C18.6259792,10.8105469 19.0986308,10.9082021 19.5087891,11.1035156 C19.9189474,11.2988291 20.2373036,11.5722639 20.4638672,11.9238281 C20.6904308,12.2753924 20.8037109,12.6777321 20.8037109,13.1308594 C20.8037109,13.5253926 20.7343757,13.8955061 20.5957031,14.2412109 C20.4570306,14.5869158 20.242189,14.9414044 19.9511719,15.3046875 C19.6601548,15.6679706 19.1474646,16.1855435 18.4130859,16.8574219 L17.3115234,17.8945312 L17.3115234,17.9765625 L21.0439453,17.9765625 L21.0439453,19.5 Z" id="2" fill="#333333" fill-rule="nonzero"></path>
    </g>
</svg>