<?xml version="1.0" encoding="UTF-8"?>
<svg width="24px" height="24px" viewBox="0 0 24 24" version="1.1" xmlns="http://www.w3.org/2000/svg" xmlns:xlink="http://www.w3.org/1999/xlink">
    <!-- Generator: Sketch 57.1 (83088) - https://sketch.com -->
    <title>Component / icon / 24px / Richtext / Super-script</title>
    <desc>Created with Sketch.</desc>
    <g id="Component-/-icon-/-24px-/-Richtext-/-Super-script" stroke="none" stroke-width="1" fill="none" fill-rule="evenodd">
        <g id="Component-/-icon-/-16px-/-Richtext-/-Strike-trough"></g>
        <polygon id="x" fill="#333333" fill-rule="nonzero" points="7.06713867 14.0632324 3.6394043 8.85498047 6.93383789 8.85498047 9 12.2446289 11.0852051 8.85498047 14.3796387 8.85498047 10.9138184 14.0632324 14.5415039 19.5 11.2375488 19.5 9 15.8532715 6.75292969 19.5 3.45849609 19.5"></polygon>
        <path d="M21.0439453,13.5 L15.0556641,13.5 L15.0556641,12.2402344 L17.2060547,10.0664062 C17.8427766,9.41405924 18.2587881,8.96191532 18.4541016,8.70996094 C18.649415,8.45800655 18.7900386,8.22461045 18.8759766,8.00976562 C18.9619145,7.7949208 19.0048828,7.57226678 19.0048828,7.34179688 C19.0048828,6.99804516 18.9101572,6.74218834 18.7207031,6.57421875 C18.5312491,6.40624916 18.2783219,6.32226562 17.9619141,6.32226562 C17.6298812,6.32226562 17.3076187,6.39843674 16.9951172,6.55078125 C16.6826156,6.70312576 16.356447,6.91992047 16.0166016,7.20117188 L15.0322266,6.03515625 C15.4541037,5.67577945 15.8037096,5.42187574 16.0810547,5.2734375 C16.3583998,5.12499926 16.6611312,5.01074259 16.9892578,4.93066406 C17.3173845,4.85058554 17.6845683,4.81054688 18.0908203,4.81054688 C18.6259792,4.81054688 19.0986308,4.90820215 19.5087891,5.10351562 C19.9189474,5.2988291 20.2373036,5.57226387 20.4638672,5.92382812 C20.6904308,6.27539238 20.8037109,6.67773211 20.8037109,7.13085938 C20.8037109,7.5253926 20.7343757,7.89550608 20.5957031,8.24121094 C20.4570306,8.58691579 20.242189,8.94140443 19.9511719,9.3046875 C19.6601548,9.66797057 19.1474646,10.1855435 18.4130859,10.8574219 L17.3115234,11.8945312 L17.3115234,11.9765625 L21.0439453,11.9765625 L21.0439453,13.5 Z" id="2" fill="#333333" fill-rule="nonzero"></path>
    </g>
</svg>