<?xml version="1.0" encoding="UTF-8"?>
<svg width="24px" height="24px" viewBox="0 0 24 24" version="1.1" xmlns="http://www.w3.org/2000/svg" xmlns:xlink="http://www.w3.org/1999/xlink">
    <!-- Generator: Sketch 57.1 (83088) - https://sketch.com -->
    <title>Component / icon / 24px / Richtext / Underline</title>
    <desc>Created with Sketch.</desc>
    <g id="Component-/-icon-/-24px-/-Richtext-/-Underline" stroke="none" stroke-width="1"  fill-rule="evenodd">
        <g id="Component-/-icon-/-16px-/-Richtext-/-Underline" fill="#1A1A1A">
            <g id="U" transform="translate(4.500000, 3.000000)">
                <path d="M15,16.625 L15,17.875 L0,17.875 L0,16.625 L15,16.625 Z M4.19007172,0.222949219 L4.19007172,9.86542969 C4.19007172,11.0985413 4.50284786,12.0452604 5.12840953,12.7056152 C5.75397119,13.3659701 6.67353304,13.6961426 7.88712266,13.6961426 C9.04441174,13.6961426 9.93582373,13.3642855 10.5613854,12.7005615 C11.1869471,12.0368375 11.4997232,11.0850648 11.4997232,9.84521484 L11.4997232,0.222949219 L13.0948975,0.222949219 L13.0948975,9.78457031 C13.0948975,11.469149 12.6226055,12.7932081 11.6780074,13.7567871 C10.7334093,14.7203661 9.43538829,15.2021484 7.7839055,15.2021484 C6.13242272,15.2021484 4.85473219,14.716997 3.95079558,13.7466797 C3.04685898,12.7763623 2.59489746,11.442196 2.59489746,9.74414063 L2.59489746,0.222949219 L4.19007172,0.222949219 Z" id="Combined-Shape"></path>
            </g>
        </g>
    </g>
</svg>