<?xml version="1.0" encoding="UTF-8"?>
<svg width="24px" height="24px" viewBox="0 0 24 24" version="1.1" xmlns="http://www.w3.org/2000/svg" xmlns:xlink="http://www.w3.org/1999/xlink">
    <!-- Generator: Sketch 57.1 (83088) - https://sketch.com -->
    <title>Component / icon / 24px / Richtext / Undo</title>
    <desc>Created with Sketch.</desc>
    <defs>
        <path d="M12.4582179,7.40972561 C9.74148208,7.40972561 7.32317717,8.67944997 5.75873618,10.6558942 L3.79529203,8.69259293 C3.35785998,8.25516089 3,8.40359064 3,9.02230983 L3,16.3576538 C3,16.976373 3.02400019,16.9512299 3.64286224,16.9512299 L10.9289201,16.9512299 C11.5477821,16.9512299 11.6957833,16.5932271 11.2584941,16.155795 L9.01576203,13.9130629 C10.0159128,11.7656173 12.1875015,10.2736055 14.7125215,10.2736055 C18.11612,10.2736055 20.8814276,12.9803412 20.9897142,16.3576538 C20.996,16.2232241 21,16.0877945 21,15.9516505 C21,11.2341845 17.1756839,7.40972561 12.4582179,7.40972561 Z" id="path-1"></path>
    </defs>
    <g id="Component-/-icon-/-24px-/-Richtext-/-Undo" stroke="none" stroke-width="1"  fill-rule="evenodd">
        <g id="Component-/-icon-/-12px-/-undo--" transform="translate(12.000000, 12.000000) scale(-1, 1) translate(-12.000000, -12.000000) ">
            <mask id="mask-2" fill="white">
                <use xlink:href="#path-1"></use>
            </mask>
            <use id="Shape" fill="#1A1A1A" transform="translate(12.000000, 12.180549) scale(-1, 1) translate(-12.000000, -12.180549) " xlink:href="#path-1"></use>
        </g>
    </g>
</svg>