<?xml version="1.0" encoding="UTF-8"?>
<svg width="24px" height="24px" viewBox="0 0 24 24" version="1.1" xmlns="http://www.w3.org/2000/svg" xmlns:xlink="http://www.w3.org/1999/xlink">
    <!-- Generator: Sketch 57.1 (83088) - https://sketch.com -->
    <title>Component / icon / 24px / Richtext / Bullet-list</title>
    <desc>Created with Sketch.</desc>
    <defs>
        <path d="M5.62504105,17 C5.72658986,17 5.81447023,17.0372296 5.88868214,17.1114015 C5.94434107,17.1671535 5.9791279,17.230548 5.99304263,17.3015503 L6,17.3750872 L6,19.625077 C6,19.7267914 5.96293509,19.814714 5.88868214,19.8888858 C5.8330232,19.9446379 5.76967577,19.9792636 5.69863982,19.9930919 L5.62504105,20 L3.37495895,20 C3.27341014,20 3.18557082,19.9630988 3.11131786,19.8888858 C3.05562815,19.8332569 3.02085671,19.7698932 3.00695159,19.6987774 L3,19.625077 L3,17.3750872 C3,17.2736602 3.03710595,17.1854502 3.11131786,17.1114015 C3.1669768,17.0558649 3.23032423,17.0209699 3.30136018,17.0069934 L3.37495895,17 L5.62504105,17 Z M20.749977,18 C20.8177571,18 20.8762883,18.0124509 20.9258441,18.0371338 C20.9588084,18.053653 20.9807785,18.0721849 20.9917625,18.0927216 L21,18.1250291 L21,18.8750257 C21,18.9089305 20.9753726,18.938238 20.9258441,18.9629619 C20.8928069,18.9794811 20.8557928,18.9904361 20.8146964,18.9959039 L20.749977,19 L10.2499683,19 C10.1821882,19 10.1237117,18.9876996 10.0742106,18.9629619 C10.0412099,18.9464793 10.0192276,18.9279595 10.0082395,18.9073985 L10,18.8750257 L10,18.1250291 C10,18.0912201 10.0247369,18.0618167 10.0742106,18.0371338 C10.1071931,18.0206786 10.1442255,18.0096597 10.1853076,18.0041422 L10.2499683,18 L20.749977,18 Z M5.62504105,10 C5.72658986,10 5.81447023,10.0370644 5.88868214,10.1111932 C5.94434107,10.1669129 5.9791279,10.230298 5.99304263,10.3013657 L6,10.3749949 L6,12.6250051 C6,12.7265115 5.96293509,12.8144317 5.88868214,12.8886837 C5.8330232,12.944311 5.76967577,12.9791128 5.69863982,12.993037 L5.62504105,13 L3.37495895,13 C3.27341014,13 3.18557082,12.9626893 3.11131786,12.8886837 C3.05562815,12.8331178 3.02085671,12.7696789 3.00695159,12.6986093 L3,12.6250051 L3,10.3749949 C3,10.2734064 3.03706491,10.1854862 3.11131786,10.1111932 C3.1669768,10.0555042 3.23032423,10.0208025 3.30136018,10.0069323 L3.37495895,10 L5.62504105,10 Z M20.749977,11 C20.8177571,11 20.8762883,11.0123548 20.9258441,11.0370644 C20.9752905,11.0618287 21,11.0911355 21,11.1249983 L21,11.1249983 L21,11.8750017 C21,11.9088372 20.9753726,11.9381439 20.9258441,11.9628946 C20.8762883,11.9876178 20.8177845,12 20.749977,12 L20.749977,12 L10.2499683,12 C10.1821882,12 10.1237117,11.9875631 10.0742106,11.9628946 C10.0247095,11.9381439 10,11.9088372 10,11.8750017 L10,11.8750017 L10,11.1249983 C10,11.0911355 10.0247095,11.0618287 10.0742106,11.0370644 C10.1236844,11.0123138 10.1822702,11 10.2499683,11 L10.2499683,11 Z M5.62504105,4 C5.72658986,4 5.81447023,4.03726963 5.88868214,4.11131634 C5.94434107,4.16700529 5.9791279,4.23033647 5.99304263,4.30137914 L6,4.37499487 L6,6.62500513 C6,6.72659361 5.96293509,6.81443172 5.88868214,6.88868366 C5.8330232,6.94446497 5.76967577,6.97918975 5.69863982,6.99306582 L5.62504105,7 L3.37495895,7 C3.27341014,7 3.18557082,6.9629356 3.11131786,6.88868366 C3.05562815,6.83299471 3.02085671,6.76966353 3.00695159,6.69862086 L3,6.62500513 L3,4.37499487 C3,4.27344744 3.03710595,4.18556828 3.11131786,4.11131634 C3.1669768,4.05562739 3.23032423,4.02085642 3.30136018,4.0069515 L3.37495895,4 L5.62504105,4 Z M10.2499683,5 L20.749977,5 C20.8177845,5 20.8762883,5.01240953 20.9258441,5.03710545 C20.9587901,5.05360588 20.9807541,5.07212516 20.9917442,5.09266734 L21,5.12499829 L21,5.87500171 C21,5.90886454 20.9753726,5.93814391 20.9258441,5.96289455 C20.8928069,5.97942235 20.8557928,5.99040439 20.8146964,5.99588933 L20.749977,6 L10.2499683,6 C10.1821882,6 10.1237117,5.9876452 10.0742106,5.96289455 C10.0412099,5.94639412 10.0192276,5.92788092 10.0082395,5.90733874 L10,5.87500171 L10,5.12499829 C10,5.09113546 10.0247369,5.06185609 10.0742106,5.03710545 C10.1071931,5.02060502 10.1442255,5.00961385 10.1853076,5.00411979 L10.2499683,5 L20.749977,5 Z" id="path-1"></path>
    </defs>
    <g id="Component-/-icon-/-24px-/-Richtext-/-Bullet-list" stroke="none" stroke-width="1"  fill-rule="evenodd">
        <g id="Component-/-icon-/-16px-/-Richtext-/-Bullet-list">
            <mask id="mask-2" fill="white">
                <use xlink:href="#path-1"></use>
            </mask>
            <use id="shape" fill="#1A1A1A" xlink:href="#path-1"></use>
        </g>
    </g>
</svg>