<svg width="12" height="9" viewBox="0 0 12 9" fill="none" xmlns="http://www.w3.org/2000/svg">
<path fill-rule="evenodd" clip-rule="evenodd" d="M0.292893 4.29289C0.683417 3.90237 1.31658 3.90237 1.70711 4.29289L4.70711 7.29289C5.09763 7.68342 5.09763 8.31658 4.70711 8.70711C4.31658 9.09763 3.68342 9.09763 3.29289 8.70711L0.292893 5.70711C-0.0976311 5.31658 -0.0976311 4.68342 0.292893 4.29289Z" fill="black"/>
<path fill-rule="evenodd" clip-rule="evenodd" d="M11.7071 0.292893C12.0976 0.683417 12.0976 1.31658 11.7071 1.70711L4.70711 8.70711C4.31658 9.09763 3.68342 9.09763 3.29289 8.70711C2.90237 8.31658 2.90237 7.68342 3.29289 7.29289L10.2929 0.292893C10.6834 -0.0976311 11.3166 -0.0976311 11.7071 0.292893Z" fill="black"/>
</svg>
