<?xml version="1.0" encoding="UTF-8"?>
<svg width="249px" height="227px" viewBox="0 0 249 227" version="1.1" xmlns="http://www.w3.org/2000/svg" xmlns:xlink="http://www.w3.org/1999/xlink">
    <!-- Generator: Sketch 49.3 (51167) - http://www.bohemiancoding.com/sketch -->
    <title>fly</title>
    <desc>Created with Sketch.</desc>
    <defs>
        <rect id="path-1" x="0" y="0" width="250" height="226.69384"></rect>
        <rect id="path-3" x="0" y="226.69384" width="248.77451" height="2.45074421" rx="1.22537211"></rect>
        <polygon id="path-4" points="0.000129955947 7.87610619e-05 177 7.87610619e-05 177 89.0000788 0.000129955947 89.0000788"></polygon>
        <polygon id="path-6" points="0.15631849 7.65957447e-05 168.843577 7.65957447e-05 168.843577 24 0.15631849 24"></polygon>
    </defs>
    <g id="Page-1" stroke="none" stroke-width="1" fill="none" fill-rule="evenodd">
        <g id="Fly" transform="translate(-835.000000, -77.000000)">
            <g id="fly" transform="translate(835.000000, 74.000000)">
                <g id="Illustration">
                    <g id="Oval-Copy">
                        <mask id="mask-2" fill="white">
                            <use xlink:href="#path-1"></use>
                        </mask>
                        <g id="Mask"></g>
                        <ellipse id="Oval" fill="#F2F2F2" mask="url(#mask-2)" cx="124.387255" cy="126.213327" rx="123.161765" ry="122.537211"></ellipse>
                    </g>
                </g>
                <g id="Rectangle-4">
                    <use fill="#000000" fill-rule="evenodd" xlink:href="#path-3"></use>
                    <rect stroke="#000000" stroke-width="1" x="0.5" y="227.19384" width="247.77451" height="1.45074421" rx="0.725372106"></rect>
                </g>
                <g id="folder" transform="translate(37.000000, 51.000000)">
                    <path d="M163.865689,48.0275229 L72.261495,48.0275229 L72.261495,42.5095046 C72.261495,38.9143211 69.3726811,36 65.8092836,36 L33.3613748,36 C29.7979773,36 26.9091633,38.9143211 26.9091633,42.5095046 L26.9091633,48.0275229 L17.1345697,48.0275229 C13.1940999,48.0275229 10,51.2501147 10,55.2254725 L14.7562934,142.80205 C14.7562934,146.777408 17.9503933,150 21.8908631,150 L159.109396,150 C163.049607,150 166.243707,146.777408 166.243707,142.80205 L171,55.2254725 C171,51.2501147 167.8059,48.0275229 163.865689,48.0275229" id="Fill-1" fill="#A8DBD5"></path>
                    <path d="M10.0363904,54.7266818 L14.7916088,142.267818 L14.7916088,142.282193 C14.7916088,145.961409 17.7587945,148.954545 21.4061115,148.954545 L158.593629,148.954545 C162.240946,148.954545 165.208391,145.961409 165.208391,142.282193 L165.208909,142.253705 L169.96361,54.7266818 C169.956096,51.054 166.991501,48.0681818 163.349107,48.0681818 L71.2474222,48.0681818 L71.2474222,42.0298977 C71.2474222,38.7301818 68.5862307,36.0454545 65.3148644,36.0454545 L32.8745488,36.0454545 C29.6031824,36.0454545 26.9417318,38.7301818 26.9417318,42.0298977 L26.9417318,48.0681818 L16.6508932,48.0681818 C13.008499,48.0681818 10.0439042,51.054 10.0363904,54.7266818 M158.593629,150 L21.4061115,150 C17.1921481,150 13.7629913,146.545818 13.7552183,142.29683 L9,54.7549091 L9,54.7407955 C9,50.4850114 12.432266,47.0227273 16.6508932,47.0227273 L25.9053414,47.0227273 L25.9053414,42.0298977 C25.9053414,38.1536136 29.0316131,35 32.8745488,35 L65.3148644,35 C69.1575409,35 72.2838126,38.1536136 72.2838126,42.0298977 L72.2838126,47.0227273 L163.349107,47.0227273 C167.567734,47.0227273 171,50.4850114 171,54.7407955 L170.999223,54.7692841 L166.244782,142.29683 C166.236491,146.545818 162.807593,150 158.593629,150" id="Fill-3" fill="#000000"></path>
                    <path d="M78.6151085,94 C78.5827644,94 78.5499068,93.9963781 78.517306,93.988908 C78.4985669,93.9846071 78.0493428,93.8804784 77.269233,93.6633927 C77.0664404,93.6068011 76.954006,93.4162003 77.0179242,93.2373707 C77.0818424,93.058541 77.2982401,92.9598451 77.5010327,93.0155313 C78.2608632,93.2271841 78.7080337,93.3310865 78.7123976,93.3319919 C78.9182706,93.3795289 79.0412297,93.5651496 78.9873228,93.7464693 C78.941887,93.8990405 78.7860704,94 78.6151085,94" id="Fill-5" fill="#000000"></path>
                    <path d="M70.7467511,90.9676373 C70.6893429,90.9676373 70.631141,90.9553453 70.5758492,90.9291921 C69.7671078,90.5465712 68.9705359,90.1456432 68.2078268,89.7376537 C68.0152315,89.6343487 67.9435374,89.3963549 68.0480362,89.2059598 C68.1522705,89.0150417 68.3930146,88.9441666 68.5858744,89.0474716 C69.3366785,89.4494458 70.1216101,89.8443587 70.9181821,90.2214874 C71.1160684,90.3151157 71.1994029,90.5491866 71.1049572,90.7445507 C71.0367022,90.8855163 70.8949013,90.9676373 70.7467511,90.9676373 M75.603168,93 C75.5574002,93 75.5105741,92.9918925 75.4650709,92.975416 C74.6420435,92.6733469 73.8116087,92.3474784 72.997047,92.0072257 C72.7954569,91.9224894 72.7010112,91.6923416 72.7861975,91.4930544 C72.8716485,91.2935057 73.1047205,91.2011851 73.3063106,91.2843521 C74.109761,91.6204203 74.9290846,91.9418428 75.7412652,92.2397274 C75.9465591,92.3150485 76.0513224,92.5410119 75.9751309,92.7439605 C75.9158708,92.9021871 75.7642814,93 75.603168,93" id="Fill-7" fill="#000000"></path>
                    <path d="M100.949723,6.21709613 C100.917262,6.21709613 100.88454,6.21321672 100.851817,6.20494065 C100.022759,5.99493518 99.1793028,5.8498452 98.3444855,5.77406737 C98.1285167,5.75441168 97.9696161,5.56535504 97.9895114,5.35198742 C98.0094067,5.1386198 98.2041712,4.98421923 98.416475,5.00128864 C99.2926537,5.08094588 100.177733,5.2330188 101.047105,5.45336937 C101.257053,5.50664661 101.383755,5.71794522 101.329828,5.92562303 C101.284278,6.1007138 101.124592,6.21709613 100.949723,6.21709613 M105.738993,8.21292393 C105.670407,8.21292393 105.601035,8.19507864 105.537684,8.15783629 C104.798155,7.72023869 104.033233,7.33514247 103.264384,7.0128927 C103.064646,6.92935605 102.971452,6.70150529 103.056007,6.50417257 C103.140824,6.3073571 103.371714,6.21502712 103.570929,6.29856377 C104.373285,6.63477942 105.170668,7.0364278 105.941088,7.49212931 C106.127213,7.60204596 106.187685,7.84024182 106.076428,8.02412591 C106.002868,8.1456808 105.872763,8.21292393 105.738993,8.21292393 M109.844232,11.371282 C109.745017,11.371282 109.646064,11.3342983 109.569624,11.2605894 C108.946849,10.6592807 108.298681,10.0972833 107.643445,9.59037356 C107.472764,9.45847358 107.442659,9.21458792 107.576429,9.04596285 C107.710199,8.87707914 107.957058,8.84785424 108.127738,8.97975423 C108.805488,9.50373338 109.475121,10.0846106 110.118577,10.7058336 C110.273813,10.8558375 110.276431,11.1012749 110.12486,11.254641 C110.047897,11.3322292 109.946064,11.371282 109.844232,11.371282 M113.21282,15.293884 C113.090045,15.293884 112.969103,15.2372446 112.892663,15.1309488 C112.383239,14.4246373 111.853134,13.7485852 111.316484,13.1211551 C111.176432,12.9577026 111.197374,12.7127824 111.362819,12.5746754 C111.528788,12.4363097 111.776432,12.4572585 111.916223,12.6204524 C112.466747,13.2641761 113.010464,13.9572975 113.532192,14.6809371 C113.657847,14.8552519 113.616747,15.0975858 113.440046,15.221727 C113.371197,15.2706076 113.291616,15.293884 113.21282,15.293884 M115.933241,19.68305 C115.792403,19.68305 115.656016,19.608048 115.585597,19.4766653 C115.175387,18.709835 114.746329,17.9634363 114.310727,17.2581593 C114.197638,17.0753097 114.256277,16.8368552 114.441355,16.7251282 C114.626172,16.6126252 114.868057,16.6713337 114.981146,16.8541833 C115.424864,17.5726502 115.862037,18.3332735 116.2801,19.113811 C116.381409,19.3033849 116.308111,19.53796 116.116487,19.6383074 C116.057849,19.6688255 115.995021,19.68305 115.933241,19.68305 M118.124342,24.3548957 C117.969368,24.3548957 117.822509,24.2636002 117.760468,24.1128204 C117.429839,23.3090064 117.083504,22.5196755 116.731147,21.7665525 C116.64031,21.5720646 116.726174,21.3416276 116.923032,21.2518839 C117.120153,21.1613643 117.353137,21.2464527 117.444237,21.4411992 C117.801567,22.2049259 118.152614,23.0056364 118.488217,23.82083 C118.569892,24.0191973 118.473034,24.2454963 118.272248,24.3264467 C118.223819,24.3458437 118.173557,24.3548957 118.124342,24.3548957 M119.890574,29.2010562 C119.724081,29.2010562 119.569631,29.0960535 119.51649,28.9307906 C119.250259,28.1047346 118.970416,27.2882479 118.685337,26.5040895 C118.612039,26.3026188 118.71806,26.0804578 118.922248,26.0077835 C119.125914,25.9356265 119.351306,26.0398533 119.424605,26.2420999 C119.712825,27.0345344 119.995548,27.8603317 120.26492,28.6954396 C120.330626,28.8994967 120.21649,29.1177782 120.009946,29.1829523 C119.970155,29.1953664 119.930103,29.2010562 119.890574,29.2010562 M121.313088,34.1571335 C121.137171,34.1571335 120.977224,34.0399753 120.932459,33.86385 C120.718585,33.0243454 120.493454,32.1907892 120.262825,31.3856821 C120.203925,31.1798146 120.325129,30.9651539 120.53403,30.9069627 C120.742145,30.8479957 120.959684,30.968516 121.018585,31.1746421 C121.251046,31.9869908 121.478271,32.8280472 121.693978,33.6745347 C121.746858,33.8824712 121.619371,34.0932525 121.409161,34.1454952 C121.376962,34.1535127 121.344763,34.1571335 121.313088,34.1571335 M122.392408,39.1977819 C122.199214,39.1977819 122.030889,39.0573472 122.003926,38.863118 C121.907853,38.1743932 121.776963,37.4564435 121.614921,36.7286659 L121.532198,36.3608977 C121.485077,36.1516681 121.618324,35.9442489 121.829842,35.897696 C122.041361,35.851919 122.251308,35.9825258 122.298691,36.1914968 L122.381937,36.5618512 C122.548429,37.3098017 122.682984,38.048183 122.781675,38.7568221 C122.811518,38.9694139 122.661256,39.1651948 122.446596,39.1944197 C122.428272,39.1967474 122.410209,39.1977819 122.392408,39.1977819 M122.468324,44.3346397 C122.451309,44.3346397 122.434293,44.3336052 122.417015,44.3312775 C122.202094,44.3036044 122.050261,44.1088579 122.078533,43.8962662 C122.168848,43.2134898 122.214659,42.4929538 122.214659,41.7553484 C122.214659,41.6330177 122.21335,41.509911 122.210994,41.3857698 C122.206544,41.1713677 122.378795,40.9944666 122.595811,40.9900699 L122.603665,40.9900699 C122.816754,40.9900699 122.991885,41.158695 122.996073,41.3702522 C122.998691,41.4998245 123,41.6281037 123,41.7553484 C123,42.5265754 122.951832,43.2807329 122.85733,43.9968723 C122.831413,44.1923946 122.662565,44.3346397 122.468324,44.3346397 M120.872512,49.1479546 C120.806805,49.1479546 120.739789,49.1316611 120.678532,49.097005 C120.490051,48.9909677 120.424606,48.754065 120.531935,48.5678533 C120.939266,47.8620591 121.276962,47.1040221 121.535078,46.3141739 C121.601831,46.1103755 121.822774,45.9986485 122.029319,46.0640812 C122.235863,46.1300312 122.349214,46.34883 122.28246,46.5526284 C122.007591,47.3931675 121.648167,48.2003437 121.214135,48.9521736 C121.141622,49.0778666 121.008899,49.1479546 120.872512,49.1479546 M117.487431,52.9619331 C117.370938,52.9619331 117.256017,52.9112422 117.17853,52.8137396 C117.044498,52.6453732 117.07408,52.4012289 117.24476,52.2690703 C117.923557,51.7422462 118.540049,51.1706796 119.077746,50.5704054 C119.221202,50.4095391 119.469369,50.3947974 119.631935,50.5365252 C119.794239,50.6785116 119.809422,50.9236904 119.665966,51.0840394 C119.097118,51.7197456 118.445808,52.323382 117.729839,52.8791724 C117.65785,52.9350359 117.572509,52.9619331 117.487431,52.9619331 M112.999469,55.5264826 C112.847113,55.5264826 112.702349,55.4385493 112.638474,55.2913903 C112.552872,55.0945748 112.645281,54.8664654 112.844496,54.7818943 C113.66125,54.4358508 114.432193,54.0590306 115.13612,53.6615203 C115.324602,53.5557417 115.564131,53.6201399 115.671723,53.806093 C115.779314,53.9920461 115.713869,54.2292075 115.525649,54.3355034 C114.796068,54.7474968 113.998161,55.1372484 113.154182,55.4951887 C113.103658,55.5163962 113.05104,55.5264826 112.999469,55.5264826 M108.051822,57.1498869 C107.876691,57.1498869 107.717005,57.0329873 107.671717,56.8576379 C107.618052,56.6499601 107.745016,56.4389202 107.955225,56.3859015 C108.820409,56.1683959 109.655488,55.9291655 110.43664,55.6757106 C110.642923,55.6079503 110.864651,55.7194187 110.932191,55.9232171 C110.999992,56.1270155 110.887688,56.3460729 110.681667,56.4127988 C109.883499,56.6719435 109.031666,56.9155705 108.148943,57.1379901 C108.116482,57.1460075 108.084021,57.1498869 108.051822,57.1498869 M102.929829,58.1649996 C102.739515,58.1649996 102.572499,58.0281856 102.542394,57.8368014 C102.509148,57.6249855 102.656007,57.4266183 102.870143,57.3937726 C103.751557,57.2585104 104.611767,57.1087652 105.427475,56.9486748 C105.640826,56.9078117 105.847108,57.0435911 105.889255,57.2538552 C105.931402,57.4638606 105.793182,57.6681763 105.580616,57.7100739 C104.754176,57.8722333 103.882709,58.023789 102.990562,58.1606029 C102.970405,58.1637064 102.949986,58.1649996 102.929829,58.1649996 M97.7410819,58.792171 C97.54082,58.792171 97.3698775,58.6416499 97.3505057,58.4406964 C97.3300869,58.2275874 97.4887257,58.0380135 97.7046944,58.0180992 C98.5960563,57.9350798 99.4672611,57.8427498 100.293701,57.7439541 C100.508623,57.7199018 100.704697,57.8699057 100.730875,58.082756 C100.756791,58.2953478 100.603388,58.4885425 100.387942,58.5144052 C99.5546957,58.6139768 98.6766847,58.706824 97.7782547,58.7903607 C97.7656893,58.7916538 97.7533856,58.792171 97.7410819,58.792171 M92.5256333,59.1710602 C92.3188268,59.1710602 92.1457901,59.0114871 92.1340099,58.8048438 C92.1219681,58.5909589 92.287675,58.4078507 92.5041673,58.3956952 C93.4062621,58.3457801 94.2819172,58.2904338 95.1073104,58.2309495 C95.323541,58.2143974 95.5114992,58.3760395 95.5274678,58.5899244 C95.5431746,58.8035506 95.3806091,58.9892451 95.1641168,59.0047628 C94.334535,59.0645057 93.4544297,59.1203692 92.5481464,59.170543 C92.5405547,59.1708016 92.5332249,59.1710602 92.5256333,59.1710602 M87.3007605,59.3994282 C87.0902892,59.3994282 86.9162053,59.2344239 86.9086136,59.0251943 C86.901022,58.8107922 87.0706556,58.6313048 87.2874097,58.6238046 C88.1575674,58.5938038 89.0282486,58.5606995 89.8973592,58.5231985 C90.109663,58.5115603 90.2973595,58.6799267 90.3067835,58.8940702 C90.3162076,59.1082137 90.1481447,59.2892529 89.9313906,59.2985635 C89.0601858,59.3360645 88.1871486,59.3691688 87.3148966,59.3991696 C87.3101846,59.3994282 87.3054726,59.3994282 87.3007605,59.3994282 M82.07327,59.554346 C81.8614897,59.554346 81.6868823,59.38779 81.6808613,59.1772673 C81.6748404,58.9631238 81.8457829,58.7846708 82.062537,58.7787224 L82.26149,58.7732912 C83.0627994,58.7513079 83.8682974,58.7293246 84.6761514,58.7057895 C84.891073,58.6918236 85.0740574,58.8679489 85.0803401,59.0820924 C85.0868846,59.2962359 84.9162039,59.4749474 84.6994498,59.4811545 C83.8910723,59.5049482 83.0850508,59.5269315 82.2832178,59.5489149 L82.0842647,59.5540874 C82.0805998,59.554346 82.0769349,59.554346 82.07327,59.554346 M76.8442087,59.7097811 C76.6337374,59.7097811 76.4593917,59.5450355 76.4520619,59.3355473 C76.4444702,59.1214037 76.6138421,58.9416577 76.8305962,58.9341575 C77.693424,58.9041567 78.5664612,58.8770008 79.4473519,58.8516553 C79.6667238,58.842862 79.8449962,59.0138147 79.8515407,59.2279582 C79.8578234,59.4421017 79.6871426,59.6205547 79.4703886,59.6270204 C78.5908068,59.6523658 77.7193402,59.6795217 76.8583449,59.7095225 C76.8536328,59.7097811 76.8489208,59.7097811 76.8442087,59.7097811 M71.6180271,59.9518564 C71.4122678,59.9518564 71.239231,59.7935764 71.2264038,59.587709 C71.213053,59.3740827 71.377451,59.18994 71.5939433,59.17675 C72.4133156,59.126059 73.2942063,59.0797647 74.2127933,59.0383843 C74.4350448,59.03166 74.6130553,59.1940781 74.623003,59.4082216 C74.6326889,59.6221064 74.4651495,59.8036629 74.2483954,59.8132321 C73.3345204,59.8546125 72.4578182,59.9009068 71.6426344,59.9510805 C71.6345192,59.9515978 71.6261423,59.9518564 71.6180271,59.9518564 M66.4062434,60.4044544 C66.2104317,60.4044544 66.0410599,60.2598816 66.0169761,60.0630662 C65.990798,59.8502158 66.1442013,59.6570211 66.3596465,59.6311584 C67.1753538,59.5336559 68.0554592,59.444688 68.9753551,59.3663239 C69.1913238,59.3497718 69.3818999,59.5059827 69.4004863,59.7193503 C69.4190727,59.932718 69.2588631,60.1209987 69.0428944,60.1391026 C68.131899,60.2166909 67.260956,60.3051414 66.4538874,60.4016095 C66.4379188,60.4034199 66.4219502,60.4044544 66.4062434,60.4044544 M61.2591194,61.302926 C61.0834648,61.302926 60.923517,61.1857678 60.8787526,61.0096425 C60.825873,60.8019647 60.95336,60.5911834 61.1635696,60.538682 C61.9567638,60.3413493 62.8277068,60.1618619 63.7517912,60.0051336 C63.965404,59.9676327 64.1685455,60.110395 64.2051947,60.3216936 C64.2418439,60.5329922 64.0983883,60.7334285 63.8847756,60.7698949 C62.9803247,60.923261 62.129277,61.0986104 61.3554545,61.2912878 C61.3229937,61.2993052 61.2907948,61.302926 61.2591194,61.302926 M56.4449799,63.2108205 C56.316184,63.2108205 56.1900059,63.1484913 56.1148749,63.0339193 C55.9970738,62.853656 56.0489063,62.6139084 56.2311054,62.4972674 C56.9125195,62.0614802 57.718541,61.6655217 58.6271804,61.3199954 C58.8295365,61.2429245 59.0567618,61.342496 59.1347723,61.542415 C59.2125211,61.742334 59.1117357,61.9670812 58.9093795,62.043635 C58.0512637,62.3702814 57.2939334,62.741929 56.6578073,63.1484913 C56.5918386,63.1906476 56.5180166,63.2108205 56.4449799,63.2108205 M53.5242972,67.1812686 C53.4989045,67.1812686 53.4732501,67.178941 53.4475956,67.1737684 C53.2347682,67.1318708 53.0965482,66.9278138 53.1386949,66.7178083 C53.3177526,65.8270955 53.6868628,65.0095742 54.2352925,64.2877451 C54.3656591,64.1165337 54.6119943,64.081619 54.7850311,64.2104155 C54.9583296,64.3389533 54.9934082,64.5823217 54.8633034,64.7535331 C54.3860779,65.3817391 54.0648735,66.0934817 53.9091142,66.8688467 C53.8719414,67.0535067 53.7078052,67.1812686 53.5242972,67.1812686 M53.6661821,72.2961431 C53.4797946,72.2961431 53.3143494,72.1645018 53.280318,71.9769969 C53.1245587,71.1222333 53.0303178,70.2423828 53.0002131,69.3609805 C52.993145,69.1470957 53.1627786,68.9676082 53.3795327,68.9606253 C53.5923601,68.9417455 53.7779623,69.1212329 53.7852922,69.3353764 C53.8138262,70.1790191 53.9041404,71.0213686 54.0530934,71.8394071 C54.0915751,72.0504471 53.9496902,72.2519178 53.7363393,72.2901947 C53.712779,72.2940741 53.6892188,72.2961431 53.6661821,72.2961431 M55.3216807,77.1650629 C55.1779633,77.1650629 55.0394815,77.0866988 54.9706333,76.951178 C54.5685388,76.1600367 54.2229888,75.3440672 53.943931,74.5255115 C53.8745592,74.3224889 53.9850305,74.1021384 54.1905281,74.0338607 C54.3960256,73.9655831 54.6188006,74.0744652 54.6879106,74.2774878 C54.9554501,75.0619047 55.2866021,75.8445113 55.6724663,76.6030655 C55.7698485,76.7947084 55.6915762,77.0277317 55.4978588,77.1239411 C55.4410525,77.1518729 55.3811048,77.1650629 55.3216807,77.1650629 M58.2193267,81.436812 C58.10807,81.436812 57.9975988,81.3905177 57.9201118,81.3002567 C57.3352946,80.6216184 56.7952419,79.9202208 56.3143515,79.2152025 C56.1931472,79.0375254 56.2407913,78.7964847 56.4206343,78.6767402 C56.6004774,78.5572543 56.8447184,78.6040659 56.9656609,78.7817429 C57.4300591,79.4627089 57.9523108,80.14083 58.518018,80.7972264 C58.658594,80.9604203 58.6386987,81.2053404 58.4735153,81.3442234 C58.3996933,81.4065526 58.3091173,81.436812 58.2193267,81.436812 M61.9570256,85.0252674 C61.869591,85.0252674 61.7816328,84.9963012 61.7088579,84.9375927 C61.0130459,84.3755953 60.3483857,83.7923905 59.7334638,83.204789 C59.5774428,83.0558196 59.5732543,82.8101236 59.7243015,82.6562403 C59.875087,82.502357 60.1235165,82.4984775 60.2795375,82.6471883 C60.8790144,83.2197894 61.5269206,83.7887697 62.2059787,84.3370599 C62.3737798,84.4725806 62.3986489,84.7169835 62.2612143,84.8827637 C62.1837273,84.9766455 62.0709,85.0252674 61.9570256,85.0252674 M66.2161909,88 C66.1460338,88 66.0750913,87.9813788 66.0109551,87.9423261 C65.2494363,87.4799003 64.5088598,86.9985946 63.8099065,86.5121165 C63.6326812,86.3884926 63.5902728,86.1466759 63.715142,85.9713265 C63.8400112,85.7964944 64.0847758,85.7543381 64.2622628,85.8777034 C64.9481272,86.3551296 65.6748292,86.8276419 66.422212,87.281533 C66.6070288,87.3937773 66.6648823,87.6327491 66.5512696,87.81534 C66.476924,87.9343086 66.3481281,88 66.2161909,88" id="Fill-9" fill="#000000"></path>
                    <path d="M93.3787161,6 C93.212883,6 93.0606801,5.88632226 93.0139843,5.7130617 C92.9579494,5.50452184 93.0753198,5.2886648 93.2764903,5.23064995 C93.2961782,5.2246394 93.7676792,5.09005541 94.5819524,5.0017265 C94.7906951,4.98186556 94.9762162,5.13552651 94.9979234,5.35086089 C95.0196306,5.56619528 94.8686897,5.75879412 94.6607042,5.78152967 C93.9166009,5.86201874 93.4842233,5.98432031 93.4799324,5.98562695 C93.4461095,5.99529609 93.4120342,6 93.3787161,6" id="Fill-11" fill="#000000"></path>
                    <path d="M177,73.7910448 C177,69.4883104 173.508077,66 169.200886,66 L8.79911374,66 C4.49166322,66 1,69.4883104 1,73.7910448 L5.34462629,153 L172.655374,153 L177,73.7910448 Z" id="Fill-13" fill="#FFFFFF"></path>
                    <g id="Group-17" transform="translate(0.000000, 65.000000)">
                        <mask id="mask-5" fill="white">
                            <use xlink:href="#path-4"></use>
                        </mask>
                        <g id="Clip-16"></g>
                        <path d="M5.35587445,87.9499313 L171.644126,87.9499313 L175.960482,8.38708171 C175.952685,4.34007581 172.690791,1.05022625 168.682949,1.05022625 L8.31731057,1.05022625 C4.30920925,1.05022625 1.04731498,4.34007581 1.03977753,8.38708171 L5.35587445,87.9499313 Z M172.628412,89.0000788 L4.37158811,89.0000788 L0.000129955947,8.4012587 C0.000129955947,3.76879558 3.7311652,7.87610619e-05 8.31731057,7.87610619e-05 L168.682949,7.87610619e-05 C173.268835,7.87610619e-05 177.00013,3.76879558 177.00013,8.4012587 L176.99935,8.42987522 L172.628412,89.0000788 Z" id="Fill-15" fill="#000000" mask="url(#mask-5)"></path>
                    </g>
                    <path d="M13.6895472,175 L164.310453,175 C168.635387,175 172.141696,171.567378 172.141696,167.333333 L173,152 L5,152 L5.85830423,167.333333 C5.85830423,171.567378 9.36435168,175 13.6895472,175" id="Fill-18" fill="#FFFFFF"></path>
                    <g id="Group-22" transform="translate(4.000000, 152.000000)">
                        <mask id="mask-7" fill="white">
                            <use xlink:href="#path-6"></use>
                        </mask>
                        <g id="Clip-21"></g>
                        <path d="M1.25651109,1.02135319 L2.08328305,15.8298638 C2.08328305,19.7717362 5.35391479,22.9788 9.37450031,22.9788 L159.625656,22.9788 C163.645981,22.9788 166.916873,19.7717362 166.916873,15.8298638 L166.917654,15.802034 L167.743645,1.02135319 L1.25651109,1.02135319 Z M159.625656,24.0000766 L9.37450031,24.0000766 C4.78441864,24.0000766 1.0494926,20.3426298 1.04168059,15.8441617 L0.15631849,7.65957447e-05 L168.843577,7.65957447e-05 L167.958476,15.8441617 C167.950664,20.3426298 164.215738,24.0000766 159.625656,24.0000766 Z" id="Fill-20" fill="#000000" mask="url(#mask-7)"></path>
                    </g>
                    <path d="M81.1029897,8.80571525 C81.6580891,10.598732 84.3005041,11.4672979 87.0049059,10.7464281 C89.7095608,10.0250887 91.4520265,7.98716413 90.8969271,6.1943822 C90.3418276,4.40136546 87.6996657,3.53256479 84.9950109,4.25366935 C82.290609,4.97500872 80.5481433,7.01293332 81.1029897,8.80571525" id="Fill-23" fill="#000000"></path>
                    <path d="M89.5668273,10.9924449 C92.6041809,10.8970505 95.0364067,9.92786134 94.9995874,8.82747597 C94.962529,7.7270906 92.4705316,6.91219565 89.4329389,7.0075901 C86.3955854,7.10275357 83.9633595,8.07194269 84.0004179,9.17232806 C84.0372372,10.2727134 86.5294738,11.0876084 89.5668273,10.9924449" id="Fill-25" fill="#FFFFFF"></path>
                    <path d="M90.4466179,7.2734002 C90.2766009,7.2734002 90.1053076,7.27640243 89.9327378,7.28240689 C88.3790995,7.33617408 86.9278287,7.62875492 85.8459491,8.10583636 C84.818189,8.55889997 84.2384466,9.13996771 84.2555504,9.69947398 C84.2723989,10.2589802 84.8860937,10.7985626 85.9391266,11.1798457 C87.0478106,11.5807797 88.5131219,11.774287 90.0672707,11.7180634 C93.1811847,11.6099832 95.7809633,10.5029796 95.7444582,9.30099634 C95.7276097,8.74121714 95.1139149,8.20163475 94.060882,7.82062463 C93.0754985,7.46390526 91.807264,7.2734002 90.4466179,7.2734002 M89.5556882,12 C88.1664507,12 86.8688589,11.8043093 85.8574368,11.4383103 C84.680848,11.0125397 84.0212027,10.3981745 84.000525,9.70848066 C83.9793367,9.01878684 84.6001793,8.35966116 85.7486872,7.85337621 C86.8578818,7.36428585 88.3410627,7.06433591 89.9245688,7.009477 C91.5078197,6.95298051 93.0060621,7.15058175 94.1428271,7.56216002 C95.3191605,7.98765772 95.9788059,8.6020229 95.9994836,9.29198965 C96.0421155,10.6885719 93.4400393,11.8739064 90.0754397,11.9909933 C89.901083,11.9969978 89.7277474,12 89.5556882,12" id="Fill-27" fill="#000000"></path>
                    <path d="M86.8969113,4.8316858 C89.6131897,3.51946147 91.4134281,1.63585312 90.9179823,0.624307525 C90.4225366,-0.387238069 87.8191295,-0.14391014 85.1030887,1.1683142 C82.3868103,2.48030252 80.5865719,4.36414688 81.0820177,5.37569248 C81.5772258,6.38723807 84.1806329,6.14391014 86.8969113,4.8316858" id="Fill-29" fill="#FFFFFF"></path>
                    <path d="M90.1150006,0.268371548 C88.9387243,0.268371548 87.2689073,0.718365124 85.5921966,1.56432127 C84.194044,2.26990272 82.9802351,3.14313922 82.1744335,4.02379175 C81.4089731,4.860213 81.101308,5.62035519 81.3305887,6.10901802 C81.559614,6.59768085 82.3258405,6.81433461 83.432924,6.70759688 C84.5982214,6.59397284 86.0099062,6.14291983 87.4078034,5.43760323 C88.8062113,4.73202178 90.0197649,3.85852042 90.8255665,2.97786789 C91.5910269,2.14144663 91.898692,1.38130445 91.6694113,0.892641624 C91.4717908,0.471252701 90.9044615,0.268371548 90.1150006,0.268371548 M82.9008294,7 C81.9691533,7 81.3385037,6.73169894 81.1007973,6.22476092 C80.8184093,5.62247405 81.1339894,4.77625305 81.9893238,3.84130465 C82.8155513,2.93840406 84.0554032,2.04503836 85.4803648,1.32621401 C88.5077379,-0.201221514 91.3272776,-0.443036779 91.8992027,0.776898721 C92.1815907,1.37918559 91.8660106,2.22567145 91.0106762,3.16035499 C90.1844487,4.06325558 88.9445968,4.95662128 87.5196352,5.67544563 C86.0946736,6.39453483 84.6518394,6.85459301 83.4569245,6.97139535 C83.2613465,6.99046512 83.0757262,7 82.9008294,7" id="Fill-31" fill="#000000"></path>
                </g>
            </g>
        </g>
    </g>
</svg>