<?xml version="1.0" encoding="UTF-8"?>
<svg width="249px" height="227px" viewBox="0 0 249 227" version="1.1" xmlns="http://www.w3.org/2000/svg" xmlns:xlink="http://www.w3.org/1999/xlink">
    <!-- Generator: Sketch 49.3 (51167) - http://www.bohemiancoding.com/sketch -->
    <title>fly</title>
    <desc>Created with Sketch.</desc>
    <defs>
        <rect id="path-1" x="0" y="0" width="250" height="226.69384"></rect>
        <polygon id="path-3" points="0.000129955947 7.87610619e-05 177 7.87610619e-05 177 89.0000788 0.000129955947 89.0000788"></polygon>
        <polygon id="path-5" points="0.15631849 7.65957447e-05 168.843577 7.65957447e-05 168.843577 24 0.15631849 24"></polygon>
    </defs>
    <g id="Page-1" stroke="none" stroke-width="1" fill="none" fill-rule="evenodd">
        <g id="fly" transform="translate(0.000000, -3.000000)">
            <g id="Illustration">
                <g id="Oval-Copy">
                    <g id="Oval-Clipped">
                        <mask id="mask-2" fill="white">
                            <use xlink:href="#path-1"></use>
                        </mask>
                        <g id="path-1"></g>
                        <ellipse id="Oval" fill="#F2F2F2" fill-rule="nonzero" mask="url(#mask-2)" cx="124.387255" cy="126.213327" rx="123.161765" ry="122.537211"></ellipse>
                    </g>
                </g>
            </g>
            <g id="Rectangle-4" transform="translate(0.000000, 226.000000)">
                <g id="path-3-link" fill="#000000">
                    <rect id="path-3" x="0" y="0.69384" width="248.77451" height="2.45074421" rx="1.2253721"></rect>
                </g>
                <rect id="Rectangle-path" stroke="#000000" x="0.5" y="1.19384" width="247.77451" height="1.45074421" rx="0.725372105"></rect>
            </g>
            <g id="folder" transform="translate(37.000000, 86.000000)">
                <path d="M163.865689,13.0275229 L72.261495,13.0275229 L72.261495,7.5095046 C72.261495,3.9143211 69.3726811,1 65.8092836,1 L33.3613748,1 C29.7979773,1 26.9091633,3.9143211 26.9091633,7.5095046 L26.9091633,13.0275229 L17.1345697,13.0275229 C13.1940999,13.0275229 10,16.2501147 10,20.2254725 L14.7562934,107.80205 C14.7562934,111.777408 17.9503933,115 21.8908631,115 L159.109396,115 C163.049607,115 166.243707,111.777408 166.243707,107.80205 L171,20.2254725 C171,16.2501147 167.8059,13.0275229 163.865689,13.0275229" id="Fill-1" fill="#A8DBD5" fill-rule="nonzero"></path>
                <path d="M10.0363904,19.7266818 L14.7916088,107.267818 L14.7916088,107.282193 C14.7916088,110.961409 17.7587945,113.954545 21.4061115,113.954545 L158.593629,113.954545 C162.240946,113.954545 165.208391,110.961409 165.208391,107.282193 L165.208909,107.253705 L169.96361,19.7266818 C169.956096,16.054 166.991501,13.0681818 163.349107,13.0681818 L71.2474222,13.0681818 L71.2474222,7.0298977 C71.2474222,3.7301818 68.5862307,1.0454545 65.3148644,1.0454545 L32.8745488,1.0454545 C29.6031824,1.0454545 26.9417318,3.7301818 26.9417318,7.0298977 L26.9417318,13.0681818 L16.6508932,13.0681818 C13.008499,13.0681818 10.0439042,16.054 10.0363904,19.7266818 M158.593629,115 L21.4061115,115 C17.1921481,115 13.7629913,111.545818 13.7552183,107.29683 L9,19.7549091 L9,19.7407955 C9,15.4850114 12.432266,12.0227273 16.6508932,12.0227273 L25.9053414,12.0227273 L25.9053414,7.0298977 C25.9053414,3.1536136 29.0316131,0 32.8745488,0 L65.3148644,0 C69.1575409,0 72.2838126,3.1536136 72.2838126,7.0298977 L72.2838126,12.0227273 L163.349107,12.0227273 C167.567734,12.0227273 171,15.4850114 171,19.7407955 L170.999223,19.7692841 L166.244782,107.29683 C166.236491,111.545818 162.807593,115 158.593629,115" id="Fill-3" fill="#000000" fill-rule="nonzero"></path>
                <path d="M78.6151085,59 C78.5827644,59 78.5499068,58.9963781 78.517306,58.988908 C78.4985669,58.9846071 78.0493428,58.8804784 77.269233,58.6633927 C77.0664404,58.6068011 76.954006,58.4162003 77.0179242,58.2373707 C77.0818424,58.058541 77.2982401,57.9598451 77.5010327,58.0155313 C78.2608632,58.2271841 78.7080337,58.3310865 78.7123976,58.3319919 C78.9182706,58.3795289 79.0412297,58.5651496 78.9873228,58.7464693 C78.941887,58.8990405 78.7860704,59 78.6151085,59" id="Fill-5" fill="#000000" fill-rule="nonzero"></path>
                <path d="M70.7467511,55.9676373 C70.6893429,55.9676373 70.631141,55.9553453 70.5758492,55.9291921 C69.7671078,55.5465712 68.9705359,55.1456432 68.2078268,54.7376537 C68.0152315,54.6343487 67.9435374,54.3963549 68.0480362,54.2059598 C68.1522705,54.0150417 68.3930146,53.9441666 68.5858744,54.0474716 C69.3366785,54.4494458 70.1216101,54.8443587 70.9181821,55.2214874 C71.1160684,55.3151157 71.1994029,55.5491866 71.1049572,55.7445507 C71.0367022,55.8855163 70.8949013,55.9676373 70.7467511,55.9676373 M75.603168,58 C75.5574002,58 75.5105741,57.9918925 75.4650709,57.975416 C74.6420435,57.6733469 73.8116087,57.3474784 72.997047,57.0072257 C72.7954569,56.9224894 72.7010112,56.6923416 72.7861975,56.4930544 C72.8716485,56.2935057 73.1047205,56.2011851 73.3063106,56.2843521 C74.109761,56.6204203 74.9290846,56.9418428 75.7412652,57.2397274 C75.9465591,57.3150485 76.0513224,57.5410119 75.9751309,57.7439605 C75.9158708,57.9021871 75.7642814,58 75.603168,58" id="Fill-7" fill="#000000" fill-rule="nonzero"></path>
                <path d="M177,38.7910448 C177,34.4883104 173.508077,31 169.200886,31 L8.79911374,31 C4.49166322,31 1,34.4883104 1,38.7910448 L5.34462629,118 L172.655374,118 L177,38.7910448 Z" id="Fill-13" fill="#FFFFFF" fill-rule="nonzero"></path>
                <g id="Group-17" transform="translate(0.000000, 30.000000)">
                    <g id="Fill-15-Clipped">
                        <mask id="mask-4" fill="white">
                            <use xlink:href="#path-3"></use>
                        </mask>
                        <g id="path-4"></g>
                        <path d="M5.35587445,87.9499313 L171.644126,87.9499313 L175.960482,8.38708171 C175.952685,4.34007581 172.690791,1.05022625 168.682949,1.05022625 L8.31731057,1.05022625 C4.30920925,1.05022625 1.04731498,4.34007581 1.03977753,8.38708171 L5.35587445,87.9499313 Z M172.628412,89.0000788 L4.37158811,89.0000788 L0.000129955947,8.4012587 C0.000129955947,3.76879558 3.7311652,7.87610619e-05 8.31731057,7.87610619e-05 L168.682949,7.87610619e-05 C173.268835,7.87610619e-05 177.00013,3.76879558 177.00013,8.4012587 L176.99935,8.42987522 L172.628412,89.0000788 Z" id="Fill-15" fill="#000000" fill-rule="nonzero" mask="url(#mask-4)"></path>
                    </g>
                </g>
                <path d="M13.6895472,140 L164.310453,140 C168.635387,140 172.141696,136.567378 172.141696,132.333333 L173,117 L5,117 L5.85830423,132.333333 C5.85830423,136.567378 9.36435168,140 13.6895472,140" id="Fill-18" fill="#FFFFFF" fill-rule="nonzero"></path>
                <g id="Group-22" transform="translate(4.000000, 117.000000)">
                    <g id="Fill-20-Clipped">
                        <mask id="mask-6" fill="white">
                            <use xlink:href="#path-5"></use>
                        </mask>
                        <g id="path-6"></g>
                        <path d="M1.25651109,1.02135319 L2.08328305,15.8298638 C2.08328305,19.7717362 5.35391479,22.9788 9.37450031,22.9788 L159.625656,22.9788 C163.645981,22.9788 166.916873,19.7717362 166.916873,15.8298638 L166.917654,15.802034 L167.743645,1.02135319 L1.25651109,1.02135319 Z M159.625656,24.0000766 L9.37450031,24.0000766 C4.78441864,24.0000766 1.0494926,20.3426298 1.04168059,15.8441617 L0.15631849,7.65957447e-05 L168.843577,7.65957447e-05 L167.958476,15.8441617 C167.950664,20.3426298 164.215738,24.0000766 159.625656,24.0000766 Z" id="Fill-20" fill="#000000" fill-rule="nonzero" mask="url(#mask-6)"></path>
                    </g>
                </g>
            </g>
        </g>
    </g>
</svg>