<?xml version="1.0" encoding="UTF-8" standalone="no"?>
<svg width="893px" height="302px" viewBox="0 0 893 302" version="1.1" xmlns="http://www.w3.org/2000/svg" xmlns:xlink="http://www.w3.org/1999/xlink">
    <!-- Generator: Sketch 40.3 (33839) - http://www.bohemiancoding.com/sketch -->
    <title>Group</title>
    <desc>Created with Sketch.</desc>
    <defs>
        <path d="M359.959761,193.74161 C360.920672,190.570607 364.380943,188 367.701953,188 L504.697334,188 C508.012318,188 511.477529,190.567022 512.439525,193.74161 L528.959761,248.25839 C529.920672,251.429393 528.219223,255.036906 525.166494,256.313059 L498.405814,267.5 L421.905814,278 L359.905814,282.5 L344.933563,259.062388 C343.147518,256.266508 342.477529,251.432978 343.439525,248.25839 L359.959761,193.74161 Z" id="path-1"></path>
        <mask id="mask-2" maskContentUnits="userSpaceOnUse" maskUnits="objectBoundingBox" x="0" y="0" width="186.228143" height="94.5" fill="white">
            <use xlink:href="#path-1"></use>
        </mask>
        <path d="M408.341688,246 L346.99491,246 C343.68989,246 341,248.685512 341,251.99826 L341,294.00174 C341,297.322132 343.684013,300 346.99491,300 L524.00509,300 C527.31011,300 530,297.314488 530,294.00174 L530,251.99826 C530,248.677868 527.315987,246 524.00509,246 L463.65956,246 C463.88004,246.626041 464,247.300217 464,248.003331 L464,251.996669 C464,255.312217 461.31787,258 458.007019,258 L413.992981,258 C410.683149,258 408,255.32196 408,251.996669 L408,248.003331 C408,247.300841 408.120406,246.626533 408.341688,246 Z" id="path-3"></path>
        <mask id="mask-4" maskContentUnits="userSpaceOnUse" maskUnits="objectBoundingBox" x="0" y="0" width="189" height="54" fill="white">
            <use xlink:href="#path-3"></use>
        </mask>
        <rect id="path-5" x="390" y="200" width="57" height="14" rx="6"></rect>
        <mask id="mask-6" maskContentUnits="userSpaceOnUse" maskUnits="objectBoundingBox" x="0" y="0" width="57" height="14" fill="white">
            <use xlink:href="#path-5"></use>
        </mask>
        <rect id="path-7" x="390" y="223" width="92" height="14" rx="6"></rect>
        <mask id="mask-8" maskContentUnits="userSpaceOnUse" maskUnits="objectBoundingBox" x="0" y="0" width="92" height="14" fill="white">
            <use xlink:href="#path-7"></use>
        </mask>
    </defs>
    <g id="FINAL" stroke="none" stroke-width="1" fill="none" fill-rule="evenodd">
        <g id="Empty-state" transform="translate(-353.000000, -235.000000)">
            <g id="Group" transform="translate(353.000000, 236.000000)">
                <rect id="Rectangle-3" fill="#000000" x="0" y="300" width="893" height="1" rx="0.5"></rect>
                <rect id="Rectangle-22" fill="#CCCCCC" x="256" y="111" width="16" height="16"></rect>
                <circle id="Oval-4-Copy" stroke="#CCCCCC" cx="460" cy="4" r="4"></circle>
                <circle id="Oval-4-Copy-4" stroke="#CCCCCC" cx="268" cy="252" r="4"></circle>
                <circle id="Oval-4-Copy-2" stroke="#CCCCCC" cx="568" cy="48" r="4"></circle>
                <rect id="Rectangle-22-Copy-2" fill="#CCCCCC" x="602" y="206" width="16" height="16"></rect>
                <path d="M504.636973,197.219433 C515.671712,196.249682 518.161463,223.245862 519.965519,232.157437 C521.051164,237.520241 525.871468,244.793035 521.817199,248.467432 C517.112978,252.730882 504.868866,253.725049 502.785293,247.727931 C497.07101,231.280586 503.204149,212.906998 503.413577,195.496532" id="Combined-Shape" fill="#F2F2F2"></path>
                <use id="Rectangle-11" stroke="#000000" mask="url(#mask-2)" stroke-width="8" xlink:href="#path-1"></use>
                <use id="Combined-Shape" stroke="#000000" mask="url(#mask-4)" stroke-width="8" fill="#FFFFFF" xlink:href="#path-3"></use>
                <path d="M345.231076,259 C419.659066,291.907977 356.649027,270.765285 422.753797,278.256292 C455.657927,281.984995 431.518418,285.413918 456.450844,285.661057 C479.385203,285.888391 502.667722,282.054617 524.959068,290.105867 C525.736563,290.386685 525.78493,292.549647 524.959068,292.58583 C496.673368,293.825079 468.329746,292.978217 440.029631,293.826786 C433.95233,294.009012 425.564142,296.682487 421.883566,295.676514 C415.115926,293.826786 418.115926,291.625749 347.115926,295.676514 L346.115926,291.625749 C345.63733,286.711186 344.90871,282.553026 345.231076,277.625749 C345.570204,272.44227 344.570923,267.778191 345.231076,262.625749" id="Path-13" fill="#F2F2F2"></path>
                <path d="M498,247.805707 L378,247.805707 L378,209.5 L378,127 L473.617483,127 L498,150.974529 L498,211 L498,247.805707 Z" id="Stroke-2" stroke="#000000" stroke-width="4" fill="#FFFFFF"></path>
                <path d="M466.5,135.5 C467.5,146.5 464.615699,144.519947 469,155 C470.944401,159.647816 483.74519,166.413036 487.246162,168.75379 C494.921301,173.885397 495.079136,165.839572 495.5,160.89309 C496.288981,151.620069 497.053596,160.000282 492.5,150.89309 C491.5,148.89309 483.52168,151.853605 476.378035,150.448032 C475.401589,150.255908 475.016622,148.844575 474.89513,147.856852 C474.264597,142.730653 475.668403,137.318334 474.155629,132.380015 C473.42127,129.982762 474.328944,131.321595 472,130.39309 C469.781552,129.508637 466.5,135.5 466.5,135.5 Z" id="Path-16" fill="#F2F2F2"></path>
                <rect id="Rectangle-Copy" fill="#FFFFFF" x="408" y="230" width="56" height="28" rx="6"></rect>
                <polygon id="Stroke-5" stroke="#000000" stroke-width="4" points="475 129 475 149.99299 496.992128 149.99299"></polygon>
                <g id="ICON---Shoppingcart-WHITE" transform="translate(412.000000, 145.000000)">
                    <path d="M0,0 L0,52 L52,52 L52,0 L0,0 Z M6.5,6.5 L6.5,45.5 L45.5,45.5 L45.5,6.5 L6.5,6.5 Z" id="Bound-24"></path>
                    <path d="M35.1887074,39.7209466 C34.6879234,40.6004332 34.6879234,41.6936355 35.1887074,42.5737805 C35.6894914,43.4535305 36.6228946,44 37.6244627,44 C38.6261606,44 39.559434,43.4533989 40.060218,42.5735172 C40.561002,41.6935038 40.561002,40.6005649 40.060218,39.7213416 C39.5595638,38.8413282 38.6262904,38.2948588 37.6244627,38.2948588 C36.622635,38.2948588 35.6892317,38.8413282 35.1887074,39.7209466 Z" id="Fill-4" stroke="#000000" fill="#0D9DF8"></path>
                    <path d="M24.2865601,39.7213416 C23.7859059,38.8413282 22.8526325,38.2948588 21.8508048,38.2948588 C20.848977,38.2948588 19.9155738,38.8413282 19.4149196,39.7209466 C18.9142654,40.6004332 18.9142654,41.6936355 19.4149196,42.5737805 C19.9159633,43.4535305 20.8492367,44 21.8508048,44 C22.8523728,44 23.7856462,43.4533989 24.2865601,42.5735172 C24.7873441,41.6935038 24.7873441,40.6005649 24.2865601,39.7213416 Z" id="Fill-5" stroke="#000000" fill="#0D9DF8"></path>
                    <path d="M42.2324395,6.52461508 L36.1518801,8.09094141 L33.873618,14.1344987 L11.0682747,14.1344987 C9.7174432,14.1344987 8.66666667,15.25272 8.66666667,16.6229758 L10.5781373,25.4593212 C10.6260474,26.7796704 11.6811086,27.8291552 12.9591011,27.8291552 C12.959231,27.8291552 28.6707615,28.7466971 28.6707615,28.7466971 L28.9181024,28.9356571 C28.92797,28.9428994 29.926422,29.6716132 30.8585268,30.615491 C32.4102172,32.1869529 32.4098277,32.9608326 32.372824,33.1598002 C32.1976729,34.0989376 30.9504519,34.8046074 29.471211,34.8301532 C27.7084045,34.8605712 10.4032459,34.8081628 10.2287441,34.8081628 C9.79781273,34.8081628 9.44906866,35.1842391 9.44841948,35.6200979 C9.44764045,36.0563517 9.79573533,36.4222887 10.2260175,36.4230788 C10.6961598,36.4240006 18.141573,36.442699 23.6748664,36.442699 C26.5388265,36.442699 28.8916155,36.4421723 29.4978277,36.431638 C31.7724544,36.3923975 33.5842097,35.1689643 33.9037403,33.454367 C34.2868914,31.3984567 31.5695181,29.0087391 30.308015,28.0240407 L37.3189913,9.421825 L42.6164994,8.05578302 C43.0334082,7.94820096 43.2855531,7.51853111 43.1794757,7.09557691 C43.0733983,6.67275439 42.6497378,6.41690134 42.2324395,6.52461508 Z" id="Fill-1" stroke="#000000" fill="#0D9DF8" transform="translate(25.935185, 21.471350) scale(-1, 1) translate(-25.935185, -21.471350) "></path>
                </g>
                <use id="Rectangle-31" stroke="#000000" mask="url(#mask-6)" stroke-width="2" xlink:href="#path-5"></use>
                <use id="Rectangle-31-Copy" stroke="#000000" mask="url(#mask-8)" stroke-width="2" xlink:href="#path-7"></use>
                <path d="M226.053106,212.508988 C225.814323,212.506721 225.602444,212.355379 225.522857,212.130239 L223.250362,205.61954 L216.357126,205.471828 C216.122302,205.471828 215.910202,205.324116 216.038977,204.494655 L221.530841,200.328414 L219.527257,193.715453 C219.45769,193.48914 219.53992,193.243649 219.731769,193.104901 C219.923618,192.966152 220.182512,192.964937 220.375655,193.101879 L226.056893,197.048446 L231.738131,193.101879 C231.931274,192.964937 232.190169,192.966152 232.382018,193.104901 C232.573867,193.243649 232.656097,193.48914 232.58653,193.715453 L230.548859,200.313264 L236.063447,204.479505 C236.239531,204.622199 236.313958,204.855899 236.252822,205.074141 C236.178157,205.302939 235.963219,205.456466 235.722573,205.45289 L228.829338,205.600602 L226.556842,212.111301 C226.499668,212.343485 226.292219,212.50726 226.053106,212.508988 Z" id="Shape" fill="#CCCCCC"></path>
                <path d="M589.053106,120.508988 C588.814323,120.506721 588.602444,120.355379 588.522857,120.130239 L586.250362,113.61954 L579.357126,113.471828 C579.122302,113.471828 578.910202,113.324116 579.038977,112.494655 L584.530841,108.328414 L582.527257,101.715453 C582.45769,101.48914 582.53992,101.243649 582.731769,101.104901 C582.923618,100.966152 583.182512,100.964937 583.375655,101.101879 L589.056893,105.048446 L594.738131,101.101879 C594.931274,100.964937 595.190169,100.966152 595.382018,101.104901 C595.573867,101.243649 595.656097,101.48914 595.58653,101.715453 L593.548859,108.313264 L599.063447,112.479505 C599.239531,112.622199 599.313958,112.855899 599.252822,113.074141 C599.178157,113.302939 598.963219,113.456466 598.722573,113.45289 L591.829338,113.600602 L589.556842,120.111301 C589.499668,120.343485 589.292219,120.50726 589.053106,120.508988 Z" id="Shape-Copy-2" fill="#CCCCCC"></path>
                <path d="M353.053106,88.5089878 C352.814323,88.5067213 352.602444,88.3553792 352.522857,88.1302386 L350.250362,81.6195399 L343.357126,81.4718277 C343.122302,81.4718277 342.910202,81.3241156 343.038977,80.4946548 L348.530841,76.3284136 L346.527257,69.7154526 C346.45769,69.4891397 346.53992,69.2436487 346.731769,69.1049005 C346.923618,68.9661524 347.182512,68.9649374 347.375655,69.1018789 L353.056893,73.0484456 L358.738131,69.1018789 C358.931274,68.9649374 359.190169,68.9661524 359.382018,69.1049005 C359.573867,69.2436487 359.656097,69.4891397 359.58653,69.7154526 L357.548859,76.3132637 L363.063447,80.4795048 C363.239531,80.622199 363.313958,80.8558992 363.252822,81.0741411 C363.178157,81.3029392 362.963219,81.456466 362.722573,81.4528903 L355.829338,81.6006025 L353.556842,88.1113012 C353.499668,88.3434845 353.292219,88.50726 353.053106,88.5089878 Z" id="Shape-Copy" fill="#CCCCCC"></path>
            </g>
        </g>
    </g>
</svg>