<?xml version="1.0" encoding="UTF-8"?>
<svg width="24px" height="24px" viewBox="0 0 24 24" version="1.1" xmlns="http://www.w3.org/2000/svg" xmlns:xlink="http://www.w3.org/1999/xlink">
    <!-- Generator: sketchtool 45.2 (43514) - http://www.bohemiancoding.com/sketch -->
    <title>add-bold</title>
    <desc>Created with sketchtool.</desc>
    <defs></defs>
    <g id="Icons" stroke="none" stroke-width="1" fill-rule="evenodd">
        <g id="MC-icon-set" transform="translate(-240.000000, -120.000000)" fill-rule="nonzero" fill="#000000">
            <g id="CRUD" transform="translate(24.000000, 120.000000)">
                <g id="Add-Bold" transform="translate(216.000000, 0.000000)">
                    <path d="M13.8438295,10.3335471 L13.8438295,6.82370384 C13.8438295,5.8544874 13.0603278,5.06878223 12.0938295,5.06878223 C11.1273312,5.06878223 10.3438295,5.8544874 10.3438295,6.82370384 L10.3438295,10.3335471 L6.8438295,10.3335471 C5.87733118,10.3335471 5.0938295,11.1192522 5.0938295,12.0884687 C5.0938295,13.0576851 5.87733118,13.8433903 6.8438295,13.8433903 L10.3438295,13.8433903 L10.3438295,17.3532335 C10.3438295,18.32245 11.1273312,19.1081551 12.0938295,19.1081551 C13.0603278,19.1081551 13.8438295,18.32245 13.8438295,17.3532335 L13.8438295,13.8433903 L17.3438295,13.8433903 C18.3103278,13.8433903 19.0938295,13.0576851 19.0938295,12.0884687 C19.0938295,11.1192522 18.3103278,10.3335471 17.3438295,10.3335471 L13.8438295,10.3335471 Z" id="shape"></path>
                </g>
            </g>
        </g>
    </g>
</svg>