<?xml version="1.0" encoding="UTF-8"?>
<svg width="24px" height="24px" viewBox="0 0 24 24" version="1.1" xmlns="http://www.w3.org/2000/svg" xmlns:xlink="http://www.w3.org/1999/xlink">
    <!-- Generator: sketchtool 45.2 (43514) - http://www.bohemiancoding.com/sketch -->
    <title>angle-right</title>
    <desc>Created with sketchtool.</desc>
    <defs></defs>
    <g id="Icons" stroke="none" stroke-width="1" fill-rule="evenodd">
        <g id="MC-icon-set" transform="translate(-96.000000, -888.000000)" fill="#000000">
            <g id="Directions" transform="translate(24.000000, 888.000000)">
                <g id="Angle-Right" transform="translate(72.000000, 0.000000)">
                    <path d="M21.1095383,7.7971267 L20.2080225,6.88806791 C20.0878962,6.76667325 19.9495172,6.70616699 19.7930751,6.70616699 C19.637012,6.70616699 19.4986962,6.76667325 19.3785699,6.88806791 L12.2916856,14.0343668 L5.20511722,6.88825898 C5.08492775,6.76686432 4.94661196,6.70635806 4.79035933,6.70635806 C4.63404354,6.70635806 4.49572775,6.76686432 4.37560144,6.88825898 L3.47421196,7.79738147 C3.35383301,7.91852137 3.29383301,8.05800422 3.29383301,8.21563895 C3.29383301,8.3731463 3.35402249,8.51262915 3.47421196,8.63376905 L11.8769278,17.1075753 C11.9970541,17.2287789 12.135433,17.2893488 12.2916856,17.2893488 C12.4479383,17.2893488 12.5860646,17.2287789 12.7061278,17.1075753 L21.1095383,8.63376905 C21.2296646,8.51256546 21.2893488,8.37308261 21.2893488,8.21563895 C21.2893488,8.05800422 21.2296646,7.91852137 21.1095383,7.7971267 L21.1095383,7.7971267 Z" id="shape" transform="translate(12.291591, 11.997758) rotate(-90.000000) translate(-12.291591, -11.997758) "></path>
                </g>
            </g>
        </g>
    </g>
</svg>