<?xml version="1.0" encoding="UTF-8"?>
<svg width="24px" height="24px" viewBox="0 0 24 24" version="1.1" xmlns="http://www.w3.org/2000/svg" xmlns:xlink="http://www.w3.org/1999/xlink">
    <!-- Generator: sketchtool 45.2 (43514) - http://www.bohemiancoding.com/sketch -->
    <title>angle-thin-right</title>
    <desc>Created with sketchtool.</desc>
    <defs></defs>
    <g id="Icons" stroke="none" stroke-width="1" fill-rule="evenodd">
        <g id="MC-icon-set" transform="translate(-96.000000, -936.000000)" fill="#000000">
            <g id="Directions" transform="translate(24.000000, 888.000000)">
                <g id="Angle-Thin-Right" transform="translate(72.000000, 48.000000)">
                    <path d="M16.0240625,20.3253 C15.9065625,20.3253 15.8284375,20.2875 15.7503125,20.1753 L7.1171875,11.9253 C6.9609375,11.7753 6.9609375,11.5503 7.1171875,11.4003 L15.7503125,3.1125 C15.9065625,2.9625 16.1409375,2.9625 16.2971875,3.1125 C16.4534375,3.2625 16.4534375,3.4875 16.2971875,3.6375 L7.9378125,11.6625 L16.2971875,19.6503 C16.4534375,19.8003 16.4534375,20.0253 16.2971875,20.1753 C16.2190625,20.2881 16.1015625,20.3253 16.0234375,20.3253 L16.0240625,20.3253 Z" id="shape" transform="translate(11.707187, 11.662650) rotate(180.000000) translate(-11.707187, -11.662650) "></path>
                </g>
            </g>
        </g>
    </g>
</svg>