<svg xmlns="http://www.w3.org/2000/svg" width="24" height="24" viewBox="0 0 24 24">
  <g fill-rule="evenodd">
    <path d="M8.3900299 4.81527389L8.3900299 3.01527389 15.5901424 3.01527389 15.5901424 4.81527389 20.0900299 4.81527389 20.0900299 7.51527389 3.8900299 7.51527389 3.8900299 4.81527389 8.3900299 4.81527389zM17.3900299 7.51527389L18.2900299 7.51527389 17.5020799 19.3349739C17.4389674 20.2812114 16.6561924 21.0152739 15.7078174 21.0152739L8.2722424 21.0152739C7.3253299 21.0152739 6.5409799 20.2797489 6.4779799 19.3349739L5.6900299 7.51527389 6 7.51527389 6.5900299 7.51527389 17.3900299 7.51527389zM12.4400299 16.5152739L12.4400299 9.31527389 11.5400299 9.31527389 11.5400299 16.5152739 12.4400299 16.5152739zM10.1900299 16.5152739L10.1900299 9.31527389 9.2900299 9.31527389 9.2900299 16.5152739 10.1900299 16.5152739zM14.6900299 16.5152739L14.6900299 9.31527389 13.7900299 9.31527389 13.7900299 16.5152739 14.6900299 16.5152739z"/>
  </g>
</svg>
