<?xml version="1.0" encoding="UTF-8"?>
<svg width="24px" height="24px" viewBox="0 0 24 24" version="1.1" xmlns="http://www.w3.org/2000/svg" xmlns:xlink="http://www.w3.org/1999/xlink">
    <!-- Generator: sketchtool 45.2 (43514) - http://www.bohemiancoding.com/sketch -->
    <title>brain</title>
    <desc>Created with sketchtool.</desc>
    <defs></defs>
    <g id="Icons" stroke="none" stroke-width="1" fill-rule="evenodd">
        <g id="MC-icon-set" transform="translate(-240.000000, -72.000000)" fill="#000000">
            <g id="Application" transform="translate(24.000000, 24.000000)">
                <g id="Brain" transform="translate(216.000000, 48.000000)">
                    <path d="M14.2978125,2.99978365 L12.1502163,4.07358173 L10.0033413,2.99978365 L5.09877404,5.67454327 L5.09877404,7.99737981 L3.00021635,9.33223558 L3.00021635,15.1180529 L5.09877404,16.262524 L5.09877404,18.3618029 L10.0033413,21.0365625 L12.1502163,19.9620433 L14.2978125,21.0365625 L19.2016587,18.3618029 L19.2016587,16.0389663 L21.3009375,14.7041106 L21.3009375,8.91829327 L19.2016587,7.77382212 L19.2016587,5.67454327 L14.2978125,2.99978365 Z M13.0963702,18.8233413 L13.0963702,5.21372596 L14.2682452,4.62670673 L17.7600721,6.53127404 L17.7600721,8.62983173 L19.8586298,9.77502404 L19.8586298,13.9122837 L17.7600721,15.2478606 L17.7600721,17.5050721 L14.2682452,19.4096394 L13.0963702,18.8233413 Z M9.31463942,8.0128125 L8.76944712,8.55800481 L8.76944712,15.8315625 L9.06944712,16.1315625 C9.18915865,16.0435817 9.32978365,15.9808413 9.49060096,15.9808413 C9.88867788,15.9808413 10.2117548,16.3031971 10.2117548,16.7019952 C10.2117548,17.1007933 9.88867788,17.423149 9.49060096,17.423149 C9.15814904,17.423149 8.89132212,17.1938221 8.80694712,16.8894952 L8.04829327,16.1301202 L8.04829327,12.735649 L6.49492788,12.735649 C6.36944712,12.9469471 6.14877404,13.096226 5.88483173,13.096226 C5.48603365,13.096226 5.16367788,12.7738702 5.16367788,12.3750721 C5.16367788,11.976274 5.48603365,11.6539183 5.88483173,11.6539183 C6.14877404,11.6539183 6.36944712,11.8031971 6.49492788,12.0144952 L8.04829327,12.0144952 L8.04829327,8.25944712 L8.80478365,7.50295673 C8.78963942,7.44526442 8.76944712,7.38901442 8.76944712,7.32699519 C8.76944712,6.92819712 9.09180288,6.60584135 9.49060096,6.60584135 C9.88867788,6.60584135 10.2117548,6.92819712 10.2117548,7.32699519 C10.2117548,7.72579327 9.88867788,8.04814904 9.49060096,8.04814904 C9.42786058,8.04814904 9.37233173,8.02795673 9.31463942,8.0128125 Z M6.54108173,17.5050721 L6.54108173,15.4065144 L4.44180288,14.2620433 L4.44180288,10.1240625 L6.54108173,8.78920673 L6.54108173,6.53127404 L10.0321875,4.62670673 L11.2055048,5.21372596 L11.2055048,18.8233413 L10.0321875,19.4096394 L6.54108173,17.5050721 Z M17.5336298,11.2932692 C17.6591106,11.0819712 17.8797837,10.9326923 18.1444471,10.9326923 C18.542524,10.9326923 18.865601,11.2550481 18.865601,11.6538462 C18.865601,12.0526442 18.542524,12.375 18.1444471,12.375 C17.8797837,12.375 17.6591106,12.2257212 17.5336298,12.0144231 L15.9809856,12.0144231 L15.9809856,15.7694712 L15.223774,16.5259615 C15.2389183,16.5836538 15.2598317,16.6399038 15.2598317,16.7019231 C15.2598317,17.1007212 14.9367548,17.4230769 14.5386779,17.4230769 C14.1398798,17.4230769 13.817524,17.1007212 13.817524,16.7019231 C13.817524,16.303125 14.1398798,15.9807692 14.5386779,15.9807692 C14.6006971,15.9807692 14.656226,16.0009615 14.7139183,16.0161058 L15.2598317,15.4709135 L15.2598317,8.19735577 L14.9591106,7.89735577 C14.839399,7.98533654 14.698774,8.04807692 14.5386779,8.04807692 C14.1398798,8.04807692 13.817524,7.72572115 13.817524,7.32692308 C13.817524,6.928125 14.1398798,6.60576923 14.5386779,6.60576923 C14.8704087,6.60576923 15.1379567,6.834375 15.2216106,7.13942308 L15.9809856,7.89879808 L15.9809856,11.2932692 L17.5336298,11.2932692 Z" id="shape"></path>
                </g>
            </g>
        </g>
    </g>
</svg>