<?xml version="1.0" encoding="UTF-8"?>
<svg width="24px" height="24px" viewBox="0 0 24 24" version="1.1" xmlns="http://www.w3.org/2000/svg" xmlns:xlink="http://www.w3.org/1999/xlink">
    <!-- Generator: sketchtool 45.2 (43514) - http://www.bohemiancoding.com/sketch -->
    <title>camera</title>
    <desc>Created with sketchtool.</desc>
    <defs></defs>
    <g id="Icons" stroke="none" stroke-width="1" fill-rule="evenodd">
        <g id="MC-icon-set" transform="translate(-24.000000, -504.000000)" fill="#000000">
            <g id="Images" transform="translate(24.000000, 504.000000)">
                <g id="Camera">
                    <path d="M19.4443636,17.1486904 L19.4443636,9.2795704 C19.4443636,8.9435704 19.1776364,8.6714104 18.8503636,8.6714104 L14.6858182,8.6714104 L13.9036364,6.5411704 L10.0598182,6.5411704 L9.27763636,8.6714104 L5.11309091,8.6714104 C4.78581818,8.6714104 4.52072727,8.9435704 4.52072727,9.2795704 L4.52072727,17.1486904 C4.52072727,17.4846904 4.78581818,17.7568504 5.11309091,17.7568504 L18.8503636,17.7568504 C19.1776364,17.7568504 19.4443636,17.4846904 19.4443636,17.1486904 M20.6290909,9.2795704 L20.6290909,17.1486904 C20.6290909,18.1550104 19.8305455,18.9731704 18.8503636,18.9731704 L5.11309091,18.9731704 C4.13290909,18.9731704 3.336,18.1550104 3.336,17.1486904 L3.336,9.2795704 C3.336,8.2732504 4.13290909,7.4534104 5.11309091,7.4534104 L8.45781818,7.4534104 L9.24,5.3248504 L14.7234545,5.3248504 L15.5056364,7.4534104 L18.8503636,7.4534104 C19.8305455,7.4534104 20.6290909,8.2732504 20.6290909,9.2795704 Z M15.4745455,10.9209304 C14.7561818,9.6441304 13.4176364,8.8511704 11.9825455,8.8511704 C10.5458182,8.8511704 9.20727273,9.6441304 8.48890909,10.9209304 C7.77054545,12.1977304 7.77054545,13.7836504 8.48890909,15.0604504 C9.20727273,16.3389304 10.5458182,17.1318904 11.9825455,17.1318904 C13.4176364,17.1318904 14.7561818,16.3389304 15.4745455,15.0604504 C16.1929091,13.7836504 16.1929091,12.1977304 15.4745455,10.9209304 Z M14.5401818,14.5077304 C14.0132727,15.4468504 13.0363636,16.0247704 11.9809091,16.0247704 C10.9254545,16.0247704 9.95018182,15.4468504 9.42163636,14.5077304 C8.89472727,13.5686104 8.89472727,12.4127704 9.42163636,11.4736504 C9.95018182,10.5345304 10.9254545,9.9566104 11.9825455,9.9566104 C13.038,9.9566104 14.0132727,10.5362104 14.5401818,11.4736504 C15.0687273,12.4127704 15.0687273,13.5702904 14.5401818,14.5077304 Z" id="shape"></path>
                </g>
            </g>
        </g>
    </g>
</svg>