<?xml version="1.0" encoding="UTF-8"?>
<svg width="24px" height="24px" viewBox="0 0 24 24" version="1.1" xmlns="http://www.w3.org/2000/svg" xmlns:xlink="http://www.w3.org/1999/xlink">
    <!-- Generator: sketchtool 45.2 (43514) - http://www.bohemiancoding.com/sketch -->
    <title>chain-broken</title>
    <desc>Created with sketchtool.</desc>
    <defs></defs>
    <g id="Icons" stroke="none" stroke-width="1" fill-rule="evenodd">
        <g id="MC-icon-set" transform="translate(-168.000000, -504.000000)" fill="#000000">
            <g id="Images" transform="translate(24.000000, 504.000000)">
                <g id="Chain-Broken" transform="translate(144.000000, 0.000000)">
                    <path d="M9.89168571,16.6197514 L12.1887429,14.3226943 L13.5212571,15.6554657 L11.2242,17.9525229 C10.5623143,18.6144086 9.69265714,18.9453514 8.82351429,18.9453514 C7.95385714,18.9453514 7.08445714,18.6146657 6.42257143,17.9525229 L5.84991429,17.3798657 C5.2086,16.7385514 4.85528571,15.8858657 4.85528571,14.9789229 C4.85528571,14.07198 5.2086,13.2192943 5.84991429,12.5782371 L8.14697143,10.28118 L9.47948571,11.6139514 L7.18242857,13.9110086 C6.89751429,14.19618 6.74014286,14.5754657 6.74014286,14.9789229 C6.74014286,15.38238 6.89751429,15.7619229 7.18242857,16.0470943 L7.75534286,16.6200086 C8.3442,17.2088657 9.30257143,17.2086086 9.89168571,16.6197514 Z M11.5452686,9.54804 L10.2127543,8.21526857 L12.5098114,5.91821143 C13.1511257,5.27689714 14.0038114,4.92384 14.9107543,4.92384 C15.81744,4.92384 16.6701257,5.27689714 17.31144,5.91846857 L17.8840971,6.49086857 C18.5254114,7.13218286 18.8787257,7.98486857 18.8787257,8.89181143 C18.8787257,9.79875429 18.5254114,10.65144 17.8840971,11.2927543 L15.58704,13.5898114 L14.2545257,12.25704 L16.5515829,9.95998286 C16.8364971,9.67455429 16.9938686,9.29526857 16.9938686,8.89181143 C16.9938686,8.48835429 16.8364971,8.10906857 16.5515829,7.82364 L15.9786686,7.25098286 C15.6934971,6.96555429 15.3139543,6.80869714 14.9107543,6.80869714 C14.50704,6.80869714 14.1277543,6.96581143 13.8423257,7.25098286 L11.5452686,9.54804 Z M8.71865143,7.82909143 L8.11539429,8.43234857 L5.54088,5.85757714 L6.14388,5.25432 L8.71865143,7.82909143 Z M9.42857143,6.6 L9.42857143,3 L10.2,3 L10.2,6.6 L9.42857143,6.6 Z M3,10.2 L3,9.42857143 L6.6,9.42857143 L6.6,10.2 L3,10.2 Z M15.3923829,15.6648 L15.99564,15.0615429 L18.5701543,17.6363143 L17.9671543,18.2395714 L15.3923829,15.6648 Z M13.5428571,20.7428571 L13.5428571,16.8857143 L14.3142857,16.8857143 L14.3142857,20.7428571 L13.5428571,20.7428571 Z M17.1428571,14.0571429 L17.1428571,13.2857143 L20.7428571,13.2857143 L20.7428571,14.0571429 L17.1428571,14.0571429 Z" id="shape"></path>
                </g>
            </g>
        </g>
    </g>
</svg>