<?xml version="1.0" encoding="UTF-8"?>
<svg width="24px" height="24px" viewBox="0 0 24 24" version="1.1" xmlns="http://www.w3.org/2000/svg" xmlns:xlink="http://www.w3.org/1999/xlink">
    <!-- Generator: Sketch 49.3 (51167) - http://www.bohemiancoding.com/sketch -->
    <title>clipboard</title>
    <desc>Created with Sketch.</desc>
    <defs></defs>
    <g id="Icons" stroke="none" stroke-width="1" fill="none" fill-rule="evenodd">
        <g id="MC-icon-set" transform="translate(-240.000000, -944.000000)">
            <g id="Directions" transform="translate(25.000000, 943.000000)">
                <g id="Angle-Down" transform="translate(202.000000, 0.000000)"></g>
            </g>
            <g id="Actions" transform="translate(24.000000, 752.000000)" fill="#000000" fill-rule="nonzero">
                <g id="Clipboard" transform="translate(216.000000, 192.000000)">
                    <path d="M14.5037977,4.407369 L15.7367481,4.407369 C16.6493764,4.407369 17.3970496,5.16773599 17.3970496,6.09585397 L17.3970496,9.91875391 C17.3970496,10.0568251 17.2851208,10.1687539 17.1470496,10.1687539 C17.1470496,10.1687539 17.1470496,10.1687539 17.1470496,10.1687539 L16.1839564,10.1687539 C16.0458852,10.1687539 15.9339564,10.0568251 15.9339564,9.91875388 L15.9339564,6.80850733 C15.9339564,6.38523666 15.6104334,6.05622007 15.194226,6.05622007 L14.4809135,6.05622007 L14.4809135,6.80850733 C14.4809135,7.11457728 14.0157263,7.18465096 13.7147652,7.18465096 L7.79692193,7.18465096 C7.49596261,7.18465096 7.24212412,6.92650547 7.24212412,6.62043551 L7.24212412,6.05622007 L6.31746111,6.05622007 C5.90125365,6.05622007 5.57773071,6.38523666 5.57773071,6.80850733 L5.57773071,18.4689655 C5.57773071,18.8922399 5.90125365,19.2212528 6.31746111,19.2212528 L15.194226,19.2212528 C15.6104334,19.2212528 15.9339564,18.8922399 15.9339564,18.4689655 L15.9339564,16.0910832 C15.9339564,15.9738421 16.0289991,15.8787994 16.1462402,15.8787994 L17.1470496,15.8787994 C17.2851208,15.8787994 17.3970496,15.9907282 17.3970496,16.1287994 L17.3970496,19.1816189 C17.3970496,20.1097368 16.6493764,20.8701038 15.7367481,20.8701038 L5.77493901,20.8701038 C4.8623107,20.8701038 4.1146375,20.1097368 4.1146375,19.1816189 L4.1146375,6.09585397 C4.1146375,5.16773599 4.8623107,4.407369 5.77493901,4.407369 L7.24889007,4.407369 L7.24889007,3.7954693 C7.24889007,3.66365643 7.36125641,3.5558552 7.49865124,3.5558552 L8.59770513,3.5558552 L8.59770513,3.16955909 C8.59770513,3.03774622 8.71007148,2.929945 8.84736158,2.929945 L12.9053262,2.929945 C13.042721,2.929945 13.1550873,3.03774622 13.1550873,3.16955909 L13.1550873,3.5558552 L14.2541412,3.5558552 C14.3914313,3.5558552 14.5037977,3.66365643 14.5037977,3.7954693 M19.6085052,12.3377939 C19.8062356,12.3377939 19.9665278,12.4521543 19.9665278,12.5932249 L19.9665278,13.2190309 C19.9665278,13.3601016 19.8062356,13.4744619 19.6085052,13.4744619 L12.1967588,13.4744619 L14.6837657,15.928643 C14.7357014,15.9797829 14.7615876,16.0386665 14.7615876,16.1051055 C14.7615876,16.1717057 14.7357014,16.2306162 14.6837657,16.2817562 L14.2948469,16.665548 C14.2429112,16.7166879 14.1832368,16.7420966 14.1157966,16.7420966 C14.0484382,16.7420966 13.9887638,16.7166879 13.9369098,16.665548 L10.3115975,13.088062 C10.2597435,13.0369489 10.2338301,12.978146 10.2338301,12.9116264 C10.2338301,12.8451068 10.2597435,12.7861963 10.3115975,12.7350564 L13.9369098,9.15786617 C13.9887366,9.10669931 14.0484109,9.08107555 14.1157966,9.08107555 C14.1832368,9.08107555 14.2429112,9.10661865 14.2947379,9.15786617 L14.6836839,9.5416042 C14.7356197,9.59274418 14.7615058,9.65162775 14.7615058,9.71817424 C14.7615058,9.78469385 14.7356197,9.84357742 14.6836839,9.89474428 L12.2079132,12.3377939 L19.6085052,12.3377939 Z" id="shape"></path>
                </g>
            </g>
        </g>
    </g>
</svg>