<?xml version="1.0" encoding="UTF-8"?>
<svg width="24px" height="24px" viewBox="0 0 24 24" version="1.1" xmlns="http://www.w3.org/2000/svg" xmlns:xlink="http://www.w3.org/1999/xlink">
    <!-- Generator: sketchtool 45.2 (43514) - http://www.bohemiancoding.com/sketch -->
    <title>close</title>
    <desc>Created with sketchtool.</desc>
    <defs></defs>
    <g id="Icons" stroke="none" stroke-width="1" fill-rule="evenodd">
        <g id="MC-icon-set" transform="translate(-96.000000, -648.000000)" fill="#000000">
            <g id="Actions" transform="translate(24.000000, 648.000000)">
                <g id="Close" transform="translate(72.000000, 0.000000)">
                    <path d="M11.0310859,11.6156653 L3.28125,19.076087 C3.09375,19.2608696 3.09375,19.5380435 3.28125,19.7228261 C3.375,19.8152174 3.46875,19.8617826 3.60975,19.8617826 L3.60975,19.8617826 C3.75,19.8617826 3.84375,19.8152174 3.98475,19.7228261 L11.7074354,12.2667569 L19.45275,19.7228261 C19.5465,19.8152174 19.64025,19.8617826 19.7805,19.8617826 C19.87425,19.8617826 20.01525,19.8152174 20.109,19.7228261 C20.34375,19.5380435 20.34375,19.2608696 20.109,19.076087 L12.370503,11.6265808 L20.10975,4.15452174 C20.3445,3.96973913 20.3445,3.69256522 20.10975,3.50778261 C19.92225,3.323 19.641,3.323 19.4535,3.50778261 L11.695125,10.9764245 L3.93675,3.50778261 C3.74925,3.323 3.468,3.323 3.2805,3.50778261 C3.093,3.69256522 3.093,3.96973913 3.2805,4.15452174 L11.0310859,11.6156653 Z" id="shape"></path>
                </g>
            </g>
        </g>
    </g>
</svg>