<?xml version="1.0" encoding="UTF-8"?>
<svg width="24px" height="24px" viewBox="0 0 24 24" version="1.1" xmlns="http://www.w3.org/2000/svg" xmlns:xlink="http://www.w3.org/1999/xlink">
    <!-- Generator: sketchtool 45.2 (43514) - http://www.bohemiancoding.com/sketch -->
    <title>coins</title>
    <desc>Created with sketchtool.</desc>
    <defs></defs>
    <g id="Icons" stroke="none" stroke-width="1" fill-rule="evenodd">
        <g id="MC-icon-set" transform="translate(-168.000000, -24.000000)" fill="#000000">
            <g id="Application" transform="translate(24.000000, 24.000000)">
                <g id="Coins" transform="translate(144.000000, 0.000000)">
                    <path d="M21,5.60912251 L21,7.94316182 C21,7.9952887 20.996175,8.0511945 20.988075,8.10976777 C20.995725,8.16534013 21,8.22102364 21,8.27659601 L21,10.6106353 C21,10.6502028 20.997525,10.6921044 20.993025,10.7353397 C20.9956125,10.7679051 21,10.8004705 21,10.8329248 L21,13.1669641 C21,13.2065316 20.997525,13.2484332 20.993025,13.2917796 C20.9956125,13.3242339 21,13.3567993 21,13.3892535 L21,15.7232928 C21,16.1005181 20.8218,16.6597983 19.97265,17.1828454 C19.09965,17.7206748 17.7375,18.1061247 16.05,18.2590598 L16.05,18.3907663 C16.05,18.7679916 15.8829375,19.3272718 15.0337875,19.8503189 C13.86525,20.5702033 11.817075,21 9.5361375,21 C7.2550875,21 5.195775,20.5702033 4.02735,19.8503189 C3.1783125,19.3272718 3,18.7679916 3,18.3907663 L3,16.056727 C3,16.0241616 3.0043875,15.9917074 3.0070875,15.959142 C3.0025875,15.9159067 3,15.8740051 3,15.8344376 L3,13.611543 C3,13.5558595 3.004275,13.500176 3.0120375,13.4446036 C3.0039375,13.3861415 3,13.3302357 3,13.2781088 L3,10.9440695 C3,10.5669554 3.1783125,10.007564 4.02735,9.48451692 C4.9168875,8.93657341 6.32325,8.55734759 7.95,8.40719106 L7.95,5.60912251 C7.95,5.23200845 8.1255,4.67261703 8.9745375,4.14956993 C10.143075,3.42968552 12.1996875,3 14.480625,3 C16.76145,3 18.81525,3.42968552 19.9837875,4.14956993 C20.8329375,4.67261703 21,5.23200845 21,5.60912251 Z M19.49655,16.4282839 C19.8800625,16.1921013 20.1,15.9351347 20.1,15.7232928 L20.1,14.5437138 C20.1,14.5713889 20.0173125,14.5990639 19.97265,14.6265167 C19.09965,15.164346 17.7375,15.5497959 16.05,15.7027311 L16.05,15.8344376 C16.05,15.8740051 16.047525,15.9159067 16.043025,15.9592531 C16.0456125,15.9917074 16.05,16.0242728 16.05,16.056727 L16.05,17.3657897 C17.5125,17.2217461 18.75135,16.8874227 19.49655,16.4282839 Z M14.5576875,19.0957574 C14.9412,18.8595748 15.15,18.6024971 15.15,18.3907663 L15.15,17.2111873 C15.15,17.2388624 15.07845,17.2665374 15.0337875,17.2939902 C13.86525,18.0138746 11.817075,18.4436712 9.5361375,18.4436712 C7.2550875,18.4436712 5.195775,18.0138746 4.02735,17.2939902 C3.9826875,17.2665374 3.94095,17.2388624 3.9,17.2112985 L3.9,18.3907663 C3.9,18.6024971 4.1172375,18.8595748 4.50075,19.0957574 C5.5169625,19.7219468 7.442625,20.1108422 9.530625,20.1108422 C11.6185125,20.1108422 13.54125,19.7219468 14.5576875,19.0957574 Z M8.85,6.98587227 L8.85,8.34917352 C9.0762375,8.34050423 9.3032625,8.33494699 9.5347875,8.33494699 C11.8156125,8.33494699 13.873575,8.76463251 15.0421125,9.48451692 C15.1275,9.53719952 15.2016375,9.59021556 15.2740875,9.64334274 C17.058225,9.55765015 18.6290625,9.18942767 19.5076875,8.64826398 C19.8912,8.41197029 20.1,8.15489253 20.1,7.94316182 L20.1,6.98587227 C20.1,7.01354731 20.02845,7.04122235 19.9837875,7.06867509 C18.8151375,7.7885595 16.7669625,8.21824502 14.4861375,8.21824502 C12.2052,8.21824502 10.1458875,7.7885595 8.97735,7.06867509 C8.9328,7.04122235 8.8910625,7.01354731 8.85,6.98587227 Z M19.49655,11.3157375 C19.8800625,11.0794438 20.1,10.822366 20.1,10.6106353 L20.1,9.31991158 C20.1,9.34758662 20.022825,9.37526165 19.978275,9.4027144 C19.0767,9.95810461 17.6485125,10.3417762 15.9724875,10.4873758 C16.038075,10.6557601 16.05,10.8113627 16.05,10.9440695 L16.05,12.2532433 C17.5125,12.1091997 18.7512375,11.7747652 19.49655,11.3157375 Z M3.9,12.3209304 L3.9,13.2781088 C3.9,13.4899507 4.1172375,13.7469173 4.50075,13.9830998 C5.5169625,14.6092892 7.442625,14.9981846 9.530625,14.9981846 C11.6185125,14.9981846 13.54125,14.6092892 14.5576875,13.9830998 C14.9412,13.7469173 15.15,13.4899507 15.15,13.2781088 L15.15,12.3208193 C15.15,12.3484943 15.07845,12.3761693 15.0337875,12.4036221 C13.86525,13.1235065 11.8169625,13.5533032 9.5361375,13.5533032 C7.2552,13.5533032 5.1958875,13.1235065 4.02735,12.4036221 C3.9826875,12.3761693 3.94095,12.3484943 3.9,12.3209304 Z M3.9,15.8344376 C3.9,16.0461683 4.1172375,16.303246 4.50075,16.5394286 C5.5169625,17.165618 7.442625,17.5545134 9.530625,17.5545134 C11.6185125,17.5545134 13.54125,17.165618 14.5576875,16.5394286 C14.9412,16.303246 15.15,16.0461683 15.15,15.8344376 L15.15,14.6548586 C15.15,14.6825336 15.07845,14.7102086 15.0337875,14.7376614 C13.86525,15.4575458 11.817075,15.8873425 9.5361375,15.8873425 C7.2550875,15.8873425 5.195775,15.4575458 4.02735,14.7376614 C3.9826875,14.7102086 3.94095,14.6825336 3.9,14.6549697 L3.9,15.8344376 Z M19.49655,13.8719551 C19.8800625,13.6357725 20.1,13.3788059 20.1,13.1669641 L20.1,11.9873851 C20.1,12.0150601 20.0173125,12.0427351 19.97265,12.0701879 C19.09965,12.6080172 17.7375,12.9934672 16.05,13.1464023 L16.05,13.2781088 C16.05,13.3302357 16.046175,13.3861415 16.0379625,13.4447148 C16.045725,13.5002871 16.05,13.5560818 16.05,13.611543 L16.05,14.8094609 C17.5125,14.6654173 18.75135,14.331094 19.49655,13.8719551 Z" id="shape"></path>
                </g>
            </g>
        </g>
    </g>
</svg>