<?xml version="1.0" encoding="UTF-8"?>
<svg width="24px" height="24px" viewBox="0 0 24 24" version="1.1" xmlns="http://www.w3.org/2000/svg" xmlns:xlink="http://www.w3.org/1999/xlink">
    <!-- Generator: Sketch 53 (72520) - https://sketchapp.com -->
    <title>Component / icon / 24px / eye </title>
    <desc>Created with Sketch.</desc>
    <g id="Component-/-icon-/-24px-/-eye-" stroke="none" stroke-width="1" fill="none" fill-rule="evenodd">
        <path d="M3.5347747,11.6501178 C3.5347747,9.1955574 8.30661609,5.92087522 12.291404,5.92087522 C16.27083,5.92087522 20.9907981,9.19087623 20.9907981,11.6501178 C20.9907981,14.1191322 16.2705696,17.44061 12.291404,17.44061 C8.30700714,17.44061 3.5347747,14.1143175 3.5347747,11.6501178 Z M4.9347747,11.6501178 C4.9347747,13.2107394 8.99479056,16.04061 12.291404,16.04061 C15.5813696,16.04061 19.5907981,13.2193 19.5907981,11.6501178 C19.5907981,10.0968451 15.5839219,7.32087522 12.291404,7.32087522 C8.99219375,7.32087522 4.9347747,10.1052842 4.9347747,11.6501178 Z M12.2167844,14.8097502 C10.5599302,14.8097502 9.21678441,13.4666045 9.21678441,11.8097502 C9.21678441,10.152896 10.5599302,8.80975024 12.2167844,8.80975024 C13.8736387,8.80975024 15.2167844,10.152896 15.2167844,11.8097502 C15.2167844,13.4666045 13.8736387,14.8097502 12.2167844,14.8097502 Z" id="Shape" fill="#1A1A1A"></path>
    </g>
</svg>