<?xml version="1.0" encoding="UTF-8"?>
<svg width="24px" height="24px" viewBox="0 0 24 24" version="1.1" xmlns="http://www.w3.org/2000/svg" xmlns:xlink="http://www.w3.org/1999/xlink">
    <!-- Generator: sketchtool 45.2 (43514) - http://www.bohemiancoding.com/sketch -->
    <title>filter</title>
    <desc>Created with sketchtool.</desc>
    <defs></defs>
    <g id="Icons" stroke="none" stroke-width="1" fill-rule="evenodd">
        <g id="MC-icon-set" transform="translate(-24.000000, -792.000000)" fill="#000000">
            <g id="Actions" transform="translate(24.000000, 648.000000)">
                <g id="Filter" transform="translate(0.000000, 144.000000)">
                    <path d="M19.718035,3 L4.29732526,3 C3.97307762,3 3.69233053,3.14298585 3.54201161,3.48258108 C3.44905206,3.75764522 3.50618906,4.1777182 3.75525045,4.43170897 L9.69482761,10.9077882 L9.69482761,16.42352 C9.69482761,16.6510738 9.77120644,16.8490573 9.92337807,17.0151207 L13.0084186,20.3771204 C13.1521905,20.5441629 13.3330774,20.6275862 13.5501027,20.6275862 C13.6462111,20.6275862 13.7470077,20.6052617 13.8515158,20.5613959 C14.1648448,20.4125655 14.3215094,20.1544623 14.3215094,19.7864988 L14.3215094,10.9079841 L20.2614772,4.4319048 C20.5036076,4.16116632 20.5459787,3.76794949 20.4574663,3.49818482 C20.3511568,3.21230771 20.0966092,3 19.718035,3 Z" id="shape"></path>
                </g>
            </g>
        </g>
    </g>
</svg>