<?xml version="1.0" encoding="UTF-8"?>
<svg width="30px" height="28px" viewBox="0 0 30 28" version="1.1" xmlns="http://www.w3.org/2000/svg" xmlns:xlink="http://www.w3.org/1999/xlink">
    <!-- Generator: Sketch 52.6 (67491) - http://www.bohemiancoding.com/sketch -->
    <title>Component / icon / 88px / tutorial icon</title>
    <desc>Created with Sketch.</desc>
    <g id="Final" stroke="none" stroke-width="1" fill="none" fill-rule="evenodd">
        <g id="1_Home_screen" transform="translate(-183.000000, -273.000000)" fill="#1A1A1A">
            <g id="Component-/-icon-/-88px-/-tutorial-icon" transform="translate(178.000000, 267.000000)">
                <g id="learn">
                    <path d="M26.28489,29.66848 L19.7725387,33.1818182 L13.2605738,29.66848 C11.9617921,28.8601685 11.4692732,27.4129644 11.4330895,25.76654 C11.2778512,24.7304316 11.431333,21.802956 11.431333,20.4545455 L19.7725387,25.7387798 L28.1140956,20.4545455 C28.1140956,21.802956 28.2676126,24.7304316 28.1123742,25.76654 C28.0768932,27.4129644 27.5829339,28.8597603 26.28489,29.66848 Z M20,6.81818182 L35,15.351233 L32.7085153,16.654288 L32.7085153,23.9279288 C33.2046672,24.0779317 33.5672466,24.5550286 33.5672466,25.1211886 C33.5672466,25.8074544 33.034302,26.3636364 32.3767086,26.3636364 C31.7191506,26.3636364 31.186206,25.8074544 31.186206,25.1211886 C31.186206,24.5550286 31.5487854,24.0779317 32.0449373,23.9279288 L32.0449373,17.0316048 C28.0289077,19.314353 24.0114616,21.5945144 20,23.8850234 C15.0044855,21.03205 10.0001535,18.1945979 5,15.351233 L20,6.81818182 Z"></path>
                </g>
            </g>
        </g>
    </g>
</svg>