<?xml version="1.0" encoding="UTF-8"?>
<svg width="24px" height="24px" viewBox="0 0 24 24" version="1.1" xmlns="http://www.w3.org/2000/svg" xmlns:xlink="http://www.w3.org/1999/xlink">
    <!-- Generator: Sketch 52.6 (67491) - http://www.bohemiancoding.com/sketch -->
    <title>Component / icon / 24px / GraduationCap</title>
    <desc>Created with Sketch.</desc>
    <g id="Component-/-icon-/-24px-/-GraduationCap" stroke="none" stroke-width="1" fill="none" fill-rule="evenodd">
        <path d="M15.8720968,17.067664 L11.9998879,19 L8.12790872,17.067664 C7.35566018,16.6230927 7.06281107,15.8271304 7.04129647,14.921597 C6.9489926,14.3517374 7.04025208,12.7416258 7.04025208,12 L11.9998879,14.9063289 L16.9597325,12 C16.9597325,12.7416258 17.0510129,14.3517374 16.958709,14.921597 C16.9376122,15.8271304 16.6439067,16.6228682 15.8720968,17.067664 Z M12,4 L21,8.80232184 L19.6251092,9.53566904 L19.6251092,13.6292065 C19.9228003,13.7136267 20.140348,13.9821324 20.140348,14.300762 C20.140348,14.686986 19.8205812,15 19.4260252,15 C19.0314904,15 18.7117236,14.686986 18.7117236,14.300762 C18.7117236,13.9821324 18.9292712,13.7136267 19.2269624,13.6292065 L19.2269624,9.74801944 C16.8173446,11.0327289 14.4068769,12.3159825 12,13.6050597 C9.00269128,11.9994328 6.00009207,10.4025412 3,8.80232184 L12,4 Z" id="learn" fill="#1A1A1A"></path>
    </g>
</svg>