<?xml version="1.0" encoding="UTF-8"?>
<svg width="24px" height="24px" viewBox="0 0 24 24" version="1.1" xmlns="http://www.w3.org/2000/svg" xmlns:xlink="http://www.w3.org/1999/xlink">
    <!-- Generator: sketchtool 45.2 (43514) - http://www.bohemiancoding.com/sketch -->
    <title>import</title>
    <desc>Created with sketchtool.</desc>
    <defs></defs>
    <g id="Icons" stroke="none" stroke-width="1" fill-rule="evenodd">
        <g id="MC-icon-set" transform="translate(-240.000000, -216.000000)" fill="#000000">
            <g id="Menu" transform="translate(24.000000, 168.000000)">
                <g id="Import" transform="translate(216.000000, 48.000000)">
                    <path d="M3.3285,19.8555 L20.3445,19.8555 L20.3445,3.57954545 L3.3285,3.57954545 L3.3285,19.8555 Z M4.5,4.83522727 L19.21875,4.83522727 L19.21875,18.5998182 L4.5,18.5998182 L4.5,4.83522727 Z M15.516,17.1988636 L8.15625,17.1988636 L8.15625,13.1420455 L15.516,13.1420455 L15.516,17.1988636 Z M12.09375,6.38068182 C11.95275,6.1875 11.71875,6.1875 11.57775,6.38068182 L9.56175,8.45777273 L10.82775,8.45777273 L10.82775,12.1769091 L12.7965,12.1769091 L12.7965,8.45777273 L14.109,8.45777273 L12.09375,6.38068182 Z" id="shape"></path>
                </g>
            </g>
        </g>
    </g>
</svg>