<?xml version="1.0" encoding="UTF-8"?>
<svg width="24px" height="24px" viewBox="0 0 24 24" version="1.1" xmlns="http://www.w3.org/2000/svg" xmlns:xlink="http://www.w3.org/1999/xlink">
    <!-- Generator: Sketch 52.4 (67378) - http://www.bohemiancoding.com/sketch -->
    <title>manageprojects</title>
    <desc>Created with Sketch.</desc>
    <defs>
        <path d="M16.4281623,4.81167027 C17.4258703,4.81167027 18.2348227,5.64758777 18.2887529,6.64529575 L18.2887529,18.0784899 C18.2887529,18.2942106 18.1269624,18.4560011 17.9112418,18.4560011 C17.6955211,18.4560011 17.5337306,18.2672455 17.5337306,18.0784899 L17.5337306,6.67226083 C17.5337306,6.05206398 17.0213941,5.56669253 16.4281623,5.56669253 L6.37018728,5.56669253 C6.15446664,5.56669253 5.99267616,5.37793696 5.99267616,5.1891814 C5.99267616,4.97346076 6.18143172,4.81167027 6.37018728,4.81167027 L16.4281623,4.81167027 Z M19.0920285,2.99066446 C20.0897365,2.99066446 20.925654,3.79961688 20.9526191,4.82428994 L20.9526191,16.2574841 C20.9526191,16.4732048 20.7908286,16.6349952 20.5751079,16.6349952 C20.3593873,16.6349952 20.1975968,16.4462397 20.1975968,16.2574841 L20.1975968,4.85125502 C20.1975968,4.23105817 19.6852603,3.74568672 19.0920285,3.74568672 L9.03405345,3.74568672 C8.8183328,3.74568672 8.65654232,3.58389623 8.65654232,3.36817559 C8.65654232,3.15245494 8.84529788,2.99066446 9.03405345,2.99066446 L19.0920285,2.99066446 Z M13.8938926,6.975 C14.702845,6.975 15.3500069,7.62216193 15.3500069,8.43111435 L15.3500069,19.5407276 C15.3500069,20.34968 14.702845,20.9968419 13.8938926,20.9968419 L4.45611435,20.9968419 C3.64716193,20.9968419 3,20.34968 3,19.5407276 L3,8.43111435 C3,7.62216193 3.64716193,6.975 4.45611435,6.975 L13.8938926,6.975 Z" id="path-1"></path>
    </defs>
    <g id="Icons" stroke="none" stroke-width="1" fill="none" fill-rule="evenodd">
        <g id="MC-icon-set" transform="translate(-240.000000, -1304.000000)">
            <rect fill="#FFFFFF" x="0" y="0" width="312" height="1516"></rect>
            <g id="Component-/-icon-/-32px-/-manageprojects" transform="translate(240.000000, 1304.000000)">
                <mask id="mask-2" fill="white">
                    <use xlink:href="#path-1"></use>
                </mask>
                <use id="Mask" fill="#000000" xlink:href="#path-1"></use>
            </g>
        </g>
    </g>
</svg>