<?xml version="1.0" encoding="UTF-8"?>
<svg width="24px" height="24px" viewBox="0 0 24 24" version="1.1" xmlns="http://www.w3.org/2000/svg" xmlns:xlink="http://www.w3.org/1999/xlink">
    <!-- Generator: sketchtool 45.2 (43514) - http://www.bohemiancoding.com/sketch -->
    <title>nested-view</title>
    <desc>Created with sketchtool.</desc>
    <defs></defs>
    <g id="Icons" stroke="none" stroke-width="1" fill-rule="evenodd">
        <g id="MC-icon-set" transform="translate(-168.000000, -552.000000)" fill="#000000">
            <g id="Views" transform="translate(24.000000, 552.000000)">
                <g id="Nested-View" transform="translate(144.000000, 0.000000)">
                    <path d="M16.2352941,7.17647059 L3.52941176,7.17647059 C3.23717647,7.17647059 3,6.93929412 3,6.64705882 L3,4.52941176 C3,4.23717647 3.23717647,4 3.52941176,4 L16.2352941,4 C16.5275294,4 16.7647059,4.23717647 16.7647059,4.52941176 L16.7647059,6.64705882 C16.7647059,6.93929412 16.5275294,7.17647059 16.2352941,7.17647059 Z M20.5384615,14 L9.46153846,14 C9.20676923,14 9,13.776 9,13.5 L9,11.5 C9,11.224 9.20676923,11 9.46153846,11 L20.5384615,11 C20.7932308,11 21,11.224 21,11.5 L21,13.5 C21,13.776 20.7932308,14 20.5384615,14 Z M20.5384615,20 L9.46153846,20 C9.20676923,20 9,19.776 9,19.5 L9,17.5 C9,17.224 9.20676923,17 9.46153846,17 L20.5384615,17 C20.7932308,17 21,17.224 21,17.5 L21,19.5 C21,19.776 20.7932308,20 20.5384615,20 Z M7.01041667,19 C7.3268298,19 7.58333333,19.2238576 7.58333333,19.5 C7.58333333,19.7761424 7.3268298,20 7.01041667,20 L3.57291667,20 C3.25650353,20 3,19.7761424 3,19.5 L3,9.5 C3,9.22385763 3.25650353,9 3.57291667,9 C3.8893298,9 4.14583333,9.22385763 4.14583333,9.5 L4.14583333,13 L7.01041667,13 C7.3268298,13 7.58333333,13.2238576 7.58333333,13.5 C7.58333333,13.7761424 7.3268298,14 7.01041667,14 L4.14583333,14 L4.14583333,19 L7.01041667,19 Z" id="shape"></path>
                </g>
            </g>
        </g>
    </g>
</svg>