<?xml version="1.0" encoding="UTF-8"?>
<svg width="24px" height="24px" viewBox="0 0 24 24" version="1.1" xmlns="http://www.w3.org/2000/svg" xmlns:xlink="http://www.w3.org/1999/xlink">
    <!-- Generator: sketchtool 45.2 (43514) - http://www.bohemiancoding.com/sketch -->
    <title>paper-bill-inverted</title>
    <desc>Created with sketchtool.</desc>
    <defs></defs>
    <g id="Icons" stroke="none" stroke-width="1" fill-rule="evenodd">
        <g id="MC-icon-set" transform="translate(-24.000000, -408.000000)" fill="#000000">
            <g id="Switch-states" transform="translate(24.000000, 408.000000)">
                <g id="Paper-Bill-Inverted">
                    <path d="M16.3242471,19.6999941 L16.3219826,19.6999941 L16.3219834,19.705662 L14.9130917,21 L13.4929095,19.7436844 L13.4929095,19.6999941 L13.491409,19.6999941 L13.4914097,19.705662 L12.082518,21 L10.6623641,19.7436844 L10.6623641,19.6999941 L10.660807,19.6999941 L10.6608077,19.705662 L9.25191609,21 L7.83176214,19.7436844 L7.83176214,19.6999941 L7.82972403,19.6999941 L7.82972474,19.705662 L6.42083309,21 L5.00065084,19.7436844 L5.00065084,19.6999941 L5,12.0335636 L5,4.34166923 L6.4207199,3 L7.82780053,4.34113489 L7.8278079,4.3999939 L7.83108301,4.3999939 L7.83108301,4.34166923 L9.2518312,3 L10.6588835,4.34113489 L10.6588909,4.3999939 L10.661685,4.3999939 L10.661685,4.34166923 L12.0824332,3 L13.4894855,4.34113489 L13.4894929,4.3999939 L13.4922586,4.3999939 L13.4922586,4.34166923 L14.9129785,3 L16.3200591,4.34113489 L16.3200665,4.3999939 L16.323568,4.3999939 L16.323568,4.34166923 L17.7443162,3 L19.1513685,4.34113489 L19.1532927,19.705662 L17.7444011,21 L16.3242471,19.7436844 L16.3242471,19.6999941 Z M6.85714835,8.22493349 C6.85714835,8.4828419 7.07667973,8.70598669 7.34748541,8.70598669 L15.9878754,8.70598669 C16.2591862,8.70598669 16.4782125,8.49061184 16.4782125,8.22493349 C16.4782125,7.96702508 16.2586811,7.74388028 15.9878754,7.74388028 L7.34748541,7.74388028 C7.07617455,7.74388028 6.85714835,7.95925514 6.85714835,8.22493349 Z M6.85714835,11.1112527 C6.85714835,11.3691611 7.07667973,11.5923059 7.34748541,11.5923059 L15.9878754,11.5923059 C16.2591862,11.5923059 16.4782125,11.3769311 16.4782125,11.1112527 C16.4782125,10.8533443 16.2586811,10.6301995 15.9878754,10.6301995 L7.34748541,10.6301995 C7.07617455,10.6301995 6.85714835,10.8455744 6.85714835,11.1112527 Z M7.14146413,13.997572 C7.14146413,14.2554804 7.35296448,14.4786252 7.61386337,14.4786252 L12.4417034,14.4786252 C12.6948573,14.4786252 12.9141026,14.2632503 12.9141026,13.997572 C12.9141026,13.7396635 12.7026023,13.5165188 12.4417034,13.5165188 L7.61386337,13.5165188 C7.3607094,13.5165188 7.14146413,13.7318936 7.14146413,13.997572 Z" id="shape"></path>
                </g>
            </g>
        </g>
    </g>
</svg>