<?xml version="1.0" encoding="utf-8"?>
<!-- Generator: Adobe Illustrator 22.1.0, SVG Export Plug-In . SVG Version: 6.00 Build 0)  -->
<svg version="1.1" id="Ebene_1" xmlns="http://www.w3.org/2000/svg" xmlns:xlink="http://www.w3.org/1999/xlink" x="0px" y="0px"
	 viewBox="0 0 24 24" style="enable-background:new 0 0 24 24;" xml:space="preserve">
	<title>paperclip</title>
	<desc>Created with Sketch.</desc>
	<g id="Icons">
		<g id="MC-icon-set" transform="translate(-24.000000, -1307.000000)">
			<g id="paperclip" transform="translate(24.000000, 1307.000000)">
				<path id="shape" d="M9.3,18.7c-0.5,0.5-1.3,0.8-2.1,0.8c-0.8,0-1.5-0.3-2.1-0.8c-0.5-0.5-0.9-1.1-0.9-1.8c0-0.7,0.3-1.4,0.9-1.8
					L16.4,5c0.7-0.6,1.9-0.6,2.6,0c0.7,0.7,0.7,1.7,0,2.4L9,16.4c-0.3,0.3-0.8,0.3-1.1,0c-0.1-0.1-0.2-0.3-0.2-0.5
					c0-0.2,0.1-0.4,0.2-0.5l5.9-5.1C14,10.2,14,10,14,9.9c0-0.2-0.1-0.3-0.2-0.4c-0.3-0.2-0.7-0.2-1,0l-5.9,5.1
					c-0.4,0.4-0.6,0.8-0.6,1.4c0,0.5,0.2,1,0.6,1.4c0.8,0.7,2.2,0.7,3,0l10.1-9C20.7,7.7,21,7,21,6.2c0-0.8-0.3-1.5-0.9-2
					c-0.6-0.5-1.4-0.8-2.3-0.8c-0.9,0-1.7,0.3-2.3,0.8l-11.2,10C3.4,14.9,3,15.9,3,16.9c0,1,0.4,2,1.2,2.7c0.8,0.7,1.9,1.1,3,1.1
					c1.1,0,2.2-0.4,3-1.1l9.3-8.4c0.1-0.1,0.2-0.3,0.2-0.4c0-0.2-0.1-0.3-0.2-0.4c-0.3-0.2-0.7-0.2-1,0L9.3,18.7z"/>
			</g>
		</g>
	</g>
</svg>
