<?xml version="1.0" encoding="UTF-8"?>
<svg width="24px" height="24px" viewBox="0 0 24 24" version="1.1" xmlns="http://www.w3.org/2000/svg" xmlns:xlink="http://www.w3.org/1999/xlink">
    <!-- Generator: sketchtool 45.2 (43514) - http://www.bohemiancoding.com/sketch -->
    <title>pin-active</title>
    <desc>Created with sketchtool.</desc>
    <defs></defs>
    <g id="Icons" stroke="none" stroke-width="1" fill-rule="evenodd">
        <g id="MC-icon-set" transform="translate(-240.000000, -744.000000)" fill="#000000">
            <g id="Actions" transform="translate(24.000000, 648.000000)">
                <g id="Pin-active" transform="translate(216.000000, 96.000000)">
                    <path d="M8.83299917,13.3511577 L12.2676967,13.3511577 L12.2676967,6.40877538 L8.83299917,6.40877538 L8.83299917,13.3511577 Z M16.5610685,15.0341595 C16.5610685,14.1046165 15.792233,13.3511577 14.8437198,13.3511577 L13.9850454,13.3511577 L13.9850454,6.40698719 C14.9168144,6.38815861 15.6666518,5.64343033 15.6666518,4.72577361 L5.39830168,4.72577361 C5.39830168,5.65531653 6.16713725,6.40877538 7.11565043,6.40877538 L7.11565043,13.3511577 L6.25697605,13.3511577 C5.30846287,13.3511577 4.53962731,14.1046165 4.53962731,15.0341595 L9.69167354,15.0341595 L9.69167354,21.5557913 L11.4090223,21.5557913 L11.4090223,15.0341595 L16.5610685,15.0341595 Z" id="shape" transform="translate(10.550348, 13.140782) rotate(35.000000) translate(-10.550348, -13.140782) "></path>
                </g>
            </g>
        </g>
    </g>
</svg>