<svg xmlns="http://www.w3.org/2000/svg" width="24" height="24" viewBox="0 0 18 10">
  <path d="M12.4582179,7 C9.74148208,7 7.32317717,8.26972436 5.75873618,10.2461686 L3.79529203,8.28286732 C3.35785998,7.84543528 3,7.99386503 3,8.61258423 L3,15.9479282 C3,16.5666474 3.02400019,16.5415043 3.64286224,16.5415043 L10.9289201,16.5415043 C11.5477821,16.5415043 11.6957833,16.1835015 11.2584941,15.7460694 L9.01576203,13.5033373 C10.0159128,11.3558917 12.1875015,9.86387987 14.7125215,9.86387987 C18.11612,9.86387987 20.8814276,12.5706156 20.9897142,15.9479282 C20.996,15.8134985 21,15.6780689 21,15.5419249 C21.0001429,10.8244589 17.1756839,7 12.4582179,7 Z" transform="translate(-3 -7)"/>
</svg>
