<?xml version="1.0" encoding="UTF-8"?>
<svg width="24px" height="24px" viewBox="0 0 24 24" version="1.1" xmlns="http://www.w3.org/2000/svg" xmlns:xlink="http://www.w3.org/1999/xlink">
    <!-- Generator: Sketch 52.2 (67145) - http://www.bohemiancoding.com/sketch -->
    <title>rocket</title>
    <desc>Created with Sketch.</desc>
    <g id="Symbols" stroke="none" stroke-width="1" fill="none" fill-rule="evenodd">
        <g id="Rocket">
            <g id="Group-5">
                <g id="clock"></g>
                <g id="Group">
                    <g id="clock-copy"></g>
                </g>
                <g id="Group-2" transform="translate(3.000000, 3.000000)" fill="#1A1A1A" fill-rule="nonzero">
                    <g id="Group-4">
                        <path d="M17.5385825,0.0681619422 C16.1705839,-0.101065516 14.7585665,0.0463746023 13.4551338,0.49450755 C12.1517835,0.94265732 10.9474243,1.69481234 9.97292051,2.66931617 L7.68386226,4.95810418 L7.6388193,4.96391279 L4.38177333,5.38393156 C4.33656554,5.38985645 4.29468634,5.41044864 4.26256129,5.44249282 L1.12194416,8.58324317 C1.06802968,8.63715766 1.04842037,8.71651584 1.07103186,8.78935717 C1.09362489,8.86205832 1.15491041,8.9164768 1.22971321,8.93037108 L3.64511553,9.37754234 L4.26736056,9.99978737 L4.11029344,10.0848399 L3.11680563,10.6228182 C3.05986965,10.6536249 3.02078076,10.7097004 3.01139452,10.7740282 C3.00208818,10.8382014 3.02354861,10.9028226 3.0695412,10.9487345 L6.83657409,14.7157674 C6.87512283,14.7543161 6.92758141,14.7759987 6.98177368,14.7759987 C6.99136767,14.7759987 7.00169366,14.7752596 7.01116509,14.7739308 C7.07542422,14.7645546 7.13138977,14.725453 7.16237815,14.6683309 L7.7854133,13.517768 L8.40749744,14.1402074 L8.41502999,14.1808676 L8.85493719,16.5554606 C8.86883933,16.6305483 8.92311508,16.6916254 8.99539981,16.7140659 C9.01552529,16.7202017 9.0364033,16.7233293 9.05686579,16.7233293 C9.11128542,16.7233293 9.163495,16.7019078 9.20232783,16.6632352 L12.3428137,13.5224828 C12.3749002,13.4903963 12.3953801,13.4486811 12.4012088,13.4036712 L12.8272068,10.1010385 L12.8593247,10.0689225 L15.1159916,7.81238883 C16.090565,6.83768417 16.8428798,5.63325152 17.2910622,4.33005681 C17.7389995,3.02681137 17.8863948,1.61454889 17.7172853,0.246637337 C17.7056148,0.153066403 17.6321286,0.079643035 17.5385825,0.0681619422 Z" id="Stroke-1"></path>
                        <g id="Group-3" transform="translate(0.000000, 12.315789)">
                            <path d="M4.52268765,1.01061143 C4.68101605,1.16893982 4.68101605,1.42547301 4.52270923,1.58377983 L1.61750251,4.48872011 C1.5405004,4.56572221 1.43769761,4.60748191 1.33099786,4.60748191 C1.2244695,4.60748191 1.12180644,4.56574486 1.04469768,4.48879124 C0.886168772,4.33074079 0.886168772,4.07398283 1.04462536,3.91584512 L3.9497021,1.01063516 C4.10786958,0.852467673 4.36438447,0.852467673 4.52268765,1.01061143 Z" id="Stroke-3"></path>
                            <path d="M5.4486351,1.93651895 C5.60699518,2.09456008 5.60699518,2.35126312 5.44868021,2.5095781 L4.13975991,3.81836517 C4.06280363,3.89532145 3.95976185,3.93712697 3.85312204,3.93712697 C3.74642229,3.93712697 3.6436195,3.89536728 3.56664113,3.81838889 C3.40830878,3.66021599 3.40830878,3.4036645 3.56661739,3.24535588 L4.87540687,1.93656641 C5.03371153,1.77826175 5.29037795,1.77826175 5.4486351,1.93651895 Z" id="Stroke-5"></path>
                            <path d="M2.00082701,1.68104338 C2.15871222,1.83940692 2.15871222,2.09584856 2.00082701,2.25405267 L0.691723636,3.563156 C0.614682597,3.64004203 0.511953291,3.68160395 0.405266447,3.68160395 C0.298648313,3.68160395 0.195761808,3.63995341 0.118761802,3.56310859 C-0.0395468151,3.40479998 -0.0395468151,3.14798203 0.118759404,2.98983525 L1.42741805,1.68104338 C1.58572271,1.52273872 1.84252235,1.52273872 2.00082701,1.68104338 Z" id="Stroke-7"></path>
                            <path d="M3.06496711,1.30390576 C3.06496711,1.58009615 2.8411575,1.80390576 2.56496711,1.80390576 C2.28877671,1.80390576 2.06496711,1.58009615 2.06496711,1.30390576 C2.06496711,1.02771536 2.28877671,0.803905757 2.56496711,0.803905757 C2.8411575,0.803905757 3.06496711,1.02771536 3.06496711,1.30390576 Z" id="Stroke-9"></path>
                            <path d="M3.59786184,4.36805049 C3.59786184,4.64424089 3.37405224,4.86805049 3.09786184,4.86805049 C2.82167145,4.86805049 2.59786184,4.64424089 2.59786184,4.36805049 C2.59786184,4.0918601 2.82167145,3.86805049 3.09786184,3.86805049 C3.37405224,3.86805049 3.59786184,4.0918601 3.59786184,4.36805049 Z" id="Stroke-11"></path>
                        </g>
                    </g>
                </g>
            </g>
        </g>
    </g>
</svg>