<?xml version="1.0" encoding="UTF-8"?>
<svg width="24px" height="24px" viewBox="0 0 24 24" version="1.1" xmlns="http://www.w3.org/2000/svg" xmlns:xlink="http://www.w3.org/1999/xlink">
    <!-- Generator: sketchtool 45.2 (43514) - http://www.bohemiancoding.com/sketch -->
    <title>screen-gear</title>
    <desc>Created with sketchtool.</desc>
    <defs></defs>
    <g id="Icons" stroke="none" stroke-width="1" fill-rule="evenodd">
        <g id="MC-icon-set" transform="translate(-24.000000, -552.000000)" fill="#000000">
            <g id="Views" transform="translate(24.000000, 552.000000)">
                <g id="Screen-Gear">
                    <path d="M16.5092847,5.66136822 L5.70185694,5.66136822 L5.70185694,4.76074924 L16.5092847,4.76074924 L16.5092847,5.66136822 Z M3.90061898,14.7080467 L6.60247592,14.7080467 L6.60247592,15.6086657 L3.90061898,15.6086657 C3.40325215,15.6086657 3,15.2054136 3,14.7080467 L3,3.90061898 C3,3.40325215 3.40325215,3 3.90061898,3 L18.3105227,3 C18.8078895,3 19.2111417,3.40325215 19.2111417,3.90061898 L19.2111417,7.5030949 L18.3105227,7.5030949 L18.3105227,3.90061898 L3.90061898,3.90061898 L3.90061898,14.7080467 Z M19.4188019,14.9073126 L20.8839964,16.0218286 C21.0159371,16.1231482 21.0506109,16.3055236 20.9673036,16.4541257 L19.5784366,18.7912319 C19.4951293,18.9398341 19.3145552,19.0006259 19.1549205,18.9398341 L17.4258446,18.2643698 C17.0646964,18.5278009 16.6758542,18.7574587 16.2522255,18.9263248 L15.9883442,20.716305 C15.9675174,20.8784164 15.8217297,21 15.6481354,21 L12.8704013,21 C12.696807,21 12.5510193,20.8784164 12.5301924,20.716305 L12.2663111,18.9263248 C11.8426824,18.7574587 11.4538402,18.5345555 11.092692,18.2643698 L9.36361611,18.9398341 C9.21084861,18.9938712 9.02340729,18.9398341 8.94010003,18.7912319 L7.55123299,16.4541257 C7.46792573,16.3055236 7.50259956,16.1231482 7.63454024,16.0218286 L9.09973475,14.9073126 L9.09973475,13.5834027 L7.63454024,12.4688867 C7.50259956,12.3675671 7.46094594,12.1851917 7.55123299,12.0365896 L8.94010003,9.69948334 C9.02340729,9.55088121 9.20398139,9.49008943 9.36361611,9.55088121 L11.092692,10.2263454 C11.4538402,9.96291439 11.8426824,9.73325655 12.2663111,9.56439049 L12.5301924,7.77441027 C12.5510193,7.61229885 12.696807,7.49071529 12.8704013,7.49071529 L15.6481354,7.49071529 C15.8217297,7.49071529 15.9675174,7.61229885 15.9883442,7.77441027 L16.2522255,9.56439049 C16.6758542,9.73325655 17.0646964,9.95615975 17.4258446,10.2263454 L19.1549205,9.55088121 C19.307688,9.49684407 19.4951293,9.55088121 19.5784366,9.69948334 L20.9673036,12.0365896 C21.0506109,12.1851917 21.0159371,12.3675671 20.8839964,12.4688867 L19.4188019,13.5834027 L19.4188019,14.9073126 Z M9.30433286,7.46260618 L5.70185694,7.46260618 L5.70185694,6.5619872 L9.30433286,6.5619872 L9.30433286,7.46260618 Z M14.2592683,16.6094825 C15.5995019,16.6094825 16.6897012,15.5490036 16.6897012,14.2453576 C16.6897012,12.9417117 15.5995019,11.8812328 14.2592683,11.8812328 C12.9190347,11.8812328 11.8288354,12.9417117 11.8288354,14.2453576 C11.8288354,15.5490036 12.9190347,16.6094825 14.2592683,16.6094825 Z" id="shape"></path>
                </g>
            </g>
        </g>
    </g>
</svg>