<?xml version="1.0" encoding="UTF-8"?>
<svg width="24px" height="24px" viewBox="0 0 24 24" version="1.1" xmlns="http://www.w3.org/2000/svg" xmlns:xlink="http://www.w3.org/1999/xlink">
    <!-- Generator: sketchtool 45.2 (43514) - http://www.bohemiancoding.com/sketch -->
    <title>split</title>
    <desc>Created with sketchtool.</desc>
    <defs></defs>
    <g id="Icons" stroke="none" stroke-width="1" fill-rule="evenodd">
        <g id="MC-icon-set" transform="translate(-168.000000, -792.000000)" fill="#000000">
            <g id="Actions" transform="translate(24.000000, 648.000000)">
                <g id="Split" transform="translate(144.000000, 144.000000)">
                    <path d="M11.6666667,19 L5.82317802,13.6319085 C5.49666959,13.8637201 5.09758307,14 4.66666667,14 C3.56209717,14 2.66666667,13.1045695 2.66666667,12 C2.66666667,10.8954305 3.56209717,10 4.66666667,10 C5.11705156,10 5.5326655,10.1488721 5.86698407,10.400092 L11.6666667,5 L16.6666667,5 L16.6666667,3.43755686 C16.6666667,3.31903941 16.7106174,3.21646794 16.7985917,3.12993823 C16.8866634,3.04343246 16.9907879,3 17.1111354,3 C17.2315073,3 17.3356318,3.04343246 17.4236062,3.12993823 L20.5346443,6.19240531 C20.6226187,6.27893502 20.6666667,6.38153043 20.6666667,6.5 C20.6666667,6.61846957 20.6226187,6.72096921 20.5346443,6.80766652 L17.4236305,9.8701336 C17.3356318,9.95673514 17.2315073,10 17.1111598,10 C16.9907879,10 16.8866634,9.95673514 16.7985917,9.8701336 C16.7106174,9.78353206 16.6666667,9.68103242 16.6666667,9.56246708 L16.6666667,7 L12.4037976,7 L7.00012437,12.0390068 L12.3201382,17 L16.6666667,17 L16.6666667,14.4375569 C16.6666667,14.3190394 16.7106174,14.2164679 16.7985917,14.1299382 C16.8866634,14.0434325 16.9907879,14 17.1111354,14 C17.2315073,14 17.3356318,14.0434325 17.4236062,14.1299382 L20.5346443,17.1924053 C20.6226187,17.278935 20.6666667,17.3815304 20.6666667,17.5 C20.6666667,17.6184696 20.6226187,17.7209692 20.5346443,17.8076665 L17.4236305,20.8701336 C17.3356318,20.9567351 17.2315073,21 17.1111598,21 C16.9907879,21 16.8866634,20.9567351 16.7985917,20.8701336 C16.7106174,20.7835321 16.6666667,20.6810324 16.6666667,20.5624671 L16.6666667,19 L11.6666667,19 Z" id="shape"></path>
                </g>
            </g>
        </g>
    </g>
</svg>