<?xml version="1.0" encoding="UTF-8"?>
<svg width="31px" height="27px" viewBox="0 0 31 27" version="1.1" xmlns="http://www.w3.org/2000/svg" xmlns:xlink="http://www.w3.org/1999/xlink">
    <!-- Generator: Sketch 52.6 (67491) - http://www.bohemiancoding.com/sketch -->
    <title>Component / icon / 88px / impex icon</title>
    <desc>Created with Sketch.</desc>
    <g id="Final" stroke="none" stroke-width="1" fill="none" fill-rule="evenodd">
        <g id="1_Home_screen" transform="translate(-183.000000, -563.000000)" fill="#1A1A1A">
            <g id="Component-/-icon-/-88px-/-bulk-icon" transform="translate(178.000000, 557.000000)">
                <g>
                    <path d="M6.11950276,18.251177 L19.7964752,21.6686549 C19.9397163,21.7043725 20.0898642,21.7043725 20.2334056,21.6686549 L33.910378,18.251177 C34.4788379,18.1089071 35.0295804,18.5387182 35.0295804,19.1246058 L35.0295804,21.0203366 C35.0295804,21.4333394 34.7485036,21.7935162 34.3473084,21.8937654 L20.2334056,25.420497 C20.0898642,25.4562146 19.9397163,25.4562146 19.7964752,25.420497 L5.68257236,21.8937654 C5.28137717,21.7935162 5,21.4333394 5,21.0203366 L5,19.1246058 C5,18.5387182 5.55074251,18.1089071 6.11950276,18.251177" id="Fill-1"></path>
                    <path d="M6.11950276,25.7547584 L19.7964752,29.1725365 C19.9397163,29.208254 20.0898642,29.208254 20.2334056,29.1725365 L33.910378,25.7547584 C34.4788379,25.6127887 35.0295804,26.0425997 35.0295804,26.6284874 L35.0295804,28.523918 C35.0295804,28.937221 34.7485036,29.2973978 34.3473084,29.397647 L20.0147902,32.9787053 L5.68257236,29.397647 C5.28137717,29.2973978 5,28.937221 5,28.523918 L5,26.6284874 C5,26.0425997 5.55074251,25.6127887 6.11950276,25.7547584" id="Fill-4"></path>
                    <path d="M5.68227207,10.3719267 L19.7961749,6.84519508 C19.9397163,6.8091774 20.0898642,6.8091774 20.2331053,6.84519508 L34.3470081,10.3719267 C34.7482033,10.4718757 35.0295804,10.8323527 35.0295804,11.2453555 L35.0295804,13.5913073 C35.0295804,14.0043101 34.7482033,14.364487 34.3470081,14.4647362 L20.2331053,17.9914678 C20.0898642,18.0271853 19.9397163,18.0271853 19.7961749,17.9914678 L5.68227207,14.4647362 C5.28137717,14.364487 5,14.0043101 5,13.5913073 L5,11.2453555 C5,10.8323527 5.28137717,10.4718757 5.68227207,10.3719267" id="Fill-7"></path>
                </g>
            </g>
        </g>
    </g>
</svg>