<?xml version="1.0" encoding="UTF-8"?>
<svg width="24px" height="24px" viewBox="0 0 24 24" version="1.1" xmlns="http://www.w3.org/2000/svg" xmlns:xlink="http://www.w3.org/1999/xlink">
    <!-- Generator: sketchtool 45.2 (43514) - http://www.bohemiancoding.com/sketch -->
    <title>switcher</title>
    <desc>Created with sketchtool.</desc>
    <defs></defs>
    <g id="Icons" stroke="none" stroke-width="1" fill-rule="evenodd">
        <g id="MC-icon-set" transform="translate(-96.000000, -792.000000)" fill="#000000">
            <g id="Actions" transform="translate(24.000000, 648.000000)">
                <g id="Switcher" transform="translate(72.000000, 144.000000)">
                    <path d="M3.77059276,10.9959314 L3.77059276,11.7931034 L3.77059276,10.9959314 C3.3456505,10.9959314 3.00076982,10.6089302 3,10.1329532 C3,7.47404741 5.05619707,6.0235025 7.49037721,6.0235025 L18.5252117,6.0235025 L17.2757891,4.43576084 C16.9942263,4.07813024 17.0250192,3.53218208 17.3435335,3.21601589 C17.6622402,2.90071355 18.1495381,2.93440339 18.4305235,3.29203399 L20.8077367,6.31548111 C21.0640878,6.6420134 21.0640878,7.13181183 20.8077367,7.45834412 L18.4305235,10.4817912 C18.2788684,10.6752919 18.0662048,10.7737698 17.8531563,10.7737698 C17.6730177,10.7737698 17.4905697,10.702071 17.3450731,10.5578093 C17.026174,10.2416432 16.9963433,9.69569499 17.2771363,9.33806439 L18.5250192,7.75032273 L7.49114704,7.75032273 C5.89145497,7.75032273 4.5404157,8.40958833 4.5404157,10.1320894 C4.5404157,10.6089302 4.19553503,10.9959314 3.77059276,10.9959314 Z M19.4596337,11.9859303 C19.4596337,11.4624576 19.8045033,11.2068966 20.229432,11.2068966 C20.6559002,11.2068966 20.9992302,11.4615076 21,11.9849803 C21,14.909207 18.9438689,16.3334882 16.5097668,16.3334882 L5.47547872,16.3334882 L6.72332168,18.2513838 C7.00506784,18.6447009 6.97427591,19.4151843 6.65557943,19.7631369 C6.33688296,20.1096644 5.85037047,20.0716627 5.56862431,19.6773956 L3.19225711,16.3494014 C2.9359143,15.9905234 2.9359143,15.4461498 3.19225711,15.0870342 L5.56862431,11.7514397 C5.72104436,11.5386304 5.93350868,11.4084748 6.14674279,11.4084748 C6.32764538,11.4084748 6.50931777,11.4443388 6.65557943,11.6032332 C6.97427591,11.9499983 7.00506784,12.4658706 6.72332168,12.8591877 L5.47547872,14.4343559 L16.5097668,14.4343559 C18.1094076,14.4343559 19.4596337,13.881975 19.4596337,11.9859303 Z" id="shape"></path>
                </g>
            </g>
        </g>
    </g>
</svg>