<?xml version="1.0" encoding="UTF-8"?>
<svg width="30px" height="24px" viewBox="0 0 30 24" version="1.1" xmlns="http://www.w3.org/2000/svg" xmlns:xlink="http://www.w3.org/1999/xlink">
    <!-- Generator: Sketch 52.6 (67491) - http://www.bohemiancoding.com/sketch -->
    <title>Component / icon / 88px / api icon</title>
    <desc>Created with Sketch.</desc>
    <g id="Final" stroke="none" stroke-width="1" fill="none" fill-rule="evenodd">
        <g id="1_Home_screen" transform="translate(-183.000000, -428.000000)" fill="#1A1A1A">
            <g id="Component-/-icon-/-88px-/-api-icon" transform="translate(178.000000, 420.000000)">
                <g>
                    <path d="M9.56521739,23.1272727 L14.2028986,18.4727273 C14.4927536,18.1818182 14.9275362,18.1818182 15.2173913,18.4727273 C15.5072464,18.7636364 15.5072464,19.2 15.2173913,19.4909091 L11.0869565,23.6363636 L15.2173913,27.7818182 C15.5072464,28.0727273 15.5072464,28.5090909 15.2173913,28.8 C15.0724638,28.9454545 14.8913043,29.0181818 14.7101449,29.0181818 C14.5289855,29.0181818 14.3478261,28.9454545 14.2028986,28.8 L9.56521739,24.1818182 C9.42028986,24.0363636 9.34782609,23.8545455 9.34782609,23.6727273 C9.34782609,23.4909091 9.42028986,23.2727273 9.56521739,23.1272727 Z M16.884058,27.9636364 L21.884058,18.6545455 C22.0652174,18.2909091 22.5,18.1818182 22.8623188,18.3636364 C23.2246377,18.5454545 23.3333333,18.9818182 23.1521739,19.3454545 L18.1521739,28.6545455 C18.0072464,28.9090909 17.7536232,29.0545455 17.5,29.0545455 C17.3913043,29.0545455 17.2826087,29.0181818 17.173913,28.9818182 C16.8115942,28.7636364 16.6666667,28.3272727 16.884058,27.9636364 Z M24.7826087,19.5272727 C24.4927536,19.2363636 24.4927536,18.8 24.7826087,18.5090909 C25.0724638,18.2181818 25.5072464,18.2181818 25.7971014,18.5090909 L30.4347826,23.1636364 C30.5797101,23.3090909 30.6521739,23.4909091 30.6521739,23.6727273 C30.6521739,23.8545455 30.5797101,24.0363636 30.4347826,24.1818182 L25.7971014,28.8363636 C25.6518116,28.9818182 25.4706522,29.0545455 25.2894928,29.0545455 C25.1083333,29.0545455 24.9271739,28.9818182 24.7826087,28.8363636 C24.4927536,28.5454545 24.4927536,28.1090909 24.7826087,27.8181818 L28.9126812,23.6727273 L24.7826087,19.5272727 Z M5,29.2727273 C5,30.6909091 6.12318841,31.8181818 7.53623188,31.8181818 L32.4637681,31.8181818 C33.8768116,31.8181818 35,30.6909091 35,29.2727273 L35,15.4545455 L5,15.4545455 L5,29.2727273 Z" id="Fill-1"></path>
                    <path d="M13.4348015,11.4435568 C13.4348015,10.6269209 14.0726928,9.95611285 14.849256,9.95611285 C15.6258193,9.95611285 16.2637106,10.6269209 16.2637106,11.4435568 C16.2637106,12.2601927 15.6258193,12.9310007 14.849256,12.9310007 C14.0726928,12.9310007 13.4348015,12.2601927 13.4348015,11.4435568 Z M9.57971961,11.4435568 C9.57971961,10.6269209 10.2176109,9.95611285 10.9941741,9.95611285 C11.7707374,9.95611285 12.4086286,10.6269209 12.4086286,11.4435568 C12.4086286,12.2601927 11.7707374,12.9310007 10.9941741,12.9310007 C10.2176109,12.9310007 9.57971961,12.2601927 9.57971961,11.4435568 Z M5.72463768,11.4435568 C5.72463768,10.6269209 6.36252893,9.95611285 7.1390922,9.95611285 C7.91565547,9.95611285 8.55354672,10.6269209 8.55354672,11.4435568 C8.55354672,12.2601927 7.91565547,12.9310007 7.1390922,12.9310007 C6.36252893,12.9310007 5.72463768,12.2601927 5.72463768,11.4435568 Z M7.53623188,8.63636364 C6.12318841,8.63636364 5,9.80250784 5,11.2695925 L5,14.0909091 L35,14.0909091 L35,11.2695925 C35,9.84012539 33.8405797,8.63636364 32.4637681,8.63636364 L7.53623188,8.63636364 Z" id="Fill-4"></path>
                </g>
            </g>
        </g>
    </g>
</svg>