<?xml version="1.0" encoding="UTF-8"?>
<svg width="24px" height="24px" viewBox="0 0 24 24" version="1.1" xmlns="http://www.w3.org/2000/svg" xmlns:xlink="http://www.w3.org/1999/xlink">
    <!-- Generator: Sketch 52.6 (67491) - http://www.bohemiancoding.com/sketch -->
    <title>Component / icon / 24px / Terminal</title>
    <desc>Created with Sketch.</desc>
    <g id="Component-/-icon-/-24px-/-Terminal" stroke="none" stroke-width="1" fill="none" fill-rule="evenodd">
        <path d="M5.75288955,13.4047327 L8.54947576,10.6555949 C8.7242624,10.4837738 8.98644236,10.4837738 9.161229,10.6555949 C9.33601563,10.827416 9.33601563,11.0851477 9.161229,11.2569688 L6.6705194,13.7054197 L9.161229,16.1538705 C9.33601563,16.3256916 9.33601563,16.5834233 9.161229,16.7552444 C9.07383568,16.841155 8.96459403,16.8841102 8.85535238,16.8841102 C8.74611073,16.8841102 8.63686908,16.841155 8.54947576,16.7552444 L5.75288955,14.0275842 C5.66549623,13.9416737 5.62179957,13.8342855 5.62179957,13.7268973 C5.62179957,13.6195091 5.66549623,13.4906433 5.75288955,13.4047327 Z M10.1662522,16.2612587 L13.1813217,10.7629831 C13.2905633,10.5482067 13.5527433,10.4837738 13.7712266,10.591162 C13.9897099,10.6985502 14.0552549,10.9562818 13.9460132,11.1710582 L10.9309437,16.6693339 C10.8435504,16.8196773 10.6906121,16.9055879 10.5376738,16.9055879 C10.4721288,16.9055879 10.4065838,16.8841102 10.3410388,16.8626326 C10.1225555,16.7337668 10.0351622,16.4760351 10.1662522,16.2612587 Z M14.9291881,11.2784464 C14.7544014,11.1066253 14.7544014,10.8488937 14.9291881,10.6770725 C15.1039747,10.5052514 15.3661547,10.5052514 15.5409413,10.6770725 L18.3375275,13.4262103 C18.4249208,13.5121209 18.4686175,13.6195091 18.4686175,13.7268973 C18.4686175,13.8342855 18.4249208,13.9416737 18.3375275,14.0275842 L15.5409413,16.776722 C15.4533295,16.8626326 15.3440878,16.9055879 15.2348462,16.9055879 C15.1256045,16.9055879 15.0163629,16.8626326 14.9291881,16.776722 C14.7544014,16.6049009 14.7544014,16.3471693 14.9291881,16.1753482 L17.4196792,13.7268973 L14.9291881,11.2784464 Z M3,17.0344537 C3,17.8720816 3.67729822,18.5378885 4.52938308,18.5378885 L19.561034,18.5378885 C20.4131188,18.5378885 21.090417,17.8720816 21.090417,17.0344537 L21.090417,8.87295085 L3,8.87295085 L3,17.0344537 Z" id="Fill-1" fill="#1A1A1A"></path>
        <path d="M8.08630258,6.50392026 C8.08630258,6.02158646 8.47095987,5.6253837 8.93923832,5.6253837 C9.40751676,5.6253837 9.79217406,6.02158646 9.79217406,6.50392026 C9.79217406,6.98625406 9.40751676,7.38245682 8.93923832,7.38245682 C8.47095987,7.38245682 8.08630258,6.98625406 8.08630258,6.50392026 Z M5.76163459,6.50392026 C5.76163459,6.02158646 6.14629188,5.6253837 6.61457033,5.6253837 C7.08284877,5.6253837 7.46750606,6.02158646 7.46750606,6.50392026 C7.46750606,6.98625406 7.08284877,7.38245682 6.61457033,7.38245682 C6.14629188,7.38245682 5.76163459,6.98625406 5.76163459,6.50392026 Z M3.4369666,6.50392026 C3.4369666,6.02158646 3.82162389,5.6253837 4.28990233,5.6253837 C4.75818078,5.6253837 5.14283807,6.02158646 5.14283807,6.50392026 C5.14283807,6.98625406 4.75818078,7.38245682 4.28990233,7.38245682 C3.82162389,7.38245682 3.4369666,6.98625406 3.4369666,6.50392026 Z M4.52938308,4.84589352 C3.67729822,4.84589352 3,5.53465919 3,6.40117083 L3,8.06753939 L21.090417,8.06753939 L21.090417,6.40117083 C21.090417,5.55687743 20.3912705,4.84589352 19.561034,4.84589352 L4.52938308,4.84589352 Z" id="Fill-4" fill="#1A1A1A"></path>
    </g>
</svg>