<?xml version="1.0" encoding="UTF-8"?>
<svg width="24px" height="24px" viewBox="0 0 24 24" version="1.1" xmlns="http://www.w3.org/2000/svg" xmlns:xlink="http://www.w3.org/1999/xlink">
    <!-- Generator: sketchtool 45.2 (43514) - http://www.bohemiancoding.com/sketch -->
    <title>tree-structure</title>
    <desc>Created with sketchtool.</desc>
    <defs></defs>
    <g id="Icons" stroke="none" stroke-width="1" fill-rule="evenodd">
        <g id="MC-icon-set" transform="translate(-168.000000, -168.000000)" fill="#000000">
            <g id="Menu" transform="translate(24.000000, 168.000000)">
                <g id="Tree-Structure" transform="translate(144.000000, 0.000000)">
                    <path d="M11.25,4.91000307 L11.25,4.5 L15,4.5 L15,4.00493118 C15,3.44992302 15.4479289,3 15.9986959,3 L18.5013041,3 C19.0528686,3 19.5,3.44490024 19.5,4.00493118 L19.5,5.74506882 C19.5,6.30007698 19.0520711,6.75 18.5013041,6.75 L15.9986959,6.75 C15.4471314,6.75 15,6.30509976 15,5.74506882 L15,5.22000003 L11.97,5.22000003 L11.97,11.25 L15,11.25 L15,10.7549312 C15,10.199923 15.4479289,9.75 15.9986959,9.75 L18.5013041,9.75 C19.0528686,9.75 19.5,10.1949002 19.5,10.7549312 L19.5,12.4950688 C19.5,13.050077 19.0520711,13.5 18.5013041,13.5 L15.9986959,13.5 C15.4471314,13.5 15,13.0550998 15,12.4950688 L15,11.970402 L11.97,11.970402 L11.97,18.75 L15,18.75 L15,18.2549312 C15,17.699923 15.4479289,17.25 15.9986959,17.25 L18.5013041,17.25 C19.0528686,17.25 19.5,17.6949002 19.5,18.2549312 L19.5,19.9950688 C19.5,20.550077 19.0520711,21 18.5013041,21 L15.9986959,21 C15.4471314,21 15,20.5550998 15,19.9950688 L15,19.47 L11.25,19.47 L11.25,19.0750031 L11.25,11.970402 L8.25,11.970402 L8.25,11.25 L11.25,11.25 L11.25,4.91000307 Z M3.75,10.7549312 C3.75,10.199923 4.19792891,9.75 4.74869585,9.75 L7.25130415,9.75 C7.80286864,9.75 8.25,10.1949002 8.25,10.7549312 L8.25,12.4950688 C8.25,13.050077 7.80207109,13.5 7.25130415,13.5 L4.74869585,13.5 C4.19713136,13.5 3.75,13.0550998 3.75,12.4950688 L3.75,10.7549312 Z" id="shape"></path>
                </g>
            </g>
        </g>
    </g>
</svg>