<?xml version="1.0" encoding="UTF-8"?>
<svg width="24px" height="24px" viewBox="0 0 24 24" version="1.1" xmlns="http://www.w3.org/2000/svg" xmlns:xlink="http://www.w3.org/1999/xlink">
    <!-- Generator: sketchtool 45.2 (43514) - http://www.bohemiancoding.com/sketch -->
    <title>user-linear</title>
    <desc>Created with sketchtool.</desc>
    <defs></defs>
    <g id="Icons" stroke="none" stroke-width="1" fill-rule="evenodd">
        <g id="MC-icon-set" transform="translate(-24.000000, -216.000000)" fill-rule="nonzero" fill="#000000">
            <g id="Menu" transform="translate(24.000000, 168.000000)">
                <g id="User-Linear" transform="translate(0.000000, 48.000000)">
                    <path d="M5.68864315,15.9107368 C5.17121777,15.229086 5.25450522,14.2421189 5.88536552,13.6931546 L8.34673313,11.5513077 L8.65112202,11.2864328 L8.87163574,11.6229186 C8.9184836,11.6944046 9.00992176,11.8244675 9.13937259,11.9933283 C9.35601835,12.2759295 9.597832,12.5585448 9.85763909,12.8212012 C10.5847745,13.5563111 11.3023199,13.9838027 11.9224469,13.9688109 C12.1656243,13.962932 12.5129463,13.8088344 12.923741,13.5230906 C13.1974282,13.332717 13.4900132,13.0911282 13.7930443,12.8104903 C14.0810972,12.5437236 14.3624681,12.2569457 14.6250299,11.9701122 C14.782298,11.7983059 14.8977295,11.6653824 14.9596543,11.5910585 L15.1884051,11.3165051 L15.4596473,11.5501683 L17.7358518,13.5110185 C18.4977048,14.1673236 18.5597935,15.3227196 17.8845458,16.0631977 C17.854867,16.0988014 17.7994252,16.1639395 17.7206048,16.2544128 C17.5900295,16.4042923 17.4408744,16.5710676 17.2755103,16.7505474 C16.8030882,17.2632961 16.2946219,17.776089 15.7686662,18.2555911 C15.145982,18.8232785 14.5396319,19.3064599 13.9624342,19.6792125 C13.4421286,20.0152244 12.9538664,20.2559705 12.5001906,20.3882094 C11.9688592,20.5430835 11.4026235,20.5227439 10.8123845,20.3476169 C9.77033815,20.0384363 8.68625041,19.2642167 7.59350104,18.1676608 C7.09909853,17.671536 6.63544512,17.1411432 6.21507171,16.6107687 C6.06788744,16.42507 5.93649566,16.2524639 5.82252436,16.0972596 C5.75356798,16.003356 5.70535478,15.9355479 5.68864315,15.9107368 Z M8.80912953,12.0710699 L6.34776164,14.2129171 C5.99587733,14.5191211 5.94702683,15.0980058 6.25755914,15.5076743 C6.27968448,15.5397107 6.32403351,15.6020841 6.38891191,15.6904344 C6.4979986,15.8389868 6.62425935,16.0048524 6.76598313,16.1836618 C7.17106129,16.6947387 7.61781329,17.2057973 8.09205788,17.6816939 C9.10957855,18.702759 10.1080788,19.4158549 11.0135292,19.6845067 C11.4805462,19.8230731 11.9099743,19.8384985 12.3023008,19.724142 C12.6826153,19.6132867 13.1121326,19.4015058 13.5797184,19.0995402 C14.1206115,18.750233 14.6979324,18.290184 15.294223,17.7465591 C15.803893,17.2819043 16.2984882,16.7831005 16.7581028,16.2842526 C16.9189516,16.1096735 17.0638303,15.9476798 17.1903021,15.8025104 C17.26571,15.7159542 17.3178947,15.6546427 17.3545014,15.6112562 C17.7794066,15.1449885 17.7411845,14.4337217 17.2760868,14.033059 L14.9998828,12.0722093 L15.4998758,12.0313191 C15.4314117,12.1134918 15.3090137,12.2544375 15.1439604,12.4347486 C14.8693198,12.7347775 14.5748932,13.034862 14.2715019,13.3158335 C13.9463862,13.6169242 13.6296336,13.8784682 13.3264382,14.0893673 C12.812476,14.4468733 12.3525565,14.6509273 11.9395526,14.6609118 C11.0747515,14.6818187 10.208077,14.1654805 9.3572606,13.3053333 C9.07522576,13.0202054 8.81486098,12.7159088 8.58157265,12.4115984 C8.44106302,12.2283121 8.3399467,12.0844828 8.28422692,11.999459 L8.80912953,12.0710699 Z M15.4454474,7.85993348 C15.4454474,10.1317056 13.4317407,12.3737131 11.7340873,12.3737131 C10.0364322,12.3737131 8.02272727,10.1317064 8.02272727,7.85993348 C8.02272727,5.30574925 9.5460493,3.34615385 11.7340873,3.34615385 C13.9221236,3.34615385 15.4454474,5.30575042 15.4454474,7.85993348 Z M8.72272727,7.85993348 C8.72272727,9.76641779 10.4427133,11.6814054 11.7340873,11.6814054 C13.0254597,11.6814054 14.7454474,9.76641686 14.7454474,7.85993348 C14.7454474,5.65427221 13.489371,4.03846154 11.7340873,4.03846154 C9.97880193,4.03846154 8.72272727,5.65427099 8.72272727,7.85993348 Z" id="shape"></path>
                </g>
            </g>
        </g>
    </g>
</svg>