<?xml version="1.0" encoding="UTF-8"?>
<svg width="24px" height="24px" viewBox="0 0 24 24" version="1.1" xmlns="http://www.w3.org/2000/svg" xmlns:xlink="http://www.w3.org/1999/xlink">
    <!-- Generator: sketchtool 45.2 (43514) - http://www.bohemiancoding.com/sketch -->
    <title>user-filled</title>
    <desc>Created with sketchtool.</desc>
    <defs></defs>
    <g id="Icons" stroke="none" stroke-width="1" fill-rule="evenodd">
        <g id="MC-icon-set" transform="translate(-240.000000, -168.000000)" fill="#000000">
            <g id="Menu" transform="translate(24.000000, 168.000000)">
                <g id="User-Filled" transform="translate(216.000000, 0.000000)">
                    <path d="M12.1073783,19.9983849 C12.072083,19.9994582 12.0362917,20 12,20 C9.30414668,20 4.48735417,16.9185421 4.48735417,16.9185421 C3.78482426,16.2049552 3.85163398,13.114388 4.62437117,12.4982114 L7.66875418,12 C7.83921725,12 10.4194074,13.9650304 11.9821195,14 C12.0210888,14.000872 12.0599125,14.0037238 12.0985593,14.0084826 C12.1362541,14.0037238 12.174127,14.000872 12.212148,14 C13.736827,13.9650304 16.254221,12 16.4205353,12 L19.3908247,12.4982114 C20.1447551,13.114388 20.2099388,16.2049552 19.524507,16.9185421 C19.524507,16.9185421 14.8423901,20 12.212148,20 C12.1767395,20 12.1418177,19.9994582 12.1073783,19.9983849 Z M12,13 C10.4487533,13 8,10.7614237 8,8 C8,5.23857626 9.58138699,3 12,3 C14.4186099,3 16,5.23857626 16,8 C16,10.7614237 13.5512436,13 12,13 Z" id="shape"></path>
                </g>
            </g>
        </g>
    </g>
</svg>