<?xml version="1.0" encoding="UTF-8"?>
<svg width="24px" height="24px" viewBox="0 0 24 24" version="1.1" xmlns="http://www.w3.org/2000/svg" xmlns:xlink="http://www.w3.org/1999/xlink">
    <!-- Generator: sketchtool 45.2 (43514) - http://www.bohemiancoding.com/sketch -->
    <title>verified</title>
    <desc>Created with sketchtool.</desc>
    <defs>
        <path d="M4.71036521,15.68214 C4.73316445,15.4697089 4.4975723,15.1550452 4.21047076,14.9058812 C3.4716065,14.2628344 3,13.2794552 3,12.1761408 C3,11.0405193 3.50284991,10.032799 4.2797129,9.39107986 C4.57188094,9.14943942 4.77454085,8.77945515 4.73020899,8.47674076 C4.70192105,8.29882966 4.68883259,8.11560779 4.68883259,7.9288454 C4.68883259,5.9890834 6.14840616,4.41576515 7.94785729,4.41576515 C8.16867216,4.41576515 8.38653156,4.44010622 8.5959468,4.48657553 C8.94891281,4.5626967 9.36605446,4.41399489 9.61684611,4.12367231 C10.2104708,3.43238592 11.0582647,3 11.9997889,3 C12.9434241,3 13.7895292,3.43238592 14.3848427,4.12367231 C14.6339455,4.41399489 15.0510872,4.5626967 15.4040532,4.48657553 C15.6134684,4.44010622 15.8313278,4.41576515 16.0538315,4.41576515 C17.8532827,4.41576515 19.3111674,5.9890834 19.3111674,7.9288454 C19.3111674,8.06028718 19.3044121,8.18995869 19.2913236,8.31785995 C19.2681022,8.53029111 19.5041165,8.84495476 19.7895292,9.0941188 C20.5283935,9.73716562 21,10.7205448 21,11.8234166 C21,12.8368902 20.6010133,13.7459186 19.9643234,14.3871951 C19.6953768,14.6571597 19.5336711,15.0891031 19.5948913,15.4369591 C19.6312012,15.6423092 19.6493561,15.8551829 19.6493561,16.0711546 C19.6493561,18.0109166 18.1897826,19.5842349 16.3920203,19.5842349 C16.0753642,19.5842349 15.7701077,19.5355527 15.4813173,19.4439418 C15.123707,19.3315303 14.7230315,19.4576613 14.4853283,19.7586054 C13.8866371,20.5176042 12.9962001,21 11.9997889,21 C11.0582647,21 10.2104708,20.5676141 9.61684611,19.8763277 C9.36605446,19.5860051 8.94891281,19.4373033 8.5959468,19.5129819 C8.38653156,19.5598938 8.16867216,19.5842349 7.94785729,19.5842349 C6.14840616,19.5842349 4.68883259,18.0109166 4.68883259,16.0711546 C4.68883259,15.9397128 4.69727676,15.8100413 4.71036521,15.68214 Z M15.6884589,9.10819765 C15.5442894,8.96393412 15.3078288,8.96393412 15.1635652,9.10819765 L10.5079415,13.7641033 C10.363678,13.9083668 10.1273114,13.9083668 9.98304786,13.7641033 L8.83636428,12.6175137 C8.69210075,12.4732502 8.45573412,12.4732502 8.3114706,12.6175137 L7.60819765,13.3211626 C7.46393412,13.4654261 7.46393412,13.7017927 7.60819765,13.8460562 L9.98304786,16.2204365 C10.1273114,16.3647001 10.363678,16.3647001 10.5079415,16.2204365 L16.3917319,10.3363643 C16.5360894,10.1920068 16.5360894,9.95573412 16.3917319,9.81137661 L15.6884589,9.10819765 Z" id="path-1"></path>
    </defs>
    <g id="Icons" stroke="none" stroke-width="1" fill-rule="evenodd">
        <g id="MC-icon-set" transform="translate(-168.000000, -312.000000)">
            <g id="Notices" transform="translate(24.000000, 312.000000)">
                <g id="Verified" transform="translate(144.000000, 0.000000)">
                    <mask id="mask-2" fill="white">
                        <use xlink:href="#path-1"></use>
                    </mask>
                    <use id="shape" xlink:href="#path-1"></use>
                </g>
            </g>
        </g>
    </g>
</svg>
