<?xml version="1.0" encoding="UTF-8"?>
<svg width="24px" height="24px" viewBox="0 0 24 24" version="1.1" xmlns="http://www.w3.org/2000/svg" xmlns:xlink="http://www.w3.org/1999/xlink">
    <!-- Generator: sketchtool 45.2 (43514) - http://www.bohemiancoding.com/sketch -->
    <title>warning</title>
    <desc>Created with sketchtool.</desc>
    <defs></defs>
    <g id="Icons" stroke="none" stroke-width="1" fill-rule="evenodd">
        <g id="MC-icon-set" transform="translate(-24.000000, -312.000000)" fill="#000000">
            <g id="Notices" transform="translate(24.000000, 312.000000)">
                <g id="Warning">
                    <path d="M20.6779244,17.8866313 L13.3700148,5.22918789 C12.6176241,3.92360404 11.3834393,3.92360404 10.6298487,5.22918789 L3.32193907,17.8866313 C2.5677484,19.1922152 3.18454077,20.259602 4.69292211,20.259602 L19.3081413,20.259602 C20.8159227,20.259602 21.432115,19.1916152 20.6779244,17.8866313 L20.6779244,17.8866313 Z M12.7172228,17.9358307 C12.5156253,18.1338283 12.2828282,18.233427 12.0056317,18.233427 C11.7236351,18.233427 11.4818381,18.1338283 11.2850406,17.9358307 C11.088843,17.7366332 10.9856443,17.4966361 10.9856443,17.2152396 C10.9856443,16.939843 11.088843,16.702846 11.2850406,16.5036484 C11.4818381,16.3044509 11.7236351,16.2036521 12.0056317,16.2036521 C12.2828282,16.2036521 12.5156253,16.3044509 12.7172228,16.5036484 C12.9134204,16.702846 13.0124192,16.939843 13.0124192,17.2152396 C13.0124192,17.4960361 12.9134204,17.7366332 12.7172228,17.9358307 L12.7172228,17.9358307 Z M12.3589418,15.649859 L11.6408355,15.649859 C10.6786485,11.8756611 10.1999109,9.83600389 10.1999109,9.53766781 C10.1999109,9.17399367 10.3836783,8.88058877 10.7568674,8.65745311 C11.1215749,8.43246826 11.5437687,8.32274962 12.0074278,8.32274962 C12.5050133,8.32274962 12.927207,8.43863223 13.278721,8.679027 C13.6236382,8.91633979 13.7998664,9.19926594 13.7998664,9.52410708 C13.798924,9.83107271 13.3220713,11.8756611 12.3589418,15.649859 L12.3589418,15.649859 Z" id="shape"></path>
                </g>
            </g>
        </g>
    </g>
</svg>