<?xml version="1.0" encoding="UTF-8" standalone="no"?>
<svg width="249px" height="226px" viewBox="0 0 249 226" version="1.1" xmlns="http://www.w3.org/2000/svg" xmlns:xlink="http://www.w3.org/1999/xlink">
    <!-- Generator: Sketch 44.1 (41455) - http://www.bohemiancoding.com/sketch -->
    <title>Group 2</title>
    <desc>Created with Sketch.</desc>
    <defs>
        <rect id="path-1" x="0" y="0" width="250" height="226.69384"></rect>
        <path d="M0.501,1.813 C0.358,2.106 0.286,2.416 0.28,2.721 L0.28,2.816 C0.298,3.617 0.758,4.379 1.535,4.751 C2.223,5.08 18.673,12.858 43.303,16.825 C52.52,18.31 61.656,19.054 70.611,19.054 C75.713,19.054 80.756,18.813 85.721,18.328 C102.849,16.659 119.085,12.088 133.977,4.739 C134.414,4.524 134.747,4.186 134.956,3.788 L134.956,1.752 C134.399,0.69 133.085,0.264 132,0.799 C117.618,7.895 101.931,12.316 85.373,13.939 C72.097,15.241 58.229,14.759 44.156,12.503 C20.128,8.653 3.626,0.864 3.463,0.786 C3.152,0.637 2.824,0.567 2.502,0.567 C1.676,0.567 0.883,1.027 0.501,1.813 Z" id="path-3"></path>
        <path d="M0.833,0.69 C0.655,1.055 0.81,1.493 1.177,1.669 C1.345,1.749 18.123,9.683 42.54,13.616 C51.678,15.088 60.736,15.826 69.611,15.826 C74.665,15.826 79.66,15.587 84.576,15.107 C101.524,13.456 117.587,8.933 132.318,1.665 C132.685,1.485 132.833,1.045 132.651,0.681 C132.469,0.319 132.025,0.171 131.659,0.352 C117.098,7.536 101.219,12.009 84.461,13.645 C71.043,14.955 57.035,14.461 42.824,12.176 C18.606,8.282 1.985,0.427 1.821,0.347 C1.717,0.298 1.608,0.274 1.5,0.274 C1.225,0.274 0.961,0.427 0.833,0.69 Z" id="path-5"></path>
        <rect id="path-7" x="0" y="226" width="248.77451" height="2.45074421" rx="1.22537211"></rect>
    </defs>
    <g id="Final" stroke="none" stroke-width="1" fill="none" fill-rule="evenodd">
        <g id="401---Error-page-----authentication" transform="translate(-445.000000, -188.000000)">
            <g id="Group-2" transform="translate(445.000000, 185.000000)">
                <g id="Group">
                    <g id="Illustration">
                        <g id="Oval-Copy">
                            <mask id="mask-2" fill="white">
                                <use xlink:href="#path-1"></use>
                            </mask>
                            <g id="Mask"></g>
                            <ellipse id="Oval" fill="#F2F2F2" mask="url(#mask-2)" cx="124.387255" cy="126.213327" rx="123.161765" ry="122.537211"></ellipse>
                        </g>
                        <g id="Dimand" transform="translate(23.000000, 60.000000)">
                            <polygon id="Fill-1" fill="#FFFFFF" points="73.424 58.33 131.477 58.33 131.477 1.09 73.424 1.09"></polygon>
                            <path d="M73.831,57.925 L131.072,57.925 L131.072,1.495 L73.831,1.495 L73.831,57.925 Z M73.02,58.736 L131.884,58.736 L131.884,0.683 L73.02,0.683 L73.02,58.736 Z" id="Fill-2" fill="#000000"></path>
                            <g id="Group-62" transform="translate(0.000000, 0.874000)">
                                <path d="M147.1072,165.6453 L57.7952,165.6453 C54.4322,165.6453 51.7062,162.9183 51.7062,159.5553 C51.7062,156.1933 54.4322,153.4663 57.7952,153.4663 L147.1072,153.4663 C150.4702,153.4663 153.1972,156.1933 153.1972,159.5553 C153.1972,162.9183 150.4702,165.6453 147.1072,165.6453 Z" id="Fill-3" fill="#FFFFFF"></path>
                                <path d="M57.7957,153.8729 C54.6617,153.8729 52.1117,156.4219 52.1117,159.5559 C52.1117,162.6899 54.6617,165.2389 57.7957,165.2389 L147.1077,165.2389 C150.2407,165.2389 152.7907,162.6899 152.7907,159.5559 C152.7907,156.4219 150.2407,153.8729 147.1077,153.8729 L57.7957,153.8729 Z M147.1077,166.0519 L57.7957,166.0519 C54.2137,166.0519 51.2997,163.1379 51.2997,159.5559 C51.2997,155.9749 54.2137,153.0609 57.7957,153.0609 L147.1077,153.0609 C150.6897,153.0609 153.6027,155.9749 153.6027,159.5559 C153.6027,163.1379 150.6897,166.0519 147.1077,166.0519 L147.1077,166.0519 Z" id="Fill-5" fill="#000000"></path>
                                <path d="M136.9578,153.4666 L67.9438,153.4666 C64.5818,153.4666 61.8548,150.7396 61.8548,147.3766 C61.8548,144.0136 64.5818,141.2876 67.9438,141.2876 L136.9578,141.2876 C140.3208,141.2876 143.0478,144.0136 143.0478,147.3766 C143.0478,150.7396 140.3208,153.4666 136.9578,153.4666" id="Fill-7" fill="#FFFFFF"></path>
                                <path d="M67.9441,141.6932 C64.8101,141.6932 62.2611,144.2432 62.2611,147.3772 C62.2611,150.5102 64.8101,153.0602 67.9441,153.0602 L136.9581,153.0602 C140.0921,153.0602 142.6411,150.5102 142.6411,147.3772 C142.6411,144.2432 140.0921,141.6932 136.9581,141.6932 L67.9441,141.6932 Z M136.9581,153.8732 L67.9441,153.8732 C64.3631,153.8732 61.4491,150.9592 61.4491,147.3772 C61.4491,143.7962 64.3631,140.8812 67.9441,140.8812 L136.9581,140.8812 C140.5401,140.8812 143.4541,143.7962 143.4541,147.3772 C143.4541,150.9592 140.5401,153.8732 136.9581,153.8732 L136.9581,153.8732 Z" id="Fill-9" fill="#000000"></path>
                                <path d="M135.9431,69.6356 L68.9601,69.6356 C65.5961,69.6356 62.8701,66.9086 62.8701,63.5456 C62.8701,60.1826 65.5961,57.4556 68.9601,57.4556 L135.9431,57.4556 C139.3061,57.4556 142.0331,60.1826 142.0331,63.5456 C142.0331,66.9086 139.3061,69.6356 135.9431,69.6356" id="Fill-11" fill="#FFFFFF"></path>
                                <path d="M68.9597,57.8621 C65.8257,57.8621 63.2757,60.4121 63.2757,63.5461 C63.2757,66.6791 65.8257,69.2291 68.9597,69.2291 L135.9427,69.2291 C139.0767,69.2291 141.6267,66.6791 141.6267,63.5461 C141.6267,60.4121 139.0767,57.8621 135.9427,57.8621 L68.9597,57.8621 Z M135.9427,70.0411 L68.9597,70.0411 C65.3777,70.0411 62.4637,67.1271 62.4637,63.5461 C62.4637,59.9641 65.3777,57.0501 68.9597,57.0501 L135.9427,57.0501 C139.5247,57.0501 142.4387,59.9641 142.4387,63.5461 C142.4387,67.1271 139.5247,70.0411 135.9427,70.0411 L135.9427,70.0411 Z" id="Fill-13" fill="#000000"></path>
                                <path d="M136.6541,141.2879 L68.2491,141.2879 L68.2491,99.6359 C68.2491,83.0659 81.6801,69.6359 98.2491,69.6359 L106.6541,69.6359 C123.2221,69.6359 136.6541,83.0659 136.6541,99.6359 L136.6541,141.2879 Z" id="Fill-15" fill="#FFFFFF"></path>
                                <path d="M74,70 L131,70 L131,70 C134.313708,70 137,72.6862915 137,76 L137,108 L68,108 L68,76 L68,76 C68,72.6862915 70.6862915,70 74,70 Z" id="Rectangle-6" fill="#FFFFFF"></path>
                                <path d="M68.655,140.8817 L136.248,140.8817 L136.248,75.7247 C136.248,72.5907 133.698,70.0407 130.564,70.0407 L74.339,70.0407 C71.205,70.0407 68.655,72.5907 68.655,75.7247 L68.655,140.8817 Z M137.059,141.6937 L67.843,141.6937 L67.843,75.7247 C67.843,72.1437 70.757,69.2297 74.339,69.2297 L130.564,69.2297 C134.146,69.2297 137.059,72.1437 137.059,75.7247 L137.059,141.6937 Z" id="Fill-17" fill="#000000"></path>
                                <polygon id="Fill-19" fill="#00B49F" points="102.3855 46.9012 85.7405 30.4602 85.1315 29.8502 90.8155 21.9342 113.7525 21.7312 119.4365 29.9192"></polygon>
                                <path d="M91.0496,22.1776 L113.8516,22.1776 L118.9356,29.9836 L102.4856,45.9536 L85.9676,29.9826 L91.0496,22.1776 Z M90.5386,21.2366 L84.7916,30.0616 L102.4876,47.3966 L120.1116,30.0616 L114.3616,21.2366 L90.5386,21.2366 Z" id="Fill-21" fill="#000000"></path>
                                <path d="M85.6902,29.8133 C85.4302,29.8033 85.2112,30.0053 85.2012,30.2653 C85.1912,30.5253 85.3942,30.7443 85.6542,30.7543 L85.6902,30.7543 L119.2112,30.7543 C119.4702,30.7643 119.6892,30.5623 119.7002,30.3023 C119.7102,30.0423 119.5072,29.8233 119.2482,29.8133 C119.2352,29.8123 119.2232,29.8123 119.2112,29.8133 L85.6902,29.8133 Z" id="Fill-23" fill="#000000"></path>
                                <polygon id="Fill-25" fill="#000000" points="96.6443 30.074 95.7493 30.368 102.0053 46.283 102.8993 45.989"></polygon>
                                <polygon id="Fill-27" fill="#000000" points="108.241 30.1443 102.004 45.9893 102.899 46.2833 109.137 30.4373"></polygon>
                                <polygon id="Fill-29" fill="#000000" points="102.4509 21.2918 95.3999 30.3738 96.1429 30.9518 102.4509 22.8258 108.7609 30.9518 109.5049 30.3748"></polygon>
                                <polygon id="Fill-31" fill="#000000" points="91.0906 21.3885 90.2946 21.8925 96.0056 30.9155 96.8026 30.4105"></polygon>
                                <polygon id="Fill-33" fill="#000000" points="113.8123 21.3885 108.1003 30.4105 108.8963 30.9155 114.6073 21.8925"></polygon>
                                <polygon id="Fill-35" fill="#FFFFFF" points="95.753 53.599 109.15 53.599 109.15 50.554 95.753 50.554"></polygon>
                                <path d="M96.159,53.193 L108.744,53.193 L108.744,50.961 L96.159,50.961 L96.159,53.193 Z M95.347,54.006 L109.555,54.006 L109.555,50.15 L95.347,50.15 L95.347,54.006 Z" id="Fill-37" fill="#000000"></path>
                                <path d="M109.5554,57.659 L108.7434,57.659 L108.7434,44.669 C108.7434,41.646 111.2014,39.188 114.2244,39.188 L114.2244,40 C111.6504,40 109.5554,42.094 109.5554,44.669 L109.5554,57.659 Z" id="Fill-38" fill="#000000"></path>
                                <path d="M96.1589,57.659 L95.3469,57.659 L95.3469,44.669 C95.3469,42.094 93.2529,40 90.6789,40 L90.6789,39.188 C93.6999,39.188 96.1589,41.646 96.1589,44.669 L96.1589,57.659 Z" id="Fill-39" fill="#000000"></path>
                                <polygon id="Fill-40" fill="#FFFFFF" points="81.174 136.416 83.204 136.416 83.204 75.521 81.174 75.521"></polygon>
                                <path d="M81.58,136.011 L82.798,136.011 L82.798,75.928 L81.58,75.928 L81.58,136.011 Z M80.767,136.822 L83.609,136.822 L83.609,75.116 L80.767,75.116 L80.767,136.822 Z" id="Fill-41" fill="#000000"></path>
                                <polygon id="Fill-42" fill="#FFFFFF" points="122.48 136.416 124.51 136.416 124.51 75.521 122.48 75.521"></polygon>
                                <path d="M122.886,136.011 L124.104,136.011 L124.104,75.928 L122.886,75.928 L122.886,136.011 Z M122.075,136.822 L124.917,136.822 L124.917,75.116 L122.075,75.116 L122.075,136.822 Z" id="Fill-43" fill="#000000"></path>
                                <polygon id="Fill-44" fill="#FFFFFF" points="101.827 136.416 103.857 136.416 103.857 75.521 101.827 75.521"></polygon>
                                <path d="M102.233,136.011 L103.451,136.011 L103.451,75.928 L102.233,75.928 L102.233,136.011 Z M101.421,136.822 L104.262,136.822 L104.262,75.116 L101.421,75.116 L101.421,136.822 Z" id="Fill-45" fill="#000000"></path>
                                <polygon id="Fill-46" fill="#A8DBD5" points="101.0662 0.6209 108.8802 0.6209 73.9672 15.1349 73.9672 11.8869"></polygon>
                                <polygon id="Fill-47" fill="#A8DBD5" points="73.7654 52.1785 73.7654 55.2235 131.0054 31.1695 131.0054 27.9225"></polygon>
                                <polygon id="Fill-48" fill="#A8DBD5" points="73.968 71.055 131.006 71.055 131.006 70.04 73.968 70.04"></polygon>
                                <path d="M190.2751,52.5457 L190.2771,53.3577" id="Fill-49" fill="#E9795C"></path>
                                <path d="M200.0193,165.4031 L160.6413,165.4031 C158.9593,165.4031 157.5963,164.0401 157.5963,162.3581 C157.5963,160.6771 158.9593,159.3141 160.6413,159.3141 L200.0193,159.3141 C201.7013,159.3141 203.0643,160.6771 203.0643,162.3581 C203.0643,164.0401 201.7013,165.4031 200.0193,165.4031" id="Fill-50" fill="#000000"></path>
                                <path d="M159.6257,159.7195 C158.7307,159.7195 158.0027,160.4485 158.0027,161.3435 L158.0027,163.3735 C158.0027,164.2695 158.7307,164.9975 159.6257,164.9975 L201.0347,164.9975 C201.9297,164.9975 202.6577,164.2695 202.6577,163.3735 L202.6577,161.3435 C202.6577,160.4485 201.9297,159.7195 201.0347,159.7195 L159.6257,159.7195 Z M201.0347,165.8095 L159.6257,165.8095 C158.2827,165.8095 157.1897,164.7165 157.1897,163.3735 L157.1897,161.3435 C157.1897,160.0005 158.2827,158.9075 159.6257,158.9075 L201.0347,158.9075 C202.3777,158.9075 203.4707,160.0005 203.4707,161.3435 L203.4707,163.3735 C203.4707,164.7165 202.3777,165.8095 201.0347,165.8095 L201.0347,165.8095 Z" id="Fill-51" fill="#000000"></path>
                                <path d="M184.3904,152.4051 L184.3904,93.9541 L176.2704,93.9541 L176.2704,152.4051 C168.5884,153.1501 162.8734,155.9601 162.8734,159.3141 L197.7864,159.3141 C197.7864,155.9601 192.0724,153.1501 184.3904,152.4051" id="Fill-52" fill="#FFFFFF"></path>
                                <path d="M163.3123,158.908 L197.3483,158.908 C196.8853,156.036 191.5623,153.509 184.3503,152.808 L183.9843,152.773 L183.9843,94.36 L176.6763,94.36 L176.6763,152.773 L176.3103,152.808 C169.0983,153.509 163.7753,156.036 163.3123,158.908 L163.3123,158.908 Z M198.1933,159.72 L162.4673,159.72 L162.4673,159.314 C162.4673,155.847 167.9573,152.878 175.8653,152.038 L175.8653,93.548 L184.7953,93.548 L184.7953,152.038 C192.7043,152.878 198.1933,155.847 198.1933,159.314 L198.1933,159.72 Z" id="Fill-53" fill="#000000"></path>
                                <path d="M171.196,88.2703 C171.196,93.3153 175.286,97.4043 180.33,97.4043 C185.375,97.4043 189.465,93.3153 189.465,88.2703 C189.465,83.2253 185.375,79.1363 180.33,79.1363 C175.286,79.1363 171.196,83.2253 171.196,88.2703" id="Fill-54" fill="#000000"></path>
                                <path d="M180.3298,79.5418 C175.5178,79.5418 171.6018,83.4578 171.6018,88.2708 C171.6018,93.0828 175.5178,96.9988 180.3298,96.9988 C185.1428,96.9988 189.0588,93.0828 189.0588,88.2708 C189.0588,83.4578 185.1428,79.5418 180.3298,79.5418 M180.3298,97.8108 C175.0698,97.8108 170.7898,93.5308 170.7898,88.2708 C170.7898,83.0098 175.0698,78.7298 180.3298,78.7298 C185.5908,78.7298 189.8708,83.0098 189.8708,88.2708 C189.8708,93.5308 185.5908,97.8108 180.3298,97.8108" id="Fill-55" fill="#000000"></path>
                                <path d="M43.7234,165.4031 L4.3454,165.4031 C2.6634,165.4031 1.3004,164.0401 1.3004,162.3581 C1.3004,160.6771 2.6634,159.3141 4.3454,159.3141 L43.7234,159.3141 C45.4054,159.3141 46.7684,160.6771 46.7684,162.3581 C46.7684,164.0401 45.4054,165.4031 43.7234,165.4031" id="Fill-56" fill="#000000"></path>
                                <path d="M3.3298,159.7195 C2.4348,159.7195 1.7068,160.4485 1.7068,161.3435 L1.7068,163.3735 C1.7068,164.2695 2.4348,164.9975 3.3298,164.9975 L44.7388,164.9975 C45.6338,164.9975 46.3618,164.2695 46.3618,163.3735 L46.3618,161.3435 C46.3618,160.4485 45.6338,159.7195 44.7388,159.7195 L3.3298,159.7195 Z M44.7388,165.8095 L3.3298,165.8095 C1.9868,165.8095 0.8938,164.7165 0.8938,163.3735 L0.8938,161.3435 C0.8938,160.0005 1.9868,158.9075 3.3298,158.9075 L44.7388,158.9075 C46.0818,158.9075 47.1748,160.0005 47.1748,161.3435 L47.1748,163.3735 C47.1748,164.7165 46.0818,165.8095 44.7388,165.8095 L44.7388,165.8095 Z" id="Fill-57" fill="#000000"></path>
                                <path d="M28.0945,152.4051 L28.0945,93.9541 L19.9745,93.9541 L19.9745,152.4051 C12.2925,153.1501 6.5775,155.9601 6.5775,159.3141 L41.4905,159.3141 C41.4905,155.9601 35.7765,153.1501 28.0945,152.4051" id="Fill-58" fill="#FFFFFF"></path>
                                <path d="M7.0164,158.908 L41.0524,158.908 C40.5894,156.036 35.2664,153.509 28.0544,152.808 L27.6884,152.773 L27.6884,94.36 L20.3804,94.36 L20.3804,152.773 L20.0144,152.808 C12.8024,153.509 7.4794,156.036 7.0164,158.908 L7.0164,158.908 Z M41.8974,159.72 L6.1714,159.72 L6.1714,159.314 C6.1714,155.847 11.6614,152.878 19.5694,152.038 L19.5694,93.548 L28.4994,93.548 L28.4994,152.038 C36.4084,152.878 41.8974,155.847 41.8974,159.314 L41.8974,159.72 Z" id="Fill-59" fill="#000000"></path>
                                <path d="M14.9001,88.2703 C14.9001,93.3153 18.9901,97.4043 24.0351,97.4043 C29.0791,97.4043 33.1691,93.3153 33.1691,88.2703 C33.1691,83.2253 29.0791,79.1363 24.0351,79.1363 C18.9901,79.1363 14.9001,83.2253 14.9001,88.2703" id="Fill-60" fill="#000000"></path>
                                <path d="M24.0349,79.5418 C19.2219,79.5418 15.3059,83.4578 15.3059,88.2708 C15.3059,93.0828 19.2219,96.9988 24.0349,96.9988 C28.8469,96.9988 32.7629,93.0828 32.7629,88.2708 C32.7629,83.4578 28.8469,79.5418 24.0349,79.5418 M24.0349,97.8108 C18.7739,97.8108 14.4939,93.5308 14.4939,88.2708 C14.4939,83.0098 18.7739,78.7298 24.0349,78.7298 C29.2949,78.7298 33.5749,83.0098 33.5749,88.2708 C33.5749,93.5308 29.2949,97.8108 24.0349,97.8108" id="Fill-61" fill="#000000"></path>
                            </g>
                            <g id="Group-65" transform="translate(35.000000, 96.874000)">
                                <mask id="mask-4" fill="white">
                                    <use xlink:href="#path-3"></use>
                                </mask>
                                <g id="Clip-64"></g>
                                <polygon id="Fill-63" fill="#00B49F" mask="url(#mask-4)" points="-3.105 22.414 138.592 22.414 138.592 -2.793 -3.105 -2.793"></polygon>
                            </g>
                            <g id="Group-68" transform="translate(36.000000, 96.874000)">
                                <mask id="mask-6" fill="white">
                                    <use xlink:href="#path-5"></use>
                                </mask>
                                <g id="Clip-67"></g>
                                <polygon id="Fill-66" fill="#A8DBD5" mask="url(#mask-6)" points="-2.624 19.186 136.112 19.186 136.112 -3.086 -2.624 -3.086"></polygon>
                            </g>
                        </g>
                    </g>
                    <g id="Rectangle-4">
                        <use fill="#000000" fill-rule="evenodd" xlink:href="#path-7"></use>
                        <rect stroke="#000000" stroke-width="1" x="0.5" y="226.5" width="247.77451" height="1.45074421" rx="0.725372106"></rect>
                    </g>
                </g>
            </g>
        </g>
    </g>
</svg>