<?xml version="1.0" encoding="UTF-8" standalone="no"?>
<svg width="205px" height="186px" viewBox="0 0 205 186" version="1.1" xmlns="http://www.w3.org/2000/svg" xmlns:xlink="http://www.w3.org/1999/xlink">
    <!-- Generator: Sketch 45.1 (43504) - http://www.bohemiancoding.com/sketch -->
    <title>Illustration</title>
    <desc>Created with Sketch.</desc>
    <defs>
        <rect id="path-1" x="0" y="0" width="205.416" height="186.266167"></rect>
        <rect id="path-3" x="0" y="186.266167" width="204.409059" height="2.01368829" rx="1.00684415"></rect>
        <polygon id="path-4" points="0 164.1491 176.995618 164.1491 176.995618 0.196034177 0 0.196034177"></polygon>
    </defs>
    <g id="403" stroke="none" stroke-width="1" fill="none" fill-rule="evenodd">
        <g id="Artboard" transform="translate(0.000000, -3.000000)">
            <g id="Illustration">
                <g id="Oval-Copy">
                    <mask id="mask-2" fill="white">
                        <use xlink:href="#path-1"></use>
                    </mask>
                    <g id="Mask"></g>
                    <ellipse id="Oval" fill="#F2F2F2" mask="url(#mask-2)" cx="102.204529" cy="103.704947" rx="101.197588" ry="100.684415"></ellipse>
                </g>
                <g id="Rectangle-4">
                    <use fill="#000000" fill-rule="evenodd" xlink:href="#path-3"></use>
                    <rect stroke="#000000" stroke-width="1" x="0.5" y="186.766167" width="203.409059" height="1.01368829" rx="0.506844145"></rect>
                </g>
                <g id="Page-1" transform="translate(16.111059, 23.157415)">
                    <polygon id="Fill-1" fill="#A8DBD5" points="131.494671 74.6058842 133.863944 74.8420699 133.863944 25.9516185 131.494671 24.7706897"></polygon>
                    <g id="Group-159" transform="translate(0.000000, 0.040152)">
                        <path d="M149.849598,47.6405564 C153.451841,47.6405564 156.37197,50.5515459 156.37197,54.1425141 L152.023643,133.251044 C152.023643,136.842012 149.10375,139.753001 145.501033,139.753001 L20.052274,139.753001 C16.4502677,139.753001 13.5299013,136.842012 13.5299013,133.251044 L9.18157395,54.1425141 C9.18157395,50.5515459 12.1017034,47.6405564 15.7041835,47.6405564 L24.6403718,47.6405564 L24.6403718,42.6560922 C24.6403718,39.4085381 27.2814008,36.7760117 30.5393886,36.7760117 L60.2038756,36.7760117 C63.4618634,36.7760117 66.1026555,39.4085381 66.1026555,42.6560922 L66.1026555,47.6405564 L149.849598,47.6405564 Z" id="Fill-2" fill="#A8DBD5"></path>
                        <path d="M9.65547601,54.1299018 L14.0038034,133.237959 L14.0038034,133.250949 C14.0038034,136.575736 16.7170952,139.280535 20.0523213,139.280535 L145.501081,139.280535 C148.836307,139.280535 151.549836,136.575736 151.549836,133.250949 L151.550309,133.225205 L155.898163,54.1299018 C155.891292,50.8110195 153.18037,48.1128335 149.849645,48.1128335 L65.6288482,48.1128335 L65.6288482,42.656234 C65.6288482,39.6743888 63.1953675,37.2482887 60.203923,37.2482887 L30.539436,37.2482887 C27.5479914,37.2482887 25.1142739,39.6743888 25.1142739,42.656234 L25.1142739,48.1128335 L15.7039939,48.1128335 C12.3732695,48.1128335 9.6623469,50.8110195 9.65547601,54.1299018 M145.501081,140.225278 L20.0523213,140.225278 C16.1989352,140.225278 13.0632019,137.103847 13.056094,133.264175 L8.70776666,54.1554098 L8.70776666,54.1426558 C8.70776666,50.2968432 11.8463431,47.1680904 15.7039939,47.1680904 L24.1665645,47.1680904 L24.1665645,42.656234 C24.1665645,39.153363 27.0253297,36.3035457 30.539436,36.3035457 L60.203923,36.3035457 C63.7177923,36.3035457 66.5765575,39.153363 66.5765575,42.656234 L66.5765575,47.1680904 L149.849645,47.1680904 C153.707296,47.1680904 156.845872,50.2968432 156.845872,54.1426558 L156.845162,54.1684001 L152.497545,133.264175 C152.489963,137.103847 149.354467,140.225278 145.501081,140.225278" id="Fill-4" fill="#000000"></path>
                        <path d="M132.864395,132.085727 L71.9892336,105.213456 C68.3997845,103.629122 66.7784907,99.4439104 68.3680362,95.8656962 L102.039912,20.0640036 C103.629221,16.4860256 107.827573,14.8698064 111.417022,16.4541405 L172.292184,43.326411 C175.881396,44.9109813 177.50269,49.0959567 175.913145,52.6741709 L142.241269,128.475864 C140.65196,132.054078 136.453608,133.670297 132.864395,132.085727" id="Fill-6" fill="#FFFFFF"></path>
                        <path d="M108.54859,16.3198925 C106.002095,16.3198925 103.568852,17.7889679 102.4733,20.2552196 L68.8014237,96.0571484 C68.0837708,97.6721866 68.0401762,99.469324 68.6786953,101.116956 C69.3169776,102.76506 70.5608461,104.066444 72.1811921,104.781378 L133.056117,131.653648 C134.6767,132.369527 136.479717,132.412749 138.132048,131.776229 C139.785327,131.139944 141.090797,129.899969 141.807976,128.284695 L175.479852,52.4830021 C176.961122,49.1487678 175.445024,45.2349337 172.10032,43.7585365 L111.225159,16.8860298 C110.354687,16.5019917 109.444413,16.3198925 108.54859,16.3198925 M135.74003,133.169016 C134.696365,133.169016 133.655306,132.951253 132.672532,132.517852 L71.7976068,105.645345 C69.9455458,104.827906 68.5239818,103.340645 67.7944825,101.457536 C67.0649832,99.5741905 67.114738,97.5205553 67.9347435,95.6745275 L101.606619,19.8728348 C103.299465,16.06245 107.785684,14.3349874 111.608744,16.0220623 L172.484143,42.894569 C176.306491,44.5821162 178.039141,49.0550021 176.346532,52.8653869 L142.674656,128.66708 C141.854651,130.513107 140.362719,131.930222 138.473697,132.657438 C137.587115,132.998962 136.662625,133.169016 135.74003,133.169016" id="Fill-8" fill="#000000"></path>
                        <path d="M152.745252,82.2263231 L95.5528891,56.9794829 C94.356643,56.4513716 93.8159748,55.0564585 94.3459813,53.8637204 L107.488341,24.2772032 C108.018347,23.0847013 109.41764,22.5457254 110.614123,23.0740729 L167.806249,48.3204407 C169.002732,48.8487883 169.543164,50.2439375 169.013394,51.4366756 L155.870798,81.0229567 C155.341028,82.2156947 153.941736,82.7541983 152.745252,82.2263231" id="Fill-10" fill="#FFFFFF"></path>
                        <path d="M152.937069,81.7943157 C153.892834,82.2156711 155.014448,81.7843959 155.4376,80.8318588 L168.579959,51.2453415 C168.785138,50.7838346 168.797459,50.2703667 168.615261,49.7994123 C168.432827,49.3286941 168.077436,48.9569377 167.61448,48.7526371 L110.422354,23.5060331 C109.959398,23.3014962 109.444555,23.2894507 108.972122,23.4710776 C108.499689,23.6527044 108.126765,24.0069831 107.921823,24.46849 L94.7792266,54.0550073 C94.5742845,54.5165142 94.5617273,55.0299821 94.7441614,55.5007003 C94.9263585,55.9714185 95.2817495,56.3431749 95.7447055,56.5474756 L152.937069,81.7943157 Z M153.700449,82.900846 C153.316389,82.900846 152.926407,82.8226685 152.553483,82.6582832 L95.3611201,57.4116792 C94.666923,57.1051101 94.1338365,56.5470032 93.8599485,55.841044 C93.5865344,55.1348486 93.6050147,54.3646468 93.9125464,53.6726225 L107.055143,24.0861053 C107.362674,23.3938448 107.922297,22.8624269 108.630472,22.5896323 C109.338885,22.3168378 110.111742,22.3357326 110.805939,22.6420656 L167.998066,47.8884334 C168.6925,48.1950025 169.225586,48.7528732 169.499237,49.4593048 C169.772888,50.1655003 169.754171,50.935702 169.446876,51.6277263 L156.30428,81.2142435 C155.834453,82.271411 154.791499,82.900846 153.700449,82.900846 L153.700449,82.900846 Z" id="Fill-12" fill="#000000"></path>
                        <path d="M133.942604,124.554306 L123.327312,119.868381 C122.130829,119.340269 121.590398,117.94512 122.120404,116.752382 L136.893771,83.4945934 C137.423541,82.3018553 138.823071,81.7631156 140.019317,82.2914631 L150.634609,86.9771523 C151.831092,87.5054999 152.371523,88.9006491 151.841754,90.0933872 L137.06815,123.35094 C136.538617,124.543678 135.139087,125.082417 133.942604,124.554306" id="Fill-14" fill="#FFFFFF"></path>
                        <path d="M139.060851,82.560526 C138.830084,82.560526 138.599079,82.6030394 138.377315,82.6883024 C137.905119,82.8701655 137.532196,83.2244441 137.327253,83.6859511 L122.553649,116.943504 C122.348707,117.405011 122.33615,117.918478 122.518584,118.389433 C122.700781,118.860151 123.056409,119.232144 123.519128,119.436444 L134.134421,124.12237 C134.597614,124.326906 135.112694,124.338952 135.584653,124.157325 C136.057086,123.975698 136.43001,123.62142 136.634952,123.159913 L151.408319,89.902124 C151.613261,89.440617 151.625818,88.9271492 151.443621,88.4561948 C151.261187,87.9854766 150.905559,87.6137202 150.44284,87.4091833 L139.827548,82.7232579 C139.581854,82.6146125 139.321708,82.560526 139.060851,82.560526 M134.900881,125.230553 C134.509714,125.230553 134.119257,125.148833 133.750835,124.986337 L123.135543,120.300412 C122.441346,119.993843 121.908259,119.435972 121.634371,118.729776 C121.360957,118.023345 121.379438,117.253379 121.686969,116.561119 L136.460336,83.3035663 C136.767868,82.6113059 137.327727,82.0798879 138.035903,81.8070934 C138.744553,81.5342988 139.51741,81.5527213 140.211133,81.8592904 L150.826425,86.5452158 C151.520859,86.8517849 152.053946,87.4096557 152.327597,88.1158511 C152.601011,88.8222827 152.582531,89.5922483 152.274999,90.2845087 L137.501632,123.542297 C137.1941,124.234322 136.634715,124.76574 135.926302,125.03877 C135.593656,125.166783 135.247031,125.230553 134.900881,125.230553" id="Fill-16" fill="#000000"></path>
                        <path d="M125.916478,77.8739392 L90.8211422,62.381807 C90.7014939,62.3291375 90.6474745,62.1895518 90.7003093,62.0702779 C90.753381,61.9510041 90.8934051,61.8969176 91.0130534,61.9498232 L126.108389,77.4421917 C126.2278,77.4950973 126.282057,77.6342107 126.228985,77.7537207 C126.17615,77.8729945 126.036126,77.9268448 125.916478,77.8739392" id="Fill-18" fill="#FFFFFF"></path>
                        <path d="M126.108271,77.4419327 L126.108271,77.4419327 C126.108034,77.4419327 126.10756,77.4416957 126.107323,77.4416957 L126.108271,77.4419327 Z M126.011367,78.3665991 C125.915648,78.3665991 125.817797,78.3469957 125.724685,78.3058994 L90.6293496,62.8137671 C90.2708785,62.6555226 90.1083463,62.2360567 90.2670877,61.8789439 C90.344089,61.7060559 90.4838762,61.5730833 90.6608609,61.5048256 C90.8380825,61.4363318 91.0309414,61.4410555 91.204846,61.5178158 L126.300181,77.0101843 C126.658179,77.1684288 126.820948,77.5876585 126.662443,77.9447713 C126.544927,78.2090632 126.284307,78.3665991 126.011367,78.3665991 L126.011367,78.3665991 Z" id="Fill-20" fill="#000000"></path>
                        <path d="M121.95927,86.7823463 L86.8639345,71.2899779 C86.7442862,71.2373084 86.6905037,71.0977227 86.7433385,70.9784489 C86.7964102,70.8591751 86.9361973,70.8053247 87.0558456,70.8582303 L122.151181,86.3503626 C122.270592,86.4032682 122.324849,86.5426178 122.271777,86.6618916 C122.218942,86.7811654 122.078918,86.8352519 121.95927,86.7823463" id="Fill-22" fill="#FFFFFF"></path>
                        <path d="M122.151087,86.3503398 L122.151087,86.3503398 C122.15085,86.3503398 122.150613,86.3501028 122.150139,86.3501028 L122.151087,86.3503398 Z M122.054894,87.2752424 C121.95728,87.2752424 121.859666,87.2549304 121.767501,87.2143065 L86.6721655,71.721938 C86.3136944,71.5639297 86.1513992,71.1442276 86.3101405,70.7871148 C86.4688818,70.4297657 86.8891909,70.2684509 87.247662,70.4262229 L122.342997,85.9183552 C122.701232,86.0768359 122.864001,86.4960656 122.705259,86.8531784 C122.628258,87.0260664 122.488471,87.159039 122.311486,87.2272967 C122.228088,87.2594179 122.141372,87.2752424 122.054894,87.2752424 L122.054894,87.2752424 Z" id="Fill-24" fill="#000000"></path>
                        <path d="M118.002086,95.6907534 L82.9067504,80.198385 C82.7871021,80.1457155 82.7333196,80.0061298 82.7861544,79.886856 C82.8392262,79.7675822 82.9790133,79.7137318 83.0988985,79.7664012 L118.193997,95.2587697 C118.313408,95.3116753 118.367665,95.4510249 118.314593,95.5702987 C118.261758,95.6895725 118.121734,95.743659 118.002086,95.6907534" id="Fill-26" fill="#FFFFFF"></path>
                        <path d="M118.193879,95.2587469 L118.193879,95.2587469 C118.193642,95.2587469 118.193405,95.2585099 118.192931,95.2585099 L118.193879,95.2587469 Z M118.097686,96.1836495 C118.000072,96.1836495 117.902458,96.1633375 117.810293,96.1227136 L82.7149578,80.6303451 C82.54129,80.5535847 82.4078999,80.4139989 82.3396649,80.237332 C82.2714298,80.0609012 82.2759314,79.8684099 82.3529328,79.6955219 C82.5116741,79.3381728 82.9319832,79.1761494 83.2904543,79.3343939 L118.38579,94.8267623 C118.744024,94.985243 118.906793,95.4044727 118.748052,95.7615855 C118.67105,95.9344735 118.531263,96.0674461 118.354278,96.1357038 C118.27088,96.167825 118.184165,96.1836495 118.097686,96.1836495 L118.097686,96.1836495 Z" id="Fill-28" fill="#000000"></path>
                        <path d="M114.044878,104.598924 L78.9497796,89.1067921 C78.8298944,89.0541226 78.7761119,88.9145369 78.8289467,88.7952631 C78.8820184,88.6759893 79.0220425,88.6219027 79.1416908,88.6748083 L114.236789,104.167177 C114.356438,104.220082 114.410457,104.359196 114.357385,104.478706 C114.30455,104.59798 114.164526,104.65183 114.044878,104.598924" id="Fill-30" fill="#FFFFFF"></path>
                        <path d="M114.236695,104.166918 L114.236695,104.166918 C114.236458,104.166918 114.236221,104.166681 114.235747,104.166681 L114.236695,104.166918 Z M114.140739,105.09182 C114.042888,105.09182 113.945274,105.071508 113.853109,105.030884 L78.7580106,89.5387522 C78.5843429,89.462228 78.4509528,89.3226422 78.3824808,89.1459753 C78.3142457,88.9695445 78.3187474,88.7770531 78.3957487,88.603929 C78.4727501,88.431041 78.6125373,88.2980684 78.789522,88.2298107 C78.9665067,88.1613169 79.1596025,88.1660406 79.3335071,88.242801 L114.428606,103.735169 C114.786603,103.893178 114.949372,104.312407 114.790868,104.669756 C114.713866,104.843117 114.573842,104.976089 114.39662,105.044111 C114.313459,105.075996 114.22698,105.09182 114.140739,105.09182 L114.140739,105.09182 Z" id="Fill-32" fill="#000000"></path>
                        <path d="M110.087694,113.507331 L74.9925956,98.014963 C74.8729473,97.9622936 74.8189278,97.8227078 74.8717626,97.703434 C74.9248344,97.5841602 75.0648584,97.5303098 75.1845067,97.5832154 L110.279842,113.075348 C110.399254,113.128253 110.453273,113.267603 110.400201,113.386877 C110.347366,113.506151 110.207342,113.560237 110.087694,113.507331" id="Fill-34" fill="#FFFFFF"></path>
                        <path d="M110.279487,113.075325 L110.279487,113.075325 C110.27925,113.075325 110.279013,113.075088 110.278539,113.075088 L110.279487,113.075325 Z M110.183294,114.000228 C110.08568,114.000228 109.988066,113.979916 109.895901,113.939292 L74.8008029,98.4469231 C74.4423318,98.2886787 74.2797997,97.8692128 74.438541,97.5120999 C74.5155424,97.3389757 74.6555664,97.2062393 74.8327881,97.1379817 C75.0100097,97.0699602 75.2026317,97.0746839 75.3762994,97.1512081 L110.471635,112.64334 C110.645303,112.720101 110.778456,112.859686 110.846928,113.036353 C110.915163,113.212784 110.910424,113.405276 110.83366,113.578164 C110.756658,113.751052 110.616871,113.884024 110.439887,113.952282 C110.356488,113.984403 110.269773,114.000228 110.183294,114.000228 L110.183294,114.000228 Z" id="Fill-36" fill="#000000"></path>
                        <path d="M110.406977,29.9568329 C109.612323,31.74594 110.422851,33.8385458 112.217576,34.6307128 C114.012301,35.423116 116.11124,34.6148884 116.906131,32.8257813 C117.700785,31.0366742 116.89002,28.9443046 115.095532,28.1519014 C113.300808,27.3597343 111.201632,28.167962 110.406977,29.9568329" id="Fill-38" fill="#FFFFFF"></path>
                        <path d="M110.840341,30.1480489 C110.152778,31.6962465 110.856452,33.5132235 112.409274,34.1986346 C113.96257,34.884518 115.785252,34.182574 116.472578,32.6346125 C117.160378,31.0866511 116.456467,29.2694379 114.903645,28.5840268 C113.350823,27.8979072 111.527904,28.6003236 110.840341,30.1480489 M113.650536,35.4064886 C113.106551,35.4064886 112.554037,35.2959536 112.025689,35.0628383 C109.994984,34.1662772 109.074522,31.7897761 109.973661,29.7656642 C110.873274,27.7415522 113.257,26.8244429 115.287467,27.7200593 C117.318171,28.6166205 118.238634,30.9928853 117.339495,33.0169973 C116.673966,34.514415 115.196724,35.4064886 113.650536,35.4064886" id="Fill-40" fill="#000000"></path>
                        <polygon id="Fill-42" fill="#FFFFFF" points="133.959497 64.3763012 117.733292 57.2134958 130.547033 50.21295 143.360774 43.2124042 146.773238 57.3757554 150.185703 71.5391066"></polygon>
                        <path d="M118.801479,57.1684788 L149.501101,70.7203451 L143.044594,43.923654 L118.801479,57.1684788 Z M150.870541,72.3580571 L116.664868,57.2584655 L143.676717,42.500871 L150.870541,72.3580571 Z" id="Fill-44" fill="#000000"></path>
                        <polygon id="Fill-46" fill="#FFFFFF" points="118.107353 62.5447043 104.152096 56.3845074 114.823066 51.1501587 125.494036 45.9160461 128.778086 57.3105917 132.062373 68.7049012"></polygon>
                        <path d="M105.271175,56.3619044 L131.327021,67.8636783 L125.195105,46.5890102 L105.271175,56.3619044 Z M132.798103,69.5462657 L103.032922,56.4070159 L125.792873,45.2429876 L132.798103,69.5462657 Z" id="Fill-48" fill="#000000"></path>
                        <path d="M124.584212,97.7972706 L58.0076303,97.7408222 C54.0822182,97.7375156 50.9026534,94.5624705 50.9057334,90.6491087 L50.9765747,7.74790839 C50.9801286,3.83478279 54.1649058,0.665169944 58.0907918,0.668476545 L124.667136,0.72492494 C128.592785,0.728467727 131.77235,3.90327666 131.768796,7.81663844 L131.697955,90.7176025 C131.694875,94.6312005 128.509624,97.8008134 124.584212,97.7972706" id="Fill-50" fill="#FFFFFF"></path>
                        <path d="M58.0846791,1.14080082 C54.4291272,1.14080082 51.4537937,4.10375113 51.4504768,7.74856971 L51.3796355,90.64977 C51.3767923,94.2962419 54.3499935,97.265333 58.0081515,97.2684034 L124.584733,97.3248518 L124.590656,97.3248518 C126.360503,97.3248518 128.024444,96.6387322 129.277079,95.3921438 C130.531135,94.1439021 131.222726,92.4837524 131.224147,90.7173191 L131.294989,7.81635502 C131.296647,6.04968557 130.608136,4.38835496 129.355975,3.13822376 C128.104051,1.88809255 126.438689,1.19890252 124.666473,1.19724921 L58.0901284,1.14080082 L58.0846791,1.14080082 Z M124.590656,98.2695948 L124.583785,98.2695948 L58.0072038,98.2131465 C55.9821859,98.2114932 54.0789486,97.4235775 52.6481444,95.9948898 C51.2173403,94.5664384 50.4302676,92.6677411 50.4319261,90.6488253 L50.5027674,7.74762497 C50.5065582,3.58248916 53.9074132,0.196057796 58.0846791,0.196057796 L58.0910761,0.196057796 L124.66742,0.252506192 C126.692675,0.254395678 128.595913,1.04207517 130.026717,2.470999 C131.457521,3.89968663 132.244594,5.79838392 132.242698,7.81729976 L132.171857,90.7182639 C132.170198,92.7369435 131.379809,94.6344599 129.946872,96.0607857 C128.515357,97.485222 126.613068,98.2695948 124.590656,98.2695948 L124.590656,98.2695948 Z" id="Fill-52" fill="#000000"></path>
                        <path d="M122.556919,44.1814979 L60.0081026,44.1283561 C58.6997898,44.1274114 57.6397769,43.0688268 57.6409616,41.7646091 L57.6684451,9.40716056 C57.6696298,8.10247045 58.7313012,7.04624775 60.0398508,7.04719249 L122.588667,7.10033428 C123.89698,7.10151521 124.956993,8.1596274 124.955808,9.46408133 L124.928325,41.8215299 C124.92714,43.1259838 123.865232,44.1824427 122.556919,44.1814979" id="Fill-54" fill="#FFFFFF"></path>
                        <path d="M122.557132,43.7091264 L122.558554,43.7091264 C123.603167,43.7091264 124.453499,42.8624005 124.454446,41.8210575 L124.48193,9.46360896 C124.482878,8.42202977 123.633256,7.57365054 122.58817,7.5727058 L60.0393533,7.519564 L60.0376948,7.519564 C59.5318549,7.519564 59.0565787,7.71559818 58.6988184,8.0717663 C58.3403474,8.42840679 58.14275,8.90266779 58.1422761,9.40763293 L58.1147925,41.7650815 C58.1138448,42.8068968 58.9634662,43.6550399 60.0085527,43.6559846 L122.557369,43.7091264 L122.557132,43.7091264 Z M122.558554,44.6538695 L122.556658,44.6538695 L122.556422,44.6538695 L60.007605,44.6007277 C58.4400938,44.5995467 57.1656616,43.3269779 57.1670832,41.7641367 L57.1945668,9.40668819 C57.1952775,8.64971284 57.4916736,7.93808516 58.0290248,7.40312442 C58.5659022,6.86910843 59.2792904,6.57482098 60.0376948,6.57482098 L60.040301,6.57482098 L122.589118,6.62796277 C124.156629,6.62937989 125.431061,7.90194874 125.429639,9.4645537 L125.402156,41.8220022 C125.400734,43.3838986 124.125117,44.6538695 122.558554,44.6538695 L122.558554,44.6538695 Z" id="Fill-56" fill="#000000"></path>
                        <path d="M122.517352,90.4739061 L110.907913,90.4639863 C109.5996,90.4628053 108.539587,89.4046932 108.540772,88.100003 L108.571809,51.7273967 C108.572994,50.4231789 109.634665,49.3664838 110.942978,49.3676648 L122.552417,49.3775846 C123.860967,49.3785293 124.92098,50.4368777 124.919795,51.7413316 L124.888758,88.113938 C124.887573,89.4183919 123.825902,90.4748508 122.517352,90.4739061" id="Fill-58" fill="#FFFFFF"></path>
                        <path d="M122.517589,90.0015346 L122.519011,90.0015346 C123.563623,90.0015346 124.413956,89.1548086 124.414903,88.1134656 L124.445941,51.7408592 C124.446415,51.2361303 124.249765,50.7613969 123.892005,50.4045202 C123.534244,50.0471712 123.058257,49.8504285 122.552181,49.8499561 L110.942741,49.8400363 L110.941083,49.8400363 C109.89647,49.8400363 109.046612,50.686526 109.045664,51.727869 L109.014626,88.1004754 C109.013679,89.1422908 109.8633,89.99067 110.908387,89.9916148 L122.517826,90.0015346 L122.517589,90.0015346 Z M122.519011,90.9462776 L122.517115,90.9462776 L110.907439,90.9363578 C109.339928,90.9349407 108.065496,89.6623718 108.066917,88.0995307 L108.097955,51.7269243 C108.099376,50.1650279 109.374282,48.8952933 110.941083,48.8952933 L110.943452,48.8952933 L122.552891,48.9052131 C123.312243,48.9056854 124.025869,49.2011538 124.562509,49.7368231 C125.099149,50.2727286 125.394361,50.9848286 125.39365,51.741804 L125.362613,88.1144104 C125.361191,89.6763068 124.085574,90.9462776 122.519011,90.9462776 L122.519011,90.9462776 Z" id="Fill-60" fill="#000000"></path>
                        <path d="M96.2522038,51.5757172 L57.8699755,51.506513 C57.7389547,51.5060115 57.6330482,51.2813486 57.6332851,51.0045317 C57.6332851,50.7277149 57.7394286,50.5030519 57.8704494,50.5035534 L96.2526777,50.5727576 C96.3834616,50.5727576 96.4893681,50.7974205 96.4893681,51.0747389 C96.4891312,51.3515558 96.3829877,51.5757172 96.2522038,51.5757172" id="Fill-62" fill="#FFFFFF"></path>
                        <path d="M96.2522038,51.4808896 L96.25173,51.4808896 L57.8695017,51.4482959 C57.679249,51.4480598 57.5010797,51.3741336 57.3669788,51.2402163 C57.2328779,51.1060628 57.1591935,50.9279787 57.1594304,50.7385578 C57.1594304,50.5503177 57.2333518,50.3722336 57.3679265,50.2383163 C57.5020274,50.1048714 57.6804336,50.0311814 57.8699755,50.0311814 L57.8713971,50.0311814 L96.2531516,50.063775 C96.6443186,50.063775 96.9632228,50.3819173 96.9632228,50.7725685 C96.962512,51.1634559 96.6433709,51.4808896 96.2522038,51.4808896" id="Fill-64" fill="#000000"></path>
                        <path d="M96.243864,61.3183797 L57.8616357,61.2491754 C57.7306149,61.248674 57.6247083,61.024011 57.6249453,60.7471941 C57.6249453,60.4703773 57.7310887,60.2457143 57.8621095,60.2462158 L96.2443379,60.31542 C96.3751217,60.31542 96.4810283,60.540083 96.4810283,60.8174013 C96.4807913,61.0942182 96.3746479,61.3183797 96.243864,61.3183797" id="Fill-66" fill="#FFFFFF"></path>
                        <path d="M96.243864,61.223552 L96.2433901,61.223552 L57.8611618,61.1909584 C57.6709092,61.1907222 57.4927398,61.116796 57.3586389,60.9828787 C57.2245381,60.8487252 57.1508537,60.6706412 57.1510906,60.4812202 C57.1510906,60.2929801 57.2250119,60.1148961 57.3595867,59.9809787 C57.4936875,59.8475338 57.6720938,59.7738438 57.8616357,59.7738438 L57.8630572,59.7738438 L96.2448117,59.8064375 C96.6359787,59.8064375 96.9548829,60.1245797 96.9548829,60.5152309 C96.9541722,60.9061184 96.635031,61.223552 96.243864,61.223552" id="Fill-68" fill="#000000"></path>
                        <path d="M96.2355242,71.0610421 L57.8532958,70.9918379 C57.722275,70.9913364 57.6163685,70.7666734 57.6166054,70.4898566 C57.6166054,70.2130397 57.7227489,69.9883767 57.8537697,69.9888782 L96.235998,70.0580824 C96.3667819,70.0580824 96.4726884,70.2827454 96.4726884,70.5600637 C96.4724515,70.8368806 96.366308,71.0610421 96.2355242,71.0610421" id="Fill-70" fill="#FFFFFF"></path>
                        <path d="M96.2355242,70.9662144 L96.2350503,70.9662144 L57.852822,70.9336208 C57.6625693,70.9333846 57.4844,70.8594585 57.3502991,70.7255412 C57.2161982,70.5913876 57.1425138,70.4133036 57.1427508,70.2238826 C57.1427508,70.0356426 57.2166721,69.8575585 57.3512468,69.7236412 C57.4853477,69.5901962 57.663754,69.5165063 57.8532958,69.5165063 L57.8547174,69.5165063 L96.2364719,69.5490999 C96.6276389,69.5490999 96.9465431,69.8672421 96.9465431,70.2578934 C96.9458323,70.6487808 96.6266912,70.9662144 96.2355242,70.9662144" id="Fill-72" fill="#000000"></path>
                        <path d="M96.227208,80.8037045 L57.8449797,80.7345003 C57.7139589,80.7339988 57.6080523,80.5093359 57.6082893,80.232519 C57.6082893,79.9557021 57.7144327,79.7310392 57.8454535,79.7315406 L96.2276819,79.8007449 C96.3584658,79.8007449 96.4643723,80.0254078 96.4643723,80.3027262 C96.4641353,80.579543 96.3579919,80.8037045 96.227208,80.8037045" id="Fill-74" fill="#FFFFFF"></path>
                        <path d="M96.227208,80.7088769 L96.2267342,80.7088769 L57.8445058,80.6762832 C57.6542532,80.676047 57.4760838,80.6021209 57.3419829,80.4682036 C57.2078821,80.3340501 57.1341977,80.155966 57.1344346,79.966545 C57.1344346,79.778305 57.2083559,79.6002209 57.3429307,79.4663036 C57.4770315,79.3328586 57.6554378,79.2591687 57.8449797,79.2591687 L57.8464012,79.2591687 L96.2281557,79.2917623 C96.6193228,79.2917623 96.9382269,79.6099045 96.9382269,80.0005558 C96.9375162,80.3914432 96.618375,80.7088769 96.227208,80.7088769" id="Fill-76" fill="#000000"></path>
                        <path d="M96.2188682,90.5463669 L57.8366398,90.4771627 C57.705856,90.4766612 57.5997125,90.2519983 57.5999494,89.9751814 C57.5999494,89.6983646 57.7060929,89.4737016 57.8371137,89.4742031 L96.219342,89.5434073 C96.3501259,89.5434073 96.4560324,89.7680703 96.4560324,90.0453886 C96.4557955,90.3222055 96.349889,90.5463669 96.2188682,90.5463669" id="Fill-78" fill="#FFFFFF"></path>
                        <path d="M96.2188682,90.4515393 L96.2183943,90.4515393 L57.836166,90.4189457 C57.6461503,90.4187095 57.467744,90.3447833 57.33388,90.210866 C57.1997792,90.0769487 57.1258578,89.8986284 57.1260948,89.7092075 C57.1260948,89.5209674 57.2000161,89.3428834 57.3345908,89.208966 C57.4686917,89.0755211 57.647098,89.0018311 57.8366398,89.0018311 L57.8380614,89.0018311 L96.2198159,89.0344248 C96.6109829,89.0344248 96.9298871,89.352567 96.9298871,89.7432182 C96.9291763,90.1341056 96.6100352,90.4515393 96.2188682,90.4515393" id="Fill-80" fill="#000000"></path>
                        <path d="M62.6404363,13.4263808 C62.6387778,15.3829436 64.2285603,16.9705843 66.1912663,16.9722376 C68.1539724,16.9738909 69.7465979,15.3890844 69.7482564,13.4322854 C69.7501518,11.4757226 68.1603694,9.88831818 66.1976633,9.88666488 C64.2347204,9.88501158 62.6423318,11.469818 62.6404363,13.4263808" id="Fill-82" fill="#FFFFFF"></path>
                        <path d="M63.114291,13.4268296 C63.1135802,14.2468665 63.4334321,15.0182492 64.0146149,15.5985576 C64.5957976,16.1791022 65.3691285,16.4991339 66.1917402,16.4998424 L66.1943464,16.4998424 C67.0162473,16.4998424 67.7886304,16.1809917 68.3705239,15.6023366 C68.9528913,15.0229729 69.2736909,14.2520626 69.2744017,13.4317895 C69.2751125,12.6117525 68.9554975,11.8403698 68.3743148,11.2600614 C67.793132,10.6795168 67.0198012,10.3597213 66.1971895,10.3590128 L66.1945833,10.3590128 C64.4974728,10.3590128 63.1159495,11.7345586 63.114291,13.4268296 M66.1943464,17.4445854 L66.1907925,17.4445854 C65.1151424,17.4436407 64.1041734,17.0251195 63.3438736,16.2660185 C62.5838107,15.5071537 62.165634,14.4984043 62.1665817,13.4258848 C62.168714,11.2132967 63.9755219,9.41426975 66.1945833,9.41426975 L66.1981372,9.41426975 C67.2740242,9.41521449 68.2847562,9.83349947 69.0450561,10.5926005 C69.805119,11.3517015 70.2230588,12.3602147 70.2221111,13.4327342 C70.2211634,14.5050175 69.801565,15.5130583 69.0400806,16.2709784 C68.2795438,17.0277176 67.2688118,17.4445854 66.1943464,17.4445854" id="Fill-84" fill="#000000"></path>
                        <polygon id="Fill-86" fill="#FFFFFF" points="98.1374347 35.4218643 80.3915772 35.4069845 89.2744569 23.8414405 98.1570996 12.2756602 107.020314 23.8563202 115.883292 35.436744"></polygon>
                        <path d="M81.3505169,34.9354161 L114.925253,34.9637584 L98.1564836,13.0537505 L81.3505169,34.9354161 Z M116.841521,35.9099185 L79.4323532,35.8782696 L98.1576682,11.4977588 L116.841521,35.9099185 Z" id="Fill-88" fill="#000000"></path>
                        <polygon id="Fill-90" fill="#FFFFFF" points="82.8947145 40.13266 67.6325664 40.1196698 75.2713406 31.0331314 82.9101148 21.9463568 90.5334888 31.0458854 98.1568627 40.1456502"></polygon>
                        <path d="M68.6471603,39.6482903 L97.1428848,39.6723812 L82.9094751,22.682595 L68.6471603,39.6482903 Z M99.1707458,40.6187775 L66.6181146,40.5911438 L82.9108967,21.210213 L99.1707458,40.6187775 Z" id="Fill-92" fill="#000000"></path>
                        <path d="M111.483101,121.684555 L51.7456645,150.984579 C48.2235028,152.712041 43.9633123,151.266112 42.2301889,147.754975 L5.51640284,73.3699241 C3.78327938,69.8585505 5.23374853,65.6116944 8.75614723,63.8839956 L68.493584,34.5842079 C72.0157458,32.856509 76.2759362,34.3024382 78.0090596,37.8138119 L114.722846,112.198862 C116.455732,115.71 115.005263,119.957092 111.483101,121.684555" id="Fill-94" fill="#A8DBD5"></path>
                        <path d="M109.587683,122.865483 L49.8502458,152.165507 C46.3280841,153.89297 42.0678937,152.447041 40.3347702,148.935903 L3.62098416,74.5508529 C1.8878607,71.0394793 3.33832985,66.7926232 6.86072854,65.0649244 L66.5981653,35.7651366 C70.1203271,34.0374378 74.3805175,35.483367 76.113641,38.9947407 L112.827427,113.379791 C114.560314,116.890929 113.109844,121.138021 109.587683,122.865483" id="Fill-96" fill="#FFFFFF"></path>
                        <path d="M69.7253455,35.5101977 C68.7430448,35.5101977 67.7465284,35.7281972 66.8073485,36.1889956 L7.06991169,65.4890195 C5.47989234,66.2686687 4.28956941,67.6189427 3.71857453,69.2911378 C3.14734272,70.963333 3.26367404,72.7574 4.04624503,74.3424426 L40.7600311,148.727257 C42.3749278,151.999611 46.3588609,153.351774 49.6410153,151.741459 L109.378452,122.441436 C112.660606,120.83183 114.017015,116.860366 112.402119,113.588249 L75.6883327,39.2031982 C74.5356812,36.8675573 72.1754111,35.5101977 69.7253455,35.5101977 M46.7189905,153.369724 C45.8963788,153.369724 45.0704501,153.23439 44.2689249,152.962304 C42.3517089,152.311612 40.8036257,150.955669 39.9094619,149.144361 L3.1956759,74.7595466 C2.30174906,72.9480019 2.1685959,70.8979095 2.82133071,68.9866944 C3.47406552,67.0754792 4.83426535,65.5322415 6.65149801,64.6411127 L66.3889348,35.3410887 C70.1399684,33.5021464 74.693001,35.0468013 76.5389018,38.7860942 L113.252688,113.171145 C115.098115,116.910674 113.547899,121.449455 109.796866,123.289342 L50.059429,152.589366 C49.0022592,153.107794 47.8638234,153.369724 46.7189905,153.369724" id="Fill-98" fill="#000000"></path>
                        <path d="M83.9837984,75.6712473 L27.8604512,103.198697 C26.6864763,103.774518 25.2663338,103.292463 24.688468,102.122162 L10.358629,73.088556 C9.78123703,71.9182556 10.2645688,70.5025582 11.4387807,69.9267373 L67.5618909,42.3992875 C68.7361028,41.8234666 70.1562453,42.3052855 70.7338741,43.4760583 L85.0639501,72.5091924 C85.6413421,73.679729 85.1580103,75.0954264 83.9837984,75.6712473" id="Fill-100" fill="#FFFFFF"></path>
                        <path d="M68.6047977,42.6292143 C68.3240388,42.6292143 68.0394891,42.6915673 67.7710504,42.8231228 L11.6479401,70.3505726 C10.7101817,70.8104263 10.3225686,71.9452989 10.7838661,72.8801221 L25.1139422,101.913728 C25.5752397,102.848552 26.7136755,103.234479 27.651197,102.774626 L83.7745442,75.2474119 C84.7123026,74.7875583 85.0999157,73.6529219 84.6386182,72.7178625 L70.3085422,43.6844923 C69.9794501,43.0172675 69.304918,42.6292143 68.6047977,42.6292143 M26.8191082,103.913513 C25.7688093,103.913513 24.7576034,103.331788 24.263373,102.330596 L9.933297,73.2972261 C9.24146918,71.8947551 9.82265193,70.1928006 11.2295265,69.5026658 L67.3528737,41.9752159 C68.7597482,41.2853174 70.4668096,41.8656258 71.1591113,43.2673882 L85.4891873,72.3007584 C86.1810151,73.7032294 85.5993585,75.4054202 84.1929579,76.0950826 L28.0696107,103.622532 C27.6673081,103.819984 27.2398911,103.913513 26.8191082,103.913513" id="Fill-102" fill="#000000"></path>
                        <path d="M104.484955,117.208339 L94.0682077,122.317509 C92.8939958,122.89333 91.4740903,122.411275 90.8962245,121.240974 L74.7882458,88.6048265 C74.2106169,87.4342899 74.6941856,86.0185925 75.8681605,85.4430078 L86.2851447,80.3336013 C87.4591196,79.7577804 88.8792621,80.2398356 89.4568909,81.410136 L105.565107,114.046284 C106.142499,115.216584 105.659167,116.632518 104.484955,117.208339" id="Fill-104" fill="#FFFFFF"></path>
                        <path d="M87.3292361,80.5624181 C87.0430279,80.5624181 86.7587151,80.6276053 86.4943042,80.7575075 L76.07732,85.866914 C75.6231303,86.0894009 75.2829026,86.4753285 75.1198966,86.9531323 C74.9566537,87.430936 74.9898235,87.9434591 75.2134829,88.3962272 L91.3216986,121.032611 C91.7829961,121.967434 92.921432,122.353126 93.8591904,121.893508 L104.275701,116.784338 C105.213459,116.324484 105.601072,115.189612 105.139775,114.254789 L89.0317959,81.6186408 C88.8081365,81.1658727 88.4209972,80.8267099 87.9419302,80.6642141 C87.7414896,80.5961926 87.534889,80.5624181 87.3292361,80.5624181 M93.0268646,123.03216 C91.9765658,123.03216 90.9653599,122.45067 90.4711295,121.449479 L74.3629138,88.8133313 C74.0276616,88.134061 73.9779069,87.3652764 74.2228897,86.6486888 C74.4676357,85.931865 74.9775033,85.3532099 75.6589063,85.0190071 L86.0758905,79.9096006 C86.7568196,79.5758702 87.528492,79.5257988 88.2473295,79.7700149 C88.966167,80.0137586 89.546639,80.5222665 89.8821281,81.2015367 L105.990344,113.837921 C106.682172,115.240155 106.100752,116.94211 104.694114,117.632245 L94.2773671,122.741415 C93.8750645,122.93863 93.4476476,123.03216 93.0268646,123.03216" id="Fill-106" fill="#000000"></path>
                        <path d="M63.419951,93.3911781 L28.9806673,110.282947 C28.8631514,110.340576 28.7212319,110.292395 28.6634216,110.175246 C28.6056114,110.058098 28.6539446,109.916623 28.7714605,109.85923 L63.2107441,92.9672246 C63.3280232,92.9095953 63.4701796,92.9577772 63.5277529,93.0749253 C63.5855632,93.1918373 63.53723,93.3335487 63.419951,93.3911781" id="Fill-108" fill="#FFFFFF"></path>
                        <path d="M28.8771301,110.779433 C28.6146146,110.779433 28.3615762,110.633943 28.2381371,110.383586 C28.1542648,110.214005 28.1417077,110.021749 28.2030718,109.842248 C28.264436,109.662983 28.3921398,109.518437 28.5629645,109.435064 L63.0015373,92.5432948 C63.1716511,92.4599212 63.3640361,92.4471672 63.5445747,92.5085755 C63.7244026,92.5695114 63.8694021,92.6968156 63.9532744,92.8671055 C64.1259944,93.2164242 63.9809949,93.642031 63.6296317,93.8149189 L63.6291578,93.8151551 L29.1896373,110.706688 C29.0891801,110.756051 28.9823258,110.779433 28.8771301,110.779433" id="Fill-110" fill="#000000"></path>
                        <path d="M67.734611,102.132814 L33.2953274,119.02482 C33.1778114,119.082449 33.0358919,119.034267 32.9780817,118.916883 C32.9202714,118.799971 32.9686046,118.658496 33.0861205,118.600866 L67.5251672,101.709097 C67.6426832,101.651468 67.7848396,101.69965 67.8424129,101.816798 C67.9002232,101.93371 67.85189,102.075421 67.734611,102.132814" id="Fill-112" fill="#FFFFFF"></path>
                        <path d="M33.1918138,119.521306 C32.9292983,119.521306 32.6762599,119.375815 32.5528208,119.125458 C32.4689485,118.955877 32.4563914,118.763622 32.5177555,118.584357 C32.5788828,118.405092 32.7063497,118.260546 32.8769374,118.176936 L67.3159841,101.285167 C67.4865717,101.201794 67.6794306,101.189276 67.8594954,101.250448 C68.0393232,101.311384 68.1843227,101.438688 68.2679581,101.608978 C68.3513565,101.777851 68.3639137,101.96987 68.3027864,102.149371 C68.2416592,102.328636 68.1139553,102.473182 67.9438415,102.556791 L33.504321,119.448561 C33.4038638,119.497923 33.2970095,119.521306 33.1918138,119.521306" id="Fill-114" fill="#000000"></path>
                        <path d="M72.049271,110.874687 L37.6099874,127.766692 C37.4924714,127.824322 37.3505519,127.77614 37.2927417,127.658755 C37.2349314,127.541843 37.2832646,127.400368 37.4007805,127.342739 L71.8398272,110.45097 C71.9573432,110.39334 72.0994996,110.441522 72.1570729,110.558434 C72.2148832,110.675582 72.16655,110.817294 72.049271,110.874687" id="Fill-116" fill="#FFFFFF"></path>
                        <path d="M37.5064738,128.263155 C37.2439583,128.263155 36.9909199,128.117664 36.8674808,127.867307 C36.7836085,127.697726 36.7710514,127.505471 36.8324155,127.326206 C36.8935428,127.146941 37.0210097,127.002395 37.1915974,126.918785 L71.6306441,110.027016 C71.8007579,109.943643 71.9936168,109.931361 72.1734446,109.992061 C72.3535094,110.052997 72.4985089,110.180065 72.5823812,110.350118 C72.6660165,110.5197 72.6785737,110.711719 72.6174464,110.890984 C72.5565561,111.070249 72.4286153,111.215031 72.2585015,111.29864 L37.818981,128.190409 C37.7185238,128.239772 37.6116696,128.263155 37.5064738,128.263155" id="Fill-118" fill="#000000"></path>
                        <path d="M76.3639547,119.616559 L41.9246711,136.508565 C41.8071551,136.565958 41.6649987,136.517776 41.6074254,136.400628 C41.5496151,136.28348 41.5979483,136.142241 41.7154642,136.084611 L76.1545109,119.192606 C76.2720269,119.135213 76.4141833,119.183395 76.4717566,119.300307 C76.5295669,119.417455 76.4812337,119.55893 76.3639547,119.616559" id="Fill-120" fill="#FFFFFF"></path>
                        <path d="M76.1543217,119.192843 C76.1540847,119.19308 76.1538476,119.19308 76.1536106,119.193317 L76.1547958,119.192606 L76.1543217,119.192843 Z M41.8211812,137.004791 C41.5581919,137.004791 41.3053904,136.859301 41.1821882,136.608944 C41.0092312,136.258916 41.1544677,135.83331 41.5063048,135.660658 L75.9453515,118.768653 C76.2978993,118.596709 76.7246055,118.741727 76.8970886,119.091991 C77.0698086,119.442254 76.9248091,119.867389 76.5736828,120.040277 L76.5732089,120.040513 L42.1336884,136.932282 C42.0329943,136.981409 41.92614,137.004791 41.8211812,137.004791 L41.8211812,137.004791 Z" id="Fill-122" fill="#000000"></path>
                        <path d="M80.6783778,128.358432 L46.2393311,145.250201 C46.1215782,145.30783 45.9796587,145.259648 45.9220854,145.1425 C45.8642751,145.025352 45.9126083,144.884113 46.0301243,144.826484 L80.4691709,127.934479 C80.5866869,127.877085 80.7288433,127.925267 80.7864166,128.042179 C80.8442269,128.159091 80.7958937,128.300803 80.6783778,128.358432" id="Fill-124" fill="#FFFFFF"></path>
                        <path d="M46.1351304,145.747136 C46.0581291,145.747136 45.9808907,145.734382 45.9055479,145.70911 C45.7254831,145.647938 45.5804836,145.52087 45.4968482,145.350816 C45.3238912,145.000789 45.4691277,144.575182 45.8209648,144.40253 L80.2600115,127.510525 C80.6130332,127.33929 81.0390286,127.484072 81.2117486,127.833863 C81.2953839,128.003209 81.3079411,128.195464 81.2465769,128.374729 C81.1854497,128.553994 81.0579828,128.698539 80.887632,128.782385 L46.4483484,145.673918 C46.3493128,145.722573 46.2424585,145.747136 46.1351304,145.747136" id="Fill-126" fill="#000000"></path>
                        <path d="M16.6013325,74.5016082 C17.4677758,76.2574131 19.5977525,76.9803777 21.3590704,76.1164102 C23.1201512,75.2526789 23.8453858,73.1291327 22.9789426,71.373564 C22.1124993,69.6179953 19.9822856,68.8950307 18.2212047,69.758762 C16.4598869,70.6224933 15.7348893,72.7460394 16.6013325,74.5016082" id="Fill-128" fill="#FFFFFF"></path>
                        <path d="M19.7873655,69.8655416 C19.3222771,69.8655416 18.859795,69.9718252 18.4302457,70.182739 C17.6922171,70.5445756 17.1394656,71.1716488 16.8743439,71.9479914 C16.6092222,72.724334 16.6632417,73.5573611 17.0266882,74.2930798 C17.3896609,75.0290346 18.0187029,75.5798198 18.7972462,75.8441116 C19.5765002,76.1086397 20.411669,76.0547893 21.1499346,75.6924804 C22.6738512,74.9451886 23.3036041,73.1010502 22.5537291,71.5821396 C22.1907564,70.8461848 21.5614774,70.2953997 20.7826972,70.0311078 C20.4571591,69.9203367 20.121433,69.8655416 19.7873655,69.8655416 M19.7935256,76.9548932 C19.3566316,76.9548932 18.9178422,76.8830928 18.4918468,76.7385471 C17.4735331,76.3930073 16.6511584,75.6726408 16.1761191,74.7101838 C15.7013167,73.7477268 15.6304754,72.6586743 15.977337,71.6435479 C16.3241986,70.6281854 17.046827,69.8083846 18.012069,69.3348322 C18.9773109,68.8615159 20.0697829,68.7911326 21.0880966,69.1366723 C22.1066472,69.4824483 22.9292589,70.2028148 23.4042982,71.1650356 C24.3844666,73.1513578 23.5611441,75.5628144 21.5683483,76.5403872 C21.0065936,76.8157798 20.4017181,76.9548932 19.7935256,76.9548932" id="Fill-130" fill="#000000"></path>
                        <polygon id="Fill-132" fill="#FFFFFF" points="58.1962008 78.5804417 42.2730253 86.3901599 45.1092825 72.1009217 47.9455396 57.8119196 61.0324579 64.2912035 74.1191393 70.7704873"></polygon>
                        <path d="M48.2901504,58.509943 L42.9239832,85.5444732 L73.0500047,70.7682199 L48.2901504,58.509943 Z M41.6220675,87.2360356 L47.6011657,57.1140852 L75.1882739,70.7724713 L41.6220675,87.2360356 Z" id="Fill-134" fill="#000000"></path>
                        <polygon id="Fill-136" fill="#FFFFFF" points="46.6147661 89.5252424 32.9203662 96.2418929 35.7407492 84.7247669 38.5608952 73.2071685 49.4349122 78.0078802 60.3091661 82.8085919"></polygon>
                        <path d="M38.8868599,73.8677801 L33.6211498,95.3717846 L59.189874,82.8310295 L38.8868599,73.8677801 Z M32.2194877,97.1122374 L38.2348358,72.5465569 L61.4283635,82.785918 L32.2194877,97.1122374 Z" id="Fill-138" fill="#000000"></path>
                        <path d="M160.873661,68.4249029 C160.873661,64.5117773 157.691253,61.3393303 153.765841,61.3393303 L7.58167473,61.3393303 C3.65626264,61.3393303 0.473854671,64.5117773 0.473854671,68.4249029 L4.43362123,140.461558 L156.913894,140.461558 L160.873661,68.4249029 Z" id="Fill-140" fill="#A8DBD5"></path>
                        <path d="M12.3202214,161.718276 L149.027294,161.718276 C152.952706,161.718276 156.135114,158.545829 156.135114,154.632704 L156.913894,140.461558 L4.43362123,140.461558 L5.21240138,154.632704 C5.21240138,158.545829 8.39480935,161.718276 12.3202214,161.718276" id="Fill-142" fill="#A8DBD5"></path>
                        <path d="M160.873661,70.0782032 C160.873661,66.1650776 157.691253,62.9926306 153.765841,62.9926306 L7.58167473,62.9926306 C3.65626264,62.9926306 0.473854671,66.1650776 0.473854671,70.0782032 L4.43362123,142.114859 L156.913894,142.114859 L160.873661,70.0782032 Z" id="Fill-144" fill="#FFFFFF"></path>
                        <path d="M4.88221944,141.642487 L156.465249,141.642487 L160.399901,70.0654492 C160.392793,66.4246458 157.419355,63.4650021 153.765935,63.4650021 L7.5817695,63.4650021 C3.92811306,63.4650021 0.954675004,66.4246458 0.947804112,70.0654492 L4.88221944,141.642487 Z M157.362492,142.58723 L3.98497562,142.58723 L9.47702058e-05,70.0782032 C9.47702058e-05,65.9107056 3.40118667,62.520259 7.5817695,62.520259 L153.765935,62.520259 C157.946281,62.520259 161.34761,65.9107056 161.34761,70.0782032 L161.346899,70.1039475 L157.362492,142.58723 Z" id="Fill-146" fill="#000000"></path>
                        <path d="M12.3202214,163.371577 L149.027294,163.371577 C152.952706,163.371577 156.135114,160.19913 156.135114,156.286004 L156.913894,142.114859 L4.43362123,142.114859 L5.21240138,156.286004 C5.21240138,160.19913 8.39480935,163.371577 12.3202214,163.371577" id="Fill-148" fill="#FFFFFF"></path>
                        <path d="M4.93405914,142.58723 L5.68630343,156.286004 C5.68630343,159.932476 8.66211077,162.899205 12.3202688,162.899205 L149.027341,162.899205 C152.685262,162.899205 155.661307,159.932476 155.661307,156.286004 L155.662017,156.26026 L156.413551,142.58723 L4.93405914,142.58723 Z M149.027341,163.843948 L12.3202688,163.843948 C8.14395068,163.843948 4.74570191,160.460587 4.73859409,156.29923 L3.93304115,141.642487 L157.414332,141.642487 L156.609016,156.29923 C156.601908,160.460587 153.203659,163.843948 149.027341,163.843948 L149.027341,163.843948 Z" id="Fill-150" fill="#000000"></path>
                        <mask id="mask-5" fill="white">
                            <use xlink:href="#path-4"></use>
                        </mask>
                        <g id="Clip-153"></g>
                        <polygon id="Fill-152" fill="#00B49F" mask="url(#mask-5)" points="11.3725121 92.51585 47.0115957 92.51585 47.0115957 75.0043295 11.3725121 75.0043295"></polygon>
                        <path d="M138.128637,102.884499 L85.7676954,102.884499 L138.128637,102.884499 Z M92.6267418,92.6883601 C92.6267418,81.9114403 100.675163,73.1749291 111.791083,73.1749291 C123.464967,73.1749291 130.55715,81.9114403 130.55715,92.6883601 L130.55715,102.833719 L92.6267418,102.833719 L92.6267418,92.6883601 Z M137.043272,102.833719 L135.338343,102.833719 L135.338343,92.1602488 C135.338343,79.0864224 124.706703,68.4882952 111.592064,68.4882952 L111.591827,68.4882952 C98.4774254,68.4882952 87.8457851,79.0864224 87.8457851,92.1602488 L87.8457851,102.833719 L86.6393511,102.833719 C82.6241435,102.833719 79.3694727,106.078203 79.3694727,110.080843 L79.3694727,155.012585 C79.3694727,159.014989 82.6241435,162.259709 86.6393511,162.259709 L137.043272,162.259709 C141.058243,162.259709 144.313151,159.014989 144.313151,155.012585 L144.313151,110.080843 C144.313151,106.078203 141.058243,102.833719 137.043272,102.833719 L137.043272,102.833719 Z" id="Fill-154" fill="#A8DBD5" mask="url(#mask-5)"></path>
                        <path d="M141.919474,104.301614 L89.5585328,104.301614 L141.919474,104.301614 Z M96.4175791,94.1054746 C96.4175791,83.3285548 104.466001,74.5920437 115.581921,74.5920437 C127.255804,74.5920437 134.347987,83.3285548 134.347987,94.1054746 L134.347987,104.250834 L96.4175791,104.250834 L96.4175791,94.1054746 Z M140.83411,104.250834 L139.129181,104.250834 L139.129181,93.5773633 C139.129181,80.503537 128.49754,69.9054097 115.382902,69.9054097 L115.382665,69.9054097 C102.268263,69.9054097 91.6366224,80.503537 91.6366224,93.5773633 L91.6366224,104.250834 L90.4301884,104.250834 C86.4149809,104.250834 83.1603101,107.495318 83.1603101,111.497958 L83.1603101,156.4297 C83.1603101,160.432103 86.4149809,163.676823 90.4301884,163.676823 L140.83411,163.676823 C144.84908,163.676823 148.103988,160.432103 148.103988,156.4297 L148.103988,111.497958 C148.103988,107.495318 144.84908,104.250834 140.83411,104.250834 L140.83411,104.250834 Z" id="Fill-155" fill="#00B49F" mask="url(#mask-5)"></path>
                        <path d="M96.8914812,103.77851 L133.87418,103.77851 L133.87418,94.1055219 C133.87418,82.8942564 126.352211,75.0644624 115.581968,75.0644624 C110.395155,75.0644624 105.633152,77.0427543 102.173065,80.6346673 C98.7672349,84.1701319 96.8914812,88.9543105 96.8914812,94.1055219 L96.8914812,103.77851 Z M134.821889,103.829289 L138.655136,103.829289 L138.655136,93.5774105 C138.655136,80.7848814 128.215407,70.3778285 115.382949,70.3778285 C102.550491,70.3778285 92.1102876,80.7848814 92.1102876,93.5774105 L92.1102876,103.829289 L95.9437718,103.829289 L95.9437718,94.1055219 C95.9437718,88.7091497 97.9131119,83.6928005 101.48953,79.9801966 C105.129918,76.2009883 110.134772,74.1197194 115.581968,74.1197194 C121.298788,74.1197194 126.178069,76.1492636 129.692649,79.9889354 C133.000155,83.6025775 134.821889,88.6158564 134.821889,94.1055219 L134.821889,103.829289 Z M89.5962516,104.774032 C86.2406497,105.184996 83.6342121,108.043788 83.6342121,111.498005 L83.6342121,156.429747 C83.6342121,160.165261 86.6827562,163.204263 90.4302358,163.204263 L140.834157,163.204263 C144.5814,163.204263 147.629944,160.165261 147.629944,156.429747 L147.629944,111.498005 C147.629944,108.043788 145.023506,105.184996 141.667904,104.774032 L89.5962516,104.774032 Z M140.834157,164.149006 L90.4302358,164.149006 C86.1603314,164.149006 82.6865028,160.68605 82.6865028,156.429747 L82.6865028,111.498005 C82.6865028,107.241465 86.1603314,103.77851 90.4302358,103.77851 L91.1625782,103.77851 L91.1625782,93.5774105 C91.1625782,80.2640918 102.027829,69.4330855 115.382712,69.4330855 C128.737832,69.4330855 139.602846,80.2640918 139.602846,93.5774105 L139.602846,103.77851 L140.834157,103.77851 C141.135292,103.77851 141.432399,103.795751 141.724767,103.829289 L141.919521,103.829289 L141.919521,103.854089 C145.677426,104.381728 148.577653,107.608498 148.577653,111.498005 L148.577653,156.429747 C148.577653,160.68605 145.103825,164.149006 140.834157,164.149006 L140.834157,164.149006 Z" id="Fill-156" fill="#000000" mask="url(#mask-5)"></path>
                        <path d="M123.707083,127.981314 C123.707083,123.53559 120.091809,119.931395 115.632125,119.931395 C111.172442,119.931395 107.557168,123.53559 107.557168,127.981314 C107.557168,131.089755 109.325831,133.784634 111.913314,135.125933 L111.913314,144.340957 C111.913314,146.069128 113.318767,147.470182 115.052601,147.470182 L116.21165,147.470182 C117.945484,147.470182 119.350937,146.069128 119.350937,144.340957 L119.350937,135.125933 C121.938657,133.784634 123.707083,131.089755 123.707083,127.981314" id="Fill-157" fill="#FFFFFF" mask="url(#mask-5)"></path>
                        <path d="M115.632102,120.403767 C111.440857,120.403767 108.030999,123.803188 108.030999,127.981314 C108.030999,130.818614 109.602301,133.395636 112.131974,134.70694 L112.387145,134.839204 L112.387145,144.340957 C112.387145,145.806017 113.582917,146.99781 115.052577,146.99781 L116.211626,146.99781 C117.681286,146.99781 118.877058,145.806017 118.877058,144.340957 L118.877058,134.839204 L119.132229,134.70694 C121.661902,133.395873 123.233204,130.81885 123.233204,127.981314 C123.233204,123.803188 119.823346,120.403767 115.632102,120.403767 M116.211626,147.942553 L115.052577,147.942553 C113.060255,147.942553 111.439436,146.326807 111.439436,144.340957 L111.439436,135.407231 C108.745098,133.894933 107.08329,131.07582 107.08329,127.981314 C107.08329,123.282162 110.918195,119.459024 115.632102,119.459024 C120.346008,119.459024 124.180914,123.282162 124.180914,127.981314 C124.180914,131.076056 122.519105,133.894933 119.824768,135.407231 L119.824768,144.340957 C119.824768,146.326807 118.203948,147.942553 116.211626,147.942553" id="Fill-158" fill="#000000" mask="url(#mask-5)"></path>
                    </g>
                </g>
            </g>
        </g>
    </g>
</svg>
