<?xml version="1.0" encoding="UTF-8"?>
<svg width="249px" height="227px" viewBox="0 0 249 227" version="1.1" xmlns="http://www.w3.org/2000/svg" xmlns:xlink="http://www.w3.org/1999/xlink">
    <!-- Generator: Sketch 49.1 (51147) - http://www.bohemiancoding.com/sketch -->
    <title>Icecream</title>
    <desc>Created with Sketch.</desc>
    <defs>
        <rect id="path-1" x="0" y="0" width="250" height="226.69384"></rect>
        <rect id="path-3" x="0" y="226.69384" width="248.77451" height="2.45074421" rx="1.22537211"></rect>
    </defs>
    <g id="Page-1" stroke="none" stroke-width="1" fill="none" fill-rule="evenodd">
        <g id="Unexpected-Error" transform="translate(-835.000000, -77.000000)">
            <g id="Icecream" transform="translate(835.000000, 74.000000)">
                <g id="Illustration">
                    <g id="Oval-Copy">
                        <mask id="mask-2" fill="white">
                            <use xlink:href="#path-1"></use>
                        </mask>
                        <g id="Mask"></g>
                        <ellipse id="Oval" fill="#F2F2F2" mask="url(#mask-2)" cx="124.387255" cy="126.213327" rx="123.161765" ry="122.537211"></ellipse>
                    </g>
                </g>
                <g id="Rectangle-4">
                    <use fill="#000000" fill-rule="evenodd" xlink:href="#path-3"></use>
                    <rect stroke="#000000" stroke-width="1" x="0.5" y="227.19384" width="247.77451" height="1.45074421" rx="0.725372106"></rect>
                </g>
                <g transform="translate(63.000000, 31.000000)">
                    <path d="M97.9219702,187.160661 C97.9219702,182.500183 94.0960748,178.687176 89.4201503,178.687176 L82.9215115,178.687176 C94.1535795,169.519253 101.322698,155.590862 101.322698,139.992527 C101.322698,112.382671 78.8646798,90 51.1611961,90 C23.4580183,90 1,112.382671 1,139.992527 C1,158.434156 11.0204936,174.541277 25.9294954,183.206206 L10.0686079,183.206206 C5.39268341,183.206206 1.56678799,187.019213 1.56678799,191.679691 C1.56678799,196.339864 -0.275196514,195.633842 4.40072795,195.633842 L89.4201503,195.633842 C113.79234,196.763599 97.9219702,195.633842 97.9219702,187.160661" id="Fill-12" fill="#00B49F"></path>
                    <path d="M32.6520353,161.200087 C32.6520353,163.679991 30.6115374,165.709114 28.1177314,165.709114 L26.4173674,165.709114 C23.9235614,165.709114 21.8830635,163.679991 21.8830635,161.200087 L21.8830635,140.909158 C21.8830635,143.389062 19.8425655,145.418186 17.3487595,145.418186 L15.6480897,145.418186 C13.1542837,145.418186 11.1137857,143.389062 11.1137857,140.909158 L11.1137857,124 C11.1137857,126.480209 9.07328779,128.509028 6.5794818,128.509028 L4.87911782,128.509028 C4.01991249,128.509028 3.21760008,128.26417 2.53121462,127.847152 C1.53252989,131.772476 1,135.882432 1,140.116793 C1,158.5173 11.0204936,174.588772 25.9298013,183.234522 L10.0689138,183.234522 C5.39268341,183.234522 1.56678799,187.03909 1.56678799,191.689253 C1.56678799,196.339112 -0.275196514,195.634652 4.40072795,195.634652 L89.4201503,195.634652 C113.79234,196.761909 97.9219702,195.634652 97.9219702,187.180225 C97.9219702,182.530063 94.0960748,178.725494 89.4201503,178.725494 L82.9215115,178.725494 C94.1538853,169.577862 101.323004,155.680604 101.323004,140.116793 C101.323004,139.645328 101.314745,139.175689 101.301899,138.70757 L100.472669,138.70757 C97.9788631,138.70757 95.9383652,136.678447 95.9383652,134.198542 L95.9383652,146.598368 C95.9383652,149.078273 93.8978672,151.107396 91.4040612,151.107396 L89.7036973,151.107396 C87.2095854,151.107396 85.1690874,149.078273 85.1690874,146.598368 L85.1690874,138.70757 C85.1690874,141.187474 83.1285895,143.216597 80.6347835,143.216597 L78.9344195,143.216597 C76.4406135,143.216597 74.4001156,141.187474 74.4001156,138.70757 L74.4001156,164.07085 C74.4001156,166.551059 72.3596176,168.580182 69.8658116,168.580182 L68.1654477,168.580182 C65.6713358,168.580182 63.6311437,166.551059 63.6311437,164.07085 L63.6311437,140.962084 C63.6311437,143.441988 61.5903399,145.471111 59.0965339,145.471111 L57.3961699,145.471111 C55.7661574,145.471111 54.3343525,144.601487 53.5347929,143.308761 L53.5347929,150.015423 C53.5347929,152.495327 51.494295,154.524755 49.000489,154.524755 L47.300125,154.524755 C44.806319,154.524755 42.7658211,152.495327 42.7658211,150.015423 L42.7658211,133.727077 C41.9662615,135.019803 40.5344566,135.889427 38.904444,135.889427 L37.2040801,135.889427 C34.7102741,135.889427 32.6697761,133.86 32.6697761,131.3804" id="Fill-14" fill="#A8DBD5"></path>
                    <path d="M97.9752542,188.160937 C97.9752542,183.500446 94.1876305,179.687427 89.5584809,179.687427 L83.1248501,179.687427 C94.2445599,170.519478 101.341964,156.591048 101.341964,140.992669 C101.341964,113.382734 79.1086002,91 51.6822437,91 C50.4437259,91 49.2158066,91.047556 48,91.1371809 C73.7396709,93.063505 94.0474266,115.40478 94.0474266,142.684871 C94.0474266,158.811244 82.4610772,173.211271 71.3413674,182.689554 L82.2636411,182.689554 C86.8930936,182.689554 90.6807173,186.631523 90.6807173,191.449924 C90.6807173,193.699385 91.716954,195.44707 92.8482749,196.784126 C112.167639,197.634037 97.9752542,196.215282 97.9752542,188.160937" id="Fill-16" fill="#FFFFFF"></path>
                    <path d="M4.52231877,194.38333 L89.317016,194.38333 C93.9644124,194.597432 98.703329,194.819441 100.92605,194.7279 C100.918728,194.72121 100.912017,194.715431 100.905,194.708437 C99.3195651,193.257468 96.665784,190.827833 96.665784,187.057321 C96.665784,183.017966 93.3689209,179.731009 89.317016,179.731009 L79.6707856,179.731009 L82.1192564,177.732316 C93.5196242,168.424037 100.057523,154.671615 100.057523,140.001352 C100.057523,113.122088 78.1219585,91.2541563 51.1594938,91.2541563 C24.1967239,91.2541563 2.26115939,113.122088 2.26115939,140.001352 C2.26115939,157.277337 11.5736461,173.423812 26.5640468,182.138747 L30.1769597,184.239626 L10.1752172,184.239626 C6.12331236,184.239626 2.82644923,187.526278 2.82644923,191.565634 C2.82644923,192.869712 2.68733851,193.803976 2.5817852,194.416175 C2.68520304,194.41435 2.79289182,194.411613 2.89997047,194.408268 C3.32767493,194.397319 3.86032257,194.38333 4.52231877,194.38333 M99.5892447,197 C97.4699416,197 94.2429389,196.867098 89.2645444,196.636574 L4.52231877,196.637486 C3.88472796,196.637486 3.37129956,196.651476 2.95884847,196.661816 C1.73766377,196.69162 1.06773581,196.710779 0.560713836,196.124127 C0.0811479218,195.568799 0.19524312,194.927709 0.315744733,194.248603 C0.415196698,193.689018 0.565289846,192.843557 0.565289846,191.565634 C0.565289846,186.283025 4.87619693,181.985166 10.1752172,181.985166 L22.1121986,181.985166 C8.38294641,172.515702 0,156.766715 0,140.001352 C0,111.878835 22.9496085,89 51.1594938,89 C79.369074,89 102.318682,111.878835 102.318682,140.001352 C102.318682,154.332214 96.3567508,167.824003 85.8587722,177.476853 L89.317016,177.476853 C94.6160363,177.476853 98.9269434,181.774713 98.9269434,187.057321 C98.9269434,189.83761 101.03801,191.7697 102.434608,193.048232 C103.447737,193.976109 104.32206,194.776864 103.884288,195.825175 C103.536511,196.657862 102.987695,197 99.5892447,197" id="Fill-18" fill="#000000"></path>
                    <path d="M115.727776,3.28167463 L40.3234643,77.8560396 C36.5186275,81.6190293 37.5294157,88.022676 42.3130826,90.4096175 C53.9041234,96.1934777 74.1908037,106.791217 94.7504972,119.788721 C99.3308499,122.684925 105.387361,120.134641 106.521721,114.824017 L128.811411,10.4821898 C130.431533,2.89728485 121.234304,-2.16420344 115.727776,3.28167463" id="Fill-20" fill="#A8DBD5"></path>
                    <polygon id="Fill-22" fill="#FFFFFF" points="105.832243 114 83 34.6323517 85.1674523 34 108 113.367648"></polygon>
                    <polygon id="Fill-24" fill="#FFFFFF" points="82.7935414 114 65 52.6295821 67.2061488 52 85 113.370111"></polygon>
                    <polygon id="Fill-26" fill="#FFFFFF" points="62.8935321 103 50 67.7665932 52.1067705 67 65 102.233105"></polygon>
                    <polygon id="Fill-28" fill="#FFFFFF" points="115.91111 68 98 20.8168804 100.089192 20 118 67.1834263"></polygon>
                    <polygon id="Fill-30" fill="#FFFFFF" points="122.877993 31 114 4.71082713 116.122007 4 125 30.2891729"></polygon>
                    <polygon id="Fill-32" fill="#FFFFFF" points="55.33398 64 55 61.7674135 120.66602 52 121 54.232891"></polygon>
                    <polygon id="Fill-34" fill="#FFFFFF" points="38.1666074 82 38 79.7536661 115.833393 74 116 76.2460299"></polygon>
                    <polygon id="Fill-36" fill="#FFFFFF" points="110.997868 97 52 96.9502762 52.0021317 95 111 95.0499868"></polygon>
                    <polygon id="Fill-38" fill="#FFFFFF" points="80.1928178 39 80 36.7694011 124.807182 33 125 35.2305989"></polygon>
                    <polygon id="Fill-40" fill="#FFFFFF" points="100.389786 20 100 17.7663609 127.610214 13 128 15.2336391"></polygon>
                    <path d="M116.431816,4.21499541 L41.2345618,78.6209322 C39.6856582,80.1541048 38.9942213,82.2685 39.3369045,84.4240195 C39.6789806,86.5737511 40.9884006,88.3618941 42.9294625,89.3312076 C53.4934529,94.6054677 74.3473478,105.433937 95.3220469,118.699704 C97.1857091,119.879512 99.4190686,120.064724 101.449671,119.205684 C103.47481,118.349995 104.900785,116.622168 105.360934,114.465125 L127.589507,10.3592616 C128.354701,6.77657868 126.290407,4.21895552 124.290157,3.11713049 C122.2893,2.01652395 119.030927,1.64335954 116.431816,4.21499541 M98.8505605,122 C97.2075632,122 95.5806528,121.532707 94.122504,120.61061 C73.2318822,107.397239 52.4538693,96.6080659 41.9278199,91.3533018 C39.3274951,90.0549943 37.57371,87.6591265 37.1150791,84.780125 C36.6564482,81.8953356 37.5819052,79.0647694 39.6546983,77.0137359 L114.852256,2.60749453 C117.716954,-0.227031857 121.847667,-0.803075854 125.372235,1.13768369 C128.89832,3.07966174 130.632376,6.88472021 129.789782,10.8320381 L107.561209,114.938206 C106.94444,117.826651 105.034641,120.14088 102.322314,121.286875 C101.194101,121.764221 100.018233,122 98.8505605,122" id="Fill-42" fill="#000000"></path>
                    <path d="M25.3219072,120.346628 L26.6533718,121.678093 C27.0825814,122.107302 27.7852112,122.107302 28.2144209,121.678093 L33.6780928,116.214421 C34.1073024,115.785211 34.1073024,115.082897 33.6780928,114.653372 L32.3466282,113.321907 C31.9174186,112.892698 31.2147888,112.892698 30.7855791,113.321907 L25.3219072,118.785579 C24.8926976,119.214789 24.8926976,119.917419 25.3219072,120.346628" id="Fill-44" fill="#FFFFFF"></path>
                    <path d="M65.2932937,122.493593 L66.5064075,123.706706 C66.8974657,124.097765 67.5376404,124.097765 67.9286987,123.706706 L69.7067063,121.928699 C70.0977646,121.53764 70.0977646,120.897466 69.7067063,120.506407 L68.4933052,119.293294 C68.1022469,118.902235 67.4623596,118.902235 67.0713013,119.293294 L65.2932937,121.071301 C64.9022354,121.46236 64.9022354,122.102534 65.2932937,122.493593" id="Fill-46" fill="#FFFFFF"></path>
                    <path d="M45.2932937,130.493392 L46.5064075,131.706723 C46.8974657,132.097759 47.5376404,132.097759 47.9286987,131.706723 L49.7067063,129.92853 C50.0977646,129.537782 50.0977646,128.897644 49.7067063,128.506608 L48.4933052,127.293277 C48.1022469,126.902241 47.4623596,126.902241 47.0713013,127.293277 L45.2932937,129.07147 C44.9022354,129.462218 44.9022354,130.102356 45.2932937,130.493392" id="Fill-48" fill="#FFFFFF"></path>
                    <path d="M51.2884687,112.236476 L52.5481498,113.642037 C52.9541884,114.095039 53.644671,114.121686 54.0826591,113.701431 L59.6539796,108.351441 C60.0916575,107.931185 60.1177135,107.216526 59.7116749,106.763524 L58.4519938,105.357963 C58.0456451,104.904961 57.3551624,104.878314 56.9174845,105.298569 L51.3458538,110.648559 C50.9081759,111.068815 50.8824302,111.783474 51.2884687,112.236476" id="Fill-50" fill="#FFFFFF"></path>
                    <path d="M78.2884329,141.236687 L79.5481033,142.641914 C79.9544485,143.094912 80.6446151,143.12188 81.0825995,142.701308 L86.6538722,137.351365 C87.0918566,136.931113 87.1176022,136.21646 86.7115671,135.763462 L85.4518967,134.357914 C85.0455515,133.904915 84.3553849,133.878268 83.9174005,134.298841 L78.3461278,139.648784 C77.9081434,140.068715 77.8823978,140.783688 78.2884329,141.236687" id="Fill-52" fill="#FFFFFF"></path>
                    <path d="M57.1808814,128.467375 L56.1815739,129.989534 C55.8592737,130.480193 55.9777058,131.158566 56.4443635,131.497443 L62.3848218,135.808987 C62.8514795,136.147864 63.4969637,136.02365 63.8189693,135.532991 L64.8185714,134.010832 C65.140577,133.520173 65.0224395,132.84118 64.5554872,132.502303 L58.6153235,128.19076 C58.1486658,127.852193 57.5031816,127.976406 57.1808814,128.467375" id="Fill-54" fill="#FFFFFF"></path>
                    <path d="M32.1808814,97.4671647 L31.1815739,98.9893509 C30.8592737,99.4800189 30.9777058,100.158714 31.4443635,100.497288 L37.3848218,104.809219 C37.8514795,105.147793 38.4969637,105.023577 38.8189693,104.532909 L39.8185714,103.010723 C40.140577,102.520055 40.0224395,101.841049 39.5554872,101.502476 L33.6153235,97.1905443 C33.1483712,96.8522807 32.5031816,96.9764966 32.1808814,97.4671647" id="Fill-56" fill="#FFFFFF"></path>
                </g>
            </g>
        </g>
    </g>
</svg>