<svg width="212" height="184" viewBox="0 0 212 184" xmlns="http://www.w3.org/2000/svg" xmlns:xlink="http://www.w3.org/1999/xlink"><title>Cart Discount</title><defs><path id="b" d="M0 0h204v185H0z"/><rect id="a" x="9" y="185" width="203" height="2" rx="1"/><mask id="d" x="0" y="0" width="203" height="2" fill="#fff"><use xlink:href="#a"/></mask><path d="M.99.865a4.998 4.998 0 0 0 2.843 5.214h157.841a4.998 4.998 0 0 0 2.843-5.214H.989z" id="e"/><path d="M.794.337A4.997 4.997 0 0 0 3.639 5.55h123.905A4.997 4.997 0 0 0 130.39.337H.794z" id="g"/><path id="i" d="M0 17.19V.063h32.094V17.19H0z"/><path d="M18.327.35l5.81 1.355a4.857 4.857 0 0 1-2.207 9.458L4.043 6.991A4.856 4.856 0 0 1 .681.35h17.646z" id="k"/><path id="m" d="M0 142h203.573V.063H0z"/></defs><g transform="translate(0 -3)" fill="none" fill-rule="evenodd"><g transform="translate(9)"><mask id="c" fill="#fff"><use xlink:href="#b"/></mask><ellipse fill="#F2F2F2" mask="url(#c)" cx="101.5" cy="103" rx="100.5" ry="100"/></g><use stroke="#000" mask="url(#d)" stroke-width="2" fill="#D8D8D8" xlink:href="#a"/><path fill="#FFF" d="M52.072 132.444h125.97l13.944-61.822H36.733z"/><path d="M53.007 131.249h124.078l13.405-59.432H38.261l14.746 59.432zm125.99 2.392H51.137L35.204 69.427h158.277l-14.484 64.213z" fill="#000"/><path fill="#00B49F" d="M74.468 134.22l-30.679-30.68 1.691-1.69 30.678 30.68zM99.802 135.381L37.746 73.326l1.691-1.69 62.055 62.055zM121.649 133.987l-60.661-60.66 1.69-1.691 60.66 60.66zM144.655 134.216L83.76 72.86l1.698-1.685 60.893 61.357zM166.04 133.754l-60.429-60.428 1.692-1.69 60.427 60.428zM178.819 125.617l-51.83-52.294 1.7-1.684 51.829 52.294zM182.309 108.188l-35.327-35.326 1.69-1.691 35.327 35.327zM186.492 91.92l-16.734-16.734 1.691-1.692 16.733 16.735z"/><path fill="#000" d="M74.933 132.36l-31.608-31.608 1.69-1.692 31.609 31.61zM100.266 133.522L39.14 72.396l1.69-1.69 61.126 61.126zM122.114 132.127L62.846 72.861l1.693-1.69 59.264 59.266zM145.122 132.36L85.624 72.862l1.69-1.69 59.498 59.498zM166.504 131.895l-59.033-59.033 1.69-1.691 59.034 59.034zM179.287 123.76L128.39 72.862l1.69-1.69 50.898 50.898zM182.774 106.329L149.77 73.327l1.69-1.69 33.003 33.002zM186.957 90.06l-16.734-16.733 1.69-1.691 16.734 16.734z"/><path fill="#A8DBD5" d="M75.356 130.078L43.748 98.47l.845-.846 31.609 31.608zM100.689 131.24L39.564 70.115l.846-.846 61.125 61.126zM122.536 129.845L63.27 70.58l.846-.844L123.381 129zM145.545 130.078L86.046 70.58l.846-.845 59.5 59.497zM166.927 129.613L107.894 70.58l.845-.845 59.034 59.033zM179.71 121.479L128.811 70.58l.845-.845 50.9 50.898zM183.196 104.047l-33.002-33.003.845-.846 33.004 33.003zM187.38 87.779l-16.734-16.734.845-.846 16.734 16.734z"/><path fill="#000" d="M154.715 132.36l-1.69-1.69 31.608-31.61 1.69 1.692zM129.382 133.522l-1.69-1.69 61.125-61.126 1.69 1.69zM107.534 132.127l-1.69-1.69 59.265-59.266 1.691 1.69zM84.526 132.36l-1.69-1.69 59.498-59.498 1.69 1.69zM63.144 131.895l-1.69-1.69 59.033-59.034 1.69 1.691zM50.36 123.76l-1.69-1.69 50.9-50.899 1.69 1.691zM46.41 106.794l-1.69-1.69 33.466-33.468 1.691 1.69zM42.692 90.06L41 88.37l16.734-16.734 1.69 1.691z"/><path d="M53.007 131.249h124.078l13.405-59.432H38.261l14.746 59.432zm125.99 2.392H51.137L35.204 69.427h158.277l-14.484 64.213z" fill="#000"/><path d="M53.93 139.184h121.555a5.113 5.113 0 1 0 0-10.227H53.93a5.113 5.113 0 0 0 0 10.227" fill="#FFF"/><path d="M53.93 130.154a3.923 3.923 0 0 0-3.916 3.918 3.923 3.923 0 0 0 3.917 3.917h121.554a3.922 3.922 0 0 0 3.917-3.917 3.922 3.922 0 0 0-3.917-3.918H53.93zm121.555 10.226H53.93a6.316 6.316 0 0 1-6.31-6.308c0-3.48 2.83-6.31 6.31-6.31h121.554a6.316 6.316 0 0 1 6.308 6.31 6.315 6.315 0 0 1-6.308 6.308z" fill="#000"/><path d="M38.127 72.713h155.485a5.113 5.113 0 1 0 0-10.227H38.127a5.114 5.114 0 0 0 0 10.227" fill="#FFF"/><path d="M38.127 63.683A3.922 3.922 0 0 0 34.21 67.6a3.923 3.923 0 0 0 3.918 3.918h155.485a3.922 3.922 0 0 0 3.918-3.918 3.921 3.921 0 0 0-3.918-3.917H38.127zM193.612 73.91H38.127a6.316 6.316 0 0 1-6.309-6.309 6.316 6.316 0 0 1 6.31-6.309h155.484c3.48 0 6.31 2.83 6.31 6.31a6.317 6.317 0 0 1-6.31 6.308z" fill="#000"/><g transform="translate(33 65.937)"><mask id="f" fill="#fff"><use xlink:href="#e"/></mask><path fill="#A8DBD5" mask="url(#f)" d="M-3.217 6.079h173.789V.865H-3.217z"/></g><g transform="translate(49 132.937)"><mask id="h" fill="#fff"><use xlink:href="#g"/></mask><path fill="#A8DBD5" mask="url(#h)" d="M-2.55 5.55h137.748V.337H-2.55z"/></g><g><path d="M169.674 156.416H53.467a1.195 1.195 0 0 1-1.162-.913l-25.1-103.192a1.197 1.197 0 0 1 2.323-.566l24.878 102.28h115.268a1.196 1.196 0 0 1 0 2.391" fill="#000"/><path d="M5.158 54.292l19.474 4.506a5.114 5.114 0 0 0 2.304-9.964L7.463 44.33a5.112 5.112 0 1 0-2.305 9.963" fill="#FFF"/><g transform="translate(0 42.937)"><mask id="j" fill="#fff"><use xlink:href="#i"/></mask><path d="M6.303 2.455a3.88 3.88 0 0 0-2.066.596 3.89 3.89 0 0 0-1.743 2.44 3.922 3.922 0 0 0 2.934 4.7l19.474 4.505a3.925 3.925 0 0 0 4.699-2.933 3.924 3.924 0 0 0-2.934-4.7L7.194 2.557a3.919 3.919 0 0 0-.891-.103M25.796 17.19c-.477 0-.957-.054-1.433-.165L4.889 12.52a6.263 6.263 0 0 1-3.93-2.805 6.271 6.271 0 0 1-.795-4.762 6.263 6.263 0 0 1 2.806-3.93A6.275 6.275 0 0 1 7.734.227l19.472 4.506a6.317 6.317 0 0 1 4.725 7.568 6.266 6.266 0 0 1-2.806 3.93 6.27 6.27 0 0 1-3.329.96" fill="#000" mask="url(#j)"/></g></g><g transform="translate(2 46.937)"><mask id="l" fill="#fff"><use xlink:href="#k"/></mask><path fill="#A8DBD5" mask="url(#l)" d="M27.766 12.062L-1.28 5.285-.13.349l29.047 6.777z"/></g><g transform="translate(0 42.937)"><path d="M58.58 128.088c0-7.187 5.826-13.015 13.015-13.015 7.188 0 13.014 5.828 13.014 13.015 0 7.188-5.826 13.016-13.014 13.016-7.189 0-13.016-5.828-13.016-13.016z" fill="#00B49F"/><path d="M71.595 115.97c-6.683 0-12.118 5.436-12.118 12.118 0 6.683 5.435 12.119 12.118 12.119 6.682 0 12.118-5.436 12.118-12.12 0-6.681-5.436-12.117-12.118-12.117m0 26.03c-7.671 0-13.912-6.241-13.912-13.912 0-7.671 6.241-13.912 13.912-13.912 7.671 0 13.912 6.24 13.912 13.912 0 7.67-6.241 13.912-13.912 13.912" fill="#000"/><path d="M137.6 128.088c0 7.188 5.828 13.016 13.017 13.016 7.187 0 13.014-5.828 13.014-13.016 0-7.187-5.827-13.015-13.014-13.015-7.19 0-13.016 5.828-13.016 13.015" fill="#00B49F"/><path d="M150.615 115.97c-6.681 0-12.118 5.436-12.118 12.118 0 6.683 5.436 12.119 12.118 12.119 6.683 0 12.12-5.436 12.12-12.12 0-6.681-5.437-12.117-12.12-12.117m0 26.03c-7.67 0-13.91-6.241-13.91-13.912 0-7.671 6.24-13.912 13.91-13.912 7.671 0 13.912 6.24 13.912 13.912 0 7.67-6.24 13.912-13.911 13.912" fill="#000"/><path d="M57.65 114.144h113.884a3.254 3.254 0 0 0 0-6.508H57.65a3.254 3.254 0 0 0 0 6.508" fill="#FFF"/><path d="M57.385 108.831c-.989 0-1.794.805-1.794 1.793v.53c0 .99.805 1.793 1.794 1.793h114.413c.989 0 1.794-.803 1.794-1.793v-.53c0-.988-.805-1.793-1.794-1.793H57.385zm114.413 6.508H57.385a4.19 4.19 0 0 1-4.185-4.185v-.53a4.19 4.19 0 0 1 4.185-4.185h114.413a4.19 4.19 0 0 1 4.185 4.185v.53a4.19 4.19 0 0 1-4.185 4.185z" fill="#000"/><path d="M65.552 128.088a6.043 6.043 0 1 0 12.086 0 6.043 6.043 0 0 0-12.086 0" fill="#A8DBD5"/><path d="M71.595 123.241a4.853 4.853 0 0 0-4.848 4.847 4.853 4.853 0 0 0 4.848 4.847 4.853 4.853 0 0 0 4.848-4.847 4.853 4.853 0 0 0-4.848-4.847m0 12.085c-3.991 0-7.238-3.247-7.238-7.238 0-3.992 3.247-7.239 7.238-7.239 3.991 0 7.238 3.247 7.238 7.24 0 3.99-3.247 7.237-7.238 7.237" fill="#000"/><path d="M144.573 128.088a6.042 6.042 0 1 0 12.085 0 6.043 6.043 0 1 0-12.084 0" fill="#A8DBD5"/><path d="M150.615 123.241a4.853 4.853 0 0 0-4.847 4.847 4.853 4.853 0 0 0 4.847 4.847 4.852 4.852 0 0 0 4.849-4.847 4.852 4.852 0 0 0-4.849-4.847m0 12.085c-3.99 0-7.238-3.247-7.238-7.238 0-3.992 3.248-7.239 7.238-7.239 3.992 0 7.24 3.247 7.24 7.24 0 3.99-3.248 7.237-7.24 7.237" fill="#000"/><mask id="n" fill="#fff"><use xlink:href="#m"/></mask><path fill="#00B49F" mask="url(#n)" d="M90.653 75.08h40.487V46.278H90.653z"/><path d="M91.849 73.885h38.096V47.474H91.849v26.411zm39.291 2.39H90.654a1.196 1.196 0 0 1-1.197-1.195V46.278c0-.66.536-1.196 1.197-1.196h40.486c.66 0 1.195.536 1.195 1.196V75.08c0 .66-.535 1.195-1.195 1.195z" fill="#000" mask="url(#n)"/><path d="M113.685 65.434c-.025 2.076.775 3.652 2.127 3.652 1.45 0 2.102-1.55 2.102-3.702 0-1.977-.577-3.628-2.102-3.628-1.377 0-2.127 1.626-2.127 3.678zm5.955-.15c0 3.428-1.802 5.129-3.88 5.129-2.025 0-3.776-1.626-3.802-4.88 0-3.277 1.777-5.103 3.928-5.103 2.278 0 3.754 1.75 3.754 4.854zm-14.638 5.229L114.56 53.7h1.4l-9.557 16.813h-1.402zm-1.901-11.81c-.05 2.077.726 3.653 2.102 3.653 1.45 0 2.1-1.551 2.1-3.702 0-1.977-.574-3.628-2.1-3.628-1.376 0-2.102 1.626-2.102 3.678zm5.955-.15c0 3.428-1.802 5.13-3.903 5.13-2.027 0-3.778-1.627-3.803-4.904 0-3.253 1.776-5.08 3.928-5.08 2.277 0 3.778 1.752 3.778 4.854z" fill="#FFF" mask="url(#n)"/></g></g></svg>