<svg width="203" height="184" viewBox="0 0 203 184" xmlns="http://www.w3.org/2000/svg" xmlns:xlink="http://www.w3.org/1999/xlink"><title>Code Discount</title><defs><path id="b" d="M0 0h204v185H0z"/><rect id="a" x="1" y="185" width="203" height="2" rx="1"/><mask id="d" x="0" y="0" width="203" height="2" fill="#fff"><use xlink:href="#a"/></mask><path id="e" d="M0 124V.751h198.693v123.247H0z"/></defs><g transform="translate(-1 -3)" fill="none" fill-rule="evenodd"><mask id="c" fill="#fff"><use xlink:href="#b"/></mask><ellipse fill="#F2F2F2" mask="url(#c)" cx="101.5" cy="103" rx="100.5" ry="100"/><use stroke="#000" mask="url(#d)" stroke-width="2" fill="#D8D8D8" xlink:href="#a"/><g><path d="M183.278 138.027c0-9.849 7.983-17.832 17.832-17.832V73.556c0-6.06-4.913-10.973-10.974-10.973H14.556c-6.06 0-10.973 4.913-10.973 10.973v46.639c9.848 0 17.832 7.983 17.832 17.832s-7.984 17.832-17.832 17.832v17.833c0 6.061 4.913 10.974 10.973 10.974h175.58c6.061 0 10.974-4.913 10.974-10.974v-17.833c-9.849 0-17.832-7.983-17.832-17.832" fill="#FFF"/><path d="M183.278 138.027c0 9.849 7.983 17.832 17.832 17.832v17.833c0 6.061-4.913 10.974-10.974 10.974H14.556c-6.06 0-10.973-4.913-10.973-10.974v-17.833c9.848 0 17.832-7.983 17.832-17.832h161.863z" fill="#A8DBD5"/><g transform="translate(3 61.248)"><mask id="f" fill="#fff"><use xlink:href="#e"/></mask><g mask="url(#f)" fill="#000"><path d="M166.951 109H173V86h-6.049zM161.659 109h3.024V86h-3.024zM152.585 109h6.048V86h-6.048zM147.293 109h3.024V86h-3.024zM142 109h3.024V86H142z"/></g><path d="M1.165 95.184v17.26c0 5.73 4.662 10.39 10.392 10.39h175.58c5.73 0 10.39-4.66 10.39-10.39v-17.26c-9.884-.308-17.832-8.446-17.832-18.405 0-9.96 7.948-18.098 17.833-18.407V12.308c0-5.73-4.661-10.392-10.391-10.392H11.557c-5.73 0-10.392 4.662-10.392 10.392v46.064c9.887.31 17.833 8.447 17.833 18.407S11.052 94.876 1.165 95.184M187.137 124H11.557C5.185 124 0 118.816 0 112.444V94.03h.583c9.512 0 17.25-7.739 17.25-17.25 0-9.512-7.738-17.25-17.25-17.25H0V12.31C0 5.935 5.185.75 11.557.75h175.58c6.372 0 11.556 5.185 11.556 11.557V59.53h-.583c-9.511 0-17.25 7.738-17.25 17.25 0 9.511 7.739 17.25 17.25 17.25h.583v18.415c0 6.372-5.184 11.555-11.556 11.555" fill="#000" mask="url(#f)"/></g><text font-family="OpenSans-Light, Open Sans" font-size="24" font-weight="300" fill="#000" transform="translate(3 61)"><tspan x="20" y="41">X6W87</tspan></text><path d="M192.88 109.419a.437.437 0 0 1-.437-.437V79.84c0-4.737-4.282-8.591-9.545-8.591H23.168c-5.264 0-9.546 3.854-9.546 8.59v28.969a.437.437 0 0 1-.874 0V79.84c0-5.22 4.675-9.465 10.42-9.465h159.73c5.745 0 10.419 4.246 10.419 9.465v29.14a.437.437 0 0 1-.437.438" fill="#A8DBD5"/><path d="M181.525 176.778H21.796c-5.826 0-10.566-4.311-10.566-9.609v-4.451a.583.583 0 1 1 1.165 0v4.451c0 4.656 4.218 8.444 9.401 8.444h159.73c5.183 0 9.4-3.788 9.4-8.444v-4.278a.583.583 0 0 1 1.164 0v4.278c0 5.298-4.739 9.609-10.565 9.609" fill="#00B49F"/><path d="M183.278 139.4H22.788" fill="#FFF"/><path d="M183.278 139.4h-1" stroke="#000" stroke-width="2" stroke-linecap="round" stroke-linejoin="round"/><path d="M173.71 139.4h-17.133" stroke="#000" stroke-width="2" stroke-linecap="round" stroke-linejoin="round" stroke-dasharray="2.142,8.567,2.142,8.567"/><path d="M152.293 139.4H28.07" stroke="#000" stroke-width="2" stroke-linecap="round" stroke-linejoin="round" stroke-dasharray="2.142,8.567,2.142,8.567,2.142,8.567"/><path d="M23.787 139.4h-1" stroke="#000" stroke-width="2" stroke-linecap="round" stroke-linejoin="round"/><path d="M163.644 106.396c-.052 4.317 1.612 7.594 4.421 7.594 3.016 0 4.369-3.225 4.369-7.698 0-4.11-1.196-7.542-4.369-7.542-2.86 0-4.421 3.38-4.421 7.646zm12.38-.312c0 7.126-3.745 10.663-8.063 10.663-4.213 0-7.854-3.381-7.907-10.143 0-6.814 3.694-10.611 8.167-10.611 4.734 0 7.803 3.64 7.803 10.091zm-30.43 10.871L165.464 82h2.913l-19.87 34.955h-2.913zm-3.953-24.551c-.104 4.317 1.509 7.594 4.369 7.594 3.018 0 4.369-3.225 4.369-7.699 0-4.109-1.196-7.542-4.369-7.542-2.86 0-4.369 3.381-4.369 7.647zm12.38-.313c0 7.126-3.745 10.663-8.114 10.663-4.214 0-7.855-3.38-7.907-10.195C138 85.797 141.693 82 146.166 82c4.734 0 7.855 3.641 7.855 10.091z" fill="#00B49F"/></g></g></svg>