<svg width="203" height="201" viewBox="0 0 203 201" xmlns="http://www.w3.org/2000/svg" xmlns:xlink="http://www.w3.org/1999/xlink"><title>Product Discount</title><defs><rect id="a" y="199" width="203" height="2" rx="1"/><mask id="b" x="0" y="0" width="203" height="2" fill="#fff"><use xlink:href="#a"/></mask><path id="c" d="M0 0h204v185H0z"/></defs><g fill="none" fill-rule="evenodd"><use stroke="#000" mask="url(#b)" stroke-width="2" fill="#D8D8D8" xlink:href="#a"/><g transform="translate(0 14)"><mask id="d" fill="#fff"><use xlink:href="#c"/></mask><ellipse fill="#F2F2F2" mask="url(#d)" cx="101.5" cy="103" rx="100.5" ry="100"/></g><path fill="#A8DBD5" d="M105.766 101.436l7.977-43.715-3.032-15.155-9.731 25.367-6.382 39.564-17.23 85.356h26.96z"/><path fill="#FFF" d="M40 1h79v137H40z"/><path d="M38.152 193.3h80.983V0H38.152v193.3zm1.849-1.85h77.285V1.849H40.001V191.45z" fill="#000"/><path fill="#A8DBD5" d="M40.395 192.375h13.998V1.244H40.395z"/><path d="M38.152 6.954h80.983V0H38.152v6.954zm1.849-1.849h77.285V1.849H40.001v3.256z" fill="#000"/><path fill="#A8DBD5" d="M101.617 194.608h63.322V88.672h-63.322z"/><path d="M102.542 193.684h61.473V89.598h-61.473v104.086zm-1.85 1.849h65.172V87.748h-65.172v107.785z" fill="#000"/><path fill="#FFF" d="M129.894 96.638h4.778v-7.169h-4.778z"/><path fill="#00B49F" d="M102.383 194.078h18.749V89.469h-18.749z"/><path d="M101.849 92.822h62.859v-3.918h-62.859v3.918zm-.463.462h63.785v-4.843h-63.785v4.843z" fill="#000"/><path fill="#FFF" d="M145.027 184.254h9.558v-54.959h-9.558z"/><path fill="#00B49F" d="M78.597 193.054l-17.486-3.677L92.735 38.97l17.486 3.677z"/><path d="M62.205 188.662l15.677 3.297 31.244-148.597-15.677-3.296-31.244 148.596zm17.106 5.487l-19.296-4.057.19-.905L92.02 37.875l19.296 4.058-.19.904L79.311 194.15z" fill="#000"/><path fill="#FFF" d="M82.411 111.33l-4.37-.92 6.002-28.55 4.371.92z"/><path fill="#00B49F" d="M109.035 52.941l-19.36-4.07 2.196-10.446 19.36 4.071z"/><path d="M90.77 48.155l17.55 3.69 1.816-8.634-17.55-3.69-1.816 8.634zm18.98 5.881l-21.17-4.45 2.576-12.256 21.17 4.451-2.576 12.255z" fill="#000"/><path fill="#A8DBD5" d="M61.184 158.599h115.962v-28.685H61.184z"/><path fill="#FFF" d="M61.185 198.271h116.572v-67.746H61.185z"/><path d="M60.26 199.194h118.421V129.6H60.26v69.594zm1.848-1.849h114.724v-65.896H62.108v65.896z" fill="#000"/><path fill="#A8DBD5" d="M27.7 198.575h33.485v-68.051H27.7z"/><path d="M26.774 199.5h35.334v-69.9H26.774v69.9zm1.85-1.85H60.26v-66.201H28.624v66.201z" fill="#000"/><path fill="#000" d="M27.617 158.599h33.568v-28.685H27.617z"/><path fill="#FFF" d="M15.5 108h23v21.006h-11zM188 108h-22.506v21.553h11.52z"/><path d="M28.153 129.447h9.524v-20.58H16.393l11.76 20.58zm11.374 1.85H27.08l-13.873-24.28h26.321v24.28zM166.475 128.836h10.102l10.054-19.97h-20.156v19.97zm11.24 1.85h-13.09v-23.668h25.008l-11.917 23.668z" fill="#000"/><path fill="#00B49F" d="M146.02 192.777h23.192V180.57H146.02z"/><path fill="#FFF" d="M61.185 129.914H27.617L13.58 154.937h33.567z"/><path d="M27.075 128.99L12 155.86h35.689l15.074-26.871H27.075zm1.082 1.849h31.449l-13 23.174H15.158l12.999-23.174z" fill="#000"/><path fill="#FFF" d="M177.147 129.914H60.575l11.594 25.023h117.183z"/><path d="M59.126 128.99L71.58 155.86h119.253l-13.11-26.871H59.127zm2.895 1.849h114.548l11.304 23.174H72.76L62.02 130.84zM89.267 126.814a.924.924 0 0 1-.86-.582c-3.185-7.966-3.051-15.076.4-21.13 4.055-7.114 12.02-11.402 17.993-13.746 6.412-2.516 11.802-3.372 12.028-3.408a.924.924 0 1 1 .284 1.828c-.214.034-21.424 3.476-28.7 16.246-3.157 5.538-3.253 12.108-.287 19.524a.924.924 0 0 1-.858 1.268" fill="#000"/><path fill="#A8DBD5" d="M113.602 135.903l-12.64-3.952L88.325 128l-3.162 12.858L82 153.718l23.12 41.015 31.6-17.814z"/><path fill="#000" d="M114.42 132.908l-12.618-3.946-12.616-3.944-3.156 12.838-3.158 12.836 23.08 40.946 31.548-17.782z"/><path d="M112.978 161.635c.895 1.722 2.25 2.67 3.367 2.072 1.193-.638 1.045-2.204.095-3.978-.87-1.63-2.072-2.738-3.332-2.064-1.134.606-1.034 2.278-.13 3.97zm4.845-2.75c1.511 2.824.778 5.022-.937 5.938-1.67.894-3.832.326-5.286-2.344-1.446-2.704-.788-4.992.986-5.942 1.876-1.004 3.866-.21 5.236 2.348zm-9.762 10.766l.463-18.076 1.156-.62-.466 18.078-1.154.618zm-6.777-8.896c.874 1.732 2.208 2.688 3.344 2.084 1.197-.642 1.049-2.208.1-3.982-.873-1.628-2.075-2.736-3.333-2.064-1.135.608-1.017 2.27-.11 3.962zm4.844-2.752c1.512 2.826.777 5.022-.956 5.95-1.67.892-3.831.326-5.3-2.366-1.433-2.68-.773-4.97 1-5.92 1.877-1.004 3.889-.222 5.257 2.336z" fill="#FFF"/></g></svg>