<?xml version="1.0" encoding="UTF-8" standalone="no"?>
<svg width="54px" height="54px" viewBox="0 0 54 54" version="1.1" xmlns="http://www.w3.org/2000/svg" xmlns:xlink="http://www.w3.org/1999/xlink">
    <!-- Generator: Sketch 39.1 (31720) - http://www.bohemiancoding.com/sketch -->
    <title>image__broken</title>
    <desc>Created with Sketch.</desc>
    <defs>
        <polygon id="path-1" points="0 42 48 42 48 0 0 0"></polygon>
        <polygon id="path-3" points="0 42 48 42 48 0 0 0"></polygon>
        <polygon id="path-5" points="0 42 48 42 48 0 0 0"></polygon>
        <polygon id="path-7" points="0 42 48 42 48 0 0 0"></polygon>
    </defs>
    <g id="Page-1" stroke="none" stroke-width="1" fill="none" fill-rule="evenodd">
        <g id="image__broken">
            <g id="Page-1">
                <g id="Group-3" fill="#FFFFFF">
                    <rect id="Image-" x="0" y="0" width="54" height="54"></rect>
                </g>
                <g id="ICON:-IMG-error" transform="translate(3.000000, 7.000000)">
                    <g id="Page-1">
                        <path d="M39,29.8133768 C39,30.4696268 38.53,31.0143143 37.8633333,31.0143143 L9.88,31.0143143 C9.21333333,31.0143143 8.66666667,30.4696268 8.66666667,29.8133768 L8.66666667,26.3300018 L6.33333333,26.8513924 L6.33333333,29.8133768 C6.33333333,31.7788455 7.88333333,33.3111893 9.88,33.3111893 L37.8633333,33.3111893 C39.86,33.3111893 41.3333333,31.7788455 41.3333333,29.8133768 L41.3333333,26.4451737 L39,27.1962518 L39,29.8133768 L39,29.8133768 Z" id="Fill-10" fill="#666666"></path>
                        <path d="M37.8633333,10.9956245 L31.05,10.9956245 L29.4566667,6.72999954 L18.2866667,6.72999954 L16.6933333,10.9956245 L9.88,10.9956245 C7.88333333,10.9956245 6.33333333,12.4754683 6.33333333,14.440937 L6.33333333,18.7741558 L8.66666667,18.252437 L8.66666667,14.440937 C8.66666667,13.784687 9.21333333,13.2924995 9.88,13.2924995 L18.3633333,13.2924995 L19.9566667,9.02687454 L27.7866667,9.02687454 L29.38,13.2924995 L37.8633333,13.2924995 C38.53,13.2924995 39,13.784687 39,14.440937 L39,18.8814526 L41.3333333,18.1303745 L41.3333333,14.440937 C41.3333333,12.4754683 39.86,10.9956245 37.8633333,10.9956245" id="Fill-12" fill="#666666"></path>
                        <g id="Fill-14-Clipped" transform="translate(0.000000, 0.500000)">
                            <mask id="mask-2" fill="white">
                                <use xlink:href="#path-1"></use>
                            </mask>
                            <g id="path-1"></g>
                            <polygon id="Fill-14" fill="#666666" mask="url(#mask-2)" points="33.3333333 17.390625 37.3333333 17.390625 37.3333333 14.765625 33.3333333 14.765625"></polygon>
                        </g>
                        <g id="Fill-16-Clipped" transform="translate(0.000000, 0.500000)">
                            <mask id="mask-4" fill="white">
                                <use xlink:href="#path-3"></use>
                            </mask>
                            <g id="path-1"></g>
                            <path d="M30.9866667,17.1510938 C29.5233333,14.6573438 26.7966667,13.1085937 23.8733333,13.1085937 C20.9466667,13.1085937 18.22,14.6573438 16.7566667,17.1510938 C16.267,17.9855156 15.9453333,18.8878594 15.7833333,19.8118594 L15.997,20.0225156 L18.6346667,18.2713125 C18.6423333,18.2578594 18.649,18.2440781 18.6566667,18.230625 C19.7333333,16.3964063 21.72,15.2676563 23.8733333,15.2676563 C26.0233333,15.2676563 28.01,16.3996875 29.0833333,18.230625 C29.0936667,18.2480156 29.102,18.2663906 29.1123333,18.2841094 L31.82,19.159875 C31.6373333,18.46425 31.3603333,17.7879844 30.9866667,17.1510938" id="Fill-16" fill="#666666" mask="url(#mask-4)"></path>
                        </g>
                        <g id="Fill-17-Clipped" transform="translate(0.000000, 0.500000)">
                            <mask id="mask-6" fill="white">
                                <use xlink:href="#path-5"></use>
                            </mask>
                            <g id="path-1"></g>
                            <path d="M23.87,27.1195312 C22.7843333,27.1195312 21.7406667,26.8307812 20.8343333,26.3097187 L18.8753333,27.6100781 C20.2893333,28.6755 22.0423333,29.281875 23.8733333,29.281875 C26.127,29.281875 28.261,28.3585312 29.792,26.7930469 L27.3723333,26.0104687 C26.3666667,26.7185625 25.1473333,27.1195312 23.87,27.1195312" id="Fill-17" fill="#666666" mask="url(#mask-6)"></path>
                        </g>
                        <g id="Fill-19-Clipped" transform="translate(0.000000, 0.500000)">
                            <mask id="mask-8" fill="white">
                                <use xlink:href="#path-7"></use>
                            </mask>
                            <g id="path-1"></g>
                            <polygon id="Fill-19" fill="#E60050" mask="url(#mask-8)" points="47.0511 18.4791469 41.3334333 20.3543812 41.3334333 20.4052406 39.0001 21.1563187 34.2911 22.7339437 32.0397667 21.9940219 29.8874333 21.2977406 22.4624333 18.8961937 17.8987667 21.9261 15.9254333 23.2363031 15.6657667 23.4085687 11.9194333 19.7240531 8.66676667 20.448225 6.33343333 20.9699437 6.33343333 20.9860219 0.0001 22.3815375 0.0001 25.0728187 6.33343333 23.6776312 6.33343333 23.661225 8.66676667 23.1398344 11.0737667 22.6040062 15.3344333 26.7944906 17.0301 25.6686937 18.8494333 24.4608656 22.8707667 21.7912406 29.2477667 23.8538344 31.3484333 24.5333812 34.3024333 25.5006937 39.0001 23.9270062 41.3334333 23.1759281 41.3334333 23.1247406 47.1287667 21.2239125 48.0001 21.4401469 48.0001 18.7167094"></polygon>
                        </g>
                    </g>
                </g>
            </g>
        </g>
    </g>
</svg>