<?xml version="1.0" encoding="UTF-8" standalone="no"?>
<svg width="54px" height="54px" viewBox="0 0 54 54" version="1.1" xmlns="http://www.w3.org/2000/svg" xmlns:xlink="http://www.w3.org/1999/xlink">
    <!-- Generator: Sketch 39.1 (31720) - http://www.bohemiancoding.com/sketch -->
    <title>image__no-image</title>
    <desc>Created with Sketch.</desc>
    <defs>
        <polygon id="path-1" points="0 42 48 42 48 0 0 0"></polygon>
        <polygon id="path-3" points="0 42 48 42 48 0 0 0"></polygon>
    </defs>
    <g id="Page-1" stroke="none" stroke-width="1" fill="none" fill-rule="evenodd">
        <g id="image__no-image">
            <g id="Page-1">
                <rect id="Image-" fill="#FFFFFF" x="0" y="0" width="54" height="54"></rect>
                <g id="Page-1-Copy" transform="translate(3.000000, 6.000000)">
                    <g id="ICO:IMG-camera">
                        <g id="Page-1" transform="translate(0.000000, 0.500000)">
                            <path d="M39.0733333,30.3146875 L39.0733333,14.9453125 C39.0733333,14.2890625 38.53,13.7575 37.8633333,13.7575 L29.38,13.7575 L27.7866667,9.596875 L19.9566667,9.596875 L18.3633333,13.7575 L9.88,13.7575 C9.21333333,13.7575 8.67333333,14.2890625 8.67333333,14.9453125 L8.67333333,30.3146875 C8.67333333,30.9709375 9.21333333,31.5025 9.88,31.5025 L37.8633333,31.5025 C38.53,31.5025 39.0733333,30.9709375 39.0733333,30.3146875 M41.4866667,14.9453125 L41.4866667,30.3146875 C41.4866667,32.2801562 39.86,33.878125 37.8633333,33.878125 L9.88,33.878125 C7.88333333,33.878125 6.26,32.2801562 6.26,30.3146875 L6.26,14.9453125 C6.26,12.9798437 7.88333333,11.3785937 9.88,11.3785937 L16.6933333,11.3785937 L18.2866667,7.22125 L29.4566667,7.22125 L31.05,11.3785937 L37.8633333,11.3785937 C39.86,11.3785937 41.4866667,12.9798437 41.4866667,14.9453125" id="Fill-3" fill="#666666"></path>
                            <g id="Fill-5-Clipped">
                                <mask id="mask-2" fill="white">
                                    <use xlink:href="#path-1"></use>
                                </mask>
                                <g id="path-1"></g>
                                <polygon id="Fill-5" fill="#666666" mask="url(#mask-2)" points="33.1833333 17.50875 37.4066667 17.50875 37.4066667 14.8345312 33.1833333 14.8345312"></polygon>
                            </g>
                            <g id="Fill-7-Clipped">
                                <mask id="mask-4" fill="white">
                                    <use xlink:href="#path-3"></use>
                                </mask>
                                <g id="path-1"></g>
                                <path d="M29.0833333,24.1565625 C30.16,22.325625 30.16,20.0648438 29.0833333,18.230625 C28.01,16.3996875 26.0233333,15.2676563 23.8733333,15.2676563 C21.72,15.2676563 19.7333333,16.3964063 18.6566667,18.230625 C17.5833333,20.0648438 17.5833333,22.3223438 18.6566667,24.1565625 C19.7333333,25.9907813 21.72,27.1195313 23.87,27.1195313 C26.02,27.1195313 28.01,25.9907813 29.0833333,24.1565625 M30.9866667,17.1510938 C32.45,19.6448438 32.45,22.7423438 30.9866667,25.2360938 C29.5233333,27.733125 26.7966667,29.281875 23.8733333,29.281875 C20.9466667,29.281875 18.22,27.733125 16.7566667,25.2360938 C15.2933333,22.7423438 15.2933333,19.6448438 16.7566667,17.1510938 C18.22,14.6573438 20.9466667,13.1085938 23.8733333,13.1085938 C26.7966667,13.1085938 29.5233333,14.6573438 30.9866667,17.1510938" id="Fill-7" fill="#666666" mask="url(#mask-4)"></path>
                            </g>
                        </g>
                    </g>
                </g>
            </g>
        </g>
    </g>
</svg>