<?xml version="1.0" encoding="UTF-8" standalone="no"?>
<svg width="54px" height="54px" viewBox="0 0 54 54" version="1.1" xmlns="http://www.w3.org/2000/svg" xmlns:xlink="http://www.w3.org/1999/xlink">
    <!-- Generator: Sketch 39.1 (31720) - http://www.bohemiancoding.com/sketch -->
    <title>link-external__working</title>
    <desc>Created with Sketch.</desc>
    <defs>
        <polygon id="path-1" points="0 44.4 48 44.4 48 0 0 0"></polygon>
        <polygon id="path-3" points="0 44.4 48 44.4 48 0 0 0"></polygon>
        <polygon id="path-5" points="0 44.4 48 44.4 48 0 0 0"></polygon>
        <polygon id="path-7" points="0 44.4 48 44.4 48 0 0 0"></polygon>
        <polygon id="path-9" points="0 44.4 48 44.4 48 0 0 0"></polygon>
        <polygon id="path-11" points="0 44.4 48 44.4 48 0 0 0"></polygon>
    </defs>
    <g id="Page-1" stroke="none" stroke-width="1" fill="none" fill-rule="evenodd">
        <g id="link-external__working">
            <g id="Page-1">
                <g id="Group-3">
                    <g id="Group-3-Copy-3" fill="#FFFFFF">
                        <rect id="Image-" x="0" y="0" width="54" height="54"></rect>
                    </g>
                    <g id="Page-1-Copy-4" transform="translate(4.500000, 8.000000)">
                        <g id="ICO:IMG-link">
                            <g id="Page-1">
                                <path d="M38.32,26.69409 L38.32,12.64209 C38.32,10.84509 36.856,9.38109 35.059,9.38109 L28.927,9.38109 L27.493,5.58009 L17.44,5.58009 L16.006,9.38109 L9.874,9.38109 C8.077,9.38109 6.616,10.84509 6.616,12.64209 L6.616,26.69409 C6.616,28.49109 8.077,29.95209 9.874,29.95209 L35.059,29.95209 C36.856,29.95209 38.32,28.49109 38.32,26.69409 L38.32,26.69409 L38.32,26.69409 Z M41.8,7.08909 L41.8,31.31409 C41.8,33.89709 39.697,36.00009 37.111,36.00009 L8.086,36.00009 C5.503,36.00009 3.4,33.89709 3.4,31.31409 L3.4,7.08909 C3.4,4.50309 5.503,2.40009 8.086,2.40009 L37.111,2.40009 C39.697,2.40009 41.8,4.50309 41.8,7.08909 L41.8,7.08909 L41.8,7.08909 Z" id="Fill-1" fill="#FFFFFF"></path>
                                <path d="M41.8000007,31.31406 L41.8000007,7.08906 C41.8000007,4.50306 39.6970007,2.40006 37.1110006,2.40006 L8.08600013,2.40006 C5.50300008,2.40006 3.40000004,4.50306 3.40000004,7.08906 L3.40000004,31.31406 C3.40000004,33.89706 5.50300008,36.00006 8.08600013,36.00006 L37.1110006,36.00006 C39.6970007,36.00006 41.8000007,33.89706 41.8000007,31.31406 M44.2000008,7.08906 L44.2000008,31.31406 C44.2000008,35.22006 41.0200007,38.40006 37.1110006,38.40006 L8.08600013,38.40006 C4.18000006,38.40006 1,35.22006 1,31.31406 L1,7.08906 C1,3.18006 4.18000006,6e-05 8.08600013,6e-05 L37.1110006,6e-05 C41.0200007,6e-05 44.2000008,3.18006 44.2000008,7.08906" id="Fill-3" fill="#848484"></path>
                                <path d="M36.148,26.69409 L36.148,12.64209 C36.148,12.04209 35.659,11.55609 35.059,11.55609 L27.424,11.55609 L25.99,7.75209 L18.943,7.75209 L17.509,11.55609 L9.874,11.55609 C9.274,11.55609 8.788,12.04209 8.788,12.64209 L8.788,26.69409 C8.788,27.29409 9.274,27.78009 9.874,27.78009 L35.059,27.78009 C35.659,27.78009 36.148,27.29409 36.148,26.69409 M38.32,12.64209 L38.32,26.69409 C38.32,28.49109 36.856,29.95209 35.059,29.95209 L9.874,29.95209 C8.077,29.95209 6.616,28.49109 6.616,26.69409 L6.616,12.64209 C6.616,10.84509 8.077,9.38109 9.874,9.38109 L16.006,9.38109 L17.44,5.58009 L27.493,5.58009 L28.927,9.38109 L35.059,9.38109 C36.856,9.38109 38.32,10.84509 38.32,12.64209" id="Fill-5" fill="#484848"></path>
                                <g id="Fill-7-Clipped" transform="translate(1.000000, 0.000000)">
                                    <mask id="mask-2" fill="white">
                                        <use xlink:href="#path-1"></use>
                                    </mask>
                                    <g id="path-1"></g>
                                    <polygon id="Fill-7" fill="#484848" mask="url(#mask-2)" points="29.847 15.9 33.648 15.9 33.648 13.455 29.847 13.455"></polygon>
                                </g>
                                <g id="Fill-9-Clipped" transform="translate(1.000000, 0.000000)">
                                    <mask id="mask-4" fill="white">
                                        <use xlink:href="#path-3"></use>
                                    </mask>
                                    <g id="path-1"></g>
                                    <path d="M26.157,21.97809 C27.126,20.30409 27.126,18.23709 26.157,16.56009 C25.191,14.88609 23.403,13.85109 21.468,13.85109 C19.53,13.85109 17.742,14.88309 16.773,16.56009 C15.807,18.23709 15.807,20.30109 16.773,21.97809 C17.742,23.65509 19.53,24.68709 21.465,24.68709 C23.4,24.68709 25.191,23.65509 26.157,21.97809 M27.87,15.57309 C29.187,17.85309 29.187,20.68509 27.87,22.96509 C26.553,25.24809 24.099,26.66409 21.468,26.66409 C18.834,26.66409 16.38,25.24809 15.063,22.96509 C13.746,20.68509 13.746,17.85309 15.063,15.57309 C16.38,13.29309 18.834,11.87709 21.468,11.87709 C24.099,11.87709 26.553,13.29309 27.87,15.57309" id="Fill-9" fill="#484848" mask="url(#mask-4)"></path>
                                </g>
                                <g id="Fill-10-Clipped">
                                    <mask id="mask-6" fill="white">
                                        <use xlink:href="#path-5"></use>
                                    </mask>
                                    <g id="path-1"></g>
                                    <path d="M46.05678,22.64496 C48.64758,27.13236 48.64758,32.66106 46.05678,37.14846 C43.46628,41.63556 38.67828,44.40006 33.49668,44.40006 C28.31508,44.40006 23.52708,41.63556 20.93658,37.14846 C18.34578,32.66106 18.34578,27.13236 20.93658,22.64496 C23.52708,18.15756 28.31508,15.39336 33.49668,15.39336 C38.67828,15.39336 43.46628,18.15756 46.05678,22.64496 L46.05678,22.64496 Z" id="Fill-10" fill="#AEAEAE" mask="url(#mask-6)"></path>
                                </g>
                                <g id="Fill-11-Clipped">
                                    <mask id="mask-8" fill="white">
                                        <use xlink:href="#path-7"></use>
                                    </mask>
                                    <g id="path-1"></g>
                                    <path d="M31.19211,35.36271 C30.50481,36.04971 29.38671,36.05001 28.69971,35.36301 L28.03131,34.69461 C27.69891,34.36191 27.51531,33.91911 27.51531,33.44841 C27.51531,32.97771 27.69891,32.53521 28.03131,32.20251 L30.71121,29.52261 L29.15661,27.96771 L26.47671,30.64761 C25.72851,31.39551 25.31631,32.39031 25.31631,33.44841 C25.31631,34.50651 25.72851,35.50131 26.47671,36.24951 L27.14481,36.91761 C27.91701,37.69011 28.93131,38.07591 29.94591,38.07591 C30.95991,38.07591 31.97451,37.68981 32.74671,36.91761 L35.42661,34.23771 L33.87201,32.68281 L31.19211,35.36271 L31.19211,35.36271 Z" id="Fill-11" fill="#FFFFFF" mask="url(#mask-8)"></path>
                                </g>
                                <g id="Fill-12-Clipped">
                                    <mask id="mask-10" fill="white">
                                        <use xlink:href="#path-9"></use>
                                    </mask>
                                    <g id="path-1"></g>
                                    <path d="M40.51668,23.5458 L39.84858,22.8777 C39.10038,22.1295 38.10558,21.7173 37.04748,21.7173 C35.98968,21.7173 34.99458,22.1295 34.24668,22.8777 L31.56678,25.5576 L33.12138,27.1125 L35.80128,24.4326 C36.13428,24.0996 36.57678,23.9163 37.04748,23.9163 C37.51818,23.9163 37.96098,24.0996 38.29368,24.4326 L38.96208,25.1007 C39.29448,25.4334 39.47808,25.8759 39.47808,26.3466 C39.47808,26.8176 39.29448,27.2601 38.96208,27.5928 L36.28218,30.2727 L37.83678,31.8276 L40.51668,29.1477 C41.26488,28.3995 41.67678,27.405 41.67678,26.3466 C41.67678,25.2888 41.26488,24.294 40.51668,23.5458" id="Fill-12" fill="#FFFFFF" mask="url(#mask-10)"></path>
                                </g>
                                <g id="Fill-13-Clipped">
                                    <mask id="mask-12" fill="white">
                                        <use xlink:href="#path-11"></use>
                                    </mask>
                                    <g id="path-1"></g>
                                    <path d="M30.1953,33.12654 C30.4098,33.34104 30.6915,33.44844 30.9726,33.44844 C31.254,33.44844 31.5354,33.34104 31.7499,33.12654 L36.7254,28.15104 C37.155,27.72174 37.155,27.02544 36.7254,26.59614 C36.2964,26.16684 35.5998,26.16684 35.1708,26.59614 L30.1953,31.57164 C29.7657,32.00094 29.7657,32.69724 30.1953,33.12654" id="Fill-13" fill="#FFFFFF" mask="url(#mask-12)"></path>
                                </g>
                            </g>
                        </g>
                    </g>
                </g>
            </g>
        </g>
    </g>
</svg>