<?xml version="1.0" encoding="UTF-8" standalone="no"?>
<svg width="54px" height="54px" viewBox="0 0 54 54" version="1.1" xmlns="http://www.w3.org/2000/svg" xmlns:xlink="http://www.w3.org/1999/xlink">
    <!-- Generator: Sketch 39.1 (31720) - http://www.bohemiancoding.com/sketch -->
    <title>link-external__broken</title>
    <desc>Created with Sketch.</desc>
    <defs>
        <polygon id="path-1" points="0 44.4 48 44.4 48 0 0 0"></polygon>
        <polygon id="path-3" points="0 44.4 48 44.4 48 0 0 0"></polygon>
        <polygon id="path-5" points="0 44.4 48 44.4 48 0 0 0"></polygon>
        <polygon id="path-7" points="0 44.4 48 44.4 48 0 0 0"></polygon>
    </defs>
    <g id="Page-1" stroke="none" stroke-width="1" fill="none" fill-rule="evenodd">
        <g id="link-external__broken">
            <g id="Page-1">
                <g id="Group-3-Copy" fill="#FFFFFF">
                    <rect id="Image-" x="0" y="0" width="54" height="54"></rect>
                </g>
                <g id="ICO:IMG-link-broken" transform="translate(4.400000, 7.900000)">
                    <g id="Page-1">
                        <path d="M38.32,26.694 L38.32,12.642 C38.32,10.845 36.856,9.381 35.059,9.381 L28.927,9.381 L27.493,5.58 L17.44,5.58 L16.006,9.381 L9.874,9.381 C8.077,9.381 6.616,10.845 6.616,12.642 L6.616,26.694 C6.616,28.491 8.077,29.952 9.874,29.952 L35.059,29.952 C36.856,29.952 38.32,28.491 38.32,26.694 L38.32,26.694 L38.32,26.694 Z M41.8,7.089 L41.8,31.314 C41.8,33.897 39.697,36 37.111,36 L8.086,36 C5.503,36 3.4,33.897 3.4,31.314 L3.4,7.089 C3.4,4.503 5.503,2.4 8.086,2.4 L37.111,2.4 C39.697,2.4 41.8,4.503 41.8,7.089 L41.8,7.089 L41.8,7.089 Z" id="Fill-1" fill="#FFFFFF"></path>
                        <path d="M41.8,31.314 L41.8,7.089 C41.8,4.503 39.697,2.4 37.111,2.4 L8.086,2.4 C5.503,2.4 3.4,4.503 3.4,7.089 L3.4,31.314 C3.4,33.897 5.503,36 8.086,36 L37.111,36 C39.697,36 41.8,33.897 41.8,31.314 M44.2,7.089 L44.2,31.314 C44.2,35.22 41.02,38.4 37.111,38.4 L8.086,38.4 C4.18,38.4 1,35.22 1,31.314 L1,7.089 C1,3.18 4.18,0 8.086,0 L37.111,0 C41.02,0 44.2,3.18 44.2,7.089" id="Fill-3" fill="#AEAEAE"></path>
                        <path d="M36.148,26.694 L36.148,12.642 C36.148,12.042 35.659,11.556 35.059,11.556 L27.424,11.556 L25.99,7.752 L18.943,7.752 L17.509,11.556 L9.874,11.556 C9.274,11.556 8.788,12.042 8.788,12.642 L8.788,26.694 C8.788,27.294 9.274,27.78 9.874,27.78 L35.059,27.78 C35.659,27.78 36.148,27.294 36.148,26.694 M38.32,12.642 L38.32,26.694 C38.32,28.491 36.856,29.952 35.059,29.952 L9.874,29.952 C8.077,29.952 6.616,28.491 6.616,26.694 L6.616,12.642 C6.616,10.845 8.077,9.381 9.874,9.381 L16.006,9.381 L17.44,5.58 L27.493,5.58 L28.927,9.381 L35.059,9.381 C36.856,9.381 38.32,10.845 38.32,12.642" id="Fill-5" fill="#666666"></path>
                        <g id="Fill-7-Clipped" transform="translate(1.000000, 0.000000)">
                            <mask id="mask-2" fill="white">
                                <use xlink:href="#path-1"></use>
                            </mask>
                            <g id="path-1"></g>
                            <polygon id="Fill-7" fill="#666666" mask="url(#mask-2)" points="29.847 15.9 33.648 15.9 33.648 13.455 29.847 13.455"></polygon>
                        </g>
                        <g id="Fill-9-Clipped" transform="translate(1.000000, 0.000000)">
                            <mask id="mask-4" fill="white">
                                <use xlink:href="#path-3"></use>
                            </mask>
                            <g id="path-1"></g>
                            <path d="M26.157,21.978 C27.126,20.304 27.126,18.237 26.157,16.56 C25.191,14.886 23.403,13.851 21.468,13.851 C19.53,13.851 17.742,14.883 16.773,16.56 C15.807,18.237 15.807,20.301 16.773,21.978 C17.742,23.655 19.53,24.687 21.465,24.687 C23.4,24.687 25.191,23.655 26.157,21.978 M27.87,15.573 C29.187,17.853 29.187,20.685 27.87,22.965 C26.553,25.248 24.099,26.664 21.468,26.664 C18.834,26.664 16.38,25.248 15.063,22.965 C13.746,20.685 13.746,17.853 15.063,15.573 C16.38,13.293 18.834,11.877 21.468,11.877 C24.099,11.877 26.553,13.293 27.87,15.573" id="Fill-9" fill="#666666" mask="url(#mask-4)"></path>
                        </g>
                        <g id="Fill-10-Clipped">
                            <mask id="mask-6" fill="white">
                                <use xlink:href="#path-5"></use>
                            </mask>
                            <g id="path-1"></g>
                            <path d="M46.05678,22.64496 C48.64758,27.13236 48.64758,32.66106 46.05678,37.14846 C43.46628,41.63556 38.67828,44.40006 33.49668,44.40006 C28.31508,44.40006 23.52708,41.63556 20.93658,37.14846 C18.34578,32.66106 18.34578,27.13236 20.93658,22.64496 C23.52708,18.15756 28.31508,15.39336 33.49668,15.39336 C38.67828,15.39336 43.46628,18.15756 46.05678,22.64496 L46.05678,22.64496 Z" id="Fill-10" fill="#E60050" mask="url(#mask-6)"></path>
                        </g>
                        <g id="Group-Clipped">
                            <mask id="mask-8" fill="white">
                                <use xlink:href="#path-7"></use>
                            </mask>
                            <g id="path-1"></g>
                            <g id="Group" mask="url(#mask-8)">
                                <g transform="translate(22.000000, 19.000000)">
                                    <g transform="translate(0.800000, 0.500000)">
                                        <path d="M8.1723,16.08171 C7.485,16.76871 6.3669,16.76901 5.6799,16.08201 L5.0115,15.41361 C4.6791,15.08091 4.4955,14.63811 4.4955,14.16741 C4.4955,13.69671 4.6791,13.25421 5.0115,12.92151 L7.6914,10.24161 L6.1368,8.68671 L3.4569,11.36661 C2.7087,12.11451 2.2965,13.10931 2.2965,14.16741 C2.2965,15.22551 2.7087,16.22031 3.4569,16.96851 L4.125,17.63661 C4.8972,18.40911 5.9115,18.79491 6.9261,18.79491 C7.9401,18.79491 8.9547,18.40881 9.7269,17.63661 L12.4068,14.95671 L10.8522,13.40181 L8.1723,16.08171 L8.1723,16.08171 Z" id="Fill-11" fill="#FFFFFF"></path>
                                        <path d="M10.10148,7.83138 L12.78138,5.15148 C13.11438,4.81878 13.55688,4.63548 14.02788,4.63548 C14.49828,4.63548 14.94108,4.81848 15.27378,5.15148 L15.94218,5.81958 C16.27458,6.15258 16.45818,6.59508 16.45818,7.06578 C16.45818,7.53648 16.27458,7.97898 15.94218,8.31198 L13.26228,10.99188 L14.81688,12.54678 L17.49678,9.86688 C18.24498,9.11868 18.65718,8.12388 18.65718,7.06578 C18.65718,6.00768 18.24498,5.01288 17.49678,4.26468 L16.82868,3.59688 C16.08048,2.84838 15.08568,2.43648 14.02788,2.43648 C12.96978,2.43648 11.97498,2.84838 11.22678,3.59658 L8.54688,6.27648 L10.10148,7.83138 L10.10148,7.83138 Z" id="Fill-12" fill="#FFFFFF"></path>
                                        <polygon id="Fill-13" fill="#FFFFFF" points="6.80376 5.82594 3.79986 2.82204 3.09636 3.52584 6.09996 6.52974"></polygon>
                                        <polygon id="Fill-14" fill="#FFFFFF" points="7.632 4.392 8.532 4.392 8.532 0.192 7.632 0.192"></polygon>
                                        <polygon id="Fill-15" fill="#FFFFFF" points="0.132 8.592 4.332 8.592 4.332 7.692 0.132 7.692"></polygon>
                                        <polygon id="Fill-16" fill="#FFFFFF" points="14.58978 14.9676 17.59368 17.9715 18.29718 17.2677 15.29358 14.2638"></polygon>
                                        <polygon id="Fill-17" fill="#FFFFFF" points="12.432 20.892 13.332 20.892 13.332 16.392 12.432 16.392"></polygon>
                                        <polygon id="Fill-18" fill="#FFFFFF" points="16.632 13.092 20.832 13.092 20.832 12.192 16.632 12.192"></polygon>
                                    </g>
                                </g>
                            </g>
                        </g>
                    </g>
                </g>
            </g>
        </g>
    </g>
</svg>