<svg width="24" height="24" viewBox="0 0 24 24" xmlns="http://www.w3.org/2000/svg">
<path d="M15.125 21.0999L6.70005 12.6999C6.60005 12.5999 6.52938 12.4916 6.48805 12.3749C6.44605 12.2582 6.42505 12.1332 6.42505 11.9999C6.42505 11.8666 6.44605 11.7416 6.48805 11.6249C6.52938 11.5082 6.60005 11.3999 6.70005 11.2999L15.125 2.8749C15.3584 2.64157 15.65 2.5249 16 2.5249C16.35 2.5249 16.65 2.6499 16.9 2.8999C17.15 3.1499 17.275 3.44157 17.275 3.7749C17.275 4.10824 17.15 4.3999 16.9 4.6499L9.55005 11.9999L16.9 19.3499C17.1334 19.5832 17.25 19.8706 17.25 20.2119C17.25 20.5539 17.125 20.8499 16.875 21.0999C16.625 21.3499 16.3334 21.4749 16 21.4749C15.6667 21.4749 15.375 21.3499 15.125 21.0999Z" fill="black"/>
</svg>
