<svg width="24" height="24" viewBox="0 0 24 24" xmlns="http://www.w3.org/2000/svg">
<path d="M15.2639 20.6438L7.26121 12.6649C7.16623 12.5699 7.0991 12.467 7.05984 12.3562C7.01995 12.2454 7 12.1266 7 12C7 11.8734 7.01995 11.7546 7.05984 11.6438C7.0991 11.533 7.16623 11.4301 7.26121 11.3351L15.2639 3.33245C15.4855 3.11082 15.7625 3 16.095 3C16.4274 3 16.7124 3.11873 16.9499 3.3562C17.1873 3.59367 17.3061 3.87071 17.3061 4.18734C17.3061 4.50396 17.1873 4.781 16.9499 5.01847L9.96834 12L16.9499 18.9815C17.1715 19.2032 17.2823 19.4761 17.2823 19.8003C17.2823 20.1252 17.1636 20.4063 16.9261 20.6438C16.6887 20.8813 16.4116 21 16.095 21C15.7784 21 15.5013 20.8813 15.2639 20.6438Z" fill="black"/>
</svg>
