<svg width="24" height="24" viewBox="0 0 24 24" xmlns="http://www.w3.org/2000/svg">
<path d="M20.6438 9.3111L12.6649 17.3137C12.5699 17.4087 12.467 17.4758 12.3562 17.5151C12.2454 17.555 12.1266 17.575 12 17.575C11.8734 17.575 11.7546 17.555 11.6438 17.5151C11.533 17.4758 11.4301 17.4087 11.3351 17.3137L3.33245 9.3111C3.11082 9.08946 3 8.81242 3 8.47997C3 8.14751 3.11873 7.86255 3.3562 7.62508C3.59367 7.38762 3.87071 7.26888 4.18734 7.26888C4.50396 7.26888 4.781 7.38762 5.01847 7.62508L12 14.6066L18.9815 7.62508C19.2032 7.40345 19.4761 7.29263 19.8003 7.29263C20.1252 7.29263 20.4063 7.41136 20.6438 7.64883C20.8813 7.8863 21 8.16334 21 8.47997C21 8.79659 20.8813 9.07363 20.6438 9.3111Z" fill="black"/>
</svg>
