<svg width="24" height="24" viewBox="0 0 24 24" xmlns="http://www.w3.org/2000/svg">
<path d="M9.12505 21.0999L0.700049 12.6999C0.600049 12.5999 0.529382 12.4916 0.488049 12.3749C0.446049 12.2582 0.425049 12.1332 0.425049 11.9999C0.425049 11.8666 0.446049 11.7416 0.488049 11.6249C0.529382 11.5082 0.600049 11.3999 0.700049 11.2999L9.12505 2.8749C9.35838 2.64157 9.65005 2.5249 10 2.5249C10.35 2.5249 10.65 2.6499 10.9 2.8999C11.15 3.1499 11.275 3.44157 11.275 3.7749C11.275 4.10824 11.15 4.3999 10.9 4.6499L3.55005 11.9999L10.9 19.3499C11.1334 19.5832 11.25 19.8706 11.25 20.2119C11.25 20.5539 11.125 20.8499 10.875 21.0999C10.625 21.3499 10.3334 21.4749 10 21.4749C9.66672 21.4749 9.37505 21.3499 9.12505 21.0999Z" fill="black"/>
</svg>
