<svg width="24" height="24" viewBox="0 0 24 24" xmlns="http://www.w3.org/2000/svg">
<path d="M7.35573 20.6443C7.11858 20.4071 7 20.1263 7 19.8019C7 19.4781 7.11858 19.1976 7.35573 18.9605L14.3043 12.0119L7.33202 5.03953C7.11067 4.81818 7 4.5415 7 4.20949C7 3.87747 7.11858 3.59289 7.35573 3.35573C7.59289 3.11858 7.87368 3 8.1981 3C8.5219 3 8.80237 3.11858 9.03953 3.35573L17.0079 11.3478C17.1028 11.4427 17.1701 11.5455 17.21 11.6561C17.2492 11.7668 17.2688 11.8854 17.2688 12.0119C17.2688 12.1383 17.2492 12.2569 17.21 12.3676C17.1701 12.4783 17.1028 12.581 17.0079 12.6759L9.01581 20.668C8.79447 20.8893 8.5219 21 8.1981 21C7.87368 21 7.59289 20.8814 7.35573 20.6443Z" fill="black"/>
</svg>
