<svg width="24" height="24" viewBox="0 0 24 24" xmlns="http://www.w3.org/2000/svg">
<path d="M21.0999 8.87495L12.6999 17.3C12.5999 17.4 12.4916 17.4706 12.3749 17.512C12.2582 17.554 12.1332 17.575 11.9999 17.575C11.8666 17.575 11.7416 17.554 11.6249 17.512C11.5082 17.4706 11.3999 17.4 11.2999 17.3L2.8749 8.87495C2.64157 8.64162 2.5249 8.34995 2.5249 7.99995C2.5249 7.64995 2.6499 7.34995 2.8999 7.09995C3.1499 6.84995 3.44157 6.72495 3.7749 6.72495C4.10824 6.72495 4.3999 6.84995 4.6499 7.09995L11.9999 14.45L19.3499 7.09995C19.5832 6.86662 19.8706 6.74995 20.2119 6.74995C20.5539 6.74995 20.8499 6.87495 21.0999 7.12495C21.3499 7.37495 21.4749 7.66662 21.4749 7.99995C21.4749 8.33328 21.3499 8.62495 21.0999 8.87495Z" fill="black"/>
</svg>
