<svg width="24" height="24" viewBox="0 0 24 24" xmlns="http://www.w3.org/2000/svg">
<path d="M8.2341 7.9422C8.07804 7.78613 8 7.59538 8 7.36994C8 7.14451 8.07804 6.95376 8.2341 6.79769L11.7977 3.2341C11.8844 3.1474 11.9711 3.08671 12.0578 3.05202C12.1445 3.01734 12.2399 3 12.3439 3C12.4306 3 12.5217 3.01734 12.6171 3.05202C12.7124 3.08671 12.8035 3.1474 12.8902 3.2341L16.4538 6.79769C16.6098 6.95376 16.6879 7.14451 16.6879 7.36994C16.6879 7.59538 16.6098 7.78613 16.4538 7.9422C16.2977 8.09827 16.1069 8.1763 15.8815 8.1763C15.6561 8.1763 15.4653 8.09827 15.3092 7.9422L12.3439 4.97688L9.37861 7.9422C9.22254 8.09827 9.03179 8.1763 8.80636 8.1763C8.58093 8.1763 8.39017 8.09827 8.2341 7.9422V7.9422ZM12.3439 21C12.2572 21 12.1662 20.9827 12.0708 20.948C11.9754 20.9133 11.8844 20.8526 11.7977 20.7659L8.2341 17.2023C8.07804 17.0462 8 16.8555 8 16.6301C8 16.4046 8.07804 16.2139 8.2341 16.0578C8.39017 15.9017 8.58093 15.8237 8.80636 15.8237C9.03179 15.8237 9.22254 15.9017 9.37861 16.0578L12.3439 19.0231L15.3092 16.0578C15.4653 15.9017 15.6561 15.8237 15.8815 15.8237C16.1069 15.8237 16.2977 15.9017 16.4538 16.0578C16.6098 16.2139 16.6879 16.4046 16.6879 16.6301C16.6879 16.8555 16.6098 17.0462 16.4538 17.2023L12.8902 20.7659C12.8035 20.8526 12.7168 20.9133 12.6301 20.948C12.5434 20.9827 12.448 21 12.3439 21V21Z" fill="black"/>
</svg>
