<svg width="24" height="24" viewBox="0 0 24 24" fill="none" xmlns="http://www.w3.org/2000/svg">
<path d="M7.1499 21.1C6.8999 20.85 6.7749 20.554 6.7749 20.212C6.7749 19.8707 6.8999 19.575 7.1499 19.325L14.4749 12L7.1249 4.65C6.89157 4.41667 6.7749 4.125 6.7749 3.775C6.7749 3.425 6.8999 3.125 7.1499 2.875C7.3999 2.625 7.6959 2.5 8.0379 2.5C8.37924 2.5 8.6749 2.625 8.9249 2.875L17.3249 11.3C17.4249 11.4 17.4959 11.5083 17.5379 11.625C17.5792 11.7417 17.5999 11.8667 17.5999 12C17.5999 12.1333 17.5792 12.2583 17.5379 12.375C17.4959 12.4917 17.4249 12.6 17.3249 12.7L8.8999 21.125C8.66657 21.3583 8.37924 21.475 8.0379 21.475C7.6959 21.475 7.3999 21.35 7.1499 21.1Z" fill="black"/>
</svg>