<svg width="24" height="24" viewBox="0 0 24 24" xmlns="http://www.w3.org/2000/svg">
<path d="M21.1 16.8501C20.85 17.1001 20.554 17.2251 20.212 17.2251C19.8707 17.2251 19.575 17.1001 19.325 16.8501L12 9.5251L4.65 16.8751C4.41667 17.1084 4.125 17.2251 3.775 17.2251C3.425 17.2251 3.125 17.1001 2.875 16.8501C2.625 16.6001 2.5 16.3041 2.5 15.9621C2.5 15.6208 2.625 15.3251 2.875 15.0751L11.3 6.6751C11.4 6.5751 11.5083 6.5041 11.625 6.4621C11.7417 6.42076 11.8667 6.4001 12 6.4001C12.1333 6.4001 12.2583 6.42076 12.375 6.4621C12.4917 6.5041 12.6 6.5751 12.7 6.6751L21.125 15.1001C21.3583 15.3334 21.475 15.6208 21.475 15.9621C21.475 16.3041 21.35 16.6001 21.1 16.8501Z" fill="black"/>
</svg>
