<svg width="24" height="24" viewBox="0 0 24 24" fill="none" xmlns="http://www.w3.org/2000/svg">
<path d="M8.04995 8.1499C7.89995 7.9999 7.82495 7.81657 7.82495 7.5999C7.82495 7.38324 7.89995 7.1999 8.04995 7.0499L11.475 3.6249C11.5583 3.54157 11.6416 3.48324 11.725 3.4499C11.8083 3.41657 11.9 3.3999 12 3.3999C12.0833 3.3999 12.1708 3.41657 12.2625 3.4499C12.3541 3.48324 12.4416 3.54157 12.525 3.6249L15.95 7.0499C16.1 7.1999 16.175 7.38324 16.175 7.5999C16.175 7.81657 16.1 7.9999 15.95 8.1499C15.8 8.2999 15.6166 8.3749 15.4 8.3749C15.1833 8.3749 15 8.2999 14.85 8.1499L12 5.2999L9.14995 8.1499C8.99995 8.2999 8.81662 8.3749 8.59995 8.3749C8.38329 8.3749 8.19995 8.2999 8.04995 8.1499ZM12 20.6999C11.9166 20.6999 11.8291 20.6832 11.7375 20.6499C11.6458 20.6166 11.5583 20.5582 11.475 20.4749L8.04995 17.0499C7.89995 16.8999 7.82495 16.7166 7.82495 16.4999C7.82495 16.2832 7.89995 16.0999 8.04995 15.9499C8.19995 15.7999 8.38329 15.7249 8.59995 15.7249C8.81662 15.7249 8.99995 15.7999 9.14995 15.9499L12 18.7999L14.85 15.9499C15 15.7999 15.1833 15.7249 15.4 15.7249C15.6166 15.7249 15.8 15.7999 15.95 15.9499C16.1 16.0999 16.175 16.2832 16.175 16.4999C16.175 16.7166 16.1 16.8999 15.95 17.0499L12.525 20.4749C12.4416 20.5582 12.3583 20.6166 12.275 20.6499C12.1916 20.6832 12.1 20.6999 12 20.6999Z" fill="black"/>
</svg>