<svg width="24" height="24" viewBox="0 0 24 24" xmlns="http://www.w3.org/2000/svg">
<path d="M20.6443 16.8694C20.4071 17.1065 20.1263 17.2251 19.8019 17.2251C19.4781 17.2251 19.1976 17.1065 18.9605 16.8694L12.0119 9.92075L5.03953 16.8931C4.81818 17.1144 4.5415 17.2251 4.20949 17.2251C3.87747 17.2251 3.59289 17.1065 3.35573 16.8694C3.11858 16.6322 3 16.3514 3 16.027C3 15.7032 3.11858 15.4227 3.35573 15.1856L11.3478 7.21719C11.4427 7.12233 11.5455 7.05498 11.6561 7.01514C11.7668 6.97593 11.8854 6.95632 12.0119 6.95632C12.1383 6.95632 12.2569 6.97593 12.3676 7.01514C12.4783 7.05498 12.581 7.12233 12.6759 7.21719L20.668 15.2093C20.8893 15.4306 21 15.7032 21 16.027C21 16.3514 20.8814 16.6322 20.6443 16.8694Z" fill="black"/>
</svg>
