<?xml version="1.0" encoding="UTF-8"?>
<svg width="32px" height="32px" viewBox="0 0 32 32" version="1.1" xmlns="http://www.w3.org/2000/svg" xmlns:xlink="http://www.w3.org/1999/xlink">
    <!-- Generator: Sketch 64 (93537) - https://sketch.com -->
    <title>AngleUpDownIcon</title>
    <desc>Created with Sketch.</desc>
    <g id="AngleUpDownIcon" stroke="none" stroke-width="1"  fill-rule="evenodd">
        <g id="Component-/-icon-/-16px-/-angle-/-down-" fill="#1A1A1A">
            <path d="M23.8401286,19.1417519 L23.0385815,18.2827864 C22.931776,18.1680812 22.8087418,18.1109091 22.6696475,18.1109091 C22.5308902,18.1109091 22.4079121,18.1680812 22.3011066,18.2827864 L16.0000842,25.0352915 L9.69934264,18.282967 C9.59248093,18.1682617 9.46950293,18.1110896 9.33057709,18.1110896 C9.1915951,18.1110896 9.06861709,18.1682617 8.96181154,18.282967 L8.1603768,19.1419927 C8.05334662,19.2564572 8,19.3882539 8,19.5372022 C8,19.6860302 8.05351509,19.8178269 8.1603768,19.9322915 L15.6313187,27.9391521 C15.7381242,28.0536768 15.8611584,28.1109091 16.0000842,28.1109091 C16.1390101,28.1109091 16.2618196,28.0536768 16.368569,27.9391521 L23.8401286,19.9322915 C23.9469341,19.8177667 24,19.68597 24,19.5372022 C24,19.3882539 23.9469341,19.2564572 23.8401286,19.1417519 L23.8401286,19.1417519 Z" id="shape"></path>
            <path d="M23.8401286,5.03084284 L23.0385815,4.17187735 C22.931776,4.05717209 22.8087418,4 22.6696475,4 C22.5308902,4 22.4079121,4.05717209 22.3011066,4.17187735 L16.0000842,10.9243824 L9.69934264,4.17205789 C9.59248093,4.05735263 9.46950293,4.00018054 9.33057709,4.00018054 C9.1915951,4.00018054 9.06861709,4.05735263 8.96181154,4.17205789 L8.1603768,5.03108356 C8.05334662,5.1455481 8,5.27734481 8,5.42629314 C8,5.57512111 8.05351509,5.70691782 8.1603768,5.82138236 L15.6313187,13.828243 C15.7381242,13.9427677 15.8611584,14 16.0000842,14 C16.1390101,14 16.2618196,13.9427677 16.368569,13.828243 L23.8401286,5.82138236 C23.9469341,5.70685764 24,5.57506093 24,5.42629314 C24,5.27734481 23.9469341,5.1455481 23.8401286,5.03084284 L23.8401286,5.03084284 Z" id="shape" transform="translate(16.000000, 9.000000) scale(1, -1) translate(-16.000000, -9.000000) "></path>
        </g>
    </g>
</svg>