<svg width="24" height="24" viewBox="0 0 24 24" xmlns="http://www.w3.org/2000/svg">
<path d="M12.046 21C11.7854 21 11.5672 20.9117 11.3913 20.7352C11.2147 20.5592 11.1264 20.341 11.1264 20.0805V6.12644L7.54023 9.68965C7.37165 9.85824 7.16077 9.94651 6.90759 9.95448C6.65502 9.96184 6.43678 9.87356 6.25287 9.68965C6.08429 9.52107 6 9.30651 6 9.04598C6 8.78544 6.08429 8.57088 6.25287 8.4023L11.4023 3.25287C11.4943 3.16092 11.5939 3.09563 11.7011 3.05701C11.8084 3.019 11.9234 3 12.046 3C12.1686 3 12.2835 3.019 12.3908 3.05701C12.4981 3.09563 12.5977 3.16092 12.6897 3.25287L17.8391 8.4023C18.0077 8.57088 18.092 8.78146 18.092 9.03402C18.092 9.2872 18.0077 9.50575 17.8391 9.68965C17.6552 9.87356 17.4366 9.96552 17.1834 9.96552C16.9309 9.96552 16.7126 9.87356 16.5287 9.68965L12.9655 6.12644V20.0805C12.9655 20.341 12.8775 20.5592 12.7016 20.7352C12.5251 20.9117 12.3065 21 12.046 21Z" fill="black"/>
</svg>
