<svg width="24" height="24" viewBox="0 0 24 24" fill="none" xmlns="http://www.w3.org/2000/svg">
<path d="M10.1201 15.1958L4.57441 20.7415C4.40209 20.9138 4.18277 21 3.91645 21C3.65013 21 3.43081 20.9138 3.25849 20.7415C3.08616 20.5692 3 20.3499 3 20.0836C3 19.8172 3.08616 19.5979 3.25849 19.4256L8.80418 13.8799H5.42037C5.15405 13.8799 4.93081 13.7898 4.75065 13.6097C4.5705 13.4295 4.48042 13.2063 4.48042 12.9399C4.48042 12.6736 4.5705 12.4504 4.75065 12.2702C4.93081 12.0901 5.15405 12 5.42037 12H11.0601C11.3264 12 11.5496 12.0901 11.7298 12.2702C11.9099 12.4504 12 12.6736 12 12.9399V18.5796C12 18.846 11.9099 19.0692 11.7298 19.2493C11.5496 19.4295 11.3264 19.5196 11.0601 19.5196C10.7937 19.5196 10.5705 19.4295 10.3903 19.2493C10.2102 19.0692 10.1201 18.846 10.1201 18.5796V15.1958ZM15.1958 10.1201H18.5796C18.846 10.1201 19.0692 10.2102 19.2493 10.3903C19.4295 10.5705 19.5196 10.7937 19.5196 11.0601C19.5196 11.3264 19.4295 11.5496 19.2493 11.7298C19.0692 11.9099 18.846 12 18.5796 12H12.9399C12.6736 12 12.4504 11.9099 12.2702 11.7298C12.0901 11.5496 12 11.3264 12 11.0601V5.42037C12 5.15405 12.0901 4.93081 12.2702 4.75065C12.4504 4.5705 12.6736 4.48042 12.9399 4.48042C13.2063 4.48042 13.4295 4.5705 13.6097 4.75065C13.7898 4.93081 13.8799 5.15405 13.8799 5.42037V8.80418L19.4256 3.25849C19.5979 3.08616 19.8172 3 20.0836 3C20.3499 3 20.5692 3.08616 20.7415 3.25849C20.9138 3.43081 21 3.65013 21 3.91645C21 4.18277 20.9138 4.40209 20.7415 4.57441L15.1958 10.1201Z" fill="black"/>
</svg>
