<svg width="24" height="24" viewBox="0 0 24 24" xmlns="http://www.w3.org/2000/svg">
<path d="M11 18.175V4C11 3.71667 11.096 3.47933 11.288 3.288C11.4793 3.096 11.7166 3 12 3C12.2833 3 12.521 3.096 12.713 3.288C12.9043 3.47933 13 3.71667 13 4V18.175L14.4 16.775C14.5833 16.5917 14.8126 16.5043 15.088 16.513C15.3626 16.521 15.6 16.625 15.8 16.825C15.9833 17.0083 16.075 17.2417 16.075 17.525C16.075 17.8083 15.9833 18.0417 15.8 18.225L12.7 21.3C12.6 21.4 12.4916 21.475 12.375 21.525C12.2583 21.575 12.1333 21.5917 12 21.575C11.8666 21.575 11.7416 21.5543 11.625 21.513C11.5083 21.471 11.4 21.4 11.3 21.3L8.19995 18.2C7.99995 18 7.90428 17.7627 7.91295 17.488C7.92095 17.2127 8.01662 16.9833 8.19995 16.8C8.39995 16.6 8.63762 16.5 8.91295 16.5C9.18762 16.5 9.41662 16.5917 9.59995 16.775L11 18.175Z" fill="black"/>
</svg>
