<svg width="24" height="24" viewBox="0 0 24 24" fill="none" xmlns="http://www.w3.org/2000/svg">
<path d="M12 21.575C11.8667 21.575 11.7417 21.554 11.625 21.512C11.5084 21.4707 11.4 21.4 11.3 21.3L5.70005 15.7C5.51672 15.5167 5.42505 15.2873 5.42505 15.012C5.42505 14.7373 5.51672 14.5 5.70005 14.3C5.90005 14.1 6.13738 14 6.41205 14C6.68738 14 6.92505 14.1 7.12505 14.3L11 18.175V3C11 2.71667 11.096 2.479 11.288 2.287C11.4794 2.09567 11.7167 2 12 2C12.2834 2 12.521 2.09567 12.713 2.287C12.9044 2.479 13 2.71667 13 3V18.175L16.9 14.3C17.0834 14.1167 17.3124 14.0207 17.587 14.012C17.8624 14.004 18.1 14.1 18.3 14.3C18.4834 14.4833 18.575 14.7167 18.575 15C18.575 15.2833 18.4834 15.5167 18.3 15.7L12.7 21.3C12.6 21.4 12.4917 21.4707 12.375 21.512C12.2584 21.554 12.1334 21.575 12 21.575Z" fill="black"/>
</svg>