<svg width="24" height="24" viewBox="0 0 24 24" xmlns="http://www.w3.org/2000/svg">
<path d="M12 10.1201C11.7337 10.1201 11.5106 10.0299 11.3308 9.8494C11.1503 9.66956 11.0601 9.44647 11.0601 9.18016V6.21932L10.0261 7.25326C9.83812 7.44125 9.61504 7.53525 9.35687 7.53525C9.09807 7.53525 8.87467 7.44125 8.68668 7.25326C8.49869 7.06527 8.4047 6.84188 8.4047 6.58308C8.4047 6.32491 8.49869 6.10183 8.68668 5.91384L11.342 3.25849C11.436 3.16449 11.5379 3.09775 11.6475 3.05828C11.7572 3.01943 11.8747 3 12 3C12.1253 3 12.2428 3.01943 12.3525 3.05828C12.4621 3.09775 12.564 3.16449 12.658 3.25849L15.3368 5.93734C15.5248 6.12533 15.615 6.34841 15.6075 6.60658C15.5994 6.86538 15.5013 7.08877 15.3133 7.27676C15.1253 7.46475 14.8982 7.55875 14.6319 7.55875C14.3655 7.55875 14.1384 7.46475 13.9504 7.27676L12.9399 6.21932V9.18016C12.9399 9.44647 12.85 9.66956 12.6702 9.8494C12.4897 10.0299 12.2663 10.1201 12 10.1201ZM12 21C11.8747 21 11.7572 20.9803 11.6475 20.9408C11.5379 20.9019 11.436 20.8355 11.342 20.7415L8.66318 18.0627C8.4752 17.8747 8.38527 17.6513 8.39342 17.3925C8.40094 17.1343 8.49869 16.9112 8.68668 16.7232C8.87467 16.5352 9.1059 16.4372 9.38037 16.429C9.6542 16.4215 9.87728 16.5196 10.0496 16.7232L11.0601 17.7807V14.8198C11.0601 14.5535 11.1503 14.3301 11.3308 14.1497C11.5106 13.9698 11.7337 13.8799 12 13.8799C12.2663 13.8799 12.4897 13.9698 12.6702 14.1497C12.85 14.3301 12.9399 14.5535 12.9399 14.8198V17.7807L13.9739 16.7232C14.1462 16.5352 14.3655 16.4413 14.6319 16.4413C14.8982 16.4413 15.1253 16.5352 15.3133 16.7232C15.5013 16.9112 15.5953 17.1384 15.5953 17.4047C15.5953 17.671 15.5013 17.8982 15.3133 18.0862L12.658 20.7415C12.564 20.8355 12.4621 20.9019 12.3525 20.9408C12.2428 20.9803 12.1253 21 12 21ZM16.7232 15.3133C16.5352 15.1253 16.4372 14.8941 16.429 14.6196C16.4215 14.3458 16.5196 14.1227 16.7232 13.9504L17.7807 12.9399H14.8198C14.5535 12.9399 14.3304 12.8497 14.1506 12.6692C13.9701 12.4894 13.8799 12.2663 13.8799 12C13.8799 11.7337 13.9701 11.5103 14.1506 11.3298C14.3304 11.15 14.5535 11.0601 14.8198 11.0601H17.7807L16.7232 10.0261C16.5352 9.85378 16.4413 9.63446 16.4413 9.36815C16.4413 9.10183 16.5352 8.87467 16.7232 8.68668C16.9112 8.49869 17.1384 8.4047 17.4047 8.4047C17.671 8.4047 17.8982 8.49869 18.0862 8.68668L20.7415 11.342C20.8355 11.436 20.9022 11.5379 20.9417 11.6475C20.9806 11.7572 21 11.8747 21 12C21 12.1253 20.9806 12.2428 20.9417 12.3525C20.9022 12.4621 20.8355 12.564 20.7415 12.658L18.0627 15.3368C17.8747 15.5248 17.6516 15.6147 17.3934 15.6066C17.1346 15.5991 16.9112 15.5013 16.7232 15.3133V15.3133ZM5.91384 15.3133L3.25849 12.658C3.16449 12.564 3.09807 12.4621 3.05922 12.3525C3.01974 12.2428 3 12.1253 3 12C3 11.8747 3.01974 11.7572 3.05922 11.6475C3.09807 11.5379 3.16449 11.436 3.25849 11.342L5.93734 8.66318C6.10966 8.49086 6.32522 8.4047 6.58402 8.4047C6.84219 8.4047 7.06527 8.49869 7.25326 8.68668C7.44125 8.87467 7.53149 9.10183 7.52397 9.36815C7.51582 9.63446 7.41775 9.86162 7.22976 10.0496L6.21932 11.0601H9.18016C9.44647 11.0601 9.66987 11.15 9.85034 11.3298C10.0302 11.5103 10.1201 11.7337 10.1201 12C10.1201 12.2663 10.0302 12.4894 9.85034 12.6692C9.66987 12.8497 9.44647 12.9399 9.18016 12.9399H6.21932L7.27676 13.9739C7.46475 14.1462 7.55875 14.3655 7.55875 14.6319C7.55875 14.8982 7.46475 15.1253 7.27676 15.3133C7.08877 15.5013 6.86162 15.5953 6.5953 15.5953C6.32898 15.5953 6.10183 15.5013 5.91384 15.3133V15.3133Z" fill="black"/>
</svg>
