<svg width="24" height="24" viewBox="0 0 24 24" fill="none" xmlns="http://www.w3.org/2000/svg">
<path d="M12 10C11.7167 10 11.4794 9.90405 11.288 9.71205C11.096 9.52072 11 9.28338 11 9.00005V5.85005L9.90005 6.95005C9.70005 7.15005 9.46272 7.25005 9.18805 7.25005C8.91271 7.25005 8.67505 7.15005 8.47505 6.95005C8.27505 6.75005 8.17505 6.51238 8.17505 6.23705C8.17505 5.96238 8.27505 5.72505 8.47505 5.52505L11.3 2.70005C11.4 2.60005 11.5084 2.52905 11.625 2.48705C11.7417 2.44572 11.8667 2.42505 12 2.42505C12.1334 2.42505 12.2584 2.44572 12.375 2.48705C12.4917 2.52905 12.6 2.60005 12.7 2.70005L15.55 5.55005C15.75 5.75005 15.846 5.98738 15.838 6.26205C15.8294 6.53738 15.725 6.77505 15.525 6.97505C15.325 7.17505 15.0834 7.27505 14.8 7.27505C14.5167 7.27505 14.275 7.17505 14.075 6.97505L13 5.85005V9.00005C13 9.28338 12.9044 9.52072 12.713 9.71205C12.521 9.90405 12.2834 10 12 10ZM12 21.5751C11.8667 21.5751 11.7417 21.554 11.625 21.512C11.5084 21.4707 11.4 21.4 11.3 21.3L8.45005 18.4501C8.25005 18.2501 8.15438 18.0124 8.16305 17.737C8.17105 17.4624 8.27505 17.225 8.47505 17.025C8.67505 16.825 8.92105 16.7207 9.21305 16.712C9.50438 16.704 9.74172 16.8084 9.92505 17.025L11 18.15V15C11 14.7167 11.096 14.479 11.288 14.287C11.4794 14.0957 11.7167 14 12 14C12.2834 14 12.521 14.0957 12.713 14.287C12.9044 14.479 13 14.7167 13 15V18.15L14.1 17.025C14.2834 16.825 14.5167 16.725 14.8 16.725C15.0834 16.725 15.325 16.825 15.525 17.025C15.725 17.225 15.825 17.4667 15.825 17.75C15.825 18.0334 15.725 18.2751 15.525 18.475L12.7 21.3C12.6 21.4 12.4917 21.4707 12.375 21.512C12.2584 21.554 12.1334 21.5751 12 21.5751ZM17.025 15.525C16.825 15.325 16.7207 15.079 16.712 14.787C16.704 14.4957 16.8084 14.2584 17.025 14.075L18.15 13H15C14.7167 13 14.4794 12.904 14.288 12.712C14.096 12.5207 14 12.2834 14 12C14 11.7167 14.096 11.479 14.288 11.287C14.4794 11.0957 14.7167 11 15 11H18.15L17.025 9.90005C16.825 9.71671 16.725 9.48338 16.725 9.20005C16.725 8.91672 16.825 8.67505 17.025 8.47505C17.225 8.27505 17.4667 8.17505 17.75 8.17505C18.0334 8.17505 18.2751 8.27505 18.475 8.47505L21.3 11.3C21.4 11.4 21.4711 11.5084 21.5131 11.625C21.5544 11.7417 21.5751 11.8667 21.5751 12C21.5751 12.1334 21.5544 12.2584 21.5131 12.375C21.4711 12.4917 21.4 12.6 21.3 12.7L18.4501 15.55C18.2501 15.75 18.0127 15.8457 17.738 15.837C17.4627 15.829 17.225 15.725 17.025 15.525ZM5.52505 15.525L2.70005 12.7C2.60005 12.6 2.52938 12.4917 2.48805 12.375C2.44605 12.2584 2.42505 12.1334 2.42505 12C2.42505 11.8667 2.44605 11.7417 2.48805 11.625C2.52938 11.5084 2.60005 11.4 2.70005 11.3L5.55005 8.45005C5.73338 8.26672 5.96272 8.17505 6.23805 8.17505C6.51272 8.17505 6.75005 8.27505 6.95005 8.47505C7.15005 8.67505 7.24605 8.91672 7.23805 9.20005C7.22938 9.48338 7.12505 9.72505 6.92505 9.92505L5.85005 11H9.00005C9.28338 11 9.52105 11.0957 9.71305 11.287C9.90438 11.479 10 11.7167 10 12C10 12.2834 9.90438 12.5207 9.71305 12.712C9.52105 12.904 9.28338 13 9.00005 13H5.85005L6.97505 14.1C7.17505 14.2834 7.27505 14.5167 7.27505 14.8C7.27505 15.0834 7.17505 15.325 6.97505 15.525C6.77505 15.725 6.53338 15.825 6.25005 15.825C5.96672 15.825 5.72505 15.725 5.52505 15.525Z" fill="black"/>
</svg>