<svg width="24" height="24" viewBox="0 0 24 24" xmlns="http://www.w3.org/2000/svg">
<path d="M11.0838 17.7003V3.96872C11.0838 3.69425 11.1768 3.46434 11.3627 3.27899C11.5481 3.093 11.778 3 12.0525 3C12.3269 3 12.5572 3.093 12.7432 3.27899C12.9285 3.46434 13.0212 3.69425 13.0212 3.96872V17.7003L14.3774 16.3441C14.555 16.1665 14.7772 16.0819 15.0439 16.0903C15.31 16.098 15.5399 16.1988 15.7336 16.3925C15.9112 16.5701 16 16.7962 16 17.0706C16 17.3451 15.9112 17.5711 15.7336 17.7487L12.7306 20.7275C12.6337 20.8244 12.5288 20.8971 12.4157 20.9455C12.3027 20.9939 12.1816 21.0101 12.0525 20.9939C11.9233 20.9939 11.8022 20.9739 11.6892 20.9339C11.5762 20.8932 11.4712 20.8244 11.3744 20.7275L8.37134 17.7245C8.1776 17.5308 8.08493 17.3009 8.09332 17.0348C8.10107 16.7681 8.19374 16.5459 8.37134 16.3683C8.56509 16.1746 8.79532 16.0777 9.06204 16.0777C9.32811 16.0777 9.54995 16.1665 9.72755 16.3441L11.0838 17.7003Z" fill="black"/>
</svg>
