<svg width="24" height="24" viewBox="0 0 24 24" xmlns="http://www.w3.org/2000/svg">
<path d="M12 22C11.7167 22 11.4794 21.904 11.288 21.712C11.096 21.5207 11 21.2834 11 21V5.82505L7.10005 9.70005C6.91672 9.88338 6.68738 9.97938 6.41205 9.98805C6.13738 9.99605 5.90005 9.90005 5.70005 9.70005C5.51672 9.51672 5.42505 9.28338 5.42505 9.00005C5.42505 8.71672 5.51672 8.48338 5.70005 8.30005L11.3 2.70005C11.4 2.60005 11.5084 2.52905 11.625 2.48705C11.7417 2.44572 11.8667 2.42505 12 2.42505C12.1334 2.42505 12.2584 2.44572 12.375 2.48705C12.4917 2.52905 12.6 2.60005 12.7 2.70005L18.3 8.30005C18.4834 8.48338 18.575 8.71238 18.575 8.98705C18.575 9.26238 18.4834 9.50005 18.3 9.70005C18.1 9.90005 17.8624 10 17.587 10C17.3124 10 17.075 9.90005 16.875 9.70005L13 5.82505V21C13 21.2834 12.9044 21.5207 12.713 21.712C12.521 21.904 12.2834 22 12 22Z" fill="black"/>
</svg>
