<svg width="24" height="24" viewBox="0 0 24 24" xmlns="http://www.w3.org/2000/svg">
<path d="M12.046 21C11.9234 21 11.8084 20.9807 11.7011 20.9421C11.5939 20.9041 11.4943 20.8391 11.4023 20.7471L6.25287 15.5977C6.08429 15.4291 6 15.2182 6 14.9651C6 14.7125 6.08429 14.4943 6.25287 14.3103C6.43678 14.1264 6.65502 14.0345 6.90759 14.0345C7.16077 14.0345 7.37931 14.1264 7.56322 14.3103L11.1264 17.8736V3.91954C11.1264 3.659 11.2147 3.44046 11.3913 3.26391C11.5672 3.08797 11.7854 3 12.046 3C12.3065 3 12.5251 3.08797 12.7016 3.26391C12.8775 3.44046 12.9655 3.659 12.9655 3.91954V17.8736L16.5517 14.3103C16.7203 14.1418 16.9309 14.0535 17.1834 14.0455C17.4366 14.0382 17.6552 14.1264 17.8391 14.3103C18.0077 14.4789 18.092 14.6935 18.092 14.954C18.092 15.2146 18.0077 15.4291 17.8391 15.5977L12.6897 20.7471C12.5977 20.8391 12.4981 20.9041 12.3908 20.9421C12.2835 20.9807 12.1686 21 12.046 21V21Z" fill="black"/>
</svg>
