<svg width="24" height="24" viewBox="0 0 24 24" xmlns="http://www.w3.org/2000/svg">
<path d="M14.3103 17.8391C14.1418 17.6705 14.0575 17.4559 14.0575 17.1954C14.0575 16.9349 14.1418 16.7203 14.3103 16.5517L17.8966 12.9655H3.91954C3.659 12.9655 3.44077 12.8772 3.26483 12.7007C3.08828 12.5248 3 12.3065 3 12.046C3 11.7854 3.08828 11.5669 3.26483 11.3903C3.44077 11.2144 3.659 11.1264 3.91954 11.1264H17.8966L14.3103 7.54023C14.1418 7.37165 14.0575 7.15709 14.0575 6.89655C14.0575 6.63602 14.1418 6.42146 14.3103 6.25287C14.4789 6.08429 14.6935 6 14.954 6C15.2146 6 15.4291 6.08429 15.5977 6.25287L20.7471 11.4023C20.8391 11.4943 20.9044 11.5939 20.943 11.7011C20.981 11.8084 21 11.9234 21 12.046C21 12.1686 20.981 12.2835 20.943 12.3908C20.9044 12.4981 20.8391 12.5977 20.7471 12.6897L15.5977 17.8391C15.4291 18.0077 15.2146 18.092 14.954 18.092C14.6935 18.092 14.4789 18.0077 14.3103 17.8391V17.8391Z" fill="black"/>
</svg>
