<svg width="24" height="24" viewBox="0 0 24 24" xmlns="http://www.w3.org/2000/svg">
<path d="M8.4023 17.8391L3.25287 12.6897C3.16092 12.5977 3.09594 12.4981 3.05793 12.3908C3.01931 12.2835 3 12.1686 3 12.046C3 11.9234 3.01931 11.8084 3.05793 11.7011C3.09594 11.5939 3.16092 11.4943 3.25287 11.4023L8.4023 6.25287C8.57088 6.08429 8.78176 6 9.03494 6C9.28751 6 9.50575 6.08429 9.68965 6.25287C9.87356 6.43678 9.96552 6.65502 9.96552 6.90759C9.96552 7.16077 9.87356 7.37931 9.68965 7.56322L6.12644 11.1264H20.0805C20.341 11.1264 20.5592 11.2144 20.7352 11.3903C20.9117 11.5669 21 11.7854 21 12.046C21 12.3065 20.9117 12.5248 20.7352 12.7007C20.5592 12.8772 20.341 12.9655 20.0805 12.9655H6.12644L9.68965 16.5517C9.85824 16.7203 9.94651 16.9309 9.95448 17.1834C9.96184 17.4366 9.87356 17.6552 9.68965 17.8391C9.52107 18.0077 9.30651 18.092 9.04598 18.092C8.78544 18.092 8.57088 18.0077 8.4023 17.8391Z" fill="black"/>
</svg>
