<svg width="24" height="24" viewBox="0 0 24 24" xmlns="http://www.w3.org/2000/svg">
<path d="M8.30005 18.3L2.70005 12.7C2.60005 12.6 2.52938 12.4917 2.48805 12.375C2.44605 12.2584 2.42505 12.1334 2.42505 12C2.42505 11.8667 2.44605 11.7417 2.48805 11.625C2.52938 11.5084 2.60005 11.4 2.70005 11.3L8.30005 5.70005C8.48338 5.51672 8.71272 5.42505 8.98805 5.42505C9.26272 5.42505 9.50005 5.51672 9.70005 5.70005C9.90005 5.90005 10 6.13738 10 6.41205C10 6.68738 9.90005 6.92505 9.70005 7.12505L5.82505 11H21C21.2834 11 21.5207 11.0957 21.712 11.287C21.904 11.479 22 11.7167 22 12C22 12.2834 21.904 12.5207 21.712 12.712C21.5207 12.904 21.2834 13 21 13H5.82505L9.70005 16.9C9.88338 17.0834 9.97938 17.3124 9.98805 17.587C9.99605 17.8624 9.90005 18.1 9.70005 18.3C9.51672 18.4834 9.28338 18.575 9.00005 18.575C8.71672 18.575 8.48338 18.4834 8.30005 18.3Z" fill="black"/>
</svg>
