<svg width="24" height="24" viewBox="0 0 24 24" fill="none" xmlns="http://www.w3.org/2000/svg">
<path d="M5.71429 21C5.24286 21 4.83914 20.8323 4.50314 20.4969C4.16771 20.1609 4 19.7571 4 19.2857V9C4 8.52857 4.16771 8.12514 4.50314 7.78971C4.83914 7.45371 5.24286 7.28571 5.71429 7.28571H7.42857C7.42857 6.1 7.84657 5.08914 8.68257 4.25314C9.518 3.41771 10.5286 3 11.7143 3C12.9 3 13.9109 3.41771 14.7469 4.25314C15.5823 5.08914 16 6.1 16 7.28571H17.7143C18.1857 7.28571 18.5894 7.45371 18.9254 7.78971C19.2609 8.12514 19.4286 8.52857 19.4286 9V19.2857C19.4286 19.7571 19.2609 20.1609 18.9254 20.4969C18.5894 20.8323 18.1857 21 17.7143 21H5.71429ZM5.71429 19.2857H17.7143V9H5.71429V19.2857ZM11.7143 14.1429C12.9 14.1429 13.9109 13.7249 14.7469 12.8889C15.5823 12.0534 16 11.0429 16 9.85714H14.2857C14.2857 10.5714 14.0357 11.1786 13.5357 11.6786C13.0357 12.1786 12.4286 12.4286 11.7143 12.4286C11 12.4286 10.3929 12.1786 9.89286 11.6786C9.39286 11.1786 9.14286 10.5714 9.14286 9.85714H7.42857C7.42857 11.0429 7.84657 12.0534 8.68257 12.8889C9.518 13.7249 10.5286 14.1429 11.7143 14.1429ZM9.14286 7.28571H14.2857C14.2857 6.57143 14.0357 5.96429 13.5357 5.46429C13.0357 4.96429 12.4286 4.71429 11.7143 4.71429C11 4.71429 10.3929 4.96429 9.89286 5.46429C9.39286 5.96429 9.14286 6.57143 9.14286 7.28571Z" fill="#1A1A1A"/>
</svg>