<svg xmlns="http://www.w3.org/2000/svg" width="24" height="24" viewBox="0 0 24 24">
  <path fill-rule="evenodd" d="M13.94968,12 L13.94968,11 L15.590305,11 L15.590305,12 L13.94968,12 Z M13.94968,10 L13.94968,9 L15.590305,9 L15.590305,10 L13.94968,10 Z M13.94968,8 L13.94968,7 L15.590305,7 L15.590305,8 L13.94968,8 Z M11.9673593,6 L12.9015704,5 L16.6747821,5 L17.6271769,6 L11.9673593,6 Z M13.8357815,4 L14.7699925,3 L15.7223873,4 L13.8357815,4 Z M13.3189629,17.3181818 L9.87936754,21 L6.3728231,17.3181818 L7.82858629,17.3181818 L9.05905504,17.3181818 L9.05905504,11.8181818 C9.05905504,11.3663273 9.42633629,11 9.87936754,11 C10.3323988,11 10.69968,11.3663273 10.69968,11.8181818 L10.69968,17.3181818 L11.9301488,17.3181818 L13.3189629,17.3181818 Z" transform="rotate(-90 12 12)"/>
</svg>
