<svg width="24" height="24" viewBox="0 0 24 24" xmlns="http://www.w3.org/2000/svg">
<path d="M14.97 13.01L11.73 9.77C11.64 9.68 11.5764 9.5825 11.5392 9.4775C11.5014 9.3725 11.4825 9.26 11.4825 9.14C11.4825 9.02 11.5014 8.9075 11.5392 8.8025C11.5764 8.6975 11.64 8.6 11.73 8.51L14.97 5.27C15.15 5.09 15.36 5 15.6 5C15.84 5 16.05 5.09 16.23 5.27C16.41 5.45 16.5 5.6636 16.5 5.9108C16.5 6.1586 16.41 6.3725 16.23 6.5525L14.5425 8.24H20.1C20.355 8.24 20.5686 8.3261 20.7408 8.4983C20.9136 8.6711 21 8.885 21 9.14C21 9.395 20.9136 9.6086 20.7408 9.7808C20.5686 9.9536 20.355 10.04 20.1 10.04H14.5425L16.23 11.7275C16.41 11.9075 16.5 12.1175 16.5 12.3575C16.5 12.5975 16.41 12.8075 16.23 12.9875C16.05 13.1675 15.8439 13.265 15.6117 13.28C15.3789 13.295 15.165 13.205 14.97 13.01V13.01ZM7.77 18.3875C7.95 18.5675 8.16 18.6611 8.4 18.6683C8.64 18.6761 8.85 18.59 9.03 18.41L12.27 15.17C12.36 15.08 12.4239 14.9825 12.4617 14.8775C12.4989 14.7725 12.5175 14.66 12.5175 14.54C12.5175 14.42 12.4989 14.3075 12.4617 14.2025C12.4239 14.0975 12.36 14 12.27 13.91L9.03 10.67C8.85 10.49 8.64 10.4 8.4 10.4C8.16 10.4 7.95 10.49 7.77 10.67C7.59 10.85 7.5 11.0636 7.5 11.3108C7.5 11.5586 7.59 11.7725 7.77 11.9525L9.4575 13.64H3.9C3.645 13.64 3.4314 13.7261 3.2592 13.8983C3.0864 14.0711 3 14.285 3 14.54C3 14.795 3.0864 15.0086 3.2592 15.1808C3.4314 15.3536 3.645 15.44 3.9 15.44H9.4575L7.77 17.1275C7.59 17.3075 7.5 17.5175 7.5 17.7575C7.5 17.9975 7.59 18.2075 7.77 18.3875V18.3875Z" fill="black"/>
</svg>
