<svg width="24" height="24" viewBox="0 0 24 24" fill="none" xmlns="http://www.w3.org/2000/svg">
<path d="M11.0368 20.7739L4.81955 17.1287C4.55579 16.978 4.35326 16.7708 4.21195 16.5071C4.07065 16.2433 4 15.9608 4 15.6593V8.39717C4 8.09576 4.07065 7.81319 4.21195 7.54945C4.35326 7.28571 4.55579 7.07849 4.81955 6.92779L11.0651 3.22606C11.3289 3.07535 11.6209 3 11.9412 3C12.2615 3 12.5535 3.07535 12.8172 3.22606L19.0628 6.92779C19.3266 7.07849 19.5291 7.28571 19.6704 7.54945C19.8117 7.81319 19.8824 8.09576 19.8824 8.39717V15.6593C19.8824 15.9608 19.807 16.2433 19.6563 16.5071C19.5055 16.7708 19.2983 16.978 19.0345 17.1287L12.7325 20.7739C12.4687 20.9246 12.1861 21 11.8847 21C11.5832 21 11.3006 20.9246 11.0368 20.7739ZM11.0934 18.8242V12.4945L5.72389 9.41444V15.6028L11.0934 18.8242ZM12.789 18.8242L18.1867 15.6028V9.41444L12.789 12.4945V18.8242ZM11.9412 10.9686L17.3107 7.86028L11.9412 4.78022L6.5717 7.86028L11.9412 10.9686Z" fill="black"/>
</svg>