<?xml version="1.0" encoding="UTF-8"?>
<svg width="24px" height="24px" viewBox="0 0 24 24" version="1.1" xmlns="http://www.w3.org/2000/svg" xmlns:xlink="http://www.w3.org/1999/xlink">
    <!-- Generator: sketchtool 45.2 (43514) - http://www.bohemiancoding.com/sketch -->
    <title>box</title>
    <desc>Created with sketchtool.</desc>
    <defs></defs>
    <g id="Icons" stroke="none" stroke-width="1" fill-rule="evenodd">
        <g id="MC-icon-set" transform="translate(-96.000000, -168.000000)" fill="#000000">
            <g id="Menu" transform="translate(24.000000, 168.000000)">
                <g id="Box" transform="translate(72.000000, 0.000000)">
                    <path d="M20.0608273,16.60134 L12.2701,21 L12.2699159,12.20268 L13.1373523,11.7129 L20.0608273,7.8042 L20.0608273,16.60134 Z M12.0304136,3 L15.1606955,4.76742 L7.36996818,9.1659 L4.23950227,7.39848 L12.0304136,3 Z M16.3195477,5.42154 L19.8211409,7.39848 L14.928925,10.16058 L12.0304136,11.79714 L9.11588636,10.15158 L8.52845227,9.8202 L16.3195477,5.42154 Z M8.28011364,12.57006 L8.28011364,10.22052 L11.7909114,12.20268 L11.7907273,21 L4,16.60134 L4.00018409,7.8042 L7.14795455,9.58116 L7.14795455,11.99676 L8.28011364,12.57006 Z" id="shape"></path>
                </g>
            </g>
        </g>
    </g>
</svg>