<svg width="24" height="24" viewBox="0 0 24 24" xmlns="http://www.w3.org/2000/svg">
<path d="M12.1 13.8C11.845 13.8 11.6314 13.7136 11.4592 13.5408C11.2864 13.3686 11.2 13.155 11.2 12.9C11.2 12.645 11.2864 12.4311 11.4592 12.2583C11.6314 12.0861 11.845 12 12.1 12C12.355 12 12.5689 12.0861 12.7417 12.2583C12.9139 12.4311 13 12.645 13 12.9C13 13.155 12.9139 13.3686 12.7417 13.5408C12.5689 13.7136 12.355 13.8 12.1 13.8ZM8.5 13.8C8.245 13.8 8.0311 13.7136 7.8583 13.5408C7.6861 13.3686 7.6 13.155 7.6 12.9C7.6 12.645 7.6861 12.4311 7.8583 12.2583C8.0311 12.0861 8.245 12 8.5 12C8.755 12 8.9689 12.0861 9.1417 12.2583C9.3139 12.4311 9.4 12.645 9.4 12.9C9.4 13.155 9.3139 13.3686 9.1417 13.5408C8.9689 13.7136 8.755 13.8 8.5 13.8ZM15.7 13.8C15.445 13.8 15.2314 13.7136 15.0592 13.5408C14.8864 13.3686 14.8 13.155 14.8 12.9C14.8 12.645 14.8864 12.4311 15.0592 12.2583C15.2314 12.0861 15.445 12 15.7 12C15.955 12 16.1686 12.0861 16.3408 12.2583C16.5136 12.4311 16.6 12.645 16.6 12.9C16.6 13.155 16.5136 13.3686 16.3408 13.5408C16.1686 13.7136 15.955 13.8 15.7 13.8ZM12.1 17.4C11.845 17.4 11.6314 17.3136 11.4592 17.1408C11.2864 16.9686 11.2 16.755 11.2 16.5C11.2 16.245 11.2864 16.0314 11.4592 15.8592C11.6314 15.6864 11.845 15.6 12.1 15.6C12.355 15.6 12.5689 15.6864 12.7417 15.8592C12.9139 16.0314 13 16.245 13 16.5C13 16.755 12.9139 16.9686 12.7417 17.1408C12.5689 17.3136 12.355 17.4 12.1 17.4ZM8.5 17.4C8.245 17.4 8.0311 17.3136 7.8583 17.1408C7.6861 16.9686 7.6 16.755 7.6 16.5C7.6 16.245 7.6861 16.0314 7.8583 15.8592C8.0311 15.6864 8.245 15.6 8.5 15.6C8.755 15.6 8.9689 15.6864 9.1417 15.8592C9.3139 16.0314 9.4 16.245 9.4 16.5C9.4 16.755 9.3139 16.9686 9.1417 17.1408C8.9689 17.3136 8.755 17.4 8.5 17.4ZM15.7 17.4C15.445 17.4 15.2314 17.3136 15.0592 17.1408C14.8864 16.9686 14.8 16.755 14.8 16.5C14.8 16.245 14.8864 16.0314 15.0592 15.8592C15.2314 15.6864 15.445 15.6 15.7 15.6C15.955 15.6 16.1686 15.6864 16.3408 15.8592C16.5136 16.0314 16.6 16.245 16.6 16.5C16.6 16.755 16.5136 16.9686 16.3408 17.1408C16.1686 17.3136 15.955 17.4 15.7 17.4ZM5.8 21C5.305 21 4.8811 20.8239 4.5283 20.4717C4.1761 20.1189 4 19.695 4 19.2V6.6C4 6.105 4.1761 5.6814 4.5283 5.3292C4.8811 4.9764 5.305 4.8 5.8 4.8H6.7V3.9C6.7 3.645 6.7861 3.4311 6.9583 3.2583C7.1311 3.0861 7.345 3 7.6 3C7.855 3 8.0689 3.0861 8.2417 3.2583C8.4139 3.4311 8.5 3.645 8.5 3.9V4.8H15.7V3.9C15.7 3.645 15.7864 3.4311 15.9592 3.2583C16.1314 3.0861 16.345 3 16.6 3C16.855 3 17.0686 3.0861 17.2408 3.2583C17.4136 3.4311 17.5 3.645 17.5 3.9V4.8H18.4C18.895 4.8 19.3189 4.9764 19.6717 5.3292C20.0239 5.6814 20.2 6.105 20.2 6.6V19.2C20.2 19.695 20.0239 20.1189 19.6717 20.4717C19.3189 20.8239 18.895 21 18.4 21H5.8ZM5.8 19.2H18.4V10.2H5.8V19.2ZM5.8 8.4H18.4V6.6H5.8V8.4ZM5.8 8.4V6.6V8.4Z" fill="black"/>
</svg>
