<svg xmlns="http://www.w3.org/2000/svg" width="24" height="24" viewBox="0 0 24 24">
  <path fill-rule="evenodd" d="M21,6.5 L21,19 C21,20.1045695 20.1045695,21 19,21 L5,21 C3.8954305,21 3,20.1045695 3,19 L3,6.5 L3,6 L3,6 C3,4.8954305 3.8954305,4 5,4 L5,4 L6,4 L6,3 L9,3 L9,4 L15,4 L15,3 L18,3 L18,4 L19,4 C20.1045695,4 21,4.8954305 21,6 L21,6.5 Z M4,7 L4,19 C4,19.5522847 4.44771525,20 5,20 L19,20 C19.5522847,20 20,19.5522847 20,19 L20,7 L4,7 Z M5,9 L9,9 L9,13 L5,13 L5,9 Z M10,9 L14,9 L14,13 L10,13 L10,9 Z M15,9 L19,9 L19,13 L15,13 L15,9 Z M5,14 L9,14 L9,18 L5,18 L5,14 Z M10,14 L14,14 L14,18 L10,18 L10,14 Z M15,14 L19,14 L19,18 L15,18 L15,14 Z"/>
</svg>
