<svg width="24" height="24" viewBox="0 0 24 24" xmlns="http://www.w3.org/2000/svg">
<path d="M12 16.915C13.08 16.915 13.9875 16.5475 14.7225 15.8125C15.4575 15.0775 15.825 14.1625 15.825 13.0675C15.825 11.9875 15.4575 11.0838 14.7225 10.3563C13.9875 9.62875 13.08 9.265 12 9.265C10.905 9.265 9.99375 9.62875 9.26625 10.3563C8.53875 11.0838 8.175 11.9875 8.175 13.0675C8.175 14.1625 8.53875 15.0775 9.26625 15.8125C9.99375 16.5475 10.905 16.915 12 16.915ZM4.35 20.2C3.99 20.2 3.675 20.065 3.405 19.795C3.135 19.525 3 19.21 3 18.85V7.3075C3 6.9625 3.135 6.65125 3.405 6.37375C3.675 6.09625 3.99 5.9575 4.35 5.9575H7.6575L8.895 4.4725C9.015 4.3075 9.165 4.1875 9.345 4.1125C9.525 4.0375 9.72 4 9.93 4H14.07C14.28 4 14.475 4.0375 14.655 4.1125C14.835 4.1875 14.985 4.3075 15.105 4.4725L16.3425 5.9575H19.65C19.995 5.9575 20.3062 6.09625 20.5837 6.37375C20.8612 6.65125 21 6.9625 21 7.3075V18.85C21 19.21 20.8612 19.525 20.5837 19.795C20.3062 20.065 19.995 20.2 19.65 20.2H4.35ZM19.65 18.85V7.3075H4.35V18.85H19.65Z" fill="black"/>
</svg>
