<svg width="24" height="24" viewBox="0 0 24 24" xmlns="http://www.w3.org/2000/svg">
<path d="M8.43564 21C7.94554 21 7.52614 20.8256 7.17743 20.4769C6.82812 20.1276 6.65347 19.7079 6.65347 19.2178C6.65347 18.7277 6.82812 18.3083 7.17743 17.9596C7.52614 17.6103 7.94554 17.4356 8.43564 17.4356C8.92574 17.4356 9.34515 17.6103 9.69386 17.9596C10.0432 18.3083 10.2178 18.7277 10.2178 19.2178C10.2178 19.7079 10.0432 20.1276 9.69386 20.4769C9.34515 20.8256 8.92574 21 8.43564 21ZM17.3465 21C16.8564 21 16.437 20.8256 16.0883 20.4769C15.739 20.1276 15.5644 19.7079 15.5644 19.2178C15.5644 18.7277 15.739 18.3083 16.0883 17.9596C16.437 17.6103 16.8564 17.4356 17.3465 17.4356C17.8366 17.4356 18.2563 17.6103 18.6056 17.9596C18.9544 18.3083 19.1287 18.7277 19.1287 19.2178C19.1287 19.7079 18.9544 20.1276 18.6056 20.4769C18.2563 20.8256 17.8366 21 17.3465 21ZM7.81188 6.74257L9.81683 10.953H16.0545L18.349 6.74257H7.81188ZM8.43564 16.5446C7.72277 16.5446 7.18812 16.2362 6.83168 15.6196C6.47525 15.0036 6.46782 14.3911 6.80941 13.7822L7.9901 11.6436L4.82673 4.9604H3.95792C3.69059 4.9604 3.46426 4.86743 3.27891 4.68149C3.09297 4.49614 3 4.26238 3 3.9802C3 3.69802 3.09297 3.46396 3.27891 3.27802C3.46426 3.09267 3.69802 3 3.9802 3H5.40594C5.58416 3 5.75881 3.05198 5.9299 3.15594C6.1004 3.2599 6.2302 3.40842 6.31931 3.60149L6.87624 4.78218H19.8193C20.3243 4.78218 20.6584 4.95297 20.8218 5.29455C20.9851 5.63614 20.9703 6.00743 20.7772 6.40842L17.7252 11.9109C17.5619 12.2228 17.3391 12.464 17.0569 12.6345C16.7748 12.8055 16.4554 12.8911 16.099 12.8911H9.50495L8.56931 14.5842H18.2599C18.5272 14.5842 18.7539 14.6771 18.9398 14.8631C19.1251 15.0484 19.2178 15.2822 19.2178 15.5644C19.2178 15.8465 19.1251 16.0806 18.9398 16.2665C18.7539 16.4519 18.5198 16.5446 18.2376 16.5446H8.43564ZM9.81683 10.953H16.0545H9.81683Z" fill="black"/>
</svg>
