<svg width="24" height="24" viewBox="0 0 24 24" xmlns="http://www.w3.org/2000/svg">
<path d="M6.9999 22.1C6.4499 22.1 5.97924 21.9044 5.5879 21.513C5.1959 21.121 4.9999 20.65 4.9999 20.1C4.9999 19.55 5.1959 19.0794 5.5879 18.688C5.97924 18.296 6.4499 18.1 6.9999 18.1C7.5499 18.1 8.02057 18.296 8.4119 18.688C8.8039 19.0794 8.9999 19.55 8.9999 20.1C8.9999 20.65 8.8039 21.121 8.4119 21.513C8.02057 21.9044 7.5499 22.1 6.9999 22.1ZM16.9999 22.1C16.4499 22.1 15.9792 21.9044 15.5879 21.513C15.1959 21.121 14.9999 20.65 14.9999 20.1C14.9999 19.55 15.1959 19.0794 15.5879 18.688C15.9792 18.296 16.4499 18.1 16.9999 18.1C17.5499 18.1 18.0209 18.296 18.4129 18.688C18.8042 19.0794 18.9999 19.55 18.9999 20.1C18.9999 20.65 18.8042 21.121 18.4129 21.513C18.0209 21.9044 17.5499 22.1 16.9999 22.1ZM6.2999 6.10002L8.5499 10.825H15.5499L18.1249 6.10002H6.2999ZM6.9999 17.1C6.1999 17.1 5.5999 16.754 5.1999 16.062C4.7999 15.3707 4.79157 14.6834 5.1749 14L6.4999 11.6L2.9499 4.10002H1.9749C1.6749 4.10002 1.4209 3.99569 1.2129 3.78702C1.00424 3.57902 0.899902 3.31669 0.899902 3.00002C0.899902 2.68336 1.00424 2.42069 1.2129 2.21202C1.4209 2.00402 1.68324 1.90002 1.9999 1.90002H3.5999C3.7999 1.90002 3.9959 1.95836 4.1879 2.07502C4.37924 2.19169 4.5249 2.35836 4.6249 2.57502L5.2499 3.90002H19.7749C20.3416 3.90002 20.7166 4.09169 20.8999 4.47502C21.0832 4.85836 21.0666 5.27502 20.8499 5.72502L17.4249 11.9C17.2416 12.25 16.9916 12.5207 16.6749 12.712C16.3582 12.904 15.9999 13 15.5999 13H8.1999L7.1499 14.9H18.0249C18.3249 14.9 18.5792 15.0044 18.7879 15.213C18.9959 15.421 19.0999 15.6834 19.0999 16C19.0999 16.3167 18.9959 16.5794 18.7879 16.788C18.5792 16.996 18.3166 17.1 17.9999 17.1H6.9999ZM8.5499 10.825H15.5499H8.5499Z" fill="black"/>
</svg>
