<?xml version="1.0" encoding="UTF-8"?>
<svg width="24px" height="24px" viewBox="0 0 24 24" version="1.1" xmlns="http://www.w3.org/2000/svg" xmlns:xlink="http://www.w3.org/1999/xlink">
    <!-- Generator: sketchtool 45.2 (43514) - http://www.bohemiancoding.com/sketch -->
    <title>cart</title>
    <desc>Created with sketchtool.</desc>
    <defs></defs>
    <g id="Icons" stroke="none" stroke-width="1" fill-rule="evenodd">
        <g id="MC-icon-set" transform="translate(-96.000000, -216.000000)" fill="#000000">
            <g id="Menu" transform="translate(24.000000, 168.000000)">
                <g id="Cart" transform="translate(72.000000, 48.000000)">
                    <path d="M16.4909819,18.5828412 C16.7219931,18.1768635 17.1527946,17.9246468 17.6151766,17.9246468 C18.0775587,17.9246468 18.5083002,18.1768635 18.7393714,18.5830235 C18.9705025,18.9888188 18.9705025,19.4932522 18.7393714,19.8994122 C18.5082403,20.3055114 18.0774987,20.5577889 17.6151766,20.5577889 C17.1529145,20.5577889 16.722113,20.3055722 16.4909819,19.8995338 C16.2598508,19.493313 16.2598508,18.9887581 16.4909819,18.5828412 Z M11.4592216,18.5830235 C11.6903527,18.9888188 11.6903527,19.4932522 11.4592216,19.8994122 C11.2280306,20.3055114 10.797289,20.5577889 10.3350268,20.5577889 C9.87276465,20.5577889 9.44202307,20.3055722 9.21077214,19.8995338 C8.97970098,19.493313 8.97970098,18.9887581 9.21077214,18.5828412 C9.4418433,18.1768635 9.8726448,17.9246468 10.3350268,17.9246468 C10.7974088,17.9246468 11.2281504,18.1768635 11.4592216,18.5830235 Z M9.90366381,13.1018416 L6.77791385,4.80829267 L4.45859175,4.21022065 C4.13244424,4.12605928 3.93651546,3.791978 4.01873668,3.46414369 C4.10129705,3.13505962 4.43322547,2.93483781 4.76067879,3.01936063 L7.69284935,3.77467535 L8.72916364,6.52371136 L19.0817764,6.52371136 C19.8412895,6.52371136 20.4402108,7.14940312 20.4345592,7.97509647 L19.5578292,12.009618 C19.5309036,12.7516558 18.9353418,13.344322 18.2236619,13.3438968 C17.3171976,13.3968315 17.3171976,13.3968315 14.5978719,13.5556373 C11.9570884,13.7098567 11.8808288,13.7143102 11.0484734,13.7629191 L10.991316,13.8065573 C10.9416802,13.842761 10.8552794,13.9088357 10.7441533,13.999068 C10.5596087,14.1489146 10.3752653,14.310783 10.2039402,14.47818 C10.1647129,14.516725 10.1647129,14.516725 10.1257061,14.5559773 C9.61296461,15.075252 9.47164711,15.3849923 9.49466981,15.5087846 C9.54912391,15.8007604 10.0114914,16.0655567 10.5924267,16.0755891 C10.9308652,16.081429 12.5325167,16.0811372 14.9951646,16.076355 C15.534447,16.0753077 16.1017935,16.0740677 16.6904164,16.0726687 C17.775398,16.0700898 19.4944686,16.0654025 19.469252,16.0654025 C19.8070795,16.0654025 20.0788976,16.3514108 20.0794014,16.6896953 C20.080006,17.0282711 19.8085718,17.310128 19.4710006,17.3107479 C18.9301248,17.3120331 18.1858191,17.3136856 17.3345282,17.3152675 C16.521185,17.316779 15.7339796,17.3179812 14.9936853,17.3187729 C14.3639845,17.3194463 13.7840079,17.3198038 13.2633494,17.3198038 C11.4803801,17.3198038 10.8130038,17.3188579 10.5715166,17.3146615 C9.41219329,17.2946616 8.46809554,16.6568219 8.29656228,15.7363764 C8.13606733,14.8751934 8.8334485,13.9663751 9.90366381,13.1018416 Z" id="shape"></path>
                </g>
            </g>
        </g>
    </g>
</svg>