<svg width="24" height="24" viewBox="0 0 24 24" xmlns="http://www.w3.org/2000/svg">
<path d="M7.5 17C6.255 17 5.1939 16.5611 4.3167 15.6833C3.4389 14.8061 3 13.745 3 12.5C3 11.255 3.4389 10.1936 4.3167 9.3158C5.1939 8.4386 6.255 8 7.5 8H10.2C10.455 8 10.6689 8.0861 10.8417 8.2583C11.0139 8.4311 11.1 8.645 11.1 8.9C11.1 9.155 11.0139 9.3686 10.8417 9.5408C10.6689 9.7136 10.455 9.8 10.2 9.8H7.5C6.75 9.8 6.1125 10.0625 5.5875 10.5875C5.0625 11.1125 4.8 11.75 4.8 12.5C4.8 13.25 5.0625 13.8875 5.5875 14.4125C6.1125 14.9375 6.75 15.2 7.5 15.2H10.2C10.455 15.2 10.6689 15.2861 10.8417 15.4583C11.0139 15.6311 11.1 15.845 11.1 16.1C11.1 16.355 11.0139 16.5686 10.8417 16.7408C10.6689 16.9136 10.455 17 10.2 17H7.5ZM9.3 13.4C9.045 13.4 8.8314 13.3136 8.6592 13.1408C8.4864 12.9686 8.4 12.755 8.4 12.5C8.4 12.245 8.4864 12.0311 8.6592 11.8583C8.8314 11.6861 9.045 11.6 9.3 11.6H14.7C14.955 11.6 15.1689 11.6861 15.3417 11.8583C15.5139 12.0311 15.6 12.245 15.6 12.5C15.6 12.755 15.5139 12.9686 15.3417 13.1408C15.1689 13.3136 14.955 13.4 14.7 13.4H9.3ZM13.8 17C13.545 17 13.3314 16.9136 13.1592 16.7408C12.9864 16.5686 12.9 16.355 12.9 16.1C12.9 15.845 12.9864 15.6311 13.1592 15.4583C13.3314 15.2861 13.545 15.2 13.8 15.2H16.5C17.25 15.2 17.8875 14.9375 18.4125 14.4125C18.9375 13.8875 19.2 13.25 19.2 12.5C19.2 11.75 18.9375 11.1125 18.4125 10.5875C17.8875 10.0625 17.25 9.8 16.5 9.8H13.8C13.545 9.8 13.3314 9.7136 13.1592 9.5408C12.9864 9.3686 12.9 9.155 12.9 8.9C12.9 8.645 12.9864 8.4311 13.1592 8.2583C13.3314 8.0861 13.545 8 13.8 8H16.5C17.745 8 18.8064 8.4386 19.6842 9.3158C20.5614 10.1936 21 11.255 21 12.5C21 13.745 20.5614 14.8061 19.6842 15.6833C18.8064 16.5611 17.745 17 16.5 17H13.8Z" fill="black"/>
</svg>
