<svg width="24" height="24" viewBox="0 0 24 24" xmlns="http://www.w3.org/2000/svg">
<path d="M15.4907 11.7212L13.7063 9.9368H15.4907C15.7435 9.9368 15.9555 10.0222 16.1268 10.1929C16.2975 10.3642 16.3829 10.5762 16.3829 10.829C16.3829 11.0818 16.2975 11.2935 16.1268 11.4642C15.9555 11.6355 15.7435 11.7212 15.4907 11.7212V11.7212ZM18.5465 14.7993L17.2082 13.4164C17.7881 13.2528 18.2678 12.9367 18.6473 12.468C19.0262 11.9999 19.2156 11.4535 19.2156 10.829C19.2156 10.0855 18.9554 9.45353 18.4349 8.93309C17.9145 8.41264 17.2825 8.15242 16.539 8.15242H13.8625C13.6097 8.15242 13.3979 8.06677 13.2272 7.89546C13.0559 7.72476 12.9703 7.51301 12.9703 7.26022C12.9703 7.00744 13.0559 6.79539 13.2272 6.62409C13.3979 6.45338 13.6097 6.36803 13.8625 6.36803H16.539C17.7732 6.36803 18.8254 6.79569 19.6956 7.651C20.5652 8.50572 21 9.56506 21 10.829C21 11.6766 20.777 12.4608 20.3309 13.1817C19.8848 13.9032 19.29 14.4424 18.5465 14.7993ZM18.4126 19.6617L3.24535 4.49442C3.08178 4.33086 3 4.12268 3 3.86989C3 3.6171 3.08178 3.40892 3.24535 3.24535C3.40892 3.08178 3.6171 3 3.86989 3C4.12268 3 4.33085 3.08178 4.49442 3.24535L19.6617 18.4126C19.8253 18.5762 19.9071 18.7844 19.9071 19.0372C19.9071 19.29 19.8253 19.4981 19.6617 19.6617C19.4981 19.8253 19.29 19.9071 19.0372 19.9071C18.7844 19.9071 18.5762 19.8253 18.4126 19.6617ZM10.2937 15.29H7.6171C6.3829 15.29 5.331 14.8549 4.46141 13.9847C3.59123 13.1151 3.15613 12.0632 3.15613 10.829C3.15613 9.7881 3.47197 8.86974 4.10364 8.0739C4.73591 7.27866 5.53532 6.75465 6.50186 6.50186L8.15242 8.15242H7.6171C6.87361 8.15242 6.24164 8.41264 5.72119 8.93309C5.20074 9.45353 4.94052 10.0855 4.94052 10.829C4.94052 11.5725 5.20074 12.2045 5.72119 12.7249C6.24164 13.2454 6.87361 13.5056 7.6171 13.5056H10.2937C10.5465 13.5056 10.7585 13.5909 10.9298 13.7616C11.1005 13.9329 11.1859 14.145 11.1859 14.3978C11.1859 14.6506 11.1005 14.8623 10.9298 15.033C10.7585 15.2043 10.5465 15.29 10.2937 15.29ZM11.7212 11.7212H8.66543C8.41264 11.7212 8.20089 11.6355 8.03019 11.4642C7.85888 11.2935 7.77323 11.0818 7.77323 10.829C7.77323 10.5762 7.85888 10.3642 8.03019 10.1929C8.20089 10.0222 8.41264 9.9368 8.66543 9.9368H9.95911L11.7212 11.7212Z" fill="black"/>
</svg>
