<svg width="24" height="24" viewBox="0 0 24 24" fill="none" xmlns="http://www.w3.org/2000/svg">
<path d="M14.5379 11.6758L13.2634 10.4012H14.5379C14.7168 10.4012 14.8733 10.4609 15.0075 10.5801C15.1416 10.6994 15.2087 10.8484 15.2087 11.0273C15.2087 11.2062 15.1416 11.359 15.0075 11.4857C14.8733 11.6124 14.7168 11.6758 14.5379 11.6758V11.6758ZM18.0932 15.2311L16.9975 14.1354C17.7727 13.9863 18.4099 13.6286 18.9093 13.0621C19.4087 12.4957 19.6584 11.8323 19.6584 11.072C19.6584 10.1776 19.3602 9.4323 18.764 8.83602C18.1677 8.23975 17.4224 7.94161 16.528 7.94161H13.7329C13.5391 7.94161 13.3789 7.87826 13.2522 7.75155C13.1255 7.62484 13.0621 7.4646 13.0621 7.27081C13.0621 7.07702 13.1255 6.91677 13.2522 6.79006C13.3789 6.66335 13.5391 6.6 13.7329 6.6H16.528C17.795 6.6 18.8571 7.02857 19.7143 7.88571C20.5714 8.74286 21 9.80497 21 11.072C21 12.041 20.7205 12.8907 20.1615 13.6211C19.6025 14.3516 18.913 14.8882 18.0932 15.2311V15.2311ZM19.0547 19.9938L3.20124 4.16273C3.06708 4.02857 3 3.86832 3 3.68199C3 3.49565 3.06708 3.3354 3.20124 3.20124C3.3354 3.06708 3.49565 3 3.68199 3C3.86832 3 4.02857 3.06708 4.16273 3.20124L20.0161 19.0547C20.1503 19.1888 20.2174 19.3453 20.2174 19.5242C20.2174 19.7031 20.1503 19.8596 20.0161 19.9938C19.882 20.128 19.7217 20.195 19.5354 20.195C19.3491 20.195 19.1888 20.128 19.0547 19.9938V19.9938ZM10.7143 15.477H7.58385C6.31677 15.477 5.25466 15.0484 4.39752 14.1913C3.54037 13.3342 3.1118 12.272 3.1118 11.005C3.1118 9.90186 3.44348 8.94783 4.10683 8.14286C4.77019 7.33789 5.61615 6.83106 6.64472 6.62236L7.89689 7.87453H7.58385C6.68944 7.87453 5.9441 8.17267 5.34783 8.76894C4.75155 9.36522 4.45342 10.1106 4.45342 11.005C4.45342 11.8994 4.75155 12.6447 5.34783 13.241C5.9441 13.8373 6.68944 14.1354 7.58385 14.1354H10.7143C10.9081 14.1354 11.0683 14.1988 11.195 14.3255C11.3217 14.4522 11.3851 14.6124 11.3851 14.8062C11.3851 15 11.3217 15.1602 11.195 15.287C11.0683 15.4137 10.9081 15.477 10.7143 15.477ZM11.6981 11.6758H9.57391C9.38012 11.6758 9.21988 11.6124 9.09317 11.4857C8.96646 11.359 8.90311 11.1988 8.90311 11.005C8.90311 10.8112 8.96646 10.6509 9.09317 10.5242C9.21988 10.3975 9.38012 10.3342 9.57391 10.3342H10.3565L11.6981 11.6758Z" fill="black"/>
</svg>
