<svg width="24" height="24" viewBox="0 0 24 24" fill="none" xmlns="http://www.w3.org/2000/svg">
<path d="M14.775 12.75L13.35 11.325H14.775C14.975 11.325 15.15 11.3917 15.3 11.525C15.45 11.6584 15.525 11.825 15.525 12.025C15.525 12.225 15.45 12.3959 15.3 12.5375C15.15 12.6792 14.975 12.75 14.775 12.75ZM18.75 16.725L17.525 15.5C18.3917 15.3334 19.1042 14.9334 19.6625 14.3C20.2208 13.6667 20.5 12.925 20.5 12.075C20.5 11.075 20.1667 10.2417 19.5 9.57505C18.8333 8.90838 18 8.57505 17 8.57505H13.875C13.6583 8.57505 13.4792 8.50422 13.3375 8.36255C13.1958 8.22088 13.125 8.04172 13.125 7.82505C13.125 7.60838 13.1958 7.42922 13.3375 7.28755C13.4792 7.14588 13.6583 7.07505 13.875 7.07505H17C18.4167 7.07505 19.6042 7.55421 20.5625 8.51255C21.5208 9.47088 22 10.6584 22 12.075C22 13.1584 21.6875 14.1084 21.0625 14.925C20.4375 15.7417 19.6667 16.3417 18.75 16.725ZM19.825 22.05L2.1 4.35005C1.95 4.20005 1.875 4.02088 1.875 3.81255C1.875 3.60422 1.95 3.42505 2.1 3.27505C2.25 3.12505 2.42917 3.05005 2.6375 3.05005C2.84583 3.05005 3.025 3.12505 3.175 3.27505L20.9 21C21.05 21.15 21.125 21.325 21.125 21.525C21.125 21.725 21.05 21.9 20.9 22.05C20.75 22.2 20.5708 22.275 20.3625 22.275C20.1542 22.275 19.975 22.2 19.825 22.05ZM10.5 17H7C5.58333 17 4.39583 16.5209 3.4375 15.5625C2.47917 14.6042 2 13.4167 2 12C2 10.7667 2.37083 9.70005 3.1125 8.80005C3.85417 7.90005 4.8 7.33338 5.95 7.10005L7.35 8.50005H7C6 8.50005 5.16667 8.83338 4.5 9.50005C3.83333 10.1667 3.5 11 3.5 12C3.5 13 3.83333 13.8334 4.5 14.5C5.16667 15.1667 6 15.5 7 15.5H10.5C10.7167 15.5 10.8958 15.5709 11.0375 15.7125C11.1792 15.8542 11.25 16.0334 11.25 16.25C11.25 16.4667 11.1792 16.6459 11.0375 16.7875C10.8958 16.9292 10.7167 17 10.5 17ZM11.6 12.75H9.225C9.00833 12.75 8.82917 12.6792 8.6875 12.5375C8.54583 12.3959 8.475 12.2167 8.475 12C8.475 11.7834 8.54583 11.6042 8.6875 11.4625C8.82917 11.3209 9.00833 11.25 9.225 11.25H10.1L11.6 12.75Z" fill="black"/>
</svg>