<svg width="24" height="24" viewBox="0 0 24 24" xmlns="http://www.w3.org/2000/svg">
<path d="M8.4 12.9H15.6225C15.8775 12.9 16.0875 12.8136 16.2525 12.6408C16.4175 12.4686 16.5 12.255 16.5 12C16.5 11.745 16.4136 11.5311 16.2408 11.3583C16.0686 11.1861 15.855 11.1 15.6 11.1H8.3775C8.1225 11.1 7.9125 11.1861 7.7475 11.3583C7.5825 11.5311 7.5 11.745 7.5 12C7.5 12.255 7.5861 12.4686 7.7583 12.6408C7.9311 12.8136 8.145 12.9 8.4 12.9ZM12 21C10.755 21 9.585 20.7636 8.49 20.2908C7.395 19.8186 6.4425 19.1775 5.6325 18.3675C4.8225 17.5575 4.1814 16.605 3.7092 15.51C3.2364 14.415 3 13.245 3 12C3 10.755 3.2364 9.585 3.7092 8.49C4.1814 7.395 4.8225 6.4425 5.6325 5.6325C6.4425 4.8225 7.395 4.1811 8.49 3.7083C9.585 3.2361 10.755 3 12 3C13.245 3 14.415 3.2361 15.51 3.7083C16.605 4.1811 17.5575 4.8225 18.3675 5.6325C19.1775 6.4425 19.8186 7.395 20.2908 8.49C20.7636 9.585 21 10.755 21 12C21 13.245 20.7636 14.415 20.2908 15.51C19.8186 16.605 19.1775 17.5575 18.3675 18.3675C17.5575 19.1775 16.605 19.8186 15.51 20.2908C14.415 20.7636 13.245 21 12 21Z" fill="black"/>
</svg>
