<?xml version="1.0" encoding="UTF-8"?>
<svg width="24px" height="24px" viewBox="0 0 24 24" version="1.1" xmlns="http://www.w3.org/2000/svg" xmlns:xlink="http://www.w3.org/1999/xlink">
    <!-- Generator: sketchtool 45.2 (43514) - http://www.bohemiancoding.com/sketch -->
    <title>check-inactive</title>
    <desc>Created with sketchtool.</desc>
    <g id="Icons" stroke="none" stroke-width="1" fill-rule="evenodd">
        <g id="MC-icon-set" transform="translate(-24.000000, -360.000000)">
            <g id="Notices" transform="translate(24.000000, 312.000000)">
                <g id="Check-Inactive" transform="translate(0.000000, 48.000000)">
                    <path d="M12,21 C7.02943725,21 3,16.9705627 3,12 C3,7.02943725 7.02943725,3 12,3 C15.5047931,3 18.5416775,5.00335565 20.0279942,7.92740812 C20.6495995,9.15030119 21,10.5342304 21,12 C21,16.9705627 16.9705627,21 12,21 Z M6,11.5046844 L6,12.4953156 C6,12.785965 6.22401312,13 6.50034732,13 L17.4996527,13 C17.7709994,13 18,12.7740451 18,12.4953156 L18,11.5046844 C18,11.214035 17.7759869,11 17.4996527,11 L6.50034732,11 C6.22900057,11 6,11.2259549 6,11.5046844 Z" id="shape" fill="#000000"></path>
                </g>
            </g>
        </g>
    </g>
</svg>
