<svg width="24" height="24" viewBox="0 0 24 24" xmlns="http://www.w3.org/2000/svg">
<path d="M8 13H16.025C16.3083 13 16.5417 12.904 16.725 12.712C16.9083 12.5207 17 12.2833 17 12C17 11.7167 16.904 11.479 16.712 11.287C16.5207 11.0957 16.2833 11 16 11H7.975C7.69167 11 7.45833 11.0957 7.275 11.287C7.09167 11.479 7 11.7167 7 12C7 12.2833 7.09567 12.5207 7.287 12.712C7.479 12.904 7.71667 13 8 13ZM12 22C10.6167 22 9.31667 21.7373 8.1 21.212C6.88333 20.6873 5.825 19.975 4.925 19.075C4.025 18.175 3.31267 17.1167 2.788 15.9C2.26267 14.6833 2 13.3833 2 12C2 10.6167 2.26267 9.31667 2.788 8.1C3.31267 6.88333 4.025 5.825 4.925 4.925C5.825 4.025 6.88333 3.31233 8.1 2.787C9.31667 2.26233 10.6167 2 12 2C13.3833 2 14.6833 2.26233 15.9 2.787C17.1167 3.31233 18.175 4.025 19.075 4.925C19.975 5.825 20.6873 6.88333 21.212 8.1C21.7373 9.31667 22 10.6167 22 12C22 13.3833 21.7373 14.6833 21.212 15.9C20.6873 17.1167 19.975 18.175 19.075 19.075C18.175 19.975 17.1167 20.6873 15.9 21.212C14.6833 21.7373 13.3833 22 12 22Z" fill="black"/>
</svg>
