<svg width="24" height="24" viewBox="0 0 24 24" xmlns="http://www.w3.org/2000/svg">
<path d="M9.45005 17.8C9.31672 17.8 9.19172 17.775 9.07505 17.725C8.95838 17.675 8.85005 17.6 8.75005 17.5L4.22505 12.975C4.02505 12.775 3.92505 12.5334 3.92505 12.25C3.92505 11.9667 4.02505 11.725 4.22505 11.525C4.42505 11.325 4.66255 11.225 4.93755 11.225C5.21255 11.225 5.45005 11.325 5.65005 11.525L9.45005 15.325L18.35 6.45002C18.5334 6.25002 18.7625 6.15002 19.0375 6.15002C19.3125 6.15002 19.55 6.25002 19.75 6.45002C19.95 6.65002 20.05 6.89169 20.05 7.17502C20.05 7.45836 19.95 7.69169 19.75 7.87502L10.15 17.5C10.05 17.6 9.94172 17.675 9.82505 17.725C9.70838 17.775 9.58338 17.8 9.45005 17.8V17.8Z" fill="black"/>
</svg>
