<svg width="24" height="24" viewBox="0 0 24 24" xmlns="http://www.w3.org/2000/svg">
<path d="M9.16744 18.1547C9.0186 18.1547 8.87907 18.1268 8.74884 18.071C8.6186 18.0151 8.49767 17.9314 8.38605 17.8198L3.33488 12.7686C3.11163 12.5454 3 12.2756 3 11.9593C3 11.643 3.11163 11.3733 3.33488 11.15C3.55814 10.9268 3.82326 10.8151 4.13023 10.8151C4.43721 10.8151 4.70233 10.9268 4.92558 11.15L9.16744 15.3919L19.1023 5.48491C19.307 5.26165 19.5628 5.15002 19.8698 5.15002C20.1767 5.15002 20.4419 5.26165 20.6651 5.48491C20.8884 5.70816 21 5.97793 21 6.29421C21 6.61049 20.8884 6.87095 20.6651 7.07561L9.94884 17.8198C9.83721 17.9314 9.71628 18.0151 9.58605 18.071C9.45581 18.1268 9.31628 18.1547 9.16744 18.1547V18.1547Z" fill="black"/>
</svg>
