<svg width="24" height="24" viewBox="0 0 24 24" xmlns="http://www.w3.org/2000/svg">
<path d="M10.74 13.62L8.7825 11.6625C8.6175 11.4975 8.415 11.415 8.175 11.415C7.935 11.415 7.725 11.505 7.545 11.685C7.38 11.85 7.2975 12.06 7.2975 12.315C7.2975 12.57 7.38 12.78 7.545 12.945L10.11 15.51C10.275 15.675 10.485 15.7575 10.74 15.7575C10.995 15.7575 11.205 15.675 11.37 15.51L16.4775 10.4025C16.6425 10.2375 16.725 10.035 16.725 9.795C16.725 9.555 16.635 9.345 16.455 9.165C16.29 9 16.08 8.9175 15.825 8.9175C15.57 8.9175 15.36 9 15.195 9.165L10.74 13.62ZM12 21C10.755 21 9.585 20.7636 8.49 20.2908C7.395 19.8186 6.4425 19.1775 5.6325 18.3675C4.8225 17.5575 4.1814 16.605 3.7092 15.51C3.2364 14.415 3 13.245 3 12C3 10.755 3.2364 9.585 3.7092 8.49C4.1814 7.395 4.8225 6.4425 5.6325 5.6325C6.4425 4.8225 7.395 4.1811 8.49 3.7083C9.585 3.2361 10.755 3 12 3C13.245 3 14.415 3.2361 15.51 3.7083C16.605 4.1811 17.5575 4.8225 18.3675 5.6325C19.1775 6.4425 19.8186 7.395 20.2908 8.49C20.7636 9.585 21 10.755 21 12C21 13.245 20.7636 14.415 20.2908 15.51C19.8186 16.605 19.1775 17.5575 18.3675 18.3675C17.5575 19.1775 16.605 19.8186 15.51 20.2908C14.415 20.7636 13.245 21 12 21Z" fill="black"/>
</svg>
