<svg width="24" height="24" viewBox="0 0 24 24" xmlns="http://www.w3.org/2000/svg">
<path d="M12 21C10.755 21 9.585 20.7636 8.49 20.2908C7.395 19.8186 6.4425 19.1775 5.6325 18.3675C4.8225 17.5575 4.1814 16.605 3.7092 15.51C3.2364 14.415 3 13.245 3 12C3 10.755 3.2364 9.585 3.7092 8.49C4.1814 7.395 4.8225 6.4425 5.6325 5.6325C6.4425 4.8225 7.395 4.1811 8.49 3.7083C9.585 3.2361 10.755 3 12 3C13.245 3 14.415 3.2361 15.51 3.7083C16.605 4.1811 17.5575 4.8225 18.3675 5.6325C19.1775 6.4425 19.8186 7.395 20.2908 8.49C20.7636 9.585 21 10.755 21 12C21 13.245 20.7636 14.415 20.2908 15.51C19.8186 16.605 19.1775 17.5575 18.3675 18.3675C17.5575 19.1775 16.605 19.8186 15.51 20.2908C14.415 20.7636 13.245 21 12 21ZM12 19.2C14.01 19.2 15.7125 18.5025 17.1075 17.1075C18.5025 15.7125 19.2 14.01 19.2 12C19.2 9.99 18.5025 8.2875 17.1075 6.8925C15.7125 5.4975 14.01 4.8 12 4.8C9.99 4.8 8.2875 5.4975 6.8925 6.8925C5.4975 8.2875 4.8 9.99 4.8 12C4.8 14.01 5.4975 15.7125 6.8925 17.1075C8.2875 18.5025 9.99 19.2 12 19.2Z" fill="black"/>
</svg>
