<svg width="24" height="24" viewBox="0 0 24 24" xmlns="http://www.w3.org/2000/svg">
<path d="M9.4 17.4C8.905 17.4 8.4814 17.2239 8.1292 16.8717C7.7764 16.5189 7.6 16.095 7.6 15.6V4.8C7.6 4.305 7.7764 3.8811 8.1292 3.5283C8.4814 3.1761 8.905 3 9.4 3H17.5C17.995 3 18.4189 3.1761 18.7717 3.5283C19.1239 3.8811 19.3 4.305 19.3 4.8V15.6C19.3 16.095 19.1239 16.5189 18.7717 16.8717C18.4189 17.2239 17.995 17.4 17.5 17.4H9.4ZM9.4 15.6H17.5V4.8H9.4V15.6ZM5.8 21C5.305 21 4.8811 20.8239 4.5283 20.4717C4.1761 20.1189 4 19.695 4 19.2V7.5C4 7.245 4.0864 7.0311 4.2592 6.8583C4.4314 6.6861 4.645 6.6 4.9 6.6C5.155 6.6 5.3689 6.6861 5.5417 6.8583C5.7139 7.0311 5.8 7.245 5.8 7.5V19.2H14.8C15.055 19.2 15.2689 19.2864 15.4417 19.4592C15.6139 19.6314 15.7 19.845 15.7 20.1C15.7 20.355 15.6139 20.5686 15.4417 20.7408C15.2689 20.9136 15.055 21 14.8 21H5.8ZM9.4 4.8V15.6V4.8Z" fill="black"/>
</svg>
