<svg width="24" height="24" viewBox="0 0 24 24" xmlns="http://www.w3.org/2000/svg">
<path d="M14.3625 15.6225C14.5275 15.7875 14.73 15.87 14.97 15.87C15.21 15.87 15.42 15.78 15.6 15.6C15.765 15.435 15.8475 15.225 15.8475 14.97C15.8475 14.715 15.765 14.505 15.6 14.34L12.9 11.64V8.3775C12.9 8.1225 12.8139 7.9125 12.6417 7.7475C12.4689 7.5825 12.255 7.5 12 7.5C11.745 7.5 11.5314 7.5861 11.3592 7.7583C11.1864 7.9311 11.1 8.145 11.1 8.4V11.9775C11.1 12.0975 11.1225 12.2136 11.1675 12.3258C11.2125 12.4386 11.28 12.54 11.37 12.63L14.3625 15.6225ZM12 21C10.755 21 9.585 20.7636 8.49 20.2908C7.395 19.8186 6.4425 19.1775 5.6325 18.3675C4.8225 17.5575 4.1814 16.605 3.7092 15.51C3.2364 14.415 3 13.245 3 12C3 10.755 3.2364 9.585 3.7092 8.49C4.1814 7.395 4.8225 6.4425 5.6325 5.6325C6.4425 4.8225 7.395 4.1811 8.49 3.7083C9.585 3.2361 10.755 3 12 3C13.245 3 14.415 3.2361 15.51 3.7083C16.605 4.1811 17.5575 4.8225 18.3675 5.6325C19.1775 6.4425 19.8186 7.395 20.2908 8.49C20.7636 9.585 21 10.755 21 12C21 13.245 20.7636 14.415 20.2908 15.51C19.8186 16.605 19.1775 17.5575 18.3675 18.3675C17.5575 19.1775 16.605 19.8186 15.51 20.2908C14.415 20.7636 13.245 21 12 21ZM12 19.2C13.995 19.2 15.6939 18.4989 17.0967 17.0967C18.4989 15.6939 19.2 13.995 19.2 12C19.2 10.005 18.4989 8.3061 17.0967 6.9033C15.6939 5.5011 13.995 4.8 12 4.8C10.005 4.8 8.3064 5.5011 6.9042 6.9033C5.5014 8.3061 4.8 10.005 4.8 12C4.8 13.995 5.5014 15.6939 6.9042 17.0967C8.3064 18.4989 10.005 19.2 12 19.2Z" fill="black"/>
</svg>
