<?xml version="1.0" encoding="UTF-8"?>
<svg width="33px" height="32px" viewBox="0 0 33 32" version="1.1" xmlns="http://www.w3.org/2000/svg" xmlns:xlink="http://www.w3.org/1999/xlink">
    <title>Component / icon / 32px / clock </title>
    <g id="Icons" stroke="none" stroke-width="1"  fill-rule="evenodd">
        <g id="MC-icon-set" transform="translate(-287.000000, -247.000000)" fill="#FFFFFF">
            <g id="Component-/-icon-/-32px-/-clock-" transform="translate(287.000000, 247.000000)">
                <path d="M21.1979755,23.4645161 L22.3734256,25.8682081 C21.0417857,26.5017328 19.6277306,26.8744996 18.1644099,26.9783505 L17.7641258,27 L17.6619018,24.3331878 C18.893072,24.287319 20.0828114,23.9950096 21.1979755,23.4645161 Z M12.6806552,23.0671255 C13.5879045,23.6078769 14.5813128,23.9825834 15.6332316,24.1809034 L15.8780007,24.2236031 L15.8780007,24.2236031 L16.1227065,24.2595475 L15.7605678,26.9043427 C15.5498627,26.8762376 15.3361983,26.8418777 15.1255778,26.8021804 C13.9092983,26.5730402 12.7522765,26.1617674 11.6795132,25.5780852 L11.2812254,25.3511416 L12.6806552,23.0671255 Z M9.62035891,20.0268578 C10.0476877,20.7333833 10.5690772,21.3743334 11.1730289,21.9361874 L11.4368867,22.1721 L9.65959131,24.1844061 C8.83044986,23.4720034 8.11027059,22.6510722 7.51437458,21.7400633 L7.29676928,21.3942485 L9.62035891,20.0268578 Z M18.0703632,8.1865613 C22.2069649,8.47187016 25.2744879,12.0107387 24.9852285,16.0908454 C24.6959692,20.1709521 21.1080999,23.2472436 16.9714982,22.9619347 C12.8348965,22.6766259 9.71600933,19.1377574 10.0052687,15.0576506 C10.0227886,14.8105255 10.0292522,14.64 10.0703632,14.41 C10.080798,14.3516212 10.0897781,14.3399664 10.0982388,14.31 C10.1095857,14.2698112 10.1199983,14.2432166 10.1317327,14.2200287 C10.1457204,14.1923882 10.1615863,14.1695883 10.1831517,14.1343739 C10.2946825,13.9522535 10.6925523,13.43226 11.3767611,12.5743935 L10.6513313,12.5236677 C11.9081528,9.78138688 14.8485002,7.96434362 18.0703632,8.1865613 Z M16.9937651,10.3748985 C16.6042859,10.3748985 16.2823647,10.6662752 16.2314158,11.0442703 L16.2243918,11.1493536 L16.2243918,17.0061702 C16.2243918,17.3982219 16.5138565,17.7222695 16.8893714,17.7735549 L16.9937651,17.7806252 L21.9621856,17.7806252 C22.387072,17.7806252 22.7315589,17.433863 22.7315589,17.0061702 C22.7315589,16.6141184 22.4420942,16.2900708 22.0665794,16.2387855 L21.9621856,16.2317151 L17.7631385,16.2317151 L17.7631385,11.1493536 C17.7631385,10.7573019 17.4736738,10.4332543 17.0981589,10.3819689 L16.9937651,10.3748985 Z M21.2473632,7.56300362 L21.1322544,7.50827429 L21.1322544,7.50827429 L21.2333632,7.55700362 L21.0061874,7.45228319 C20.9244373,7.41596597 20.8420201,7.38081181 20.7589471,7.34682778 L20.5077717,7.24839314 C20.0253829,7.061243 19.5265836,6.92264129 19.0161364,6.82525222 L19.0144892,6.83006966 L18.9953803,6.82648355 C17.9265605,6.62492028 16.8327548,6.61623043 15.7741193,6.79812966 L15.6973632,6.81300362 L15.3432817,6.88471543 C14.9726244,6.96897923 14.6216348,7.07577145 14.2668687,7.20394401 L13.9099453,7.33907993 C13.7782388,7.39101037 13.6477647,7.44463604 13.5185734,7.50064035 C12.5337176,7.95524295 11.6502857,8.57537967 10.8877166,9.34818353 L10.9041306,9.33068689 C10.5336961,9.70932278 10.198871,10.1195023 9.90152885,10.5591081 C9.79985318,10.7168027 9.69846052,10.8741723 9.60261699,11.0341958 L9.52949009,11.158901 L9.36269721,11.4622063 C9.20080425,11.7714695 9.05820451,12.0897331 8.93426304,12.4162093 L8.81651747,12.7453939 L10.6789573,12.7448935 L7.28273355,18.1419836 L3.98036318,12.7466448 L6.0013391,12.7461444 C6.25830703,11.7292354 6.64971109,10.7626789 7.17106588,9.85834833 C7.66111195,8.98683254 8.25689779,8.1941467 8.9483179,7.48613311 C8.96027363,7.47523779 8.97181178,7.46359146 8.98337109,7.45197194 C9.28281634,7.14675039 9.60054325,6.85777996 9.93562632,6.58539997 L10.2764605,6.3185627 C11.0767668,5.73218785 11.9456782,5.24292799 12.8793528,4.86346559 C13.4942973,4.61050887 14.1298496,4.41311449 14.793256,4.27176587 C15.9796679,4.01041008 17.2096786,3.93773753 18.4260183,4.05300242 C18.7831277,4.08111179 19.1351529,4.13249612 19.4829113,4.19939731 L19.5019349,4.20495638 L19.5257777,4.20772669 C20.1891961,4.33791902 20.8369847,4.52467501 21.4658961,4.76699529 C22.8470085,5.27902479 24.093251,6.02912464 25.1781365,7.00777151 L25.4699939,7.28033451 C25.9472736,7.74565059 26.3832733,8.24653414 26.7731248,8.78271791 C27.6394095,9.96302467 28.2585958,11.2700775 28.619477,12.6714582 L28.7114864,13.0559674 L28.7022189,13.0581894 C28.7508912,13.2752269 28.7932898,13.4937715 28.8292612,13.7132621 C28.9002597,14.1461585 28.9464343,14.5836323 28.9673988,15.0207756 C28.9693602,15.0562762 28.9707019,15.092631 28.9718721,15.1290775 L28.9798128,15.447051 L28.9798128,15.447051 L28.978663,15.7638033 C28.9591253,16.3976064 28.8901519,17.0349201 28.768729,17.6616955 C28.7045223,17.9933374 28.6255465,18.3225647 28.5324128,18.6472133 L28.4990451,18.763289 L28.4990451,18.763289 C28.4808363,18.8223515 28.4626257,18.88165 28.4439431,18.9407717 C28.4229213,19.0070674 28.4013401,19.0727178 28.3791851,19.1381158 C28.3229398,19.3067274 28.2623968,19.4738017 28.1980836,19.6389745 C27.9549672,20.2553188 27.6602097,20.8486437 27.3141008,21.4148425 C26.5616542,22.6634726 25.5883325,23.7403387 24.4208918,24.6237968 L24.0977061,24.8599285 L22.5240979,22.6889997 C23.1707352,22.232912 23.7451188,21.703636 24.2410901,21.1076201 C24.8613328,20.3527294 25.3506715,19.5178654 25.6949918,18.6195011 L25.758062,18.4497309 L25.758062,18.4497309 L25.7763632,18.3940036 L25.8609878,18.1461299 C25.9629048,17.8236428 26.0466436,17.4940508 26.1110721,17.1611418 C26.2177775,16.6093818 26.2719757,16.0479477 26.2719757,15.4921846 L26.2700838,15.3105128 L26.2700838,15.3105128 L26.269056,15.2497172 L26.2673632,15.2250036 L26.247804,14.8788314 C26.2283986,14.6315817 26.1985348,14.3846056 26.1583106,14.1394535 C26.0672548,13.5849717 25.9235039,13.0391125 25.7307897,12.516866 L25.6660162,12.3467887 L25.6660162,12.3467887 L25.5980088,12.1787376 C25.5562906,12.0700769 25.5228497,11.9637484 25.4743131,11.8583352 C25.4237209,11.7484576 25.3708073,11.6395743 25.3155863,11.5317165 L25.3063415,11.5357396 C24.8082851,10.5539441 24.1420613,9.68785932 23.3232091,8.95665154 L23.0446268,8.71793735 C22.6065794,8.35032372 22.1335044,8.03154952 21.6317465,7.75990618 C21.5369477,7.71202998 21.4433871,7.66230377 21.3491464,7.61447031 C21.3164969,7.59720537 21.2830201,7.58086026 21.2494249,7.56471697 L21.2983632,7.58900362 L21.2403632,7.56000362 L21.2473632,7.56300362 Z" id="Combined-Shape"></path>
            </g>
        </g>
    </g>
</svg>