<svg width="24" height="24" viewBox="0 0 24 24" xmlns="http://www.w3.org/2000/svg">
<path d="M12 13.7034L6.03802 19.6654C5.81496 19.8885 5.53105 20 5.18631 20C4.84157 20 4.55767 19.8885 4.3346 19.6654C4.11153 19.4423 4 19.1584 4 18.8137C4 18.4689 4.11153 18.185 4.3346 17.962L10.2966 12L4.3346 6.03802C4.11153 5.81496 4 5.53105 4 5.18631C4 4.84157 4.11153 4.55767 4.3346 4.3346C4.55767 4.11153 4.84157 4 5.18631 4C5.53105 4 5.81496 4.11153 6.03802 4.3346L12 10.2966L17.962 4.3346C18.185 4.11153 18.4689 4 18.8137 4C19.1584 4 19.4423 4.11153 19.6654 4.3346C19.8885 4.55767 20 4.84157 20 5.18631C20 5.53105 19.8885 5.81496 19.6654 6.03802L13.7034 12L19.6654 17.962C19.8885 18.185 20 18.4689 20 18.8137C20 19.1584 19.8885 19.4423 19.6654 19.6654C19.4423 19.8885 19.1584 20 18.8137 20C18.4689 20 18.185 19.8885 17.962 19.6654L12 13.7034Z" fill="black"/>
</svg>
