<?xml version="1.0" encoding="UTF-8"?>
<svg width="24px" height="24px" viewBox="0 0 24 24" version="1.1" xmlns="http://www.w3.org/2000/svg" xmlns:xlink="http://www.w3.org/1999/xlink">
    <!-- Generator: sketchtool 45.2 (43514) - http://www.bohemiancoding.com/sketch -->
    <title>close-bold</title>
    <desc>Created with sketchtool.</desc>
    <defs></defs>
    <g id="Icons" stroke="none" stroke-width="1" fill-rule="evenodd">
        <g id="MC-icon-set" transform="translate(-168.000000, -648.000000)" fill-rule="nonzero" fill="#000000">
            <g id="Actions" transform="translate(24.000000, 648.000000)">
                <g id="Close-Bold" transform="translate(144.000000, 0.000000)">
                    <path d="M14.5737121,12.0437313 L17.1450219,9.47242155 C17.8550694,8.76237397 17.8566837,7.61277366 17.1486274,6.90471739 C16.4405712,6.19666112 15.2909708,6.19827538 14.5809233,6.90832296 L12.0096135,9.47963269 L9.44551495,6.9155341 C8.73745867,6.20747783 7.58785836,6.2090921 6.87781079,6.91913967 C6.16776321,7.62918725 6.16614894,8.77878756 6.87420522,9.48684383 L9.43830381,12.0509424 L6.86699408,14.6222522 C6.1569465,15.3322997 6.15533223,16.4819 6.8633885,17.1899563 C7.57144478,17.8980126 8.72104509,17.8963983 9.43109266,17.1863507 L12.0024024,14.615041 L14.566501,17.1791396 C15.2745573,17.8871959 16.4241576,17.8855816 17.1342051,17.175534 C17.8442527,16.4654865 17.845867,15.3158861 17.1378107,14.6078299 L14.5737121,12.0437313 Z" id="shape"></path>
                </g>
            </g>
        </g>
    </g>
</svg>
