<?xml version="1.0" encoding="UTF-8"?>
<svg width="24px" height="24px" viewBox="0 0 24 24" version="1.1" xmlns="http://www.w3.org/2000/svg" xmlns:xlink="http://www.w3.org/1999/xlink">
    <!-- Generator: sketchtool 45.2 (43514) - http://www.bohemiancoding.com/sketch -->
    <title>code-view</title>
    <desc>Created with sketchtool.</desc>
    <defs></defs>
    <g id="Icons" stroke="none" stroke-width="1" fill-rule="evenodd">
        <g id="MC-icon-set" transform="translate(-240.000000, -552.000000)" fill="#000000">
            <g id="Views" transform="translate(24.000000, 552.000000)">
                <g id="Code-View" transform="translate(216.000000, 0.000000)">
                    <path d="M8.3814943,17.8900884 C8.31267114,17.9635172 8.23359312,18 8.14422411,18 C8.05496344,18 7.97588542,17.9635172 7.90717058,17.8900884 L3.10305419,12.7533912 C3.03433936,12.680001 3,12.5955694 3,12.5000579 C3,12.4045464 3.03433936,12.3199604 3.10305419,12.2465316 L7.90717058,7.11025905 C7.97584931,7.03679162 8.05492733,7 8.14422411,7 C8.23359312,7 8.31267114,7.0366758 8.38134986,7.11025905 L8.89676526,7.66124543 C8.96558842,7.73467425 8.99989167,7.81922163 8.99989167,7.91477175 C8.99989167,8.01028326 8.96558842,8.09483064 8.89676526,8.16829807 L4.84537057,12.5000579 L8.89687359,16.8320108 C8.96569675,16.9054396 9,16.989987 9,17.0853827 C9,17.18101 8.96569675,17.265596 8.89687359,17.3390248 L8.3814943,17.8900884 Z M15.6185057,7.10991159 C15.6873289,7.03648277 15.7664069,7 15.8557759,7 C15.9450366,7 16.0241146,7.03648277 16.0928294,7.10991159 L20.8969458,12.2466088 C20.9656606,12.319999 21,12.4044306 21,12.4999421 C21,12.5954536 20.9656606,12.6800396 20.8969458,12.7534684 L16.0928294,17.889741 C16.0241507,17.9632084 15.9450727,18 15.8557759,18 C15.7664069,18 15.6873289,17.9633242 15.6186501,17.889741 L15.1032347,17.3387546 C15.0344116,17.2653257 15.0001083,17.1807784 15.0001083,17.0852282 C15.0001083,16.9897167 15.0344116,16.9051694 15.1032347,16.8317019 L19.1546294,12.4999421 L15.1031264,8.16798922 C15.0343033,8.0945604 15,8.01001302 15,7.91461733 C15,7.81898999 15.0343033,7.73440401 15.1031264,7.66097519 L15.6185057,7.10991159 Z M13.7890521,9.45287629 L11.0220383,16.157286 L9.56617142,16.084636 L12.3331852,9.38022631 L13.7890521,9.45287629 Z" id="shape"></path>
                </g>
            </g>
        </g>
    </g>
</svg>