<svg width="24" height="24" viewBox="0 0 24 24" xmlns="http://www.w3.org/2000/svg">
<path d="M16.6999 17.3C16.5166 17.4833 16.2876 17.575 16.0129 17.575C15.7376 17.575 15.4999 17.475 15.2999 17.275C15.0999 17.075 14.9999 16.8373 14.9999 16.562C14.9999 16.2873 15.0999 16.05 15.2999 15.85L19.1749 11.975L15.2749 8.07499C15.0916 7.89166 15.0039 7.66232 15.0119 7.38699C15.0206 7.11232 15.1166 6.88332 15.2999 6.69999C15.4832 6.51666 15.7166 6.42499 15.9999 6.42499C16.2832 6.42499 16.5166 6.51666 16.6999 6.69999L21.2999 11.3C21.4999 11.5 21.5999 11.7333 21.5999 12C21.5999 12.2667 21.4999 12.5 21.2999 12.7L16.6999 17.3ZM7.2999 17.3L2.6999 12.7C2.4999 12.5 2.3999 12.2667 2.3999 12C2.3999 11.7333 2.4999 11.5 2.6999 11.3L7.2999 6.69999C7.48324 6.51666 7.71657 6.42066 7.9999 6.41199C8.28324 6.40399 8.5249 6.49999 8.7249 6.69999C8.9249 6.89999 9.0249 7.13732 9.0249 7.41199C9.0249 7.68732 8.9249 7.92499 8.7249 8.12499L4.8249 12.025L8.7249 15.925C8.90824 16.1083 8.9959 16.3373 8.9879 16.612C8.97924 16.8873 8.88324 17.1167 8.6999 17.3C8.51657 17.4833 8.28324 17.575 7.9999 17.575C7.71657 17.575 7.48324 17.4833 7.2999 17.3Z" fill="black"/>
</svg>
