<svg width="24" height="24" viewBox="0 0 24 24" xmlns="http://www.w3.org/2000/svg">
<path d="M16.4063 17.2079C16.2344 17.3798 16.0197 17.4657 15.7622 17.4657C15.5041 17.4657 15.2812 17.372 15.0937 17.1845C14.9062 16.997 14.8125 16.7742 14.8125 16.5161C14.8125 16.2586 14.9062 16.0361 15.0937 15.8486L18.7266 12.2157L15.0703 8.55949C14.8984 8.38762 14.8162 8.17262 14.8237 7.9145C14.8319 7.657 14.9219 7.44231 15.0937 7.27043C15.2656 7.09856 15.4844 7.01262 15.75 7.01262C16.0156 7.01262 16.2344 7.09856 16.4063 7.27043L20.7187 11.5829C20.9062 11.7704 21 11.9892 21 12.2392C21 12.4892 20.9062 12.7079 20.7187 12.8954L16.4063 17.2079ZM7.59375 17.2079L3.28125 12.8954C3.09375 12.7079 3 12.4892 3 12.2392C3 11.9892 3.09375 11.7704 3.28125 11.5829L7.59375 7.27043C7.76562 7.09856 7.98437 7.00856 8.25 7.00043C8.51562 6.99293 8.74219 7.08293 8.92969 7.27043C9.11719 7.45793 9.21094 7.68043 9.21094 7.93793C9.21094 8.19606 9.11719 8.41887 8.92969 8.60637L5.27344 12.2626L8.92969 15.9189C9.10156 16.0907 9.18375 16.3054 9.17625 16.5629C9.16812 16.8211 9.07812 17.0361 8.90625 17.2079C8.73437 17.3798 8.51562 17.4657 8.25 17.4657C7.98437 17.4657 7.76562 17.3798 7.59375 17.2079Z" fill="black"/>
</svg>
