<svg width="24" height="24" viewBox="0 0 24 24" xmlns="http://www.w3.org/2000/svg">
<path d="M13.6364 12.3636C14.3182 12.3636 14.8977 12.125 15.375 11.6477C15.8523 11.1705 16.0909 10.5909 16.0909 9.90909C16.0909 9.22727 15.8523 8.64773 15.375 8.17045C14.8977 7.69318 14.3182 7.45455 13.6364 7.45455C12.9545 7.45455 12.375 7.69318 11.8977 8.17045C11.4205 8.64773 11.1818 9.22727 11.1818 9.90909C11.1818 10.5909 11.4205 11.1705 11.8977 11.6477C12.375 12.125 12.9545 12.3636 13.6364 12.3636ZM7.90909 14.8182C7.45909 14.8182 7.074 14.6578 6.75382 14.3371C6.43309 14.0169 6.27273 13.6318 6.27273 13.1818V6.63636C6.27273 6.18636 6.43309 5.80127 6.75382 5.48109C7.074 5.16036 7.45909 5 7.90909 5H19.3636C19.8136 5 20.199 5.16036 20.5197 5.48109C20.8399 5.80127 21 6.18636 21 6.63636V13.1818C21 13.6318 20.8399 14.0169 20.5197 14.3371C20.199 14.6578 19.8136 14.8182 19.3636 14.8182H7.90909ZM4.63636 18.0909C4.18636 18.0909 3.80127 17.9308 3.48109 17.6106C3.16036 17.2899 3 16.9045 3 16.4545V8.27273C3 8.04091 3.07855 7.84645 3.23564 7.68936C3.39218 7.53282 3.58636 7.45455 3.81818 7.45455C4.05 7.45455 4.24445 7.53282 4.40155 7.68936C4.55809 7.84645 4.63636 8.04091 4.63636 8.27273V16.4545H17.7273C17.9591 16.4545 18.1533 16.5331 18.3098 16.6902C18.4669 16.8467 18.5455 17.0409 18.5455 17.2727C18.5455 17.5045 18.4669 17.6987 18.3098 17.8553C18.1533 18.0124 17.9591 18.0909 17.7273 18.0909H4.63636ZM7.90909 8.27273C8.35909 8.27273 8.74418 8.11236 9.06436 7.79164C9.38509 7.47145 9.54545 7.08636 9.54545 6.63636H7.90909V8.27273ZM19.3636 8.27273V6.63636H17.7273C17.7273 7.08636 17.8874 7.47145 18.2075 7.79164C18.5283 8.11236 18.9136 8.27273 19.3636 8.27273ZM7.90909 13.1818H9.54545C9.54545 12.7318 9.38509 12.3465 9.06436 12.0257C8.74418 11.7055 8.35909 11.5455 7.90909 11.5455V13.1818ZM17.7273 13.1818H19.3636V11.5455C18.9136 11.5455 18.5283 11.7055 18.2075 12.0257C17.8874 12.3465 17.7273 12.7318 17.7273 13.1818Z" fill="black"/>
</svg>
