<svg width="24" height="24" viewBox="0 0 24 24" xmlns="http://www.w3.org/2000/svg">
<path d="M3 17.0167V7.00278C3 6.45202 3.19594 5.9807 3.58782 5.58882C3.98036 5.19627 4.45202 5 5.00278 5H18.9972C19.548 5 20.0196 5.19627 20.4122 5.58882C20.8041 5.9807 21 6.45202 21 7.00278V17.0167C21 17.5675 20.8041 18.0391 20.4122 18.4317C20.0196 18.8235 19.548 19.0195 18.9972 19.0195H5.00278C4.45202 19.0195 3.98036 18.8235 3.58782 18.4317C3.19594 18.0391 3 17.5675 3 17.0167ZM5.00278 17.0167H8.33241V7.00278H5.00278V17.0167ZM10.3352 17.0167H13.6648V7.00278H10.3352V17.0167ZM15.6676 17.0167H18.9972V7.00278H15.6676V17.0167V17.0167Z" fill="black"/>
</svg>
