<?xml version="1.0" encoding="utf-8"?>
<!-- Generator: Adobe Illustrator 22.1.0, SVG Export Plug-In . SVG Version: 6.00 Build 0)  -->
<svg version="1.1" id="Ebene_1" xmlns="http://www.w3.org/2000/svg" xmlns:xlink="http://www.w3.org/1999/xlink" x="0px" y="0px"
	 viewBox="0 0 24 24" style="enable-background:new 0 0 24 24;" xml:space="preserve">
<title>connected-square</title>
<desc>Created with Sketch.</desc>
<g id="Icons">
	<g id="MC-icon-set" transform="translate(-96.000000, -1306.000000)">
		<g id="Connected-Square" transform="translate(96.000000, 1306.000000)">
			<path id="shape" d="M7.8,4.6h6.5c0.1,0,0.2,0.2,0.2,0.4v1c0,0.2-0.1,0.4-0.2,0.4H7.7C7.3,7.3,6.5,7.9,5.5,7.9
				C4.1,7.9,3,6.8,3,5.5S4.1,3,5.5,3C6.5,3,7.4,3.7,7.8,4.6z M4.6,16.3V9.8c0-0.1,0.2-0.2,0.4-0.2h1c0.2,0,0.4,0.1,0.4,0.2v6.5
				c0.9,0.4,1.4,1.2,1.4,2.2c0,1.4-1.1,2.5-2.5,2.5S3,19.9,3,18.6C3,17.5,3.7,16.6,4.6,16.3z M16.2,19.3H9.8c-0.1,0-0.2-0.2-0.2-0.4
				v-1c0-0.2,0.1-0.4,0.2-0.4h6.5c0.4-0.9,1.2-1.4,2.2-1.4c1.4,0,2.5,1.1,2.5,2.5S19.9,21,18.5,21C17.5,21,16.6,20.3,16.2,19.3z
				 M19.4,7.8v6.5c0,0.1-0.2,0.2-0.4,0.2h-1c-0.2,0-0.4-0.1-0.4-0.2V7.7c-0.9-0.4-1.4-1.2-1.4-2.2c0-1.4,1.1-2.5,2.5-2.5
				S21,4.1,21,5.5C21,6.5,20.3,7.4,19.4,7.8z"/>
		</g>
	</g>
</g>
</svg>
