<?xml version="1.0" encoding="UTF-8"?>
<svg width="24px" height="24px" viewBox="0 0 24 24" version="1.1" xmlns="http://www.w3.org/2000/svg" xmlns:xlink="http://www.w3.org/1999/xlink">
    <!-- Generator: Sketch 52.4 (67378) - http://www.bohemiancoding.com/sketch -->
    <title>connected-triangle</title>
    <desc>Created with Sketch.</desc>
    <g id="Connected-Triangle" stroke="none" stroke-width="1"  fill-rule="evenodd">
        <path d="M15.0232102,18.375 L8.97678984,18.375 C8.79225306,19.8548668 7.52985662,21 6,21 C4.34314575,21 3,19.6568542 3,18 C3,16.3431458 4.34314575,15 6,15 C6.16695659,15 6.33072777,15.0136383 6.49026023,15.0398617 L10.0012833,8.23725446 C9.38678911,7.68789842 9,6.88911893 9,6 C9,4.34314575 10.3431458,3 12,3 C13.6568542,3 15,4.34314575 15,6 C15,6.86199912 14.6364466,7.6390858 14.0543063,8.18629362 L17.7946487,15.0069179 C17.8625051,15.0023308 17.9309804,15 18,15 C19.6568542,15 21,16.3431458 21,18 C21,19.6568542 19.6568542,21 18,21 C16.4701434,21 15.2077469,19.8548668 15.0232102,18.375 Z M15.2180689,16.875 C15.4477655,16.3075532 15.8460397,15.8263812 16.3507892,15.4935864 L12.7394397,8.90818433 C12.5029079,8.96814124 12.2551744,9 12,9 C11.7710788,9 11.5481463,8.9743595 11.3339176,8.92579371 L7.86383489,15.649079 C8.26695091,15.969103 8.58585868,16.390619 8.78193111,16.875 L15.2180689,16.875 Z" id="Shape" fill="#000000" fill-rule="nonzero"></path>
    </g>
</svg>