<svg width="24" height="24" viewBox="0 0 24 24" xmlns="http://www.w3.org/2000/svg">
<path d="M17.9091 17.7273H8.90909C8.45909 17.7273 8.074 17.5672 7.75382 17.247C7.43309 16.9263 7.27273 16.5409 7.27273 16.0909V4.63636C7.27273 4.18636 7.43309 3.801 7.75382 3.48027C8.074 3.16009 8.45909 3 8.90909 3H14.6364L19.5455 7.90909V16.0909C19.5455 16.5409 19.3854 16.9263 19.0652 17.247C18.7445 17.5672 18.3591 17.7273 17.9091 17.7273ZM13.8182 8.72727V4.63636H8.90909V16.0909H17.9091V8.72727H13.8182ZM5.63636 21C5.18636 21 4.80127 20.8399 4.48109 20.5197C4.16036 20.199 4 19.8136 4 19.3636V7.90909H5.63636V19.3636H14.6364V21H5.63636ZM8.90909 4.63636V8.72727V4.63636V16.0909V4.63636Z" fill="black"/>
</svg>
