<svg width="24" height="24" viewBox="0 0 24 24" xmlns="http://www.w3.org/2000/svg">
<path fill-rule="evenodd" clip-rule="evenodd" d="M12.3371 4.5C10.957 4.5 9.83704 5.62 9.83704 7.00001V8.00001H8.33703V7.00001C8.33703 4.79 10.127 3 12.3371 3C14.5471 3 16.337 4.79 16.337 7.00001V8.00001H14.837V7.00001C14.837 5.62 13.717 4.5 12.3371 4.5ZM19.9569 18.67L18.3469 8.99997H6.33687L4.72687 18.67C4.52687 19.89 5.46688 21 6.69687 21H17.9769C19.2169 21 20.1569 19.89 19.9469 18.67H19.9569ZM18.3669 19.32C18.3069 19.39 18.1869 19.5 17.9869 19.5H6.70687C6.50688 19.5 6.37687 19.39 6.32688 19.32C6.26688 19.25 6.18688 19.11 6.21687 18.91L7.61688 10.49H17.0769L18.4769 18.91C18.5069 19.11 18.4169 19.25 18.3669 19.32ZM11.277 12.53L12.997 14.25H8.80704V15.7499H12.997L11.277 17.4699L12.3371 18.53L15.877 14.9999L12.3371 11.4699L11.277 12.53Z" fill="#1A1A1A"/>
</svg>
