<?xml version="1.0" encoding="UTF-8"?>
<svg width="24px" height="24px" viewBox="0 0 24 24" version="1.1" xmlns="http://www.w3.org/2000/svg" xmlns:xlink="http://www.w3.org/1999/xlink">
    <!-- Generator: sketchtool 45.2 (43514) - http://www.bohemiancoding.com/sketch -->
    <title>cubes</title>
    <desc>Created with sketchtool.</desc>
    <defs></defs>
    <g id="Icons" stroke="none" stroke-width="1" fill-rule="evenodd">
        <g id="MC-icon-set" transform="translate(-240.000000, -24.000000)" fill="#000000">
            <g id="Application" transform="translate(24.000000, 24.000000)">
                <g id="Cubes" transform="translate(216.000000, 0.000000)">
                    <path d="M20.8372577,12.6964815 L16.5721856,11.1375926 L16.5721856,6.39314815 C16.5721856,6.30166667 16.5141031,6.22018519 16.4272577,6.19018519 L12.0604948,4.59407407 C12.0152165,4.57814815 11.9643711,4.57851852 11.9190928,4.59407407 L7.56049485,6.14611111 C7.51651546,6.16166667 7.47865979,6.19018519 7.45991753,6.21981481 C7.428,6.25814815 7.41037113,6.30703704 7.41037113,6.35648148 L7.41037113,11.1355556 L3.15012371,12.6522222 C3.10614433,12.667963 3.06828866,12.6964815 3.04954639,12.7261111 C3.01762887,12.7644444 3,12.8133333 3,12.862963 L3,17.6857407 C3,17.7764815 3.05808247,17.8583333 3.14437113,17.8883333 L7.50556701,19.3883333 C7.55103093,19.4038889 7.60169072,19.4038889 7.64715464,19.3883333 L11.9910928,17.8953704 L16.3259381,19.3883333 C16.3712165,19.4038889 16.4220619,19.4038889 16.4675258,19.3883333 L20.8298351,17.8864815 C20.9205773,17.8587037 20.982,17.7761111 20.982,17.6811111 L20.982,12.8994444 C20.982,12.807963 20.9242887,12.7264815 20.8372577,12.6964815 L20.8372577,12.6964815 Z M15.8119175,10.8114815 L12.4600206,11.9435185 L12.4600206,8.35592593 L15.8119175,7.12907407 L15.8119175,10.8114815 L15.8119175,10.8114815 Z M11.9896082,5.37259259 L15.1073196,6.535 L11.9933196,7.68592593 L8.70321649,6.55277778 L11.9896082,5.37259259 L11.9896082,5.37259259 Z M7.58313402,14.1924074 L4.29303093,13.0592593 L7.57960825,11.8790741 L10.6973196,13.0414815 L7.58313402,14.1924074 L7.58313402,14.1924074 Z M11.401732,17.3177778 L8.04964948,18.45 L8.04964948,14.8624074 L11.401732,13.6355556 L11.401732,17.3177778 L11.401732,17.3177778 Z M16.4033196,14.1924074 L13.1132165,13.0592593 L16.3997938,11.8790741 L19.5176907,13.0414815 L16.4033196,14.1924074 L16.4033196,14.1924074 Z M20.2219175,17.3177778 L16.8698351,18.45 L16.8698351,14.8624074 L20.221732,13.6355556 L20.221732,17.3177778 L20.2219175,17.3177778 Z" id="shape"></path>
                </g>
            </g>
        </g>
    </g>
</svg>