<svg xmlns="http://www.w3.org/2000/svg" width="24" height="24" viewBox="0 0 24 24">
<g clip-path="url(#clip0_4893_15494)">
<path fill-rule="evenodd" clip-rule="evenodd" d="M7.61808 4.03639C7.53674 4.06263 7.45798 4.09629 7.38281 4.13695C7.2481 4.21474 3.17829 9.09092 3.07773 9.29678C3.02569 9.41482 2.9992 9.54254 3.00002 9.67154C3.00084 9.80054 3.02894 9.92791 3.08248 10.0453C3.16501 10.2075 11.1851 19.864 11.3928 20.0509C11.5573 20.2053 11.7744 20.2913 12 20.2913C12.2256 20.2913 12.4427 20.2053 12.6072 20.0509C12.8149 19.864 20.835 10.2075 20.9175 10.0453C20.9711 9.92791 20.9992 9.80054 21 9.67154C21.0008 9.54254 20.9743 9.41482 20.9223 9.29678C20.8824 9.21425 19.9195 8.03125 18.784 6.66801C16.8041 4.29253 16.7102 4.18533 16.5328 4.09806L16.3478 4.00793L12.0474 4.00129C8.61798 3.99655 7.72054 4.00414 7.61808 4.03639ZM9.59417 4.98032C9.36613 5.69115 9.13148 6.39984 8.89025 7.1063L8.18918 9.19338L6.28045 9.20192C4.61838 9.20856 4.37457 9.20381 4.38975 9.16397C4.39923 9.13835 5.19138 8.17735 6.14859 7.02945L7.8894 4.94048H8.74321C9.40633 4.94048 9.59606 4.94902 9.59417 4.98032ZM14.1051 7.0655C14.4912 8.22478 14.7995 9.18199 14.79 9.19148C14.7663 9.2152 9.23367 9.2152 9.20995 9.19148C9.19667 9.17915 10.4632 5.3209 10.5922 4.97937C10.6036 4.94807 10.9033 4.94143 12.0047 4.94807L13.4021 4.9566L14.1051 7.0655ZM17.8514 7.02945C18.8086 8.17735 19.6008 9.13835 19.6103 9.16397C19.6254 9.20381 19.3816 9.20856 17.7195 9.20192L15.8108 9.19338L15.1097 7.1063C14.8685 6.39984 14.6339 5.69115 14.4058 4.98032C14.4039 4.94902 14.5937 4.94048 15.2568 4.94048H16.1106L17.8514 7.02945ZM8.21954 10.2293C8.27077 10.3527 10.8948 17.8937 10.9185 17.9847C10.928 18.0198 9.45945 16.2781 7.65698 14.116C5.8545 11.9531 4.37931 10.1705 4.37931 10.1553C4.37931 10.1383 5.1724 10.1269 6.27761 10.1269H8.17685L8.21954 10.2293ZM14.7768 10.1847C14.7606 10.2825 12.0171 18.1574 12 18.1574C11.9829 18.1574 9.23936 10.2825 9.22324 10.1847C9.2128 10.1288 9.30577 10.1269 12 10.1269C14.6942 10.1269 14.7872 10.1288 14.7768 10.1847ZM19.6207 10.1553C19.6207 10.1705 18.1455 11.9531 16.343 14.116C14.5405 16.2781 13.072 18.0198 13.0815 17.9847C13.1052 17.8937 15.7292 10.3527 15.7805 10.2293L15.8232 10.1269H17.7224C18.8276 10.1269 19.6207 10.1383 19.6207 10.1553Z" fill="black"/>
</g>
<defs>
<clipPath id="clip0_4893_15494">
<rect width="18" height="17" fill="white" transform="translate(3 4)"/>
</clipPath>
</defs>
</svg>
