<svg width="24" height="24" viewBox="0 0 24 24" xmlns="http://www.w3.org/2000/svg">
<path d="M4.8 20.2C4.305 20.2 3.8814 20.0239 3.5292 19.6717C3.1764 19.3189 3 18.895 3 18.4V5.8C3 5.305 3.1764 4.8811 3.5292 4.5283C3.8814 4.1761 4.305 4 4.8 4H10.2C10.695 4 11.1189 4.1761 11.4717 4.5283C11.8239 4.8811 12 5.305 12 5.8V7.6H19.2C19.695 7.6 20.1189 7.7761 20.4717 8.1283C20.8239 8.4811 21 8.905 21 9.4V18.4C21 18.895 20.8239 19.3189 20.4717 19.6717C20.1189 20.0239 19.695 20.2 19.2 20.2H4.8ZM4.8 18.4H6.6V16.6H4.8V18.4ZM4.8 14.8H6.6V13H4.8V14.8ZM4.8 11.2H6.6V9.4H4.8V11.2ZM4.8 7.6H6.6V5.8H4.8V7.6ZM8.4 18.4H10.2V16.6H8.4V18.4ZM8.4 14.8H10.2V13H8.4V14.8ZM8.4 11.2H10.2V9.4H8.4V11.2ZM8.4 7.6H10.2V5.8H8.4V7.6ZM12 18.4H19.2V9.4H12V11.2H13.8V13H12V14.8H13.8V16.6H12V18.4ZM15.6 13V11.2H17.4V13H15.6ZM15.6 16.6V14.8H17.4V16.6H15.6Z" fill="black"/>
</svg>
