<svg width="24px" height="24px" viewBox="0 0 24 24" xmlns="http://www.w3.org/2000/svg">
    <g id="Symbols" stroke="none" stroke-width="1" fill-rule="evenodd">
        <g id="domain_FILL0_wght400_GRAD0_opsz24" fill="#1A1A1A" transform="translate(3.000000, 4.000000)">
            <path d="M1.8,16.2 C1.305,16.2 0.8814,16.0239 0.5292,15.6717 C0.1764,15.3189 0,14.895 0,14.4 L0,1.8 C0,1.305 0.1764,0.8811 0.5292,0.5283 C0.8814,0.1761 1.305,0 1.8,0 L7.2,0 C7.695,0 8.1189,0.1761 8.4717,0.5283 C8.8239,0.8811 9,1.305 9,1.8 L9,3.6 L16.2,3.6 C16.695,3.6 17.1189,3.7761 17.4717,4.1283 C17.8239,4.4811 18,4.905 18,5.4 L18,14.4 C18,14.895 17.8239,15.3189 17.4717,15.6717 C17.1189,16.0239 16.695,16.2 16.2,16.2 L1.8,16.2 Z M1.8,14.4 L3.6,14.4 L3.6,12.6 L1.8,12.6 L1.8,14.4 Z M1.8,10.8 L3.6,10.8 L3.6,9 L1.8,9 L1.8,10.8 Z M1.8,7.2 L3.6,7.2 L3.6,5.4 L1.8,5.4 L1.8,7.2 Z M1.8,3.6 L3.6,3.6 L3.6,1.8 L1.8,1.8 L1.8,3.6 Z M5.4,14.4 L7.2,14.4 L7.2,12.6 L5.4,12.6 L5.4,14.4 Z M5.4,10.8 L7.2,10.8 L7.2,9 L5.4,9 L5.4,10.8 Z M5.4,7.2 L7.2,7.2 L7.2,5.4 L5.4,5.4 L5.4,7.2 Z M5.4,3.6 L7.2,3.6 L7.2,1.8 L5.4,1.8 L5.4,3.6 Z M9,14.4 L16.2,14.4 L16.2,5.4 L9,5.4 L9,7.2 L10.8,7.2 L10.8,9 L9,9 L9,10.8 L10.8,10.8 L10.8,12.6 L9,12.6 L9,14.4 Z M12.6,9 L12.6,7.2 L14.4,7.2 L14.4,9 L12.6,9 Z M12.6,12.6 L12.6,10.8 L14.4,10.8 L14.4,12.6 L12.6,12.6 Z"></path>
        </g>
    </g>
</svg>
