<svg width="24" height="24" viewBox="0 0 24 24" xmlns="http://www.w3.org/2000/svg">
<path d="M12 16.0219C11.85 16.0219 11.7094 15.9983 11.5781 15.951C11.4469 15.9045 11.325 15.825 11.2125 15.7125L7.1625 11.6625C6.95625 11.4562 6.85313 11.1937 6.85313 10.875C6.85313 10.5563 6.95625 10.2938 7.1625 10.0875C7.36875 9.88125 7.63575 9.77325 7.9635 9.7635C8.292 9.7545 8.55937 9.85312 8.76562 10.0594L10.875 12.1687V4.125C10.875 3.80625 10.983 3.53888 11.199 3.32288C11.4143 3.10763 11.6813 3 12 3C12.3187 3 12.5861 3.10763 12.8021 3.32288C13.0174 3.53888 13.125 3.80625 13.125 4.125V12.1687L15.2344 10.0594C15.4406 9.85312 15.708 9.7545 16.0365 9.7635C16.3643 9.77325 16.6312 9.88125 16.8375 10.0875C17.0437 10.2938 17.1469 10.5563 17.1469 10.875C17.1469 11.1937 17.0437 11.4562 16.8375 11.6625L12.7875 15.7125C12.675 15.825 12.5531 15.9045 12.4219 15.951C12.2906 15.9983 12.15 16.0219 12 16.0219V16.0219ZM5.25 21C4.63125 21 4.10175 20.7799 3.6615 20.3396C3.2205 19.8986 3 19.3688 3 18.75V16.5C3 16.1813 3.10763 15.9139 3.32288 15.6979C3.53888 15.4826 3.80625 15.375 4.125 15.375C4.44375 15.375 4.71112 15.4826 4.92712 15.6979C5.14237 15.9139 5.25 16.1813 5.25 16.5V18.75H18.75V16.5C18.75 16.1813 18.858 15.9139 19.074 15.6979C19.2893 15.4826 19.5563 15.375 19.875 15.375C20.1937 15.375 20.4607 15.4826 20.676 15.6979C20.892 15.9139 21 16.1813 21 16.5V18.75C21 19.3688 20.7799 19.8986 20.3396 20.3396C19.8986 20.7799 19.3688 21 18.75 21H5.25Z" fill="black"/>
</svg>
