<?xml version="1.0" encoding="UTF-8"?>
<svg width="24px" height="24px" viewBox="0 0 24 24" version="1.1" xmlns="http://www.w3.org/2000/svg" xmlns:xlink="http://www.w3.org/1999/xlink">
    <!-- Generator: Sketch 49.3 (51167) - http://www.bohemiancoding.com/sketch -->
    <title>download</title>
    <desc>Created with Sketch.</desc>
    <defs></defs>
    <g id="Icons" stroke="none" stroke-width="1"  fill-rule="evenodd">
        <g id="MC-icon-set" transform="translate(-170.000000, -944.000000)">
            <g id="Directions" transform="translate(25.000000, 943.000000)"></g>
            <g id="Actions" transform="translate(24.000000, 752.000000)" fill="#000000" fill-rule="nonzero">
                <g id="Download" transform="translate(146.000000, 192.000000)">
                    <path d="M10.875,13.140832 L10.875,3.5 C10.875,3.22385763 11.0988576,3 11.375,3 L12.6,3 C12.8761424,3 13.1,3.22385763 13.1,3.5 L13.1,13.1624529 L17.9039474,8.31823043 C18.0040526,8.21706821 18.1193158,8.16664632 18.2493684,8.16664632 C18.3797368,8.16664632 18.4950526,8.21706821 18.5951579,8.31823043 L19.3464211,9.07577942 C19.4465263,9.17694164 19.4962632,9.29317735 19.4962632,9.42453963 C19.4962632,9.55574267 19.4465263,9.67197838 19.3464211,9.77298138 L12.3435789,16.8344866 C12.2435263,16.9354895 12.1284211,16.9859645 11.9982105,16.9859645 C11.868,16.9859645 11.7526842,16.9354895 11.6525789,16.8344866 L4.65031579,9.77298138 C4.55015789,9.67203146 4.5,9.55579575 4.5,9.42453963 C4.5,9.29317735 4.55,9.17694164 4.65031579,9.07599172 L5.40147368,8.31838965 C5.50157895,8.21722743 5.61684211,8.16680555 5.74710526,8.16680555 C5.87731579,8.16680555 5.99257895,8.21722743 6.09273684,8.31838965 L10.875,13.140832 Z M3.5,18.7700195 L20.5,18.7700195 C20.7761424,18.7700195 21,18.9938772 21,19.2700195 L21,20.5000196 C21,20.7761619 20.7761424,21.0000196 20.5,21.0000196 L3.5,21.0000196 C3.22385763,21.0000196 3,20.7761619 3,20.5000196 L3,19.2700195 C3,18.9938772 3.22385763,18.7700195 3.5,18.7700195 Z" id="Shape"></path>
                </g>
            </g>
        </g>
    </g>
</svg>