<svg width="24" height="24" viewBox="0 0 24 24" xmlns="http://www.w3.org/2000/svg">
<path d="M11.9999 20.575C11.8666 20.575 11.7416 20.554 11.6249 20.512C11.5082 20.4707 11.3999 20.4 11.2999 20.3L8.6749 17.675C8.49157 17.4917 8.3999 17.2667 8.3999 17C8.3999 16.7333 8.4999 16.5 8.6999 16.3C8.88324 16.1167 9.11657 16.025 9.3999 16.025C9.68324 16.025 9.91657 16.1167 10.0999 16.3L10.9999 17.2V6.79999L10.0749 7.72499C9.89157 7.90832 9.66657 7.99999 9.3999 7.99999C9.13324 7.99999 8.8999 7.89999 8.6999 7.69999C8.51657 7.51665 8.4249 7.28332 8.4249 6.99999C8.4249 6.71665 8.51657 6.48332 8.6999 6.29999L11.2999 3.69999C11.3999 3.59999 11.5082 3.52899 11.6249 3.48699C11.7416 3.44565 11.8666 3.42499 11.9999 3.42499C12.1332 3.42499 12.2582 3.44565 12.3749 3.48699C12.4916 3.52899 12.5999 3.59999 12.6999 3.69999L15.3249 6.32499C15.5082 6.50832 15.5999 6.73332 15.5999 6.99999C15.5999 7.26665 15.4999 7.49999 15.2999 7.69999C15.1166 7.88332 14.8832 7.97499 14.5999 7.97499C14.3166 7.97499 14.0832 7.88332 13.8999 7.69999L12.9999 6.79999V17.2L13.9249 16.275C14.1082 16.0917 14.3332 16 14.5999 16C14.8666 16 15.0999 16.1 15.2999 16.3C15.4832 16.4833 15.5749 16.7167 15.5749 17C15.5749 17.2833 15.4832 17.5167 15.2999 17.7L12.6999 20.3C12.5999 20.4 12.4916 20.4707 12.3749 20.512C12.2582 20.554 12.1332 20.575 11.9999 20.575Z" fill="black"/>
</svg>
