<?xml version="1.0" encoding="UTF-8"?>
<svg width="24px" height="24px" viewBox="0 0 24 24" version="1.1" xmlns="http://www.w3.org/2000/svg" xmlns:xlink="http://www.w3.org/1999/xlink">
    <!-- Generator: sketchtool 45.2 (43514) - http://www.bohemiancoding.com/sketch -->
    <title>drag</title>
    <desc>Created with sketchtool.</desc>
    <defs></defs>
    <g id="Icons" stroke="none" stroke-width="1" fill-rule="evenodd">
        <g id="MC-icon-set" transform="translate(-96.000000, -840.000000)" fill="#000000">
            <g id="Actions" transform="translate(24.000000, 648.000000)">
                <g id="Drag" transform="translate(72.000000, 192.000000)">
                    <path d="M9,3 L11,3 L11,5 L9,5 L9,3 Z M13,3 L15,3 L15,5 L13,5 L13,3 Z M9,7 L11,7 L11,9 L9,9 L9,7 Z M13,7 L15,7 L15,9 L13,9 L13,7 Z M9,11 L11,11 L11,13 L9,13 L9,11 Z M13,11 L15,11 L15,13 L13,13 L13,11 Z M9,15 L11,15 L11,17 L9,17 L9,15 Z M13,15 L15,15 L15,17 L13,17 L13,15 Z M9,19 L11,19 L11,21 L9,21 L9,19 Z M13,19 L15,19 L15,21 L13,21 L13,19 Z" id="shape"></path>
                </g>
            </g>
        </g>
    </g>
</svg>