<svg width="24" height="24" viewBox="0 0 24 24" xmlns="http://www.w3.org/2000/svg">
<path d="M12.1785 21C12.0385 21 11.9073 20.978 11.7849 20.9339C11.6624 20.8905 11.5487 20.8163 11.4438 20.7114L8.68865 17.9563C8.49623 17.7638 8.40002 17.5277 8.40002 17.2478C8.40002 16.9679 8.50498 16.723 8.71489 16.5131C8.90731 16.3207 9.15221 16.2245 9.44959 16.2245C9.74696 16.2245 9.99186 16.3207 10.1843 16.5131L11.1289 17.4577V6.54227L10.158 7.51312C9.96562 7.70554 9.72947 7.80175 9.44959 7.80175C9.1697 7.80175 8.92481 7.69679 8.71489 7.48688C8.52247 7.29446 8.42626 7.04956 8.42626 6.75219C8.42626 6.45481 8.52247 6.20991 8.71489 6.01749L11.4438 3.28863C11.5487 3.18367 11.6624 3.10915 11.7849 3.06507C11.9073 3.02169 12.0385 3 12.1785 3C12.3184 3 12.4496 3.02169 12.572 3.06507C12.6945 3.10915 12.8082 3.18367 12.9131 3.28863L15.6682 6.04373C15.8607 6.23615 15.9569 6.4723 15.9569 6.75219C15.9569 7.03207 15.8519 7.27697 15.642 7.48688C15.4496 7.6793 15.2047 7.77551 14.9073 7.77551C14.6099 7.77551 14.365 7.6793 14.1726 7.48688L13.228 6.54227V17.4577L14.1989 16.4869C14.3913 16.2945 14.6274 16.1982 14.9073 16.1982C15.1872 16.1982 15.4321 16.3032 15.642 16.5131C15.8344 16.7055 15.9306 16.9504 15.9306 17.2478C15.9306 17.5452 15.8344 17.7901 15.642 17.9825L12.9131 20.7114C12.8082 20.8163 12.6945 20.8905 12.572 20.9339C12.4496 20.978 12.3184 21 12.1785 21Z" fill="black"/>
</svg>
