<svg width="24" height="24" viewBox="0 0 24 24" xmlns="http://www.w3.org/2000/svg">
<path d="M8.25 21C7.63125 21 7.10175 20.7799 6.6615 20.3396C6.2205 19.8986 6 19.3688 6 18.75C6 18.1312 6.2205 17.6014 6.6615 17.1604C7.10175 16.7201 7.63125 16.5 8.25 16.5C8.86875 16.5 9.39863 16.7201 9.83963 17.1604C10.2799 17.6014 10.5 18.1312 10.5 18.75C10.5 19.3688 10.2799 19.8986 9.83963 20.3396C9.39863 20.7799 8.86875 21 8.25 21ZM15 21C14.3812 21 13.8518 20.7799 13.4115 20.3396C12.9705 19.8986 12.75 19.3688 12.75 18.75C12.75 18.1312 12.9705 17.6014 13.4115 17.1604C13.8518 16.7201 14.3812 16.5 15 16.5C15.6188 16.5 16.1486 16.7201 16.5896 17.1604C17.0299 17.6014 17.25 18.1312 17.25 18.75C17.25 19.3688 17.0299 19.8986 16.5896 20.3396C16.1486 20.7799 15.6188 21 15 21ZM8.25 14.25C7.63125 14.25 7.10175 14.0295 6.6615 13.5885C6.2205 13.1482 6 12.6188 6 12C6 11.3812 6.2205 10.8514 6.6615 10.4104C7.10175 9.97012 7.63125 9.75 8.25 9.75C8.86875 9.75 9.39863 9.97012 9.83963 10.4104C10.2799 10.8514 10.5 11.3812 10.5 12C10.5 12.6188 10.2799 13.1482 9.83963 13.5885C9.39863 14.0295 8.86875 14.25 8.25 14.25ZM15 14.25C14.3812 14.25 13.8518 14.0295 13.4115 13.5885C12.9705 13.1482 12.75 12.6188 12.75 12C12.75 11.3812 12.9705 10.8514 13.4115 10.4104C13.8518 9.97012 14.3812 9.75 15 9.75C15.6188 9.75 16.1486 9.97012 16.5896 10.4104C17.0299 10.8514 17.25 11.3812 17.25 12C17.25 12.6188 17.0299 13.1482 16.5896 13.5885C16.1486 14.0295 15.6188 14.25 15 14.25ZM8.25 7.5C7.63125 7.5 7.10175 7.2795 6.6615 6.8385C6.2205 6.39825 6 5.86875 6 5.25C6 4.63125 6.2205 4.10175 6.6615 3.6615C7.10175 3.2205 7.63125 3 8.25 3C8.86875 3 9.39863 3.2205 9.83963 3.6615C10.2799 4.10175 10.5 4.63125 10.5 5.25C10.5 5.86875 10.2799 6.39825 9.83963 6.8385C9.39863 7.2795 8.86875 7.5 8.25 7.5ZM15 7.5C14.3812 7.5 13.8518 7.2795 13.4115 6.8385C12.9705 6.39825 12.75 5.86875 12.75 5.25C12.75 4.63125 12.9705 4.10175 13.4115 3.6615C13.8518 3.2205 14.3812 3 15 3C15.6188 3 16.1486 3.2205 16.5896 3.6615C17.0299 4.10175 17.25 4.63125 17.25 5.25C17.25 5.86875 17.0299 6.39825 16.5896 6.8385C16.1486 7.2795 15.6188 7.5 15 7.5Z" fill="black"/>
</svg>
