<?xml version="1.0" encoding="UTF-8"?>
<svg width="24px" height="24px" viewBox="0 0 24 24" version="1.1" xmlns="http://www.w3.org/2000/svg" xmlns:xlink="http://www.w3.org/1999/xlink">
    <!-- Generator: sketchtool 45.2 (43514) - http://www.bohemiancoding.com/sketch -->
    <title>error</title>
    <desc>Created with sketchtool.</desc>
    <defs></defs>
    <g id="Icons" stroke="none" stroke-width="1" fill-rule="evenodd">
        <g id="MC-icon-set" transform="translate(-96.000000, -360.000000)" fill="#000000">
            <g id="Notices" transform="translate(24.000000, 312.000000)">
                <g id="Error" transform="translate(72.000000, 48.000000)">
                    <path d="M8.33737092,17.4912979 C9.38530813,18.1916506 10.6449665,18.6 12,18.6 C15.6450793,18.6 18.6,15.6450793 18.6,12 C18.6,10.6449665 18.1916506,9.38530813 17.4912979,8.33737092 L8.33737092,17.4912979 Z M6.6161002,15.8184561 L15.8184561,6.6161002 C14.740614,5.85027172 13.4228903,5.4 12,5.4 C8.35492065,5.4 5.4,8.35492065 5.4,12 C5.4,13.4228903 5.85027172,14.740614 6.6161002,15.8184561 Z M12,21 C7.02943725,21 3,16.9705627 3,12 C3,7.02943725 7.02943725,3 12,3 C16.9705627,3 21,7.02943725 21,12 C21,16.9705627 16.9705627,21 12,21 Z" id="shape"></path>
                </g>
            </g>
        </g>
    </g>
</svg>