<svg width="24" height="24" viewBox="0 0 24 24" xmlns="http://www.w3.org/2000/svg">
<path d="M12 21C10.7542 21 9.58368 20.7637 8.4885 20.2912C7.39274 19.8186 6.44048 19.1742 5.63169 18.358C4.82234 17.5418 4.18138 16.5858 3.70883 15.49C3.23628 14.3948 3 13.2243 3 11.9785C3 10.7327 3.23628 9.56563 3.70883 8.47733C4.18138 7.38902 4.82234 6.44019 5.63169 5.63084C6.44048 4.82205 7.39274 4.18138 8.4885 3.70883C9.58368 3.23628 10.7542 3 12 3C13.2458 3 14.4163 3.23628 15.5115 3.70883C16.6073 4.18138 17.5598 4.82205 18.3692 5.63084C19.1779 6.44019 19.8186 7.38902 20.2912 8.47733C20.7637 9.56563 21 10.7327 21 11.9785C21 13.2243 20.7637 14.3948 20.2912 15.49C19.8186 16.5858 19.1779 17.5418 18.3692 18.358C17.5598 19.1742 16.6073 19.8186 15.5115 20.2912C14.4163 20.7637 13.2458 21 12 21V21ZM12 18.7232C13.8759 18.7232 15.4654 18.0682 16.7685 16.7582C18.0716 15.4476 18.7232 13.8544 18.7232 11.9785C18.7232 11.2768 18.6195 10.5967 18.4121 9.93795C18.2042 9.27924 17.8926 8.66348 17.4773 8.09069L8.11217 17.4558C8.65632 17.8854 9.26492 18.2039 9.93795 18.4113C10.611 18.6192 11.2983 18.7232 12 18.7232ZM6.52267 15.8663L15.8663 6.47971C15.2936 6.07876 14.6815 5.77804 14.0303 5.57757C13.3784 5.37709 12.7017 5.27685 12 5.27685C10.1241 5.27685 8.53461 5.92468 7.2315 7.22033C5.9284 8.51656 5.27685 10.1026 5.27685 11.9785C5.27685 12.6802 5.38052 13.3604 5.58788 14.0191C5.7958 14.6778 6.1074 15.2936 6.52267 15.8663Z" fill="black"/>
</svg>
