<svg width="24" height="24" viewBox="0 0 24 24" xmlns="http://www.w3.org/2000/svg">
<path d="M4.93809 21C4.40511 21 3.94886 20.8042 3.56931 20.4125C3.18977 20.0208 3 19.55 3 19V5C3 4.45 3.18977 3.97917 3.56931 3.5875C3.94886 3.19583 4.40511 3 4.93809 3H19C19.533 3 19.9892 3.19583 20.3688 3.5875C20.7483 3.97917 20.9381 4.45 20.9381 5V6C20.9381 6.28333 20.8452 6.52083 20.6595 6.7125C20.4738 6.90417 20.2436 7 19.969 7C19.6945 7 19.4643 6.90417 19.2786 6.7125C19.0929 6.52083 19 6.28333 19 6V5H4.93809V19H19V18C19 17.7167 19.0929 17.4792 19.2786 17.2875C19.4643 17.0958 19.6945 17 19.969 17C20.2436 17 20.4738 17.0958 20.6595 17.2875C20.8452 17.4792 20.9381 17.7167 20.9381 18V19C20.9381 19.55 20.7483 20.0208 20.3688 20.4125C19.9892 20.8042 19.533 21 19 21H4.93809ZM17.7052 13H9.78331C9.50875 13 9.2786 12.9042 9.09287 12.7125C8.90713 12.5208 8.81427 12.2833 8.81427 12C8.81427 11.7167 8.90713 11.4792 9.09287 11.2875C9.2786 11.0958 9.50875 11 9.78331 11H17.7052L15.8883 9.1C15.7106 8.91667 15.6178 8.6875 15.6097 8.4125C15.6016 8.1375 15.6945 7.9 15.8883 7.7C16.0659 7.51667 16.2921 7.425 16.5666 7.425C16.8412 7.425 17.0673 7.51667 17.245 7.7L20.7335 11.3C20.8304 11.4 20.8991 11.5083 20.9394 11.625C20.9798 11.7417 21 11.8667 21 12C21 12.1333 20.9798 12.2583 20.9394 12.375C20.8991 12.4917 20.8304 12.6 20.7335 12.7L17.245 16.3C17.0673 16.4833 16.8452 16.5792 16.5787 16.5875C16.3122 16.5958 16.0821 16.5 15.8883 16.3C15.7106 16.1167 15.6218 15.8833 15.6218 15.6C15.6218 15.3167 15.7106 15.0833 15.8883 14.9L17.7052 13Z" fill="#1A1A1A"/>
</svg>
