<?xml version="1.0" encoding="UTF-8"?>
<svg width="24px" height="24px" viewBox="0 0 24 24" version="1.1" xmlns="http://www.w3.org/2000/svg" xmlns:xlink="http://www.w3.org/1999/xlink">
    <!-- Generator: Sketch 52.6 (67491) - http://www.bohemiancoding.com/sketch -->
    <title>Component / icon / 24px / external window</title>
    <desc>Created with Sketch.</desc>
    <g id="Component-/-icon-/-24px-/-external-window" stroke="none" stroke-width="1"  fill-rule="evenodd">
        <path d="M17.822327,4.78834619 L11.28789,11.3212448 C10.9043037,11.7047408 10.9037482,12.3280712 11.2879546,12.7121871 C11.6713792,13.0955215 12.2950538,13.096332 12.6792245,12.7122517 L19.2112327,6.18178137 L19.2112327,8.36574522 C19.2112327,8.85814815 19.6116619,9.25921167 20.1056163,9.25921167 C20.5985657,9.25921167 21,8.85919312 21,8.36574522 L21,3.89346645 C21,3.64738242 20.8999882,3.42411146 20.7382726,3.26231371 C20.5763109,3.10023908 20.3529873,3 20.1063231,3 L15.6329912,3 C15.1404723,3 14.7393144,3.40033493 14.7393144,3.8941731 C14.7393144,4.38700639 15.1394271,4.78834619 15.6329912,4.78834619 L17.822327,4.78834619 Z M21,9.52165891 L21,18.7566822 C21,19.9956324 20.1073772,21 19.0049107,21 L4.99508929,21 C3.89323191,21 3,19.993672 3,18.7566822 L3,7.24331781 C3,6.0043676 3.89262279,5 4.99508929,5 L10.2,5 C10.6970563,5 11.1,5.40294372 11.1,5.9 C11.1,6.39705627 10.6970563,6.8 10.2,6.8 L5.31250363,6.8 C5.02618962,6.8 4.8,7.06881576 4.8,7.40041678 L4.8,18.5995832 C4.8,18.9251993 5.0294557,19.2 5.31250363,19.2 L18.6874964,19.2 C18.9738104,19.2 19.2,18.9311842 19.2,18.5995832 L19.2,13.8 C19.2,13.3029437 19.6029437,12.9 20.1,12.9 C20.5970563,12.9 21,13.3029437 21,13.8 L21,9.52165891 Z" id="Shape" fill="#1A1A1A"></path>
    </g>
</svg>