<svg width="24" height="24" viewBox="0 0 24 24" xmlns="http://www.w3.org/2000/svg">
<path d="M15.3545 12.3909L14.1682 11.2045C14.2909 10.5636 14.1068 9.96364 13.6159 9.40455C13.125 8.84546 12.4909 8.62728 11.7136 8.75L10.5273 7.56364C10.7591 7.45455 10.9942 7.37273 11.2325 7.31819C11.4715 7.26364 11.7273 7.23637 12 7.23637C13.0227 7.23637 13.8922 7.59418 14.6084 8.30982C15.324 9.026 15.6818 9.89546 15.6818 10.9182C15.6818 11.1909 15.6545 11.4467 15.6 11.6856C15.5455 11.924 15.4636 12.1591 15.3545 12.3909V12.3909ZM17.9727 14.9682L16.7864 13.8227C17.3045 13.4273 17.7649 12.9942 18.1675 12.5235C18.5695 12.0533 18.9136 11.5182 19.2 10.9182C18.5182 9.54091 17.5396 8.44646 16.2644 7.63482C14.9896 6.82373 13.5682 6.41818 12 6.41818C11.6045 6.41818 11.2159 6.44546 10.8341 6.5C10.4523 6.55455 10.0773 6.63637 9.70909 6.74546L8.44091 5.47728C9 5.24546 9.57273 5.07146 10.1591 4.95528C10.7455 4.83964 11.3591 4.78182 12 4.78182C14.0591 4.78182 15.8932 5.351 17.5023 6.48937C19.1114 7.62828 20.2773 9.10455 21 10.9182C20.6864 11.7227 20.274 12.4695 19.7629 13.1584C19.2513 13.8467 18.6545 14.45 17.9727 14.9682ZM18.3818 20L14.9455 16.6045C14.4682 16.7545 13.9876 16.8672 13.5038 16.9425C13.0195 17.0172 12.5182 17.0545 12 17.0545C9.94091 17.0545 8.10682 16.4854 6.49773 15.347C4.88864 14.2081 3.72273 12.7318 3 10.9182C3.28636 10.1955 3.64773 9.52373 4.08409 8.903C4.52045 8.28282 5.01818 7.72728 5.57727 7.23637L3.32727 4.94546L4.47273 3.8L19.5273 18.8545L18.3818 20ZM6.72273 8.38182C6.32727 8.73637 5.96591 9.125 5.63864 9.54773C5.31136 9.97046 5.03182 10.4273 4.8 10.9182C5.48182 12.2955 6.46009 13.3896 7.73482 14.2007C9.01009 15.0124 10.4318 15.4182 12 15.4182C12.2727 15.4182 12.5386 15.4013 12.7977 15.3675C13.0568 15.3331 13.3227 15.2955 13.5955 15.2545L12.8591 14.4773C12.7091 14.5182 12.5659 14.5487 12.4295 14.5689C12.2932 14.5896 12.15 14.6 12 14.6C10.9773 14.6 10.1078 14.2422 9.39164 13.5265C8.676 12.8104 8.31818 11.9409 8.31818 10.9182C8.31818 10.7682 8.32827 10.625 8.34845 10.4886C8.36918 10.3523 8.4 10.2091 8.44091 10.0591L6.72273 8.38182Z" fill="black"/>
</svg>
