<?xml version="1.0" encoding="UTF-8"?>
<svg width="24px" height="24px" viewBox="0 0 24 24" version="1.1" xmlns="http://www.w3.org/2000/svg" xmlns:xlink="http://www.w3.org/1999/xlink">
    <!-- Generator: sketchtool 52.5 (67469) - http://www.bohemiancoding.com/sketch -->
    <title>93F2F9AC-E035-498D-A5B4-F1E54A6719B2</title>
    <desc>Created with sketchtool.</desc>
    <g id="Permissions-finalUI" stroke="none" stroke-width="1"  fill-rule="evenodd">
        <g id="component-/-icon-/-24px-/-eye-crossed" fill="#1A1A1A">
            <g id="icon">
                <path d="M15.6,6.48660638 L13.7759347,8.37048728 C13.3875538,8.2129278 12.9646518,8.12640441 12.5219841,8.12640441 C10.6269547,8.12640441 9.09045176,9.71307067 9.09045176,11.6704047 C9.09045176,12.1275107 9.17422919,12.5643451 9.3267059,12.9655976 L8.29523532,14.0308553 C7.92694954,13.3289292 7.71783882,12.5248648 7.71783882,11.6704047 C7.71783882,10.24952 8.29623732,8.968014 9.22315598,8.06349827 C9.01840331,8.14422367 8.81834497,8.23109438 8.6233104,8.32333072 C8.4400048,8.40985411 8.26138668,8.50113357 8.08779919,8.59639648 C7.88304651,8.70862102 7.68499906,8.82646635 7.49465196,8.94872043 L7.37401301,9.02711387 C7.248014,9.11069574 7.12536417,9.1961772 7.0067361,9.28314005 C6.29496079,9.80374764 5.75074035,10.3547345 5.39820531,10.8389167 C5.31877906,10.9482848 5.25176123,11.050416 5.19612923,11.1442613 C5.12877511,11.2575278 5.07783745,11.3586738 5.04131222,11.446069 C4.98233104,11.5875458 4.97395124,11.6598435 4.97294923,11.6704047 L4.97562583,11.6901093 C4.9776367,11.7020172 4.98132903,11.7190284 4.9873548,11.7413557 C4.99740919,11.7780716 5.01383251,11.8288927 5.04131222,11.8947403 C5.10800062,12.0545042 5.22260694,12.2604819 5.39820531,12.5018997 C5.75074035,12.9860819 6.29496079,13.5371042 7.0067361,14.057648 C7.24868658,14.2347066 7.50571522,14.4053151 7.77648371,14.5666383 L6.7761783,15.6 C4.83387609,14.3552029 3.6,12.7209193 3.6,11.6704047 C3.6,9.78030049 7.59451641,6 12.5219841,6 C13.6037404,6 14.6405436,6.18221868 15.6,6.48660638 Z M10.8243272,15.0294047 C11.2126981,15.1869719 11.6355892,15.2735877 12.0782455,15.2735877 C13.9732262,15.2735877 15.5096895,13.6869298 15.5096895,11.7295673 C15.5096895,11.2724596 15.4258937,10.8356094 15.2734689,10.434398 L16.3048924,9.3690229 C16.673155,10.0709941 16.8822672,10.8750615 16.8822672,11.7295673 C16.8822672,13.150436 16.3038629,14.4319538 15.3769613,15.3365295 C16.2016745,15.0113302 16.9513078,14.5866148 17.593331,14.1168195 C18.3050811,13.5962738 18.8493081,13.0452495 19.2018547,12.5610654 C19.3174257,12.4022933 19.4062315,12.2588313 19.4729388,12.1337274 C19.4970961,12.0882222 19.5181652,12.0451978 19.5366264,12.0047251 C19.544656,11.9873594 19.5519992,11.9703481 19.5587249,11.9539038 C19.6176771,11.8124265 19.6260498,11.7401285 19.6270792,11.7295673 C19.6267361,11.724393 19.6244027,11.7044757 19.6153437,11.6688937 C19.6060102,11.6316815 19.588853,11.577458 19.5587249,11.5052308 C19.4916745,11.3454664 19.3774074,11.1394879 19.2018547,10.8980763 C18.8493081,10.4138923 18.3050811,9.86290341 17.593331,9.3422939 C17.3514142,9.16526299 17.0940559,8.99463967 16.8233149,8.83335839 L17.823924,7.8 C19.7661214,9.04473794 21,10.6790842 21,11.7295673 C21,13.6196643 17.0055933,17.4 12.0782455,17.4 C10.9965171,17.4 9.95939744,17.2177665 9,16.9133351 L10.8243272,15.0294047 Z M19.5904208,3.24184969 C19.9128675,2.91938368 20.4357183,2.91938319 20.758165,3.24184969 C21.0806117,3.56431586 21.0806117,4.08713558 20.758165,4.4096067 L4.40960603,20.7581652 C4.08714283,21.0806116 3.56431679,21.0806116 3.24185359,20.7581652 C2.91938214,20.4357189 2.91938214,19.9128686 3.24185359,19.5904223 L19.5904208,3.24184969 Z" id="shape"></path>
            </g>
        </g>
    </g>
</svg>