<svg width="24" height="24" viewBox="0 0 24 24" xmlns="http://www.w3.org/2000/svg">
<path d="M12 15.8182C13.0227 15.8182 13.8922 15.4604 14.6084 14.7447C15.324 14.0285 15.6818 13.1591 15.6818 12.1364C15.6818 11.1136 15.324 10.2442 14.6084 9.528C13.8922 8.81236 13.0227 8.45455 12 8.45455C10.9773 8.45455 10.1078 8.81236 9.39164 9.528C8.676 10.2442 8.31818 11.1136 8.31818 12.1364C8.31818 13.1591 8.676 14.0285 9.39164 14.7447C10.1078 15.4604 10.9773 15.8182 12 15.8182ZM12 14.3455C11.3864 14.3455 10.8649 14.1305 10.4356 13.7007C10.0058 13.2715 9.79091 12.75 9.79091 12.1364C9.79091 11.5227 10.0058 11.001 10.4356 10.5712C10.8649 10.1419 11.3864 9.92727 12 9.92727C12.6136 9.92727 13.1354 10.1419 13.5652 10.5712C13.9945 11.001 14.2091 11.5227 14.2091 12.1364C14.2091 12.75 13.9945 13.2715 13.5652 13.7007C13.1354 14.1305 12.6136 14.3455 12 14.3455V14.3455ZM12 18.2727C10.0091 18.2727 8.19545 17.7169 6.55909 16.6053C4.92273 15.4942 3.73636 14.0045 3 12.1364C3.73636 10.2682 4.92273 8.77827 6.55909 7.66664C8.19545 6.55555 10.0091 6 12 6C13.9909 6 15.8045 6.55555 17.4409 7.66664C19.0773 8.77827 20.2636 10.2682 21 12.1364C20.2636 14.0045 19.0773 15.4942 17.4409 16.6053C15.8045 17.7169 13.9909 18.2727 12 18.2727ZM12 16.6364C13.5409 16.6364 14.9558 16.2305 16.2447 15.4189C17.5331 14.6078 18.5182 13.5136 19.2 12.1364C18.5182 10.7591 17.5331 9.66464 16.2447 8.853C14.9558 8.04191 13.5409 7.63636 12 7.63636C10.4591 7.63636 9.04418 8.04191 7.75527 8.853C6.46691 9.66464 5.48182 10.7591 4.8 12.1364C5.48182 13.5136 6.46691 14.6078 7.75527 15.4189C9.04418 16.2305 10.4591 16.6364 12 16.6364Z" fill="black"/>
</svg>
