<svg width="24" height="24" viewBox="0 0 24 24" fill="none" xmlns="http://www.w3.org/2000/svg">
<path d="M8 18H4C3.71667 18 3.47933 17.904 3.288 17.712C3.096 17.5207 3 17.2833 3 17C3 16.7167 3.096 16.4793 3.288 16.288C3.47933 16.096 3.71667 16 4 16H8C8.28333 16 8.521 16.096 8.713 16.288C8.90433 16.4793 9 16.7167 9 17C9 17.2833 8.90433 17.5207 8.713 17.712C8.521 17.904 8.28333 18 8 18ZM20 8H4C3.71667 8 3.47933 7.90433 3.288 7.713C3.096 7.521 3 7.28333 3 7C3 6.71667 3.096 6.479 3.288 6.287C3.47933 6.09567 3.71667 6 4 6H20C20.2833 6 20.5207 6.09567 20.712 6.287C20.904 6.479 21 6.71667 21 7C21 7.28333 20.904 7.521 20.712 7.713C20.5207 7.90433 20.2833 8 20 8ZM14 13H4C3.71667 13 3.47933 12.904 3.288 12.712C3.096 12.5207 3 12.2833 3 12C3 11.7167 3.096 11.479 3.288 11.287C3.47933 11.0957 3.71667 11 4 11H14C14.2833 11 14.521 11.0957 14.713 11.287C14.9043 11.479 15 11.7167 15 12C15 12.2833 14.9043 12.5207 14.713 12.712C14.521 12.904 14.2833 13 14 13Z" fill="black"/>
</svg>
