<?xml version="1.0" encoding="UTF-8"?>
<svg width="16px" height="16px" viewBox="0 0 16 16" version="1.1" xmlns="http://www.w3.org/2000/svg" xmlns:xlink="http://www.w3.org/1999/xlink">
    <title>filter &amp; list</title>
    <g id="Symbols" stroke="none" stroke-width="1" fill="none" fill-rule="evenodd" fill-opacity="0.85">
        <g id="Component-/-icon-/-16px-/fliter-&amp;-lsit" fill="#000000" fill-rule="nonzero">
            <path d="M13.5,12 C13.7761424,12 14,12.2238576 14,12.5 C14,12.7761424 13.7761424,13 13.5,13 L10.5,13 C10.2238576,13 10,12.7761424 10,12.5 C10,12.2238576 10.2238576,12 10.5,12 L13.5,12 Z M12.0170216,2 C12.2508469,2 12.4080674,2.1442778 12.4737292,2.33855111 C12.5192871,2.49132094 12.5087061,2.7023507 12.4173679,2.87492347 L12.3526771,2.97307856 L8.68387342,7.37402331 L8.68387342,13.4075895 C8.68387342,13.6576462 8.58711005,13.8330452 8.39358331,13.9341857 C8.35055056,13.954059 8.30853665,13.9674261 8.26772033,13.9741294 L8.20741638,13.9791667 C8.10018037,13.9791667 8.00722962,13.9428838 7.92887301,13.87025 L7.87284678,13.8089578 L5.96738057,11.524246 C5.8968893,11.4396073 5.85273046,11.3427669 5.83505674,11.2343984 L5.82621705,11.1222123 L5.82621705,7.37389023 L2.15765469,2.97294548 C2.00382265,2.80034115 1.96853215,2.51487244 2.02594835,2.3279473 C2.10552895,2.13013715 2.24429545,2.03048924 2.40843686,2.00605535 L2.4924656,2 L12.0170216,2 Z M11.028,2.999 L3.48,2.997 L6.82621705,7.01175624 L6.823,10.989 L7.683,12.021 L7.68387342,7.01187103 L11.028,2.999 Z M13.5,9 C13.7761424,9 14,9.22385763 14,9.5 C14,9.77614237 13.7761424,10 13.5,10 L10.5,10 C10.2238576,10 10,9.77614237 10,9.5 C10,9.22385763 10.2238576,9 10.5,9 L13.5,9 Z M13.5,6 C13.7761424,6 14,6.22385763 14,6.5 C14,6.77614237 13.7761424,7 13.5,7 L10.5,7 C10.2238576,7 10,6.77614237 10,6.5 C10,6.22385763 10.2238576,6 10.5,6 L13.5,6 Z" id="Shape"></path>
        </g>
    </g>
</svg>