<svg width="24" height="24" viewBox="0 0 24 24" xmlns="http://www.w3.org/2000/svg">
<path d="M10.9999 20C10.7166 20 10.4792 19.904 10.2879 19.712C10.0959 19.5207 9.99991 19.2833 9.99991 19V13L4.19991 5.6C3.94991 5.26667 3.91257 4.91667 4.08791 4.55C4.26257 4.18333 4.56657 4 4.99991 4H18.9999C19.4332 4 19.7376 4.18333 19.9129 4.55C20.0876 4.91667 20.0499 5.26667 19.7999 5.6L13.9999 13V19C13.9999 19.2833 13.9042 19.5207 13.7129 19.712C13.5209 19.904 13.2832 20 12.9999 20H10.9999Z" fill="black"/>
</svg>
