<?xml version="1.0" encoding="UTF-8"?>
<svg width="24px" height="24px" viewBox="0 0 24 24" version="1.1" xmlns="http://www.w3.org/2000/svg" xmlns:xlink="http://www.w3.org/1999/xlink">
    <title>Component / icon / 24px / filter_and_ list</title>
    <g id="Component-/-icon-/-24px-/-filter_and_-list" stroke="none" stroke-width="1" fill="none" fill-rule="evenodd">
        <path d="M18.2640329,3 C18.6203381,3 18.8599123,3.21679308 18.9599683,3.50870985 C19.0293898,3.73826312 19.0132665,4.05535827 18.8740844,4.31466762 L18.7755079,4.46215631 L13.18495,11.0750542 L13.18495,20.1411431 C13.18495,20.5168805 13.037501,20.7804366 12.7426031,20.9324113 C12.6442426,20.9772038 12.5493752,21 12.4589202,21 C12.2955129,21 12.1538737,20.9454811 12.0344732,20.8363409 L11.9490999,20.7442426 L9.0455323,17.3112148 C8.93811703,17.184036 8.87082737,17.0385227 8.84389599,16.8756874 L8.83042599,16.7071155 L8.83042599,11.0748542 L3.24023572,4.46195634 C3.00582499,4.20259957 2.952049,3.77365181 3.03954034,3.49277646 C3.16080602,3.19554521 3.37225973,3.0458134 3.62237997,3.00909882 L3.75042378,3 L18.2640329,3 Z M4,4 L9.74733054,10.9279785 L9.74452667,16.8831025 L9.75026987,16.9816901 L12.2529977,20 L12.2543187,10.928164 L17.9526578,4.0682354 L18,4.00151976 L4,4 Z M20.5,18.9791667 C20.7761424,18.9791667 21,19.2030243 21,19.4791667 C21,19.755309 20.7761424,19.9791667 20.5,19.9791667 L15.5,19.9791667 C15.2238576,19.9791667 15,19.755309 15,19.4791667 C15,19.2030243 15.2238576,18.9791667 15.5,18.9791667 L20.5,18.9791667 Z M20.5,14.9791667 C20.7761424,14.9791667 21,15.2030243 21,15.4791667 C21,15.755309 20.7761424,15.9791667 20.5,15.9791667 L15.5,15.9791667 C15.2238576,15.9791667 15,15.755309 15,15.4791667 C15,15.2030243 15.2238576,14.9791667 15.5,14.9791667 L20.5,14.9791667 Z M20.5,10.9791667 C20.7761424,10.9791667 21,11.2030243 21,11.4791667 C21,11.755309 20.7761424,11.9791667 20.5,11.9791667 L15.5,11.9791667 C15.2238576,11.9791667 15,11.755309 15,11.4791667 C15,11.2030243 15.2238576,10.9791667 15.5,10.9791667 L20.5,10.9791667 Z" id="Combined-Shape" fill="#1A1A1A"></path>
    </g>
</svg>