<?xml version="1.0" encoding="UTF-8"?>
<svg width="24px" height="24px" viewBox="0 0 24 24" version="1.1" xmlns="http://www.w3.org/2000/svg" xmlns:xlink="http://www.w3.org/1999/xlink">
    <title>Component / icon / 24px / filter_and_ list</title>
    <g id="Component-/-icon-/-24px-/-filter_and_-list" stroke="none" stroke-width="1"  fill-rule="evenodd">
        <g id="filter-&amp;-list.2" transform="translate(3.000000, 3.000000)" fill="#000000" fill-rule="nonzero">
            <path d="M17.25,15 C17.6642136,15 18,15.3357864 18,15.75 C18,16.1642136 17.6642136,16.5 17.25,16.5 L12.75,16.5 C12.3357864,16.5 12,16.1642136 12,15.75 C12,15.3357864 12.3357864,15 12.75,15 L17.25,15 Z M15.0255324,0 C15.3762704,0 15.6121011,0.2164167 15.7105938,0.507826665 C15.7789306,0.73698141 15.7630592,1.05352605 15.6260519,1.31238521 L15.5290157,1.45961784 L10.0258101,8.06103496 L10.0258101,17.1113843 C10.0258101,17.4864693 9.88066508,17.7495678 9.59037497,17.9012786 C9.52582584,17.9310885 9.46280498,17.9511392 9.4015805,17.9611941 L9.31112457,17.9687501 C9.15027056,17.9687501 9.01084443,17.9143257 8.89330952,17.805375 L8.80927017,17.7134367 L5.95107086,14.286369 C5.84533395,14.1594109 5.77909569,14.0141504 5.75258511,13.8515976 L5.73932558,13.6833184 L5.73932558,8.06083534 L0.236482035,1.45941822 C0.005733975,1.20051172 -0.047201775,0.77230866 0.038922525,0.49192095 C0.158293425,0.195205725 0.366443175,0.04573386 0.61265529,0.009083025 L0.7386984,0 L15.0255324,0 Z M13.542,1.4985 L2.22,1.4955 L7.23932558,7.51763436 L7.2345,13.4835 L8.5245,15.0315 L8.52581013,7.51780655 L13.542,1.4985 Z M17.25,10.5 C17.6642136,10.5 18,10.8357864 18,11.25 C18,11.6642136 17.6642136,12 17.25,12 L12.75,12 C12.3357864,12 12,11.6642136 12,11.25 C12,10.8357864 12.3357864,10.5 12.75,10.5 L17.25,10.5 Z M17.25,6 C17.6642136,6 18,6.33578645 18,6.75 C18,7.16421355 17.6642136,7.5 17.25,7.5 L12.75,7.5 C12.3357864,7.5 12,7.16421355 12,6.75 C12,6.33578645 12.3357864,6 12.75,6 L17.25,6 Z" id="Shape"></path>
        </g>
    </g>
</svg>