<svg width="24" height="24" viewBox="0 0 24 24" xmlns="http://www.w3.org/2000/svg">
<path d="M5.05882 21C4.75882 21 4.50718 20.8984 4.30388 20.6951C4.10129 20.4925 4 20.2412 4 19.9412V4.05882C4 3.75882 4.10129 3.50718 4.30388 3.30388C4.50718 3.10129 4.75882 3 5.05882 3H12.6559C12.9029 3 13.1235 3.07941 13.3176 3.23824C13.5118 3.39706 13.6353 3.6 13.6882 3.84706L13.9529 5.11765H18.8235C19.1235 5.11765 19.3748 5.21894 19.5774 5.42153C19.7807 5.62482 19.8824 5.87647 19.8824 6.17647V14.6471C19.8824 14.9471 19.7807 15.1984 19.5774 15.4009C19.3748 15.6042 19.1235 15.7059 18.8235 15.7059H13.3441C13.0971 15.7059 12.8765 15.6265 12.6824 15.4676C12.4882 15.3088 12.3647 15.1059 12.3118 14.8588L12.0471 13.5882H6.11765V19.9412C6.11765 20.2412 6.01635 20.4925 5.81376 20.6951C5.61047 20.8984 5.35882 21 5.05882 21Z" fill="black"/>
</svg>
