<svg width="24" height="24" viewBox="0 0 24 24" xmlns="http://www.w3.org/2000/svg">
<path d="M4 13.9999C4 15.5833 4.40833 17.0124 5.225 18.2874C6.04167 19.5624 7.11667 20.5249 8.45 21.1749C8.06667 20.7416 7.77083 20.2583 7.5625 19.7249C7.35417 19.1916 7.25 18.6333 7.25 18.0499C7.25 17.4166 7.36667 16.8208 7.6 16.2624C7.83333 15.7041 8.18333 15.1999 8.65 14.7499L12 11.4499L15.375 14.7499C15.825 15.1999 16.1667 15.7041 16.4 16.2624C16.6333 16.8208 16.75 17.4166 16.75 18.0499C16.75 18.6333 16.6458 19.1916 16.4375 19.7249C16.2292 20.2583 15.9333 20.7416 15.55 21.1749C16.8833 20.5249 17.9583 19.5624 18.775 18.2874C19.5917 17.0124 20 15.5833 20 13.9999C20 12.6499 19.6875 11.3833 19.0625 10.1999C18.4375 9.01659 17.575 8.04993 16.475 7.29993C16.325 7.19993 16.1667 7.17909 16 7.23743C15.8333 7.29576 15.6833 7.39993 15.55 7.54993C15.35 7.79993 15.1208 7.98743 14.8625 8.11243C14.6042 8.23743 14.325 8.29993 14.025 8.29993C13.4583 8.29993 12.9792 8.10826 12.5875 7.72493C12.1958 7.34159 12 6.86659 12 6.29993V4.49993C12 4.14993 11.8542 3.88743 11.5625 3.71243C11.2708 3.53743 10.9833 3.54159 10.7 3.72493C8.61667 5.00826 6.97917 6.55826 5.7875 8.37493C4.59583 10.1916 4 12.0666 4 13.9999ZM12 13.5499L9.7 15.7999C9.38333 16.0999 9.14583 16.4416 8.9875 16.8249C8.82917 17.2083 8.75 17.6166 8.75 18.0499C8.75 18.9333 9.06667 19.6874 9.7 20.3124C10.3333 20.9374 11.1 21.2499 12 21.2499C12.9 21.2499 13.6667 20.9374 14.3 20.3124C14.9333 19.6874 15.25 18.9333 15.25 18.0499C15.25 17.6166 15.1667 17.2083 15 16.8249C14.8333 16.4416 14.6 16.0999 14.3 15.7999L12 13.5499Z" fill="black"/>
</svg>
