<svg width="24" height="24" viewBox="0 0 24 24" xmlns="http://www.w3.org/2000/svg">
<path d="M4 13.6128C4 15.2261 4.41606 16.6823 5.24818 17.9814C6.0803 19.2806 7.17565 20.2613 8.53421 20.9236C8.14362 20.482 7.84219 19.9896 7.62992 19.4461C7.41764 18.9027 7.3115 18.3338 7.3115 17.7394C7.3115 17.0941 7.43038 16.487 7.66813 15.9181C7.90587 15.3492 8.2625 14.8355 8.738 14.377L12.1514 11.0145L15.5903 14.377C16.0488 14.8355 16.3969 15.3492 16.6347 15.9181C16.8724 16.487 16.9913 17.0941 16.9913 17.7394C16.9913 18.3338 16.8851 18.9027 16.6729 19.4461C16.4606 19.9896 16.1592 20.482 15.7686 20.9236C17.1271 20.2613 18.2225 19.2806 19.0546 17.9814C19.8867 16.6823 20.3028 15.2261 20.3028 13.6128C20.3028 12.2373 19.9844 10.9466 19.3475 9.74089C18.7107 8.53517 17.8319 7.55021 16.7111 6.78601C16.5582 6.68412 16.3969 6.66289 16.2271 6.72233C16.0573 6.78177 15.9044 6.88791 15.7686 7.04074C15.5648 7.29548 15.3313 7.48652 15.0681 7.61389C14.8048 7.74125 14.5204 7.80494 14.2147 7.80494C13.6373 7.80494 13.1491 7.60964 12.75 7.21906C12.3509 6.82847 12.1514 6.34448 12.1514 5.76709V3.93303C12.1514 3.5764 12.0028 3.30894 11.7056 3.13062C11.4084 2.95231 11.1155 2.95656 10.8268 3.14336C8.70403 4.45098 7.03554 6.03031 5.82133 7.88136C4.60711 9.7324 4 11.6429 4 13.6128ZM12.1514 13.1543L9.80787 15.4469C9.48521 15.7525 9.24321 16.1007 9.08188 16.4913C8.92055 16.8819 8.83989 17.2979 8.83989 17.7394C8.83989 18.6395 9.16255 19.4079 9.80787 20.0448C10.4532 20.6816 11.2344 21 12.1514 21C13.0684 21 13.8496 20.6816 14.4949 20.0448C15.1402 19.4079 15.4629 18.6395 15.4629 17.7394C15.4629 17.2979 15.378 16.8819 15.2082 16.4913C15.0383 16.1007 14.8006 15.7525 14.4949 15.4469L12.1514 13.1543Z" fill="black"/>
</svg>
