<?xml version="1.0" encoding="UTF-8"?>
<svg width="24px" height="24px" viewBox="0 0 24 24" version="1.1" xmlns="http://www.w3.org/2000/svg" xmlns:xlink="http://www.w3.org/1999/xlink">
    <!-- Generator: Sketch 53.2 (72643) - https://sketchapp.com -->
    <title>HP icon 17</title>
    <desc>Created with Sketch.</desc>
    <g id="HP-icon-17" stroke="none" stroke-width="1"  fill-rule="evenodd">
        <g id="Component-/-icon-/-24px-/-coins"></g>
        <path d="M4.68554688,11.1621094 C4.68554688,10.8339827 4.77343662,10.5859383 4.94921875,10.4179688 C5.12500088,10.2499992 5.3808577,10.1660156 5.71679688,10.1660156 C6.04101725,10.1660156 6.2919913,10.2519523 6.46972656,10.4238281 C6.64746183,10.595704 6.73632812,10.8417953 6.73632812,11.1621094 C6.73632812,11.4707047 6.64648527,11.7138663 6.46679688,11.8916016 C6.28710848,12.0693368 6.03711098,12.1582031 5.71679688,12.1582031 C5.38867023,12.1582031 5.13476652,12.0712899 4.95507812,11.8974609 C4.77538973,11.7236319 4.68554688,11.4785172 4.68554688,11.1621094 Z M13.84375,7.71679688 C13.84375,9.21289811 13.5986353,10.3203089 13.1083984,11.0390625 C12.6181616,11.7578161 11.8632863,12.1171875 10.84375,12.1171875 C9.85546381,12.1171875 9.11035407,11.7460975 8.60839844,11.0039062 C8.1064428,10.261715 7.85546875,9.16602287 7.85546875,7.71679688 C7.85546875,6.20507057 8.09960693,5.0908239 8.58789062,4.37402344 C9.07617432,3.65722298 9.82811992,3.29882812 10.84375,3.29882812 C11.8320362,3.29882812 12.579099,3.67382437 13.0849609,4.42382812 C13.5908228,5.17383187 13.84375,6.27147715 13.84375,7.71679688 Z M9.65429688,7.71679688 C9.65429688,8.76758338 9.74511628,9.52050554 9.92675781,9.97558594 C10.1083993,10.4306663 10.4140604,10.6582031 10.84375,10.6582031 C11.2656271,10.6582031 11.5703116,10.4277367 11.7578125,9.96679688 C11.9453134,9.50585707 12.0390625,8.75586457 12.0390625,7.71679688 C12.0390625,6.66601037 11.9443369,5.91113511 11.7548828,5.45214844 C11.5654287,4.99316177 11.2617208,4.76367188 10.84375,4.76367188 C10.4179666,4.76367188 10.1132822,4.99316177 9.9296875,5.45214844 C9.74609283,5.91113511 9.65429688,6.66601037 9.65429688,7.71679688 Z M20.6933594,7.71679688 C20.6933594,9.21289811 20.4482446,10.3203089 19.9580078,11.0390625 C19.467771,11.7578161 18.7128957,12.1171875 17.6933594,12.1171875 C16.7050732,12.1171875 15.9599634,11.7460975 15.4580078,11.0039062 C14.9560522,10.261715 14.7050781,9.16602287 14.7050781,7.71679688 C14.7050781,6.20507057 14.9492163,5.0908239 15.4375,4.37402344 C15.9257837,3.65722298 16.6777293,3.29882812 17.6933594,3.29882812 C18.6816456,3.29882812 19.4287084,3.67382437 19.9345703,4.42382812 C20.4404322,5.17383187 20.6933594,6.27147715 20.6933594,7.71679688 Z M16.5039062,7.71679688 C16.5039062,8.76758338 16.5947257,9.52050554 16.7763672,9.97558594 C16.9580087,10.4306663 17.2636697,10.6582031 17.6933594,10.6582031 C18.1152365,10.6582031 18.4199209,10.4277367 18.6074219,9.96679688 C18.7949228,9.50585707 18.8886719,8.75586457 18.8886719,7.71679688 C18.8886719,6.66601037 18.7939463,5.91113511 18.6044922,5.45214844 C18.4150381,4.99316177 18.1113302,4.76367188 17.6933594,4.76367188 C17.267576,4.76367188 16.9628915,4.99316177 16.7792969,5.45214844 C16.5957022,5.91113511 16.5039062,6.66601037 16.5039062,7.71679688 Z" id=".00" fill="#1A1A1A" fill-rule="nonzero"></path>
        <g id="Group" transform="translate(6.000000, 13.000000)" fill="#1A1A1A" fill-rule="nonzero">
            <polygon id="Line-3" points="1.0018236 5.01730682 0.998179718 3.01731014 11.4981764 2.99817972 11.5018203 4.9981764"></polygon>
            <polygon id="Path-2" points="10.9453502 0.581240351 10.9453502 7.44973272 15.0895247 3.98426901"></polygon>
        </g>
    </g>
</svg>