<svg width="24" height="24" viewBox="0 0 24 24" fill="none" xmlns="http://www.w3.org/2000/svg">
<path fill-rule="evenodd" clip-rule="evenodd" d="M5.72861 15.7976L5.71825 9.30528L10.9908 12.3789V18.8303L5.72861 15.7976ZM4.22133 16.9191C4.08801 16.8422 4.00575 16.7002 4.00551 16.5463L3.99036 7.05309C3.98983 6.72014 4.35088 6.51231 4.63853 6.67999L12.5011 11.2634C12.6336 11.3407 12.7151 11.4825 12.7151 11.6358V21.0683C12.7151 21.4 12.3562 21.6074 12.0688 21.4418L4.22133 16.9191Z" fill="#1A1A1A"/>
<path fill-rule="evenodd" clip-rule="evenodd" d="M7.11592 5.39407C7.34936 4.97907 7.87502 4.83188 8.29003 5.06532L16.0464 9.4283C16.3179 9.58101 16.4859 9.86826 16.4859 10.1797V18.9057C16.4859 19.3818 16.0999 19.7678 15.6238 19.7678C15.1476 19.7678 14.7616 19.3818 14.7616 18.9057V10.684L7.44467 6.56818C7.02967 6.33474 6.88248 5.80907 7.11592 5.39407Z" fill="#1A1A1A"/>
<path fill-rule="evenodd" clip-rule="evenodd" d="M10.8888 3.93603C11.1242 3.52215 11.6506 3.37748 12.0645 3.6129L19.5737 7.88424C19.8432 8.03751 20.0096 8.32364 20.0096 8.63364V17.4512C20.0096 17.9274 19.6236 18.3134 19.1475 18.3134C18.6713 18.3134 18.2853 17.9274 18.2853 17.4512V9.1351L11.2119 5.1117C10.798 4.87628 10.6534 4.34991 10.8888 3.93603Z" fill="#1A1A1A"/>
</svg>
