<svg width="24" height="24" viewBox="0 0 24 24" fill="none" xmlns="http://www.w3.org/2000/svg">
<path d="M13.8751 22H10.1251C9.87509 22 9.65843 21.9167 9.47509 21.75C9.29176 21.5833 9.18343 21.375 9.15009 21.125L8.85009 18.8C8.63343 18.7167 8.42943 18.6167 8.23809 18.5C8.04609 18.3833 7.85843 18.2583 7.67509 18.125L5.50009 19.025C5.26676 19.1083 5.03343 19.1167 4.80009 19.05C4.56676 18.9833 4.38343 18.8417 4.25009 18.625L2.40009 15.4C2.26676 15.1833 2.22509 14.95 2.27509 14.7C2.32509 14.45 2.45009 14.25 2.65009 14.1L4.52509 12.675C4.50843 12.5583 4.50009 12.4457 4.50009 12.337V11.662C4.50009 11.554 4.50843 11.4417 4.52509 11.325L2.65009 9.9C2.45009 9.75 2.32509 9.55 2.27509 9.3C2.22509 9.05 2.26676 8.81667 2.40009 8.6L4.25009 5.375C4.36676 5.14167 4.54576 4.99567 4.78709 4.937C5.02909 4.879 5.26676 4.89167 5.50009 4.975L7.67509 5.875C7.85843 5.74167 8.05009 5.61667 8.25009 5.5C8.45009 5.38333 8.65009 5.28333 8.85009 5.2L9.15009 2.875C9.18343 2.625 9.29176 2.41667 9.47509 2.25C9.65843 2.08333 9.87509 2 10.1251 2H13.8751C14.1251 2 14.3418 2.08333 14.5251 2.25C14.7084 2.41667 14.8168 2.625 14.8501 2.875L15.1501 5.2C15.3668 5.28333 15.5711 5.38333 15.7631 5.5C15.9544 5.61667 16.1418 5.74167 16.3251 5.875L18.5001 4.975C18.7334 4.89167 18.9668 4.88333 19.2001 4.95C19.4334 5.01667 19.6168 5.15833 19.7501 5.375L21.6001 8.6C21.7334 8.81667 21.7751 9.05 21.7251 9.3C21.6751 9.55 21.5501 9.75 21.3501 9.9L19.4751 11.325C19.4918 11.4417 19.5001 11.554 19.5001 11.662V12.337C19.5001 12.4457 19.4834 12.5583 19.4501 12.675L21.3251 14.1C21.5251 14.25 21.6501 14.45 21.7001 14.7C21.7501 14.95 21.7084 15.1833 21.5751 15.4L19.7251 18.6C19.5918 18.8167 19.4044 18.9627 19.1631 19.038C18.9211 19.1127 18.6834 19.1083 18.4501 19.025L16.3251 18.125C16.1418 18.2583 15.9501 18.3833 15.7501 18.5C15.5501 18.6167 15.3501 18.7167 15.1501 18.8L14.8501 21.125C14.8168 21.375 14.7084 21.5833 14.5251 21.75C14.3418 21.9167 14.1251 22 13.8751 22ZM12.0501 15.5C13.0168 15.5 13.8418 15.1583 14.5251 14.475C15.2084 13.7917 15.5501 12.9667 15.5501 12C15.5501 11.0333 15.2084 10.2083 14.5251 9.525C13.8418 8.84167 13.0168 8.5 12.0501 8.5C11.0668 8.5 10.2374 8.84167 9.56209 9.525C8.88743 10.2083 8.55009 11.0333 8.55009 12C8.55009 12.9667 8.88743 13.7917 9.56209 14.475C10.2374 15.1583 11.0668 15.5 12.0501 15.5ZM12.0501 13.5C11.6334 13.5 11.2794 13.354 10.9881 13.062C10.6961 12.7707 10.5501 12.4167 10.5501 12C10.5501 11.5833 10.6961 11.2293 10.9881 10.938C11.2794 10.646 11.6334 10.5 12.0501 10.5C12.4668 10.5 12.8211 10.646 13.1131 10.938C13.4044 11.2293 13.5501 11.5833 13.5501 12C13.5501 12.4167 13.4044 12.7707 13.1131 13.062C12.8211 13.354 12.4668 13.5 12.0501 13.5ZM11.0001 20H12.9751L13.3251 17.35C13.8418 17.2167 14.3211 17.0207 14.7631 16.762C15.2044 16.504 15.6084 16.1917 15.9751 15.825L18.4501 16.85L19.4251 15.15L17.2751 13.525C17.3584 13.2917 17.4168 13.0457 17.4501 12.787C17.4834 12.529 17.5001 12.2667 17.5001 12C17.5001 11.7333 17.4834 11.4707 17.4501 11.212C17.4168 10.954 17.3584 10.7083 17.2751 10.475L19.4251 8.85L18.4501 7.15L15.9751 8.2C15.6084 7.81667 15.2044 7.49567 14.7631 7.237C14.3211 6.979 13.8418 6.78333 13.3251 6.65L13.0001 4H11.0251L10.6751 6.65C10.1584 6.78333 9.67943 6.979 9.23809 7.237C8.79609 7.49567 8.39176 7.80833 8.02509 8.175L5.55009 7.15L4.57509 8.85L6.72509 10.45C6.64176 10.7 6.58343 10.95 6.55009 11.2C6.51676 11.45 6.50009 11.7167 6.50009 12C6.50009 12.2667 6.51676 12.525 6.55009 12.775C6.58343 13.025 6.64176 13.275 6.72509 13.525L4.57509 15.15L5.55009 16.85L8.02509 15.8C8.39176 16.1833 8.79609 16.504 9.23809 16.762C9.67943 17.0207 10.1584 17.2167 10.6751 17.35L11.0001 20Z" fill="black"/>
</svg>