<svg width="24" height="24" viewBox="0 0 24 24" xmlns="http://www.w3.org/2000/svg">
<path d="M13.7316 21.4701H10.2684C10.0375 21.4701 9.83745 21.3932 9.66814 21.2393C9.49883 21.0854 9.39879 20.893 9.368 20.6621L9.09095 18.5149C8.89086 18.438 8.70246 18.3456 8.52576 18.2379C8.34845 18.1301 8.17514 18.0147 8.00583 17.8916L5.9972 18.7227C5.78172 18.7997 5.56623 18.8074 5.35075 18.7458C5.13526 18.6842 4.96595 18.5534 4.84282 18.3533L3.13433 15.375C3.01119 15.1749 2.97271 14.9594 3.01889 14.7285C3.06507 14.4977 3.1805 14.313 3.36521 14.1744L5.09678 12.8584C5.08139 12.7507 5.07369 12.6467 5.07369 12.5463V11.9229C5.07369 11.8232 5.08139 11.7194 5.09678 11.6117L3.36521 10.2957C3.1805 10.1572 3.06507 9.97248 3.01889 9.7416C2.97271 9.51073 3.01119 9.29524 3.13433 9.09515L4.84282 6.11684C4.95056 5.90135 5.11587 5.76652 5.33874 5.71234C5.56223 5.65878 5.78172 5.67048 5.9972 5.74743L8.00583 6.57859C8.17514 6.45546 8.35215 6.34002 8.53685 6.23228C8.72155 6.12453 8.90625 6.03218 9.09095 5.95522L9.368 3.80807C9.39879 3.57719 9.49883 3.38479 9.66814 3.23088C9.83745 3.07696 10.0375 3 10.2684 3H13.7316C13.9625 3 14.1625 3.07696 14.3319 3.23088C14.5012 3.38479 14.6012 3.57719 14.632 3.80807L14.909 5.95522C15.1091 6.03218 15.2978 6.12453 15.4752 6.23228C15.6519 6.34002 15.8249 6.45546 15.9942 6.57859L18.0028 5.74743C18.2183 5.67048 18.4338 5.66278 18.6493 5.72435C18.8647 5.78591 19.034 5.91674 19.1572 6.11684L20.8657 9.09515C20.9888 9.29524 21.0273 9.51073 20.9811 9.7416C20.9349 9.97248 20.8195 10.1572 20.6348 10.2957L18.9032 11.6117C18.9186 11.7194 18.9263 11.8232 18.9263 11.9229V12.5463C18.9263 12.6467 18.9109 12.7507 18.8801 12.8584L20.6117 14.1744C20.7964 14.313 20.9118 14.4977 20.958 14.7285C21.0042 14.9594 20.9657 15.1749 20.8426 15.375L19.1341 18.3302C19.011 18.5303 18.838 18.6651 18.6151 18.7347C18.3916 18.8037 18.1721 18.7997 17.9566 18.7227L15.9942 17.8916C15.8249 18.0147 15.6479 18.1301 15.4632 18.2379C15.2785 18.3456 15.0937 18.438 14.909 18.5149L14.632 20.6621C14.6012 20.893 14.5012 21.0854 14.3319 21.2393C14.1625 21.3932 13.9625 21.4701 13.7316 21.4701V21.4701ZM12.0462 15.4673C12.9389 15.4673 13.7008 15.1518 14.3319 14.5208C14.9629 13.8897 15.2785 13.1278 15.2785 12.2351C15.2785 11.3424 14.9629 10.5805 14.3319 9.94939C13.7008 9.31833 12.9389 9.0028 12.0462 9.0028C11.1381 9.0028 10.3722 9.31833 9.74849 9.94939C9.12543 10.5805 8.8139 11.3424 8.8139 12.2351C8.8139 13.1278 9.12543 13.8897 9.74849 14.5208C10.3722 15.1518 11.1381 15.4673 12.0462 15.4673ZM12.0462 13.6203C11.6614 13.6203 11.3345 13.4855 11.0654 13.2158C10.7957 12.9468 10.6609 12.6199 10.6609 12.2351C10.6609 11.8503 10.7957 11.5234 11.0654 11.2543C11.3345 10.9846 11.6614 10.8498 12.0462 10.8498C12.431 10.8498 12.7582 10.9846 13.0279 11.2543C13.2969 11.5234 13.4314 11.8503 13.4314 12.2351C13.4314 12.6199 13.2969 12.9468 13.0279 13.2158C12.7582 13.4855 12.431 13.6203 12.0462 13.6203ZM11.0765 19.6231H12.9004L13.2236 17.1758C13.7008 17.0527 14.1435 16.8717 14.5517 16.6328C14.9592 16.3946 15.3323 16.1061 15.6709 15.7675L17.9566 16.7141L18.857 15.1441L16.8715 13.6434C16.9485 13.4279 17.0023 13.2008 17.0331 12.9619C17.0639 12.7236 17.0793 12.4813 17.0793 12.2351C17.0793 11.9888 17.0639 11.7462 17.0331 11.5074C17.0023 11.2691 16.9485 11.0422 16.8715 10.8267L18.857 9.32603L17.9566 7.75606L15.6709 8.72575C15.3323 8.37173 14.9592 8.07529 14.5517 7.83641C14.1435 7.59814 13.7008 7.41744 13.2236 7.29431L12.9235 4.84701H11.0996L10.7764 7.29431C10.2992 7.41744 9.85685 7.59814 9.44927 7.83641C9.04108 8.07529 8.66768 8.36404 8.32906 8.70266L6.04338 7.75606L5.14296 9.32603L7.1285 10.8036C7.05154 11.0345 6.99767 11.2654 6.96688 11.4963C6.9361 11.7271 6.92071 11.9734 6.92071 12.2351C6.92071 12.4813 6.9361 12.7199 6.96688 12.9508C6.99767 13.1817 7.05154 13.4125 7.1285 13.6434L5.14296 15.1441L6.04338 16.7141L8.32906 15.7444C8.66768 16.0984 9.04108 16.3946 9.44927 16.6328C9.85685 16.8717 10.2992 17.0527 10.7764 17.1758L11.0765 19.6231Z" fill="black"/>
</svg>
