<svg width="24" height="24" viewBox="0 0 24 24" fill="none" xmlns="http://www.w3.org/2000/svg">
<path d="M12.7315 19.5686C12.5091 19.6886 12.2413 19.6886 12.019 19.5686L6.96019 16.8383C6.79847 16.751 6.69767 16.582 6.69767 16.3982V11.9638L4.17676 10.5794C3.83028 10.3892 3.83118 9.89104 4.17835 9.70203L12.0166 5.43451C12.2402 5.31278 12.5103 5.31278 12.7339 5.43451L21.1143 9.99722C21.2752 10.0848 21.3752 10.2532 21.3752 10.4364V16.1169C21.3752 16.393 21.1514 16.6169 20.8752 16.6169H19.9522C19.676 16.6169 19.4522 16.393 19.4522 16.1169V11.1965L18.0528 11.9638V16.3982C18.0528 16.582 17.952 16.751 17.7903 16.8383L12.7315 19.5686ZM12.3752 12.835L17.3662 10.1393L12.3752 7.44356L7.38431 10.1393L12.3752 12.835ZM12.3752 17.5763L16.1297 15.5469V12.9928L12.7342 14.8436C12.5104 14.9656 12.2401 14.9656 12.0163 14.8436L8.62076 12.9928V15.5469L12.3752 17.5763Z" fill="#1C1B1F"/>
</svg>

