<svg width="24" height="24" viewBox="0 0 24 24" fill="none" xmlns="http://www.w3.org/2000/svg">
<path d="M11.975 20.775C11.8416 20.775 11.7166 20.7624 11.6 20.7374C11.4833 20.7125 11.3666 20.6666 11.25 20.6L5.49995 17.45C5.26662 17.3166 5.07912 17.1333 4.93745 16.9C4.79578 16.6666 4.72495 16.4083 4.72495 16.125V11.025L2.19995 9.64995C2.06662 9.58328 1.97078 9.49162 1.91245 9.37495C1.85412 9.25828 1.82495 9.13328 1.82495 8.99995C1.82495 8.86662 1.85412 8.74162 1.91245 8.62495C1.97078 8.50828 2.06662 8.41662 2.19995 8.34995L11.25 3.39995C11.3666 3.33328 11.4833 3.28328 11.6 3.24995C11.7166 3.21662 11.8416 3.19995 11.975 3.19995C12.1083 3.19995 12.2333 3.21662 12.35 3.24995C12.4666 3.28328 12.5833 3.33328 12.7 3.39995L22.6 8.77495C22.7333 8.85828 22.8333 8.95828 22.9 9.07495C22.9666 9.19162 23 9.31662 23 9.44995V16.175C23 16.3916 22.9291 16.5708 22.7875 16.7125C22.6458 16.8541 22.4666 16.925 22.25 16.925C22.0333 16.925 21.8541 16.8541 21.7125 16.7125C21.5708 16.5708 21.5 16.3916 21.5 16.175V9.87495L19.225 11.025V16.125C19.225 16.4083 19.1541 16.6666 19.0125 16.9C18.8708 17.1333 18.6833 17.3166 18.45 17.45L12.7 20.6C12.5833 20.6666 12.4666 20.7125 12.35 20.7374C12.2333 20.7624 12.1083 20.775 11.975 20.775ZM11.975 13.3L19.85 8.99995L11.975 4.77495L4.14995 8.99995L11.975 13.3ZM11.975 19.2999L17.725 16.125V11.925L12.7 14.625C12.5833 14.6916 12.4666 14.7375 12.35 14.7625C12.2333 14.7875 12.1083 14.8 11.975 14.8C11.8416 14.8 11.7208 14.7875 11.6125 14.7625C11.5041 14.7375 11.3916 14.6916 11.275 14.625L6.22495 11.875V16.125L11.975 19.2999Z" fill="black"/>
</svg>