<svg width="24" height="24" viewBox="0 0 24 24" xmlns="http://www.w3.org/2000/svg">
<path d="M11.5376 19.0108C11.3943 19.0108 11.2543 18.993 11.1178 18.9574C10.9819 18.9213 10.8495 18.8674 10.7204 18.7957L6.41936 16.4731C6.13262 16.3154 5.91039 16.1041 5.75269 15.8391C5.59498 15.5736 5.51613 15.276 5.51613 14.9462V10.8172L3.45161 9.67742C3.29391 9.5914 3.17921 9.48387 3.10753 9.35484C3.03584 9.22581 3 9.08244 3 8.92473C3 8.76703 3.03584 8.62366 3.10753 8.49462C3.17921 8.36559 3.29391 8.25806 3.45161 8.17204L10.7204 4.21505C10.8495 4.14337 10.9819 4.08946 11.1178 4.05333C11.2543 4.01778 11.3943 4 11.5376 4C11.681 4 11.8209 4.01778 11.9574 4.05333C12.0933 4.08946 12.2258 4.14337 12.3548 4.21505L20.5484 8.68817C20.6918 8.75986 20.803 8.86366 20.8822 8.99957C20.9607 9.13606 21 9.28315 21 9.44086V14.9462C21 15.19 20.9174 15.3941 20.7523 15.5587C20.5877 15.7239 20.3835 15.8065 20.1398 15.8065C19.8961 15.8065 19.6919 15.7239 19.5273 15.5587C19.3622 15.3941 19.2796 15.19 19.2796 14.9462V9.87097L17.5591 10.8172V14.9462C17.5591 15.276 17.4803 15.5736 17.3226 15.8391C17.1649 16.1041 16.9427 16.3154 16.6559 16.4731L12.3548 18.7957C12.2258 18.8674 12.0933 18.9213 11.9574 18.9574C11.8209 18.993 11.681 19.0108 11.5376 19.0108V19.0108ZM11.5376 12.1075L17.4301 8.92473L11.5376 5.74194L5.64516 8.92473L11.5376 12.1075ZM11.5376 17.2903L15.8387 14.9677V11.7204L12.3763 13.6344C12.2473 13.7061 12.1111 13.7597 11.9677 13.7953C11.8244 13.8314 11.681 13.8495 11.5376 13.8495C11.3943 13.8495 11.2509 13.8314 11.1075 13.7953C10.9642 13.7597 10.828 13.7061 10.6989 13.6344L7.23656 11.7204V14.9677L11.5376 17.2903Z" fill="black"/>
</svg>
