<svg width="24" height="24" viewBox="0 0 24 24" xmlns="http://www.w3.org/2000/svg">
<path d="M11.6281 18.9398C11.5148 18.9398 11.4085 18.9292 11.3093 18.9079C11.2102 18.8867 11.111 18.8477 11.0118 18.791L6.12397 16.1133C5.92562 16 5.76623 15.8442 5.64581 15.6458C5.52538 15.4475 5.46517 15.2279 5.46517 14.987V10.6517L3.31877 9.48288C3.20543 9.42621 3.12397 9.34829 3.07438 9.24912C3.02479 9.14994 3 9.04368 3 8.93034C3 8.817 3.02479 8.71074 3.07438 8.61157C3.12397 8.5124 3.20543 8.43448 3.31877 8.3778L11.0118 4.17001C11.111 4.11334 11.2102 4.07084 11.3093 4.0425C11.4085 4.01417 11.5148 4 11.6281 4C11.7414 4 11.8477 4.01417 11.9469 4.0425C12.046 4.07084 12.1452 4.11334 12.2444 4.17001L20.66 8.73908C20.7733 8.80992 20.8583 8.89492 20.915 8.9941C20.9717 9.09327 21 9.19953 21 9.31287V15.0295C21 15.2137 20.9398 15.366 20.8194 15.4864C20.6989 15.6068 20.5466 15.6671 20.3625 15.6671C20.1783 15.6671 20.026 15.6068 19.9055 15.4864C19.7851 15.366 19.7249 15.2137 19.7249 15.0295V9.67414L17.791 10.6517V14.987C17.791 15.2279 17.7308 15.4475 17.6104 15.6458C17.49 15.8442 17.3306 16 17.1322 16.1133L12.2444 18.791C12.1452 18.8477 12.046 18.8867 11.9469 18.9079C11.8477 18.9292 11.7414 18.9398 11.6281 18.9398V18.9398ZM11.6281 12.5856L18.3223 8.93034L11.6281 5.33884L4.97639 8.93034L11.6281 12.5856ZM11.6281 17.686L16.5159 14.987V11.4168L12.2444 13.7119C12.1452 13.7686 12.046 13.8076 11.9469 13.8288C11.8477 13.8501 11.7414 13.8607 11.6281 13.8607C11.5148 13.8607 11.412 13.8501 11.32 13.8288C11.2279 13.8076 11.1322 13.7686 11.0331 13.7119L6.74026 11.3743V14.987L11.6281 17.686Z" fill="black"/>
</svg>
