<?xml version="1.0" encoding="UTF-8"?>
<svg width="24px" height="24px" viewBox="0 0 24 24" version="1.1" xmlns="http://www.w3.org/2000/svg" xmlns:xlink="http://www.w3.org/1999/xlink">
    <!-- Generator: sketchtool 45.2 (43514) - http://www.bohemiancoding.com/sketch -->
    <title>graph</title>
    <desc>Created with sketchtool.</desc>
    <defs></defs>
    <g id="Icons" stroke="none" stroke-width="1" fill-rule="evenodd">
        <g id="MC-icon-set" transform="translate(-168.000000, -72.000000)" fill="#000000">
            <g id="Application" transform="translate(24.000000, 24.000000)">
                <g id="Graph" transform="translate(144.000000, 48.000000)">
                    <path d="M3,12.5096658 C3,12.2281852 3.21484375,12 3.49769878,12 L7.50230122,12 C7.77717266,12 8,12.2224731 8,12.5096658 L8,20.4903342 C8,20.7718148 7.78515625,21 7.50230122,21 L3.49769878,21 C3.22282734,21 3,20.7775269 3,20.4903342 L3,12.5096658 Z M9.51071897,3.50020972 C9.51071897,3.22395152 9.72556272,3 10.0084178,3 L14.0130202,3 C14.2878916,3 14.510719,3.22758651 14.510719,3.50020972 L14.510719,20.4997903 C14.510719,20.7760485 14.2958752,21 14.0130202,21 L10.0084178,21 C9.7335463,21 9.51071897,20.7724135 9.51071897,20.4997903 L9.51071897,3.50020972 Z M16,8.49374104 C16,8.22105539 16.2148438,8 16.4976988,8 L20.5023012,8 C20.7771727,8 21,8.22563934 21,8.49374104 L21,20.506259 C21,20.7789446 20.7851562,21 20.5023012,21 L16.4976988,21 C16.2228273,21 16,20.7743607 16,20.506259 L16,8.49374104 Z" id="shape"></path>
                </g>
            </g>
        </g>
    </g>
</svg>