<svg width="24" height="24" viewBox="0 0 24 24" xmlns="http://www.w3.org/2000/svg">
<path d="M5.25 21C4.63125 21 4.10175 20.7799 3.6615 20.3396C3.2205 19.8986 3 19.3688 3 18.75V10.875C3 10.2562 3.2205 9.72637 3.6615 9.28537C4.10175 8.84512 4.63125 8.625 5.25 8.625C5.86875 8.625 6.39825 8.84512 6.8385 9.28537C7.2795 9.72637 7.5 10.2562 7.5 10.875V18.75C7.5 19.3688 7.2795 19.8986 6.8385 20.3396C6.39825 20.7799 5.86875 21 5.25 21ZM12 21C11.3812 21 10.8518 20.7799 10.4115 20.3396C9.9705 19.8986 9.75 19.3688 9.75 18.75V5.25C9.75 4.63125 9.9705 4.10175 10.4115 3.6615C10.8518 3.2205 11.3812 3 12 3C12.6188 3 13.1486 3.2205 13.5896 3.6615C14.0299 4.10175 14.25 4.63125 14.25 5.25V18.75C14.25 19.3688 14.0299 19.8986 13.5896 20.3396C13.1486 20.7799 12.6188 21 12 21ZM18.75 21C18.1312 21 17.6014 20.7799 17.1604 20.3396C16.7201 19.8986 16.5 19.3688 16.5 18.75V15.375C16.5 14.7562 16.7201 14.2264 17.1604 13.7854C17.6014 13.3451 18.1312 13.125 18.75 13.125C19.3688 13.125 19.8986 13.3451 20.3396 13.7854C20.7799 14.2264 21 14.7562 21 15.375V18.75C21 19.3688 20.7799 19.8986 20.3396 20.3396C19.8986 20.7799 19.3688 21 18.75 21Z" fill="black"/>
</svg>
