<svg width="24" height="24" viewBox="0 0 24 24" xmlns="http://www.w3.org/2000/svg">
<path d="M4.8 21C4.305 21 3.8814 20.8239 3.5292 20.4717C3.1764 20.1189 3 19.695 3 19.2V4.8C3 4.305 3.1764 3.8811 3.5292 3.5283C3.8814 3.1761 4.305 3 4.8 3H19.2C19.695 3 20.1189 3.1761 20.4717 3.5283C20.8239 3.8811 21 4.305 21 4.8V19.2C21 19.695 20.8239 20.1189 20.4717 20.4717C20.1189 20.8239 19.695 21 19.2 21H4.8ZM4.8 15.6V19.2H8.4V15.6H4.8ZM10.2 15.6V19.2H13.8V15.6H10.2ZM15.6 19.2H19.2V15.6H15.6V19.2ZM4.8 13.8H8.4V10.2H4.8V13.8ZM10.2 13.8H13.8V10.2H10.2V13.8ZM15.6 13.8H19.2V10.2H15.6V13.8ZM8.4 4.8H4.8V8.4H8.4V4.8ZM10.2 8.4H13.8V4.8H10.2V8.4ZM15.6 8.4H19.2V4.8H15.6V8.4Z" fill="black"/>
</svg>
