<svg width="24" height="24" viewBox="0 0 24 24" xmlns="http://www.w3.org/2000/svg">
<path d="M12.375 11.9625C12.7375 11.5625 13.0156 11.1063 13.2094 10.5938C13.4031 10.0812 13.5 9.55 13.5 9C13.5 8.45 13.4031 7.91875 13.2094 7.40625C13.0156 6.89375 12.7375 6.4375 12.375 6.0375C13.125 6.1375 13.75 6.46875 14.25 7.03125C14.75 7.59375 15 8.25 15 9C15 9.75 14.75 10.4062 14.25 10.9688C13.75 11.5312 13.125 11.8625 12.375 11.9625ZM16.0875 18C16.225 17.775 16.3281 17.5344 16.3969 17.2781C16.4656 17.0219 16.5 16.7625 16.5 16.5V15.75C16.5 15.3 16.4 14.8719 16.2 14.4656C16 14.0594 15.7375 13.7 15.4125 13.3875C16.05 13.6125 16.6406 13.9031 17.1844 14.2594C17.7281 14.6156 18 15.1125 18 15.75V16.5C18 16.9125 17.8531 17.2656 17.5594 17.5594C17.2656 17.8531 16.9125 18 16.5 18H16.0875ZM18 11.25H17.25C17.0375 11.25 16.8594 11.1781 16.7156 11.0344C16.5719 10.8906 16.5 10.7125 16.5 10.5C16.5 10.2875 16.5719 10.1094 16.7156 9.96562C16.8594 9.82187 17.0375 9.75 17.25 9.75H18V9C18 8.7875 18.0719 8.60938 18.2156 8.46563C18.3594 8.32188 18.5375 8.25 18.75 8.25C18.9625 8.25 19.1406 8.32188 19.2844 8.46563C19.4281 8.60938 19.5 8.7875 19.5 9V9.75H20.25C20.4625 9.75 20.6406 9.82187 20.7844 9.96562C20.9281 10.1094 21 10.2875 21 10.5C21 10.7125 20.9281 10.8906 20.7844 11.0344C20.6406 11.1781 20.4625 11.25 20.25 11.25H19.5V12C19.5 12.2125 19.4281 12.3906 19.2844 12.5344C19.1406 12.6781 18.9625 12.75 18.75 12.75C18.5375 12.75 18.3594 12.6781 18.2156 12.5344C18.0719 12.3906 18 12.2125 18 12V11.25ZM9 12C8.175 12 7.46875 11.7063 6.88125 11.1188C6.29375 10.5313 6 9.825 6 9C6 8.175 6.29375 7.46875 6.88125 6.88125C7.46875 6.29375 8.175 6 9 6C9.825 6 10.5312 6.29375 11.1187 6.88125C11.7062 7.46875 12 8.175 12 9C12 9.825 11.7062 10.5313 11.1187 11.1188C10.5312 11.7063 9.825 12 9 12ZM3 16.5V15.9C3 15.475 3.10937 15.0844 3.32812 14.7281C3.54688 14.3719 3.8375 14.1 4.2 13.9125C4.975 13.525 5.7625 13.2344 6.5625 13.0406C7.3625 12.8469 8.175 12.75 9 12.75C9.825 12.75 10.6375 12.8469 11.4375 13.0406C12.2375 13.2344 13.025 13.525 13.8 13.9125C14.1625 14.1 14.4531 14.3719 14.6719 14.7281C14.8906 15.0844 15 15.475 15 15.9V16.5C15 16.9125 14.8531 17.2656 14.5594 17.5594C14.2656 17.8531 13.9125 18 13.5 18H4.5C4.0875 18 3.73438 17.8531 3.44063 17.5594C3.14688 17.2656 3 16.9125 3 16.5ZM9 10.5C9.4125 10.5 9.76563 10.3531 10.0594 10.0594C10.3531 9.76562 10.5 9.4125 10.5 9C10.5 8.5875 10.3531 8.23438 10.0594 7.94063C9.76563 7.64688 9.4125 7.5 9 7.5C8.5875 7.5 8.23438 7.64688 7.94063 7.94063C7.64688 8.23438 7.5 8.5875 7.5 9C7.5 9.4125 7.64688 9.76562 7.94063 10.0594C8.23438 10.3531 8.5875 10.5 9 10.5ZM4.5 16.5H13.5V15.9C13.5 15.7625 13.4656 15.6375 13.3969 15.525C13.3281 15.4125 13.2375 15.325 13.125 15.2625C12.45 14.925 11.7688 14.6719 11.0813 14.5031C10.3938 14.3344 9.7 14.25 9 14.25C8.3 14.25 7.60625 14.3344 6.91875 14.5031C6.23125 14.6719 5.55 14.925 4.875 15.2625C4.7625 15.325 4.67188 15.4125 4.60313 15.525C4.53438 15.6375 4.5 15.7625 4.5 15.9V16.5Z" fill="#1A1A1A"/>
</svg>
