<svg width="24" height="24" viewBox="0 0 24 24" fill="none" xmlns="http://www.w3.org/2000/svg">
<path d="M10.65 19.8L8.925 18.225C7.15833 16.6084 5.56267 15.004 4.138 13.412C2.71267 11.8207 2 10.0667 2 8.15002C2 6.58336 2.525 5.27502 3.575 4.22502C4.625 3.17502 5.93333 2.65002 7.5 2.65002C8.38333 2.65002 9.21667 2.83736 10 3.21202C10.7833 3.58736 11.45 4.10002 12 4.75002C12.55 4.10002 13.2167 3.58736 14 3.21202C14.7833 2.83736 15.6167 2.65002 16.5 2.65002C18.0667 2.65002 19.375 3.17502 20.425 4.22502C21.475 5.27502 22 6.58336 22 8.15002C22 10.0667 21.2917 11.825 19.875 13.425C18.4583 15.025 16.85 16.6334 15.05 18.25L13.35 19.8C12.9667 20.1667 12.5167 20.35 12 20.35C11.4833 20.35 11.0333 20.1667 10.65 19.8ZM11.05 6.75002C10.5667 6.06669 10.05 5.54569 9.5 5.18702C8.95 4.82902 8.28333 4.65002 7.5 4.65002C6.5 4.65002 5.66667 4.98336 5 5.65002C4.33333 6.31669 4 7.15002 4 8.15002C4 9.01669 4.30833 9.93736 4.925 10.912C5.54167 11.8874 6.27933 12.8334 7.138 13.75C7.996 14.6667 8.87933 15.525 9.788 16.325C10.696 17.125 11.4333 17.7834 12 18.3C12.5667 17.7834 13.3043 17.125 14.213 16.325C15.121 15.525 16.0043 14.6667 16.863 13.75C17.721 12.8334 18.4583 11.8874 19.075 10.912C19.6917 9.93736 20 9.01669 20 8.15002C20 7.15002 19.6667 6.31669 19 5.65002C18.3333 4.98336 17.5 4.65002 16.5 4.65002C15.7167 4.65002 15.05 4.82902 14.5 5.18702C13.95 5.54569 13.4333 6.06669 12.95 6.75002C12.8333 6.91669 12.6917 7.04169 12.525 7.12502C12.3583 7.20836 12.1833 7.25002 12 7.25002C11.8167 7.25002 11.6417 7.20836 11.475 7.12502C11.3083 7.04169 11.1667 6.91669 11.05 6.75002Z" fill="black"/>
</svg>
