<?xml version="1.0" encoding="utf-8"?>
<!-- Generator: Adobe Illustrator 22.1.0, SVG Export Plug-In . SVG Version: 6.00 Build 0)  -->
<svg version="1.1" id="Ebene_1" xmlns="http://www.w3.org/2000/svg" xmlns:xlink="http://www.w3.org/1999/xlink" x="0px" y="0px"
	 viewBox="0 0 24 24" style="enable-background:new 0 0 24 24;" xml:space="preserve">
	<title>heart</title>
	<desc>Created with Sketch.</desc>
	<g id="MC-icon-set" transform="translate(-241.000000, -1256.000000)">
		<g id="Heart" transform="translate(241.000000, 1256.000000)">
			<path id="shape" class="st0" d="M16,3.7c-1.7,0-3.3,0.9-4.1,2.4c-0.9-1.5-2.4-2.4-4-2.4c-2.5,0-4.6,2.1-4.8,5
				c0,0.1-0.1,0.8,0.2,1.9c0.4,1.6,1.2,3,2.5,4.1l6.2,5.7l6.3-5.7c1.2-1.1,2.1-2.6,2.5-4.1C21.1,9.5,21,8.8,21,8.7
				C20.6,5.7,18.5,3.7,16,3.7z"/>
		</g>
	</g>
</svg>
