<svg width="24" height="24" viewBox="0 0 24 24" xmlns="http://www.w3.org/2000/svg">
<path d="M9.785 18.085L8.2325 16.6675C6.6425 15.2125 5.2064 13.7686 3.9242 12.3358C2.6414 10.9036 2 9.32499 2 7.59999C2 6.18999 2.4725 5.01249 3.4175 4.06749C4.3625 3.12249 5.54 2.64999 6.95 2.64999C7.745 2.64999 8.495 2.81859 9.2 3.15579C9.905 3.49359 10.505 3.95499 11 4.53999C11.495 3.95499 12.095 3.49359 12.8 3.15579C13.505 2.81859 14.255 2.64999 15.05 2.64999C16.46 2.64999 17.6375 3.12249 18.5825 4.06749C19.5275 5.01249 20 6.18999 20 7.59999C20 9.32499 19.3625 10.9075 18.0875 12.3475C16.8125 13.7875 15.365 15.235 13.745 16.69L12.215 18.085C11.87 18.415 11.465 18.58 11 18.58C10.535 18.58 10.13 18.415 9.785 18.085V18.085ZM10.145 6.33999C9.71 5.72499 9.245 5.25609 8.75 4.93329C8.255 4.61109 7.655 4.44999 6.95 4.44999C6.05 4.44999 5.3 4.74999 4.7 5.34999C4.1 5.94999 3.8 6.69999 3.8 7.59999C3.8 8.37999 4.0775 9.20859 4.6325 10.0858C5.1875 10.9636 5.8514 11.815 6.6242 12.64C7.3964 13.465 8.1914 14.2375 9.0092 14.9575C9.8264 15.6775 10.49 16.27 11 16.735C11.51 16.27 12.1739 15.6775 12.9917 14.9575C13.8089 14.2375 14.6039 13.465 15.3767 12.64C16.1489 11.815 16.8125 10.9636 17.3675 10.0858C17.9225 9.20859 18.2 8.37999 18.2 7.59999C18.2 6.69999 17.9 5.94999 17.3 5.34999C16.7 4.74999 15.95 4.44999 15.05 4.44999C14.345 4.44999 13.745 4.61109 13.25 4.93329C12.755 5.25609 12.29 5.72499 11.855 6.33999C11.75 6.48999 11.6225 6.60249 11.4725 6.67749C11.3225 6.75249 11.165 6.78999 11 6.78999C10.835 6.78999 10.6775 6.75249 10.5275 6.67749C10.3775 6.60249 10.25 6.48999 10.145 6.33999V6.33999Z" fill="black"/>
</svg>
