<svg width="24" height="24" viewBox="0 0 24 24" xmlns="http://www.w3.org/2000/svg">
<path d="M6.05714 18.9429H9.14286V12.7714H15.3143V18.9429H18.4V9.68571L12.2286 5.05714L6.05714 9.68571V18.9429ZM6.05714 21C5.49143 21 5.00731 20.7987 4.6048 20.3962C4.2016 19.993 4 19.5086 4 18.9429V9.68571C4 9.36 4.07303 9.05143 4.21909 8.76C4.36446 8.46857 4.56571 8.22857 4.82286 8.04L10.9943 3.41143C11.1829 3.27429 11.38 3.17143 11.5857 3.10286C11.7914 3.03429 12.0057 3 12.2286 3C12.4514 3 12.6657 3.03429 12.8714 3.10286C13.0771 3.17143 13.2743 3.27429 13.4629 3.41143L19.6343 8.04C19.8914 8.22857 20.093 8.46857 20.2391 8.76C20.3845 9.05143 20.4571 9.36 20.4571 9.68571V18.9429C20.4571 19.5086 20.2559 19.993 19.8534 20.3962C19.4502 20.7987 18.9657 21 18.4 21H13.2571V14.8286H11.2V21H6.05714Z" fill="black"/>
</svg>
