<svg width="24px" height="24px" viewBox="0 0 24 24" fill="none" xmlns="http://www.w3.org/2000/svg">
    <g id="Symbols" stroke="none" stroke-width="1" fill="none" fill-rule="evenodd">
        <g id="home_FILL0_wght400_GRAD0_opsz24" fill="#1A1A1A" transform="translate(4.000000, 3.000000)">
            <path d="M2.05714286,15.9428571 L5.14285714,15.9428571 L5.14285714,9.77142857 L11.3142857,9.77142857 L11.3142857,15.9428571 L14.4,15.9428571 L14.4,6.68571429 L8.22857143,2.05714286 L2.05714286,6.68571429 L2.05714286,15.9428571 Z M2.05714286,18 C1.49142857,18 1.00731429,17.7987429 0.6048,17.3962286 C0.2016,16.9930286 0,16.5085714 0,15.9428571 L0,6.68571429 C0,6.36 0.0730285714,6.05142857 0.219085714,5.76 C0.364457143,5.46857143 0.565714286,5.22857143 0.822857143,5.04 L6.99428571,0.411428571 C7.18285714,0.274285714 7.38,0.171428571 7.58571429,0.102857143 C7.79142857,0.0342857143 8.00571429,4.56777473e-16 8.22857143,4.56777473e-16 C8.45142857,4.56777473e-16 8.66571429,0.0342857143 8.87142857,0.102857143 C9.07714286,0.171428571 9.27428571,0.274285714 9.46285714,0.411428571 L15.6342857,5.04 C15.8914286,5.22857143 16.0930286,5.46857143 16.2390857,5.76 C16.3844571,6.05142857 16.4571429,6.36 16.4571429,6.68571429 L16.4571429,15.9428571 C16.4571429,16.5085714 16.2558857,16.9930286 15.8533714,17.3962286 C15.4501714,17.7987429 14.9657143,18 14.4,18 L9.25714286,18 L9.25714286,11.8285714 L7.2,11.8285714 L7.2,18 L2.05714286,18 Z"></path>
        </g>
    </g>
</svg>
