<svg width="24" height="24" viewBox="0 0 24 24" xmlns="http://www.w3.org/2000/svg">
<path d="M7.5 20.25C6.875 20.25 6.34375 20.0312 5.90625 19.5938C5.46875 19.1563 5.25 18.625 5.25 18C5.25 17.375 5.46875 16.8437 5.90625 16.4062C6.34375 15.9688 6.875 15.75 7.5 15.75C7.675 15.75 7.8375 15.7688 7.9875 15.8063C8.1375 15.8438 8.28125 15.8937 8.41875 15.9562L9.4875 14.625C9.1375 14.2375 8.89375 13.8 8.75625 13.3125C8.61875 12.825 8.5875 12.3375 8.6625 11.85L7.14375 11.3438C6.93125 11.6562 6.6625 11.9062 6.3375 12.0938C6.0125 12.2812 5.65 12.375 5.25 12.375C4.625 12.375 4.09375 12.1562 3.65625 11.7188C3.21875 11.2813 3 10.75 3 10.125C3 9.5 3.21875 8.96875 3.65625 8.53125C4.09375 8.09375 4.625 7.875 5.25 7.875C5.875 7.875 6.40625 8.09375 6.84375 8.53125C7.28125 8.96875 7.5 9.5 7.5 10.125V10.275L9.01875 10.8C9.26875 10.35 9.60325 9.96875 10.0222 9.65625C10.4407 9.34375 10.9125 9.14375 11.4375 9.05625V7.425C10.95 7.2875 10.5468 7.02175 10.2278 6.62775C9.90925 6.23425 9.75 5.775 9.75 5.25C9.75 4.625 9.96875 4.09375 10.4062 3.65625C10.8437 3.21875 11.375 3 12 3C12.625 3 13.1563 3.21875 13.5938 3.65625C14.0312 4.09375 14.25 4.625 14.25 5.25C14.25 5.775 14.0875 6.23425 13.7625 6.62775C13.4375 7.02175 13.0375 7.2875 12.5625 7.425V9.05625C13.0875 9.14375 13.5595 9.34375 13.9785 9.65625C14.397 9.96875 14.7313 10.35 14.9813 10.8L16.5 10.275V10.125C16.5 9.5 16.7188 8.96875 17.1562 8.53125C17.5937 8.09375 18.125 7.875 18.75 7.875C19.375 7.875 19.9063 8.09375 20.3438 8.53125C20.7812 8.96875 21 9.5 21 10.125C21 10.75 20.7812 11.2813 20.3438 11.7188C19.9063 12.1562 19.375 12.375 18.75 12.375C18.35 12.375 17.9845 12.2812 17.6535 12.0938C17.322 11.9062 17.0563 11.6562 16.8563 11.3438L15.3375 11.85C15.4125 12.3375 15.3813 12.8218 15.2438 13.3028C15.1063 13.7843 14.8625 14.225 14.5125 14.625L15.5812 15.9375C15.7187 15.875 15.8625 15.828 16.0125 15.7965C16.1625 15.7655 16.325 15.75 16.5 15.75C17.125 15.75 17.6563 15.9688 18.0938 16.4062C18.5312 16.8437 18.75 17.375 18.75 18C18.75 18.625 18.5312 19.1563 18.0938 19.5938C17.6563 20.0312 17.125 20.25 16.5 20.25C15.875 20.25 15.3437 20.0312 14.9062 19.5938C14.4688 19.1563 14.25 18.625 14.25 18C14.25 17.75 14.2908 17.5095 14.3723 17.2785C14.4533 17.047 14.5625 16.8375 14.7 16.65L13.6313 15.3187C13.1188 15.6062 12.572 15.75 11.991 15.75C11.4095 15.75 10.8625 15.6062 10.35 15.3187L9.3 16.65C9.4375 16.8375 9.547 17.047 9.6285 17.2785C9.7095 17.5095 9.75 17.75 9.75 18C9.75 18.625 9.53125 19.1563 9.09375 19.5938C8.65625 20.0312 8.125 20.25 7.5 20.25ZM5.25 10.875C5.4625 10.875 5.64075 10.803 5.78475 10.659C5.92825 10.5155 6 10.3375 6 10.125C6 9.9125 5.92825 9.73425 5.78475 9.59025C5.64075 9.44675 5.4625 9.375 5.25 9.375C5.0375 9.375 4.8595 9.44675 4.716 9.59025C4.572 9.73425 4.5 9.9125 4.5 10.125C4.5 10.3375 4.572 10.5155 4.716 10.659C4.8595 10.803 5.0375 10.875 5.25 10.875ZM7.5 18.75C7.7125 18.75 7.89075 18.678 8.03475 18.534C8.17825 18.3905 8.25 18.2125 8.25 18C8.25 17.7875 8.17825 17.6095 8.03475 17.466C7.89075 17.322 7.7125 17.25 7.5 17.25C7.2875 17.25 7.10925 17.322 6.96525 17.466C6.82175 17.6095 6.75 17.7875 6.75 18C6.75 18.2125 6.82175 18.3905 6.96525 18.534C7.10925 18.678 7.2875 18.75 7.5 18.75ZM12 6C12.2125 6 12.3908 5.928 12.5348 5.784C12.6783 5.6405 12.75 5.4625 12.75 5.25C12.75 5.0375 12.6783 4.85925 12.5348 4.71525C12.3908 4.57175 12.2125 4.5 12 4.5C11.7875 4.5 11.6095 4.57175 11.466 4.71525C11.322 4.85925 11.25 5.0375 11.25 5.25C11.25 5.4625 11.322 5.6405 11.466 5.784C11.6095 5.928 11.7875 6 12 6ZM12 14.25C12.525 14.25 12.9687 14.0687 13.3312 13.7062C13.6937 13.3437 13.875 12.9 13.875 12.375C13.875 11.85 13.6937 11.4063 13.3312 11.0438C12.9687 10.6813 12.525 10.5 12 10.5C11.475 10.5 11.0313 10.6813 10.6688 11.0438C10.3063 11.4063 10.125 11.85 10.125 12.375C10.125 12.9 10.3063 13.3437 10.6688 13.7062C11.0313 14.0687 11.475 14.25 12 14.25ZM16.5 18.75C16.7125 18.75 16.8905 18.678 17.034 18.534C17.178 18.3905 17.25 18.2125 17.25 18C17.25 17.7875 17.178 17.6095 17.034 17.466C16.8905 17.322 16.7125 17.25 16.5 17.25C16.2875 17.25 16.1095 17.322 15.966 17.466C15.822 17.6095 15.75 17.7875 15.75 18C15.75 18.2125 15.822 18.3905 15.966 18.534C16.1095 18.678 16.2875 18.75 16.5 18.75ZM18.75 10.875C18.9625 10.875 19.1405 10.803 19.284 10.659C19.428 10.5155 19.5 10.3375 19.5 10.125C19.5 9.9125 19.428 9.73425 19.284 9.59025C19.1405 9.44675 18.9625 9.375 18.75 9.375C18.5375 9.375 18.3595 9.44675 18.216 9.59025C18.072 9.73425 18 9.9125 18 10.125C18 10.3375 18.072 10.5155 18.216 10.659C18.3595 10.803 18.5375 10.875 18.75 10.875Z" fill="#1A1A1A"/>
</svg>
