<svg width="24" height="24" viewBox="0 0 24 24" xmlns="http://www.w3.org/2000/svg">
<path d="M12 16.0219C11.6813 16.0219 11.4143 15.9139 11.199 15.6979C10.983 15.4826 10.875 15.2156 10.875 14.8969V6.85312L8.76562 8.9625C8.54062 9.1875 8.27813 9.3 7.97813 9.3C7.67813 9.3 7.40625 9.17812 7.1625 8.93437C6.9375 8.70937 6.82988 8.442 6.83963 8.13225C6.84863 7.82325 6.95625 7.56563 7.1625 7.35938L11.2125 3.30937C11.325 3.19687 11.4469 3.117 11.5781 3.06975C11.7094 3.02325 11.85 3 12 3C12.15 3 12.2906 3.02325 12.4219 3.06975C12.5531 3.117 12.675 3.19687 12.7875 3.30937L16.8375 7.35938C17.0625 7.58438 17.1701 7.85137 17.1604 8.16037C17.1514 8.47012 17.0437 8.72812 16.8375 8.93437C16.6125 9.15937 16.3455 9.27637 16.0365 9.28537C15.7268 9.29512 15.4594 9.1875 15.2344 8.9625L13.125 6.85312V14.8969C13.125 15.2156 13.0174 15.4826 12.8021 15.6979C12.5861 15.9139 12.3187 16.0219 12 16.0219ZM5.25 20.5219C4.63125 20.5219 4.10175 20.3017 3.6615 19.8615C3.2205 19.4205 3 18.8906 3 18.2719V16.0219C3 15.7031 3.10763 15.4357 3.32288 15.2197C3.53888 15.0045 3.80625 14.8969 4.125 14.8969C4.44375 14.8969 4.71112 15.0045 4.92712 15.2197C5.14237 15.4357 5.25 15.7031 5.25 16.0219V18.2719H18.75V16.0219C18.75 15.7031 18.858 15.4357 19.074 15.2197C19.2893 15.0045 19.5563 14.8969 19.875 14.8969C20.1937 14.8969 20.4607 15.0045 20.676 15.2197C20.892 15.4357 21 15.7031 21 16.0219V18.2719C21 18.8906 20.7799 19.4205 20.3396 19.8615C19.8986 20.3017 19.3688 20.5219 18.75 20.5219H5.25Z" fill="black"/>
</svg>
