<svg width="24px" height="24px" viewBox="0 0 24 24" xmlns="http://www.w3.org/2000/svg">
    <g id="Symbols" stroke="none" stroke-width="1" fill-rule="evenodd">
        <g id="InfoIcon" fill="#1A1A1A" transform="translate(3.000000, 3.000000)">
            <path d="M9,14 C9.2833,14 9.521,13.904 9.713,13.712 C9.9043,13.5207 10,13.2833 10,13 L10,8.975 C10,8.6917 9.9043,8.4583 9.713,8.275 C9.521,8.0917 9.2833,8 9,8 C8.7167,8 8.4793,8.0957 8.288,8.287 C8.096,8.479 8,8.7167 8,9 L8,13.025 C8,13.3083 8.096,13.5417 8.288,13.725 C8.4793,13.9083 8.7167,14 9,14 Z M9,6 C9.2833,6 9.521,5.904 9.713,5.712 C9.9043,5.52067 10,5.28333 10,5 C10,4.71667 9.9043,4.479 9.713,4.287 C9.521,4.09567 9.2833,4 9,4 C8.7167,4 8.4793,4.09567 8.288,4.287 C8.096,4.479 8,4.71667 8,5 C8,5.28333 8.096,5.52067 8.288,5.712 C8.4793,5.904 8.7167,6 9,6 Z M9,18 C7.75503,18 6.585003,17.76357 5.49,17.2908 C4.394997,16.81857 3.4425,16.1775 2.6325,15.3675 C1.8225,14.5575 1.181403,13.60503 0.7092,12.51 C0.236403,11.41497 0,10.24497 0,9 C0,7.75503 0.236403,6.585003 0.7092,5.49 C1.181403,4.394997 1.8225,3.4425 2.6325,2.6325 C3.4425,1.8225 4.394997,1.181097 5.49,0.7083 C6.585003,0.236097 7.75503,0 9,0 C10.24497,0 11.41497,0.236097 12.51,0.7083 C13.60503,1.181097 14.5575,1.8225 15.3675,2.6325 C16.1775,3.4425 16.81857,4.394997 17.2908,5.49 C17.76357,6.585003 18,7.75503 18,9 C18,10.24497 17.76357,11.41497 17.2908,12.51 C16.81857,13.60503 16.1775,14.5575 15.3675,15.3675 C14.5575,16.1775 13.60503,16.81857 12.51,17.2908 C11.41497,17.76357 10.24497,18 9,18 Z" id="🌈-Color"></path>
        </g>
    </g>
</svg>
