<svg width="24" height="24" viewBox="0 0 24 24" xmlns="http://www.w3.org/2000/svg">
<path d="M12 16.5C12.255 16.5 12.4689 16.4136 12.6417 16.2408C12.8139 16.0686 12.9 15.855 12.9 15.6V11.9775C12.9 11.7225 12.8139 11.5125 12.6417 11.3475C12.4689 11.1825 12.255 11.1 12 11.1C11.745 11.1 11.5314 11.1861 11.3592 11.3583C11.1864 11.5311 11.1 11.745 11.1 12V15.6225C11.1 15.8775 11.1864 16.0875 11.3592 16.2525C11.5314 16.4175 11.745 16.5 12 16.5ZM12 9.3C12.255 9.3 12.4689 9.2136 12.6417 9.0408C12.8139 8.8686 12.9 8.655 12.9 8.4C12.9 8.145 12.8139 7.9311 12.6417 7.7583C12.4689 7.5861 12.255 7.5 12 7.5C11.745 7.5 11.5314 7.5861 11.3592 7.7583C11.1864 7.9311 11.1 8.145 11.1 8.4C11.1 8.655 11.1864 8.8686 11.3592 9.0408C11.5314 9.2136 11.745 9.3 12 9.3ZM12 21C10.755 21 9.585 20.7636 8.49 20.2908C7.395 19.8186 6.4425 19.1775 5.6325 18.3675C4.8225 17.5575 4.1814 16.605 3.7092 15.51C3.2364 14.415 3 13.245 3 12C3 10.755 3.2364 9.585 3.7092 8.49C4.1814 7.395 4.8225 6.4425 5.6325 5.6325C6.4425 4.8225 7.395 4.1811 8.49 3.7083C9.585 3.2361 10.755 3 12 3C13.245 3 14.415 3.2361 15.51 3.7083C16.605 4.1811 17.5575 4.8225 18.3675 5.6325C19.1775 6.4425 19.8186 7.395 20.2908 8.49C20.7636 9.585 21 10.755 21 12C21 13.245 20.7636 14.415 20.2908 15.51C19.8186 16.605 19.1775 17.5575 18.3675 18.3675C17.5575 19.1775 16.605 19.8186 15.51 20.2908C14.415 20.7636 13.245 21 12 21Z" fill="black"/>
</svg>
