<svg width="24" height="24" viewBox="0 0 24 24" xmlns="http://www.w3.org/2000/svg">
<path d="M11.9962 21C11.8228 21 11.6536 20.9696 11.4886 20.9089C11.3237 20.8482 11.1686 20.7638 11.0235 20.6559L3.31672 14.6471C3.10557 14.4893 3.0044 14.2822 3.0132 14.0258C3.02199 13.7694 3.13262 13.5618 3.34509 13.4029C3.49116 13.2971 3.65052 13.2441 3.82317 13.2441C3.9958 13.2441 4.15249 13.2971 4.29326 13.4029L12 19.4118L19.7067 13.4029C19.8532 13.2971 20.013 13.2441 20.1861 13.2441C20.3592 13.2441 20.5183 13.2968 20.6635 13.402C20.8746 13.56 20.9835 13.7672 20.9901 14.0239C20.9967 14.2805 20.8944 14.4882 20.6833 14.6471L12.9765 20.6559C12.8298 20.7638 12.6731 20.8482 12.5063 20.9089C12.3396 20.9696 12.1696 21 11.9962 21ZM11.9962 16.9765C11.8228 16.9765 11.6536 16.9461 11.4886 16.8854C11.3237 16.8247 11.1686 16.7403 11.0235 16.6324L3.29032 10.6235C3.18475 10.5353 3.10997 10.4364 3.06598 10.3267C3.02199 10.2171 3 10.1043 3 9.98824C3 9.87217 3.02199 9.75934 3.06598 9.64973C3.10997 9.54011 3.18475 9.44118 3.29032 9.35294L11.0235 3.34412C11.1702 3.23615 11.3269 3.15181 11.4937 3.09109C11.6604 3.03036 11.8304 3 12.0038 3C12.1772 3 12.3464 3.03036 12.5114 3.09109C12.6763 3.15181 12.8314 3.23615 12.9765 3.34412L20.7097 9.35294C20.8152 9.44118 20.89 9.54011 20.934 9.64973C20.978 9.75934 21 9.87217 21 9.98824C21 10.1043 20.978 10.2171 20.934 10.3267C20.89 10.4364 20.8152 10.5353 20.7097 10.6235L12.9765 16.6324C12.8298 16.7403 12.6731 16.8247 12.5063 16.8854C12.3396 16.9461 12.1696 16.9765 11.9962 16.9765ZM12 15.3882L18.915 9.98824L12 4.58824L5.08504 9.98824L12 15.3882Z" fill="black"/>
</svg>
