<svg width="24" height="24" viewBox="0 0 24 24" xmlns="http://www.w3.org/2000/svg">
<path d="M3 9C2.71667 9 2.47933 8.904 2.288 8.712C2.096 8.52067 2 8.28333 2 8C2 7.71667 2.096 7.479 2.288 7.287C2.47933 7.09567 2.71667 7 3 7H6C6.28333 7 6.521 7.09567 6.713 7.287C6.90433 7.479 7 7.71667 7 8C7 8.28333 6.90433 8.52067 6.713 8.712C6.521 8.904 6.28333 9 6 9H3ZM3 14C2.71667 14 2.47933 13.904 2.288 13.712C2.096 13.5207 2 13.2833 2 13C2 12.7167 2.096 12.479 2.288 12.287C2.47933 12.0957 2.71667 12 3 12H6C6.28333 12 6.521 12.0957 6.713 12.287C6.90433 12.479 7 12.7167 7 13C7 13.2833 6.90433 13.5207 6.713 13.712C6.521 13.904 6.28333 14 6 14H3ZM19.9 18.3L16.75 15.15C16.35 15.4333 15.9127 15.6457 15.438 15.787C14.9627 15.929 14.4833 16 14 16C12.6167 16 11.4377 15.5123 10.463 14.537C9.48767 13.5623 9 12.3833 9 11C9 9.61667 9.48767 8.43733 10.463 7.462C11.4377 6.48733 12.6167 6 14 6C15.3833 6 16.5627 6.48733 17.538 7.462C18.5127 8.43733 19 9.61667 19 11C19 11.4833 18.9293 11.9627 18.788 12.438C18.646 12.9127 18.4333 13.35 18.15 13.75L21.3 16.9C21.4833 17.0833 21.575 17.3167 21.575 17.6C21.575 17.8833 21.4833 18.1167 21.3 18.3C21.1167 18.4833 20.8833 18.575 20.6 18.575C20.3167 18.575 20.0833 18.4833 19.9 18.3ZM14 14C14.8333 14 15.5417 13.7083 16.125 13.125C16.7083 12.5417 17 11.8333 17 11C17 10.1667 16.7083 9.45833 16.125 8.875C15.5417 8.29167 14.8333 8 14 8C13.1667 8 12.4583 8.29167 11.875 8.875C11.2917 9.45833 11 10.1667 11 11C11 11.8333 11.2917 12.5417 11.875 13.125C12.4583 13.7083 13.1667 14 14 14ZM3 19C2.71667 19 2.47933 18.904 2.288 18.712C2.096 18.5207 2 18.2833 2 18C2 17.7167 2.096 17.4793 2.288 17.288C2.47933 17.096 2.71667 17 3 17H11C11.2833 17 11.521 17.096 11.713 17.288C11.9043 17.4793 12 17.7167 12 18C12 18.2833 11.9043 18.5207 11.713 18.712C11.521 18.904 11.2833 19 11 19H3Z" fill="black"/>
</svg>
