<svg width="24" height="24" viewBox="0 0 24 24" xmlns="http://www.w3.org/2000/svg">
<path d="M8 9C7.71667 9 7.479 8.904 7.287 8.712C7.09567 8.52067 7 8.28333 7 8C7 7.71667 7.09567 7.479 7.287 7.287C7.479 7.09567 7.71667 7 8 7H20C20.2833 7 20.5207 7.09567 20.712 7.287C20.904 7.479 21 7.71667 21 8C21 8.28333 20.904 8.52067 20.712 8.712C20.5207 8.904 20.2833 9 20 9H8ZM8 13C7.71667 13 7.479 12.904 7.287 12.712C7.09567 12.5207 7 12.2833 7 12C7 11.7167 7.09567 11.479 7.287 11.287C7.479 11.0957 7.71667 11 8 11H20C20.2833 11 20.5207 11.0957 20.712 11.287C20.904 11.479 21 11.7167 21 12C21 12.2833 20.904 12.5207 20.712 12.712C20.5207 12.904 20.2833 13 20 13H8ZM8 17C7.71667 17 7.479 16.904 7.287 16.712C7.09567 16.5207 7 16.2833 7 16C7 15.7167 7.09567 15.479 7.287 15.287C7.479 15.0957 7.71667 15 8 15H20C20.2833 15 20.5207 15.0957 20.712 15.287C20.904 15.479 21 15.7167 21 16C21 16.2833 20.904 16.5207 20.712 16.712C20.5207 16.904 20.2833 17 20 17H8ZM4 9C3.71667 9 3.47933 8.904 3.288 8.712C3.096 8.52067 3 8.28333 3 8C3 7.71667 3.096 7.479 3.288 7.287C3.47933 7.09567 3.71667 7 4 7C4.28333 7 4.521 7.09567 4.713 7.287C4.90433 7.479 5 7.71667 5 8C5 8.28333 4.90433 8.52067 4.713 8.712C4.521 8.904 4.28333 9 4 9ZM4 13C3.71667 13 3.47933 12.904 3.288 12.712C3.096 12.5207 3 12.2833 3 12C3 11.7167 3.096 11.479 3.288 11.287C3.47933 11.0957 3.71667 11 4 11C4.28333 11 4.521 11.0957 4.713 11.287C4.90433 11.479 5 11.7167 5 12C5 12.2833 4.90433 12.5207 4.713 12.712C4.521 12.904 4.28333 13 4 13ZM4 17C3.71667 17 3.47933 16.904 3.288 16.712C3.096 16.5207 3 16.2833 3 16C3 15.7167 3.096 15.479 3.288 15.287C3.47933 15.0957 3.71667 15 4 15C4.28333 15 4.521 15.0957 4.713 15.287C4.90433 15.479 5 15.7167 5 16C5 16.2833 4.90433 16.5207 4.713 16.712C4.521 16.904 4.28333 17 4 17Z" fill="black"/>
</svg>
