<svg width="24" height="24" viewBox="0 0 24 24" xmlns="http://www.w3.org/2000/svg">
<path d="M3.91954 8.75862C3.659 8.75862 3.44077 8.67034 3.26483 8.49379C3.08828 8.31785 3 8.09962 3 7.83908C3 7.57854 3.08828 7.36 3.26483 7.18345C3.44077 7.00751 3.659 6.91954 3.91954 6.91954H6.67816C6.9387 6.91954 7.15724 7.00751 7.33379 7.18345C7.50973 7.36 7.5977 7.57854 7.5977 7.83908C7.5977 8.09962 7.50973 8.31785 7.33379 8.49379C7.15724 8.67034 6.9387 8.75862 6.67816 8.75862H3.91954ZM3.91954 13.3563C3.659 13.3563 3.44077 13.268 3.26483 13.0915C3.08828 12.9156 3 12.6973 3 12.4368C3 12.1762 3.08828 11.9577 3.26483 11.7811C3.44077 11.6052 3.659 11.5172 3.91954 11.5172H6.67816C6.9387 11.5172 7.15724 11.6052 7.33379 11.7811C7.50973 11.9577 7.5977 12.1762 7.5977 12.4368C7.5977 12.6973 7.50973 12.9156 7.33379 13.0915C7.15724 13.268 6.9387 13.3563 6.67816 13.3563H3.91954ZM19.4598 17.3103L16.5632 14.4138C16.1954 14.6743 15.7933 14.8696 15.3568 14.9995C14.9197 15.1301 14.4789 15.1954 14.0345 15.1954C12.7625 15.1954 11.6783 14.747 10.7821 13.8501C9.88521 12.9539 9.43678 11.8697 9.43678 10.5977C9.43678 9.32567 9.88521 8.24123 10.7821 7.34437C11.6783 6.44812 12.7625 6 14.0345 6C15.3065 6 16.391 6.44812 17.2878 7.34437C18.1841 8.24123 18.6322 9.32567 18.6322 10.5977C18.6322 11.0421 18.5672 11.4829 18.4372 11.92C18.3067 12.3565 18.1111 12.7586 17.8506 13.1264L20.7471 16.023C20.9157 16.1916 21 16.4061 21 16.6667C21 16.9272 20.9157 17.1418 20.7471 17.3103C20.5785 17.4789 20.364 17.5632 20.1034 17.5632C19.8429 17.5632 19.6284 17.4789 19.4598 17.3103ZM14.0345 13.3563C14.8008 13.3563 15.4521 13.0881 15.9885 12.5517C16.5249 12.0153 16.7931 11.364 16.7931 10.5977C16.7931 9.83142 16.5249 9.18008 15.9885 8.64368C15.4521 8.10728 14.8008 7.83908 14.0345 7.83908C13.2682 7.83908 12.6169 8.10728 12.0805 8.64368C11.5441 9.18008 11.2759 9.83142 11.2759 10.5977C11.2759 11.364 11.5441 12.0153 12.0805 12.5517C12.6169 13.0881 13.2682 13.3563 14.0345 13.3563ZM3.91954 17.954C3.659 17.954 3.44077 17.8657 3.26483 17.6892C3.08828 17.5133 3 17.295 3 17.0345C3 16.7739 3.08828 16.5557 3.26483 16.3798C3.44077 16.2032 3.659 16.1149 3.91954 16.1149H11.2759C11.5364 16.1149 11.7549 16.2032 11.9315 16.3798C12.1074 16.5557 12.1954 16.7739 12.1954 17.0345C12.1954 17.295 12.1074 17.5133 11.9315 17.6892C11.7549 17.8657 11.5364 17.954 11.2759 17.954H3.91954Z" fill="black"/>
</svg>
