<?xml version="1.0" encoding="UTF-8"?>
<svg width="32px" height="32px" viewBox="0 0 32 32" version="1.1" xmlns="http://www.w3.org/2000/svg" xmlns:xlink="http://www.w3.org/1999/xlink">
    <title>Component / icon / 24px / audit-log</title>
    <g id="Page-1" stroke="none" stroke-width="1" fill="none" fill-rule="evenodd">
        <g id="New-Audit-log-icon|-magnifyin-glass" transform="translate(-18.000000, -442.000000)" fill="#000000">
            <g id="Component-/-icon-/-24px-/-audit-log" transform="translate(18.000000, 442.000000)">
                <g id="audit-log-icon" transform="translate(4.000000, 4.000000)">
                    <path d="M23.7348657,21.9524758 C23.727143,21.6986702 23.6156866,21.4591437 23.4265228,21.2898282 L18.1172107,16.5544 C17.6024286,17.285278 16.9658101,17.92213 16.2352,18.4371008 L20.9688925,23.7483212 C21.3040361,24.1400938 21.9530597,24.158865 22.3102745,23.7867868 L23.4649359,22.6317021 C23.6441069,22.4518317 23.7416784,22.2063118 23.7348657,21.9524758 Z" id="Path" fill-rule="nonzero"></path>
                    <path d="M19.1232281,9.94 C19.1232281,5.17588571 15.2473424,1.3 10.4832281,1.3 C5.71911378,1.3 1.84322807,5.17588571 1.84322807,9.94 C1.84322807,14.7041143 5.71911378,18.58 10.4832281,18.58 C15.2473424,18.58 19.1232281,14.7041143 19.1232281,9.94 Z M10.4832281,16.5228571 C6.85351378,16.5228571 3.90037093,13.5697143 3.90037093,9.94 C3.90037093,6.31028571 6.85351378,3.35714286 10.4832281,3.35714286 C14.1129424,3.35714286 17.0660852,6.31028571 17.0660852,9.94 C17.0660852,13.5697143 14.1129424,16.5228571 10.4832281,16.5228571 Z" id="Shape" fill-rule="nonzero"></path>
                    <path d="M9.69688048,10.7756019 L8.77981785,9.80374179 C8.59029997,9.60289961 8.27385061,9.59371944 8.07300842,9.78323732 C8.06597368,9.78987542 8.05913303,9.79671624 8.05249512,9.80375115 L7.33914124,10.5597692 C7.15736391,10.7524183 7.15736206,11.0533997 7.33913702,11.246051 L9.69688048,13.7448676 L9.69688048,13.7448676 L14.0357418,9.14644301 C14.2175185,8.95379195 14.2175174,8.65280913 14.0357394,8.46015935 L13.3223929,7.70414911 C13.1328802,7.50330204 12.8164311,7.49411373 12.615584,7.68362645 C12.6085472,7.69026615 12.6017046,7.69710869 12.5950648,7.70414543 L9.69688048,10.7756019 L9.69688048,10.7756019 Z" id="Path-2" fill-rule="nonzero"></path>
                    <path d="M2.42132502,15.0009828 L0.6,15 C0.301766235,15 0.054353247,14.7824104 0.00785298705,14.4973231 L0,14.4 L0,12.6 C0,12.3017662 0.217589612,12.0543532 0.502676883,12.007853 L0.6,12 L1.21110961,12.0009925 C1.44252694,13.0804331 1.85733144,14.0918293 2.42132502,15.0009828 Z M21.4,12 C21.7313708,12 22,12.2686292 22,12.6 L22,14.4 C22,14.7313708 21.7313708,15 21.4,15 L18.578675,15.0009828 C19.1426686,14.0918293 19.5574731,13.0804331 19.7888904,12.0009925 L21.4,12 Z M1.05196284,9.00039243 L0.6,9 C0.301766235,9 0.054353247,8.78241039 0.00785298705,8.49732312 L0,8.4 L0,6.6 C-3.99680289e-16,6.30176624 0.217589612,6.05435325 0.502676883,6.00785299 L0.6,6 L1.88072356,5.99983395 C1.44905517,6.92839111 1.16301987,7.93835899 1.05196284,9.00039243 Z M21.4,6 C21.7313708,6 22,6.26862915 22,6.6 L22,8.4 C22,8.73137085 21.7313708,9 21.4,9 L19.9480372,9.00039243 C19.8369801,7.93835899 19.5509448,6.92839111 19.1192764,5.99983395 L21.4,6 Z M21.4,-5.68434189e-14 C21.7313708,-5.61323637e-14 22,0.26862915 22,0.6 L22,2.4 C22,2.73137085 21.7313708,3 21.4,3 L16.9230374,3.00031268 C15.2319656,1.4477307 12.97666,0.5 10.5,0.5 C8.02334003,0.5 5.76803443,1.4477307 4.07696261,3.00031268 L0.6,3 C0.301766235,3 0.054353247,2.78241039 0.00785298705,2.49732312 L0,2.4 L0,0.6 C0,0.301766235 0.217589612,0.054353247 0.502676883,0.00785298705 L0.6,-5.68434189e-14 L21.4,-5.68434189e-14 Z" id="Combined-Shape"></path>
                </g>
            </g>
        </g>
    </g>
</svg>
