<svg width="24" height="24" viewBox="0 0 24 24" fill="none" xmlns="http://www.w3.org/2000/svg">
<path d="M12.2 12C12.695 12 13.1189 11.8236 13.4717 11.4708C13.8239 11.1186 14 10.695 14 10.2C14 9.705 13.8239 9.2811 13.4717 8.9283C13.1189 8.5761 12.695 8.4 12.2 8.4C11.705 8.4 11.2814 8.5761 10.9292 8.9283C10.5764 9.2811 10.4 9.705 10.4 10.2C10.4 10.695 10.5764 11.1186 10.9292 11.4708C11.2814 11.8236 11.705 12 12.2 12ZM12.2 18.615C14.03 16.935 15.3875 15.4086 16.2725 14.0358C17.1575 12.6636 17.6 11.445 17.6 10.38C17.6 8.745 17.0786 7.4061 16.0358 6.3633C14.9936 5.3211 13.715 4.8 12.2 4.8C10.685 4.8 9.4061 5.3211 8.3633 6.3633C7.3211 7.4061 6.8 8.745 6.8 10.38C6.8 11.445 7.2425 12.6636 8.1275 14.0358C9.0125 15.4086 10.37 16.935 12.2 18.615ZM12.2 21C9.785 18.945 7.9814 17.0361 6.7892 15.2733C5.5964 13.5111 5 11.88 5 10.38C5 8.13 5.7239 6.3375 7.1717 5.0025C8.6189 3.6675 10.295 3 12.2 3C14.105 3 15.7811 3.6675 17.2283 5.0025C18.6761 6.3375 19.4 8.13 19.4 10.38C19.4 11.88 18.8039 13.5111 17.6117 15.2733C16.4189 17.0361 14.615 18.945 12.2 21Z" fill="#1A1A1A"/>
</svg>
