<svg width="24" height="24" viewBox="0 0 24 24" xmlns="http://www.w3.org/2000/svg">
<path d="M6.71429 21C6.24286 21 5.83943 20.8323 5.504 20.4969C5.168 20.1609 5 19.7571 5 19.2857V10.7143C5 10.2429 5.168 9.83914 5.504 9.50314C5.83943 9.16771 6.24286 9 6.71429 9H7.57143V7.28571C7.57143 6.1 7.98943 5.08914 8.82543 4.25314C9.66086 3.41771 10.6714 3 11.8571 3C13.0429 3 14.0537 3.41771 14.8897 4.25314C15.7251 5.08914 16.1429 6.1 16.1429 7.28571V9H17C17.4714 9 17.8751 9.16771 18.2111 9.50314C18.5466 9.83914 18.7143 10.2429 18.7143 10.7143V19.2857C18.7143 19.7571 18.5466 20.1609 18.2111 20.4969C17.8751 20.8323 17.4714 21 17 21H6.71429ZM6.71429 19.2857H17V10.7143H6.71429V19.2857ZM11.8571 16.7143C12.3286 16.7143 12.7323 16.5466 13.0683 16.2111C13.4037 15.8751 13.5714 15.4714 13.5714 15C13.5714 14.5286 13.4037 14.1249 13.0683 13.7889C12.7323 13.4534 12.3286 13.2857 11.8571 13.2857C11.3857 13.2857 10.9823 13.4534 10.6469 13.7889C10.3109 14.1249 10.1429 14.5286 10.1429 15C10.1429 15.4714 10.3109 15.8751 10.6469 16.2111C10.9823 16.5466 11.3857 16.7143 11.8571 16.7143ZM9.28571 9H14.4286V7.28571C14.4286 6.57143 14.1786 5.96429 13.6786 5.46429C13.1786 4.96429 12.5714 4.71429 11.8571 4.71429C11.1429 4.71429 10.5357 4.96429 10.0357 5.46429C9.53571 5.96429 9.28571 6.57143 9.28571 7.28571V9ZM6.71429 19.2857V10.7143V19.2857Z" fill="black"/>
</svg>
