<?xml version="1.0" encoding="UTF-8"?>
<svg width="24px" height="24px" viewBox="0 0 87 118" version="1.1" xmlns="http://www.w3.org/2000/svg" xmlns:xlink="http://www.w3.org/1999/xlink">
    <title>Lock</title>
    <g id="Final-ImportBoard" stroke="none" stroke-width="1" fill="none" fill-rule="evenodd">
        <g id="2-Upload-files---Locked" transform="translate(-697.000000, -285.000000)" fill="#999999" fill-rule="nonzero">
            <path d="M781.167075,334.924997 L774.342717,334.924997 L774.342717,319.039771 C774.342717,300.267972 759.042508,285 740.22093,285 C721.403902,285 706.099143,300.267972 706.099143,319.039771 L706.099143,334.924997 L699.274786,334.924997 C698.019104,334.924997 697,335.941652 697,337.194315 L697,389.184392 C697,389.974114 697.414011,390.709373 698.087348,391.122389 C710.839797,398.892534 725.407525,403 740.22093,403 C755.034335,403 769.602064,398.892534 782.359062,391.122389 C783.027849,390.709373 783.44186,389.974114 783.44186,389.184392 L783.44186,337.194315 C783.44186,335.941652 782.418207,334.924997 781.167075,334.924997 Z M745.590495,368.913821 L745.590495,384.782392 C745.590495,386.353821 744.382343,387.639535 742.905713,387.639535 L737.536148,387.639535 C736.054148,387.639535 734.851365,386.353821 734.851365,384.782392 L734.851365,368.913821 C731.651104,366.930963 729.4818,363.296678 729.4818,359.068106 C729.4818,352.759535 734.29293,347.639535 740.22093,347.639535 C746.14893,347.639535 750.960061,352.759535 750.960061,359.068106 C750.960061,363.285249 748.790756,366.930963 745.590495,368.913821 Z M760.116279,334.395349 L718.953488,334.395349 L718.953488,318.787791 C718.953488,307.724262 728.187674,298.72093 739.534884,298.72093 C750.877519,298.72093 760.116279,307.724262 760.116279,318.787791 L760.116279,334.395349 Z" id="Shape"></path>
        </g>
    </g>
</svg>
