<?xml version="1.0" encoding="UTF-8"?>
<svg width="24px" height="24px" viewBox="0 0 24 24" version="1.1" xmlns="http://www.w3.org/2000/svg" xmlns:xlink="http://www.w3.org/1999/xlink">
    <!-- Generator: sketchtool 45.2 (43514) - http://www.bohemiancoding.com/sketch -->
    <title>logout</title>
    <desc>Created with sketchtool.</desc>
    <defs></defs>
    <g id="Icons" stroke="none" stroke-width="1" fill-rule="evenodd">
        <g id="MC-icon-set" transform="translate(-24.000000, -24.000000)" fill="#000000">
            <g id="Application" transform="translate(24.000000, 24.000000)">
                <g id="Logout">
                    <path d="M15.762931,18.105 C14.4051724,18.98276 12.8095345,19.50276 11.1123362,19.50276 C8.22682759,19.50276 5.54552586,18.00776 4.11987931,15.66776 C2.66001724,13.295 2.66001724,10.37 4.08566379,7.965 C5.54552586,5.625 8.19315517,4.13 11.0781207,4.13 C12.6737586,4.13 14.2009655,4.585 15.4908362,5.39776 L14.6082931,6.69776 C13.5557586,6.08 12.3337759,5.72276 11.0781207,5.72276 C8.76993103,5.72276 6.59751724,6.86052 5.47709483,8.77776 C4.323,10.66276 4.323,13.03552 5.47709483,14.92052 C6.59751724,16.83828 8.76993103,17.97552 11.0781207,17.97552 C12.4358793,17.97552 13.6920776,17.58552 14.7782845,16.87052 L15.762931,18.105 Z M20.3793103,11.865 L16.6791466,8.38724 L16.6791466,10.33724 L10.7728966,10.33724 L10.7728966,13.39224 L16.6791466,13.39224 L16.6791466,15.375 L20.3793103,11.865 Z" id="shape"></path>
                </g>
            </g>
        </g>
    </g>
</svg>