<svg width="24" height="24" viewBox="0 0 24 24" xmlns="http://www.w3.org/2000/svg">
<path d="M4.8 19.4C4.305 19.4 3.8814 19.2239 3.5292 18.8717C3.1764 18.5189 3 18.095 3 17.6V6.8C3 6.305 3.1764 5.8814 3.5292 5.5292C3.8814 5.1764 4.305 5 4.8 5H19.2C19.695 5 20.1189 5.1764 20.4717 5.5292C20.8239 5.8814 21 6.305 21 6.8V17.6C21 18.095 20.8239 18.5189 20.4717 18.8717C20.1189 19.2239 19.695 19.4 19.2 19.4H4.8ZM19.2 8.6L12.4725 12.8075C12.3975 12.8525 12.3186 12.8861 12.2358 12.9083C12.1536 12.9311 12.075 12.9425 12 12.9425C11.925 12.9425 11.8464 12.9311 11.7642 12.9083C11.6814 12.8861 11.6025 12.8525 11.5275 12.8075L4.8 8.6V17.6H19.2V8.6ZM12 11.3L19.2 6.8H4.8L12 11.3ZM4.8 8.6V8.825V7.4975V7.52V6.8V7.52V7.5083V8.825V8.6V17.6V8.6Z" fill="black"/>
</svg>
