<?xml version="1.0" encoding="UTF-8"?>
<svg width="24px" height="24px" viewBox="0 0 24 24" version="1.1" xmlns="http://www.w3.org/2000/svg" xmlns:xlink="http://www.w3.org/1999/xlink">
    <title>operations</title>
    <g id="Symbols" stroke="none" stroke-width="1"  fill-rule="evenodd">
        <g id="Component-/-icon-/-24px-/-operations" fill="#000000" fill-rule="nonzero">
            <path d="M8,11 C7.45762712,11 7,11.4576271 7,12 C7,12.559322 7.45762712,13 8,13 C8.55932203,13 9,12.5423729 9,12 C9,11.4576271 8.55932203,11 8,11 Z" id="Path"></path>
            <path d="M16,11 C15.440678,11 15,11.4576271 15,12 C15,12.559322 15.4576271,13 16,13 C16.5423729,13 17,12.559322 17,12 C17,11.4576271 16.5423729,11 16,11 Z" id="Path"></path>
            <path d="M12,11 C11.440678,11 11,11.4576271 11,12 C11,12.559322 11.4576271,13 12,13 C12.559322,13 13,12.5423729 13,12 C13,11.4576271 12.559322,11 12,11 Z" id="Path"></path>
            <path d="M21,14.5 L19.209141,14.5 L19.2367161,14.3690727 C19.3003341,14.0659642 19.343108,13.7363663 19.3674262,13.3613889 L19.3741571,13.2632477 C19.3826251,13.1414398 19.391093,13.0200661 19.391093,12.8960869 C19.391093,9.26139009 16.8009916,7.36372299 13.1964754,7.00611573 L13.1964754,9.23070892 L9.55456516,6.11025199 L13.1951726,3 L13.1964754,5.24131193 C17.7882656,5.60521586 21.1535084,8.28149841 21.1535084,12.896304 C21.1535084,12.9788121 21.1482974,13.0600174 21.1426521,13.1412227 C21.1393952,13.1883391 21.1363554,13.2356727 21.1344013,13.2830062 C21.1174654,13.670577 21.077297,14.0496797 21.0156331,14.4098925 L21,14.5 Z" id="Shape"></path>
            <path d="M10.8813405,21 L10.8802548,18.7647676 C6.23201175,18.4492829 3.0554155,15.7712633 3.0554155,11.1041302 C3.0554155,10.9946985 3.06258067,10.8870038 3.06996297,10.7793091 C3.07321986,10.7306727 3.07647676,10.6820364 3.07908228,10.6329658 C3.09797228,10.272753 3.13640366,9.9218767 3.19350792,9.59010748 L3.2089239,9.5 L5,9.5 L4.97242494,9.63114438 C4.90164172,9.96725612 4.85713079,10.3307258 4.83650378,10.7419633 L4.82890436,10.863337 C4.82347619,10.9430224 4.81804803,11.0229249 4.81804803,11.1041302 C4.81804803,14.7887661 7.21950285,16.6892559 10.8802548,17.0003981 L10.8802548,14.7449729 L14.5221651,17.8899651 L10.8813405,21 Z" id="Shape"></path>
        </g>
    </g>
</svg>