<svg width="24" height="24" viewBox="0 0 24 24" xmlns="http://www.w3.org/2000/svg">
<path d="M4.72971 18.8377C4.25404 18.8377 3.84698 18.6685 3.50853 18.33C3.16951 17.991 3 17.5836 3 17.108V6.72971C3 6.25404 3.16951 5.84698 3.50853 5.50853C3.84698 5.16951 4.25404 5 4.72971 5H9.20534C9.43596 5 9.65593 5.04324 9.86522 5.12973C10.0739 5.21621 10.2576 5.33873 10.4161 5.49729L11.6486 6.72971H18.5674C19.0431 6.72971 19.4504 6.89922 19.7894 7.23825C20.1279 7.57669 20.2971 7.98375 20.2971 8.45942H10.935L9.20534 6.72971H4.72971V17.108L6.4378 11.4215C6.55311 11.0468 6.76587 10.7475 7.07606 10.5238C7.38568 10.3007 7.72788 10.1891 8.10265 10.1891H19.2593C19.8503 10.1891 20.3153 10.4232 20.6543 10.8914C20.9927 11.3601 21.0827 11.8684 20.9241 12.4161L19.3674 17.6053C19.2521 17.98 19.0396 18.2793 18.73 18.503C18.4198 18.7261 18.0773 18.8377 17.7025 18.8377H4.72971ZM6.54591 17.108H17.7025L19.2593 11.9188H8.10265L6.54591 17.108Z" fill="black"/>
</svg>
