<?xml version="1.0" encoding="UTF-8"?>
<svg width="24px" height="24px" viewBox="0 0 24 24" version="1.1" xmlns="http://www.w3.org/2000/svg" xmlns:xlink="http://www.w3.org/1999/xlink">
    <!-- Generator: Sketch 53.1 (72631) - https://sketchapp.com -->
    <title>Artboard</title>
    <desc>Created with Sketch.</desc>
    <defs>
        <path d="M12.5532476,4 L12.4907335,3.94115526 L12.4457515,3.94115526 L12.5082655,4 L12.5532476,4 Z M16.3770861,10.0863841 L11,10.0863841 L11,4.94115526 L4.99984229,4.94115526 L4.99984229,19.0588447 L9.77851556,19.0588447 C10.3145508,19.0588447 10.7490932,19.4933871 10.7490932,20.0294224 C10.7490932,20.5654576 10.3145508,21 9.77851556,21 L4.24988172,21 C3.5661263,21 3,20.4671032 3,19.7941336 L3,4.20586644 C3,3.53289678 3.5661263,3 4.24988172,3 L13.2818101,3 L18,7.44124963 C18.240136,7.66729052 18.3769284,7.97815232 18.3769284,8.30444946 L18.3769284,10.7065708 C18.3769284,11.258812 17.9292484,11.706492 17.3770072,11.706492 C16.824766,11.706492 16.3770861,11.258812 16.3770861,10.7065708 L16.3770861,10.0863841 Z M15.4633328,7.75780623 L13.0586666,5.49428502 L13.0586666,7.75780623 L15.4633328,7.75780623 Z M19.9507242,16.941 L20.9268492,17.6835 C21.0147492,17.751 21.0378492,17.8725 20.9823492,17.9715 L20.0570742,19.5285 C20.0015742,19.6275 19.8812742,19.668 19.7749242,19.6275 L18.6229992,19.1775 C18.3823992,19.353 18.1233492,19.506 17.8411242,19.6185 L17.6653242,20.811 C17.6514492,20.919 17.5543242,21 17.4386742,21 L15.5881242,21 C15.4724742,21 15.3753492,20.919 15.3614742,20.811 L15.1856742,19.6185 C14.9034492,19.506 14.6443992,19.3575 14.4037992,19.1775 L13.2518742,19.6275 C13.1500992,19.6635 13.0252242,19.6275 12.9697242,19.5285 L12.0444492,17.9715 C11.9889492,17.8725 12.0120492,17.751 12.0999492,17.6835 L13.0760742,16.941 L13.0760742,16.059 L12.0999492,15.3165 C12.0120492,15.249 11.9842992,15.1275 12.0444492,15.0285 L12.9697242,13.4715 C13.0252242,13.3725 13.1455242,13.332 13.2518742,13.3725 L14.4037992,13.8225 C14.6443992,13.647 14.9034492,13.494 15.1856742,13.3815 L15.3614742,12.189 C15.3753492,12.081 15.4724742,12 15.5881242,12 L17.4386742,12 C17.5543242,12 17.6514492,12.081 17.6653242,12.189 L17.8411242,13.3815 C18.1233492,13.494 18.3823992,13.6425 18.6229992,13.8225 L19.7749242,13.3725 C19.8766992,13.3365 20.0015742,13.3725 20.0570742,13.4715 L20.9823492,15.0285 C21.0378492,15.1275 21.0147492,15.249 20.9268492,15.3165 L19.9507242,16.059 L19.9507242,16.941 Z M16.5133992,18.075 C17.4062742,18.075 18.1325742,17.3685 18.1325742,16.5 C18.1325742,15.6315 17.4062742,14.925 16.5133992,14.925 C15.6205242,14.925 14.8942242,15.6315 14.8942242,16.5 C14.8942242,17.3685 15.6205242,18.075 16.5133992,18.075 Z" id="path-1"></path>
    </defs>
    <g id="Artboard" stroke="none" stroke-width="1"  fill-rule="evenodd">
        <g id="Component-/-icon-/-24px-/-project-settings">
            <mask id="mask-2" fill="white">
                <use xlink:href="#path-1"></use>
            </mask>
            <use id="Mask" fill="#1A1A1A" xlink:href="#path-1"></use>
        </g>
    </g>
</svg>