<svg width="24" height="24" viewBox="0 0 24 24" xmlns="http://www.w3.org/2000/svg">
<mask id="mask0_6241_1357" style="mask-type:alpha" maskUnits="userSpaceOnUse" x="0" y="0" width="24" height="24">
<rect width="24" height="24" fill="#D9D9D9"/>
</mask>
<g mask="url(#mask0_6241_1357)">
<path d="M12 21C10.755 21 9.585 20.7637 8.49 20.2912C7.395 19.8187 6.4425 19.1775 5.6325 18.3675C4.8225 17.5575 4.18125 16.605 3.70875 15.51C3.23625 14.415 3 13.245 3 12C3 10.755 3.23625 9.585 3.70875 8.49C4.18125 7.395 4.8225 6.4425 5.6325 5.6325C6.4425 4.8225 7.395 4.18125 8.49 3.70875C9.585 3.23625 10.755 3 12 3C13.245 3 14.415 3.23625 15.51 3.70875C16.605 4.18125 17.5575 4.8225 18.3675 5.6325C19.1775 6.4425 19.8187 7.395 20.2912 8.49C20.7637 9.585 21 10.755 21 12C21 13.245 20.7637 14.415 20.2912 15.51C19.8187 16.605 19.1775 17.5575 18.3675 18.3675C17.5575 19.1775 16.605 19.8187 15.51 20.2912C14.415 20.7637 13.245 21 12 21ZM12 19.2C14.01 19.2 15.7125 18.5025 17.1075 17.1075C18.5025 15.7125 19.2 14.01 19.2 12C19.2 9.99 18.5025 8.2875 17.1075 6.8925C15.7125 5.4975 14.01 4.8 12 4.8C9.99 4.8 8.2875 5.4975 6.8925 6.8925C5.4975 8.2875 4.8 9.99 4.8 12C4.8 14.01 5.4975 15.7125 6.8925 17.1075C8.2875 18.5025 9.99 19.2 12 19.2ZM11.9775 18.3C12.1875 18.3 12.3713 18.2213 12.5288 18.0638C12.6863 17.9063 12.765 17.7225 12.765 17.5125V17.175C13.515 17.04 14.16 16.7475 14.7 16.2975C15.24 15.8475 15.51 15.18 15.51 14.295C15.51 13.665 15.33 13.0875 14.97 12.5625C14.61 12.0375 13.89 11.58 12.81 11.19C11.91 10.89 11.2875 10.6275 10.9425 10.4025C10.5975 10.1775 10.425 9.87 10.425 9.48C10.425 9.09 10.5638 8.7825 10.8413 8.5575C11.1188 8.3325 11.52 8.22 12.045 8.22C12.345 8.22 12.6075 8.2725 12.8325 8.3775C13.0575 8.4825 13.245 8.625 13.395 8.805C13.545 8.985 13.7137 9.10875 13.9012 9.17625C14.0887 9.24375 14.265 9.24 14.43 9.165C14.655 9.075 14.8088 8.92125 14.8913 8.70375C14.9738 8.48625 14.955 8.2875 14.835 8.1075C14.595 7.7625 14.2988 7.47 13.9463 7.23C13.5938 6.99 13.215 6.855 12.81 6.825V6.4875C12.81 6.2775 12.7312 6.09375 12.5737 5.93625C12.4162 5.77875 12.2325 5.7 12.0225 5.7C11.8125 5.7 11.6288 5.77875 11.4713 5.93625C11.3138 6.09375 11.235 6.2775 11.235 6.4875V6.825C10.485 6.99 9.9 7.32 9.48 7.815C9.06 8.31 8.85 8.865 8.85 9.48C8.85 10.185 9.05625 10.755 9.46875 11.19C9.88125 11.625 10.53 12 11.415 12.315C12.36 12.66 13.0163 12.9675 13.3838 13.2375C13.7513 13.5075 13.935 13.86 13.935 14.295C13.935 14.79 13.7587 15.1537 13.4062 15.3862C13.0537 15.6187 12.63 15.735 12.135 15.735C11.745 15.735 11.3925 15.6413 11.0775 15.4538C10.7625 15.2663 10.5 14.985 10.29 14.61C10.17 14.4 10.0125 14.2575 9.8175 14.1825C9.6225 14.1075 9.4275 14.1075 9.2325 14.1825C9.0225 14.2575 8.86875 14.4 8.77125 14.61C8.67375 14.82 8.67 15.0225 8.76 15.2175C9 15.7275 9.3225 16.1438 9.7275 16.4663C10.1325 16.7888 10.62 17.01 11.19 17.13V17.5125C11.19 17.7225 11.2687 17.9063 11.4262 18.0638C11.5837 18.2213 11.7675 18.3 11.9775 18.3Z" fill="#1A1A1A"/>
</g>
</svg>
