<svg width="24" height="24" viewBox="0 0 24 24" xmlns="http://www.w3.org/2000/svg">
<path d="M6 22C5.16667 22 4.45833 21.7083 3.875 21.125C3.29167 20.5416 3 19.8333 3 19V17C3 16.7166 3.096 16.4793 3.288 16.288C3.47933 16.096 3.71667 16 4 16H6V2.72495C6 2.57495 6.06667 2.48328 6.2 2.44995C6.33333 2.41662 6.46667 2.46662 6.6 2.59995L7.5 3.49995L8.65 2.34995C8.75 2.24995 8.86667 2.19995 9 2.19995C9.13333 2.19995 9.25 2.24995 9.35 2.34995L10.5 3.49995L11.65 2.34995C11.75 2.24995 11.8667 2.19995 12 2.19995C12.1333 2.19995 12.25 2.24995 12.35 2.34995L13.5 3.49995L14.65 2.34995C14.75 2.24995 14.8667 2.19995 15 2.19995C15.1333 2.19995 15.25 2.24995 15.35 2.34995L16.5 3.49995L17.65 2.34995C17.75 2.24995 17.8667 2.19995 18 2.19995C18.1333 2.19995 18.25 2.24995 18.35 2.34995L19.5 3.49995L20.4 2.59995C20.5333 2.46662 20.6667 2.41228 20.8 2.43695C20.9333 2.46228 21 2.55828 21 2.72495V19C21 19.8333 20.7083 20.5416 20.125 21.125C19.5417 21.7083 18.8333 22 18 22H6ZM18 20C18.2833 20 18.5207 19.9039 18.712 19.712C18.904 19.5206 19 19.2833 19 19V4.99995H8V16H16C16.2833 16 16.5207 16.096 16.712 16.288C16.904 16.4793 17 16.7166 17 17V19C17 19.2833 17.096 19.5206 17.288 19.712C17.4793 19.9039 17.7167 20 18 20ZM9.975 8.99995C9.69167 8.99995 9.45833 8.90395 9.275 8.71195C9.09167 8.52062 9 8.28328 9 7.99995C9 7.71662 9.096 7.47895 9.288 7.28695C9.47933 7.09562 9.71667 6.99995 10 6.99995H14C14.2833 6.99995 14.521 7.09562 14.713 7.28695C14.9043 7.47895 15 7.71662 15 7.99995C15 8.28328 14.9043 8.52062 14.713 8.71195C14.521 8.90395 14.2833 8.99995 14 8.99995H9.975ZM9.975 12C9.69167 12 9.45833 11.904 9.275 11.712C9.09167 11.5206 9 11.2833 9 11C9 10.7166 9.096 10.479 9.288 10.287C9.47933 10.0956 9.71667 9.99995 10 9.99995H14C14.2833 9.99995 14.521 10.0956 14.713 10.287C14.9043 10.479 15 10.7166 15 11C15 11.2833 14.9043 11.5206 14.713 11.712C14.521 11.904 14.2833 12 14 12H9.975ZM17 8.99995C16.7167 8.99995 16.4793 8.90395 16.288 8.71195C16.096 8.52062 16 8.28328 16 7.99995C16 7.71662 16.096 7.47895 16.288 7.28695C16.4793 7.09562 16.7167 6.99995 17 6.99995C17.2833 6.99995 17.5207 7.09562 17.712 7.28695C17.904 7.47895 18 7.71662 18 7.99995C18 8.28328 17.904 8.52062 17.712 8.71195C17.5207 8.90395 17.2833 8.99995 17 8.99995ZM17 12C16.7167 12 16.4793 11.904 16.288 11.712C16.096 11.5206 16 11.2833 16 11C16 10.7166 16.096 10.479 16.288 10.287C16.4793 10.0956 16.7167 9.99995 17 9.99995C17.2833 9.99995 17.5207 10.0956 17.712 10.287C17.904 10.479 18 10.7166 18 11C18 11.2833 17.904 11.5206 17.712 11.712C17.5207 11.904 17.2833 12 17 12ZM6 20H15V18H5V19C5 19.2833 5.09567 19.5206 5.287 19.712C5.479 19.9039 5.71667 20 6 20ZM5 20V18V20Z" fill="black"/>
</svg>
