<svg width="24" height="24" viewBox="0 0 24 24" xmlns="http://www.w3.org/2000/svg">
<path d="M5.84849 21.8C5.05724 21.8 4.38468 21.5231 3.83081 20.9692C3.27694 20.4153 3 19.7428 3 18.9515V17.0525C3 16.7835 3.09115 16.5582 3.27345 16.3765C3.45512 16.1942 3.68047 16.103 3.9495 16.103H5.84849V3.49848C5.84849 3.35606 5.91178 3.26902 6.03838 3.23737C6.16498 3.20572 6.29158 3.2532 6.41818 3.3798L7.27273 4.23434L8.36465 3.14242C8.4596 3.04747 8.57037 3 8.69697 3C8.82357 3 8.93434 3.04747 9.02929 3.14242L10.1212 4.23434L11.2131 3.14242C11.3081 3.04747 11.4189 3 11.5455 3C11.6721 3 11.7828 3.04747 11.8778 3.14242L12.9697 4.23434L14.0616 3.14242C14.1566 3.04747 14.2673 3 14.3939 3C14.5205 3 14.6313 3.04747 14.7263 3.14242L15.8182 4.23434L16.9101 3.14242C17.0051 3.04747 17.1158 3 17.2424 3C17.369 3 17.4798 3.04747 17.5747 3.14242L18.6667 4.23434L19.5212 3.3798C19.6478 3.2532 19.7744 3.20161 19.901 3.22503C20.0276 3.24908 20.0909 3.34024 20.0909 3.49848V18.9515C20.0909 19.7428 19.814 20.4153 19.2601 20.9692C18.7062 21.5231 18.0337 21.8 17.2424 21.8H5.84849ZM17.2424 19.901C17.5114 19.901 17.7368 19.8099 17.9185 19.6276C18.1008 19.4459 18.1919 19.2205 18.1919 18.9515V5.65859H7.74748V16.103H15.3434C15.6125 16.103 15.8378 16.1942 16.0195 16.3765C16.2018 16.5582 16.2929 16.7835 16.2929 17.0525V18.9515C16.2929 19.2205 16.3841 19.4459 16.5664 19.6276C16.7481 19.8099 16.9734 19.901 17.2424 19.901ZM9.62273 9.45657C9.3537 9.45657 9.13215 9.36541 8.95808 9.18311C8.78401 9.00144 8.69697 8.77609 8.69697 8.50707C8.69697 8.23805 8.78812 8.01238 8.97042 7.83008C9.15209 7.64841 9.37744 7.55758 9.64647 7.55758H13.4444C13.7135 7.55758 13.9391 7.64841 14.1214 7.83008C14.3031 8.01238 14.3939 8.23805 14.3939 8.50707C14.3939 8.77609 14.3031 9.00144 14.1214 9.18311C13.9391 9.36541 13.7135 9.45657 13.4444 9.45657H9.62273ZM9.62273 12.3051C9.3537 12.3051 9.13215 12.2139 8.95808 12.0316C8.78401 11.8499 8.69697 11.6246 8.69697 11.3556C8.69697 11.0865 8.78812 10.8609 8.97042 10.6786C9.15209 10.4969 9.37744 10.4061 9.64647 10.4061H13.4444C13.7135 10.4061 13.9391 10.4969 14.1214 10.6786C14.3031 10.8609 14.3939 11.0865 14.3939 11.3556C14.3939 11.6246 14.3031 11.8499 14.1214 12.0316C13.9391 12.2139 13.7135 12.3051 13.4444 12.3051H9.62273ZM16.2929 9.45657C16.0239 9.45657 15.7986 9.36541 15.6169 9.18311C15.4346 9.00144 15.3434 8.77609 15.3434 8.50707C15.3434 8.23805 15.4346 8.01238 15.6169 7.83008C15.7986 7.64841 16.0239 7.55758 16.2929 7.55758C16.562 7.55758 16.7873 7.64841 16.969 7.83008C17.1513 8.01238 17.2424 8.23805 17.2424 8.50707C17.2424 8.77609 17.1513 9.00144 16.969 9.18311C16.7873 9.36541 16.562 9.45657 16.2929 9.45657ZM16.2929 12.3051C16.0239 12.3051 15.7986 12.2139 15.6169 12.0316C15.4346 11.8499 15.3434 11.6246 15.3434 11.3556C15.3434 11.0865 15.4346 10.8609 15.6169 10.6786C15.7986 10.4969 16.0239 10.4061 16.2929 10.4061C16.562 10.4061 16.7873 10.4969 16.969 10.6786C17.1513 10.8609 17.2424 11.0865 17.2424 11.3556C17.2424 11.6246 17.1513 11.8499 16.969 12.0316C16.7873 12.2139 16.562 12.3051 16.2929 12.3051ZM5.84849 19.901H14.3939V18.002H4.89899V18.9515C4.89899 19.2205 4.98983 19.4459 5.1715 19.6276C5.3538 19.8099 5.57946 19.901 5.84849 19.901ZM4.89899 19.901V18.002V19.901Z" fill="black"/>
</svg>
