<svg width="24" height="24" viewBox="0 0 24 24" xmlns="http://www.w3.org/2000/svg">
<path d="M11.95 21C10.57 21 9.4 20.52 8.44 19.56C7.48 18.6 7 17.43 7 16.05V6.6C7 5.61 7.3525 4.7625 8.0575 4.0575C8.7625 3.3525 9.61 3 10.6 3C11.59 3 12.4375 3.3525 13.1425 4.0575C13.8475 4.7625 14.2 5.61 14.2 6.6V15.15C14.2 15.78 13.9825 16.3125 13.5475 16.7475C13.1125 17.1825 12.58 17.4 11.95 17.4C11.32 17.4 10.7875 17.1825 10.3525 16.7475C9.9175 16.3125 9.7 15.78 9.7 15.15V7.275C9.7 7.08 9.7639 6.9189 9.8917 6.7917C10.0189 6.6639 10.18 6.6 10.375 6.6C10.57 6.6 10.7314 6.6639 10.8592 6.7917C10.9864 6.9189 11.05 7.08 11.05 7.275V15.15C11.05 15.405 11.1364 15.6186 11.3092 15.7908C11.4814 15.9636 11.695 16.05 11.95 16.05C12.205 16.05 12.4189 15.9636 12.5917 15.7908C12.7639 15.6186 12.85 15.405 12.85 15.15V6.6C12.85 5.97 12.6325 5.4375 12.1975 5.0025C11.7625 4.5675 11.23 4.35 10.6 4.35C9.97 4.35 9.4375 4.5675 9.0025 5.0025C8.5675 5.4375 8.35 5.97 8.35 6.6V16.05C8.35 17.04 8.7025 17.8875 9.4075 18.5925C10.1125 19.2975 10.96 19.65 11.95 19.65C12.94 19.65 13.7875 19.2975 14.4925 18.5925C15.1975 17.8875 15.55 17.04 15.55 16.05V7.275C15.55 7.08 15.6139 6.9189 15.7417 6.7917C15.8689 6.6639 16.03 6.6 16.225 6.6C16.42 6.6 16.5814 6.6639 16.7092 6.7917C16.8364 6.9189 16.9 7.08 16.9 7.275V16.05C16.9 17.43 16.42 18.6 15.46 19.56C14.5 20.52 13.33 21 11.95 21Z" fill="black"/>
</svg>
