<?xml version="1.0" encoding="UTF-8"?>
<svg width="18px" height="18px" viewBox="0 0 18 18" version="1.1" xmlns="http://www.w3.org/2000/svg" xmlns:xlink="http://www.w3.org/1999/xlink">
    <!-- Generator: Sketch 54.1 (76490) - https://sketchapp.com -->
    <title>pin-settings</title>
    <desc>Created with Sketch.</desc>
    <defs>
        <path d="M19.9383473,16.5409932 L20.914471,17.2834922 C21.0023709,17.3509921 21.0254708,17.472492 20.9699709,17.5714918 L20.0446972,19.1284897 C19.9891973,19.2274896 19.8688974,19.2679895 19.7625476,19.2274896 L18.6106242,18.7774902 C18.3700245,18.9529899 18.1109748,19.1059897 17.8287502,19.2184896 L17.6529505,20.4109879 C17.6390755,20.5189878 17.5419506,20.5999877 17.4263008,20.5999877 L15.5757533,20.5999877 C15.4601035,20.5999877 15.3629786,20.5189878 15.3491036,20.4109879 L15.1733039,19.2184896 C14.8910792,19.1059897 14.6320296,18.9574899 14.3914299,18.7774902 L13.2395065,19.2274896 C13.1377316,19.2634895 13.0128568,19.2274896 12.9573569,19.1284897 L12.0320832,17.5714918 C11.9765832,17.472492 11.9996832,17.3509921 12.0875831,17.2834922 L13.0637068,16.5409932 L13.0637068,15.6589944 L12.0875831,14.9164955 C11.9996832,14.8489956 11.9719332,14.7274957 12.0320832,14.6284959 L12.9573569,13.071498 C13.0128568,12.9724981 13.1331567,12.9319982 13.2395065,12.9724981 L14.3914299,13.4224975 C14.6320296,13.2469977 14.8910792,13.093998 15.1733039,12.9814981 L15.3491036,11.7889997 C15.3629786,11.6809999 15.4601035,11.6 15.5757533,11.6 L17.4263008,11.6 C17.5419506,11.6 17.6390755,11.6809999 17.6529505,11.7889997 L17.8287502,12.9814981 C18.1109748,13.093998 18.3700245,13.2424978 18.6106242,13.4224975 L19.7625476,12.9724981 C19.8643224,12.9364982 19.9891973,12.9724981 20.0446972,13.071498 L20.9699709,14.6284959 C21.0254708,14.7274957 21.0023709,14.8489956 20.914471,14.9164955 L19.9383473,15.6589944 L19.9383473,16.5409932 Z M16.501027,17.6749917 C17.3939008,17.6749917 18.1201998,16.9684926 18.1201998,16.0999938 C18.1201998,15.231495 17.3939008,14.524996 16.501027,14.524996 C15.6081533,14.524996 14.8818543,15.231495 14.8818543,16.0999938 C14.8818543,16.9684926 15.6081533,17.6749917 16.501027,17.6749917 Z" id="path-1"></path>
    </defs>
    <g id="Table-manager" stroke="none" stroke-width="1" fill="none" fill-rule="evenodd">
        <g id="pin-settings" transform="translate(-3.000000, -3.000000)">
            <g id="Component-/-icon-/-12px-/-screen-gear--">
                <mask id="mask-2" fill="white">
                    <use xlink:href="#path-1"></use>
                </mask>
                <use id="shape" fill="#1A1A1A" xlink:href="#path-1"></use>
            </g>
            <path d="M9.90919843,14.7324408 L9.90919843,21.2540727 L8.19184969,21.2540727 L8.19184969,14.7324408 L4.03980345,14.7324408 C4.31273185,13.6104396 4.83807288,13.049439 5.61582657,13.049439 C5.61779733,13.0495156 5.61779733,10.7353882 5.61582657,6.10705674 C4.4709274,6.01369427 3.89847782,5.45269368 3.89847782,4.42405497 C3.89617783,4.42251588 7.31896121,4.42251588 14.166828,4.42405497 C14.0277612,5.54605615 13.4672257,6.10705674 12.4852216,6.10705674 C12.4877456,6.10736975 12.4877456,7.09542286 12.4852216,9.07121608 L10.7843409,9.07121608 L10.7843409,6.10705674 L7.33317531,6.10705674 L7.33317531,13.049439 L9.90919843,13.049439 L12,13.049439 C12,14.1714402 12,14.7324408 12,14.7324408 C12,14.7324408 11.3030661,14.7324408 9.90919843,14.7324408 Z" id="Path-2" fill="#1A1A1A" transform="translate(9.032652, 12.838487) rotate(35.000000) translate(-9.032652, -12.838487) "></path>
        </g>
    </g>
</svg>