<?xml version="1.0" encoding="UTF-8"?>
<svg width="24px" height="24px" viewBox="0 0 24 24" version="1.1" xmlns="http://www.w3.org/2000/svg" xmlns:xlink="http://www.w3.org/1999/xlink">
    <!-- Generator: Sketch 52.2 (67145) - http://www.bohemiancoding.com/sketch -->
    <title>Plugin</title>
    <desc>Created with Sketch.</desc>
    <defs>
        <path d="M21.1697866,11.422889 C20.913413,10.549329 20.1106649,9.95026323 19.2002658,9.95309738 C18.8851912,9.95488178 18.5742648,10.025091 18.288995,10.1588682 C18.1561895,10.210533 18.0064006,10.1929108 17.8892117,10.1118349 C17.7850078,10.0372445 17.7236019,9.91662588 17.724595,9.78848071 L17.724595,4.95580575 C17.7138958,4.84690056 17.6277294,4.76073415 17.5188242,4.75003492 L3.45585761,4.75003492 C3.34587531,4.75842351 3.25847536,4.84582345 3.25008677,4.95580575 L3.25008677,9.78848071 C3.24968004,9.88395006 3.29858393,9.97286622 3.37942844,10.0236474 C3.43098254,10.0582855 3.49837018,10.0582855 3.54992427,10.0236474 C3.86204868,9.86839687 4.2066882,9.78979487 4.55526177,9.79435988 C5.77612401,9.79435988 6.76582842,10.7840643 6.76582842,12.0049265 C6.76582842,13.2257888 5.77612401,14.2154932 4.55526177,14.2154932 C4.21128531,14.2126514 3.87212022,14.1343825 3.56168261,13.9862057 C3.48559103,13.9655521 3.40430056,13.9783874 3.33827427,14.0214807 C3.28067422,14.0640154 3.24769525,14.1321719 3.25008677,14.2037348 L3.25008677,19.0364098 C3.25847536,19.1463921 3.34587531,19.2337921 3.45585761,19.2421806 L8.28853257,19.2421806 C8.35910278,19.2412935 8.42485662,19.2062248 8.46490757,19.148114 C8.51219842,19.0815372 8.52527505,18.9965391 8.50018257,18.9188265 C8.34511423,18.6150442 8.26641449,18.2780479 8.27089507,17.9370057 C8.26989138,17.251509 8.58696393,16.6043335 9.1292534,16.185014 C9.52223156,15.8779265 10.0062479,15.7103824 10.5049784,15.7088015 C10.7036031,15.7059292 10.9016067,15.7316696 11.092895,15.7852307 C12.0432952,16.0600459 12.6975831,16.9300332 12.6979075,17.9193682 C12.6950657,18.2633446 12.6167969,18.6025097 12.46862,18.9129473 C12.4446049,18.9869024 12.4577397,19.0679004 12.503895,19.1304765 C12.543946,19.1885873 12.6096998,19.223656 12.68027,19.2245431 L17.5188242,19.2245431 C17.6277294,19.2138439 17.7138958,19.1276775 17.724595,19.0187723 L17.724595,14.1860973 C17.7216843,14.0254211 17.8075847,13.8762257 17.9480033,13.7980724 C18.0560727,13.7311791 18.1926839,13.7311791 18.3007533,13.7980724 C18.57952,13.9384471 18.8881942,14.0090588 19.2002658,14.0038432 C19.8387126,13.9989373 20.438714,13.6979477 20.8243672,13.1891157 C21.2100204,12.6802838 21.3376307,12.0212602 21.1697866,11.4052515 L21.1697866,11.422889 Z" id="path-1"></path>
        <path d="M21.1697866,11.422889 C20.913413,10.549329 20.1106649,9.95026323 19.2002658,9.95309738 C18.8851912,9.95488178 18.5742648,10.025091 18.288995,10.1588682 C18.1561895,10.210533 18.0064006,10.1929108 17.8892117,10.1118349 C17.7850078,10.0372445 17.7236019,9.91662588 17.724595,9.78848071 L17.724595,4.95580575 C17.7138958,4.84690056 17.6277294,4.76073415 17.5188242,4.75003492 L3.45585761,4.75003492 C3.34587531,4.75842351 3.25847536,4.84582345 3.25008677,4.95580575 L3.25008677,9.78848071 C3.24968004,9.88395006 3.29858393,9.97286622 3.37942844,10.0236474 C3.43098254,10.0582855 3.49837018,10.0582855 3.54992427,10.0236474 C3.86204868,9.86839687 4.2066882,9.78979487 4.55526177,9.79435988 C5.77612401,9.79435988 6.76582842,10.7840643 6.76582842,12.0049265 C6.76582842,13.2257888 5.77612401,14.2154932 4.55526177,14.2154932 C4.21128531,14.2126514 3.87212022,14.1343825 3.56168261,13.9862057 C3.48559103,13.9655521 3.40430056,13.9783874 3.33827427,14.0214807 C3.28067422,14.0640154 3.24769525,14.1321719 3.25008677,14.2037348 L3.25008677,19.0364098 C3.25847536,19.1463921 3.34587531,19.2337921 3.45585761,19.2421806 L8.28853257,19.2421806 C8.35910278,19.2412935 8.42485662,19.2062248 8.46490757,19.148114 C8.51219842,19.0815372 8.52527505,18.9965391 8.50018257,18.9188265 C8.34511423,18.6150442 8.26641449,18.2780479 8.27089507,17.9370057 C8.26989138,17.251509 8.58696393,16.6043335 9.1292534,16.185014 C9.52223156,15.8779265 10.0062479,15.7103824 10.5049784,15.7088015 C10.7036031,15.7059292 10.9016067,15.7316696 11.092895,15.7852307 C12.0432952,16.0600459 12.6975831,16.9300332 12.6979075,17.9193682 C12.6950657,18.2633446 12.6167969,18.6025097 12.46862,18.9129473 C12.4446049,18.9869024 12.4577397,19.0679004 12.503895,19.1304765 C12.543946,19.1885873 12.6096998,19.223656 12.68027,19.2245431 L17.5188242,19.2245431 C17.6277294,19.2138439 17.7138958,19.1276775 17.724595,19.0187723 L17.724595,14.1860973 C17.7216843,14.0254211 17.8075847,13.8762257 17.9480033,13.7980724 C18.0560727,13.7311791 18.1926839,13.7311791 18.3007533,13.7980724 C18.57952,13.9384471 18.8881942,14.0090588 19.2002658,14.0038432 C19.8387126,13.9989373 20.438714,13.6979477 20.8243672,13.1891157 C21.2100204,12.6802838 21.3376307,12.0212602 21.1697866,11.4052515 L21.1697866,11.422889 Z" id="path-3"></path>
    </defs>
    <g id="Symbols" stroke="none" stroke-width="1" fill="none" fill-rule="evenodd">
        <g id="plugin---Icon">
            <g id="Component-/-icon-/-24px-/-plugin">
                <mask id="mask-2" fill="white">
                    <use xlink:href="#path-1"></use>
                </mask>
                <use id="Mask" fill="#000000" fill-rule="nonzero" transform="translate(12.246073, 11.996108) rotate(-90.000000) translate(-12.246073, -11.996108) " xlink:href="#path-1"></use>
                <g id="Color" mask="url(#mask-2)">
                    <g transform="translate(14.000000, 23.000000)"></g>
                </g>
            </g>
            <g id="Component-/-icon-/-24px-/-plugin">
                <mask id="mask-4" fill="white">
                    <use xlink:href="#path-3"></use>
                </mask>
                <use id="Mask" fill="#000000" fill-rule="nonzero" transform="translate(12.246073, 11.996108) rotate(-90.000000) translate(-12.246073, -11.996108) " xlink:href="#path-3"></use>
                <g id="Color" mask="url(#mask-4)">
                    <g transform="translate(14.000000, 23.000000)"></g>
                </g>
            </g>
        </g>
    </g>
</svg>