<svg width="24" height="24" viewBox="0 0 24 24" xmlns="http://www.w3.org/2000/svg">
<path d="M8.35385 20.5H4.84615C4.33846 20.5 3.90369 20.3194 3.54185 19.9582C3.18062 19.5963 3 19.1615 3 18.6538V15.1462C3.73846 15.1462 4.38462 14.9117 4.93846 14.4428C5.49231 13.9732 5.76923 13.3769 5.76923 12.6538C5.76923 11.9308 5.49231 11.3345 4.93846 10.8649C4.38462 10.396 3.73846 10.1615 3 10.1615V6.65385C3 6.14615 3.18062 5.71169 3.54185 5.35046C3.90369 4.98862 4.33846 4.80769 4.84615 4.80769H8.53846C8.53846 4.16154 8.76154 3.61538 9.20769 3.16923C9.65385 2.72308 10.2 2.5 10.8462 2.5C11.4923 2.5 12.0385 2.72308 12.4846 3.16923C12.9308 3.61538 13.1538 4.16154 13.1538 4.80769H16.8462C17.3538 4.80769 17.7886 4.98862 18.1505 5.35046C18.5117 5.71169 18.6923 6.14615 18.6923 6.65385V10.3462C19.3385 10.3462 19.8846 10.5692 20.3308 11.0154C20.7769 11.4615 21 12.0077 21 12.6538C21 13.3 20.7769 13.8462 20.3308 14.2923C19.8846 14.7385 19.3385 14.9615 18.6923 14.9615V18.6538C18.6923 19.1615 18.5117 19.5963 18.1505 19.9582C17.7886 20.3194 17.3538 20.5 16.8462 20.5H13.3385C13.3385 19.7308 13.0963 19.0769 12.612 18.5385C12.1271 18 11.5385 17.7308 10.8462 17.7308C10.1538 17.7308 9.56554 18 9.08123 18.5385C8.59631 19.0769 8.35385 19.7308 8.35385 20.5ZM4.84615 18.6538H6.80769C7.17692 17.6385 7.76923 16.9231 8.58462 16.5077C9.4 16.0923 10.1538 15.8846 10.8462 15.8846C11.5385 15.8846 12.2923 16.0923 13.1077 16.5077C13.9231 16.9231 14.5154 17.6385 14.8846 18.6538H16.8462V13.1154H18.6923C18.8154 13.1154 18.9231 13.0692 19.0154 12.9769C19.1077 12.8846 19.1538 12.7769 19.1538 12.6538C19.1538 12.5308 19.1077 12.4231 19.0154 12.3308C18.9231 12.2385 18.8154 12.1923 18.6923 12.1923H16.8462V6.65385H11.3077V4.80769C11.3077 4.68462 11.2615 4.57692 11.1692 4.48462C11.0769 4.39231 10.9692 4.34615 10.8462 4.34615C10.7231 4.34615 10.6154 4.39231 10.5231 4.48462C10.4308 4.57692 10.3846 4.68462 10.3846 4.80769V6.65385H4.84615V8.68462C5.67692 8.99231 6.34615 9.50769 6.85385 10.2308C7.36154 10.9538 7.61538 11.7615 7.61538 12.6538C7.61538 13.5308 7.36154 14.3308 6.85385 15.0538C6.34615 15.7769 5.67692 16.3 4.84615 16.6231V18.6538Z" fill="black"/>
</svg>
