<svg width="24" height="24" viewBox="0 0 24 24" xmlns="http://www.w3.org/2000/svg">
<path d="M12 20C11.6762 20 11.405 19.8903 11.1863 19.6709C10.9669 19.4522 10.8571 19.181 10.8571 18.8571V13.1429H5.14286C4.81905 13.1429 4.54743 13.0331 4.328 12.8137C4.10933 12.595 4 12.3238 4 12C4 11.6762 4.10933 11.4046 4.328 11.1851C4.54743 10.9665 4.81905 10.8571 5.14286 10.8571H10.8571V5.14286C10.8571 4.81905 10.9669 4.54743 11.1863 4.328C11.405 4.10933 11.6762 4 12 4C12.3238 4 12.5954 4.10933 12.8149 4.328C13.0335 4.54743 13.1429 4.81905 13.1429 5.14286V10.8571H18.8571C19.181 10.8571 19.4522 10.9665 19.6709 11.1851C19.8903 11.4046 20 11.6762 20 12C20 12.3238 19.8903 12.595 19.6709 12.8137C19.4522 13.0331 19.181 13.1429 18.8571 13.1429H13.1429V18.8571C13.1429 19.181 13.0335 19.4522 12.8149 19.6709C12.5954 19.8903 12.3238 20 12 20Z" fill="black"/>
</svg>
