<svg width="24" height="24" viewBox="0 0 24 24" fill="none" xmlns="http://www.w3.org/2000/svg">
<path d="M12.4822 21.5C10.3972 20.975 8.67598 19.7788 7.31848 17.9113C5.96098 16.0438 5.28223 13.97 5.28223 11.69V6.2L12.4822 3.5L19.6822 6.2V11.69C19.6822 12.965 19.4647 14.1913 19.0297 15.3688C18.5947 16.5463 17.9722 17.585 17.1622 18.485L14.2822 15.605C14.0122 15.77 13.7235 15.8938 13.416 15.9763C13.1085 16.0588 12.7972 16.1 12.4822 16.1C11.4922 16.1 10.6447 15.7475 9.93973 15.0425C9.23473 14.3375 8.88223 13.49 8.88223 12.5C8.88223 11.51 9.23473 10.6625 9.93973 9.9575C10.6447 9.2525 11.4922 8.9 12.4822 8.9C13.4722 8.9 14.3197 9.2525 15.0247 9.9575C15.7297 10.6625 16.0822 11.51 16.0822 12.5C16.0822 12.83 16.041 13.1488 15.9585 13.4563C15.876 13.7638 15.7522 14.06 15.5872 14.345L16.9372 15.695C17.2372 15.08 17.4697 14.435 17.6347 13.76C17.7997 13.085 17.8822 12.395 17.8822 11.69V7.4375L12.4822 5.4125L7.08223 7.4375V11.69C7.08223 13.505 7.59223 15.155 8.61223 16.64C9.63223 18.125 10.9222 19.115 12.4822 19.61C12.8722 19.49 13.2435 19.3363 13.596 19.1488C13.9485 18.9613 14.2972 18.74 14.6422 18.485L15.9022 19.745C15.4072 20.15 14.871 20.5025 14.2935 20.8025C13.716 21.1025 13.1122 21.335 12.4822 21.5ZM12.4822 14.3C12.9772 14.3 13.401 14.1238 13.7535 13.7713C14.106 13.4188 14.2822 12.995 14.2822 12.5C14.2822 12.005 14.106 11.5813 13.7535 11.2288C13.401 10.8763 12.9772 10.7 12.4822 10.7C11.9872 10.7 11.5635 10.8763 11.211 11.2288C10.8585 11.5813 10.6822 12.005 10.6822 12.5C10.6822 12.995 10.8585 13.4188 11.211 13.7713C11.5635 14.1238 11.9872 14.3 12.4822 14.3Z" fill="#1A1A1A"/>
</svg>
