<svg width="24" height="24" viewBox="0 0 24 24" xmlns="http://www.w3.org/2000/svg">
<path d="M12 21C9.4875 21 7.35937 20.1281 5.61562 18.3844C3.87187 16.6406 3 14.5125 3 12C3 9.4875 3.87187 7.35937 5.61562 5.61562C7.35937 3.87187 9.4875 3 12 3C13.2937 3 14.5313 3.26737 15.7125 3.80212C16.8938 4.33612 17.9062 5.1 18.75 6.09375V4.125C18.75 3.80625 18.858 3.53888 19.074 3.32288C19.2893 3.10763 19.5563 3 19.875 3C20.1937 3 20.4607 3.10763 20.676 3.32288C20.892 3.53888 21 3.80625 21 4.125V9.75C21 10.0687 20.892 10.3357 20.676 10.551C20.4607 10.767 20.1937 10.875 19.875 10.875H14.25C13.9313 10.875 13.6643 10.767 13.449 10.551C13.233 10.3357 13.125 10.0687 13.125 9.75C13.125 9.43125 13.233 9.16387 13.449 8.94787C13.6643 8.73262 13.9313 8.625 14.25 8.625H17.85C17.25 7.575 16.4299 6.75 15.3896 6.15C14.3486 5.55 13.2188 5.25 12 5.25C10.125 5.25 8.53125 5.90625 7.21875 7.21875C5.90625 8.53125 5.25 10.125 5.25 12C5.25 13.875 5.90625 15.4688 7.21875 16.7812C8.53125 18.0937 10.125 18.75 12 18.75C13.2937 18.75 14.4892 18.4076 15.5865 17.7229C16.683 17.0389 17.5031 16.125 18.0469 14.9812C18.1406 14.775 18.2955 14.6017 18.5115 14.4615C18.7268 14.3205 18.9469 14.25 19.1719 14.25C19.6031 14.25 19.9268 14.4 20.1428 14.7C20.358 15 20.3812 15.3375 20.2125 15.7125C19.5 17.3063 18.4031 18.5857 16.9219 19.551C15.4406 20.517 13.8 21 12 21Z" fill="black"/>
</svg>
