<svg width="24" height="24" viewBox="0 0 24 24" fill="none" xmlns="http://www.w3.org/2000/svg">
<path d="M13 11.6L15.5 14.1C15.6833 14.2833 15.775 14.5167 15.775 14.8C15.775 15.0833 15.6833 15.3167 15.5 15.5C15.3167 15.6833 15.0833 15.775 14.8 15.775C14.5167 15.775 14.2833 15.6833 14.1 15.5L11.3 12.7C11.2 12.6 11.125 12.4873 11.075 12.362C11.025 12.2373 11 12.1083 11 11.975V8C11 7.71667 11.096 7.479 11.288 7.287C11.4793 7.09567 11.7167 7 12 7C12.2833 7 12.521 7.09567 12.713 7.287C12.9043 7.479 13 7.71667 13 8V11.6ZM12 21C9.98333 21 8.175 20.404 6.575 19.212C4.975 18.0207 3.9 16.4667 3.35 14.55C3.26667 14.25 3.296 13.9667 3.438 13.7C3.57933 13.4333 3.8 13.2667 4.1 13.2C4.38333 13.1333 4.63767 13.1957 4.863 13.387C5.08767 13.579 5.24167 13.8167 5.325 14.1C5.75833 15.5667 6.596 16.75 7.838 17.65C9.07933 18.55 10.4667 19 12 19C13.95 19 15.604 18.3207 16.962 16.962C18.3207 15.604 19 13.95 19 12C19 10.05 18.3207 8.39567 16.962 7.037C15.604 5.679 13.95 5 12 5C10.85 5 9.775 5.26667 8.775 5.8C7.775 6.33333 6.93333 7.06667 6.25 8H8C8.28333 8 8.521 8.09567 8.713 8.287C8.90433 8.479 9 8.71667 9 9C9 9.28333 8.90433 9.52067 8.713 9.712C8.521 9.904 8.28333 10 8 10H4C3.71667 10 3.47933 9.904 3.288 9.712C3.096 9.52067 3 9.28333 3 9V5C3 4.71667 3.096 4.479 3.288 4.287C3.47933 4.09567 3.71667 4 4 4C4.28333 4 4.521 4.09567 4.713 4.287C4.90433 4.479 5 4.71667 5 5V6.35C5.85 5.28333 6.88767 4.45833 8.113 3.875C9.33767 3.29167 10.6333 3 12 3C13.25 3 14.421 3.23733 15.513 3.712C16.6043 4.18733 17.5543 4.829 18.363 5.637C19.171 6.44567 19.8127 7.39567 20.288 8.487C20.7627 9.579 21 10.75 21 12C21 13.25 20.7627 14.4207 20.288 15.512C19.8127 16.604 19.171 17.554 18.363 18.362C17.5543 19.1707 16.6043 19.8127 15.513 20.288C14.421 20.7627 13.25 21 12 21Z" fill="black"/>
</svg>
