<svg width="24" height="24" viewBox="0 0 24 24" fill="none" xmlns="http://www.w3.org/2000/svg">
<path d="M8.00005 19C7.71672 19 7.47905 18.904 7.28705 18.712C7.09572 18.5207 7.00005 18.2834 7.00005 18C7.00005 17.7167 7.09572 17.4794 7.28705 17.288C7.47905 17.096 7.71672 17 8.00005 17H14.1C15.15 17 16.0624 16.6667 16.837 16C17.6124 15.3334 18 14.5 18 13.5C18 12.5 17.6124 11.6667 16.837 11C16.0624 10.3334 15.15 10 14.1 10H7.80005L9.70005 11.9C9.88338 12.0834 9.97505 12.3167 9.97505 12.6C9.97505 12.8834 9.88338 13.1167 9.70005 13.3C9.51672 13.4834 9.28338 13.575 9.00005 13.575C8.71672 13.575 8.48338 13.4834 8.30005 13.3L4.70005 9.70005C4.60005 9.60005 4.52905 9.49172 4.48705 9.37505C4.44572 9.25838 4.42505 9.13338 4.42505 9.00005C4.42505 8.86672 4.44572 8.74172 4.48705 8.62505C4.52905 8.50838 4.60005 8.40005 4.70005 8.30005L8.30005 4.70005C8.48338 4.51672 8.71672 4.42505 9.00005 4.42505C9.28338 4.42505 9.51672 4.51672 9.70005 4.70005C9.88338 4.88338 9.97505 5.11672 9.97505 5.40005C9.97505 5.68338 9.88338 5.91672 9.70005 6.10005L7.80005 8.00005H14.1C15.7167 8.00005 17.1044 8.52505 18.263 9.57505C19.421 10.625 20 11.9334 20 13.5C20 15.0667 19.421 16.375 18.263 17.425C17.1044 18.475 15.7167 19 14.1 19H8.00005Z" fill="black"/>
</svg>