<svg width="24" height="24" viewBox="0 0 24 24" xmlns="http://www.w3.org/2000/svg">
<path d="M7.13162 20.2693C6.80417 20.2693 6.5295 20.1584 6.30761 19.9365C6.08648 19.7154 5.97592 19.4411 5.97592 19.1137C5.97592 18.7862 6.08648 18.5119 6.30761 18.2908C6.5295 18.0689 6.80417 17.958 7.13162 17.958H14.1814C15.3949 17.958 16.4492 17.5727 17.3445 16.8023C18.2406 16.0318 18.6886 15.0687 18.6886 13.913C18.6886 12.7573 18.2406 11.7942 17.3445 11.0238C16.4492 10.2533 15.3949 9.86807 14.1814 9.86807H6.90048L9.09631 12.0639C9.30819 12.2758 9.41413 12.5454 9.41413 12.8729C9.41413 13.2003 9.30819 13.47 9.09631 13.6819C8.88443 13.8937 8.61477 13.9997 8.28732 13.9997C7.95987 13.9997 7.69021 13.8937 7.47833 13.6819L3.31782 9.52136C3.20225 9.40579 3.12019 9.28059 3.07165 9.14575C3.02388 9.01092 3 8.86646 3 8.71237C3 8.55827 3.02388 8.41381 3.07165 8.27898C3.12019 8.14415 3.20225 8.01895 3.31782 7.90338L7.47833 3.74287C7.69021 3.53099 7.95987 3.42505 8.28732 3.42505C8.61477 3.42505 8.88443 3.53099 9.09631 3.74287C9.30819 3.95474 9.41413 4.22441 9.41413 4.55185C9.41413 4.8793 9.30819 5.14896 9.09631 5.36084L6.90048 7.55667H14.1814C16.0498 7.55667 17.6535 8.16341 18.9926 9.37689C20.3309 10.5904 21 12.1024 21 13.913C21 15.7236 20.3309 17.2356 18.9926 18.4491C17.6535 19.6626 16.0498 20.2693 14.1814 20.2693H7.13162Z" fill="black"/>
</svg>
