<?xml version="1.0" encoding="UTF-8"?>
<svg width="24px" height="24px" viewBox="0 0 24 24" version="1.1" xmlns="http://www.w3.org/2000/svg" xmlns:xlink="http://www.w3.org/1999/xlink">
    <!-- Generator: Sketch 48.2 (47327) - http://www.bohemiancoding.com/sketch -->
    <title>review</title>
    <desc>Created with Sketch.</desc>
    <defs>
        <path d="M11.9861886,17.9723772 C8.68010793,17.9723772 6,15.2922693 6,11.9861886 C6,8.68010793 8.68010793,6 11.9861886,6 C14.3173389,6 16.3372681,7.33249609 17.325865,9.27737715 C17.7393146,10.0907626 17.9723772,11.0112582 17.9723772,11.9861886 C17.9723772,15.2922693 15.2922693,17.9723772 11.9861886,17.9723772 Z M15.3519067,8.85695186 C15.220352,8.72531142 15.0045817,8.72531142 14.8729413,8.85695186 L10.6246856,13.1054648 C10.4930451,13.2371053 10.2773606,13.2371053 10.1457202,13.1054648 L9.09937164,12.0592021 C8.9677312,11.9275616 8.7520467,11.9275616 8.62040626,12.0592021 L7.97866983,12.7012815 C7.84702939,12.832922 7.84702939,13.0486065 7.97866983,13.1802469 L10.1457202,15.3468685 C10.2773606,15.4785089 10.4930451,15.4785089 10.6246856,15.3468685 L15.9936431,9.97765367 C16.1253693,9.84592747 16.1253693,9.63032873 15.9936431,9.49860253 L15.3519067,8.85695186 Z" id="path-1"></path>
    </defs>
    <g id="Icons" stroke="none" stroke-width="1"  fill-rule="evenodd" transform="translate(-136.000000, -476.000000)">
        <g transform="translate(64.000000, 236.000000)" id="Menu">
            <g transform="translate(0.000000, 144.000000)">
                <g id="Review" transform="translate(72.000000, 96.000000)">
                    <g id="review24">
                        <g id="Shape" transform="translate(3.000000, 3.000000)">
                            <path d="M16,5.07025756 L16,4 L2,4 L2,16 L5.07025756,16 C5.50573486,16.7528104 6.06036148,17.4280725 6.70835121,18 L2,18 L0,18 L0,4 L0,0 L18,0 L18,4 L18,6.70835121 C17.4280725,6.06036148 16.7528104,5.50573486 16,5.07025756 Z M18,17.9780645 L18,18 L17.981062,18 C17.9873883,17.9927106 17.9937009,17.9853987 18,17.9780645 Z" id="Combined-Shape" fill="#000105"></path>
                            <mask id="mask-2" fill="white">
                                <use xlink:href="#path-1"></use>
                            </mask>
                            <use id="Combined-Shape" fill="#000105" xlink:href="#path-1"></use>
                        </g>
                    </g>
                </g>
            </g>
        </g>
    </g>
</svg>
