<svg width="24" height="24" viewBox="0 0 24 24" xmlns="http://www.w3.org/2000/svg">
<path d="M10.925 15.125L9.525 13.725C9.425 13.625 9.31667 13.55 9.2 13.5C9.08333 13.45 8.96267 13.425 8.838 13.425C8.71267 13.425 8.58767 13.45 8.463 13.5C8.33767 13.55 8.225 13.625 8.125 13.725C7.925 13.925 7.825 14.1627 7.825 14.438C7.825 14.7127 7.925 14.95 8.125 15.15L10.25 17.3C10.35 17.4 10.4583 17.4707 10.575 17.512C10.6917 17.554 10.8167 17.575 10.95 17.575C11.0833 17.575 11.2083 17.554 11.325 17.512C11.4417 17.4707 11.55 17.4 11.65 17.3L15.875 13.075C16.075 12.875 16.175 12.6333 16.175 12.35C16.175 12.0667 16.075 11.825 15.875 11.625C15.675 11.425 15.4333 11.325 15.15 11.325C14.8667 11.325 14.625 11.425 14.425 11.625L10.925 15.125ZM6 22C5.45 22 4.97933 21.8043 4.588 21.413C4.196 21.021 4 20.55 4 20V4C4 3.45 4.196 2.979 4.588 2.587C4.97933 2.19567 5.45 2 6 2H13.175C13.4417 2 13.696 2.05 13.938 2.15C14.1793 2.25 14.3917 2.39167 14.575 2.575L19.425 7.425C19.6083 7.60833 19.75 7.82067 19.85 8.062C19.95 8.304 20 8.55833 20 8.825V20C20 20.55 19.8043 21.021 19.413 21.413C19.021 21.8043 18.55 22 18 22H6ZM13 8V4H6V20H18V9H14C13.7167 9 13.4793 8.904 13.288 8.712C13.096 8.52067 13 8.28333 13 8ZM6 4V9V4V20V4Z" fill="black"/>
</svg>
