<svg width="24" height="24" viewBox="0 0 24 24" xmlns="http://www.w3.org/2000/svg">
<path d="M11.2325 14.8125L9.9725 13.5525C9.8825 13.4625 9.785 13.395 9.68 13.35C9.575 13.305 9.4664 13.2825 9.3542 13.2825C9.2414 13.2825 9.1289 13.305 9.0167 13.35C8.9039 13.395 8.8025 13.4625 8.7125 13.5525C8.5325 13.7325 8.4425 13.9464 8.4425 14.1942C8.4425 14.4414 8.5325 14.655 8.7125 14.835L10.625 16.77C10.715 16.86 10.8125 16.9236 10.9175 16.9608C11.0225 16.9986 11.135 17.0175 11.255 17.0175C11.375 17.0175 11.4875 16.9986 11.5925 16.9608C11.6975 16.9236 11.795 16.86 11.885 16.77L15.6875 12.9675C15.8675 12.7875 15.9575 12.57 15.9575 12.315C15.9575 12.06 15.8675 11.8425 15.6875 11.6625C15.5075 11.4825 15.29 11.3925 15.035 11.3925C14.78 11.3925 14.5625 11.4825 14.3825 11.6625L11.2325 14.8125ZM6.8 21C6.305 21 5.8814 20.8239 5.5292 20.4717C5.1764 20.1189 5 19.695 5 19.2V4.8C5 4.305 5.1764 3.8811 5.5292 3.5283C5.8814 3.1761 6.305 3 6.8 3H13.2575C13.4975 3 13.7264 3.045 13.9442 3.135C14.1614 3.225 14.3525 3.3525 14.5175 3.5175L18.8825 7.8825C19.0475 8.0475 19.175 8.2386 19.265 8.4558C19.355 8.6736 19.4 8.9025 19.4 9.1425V19.2C19.4 19.695 19.2239 20.1189 18.8717 20.4717C18.5189 20.8239 18.095 21 17.6 21H6.8ZM13.1 8.4V4.8H6.8V19.2H17.6V9.3H14C13.745 9.3 13.5314 9.2136 13.3592 9.0408C13.1864 8.8686 13.1 8.655 13.1 8.4ZM6.8 4.8V9.3V4.8V19.2V4.8Z" fill="black"/>
</svg>
