<svg width="24" height="24" viewBox="0 0 24 24" xmlns="http://www.w3.org/2000/svg">
<path d="M7.64824 11.1052C7.86302 10.6757 8.08546 10.2615 8.31557 9.86262C8.54568 9.46376 8.7988 9.0649 9.07493 8.66604L7.78631 8.41292L5.85338 10.3459L7.64824 11.1052ZM18.7396 4.77717C17.6657 4.80785 16.5192 5.12233 15.2999 5.72062C14.08 6.31891 12.9715 7.11663 11.9743 8.11378C11.33 8.75809 10.7547 9.44842 10.2485 10.1848C9.74226 10.9211 9.36641 11.6115 9.12096 12.2558L11.7442 14.856C12.3885 14.6106 13.0789 14.2347 13.8152 13.7285C14.5516 13.2222 15.2419 12.647 15.8862 12.0027C16.8834 11.0055 17.6811 9.90097 18.2794 8.68906C18.8777 7.47714 19.1922 6.33425 19.2228 5.2604C19.2228 5.19904 19.2115 5.13767 19.1888 5.07631C19.1655 5.01495 19.1308 4.96125 19.0848 4.91523C19.0387 4.86921 18.9851 4.83454 18.9237 4.81122C18.8623 4.78852 18.801 4.77717 18.7396 4.77717V4.77717ZM13.6772 10.2998C13.3243 9.947 13.1479 9.51347 13.1479 8.99924C13.1479 8.48564 13.3243 8.05241 13.6772 7.69958C14.03 7.34674 14.4672 7.17032 14.9888 7.17032C15.5104 7.17032 15.9476 7.34674 16.3004 7.69958C16.6533 8.05241 16.8297 8.48564 16.8297 8.99924C16.8297 9.51347 16.6533 9.947 16.3004 10.2998C15.9476 10.6527 15.5104 10.8291 14.9888 10.8291C14.4672 10.8291 14.03 10.6527 13.6772 10.2998ZM12.8948 16.3287L13.6541 18.1466L15.5871 16.2137L15.334 14.9251C14.9351 15.2012 14.5362 15.4503 14.1374 15.6725C13.7385 15.8952 13.3243 16.114 12.8948 16.3287ZM20.9717 4.04081C21.0944 5.72829 20.8183 7.37343 20.1433 8.97623C19.4683 10.5796 18.4021 12.11 16.9447 13.5674L17.405 15.8455C17.4663 16.1523 17.451 16.4515 17.3589 16.7429C17.2669 17.0344 17.1135 17.2875 16.8987 17.5023L13.9993 20.4017C13.7692 20.6318 13.4931 20.7199 13.1709 20.6659C12.8488 20.6125 12.6263 20.4324 12.5036 20.1256L11.0999 16.835L7.16501 12.9001L3.87442 11.4964C3.56761 11.3737 3.38352 11.1512 3.32216 10.8291C3.26079 10.5069 3.34517 10.2308 3.57528 10.0007L6.47468 7.10129C6.68945 6.88652 6.94656 6.73311 7.24601 6.64107C7.54485 6.54902 7.84767 6.53368 8.15449 6.59504L10.4326 7.05527C11.89 5.5979 13.4204 4.53171 15.0238 3.85672C16.6266 3.18173 18.2717 2.9056 19.9592 3.02832C20.0819 3.04366 20.2046 3.07803 20.3274 3.13141C20.4501 3.18541 20.5575 3.25843 20.6495 3.35048C20.7416 3.44252 20.8143 3.54991 20.8677 3.67263C20.9217 3.79536 20.9563 3.91808 20.9717 4.04081V4.04081ZM4.72583 15.3623C5.26276 14.8254 5.91842 14.5529 6.69282 14.5449C7.46784 14.5376 8.12381 14.8023 8.66073 15.3393C9.19766 15.8762 9.46213 16.5319 9.45416 17.3063C9.44679 18.0813 9.17465 18.7372 8.63772 19.2742C8.2542 19.6577 7.61388 19.9875 6.71675 20.2636C5.81901 20.5398 4.5801 20.7852 3 21C3.21477 19.4199 3.46022 18.181 3.73636 17.2832C4.01249 16.3861 4.34231 15.7458 4.72583 15.3623V15.3623ZM6.03747 16.6509C5.88406 16.8043 5.73065 17.0844 5.57724 17.4913C5.42384 17.8975 5.31645 18.3077 5.25509 18.7219C5.66929 18.6605 6.07981 18.5571 6.48664 18.4117C6.89287 18.2657 7.17268 18.1159 7.32609 17.9625C7.51018 17.7784 7.60989 17.556 7.62523 17.2952C7.64057 17.0344 7.5562 16.812 7.37211 16.6279C7.18802 16.4438 6.96558 16.3554 6.70479 16.3628C6.444 16.3708 6.22156 16.4668 6.03747 16.6509V16.6509Z" fill="black"/>
</svg>
