<svg width="24" height="24" viewBox="0 0 24 24" fill="none" xmlns="http://www.w3.org/2000/svg">
<path d="M7.10005 11.35C7.33338 10.8833 7.57505 10.4333 7.82505 9.99996C8.07505 9.56663 8.35005 9.13329 8.65005 8.69996L7.25005 8.42496L5.15005 10.525L7.10005 11.35ZM19.15 4.47496C17.9834 4.50829 16.7377 4.84996 15.413 5.49996C14.0877 6.14996 12.8834 7.01663 11.8 8.09996C11.1 8.79996 10.475 9.54996 9.92505 10.35C9.37505 11.15 8.96672 11.9 8.70005 12.6L11.55 15.425C12.25 15.1583 13 14.75 13.8 14.2C14.6 13.65 15.35 13.025 16.05 12.325C17.1334 11.2416 18 10.0416 18.65 8.72496C19.3 7.40829 19.6417 6.16663 19.675 4.99996C19.675 4.93329 19.6627 4.86663 19.6381 4.79996C19.6127 4.73329 19.575 4.67496 19.525 4.62496C19.475 4.57496 19.4167 4.53729 19.35 4.51196C19.2834 4.48729 19.2167 4.47496 19.15 4.47496ZM13.65 10.475C13.2667 10.0916 13.075 9.62063 13.075 9.06196C13.075 8.50396 13.2667 8.03329 13.65 7.64996C14.0334 7.26663 14.5084 7.07496 15.075 7.07496C15.6417 7.07496 16.1167 7.26663 16.5 7.64996C16.8834 8.03329 17.075 8.50396 17.075 9.06196C17.075 9.62063 16.8834 10.0916 16.5 10.475C16.1167 10.8583 15.6417 11.05 15.075 11.05C14.5084 11.05 14.0334 10.8583 13.65 10.475ZM12.8 17.025L13.625 19L15.725 16.9L15.45 15.5C15.0167 15.8 14.5834 16.0706 14.15 16.312C13.7167 16.554 13.2667 16.7916 12.8 17.025ZM21.5751 3.67496C21.7084 5.50829 21.4084 7.29562 20.675 9.03696C19.9417 10.779 18.7834 12.4416 17.2 14.025L17.7 16.5C17.7667 16.8333 17.75 17.1583 17.65 17.475C17.55 17.7916 17.3834 18.0666 17.15 18.3L14 21.45C13.75 21.7 13.45 21.7956 13.1 21.737C12.75 21.679 12.5084 21.4833 12.375 21.15L10.85 17.575L6.57505 13.3L3.00005 11.775C2.66672 11.6416 2.46672 11.4 2.40005 11.05C2.33338 10.7 2.42505 10.4 2.67505 10.15L5.82505 6.99996C6.05838 6.76663 6.33772 6.59996 6.66305 6.49996C6.98772 6.39996 7.31672 6.38329 7.65005 6.44996L10.125 6.94996C11.7084 5.36662 13.371 4.20829 15.113 3.47496C16.8544 2.74163 18.6417 2.44163 20.475 2.57496C20.6084 2.59163 20.7417 2.62896 20.875 2.68696C21.0084 2.74563 21.125 2.82496 21.225 2.92496C21.3251 3.02496 21.404 3.14163 21.462 3.27496C21.5207 3.40829 21.5584 3.54163 21.5751 3.67496ZM3.92505 15.975C4.50838 15.3916 5.22072 15.0956 6.06205 15.087C6.90405 15.079 7.61671 15.3666 8.20005 15.95C8.78338 16.5333 9.07072 17.2456 9.06205 18.087C9.05405 18.929 8.75838 19.6416 8.17505 20.225C7.75838 20.6416 7.06272 21 6.08805 21.3C5.11272 21.6 3.76672 21.8666 2.05005 22.1C2.28338 20.3833 2.55005 19.0373 2.85005 18.062C3.15005 17.0873 3.50838 16.3916 3.92505 15.975ZM5.35005 17.375C5.18338 17.5416 5.01672 17.846 4.85005 18.288C4.68338 18.7293 4.56672 19.175 4.50005 19.625C4.95005 19.5583 5.39605 19.446 5.83805 19.288C6.27938 19.1293 6.58338 18.9666 6.75005 18.8C6.95005 18.6 7.05838 18.3583 7.07505 18.075C7.09172 17.7916 7.00005 17.55 6.80005 17.35C6.60005 17.15 6.35838 17.054 6.07505 17.062C5.79172 17.0706 5.55005 17.175 5.35005 17.375Z" fill="black"/>
</svg>