<svg width="24" height="24" viewBox="0 0 24 24" xmlns="http://www.w3.org/2000/svg">
<path d="M5 21C4.45 21 3.979 20.8043 3.587 20.413C3.19567 20.021 3 19.55 3 19V5C3 4.45 3.19567 3.979 3.587 3.587C3.979 3.19567 4.45 3 5 3H19C19.55 3 20.021 3.19567 20.413 3.587C20.8043 3.979 21 4.45 21 5V19C21 19.55 20.8043 20.021 20.413 20.413C20.021 20.8043 19.55 21 19 21H5ZM5 19H19V5H5V19ZM11.4 17H12.6C12.7167 17 12.8167 16.9623 12.9 16.887C12.9833 16.8123 13.0417 16.7167 13.075 16.6L13.3 15.5C13.5 15.4167 13.6877 15.3293 13.863 15.238C14.0377 15.146 14.2167 15.0333 14.4 14.9L15.475 15.225C15.5917 15.2583 15.7 15.2543 15.8 15.213C15.9 15.171 15.9833 15.1 16.05 15L16.65 14C16.7167 13.9 16.7333 13.7917 16.7 13.675C16.6667 13.5583 16.6083 13.4583 16.525 13.375L15.7 12.65C15.7333 12.4167 15.75 12.2 15.75 12C15.75 11.8 15.7333 11.5833 15.7 11.35L16.525 10.625C16.6083 10.5417 16.6667 10.4417 16.7 10.325C16.7333 10.2083 16.7167 10.1 16.65 10L16.05 9C15.9833 8.9 15.9 8.829 15.8 8.787C15.7 8.74567 15.5917 8.74167 15.475 8.775L14.4 9.1C14.2167 8.96667 14.0377 8.854 13.863 8.762C13.6877 8.67067 13.5 8.58333 13.3 8.5L13.075 7.4C13.0417 7.28333 12.9833 7.18733 12.9 7.112C12.8167 7.03733 12.7167 7 12.6 7H11.4C11.2833 7 11.1833 7.03733 11.1 7.112C11.0167 7.18733 10.9583 7.28333 10.925 7.4L10.7 8.5C10.5 8.58333 10.3123 8.67067 10.137 8.762C9.96233 8.854 9.78333 8.96667 9.6 9.1L8.525 8.775C8.40833 8.74167 8.3 8.74567 8.2 8.787C8.1 8.829 8.01667 8.9 7.95 9L7.35 10C7.28333 10.1 7.26667 10.2083 7.3 10.325C7.33333 10.4417 7.39167 10.5417 7.475 10.625L8.3 11.35C8.26667 11.5833 8.25 11.8 8.25 12C8.25 12.2 8.26667 12.4167 8.3 12.65L7.475 13.375C7.39167 13.4583 7.33333 13.5583 7.3 13.675C7.26667 13.7917 7.28333 13.9 7.35 14L7.95 15C8.01667 15.1 8.1 15.171 8.2 15.213C8.3 15.2543 8.40833 15.2583 8.525 15.225L9.6 14.9C9.78333 15.0333 9.96233 15.146 10.137 15.238C10.3123 15.3293 10.5 15.4167 10.7 15.5L10.925 16.6C10.9583 16.7167 11.0167 16.8123 11.1 16.887C11.1833 16.9623 11.2833 17 11.4 17V17ZM12 14C11.45 14 10.9793 13.804 10.588 13.412C10.196 13.0207 10 12.55 10 12C10 11.45 10.196 10.979 10.588 10.587C10.9793 10.1957 11.45 10 12 10C12.55 10 13.021 10.1957 13.413 10.587C13.8043 10.979 14 11.45 14 12C14 12.55 13.8043 13.0207 13.413 13.412C13.021 13.804 12.55 14 12 14ZM5 19V5V19Z" fill="black"/>
</svg>
