<svg width="24" height="24" viewBox="0 0 24 24" fill="none" xmlns="http://www.w3.org/2000/svg">
<path d="M5 17.85C5.9 16.9667 6.946 16.2707 8.138 15.762C9.32933 15.254 10.6167 15 12 15C13.3833 15 14.671 15.254 15.863 15.762C17.0543 16.2707 18.1 16.9667 19 17.85V5H5V17.85ZM12 13C12.9667 13 13.7917 12.6583 14.475 11.975C15.1583 11.2917 15.5 10.4667 15.5 9.5C15.5 8.53333 15.1583 7.70833 14.475 7.025C13.7917 6.34167 12.9667 6 12 6C11.0333 6 10.2083 6.34167 9.525 7.025C8.84167 7.70833 8.5 8.53333 8.5 9.5C8.5 10.4667 8.84167 11.2917 9.525 11.975C10.2083 12.6583 11.0333 13 12 13ZM5 21C4.45 21 3.979 20.8043 3.587 20.413C3.19567 20.021 3 19.55 3 19V5C3 4.45 3.19567 3.979 3.587 3.587C3.979 3.19567 4.45 3 5 3H19C19.55 3 20.021 3.19567 20.413 3.587C20.8043 3.979 21 4.45 21 5V19C21 19.55 20.8043 20.021 20.413 20.413C20.021 20.8043 19.55 21 19 21H5ZM7 19H17V18.75C16.3 18.1667 15.525 17.7293 14.675 17.438C13.825 17.146 12.9333 17 12 17C11.0667 17 10.175 17.146 9.325 17.438C8.475 17.7293 7.7 18.1667 7 18.75V19ZM12 11C11.5833 11 11.2293 10.854 10.938 10.562C10.646 10.2707 10.5 9.91667 10.5 9.5C10.5 9.08333 10.646 8.72933 10.938 8.438C11.2293 8.146 11.5833 8 12 8C12.4167 8 12.7707 8.146 13.062 8.438C13.354 8.72933 13.5 9.08333 13.5 9.5C13.5 9.91667 13.354 10.2707 13.062 10.562C12.7707 10.854 12.4167 11 12 11Z" fill="black"/>
</svg>