<svg xmlns="http://www.w3.org/2000/svg" width="24" height="24" viewBox="0 0 48 49" fill="none">
<path d="M9.5 42.3311C8.4 42.3311 7.45833 41.9394 6.675 41.1561C5.89167 40.3727 5.5 39.4311 5.5 38.3311V13.3311C5.5 12.8644 5.575 12.4227 5.725 12.0061C5.875 11.5894 6.1 11.1977 6.4 10.8311L9.2 7.43105C9.5 7.06439 9.84167 6.78939 10.225 6.60605C10.6083 6.42272 11.0333 6.33105 11.5 6.33105H35.5C35.9667 6.33105 36.3917 6.42272 36.775 6.60605C37.1583 6.78939 37.5 7.06439 37.8 7.43105L40.6 10.8311C40.9 11.1977 41.125 11.5894 41.275 12.0061C41.425 12.4227 41.5 12.8644 41.5 13.3311V38.3311C41.5 39.4311 41.1083 40.3727 40.325 41.1561C39.5417 41.9394 38.6 42.3311 37.5 42.3311H9.5ZM10.3 12.3311H36.7L35 10.3311H12L10.3 12.3311ZM9.5 38.3311H37.5V16.3311H9.5V38.3311ZM28.6 34.4311L35.7 27.3311L28.6 20.2311L25.7 23.1311L29.9 27.3311L25.7 31.5311L28.6 34.4311ZM18.5 34.4311L21.4 31.5311L17.2 27.3311L21.4 23.1311L18.5 20.2311L11.4 27.3311L18.5 34.4311Z" fill="black"/>
</svg>