<svg width="24" height="24" viewBox="0 0 24 24" xmlns="http://www.w3.org/2000/svg">
<path d="M19.2845 20.7183L13.5491 14.9829C13.037 15.3926 12.4481 15.7169 11.7824 15.9559C11.1166 16.1949 10.4083 16.3144 9.65718 16.3144C7.79659 16.3144 6.22208 15.6702 4.93366 14.3817C3.64455 13.0926 3 11.5178 3 9.65718C3 7.79659 3.64455 6.22174 4.93366 4.93263C6.22208 3.64421 7.79659 3 9.65718 3C11.5178 3 13.0926 3.64421 14.3817 4.93263C15.6702 6.22174 16.3144 7.79659 16.3144 9.65718C16.3144 10.4083 16.1949 11.1166 15.9559 11.7824C15.7169 12.4481 15.3926 13.037 14.9829 13.5491L20.744 19.3101C20.9317 19.4979 21.0256 19.7283 21.0256 20.0014C21.0256 20.2745 20.9232 20.5135 20.7183 20.7183C20.5306 20.9061 20.2916 21 20.0014 21C19.7112 21 19.4723 20.9061 19.2845 20.7183V20.7183ZM9.65718 14.266C10.9374 14.266 12.0258 13.8181 12.9223 12.9223C13.8181 12.0258 14.266 10.9374 14.266 9.65718C14.266 8.37696 13.8181 7.28859 12.9223 6.39209C12.0258 5.49627 10.9374 5.04836 9.65718 5.04836C8.37696 5.04836 7.28859 5.49627 6.39209 6.39209C5.49627 7.28859 5.04836 8.37696 5.04836 9.65718C5.04836 10.9374 5.49627 12.0258 6.39209 12.9223C7.28859 13.8181 8.37696 14.266 9.65718 14.266Z" fill="black"/>
</svg>
