<svg width="24" height="24" viewBox="0 0 24 24" fill="none" xmlns="http://www.w3.org/2000/svg">
<path d="M4.5 21C4.0875 21 3.73438 20.8531 3.44063 20.5594C3.14688 20.2656 3 19.9125 3 19.5V4.5C3 4.0875 3.14688 3.73438 3.44063 3.44063C3.73438 3.14688 4.0875 3 4.5 3H19.5C19.9125 3 20.2656 3.14688 20.5594 3.44063C20.8531 3.73438 21 4.0875 21 4.5V19.5C21 19.9125 20.8531 20.2656 20.5594 20.5594C20.2656 20.8531 19.9125 21 19.5 21H4.5ZM4.5 19.5H19.5V4.5H4.5V19.5Z" fill="#1A1A1A"/>
<path fill-rule="evenodd" clip-rule="evenodd" d="M16.9809 12.0055C16.9809 11.9019 16.967 11.8047 16.9392 11.714C16.9118 11.6233 16.8652 11.539 16.799 11.4613L13.7414 7.8655C13.6201 7.72296 13.4685 7.65506 13.2865 7.6618C13.1049 7.66802 12.9535 7.7424 12.8323 7.88493C12.7111 8.02747 12.6505 8.20888 12.6505 8.42916C12.6505 8.64945 12.7111 8.83086 12.8323 8.9734L15.4107 12.0055L12.8158 15.0571C12.6946 15.1997 12.6366 15.3779 12.6419 15.592C12.6476 15.8056 12.7111 15.9836 12.8323 16.1261C12.9535 16.2687 13.1078 16.3399 13.2951 16.3399C13.4824 16.3399 13.6367 16.2687 13.7579 16.1261L16.799 12.5497C16.8652 12.472 16.9118 12.3878 16.9392 12.2971C16.967 12.2064 16.9809 12.1092 16.9809 12.0055Z" fill="#1A1A1A"/>
<path d="M3.96299 4.76848C3.96299 3.96964 4.61058 3.32206 5.40942 3.32206H9.74871C10.5475 3.32206 11.1951 3.96964 11.1951 4.76849V19.2328C11.1951 20.0316 10.5475 20.6792 9.74871 20.6792H5.40942C4.61058 20.6792 3.96299 20.0316 3.96299 19.2328V4.76848Z" fill="#1A1A1A"/>
</svg>
