<svg width="24" height="24" viewBox="0 0 24 24" xmlns="http://www.w3.org/2000/svg">
<path d="M4.5 21C4.0875 21 3.73438 20.8531 3.44063 20.5594C3.14688 20.2656 3 19.9125 3 19.5V4.5C3 4.0875 3.14688 3.73438 3.44063 3.44063C3.73438 3.14688 4.0875 3 4.5 3H19.5C19.9125 3 20.2656 3.14688 20.5594 3.44063C20.8531 3.73438 21 4.0875 21 4.5V19.5C21 19.9125 20.8531 20.2656 20.5594 20.5594C20.2656 20.8531 19.9125 21 19.5 21H4.5ZM4.5 19.5H19.5V4.5H4.5V19.5Z" fill="#1A1A1A"/>
<path fill-rule="evenodd" clip-rule="evenodd" d="M12.6416 12.0055C12.6416 11.9019 12.6554 11.8047 12.6832 11.714C12.7106 11.6233 12.7573 11.539 12.8234 11.4613L15.8811 7.8655C16.0023 7.72296 16.1539 7.65506 16.3359 7.6618C16.5175 7.66802 16.6689 7.7424 16.7901 7.88493C16.9113 8.02747 16.9719 8.20888 16.9719 8.42916C16.9719 8.64945 16.9113 8.83086 16.7901 8.9734L14.2117 12.0055L16.8066 15.0571C16.9279 15.1997 16.9858 15.3779 16.9805 15.592C16.9748 15.8056 16.9113 15.9836 16.7901 16.1261C16.6689 16.2687 16.5147 16.3399 16.3273 16.3399C16.14 16.3399 15.9858 16.2687 15.8645 16.1261L12.8234 12.5497C12.7573 12.472 12.7106 12.3878 12.6832 12.2971C12.6554 12.2064 12.6416 12.1092 12.6416 12.0055Z" fill="#1A1A1A"/>
<path d="M3.96299 4.76848C3.96299 3.96964 4.61058 3.32206 5.40942 3.32206H9.74871C10.5475 3.32206 11.1951 3.96964 11.1951 4.76849V19.2328C11.1951 20.0316 10.5475 20.6792 9.74871 20.6792H5.40942C4.61058 20.6792 3.96299 20.0316 3.96299 19.2328V4.76848Z" fill="#1A1A1A"/>
</svg>
