<svg width="24" height="24" viewBox="0 0 24 24" xmlns="http://www.w3.org/2000/svg">
<path d="M14 17.8042V12C14 11.7337 14.0902 11.5103 14.2707 11.3298C14.4505 11.15 14.6736 11.0601 14.9399 11.0601C15.2063 11.0601 15.4297 11.15 15.6101 11.3298C15.79 11.5103 15.8799 11.7337 15.8799 12V17.8042L17.6423 16.0418C17.8146 15.8695 18.0299 15.7792 18.288 15.7711C18.5468 15.7635 18.7702 15.8538 18.9582 16.0418C19.1462 16.2141 19.2443 16.4293 19.2524 16.6875C19.2599 16.9463 19.1697 17.1697 18.9817 17.3577L15.5979 20.7415C15.5039 20.8355 15.4021 20.9019 15.2924 20.9408C15.1828 20.9803 15.0653 21 14.9399 21C14.8146 21 14.6971 20.9803 14.5875 20.9408C14.4778 20.9019 14.376 20.8355 14.282 20.7415L10.8982 17.3577C10.7258 17.1854 10.6397 16.9701 10.6397 16.712C10.6397 16.4532 10.7337 16.2298 10.9217 16.0418C11.1097 15.8695 11.329 15.7792 11.5796 15.7711C11.8303 15.7635 12.0496 15.8538 12.2376 16.0418L14 17.8042ZM8.36031 6.19582L6.59791 7.95822C6.39426 8.16188 6.1671 8.25587 5.91645 8.24021C5.6658 8.22454 5.45431 8.13055 5.28198 7.95822C5.09399 7.77023 5 7.54684 5 7.28804C5 7.02987 5.08616 6.81462 5.25849 6.6423L8.6423 3.25849C8.73629 3.16449 8.83812 3.09775 8.94778 3.05828C9.05744 3.01943 9.17493 3 9.30026 3C9.42559 3 9.54308 3.01943 9.65274 3.05828C9.7624 3.09775 9.86423 3.16449 9.95822 3.25849L13.342 6.6423C13.5144 6.81462 13.6005 7.03394 13.6005 7.30026C13.6005 7.56658 13.5144 7.7859 13.342 7.95822C13.154 8.14621 12.931 8.24021 12.6728 8.24021C12.414 8.24021 12.1906 8.14621 12.0026 7.95822L10.2402 6.19582V12C10.2402 12.2663 10.1503 12.4894 9.97044 12.6692C9.78997 12.8497 9.56658 12.9399 9.30026 12.9399C9.03394 12.9399 8.81086 12.8497 8.63102 12.6692C8.45055 12.4894 8.36031 12.2663 8.36031 12V6.19582Z" fill="black"/>
</svg>
