<svg width="24" height="24" viewBox="0 0 24 24" xmlns="http://www.w3.org/2000/svg">
<path d="M14 18.175V12C14 11.7167 14.096 11.479 14.288 11.287C14.4794 11.0957 14.7167 11 15 11C15.2834 11 15.521 11.0957 15.713 11.287C15.9044 11.479 16 11.7167 16 12V18.175L17.875 16.3C18.0584 16.1167 18.2874 16.0207 18.562 16.012C18.8374 16.004 19.075 16.1 19.275 16.3C19.475 16.4834 19.5794 16.7124 19.588 16.987C19.596 17.2624 19.5 17.5 19.3 17.7L15.7 21.3C15.6 21.4 15.4917 21.4707 15.375 21.512C15.2584 21.554 15.1334 21.5751 15 21.5751C14.8667 21.5751 14.7417 21.554 14.625 21.512C14.5084 21.4707 14.4 21.4 14.3 21.3L10.7 17.7C10.5167 17.5167 10.425 17.2877 10.425 17.013C10.425 16.7377 10.525 16.5 10.725 16.3C10.925 16.1167 11.1584 16.0207 11.425 16.012C11.6917 16.004 11.925 16.1 12.125 16.3L14 18.175ZM8.00005 5.82505L6.12505 7.70005C5.90838 7.91672 5.66672 8.01672 5.40005 8.00005C5.13338 7.98338 4.90838 7.88338 4.72505 7.70005C4.52505 7.50005 4.42505 7.26238 4.42505 6.98705C4.42505 6.71238 4.51672 6.48338 4.70005 6.30005L8.30005 2.70005C8.40005 2.60005 8.50838 2.52905 8.62505 2.48705C8.74172 2.44572 8.86672 2.42505 9.00005 2.42505C9.13338 2.42505 9.25838 2.44572 9.37505 2.48705C9.49172 2.52905 9.60005 2.60005 9.70005 2.70005L13.3 6.30005C13.4834 6.48338 13.575 6.71672 13.575 7.00005C13.575 7.28338 13.4834 7.51672 13.3 7.70005C13.1 7.90005 12.8627 8.00005 12.588 8.00005C12.3127 8.00005 12.075 7.90005 11.875 7.70005L10 5.82505V12C10 12.2834 9.90438 12.5207 9.71305 12.712C9.52105 12.904 9.28338 13 9.00005 13C8.71672 13 8.47938 12.904 8.28805 12.712C8.09605 12.5207 8.00005 12.2834 8.00005 12V5.82505Z" fill="black"/>
</svg>
