<svg width="32" height="32" viewBox="0 0 32 32" fill="none" xmlns="http://www.w3.org/2000/svg">
<path fill-rule="evenodd" clip-rule="evenodd" d="M12.44 12.0222C12.3474 12.2726 12.15 12.47 11.8996 12.5626L4.59729 15.2647C3.8009 15.5594 3.8009 16.6858 4.59729 16.9805L11.8996 19.6826C12.15 19.7753 12.3474 19.9727 12.44 20.223L15.1421 27.5253C15.4368 28.3217 16.5632 28.3217 16.8579 27.5253L19.56 20.223C19.6526 19.9727 19.85 19.7753 20.1004 19.6826L27.4027 16.9805C28.1991 16.6858 28.1991 15.5594 27.4027 15.2647L20.1004 12.5626C19.85 12.47 19.6526 12.2726 19.56 12.0222L16.8579 4.71992C16.5632 3.92353 15.4368 3.92353 15.1421 4.71992L12.44 12.0222ZM16 8.99117L14.5847 12.8158C14.2605 13.6922 13.5695 14.3831 12.6932 14.7074L8.86854 16.1226L12.6932 17.5379C13.5695 17.8621 14.2605 18.5531 14.5847 19.4294L16 23.2541L17.4152 19.4294C17.7395 18.5531 18.4305 17.8621 19.3068 17.5379L23.1315 16.1226L19.3068 14.7074C18.4305 14.3831 17.7395 13.6922 17.4152 12.8158L16 8.99117Z" fill="#1A1A1A"/>
<path d="M23.181 4.27229C23.3154 3.90924 23.8289 3.90924 23.9632 4.27229L24.9134 6.84026C24.9557 6.9544 25.0457 7.04439 25.1598 7.08663L27.7278 8.03686C28.0908 8.1712 28.0908 8.6847 27.7278 8.81904L25.1598 9.76927C25.0457 9.81151 24.9557 9.9015 24.9134 10.0156L23.9632 12.5836C23.8289 12.9467 23.3154 12.9467 23.181 12.5836L22.2308 10.0156C22.1886 9.9015 22.0986 9.81151 21.9844 9.76927L19.4165 8.81904C19.0534 8.6847 19.0534 8.1712 19.4165 8.03686L21.9844 7.08663C22.0986 7.04439 22.1886 6.9544 22.2308 6.84026L23.181 4.27229Z" fill="#1A1A1A"/>
</svg>
