<svg width="24" height="24" viewBox="0 0 24 24" xmlns="http://www.w3.org/2000/svg">
<path d="M10.605 14.35C10.965 14.71 11.43 14.8861 12 14.8783C12.57 14.8711 12.99 14.665 13.26 14.26L17.0625 8.5675C17.1975 8.3575 17.1786 8.1664 17.0058 7.9942C16.8336 7.8214 16.6425 7.8025 16.4325 7.9375L10.74 11.74C10.335 12.01 10.1214 12.4225 10.0992 12.9775C10.0764 13.5325 10.245 13.99 10.605 14.35ZM5.79 18.4C5.475 18.4 5.175 18.325 4.89 18.175C4.605 18.025 4.38 17.815 4.215 17.545C3.825 16.87 3.525 16.1539 3.315 15.3967C3.105 14.6389 3 13.84 3 13C3 11.755 3.2364 10.5886 3.7092 9.5008C4.1814 8.4136 4.8264 7.4611 5.6442 6.6433C6.4614 5.8261 7.4175 5.1811 8.5125 4.7083C9.6075 4.2361 10.77 4 12 4C12.675 4 13.3275 4.0711 13.9575 4.2133C14.5875 4.3561 15.195 4.57 15.78 4.855C16.095 5.02 16.2786 5.245 16.3308 5.53C16.3836 5.815 16.305 6.085 16.095 6.34C15.975 6.475 15.81 6.5575 15.6 6.5875C15.39 6.6175 15.2025 6.595 15.0375 6.52C14.5575 6.28 14.0625 6.1 13.5525 5.98C13.0425 5.86 12.525 5.8 12 5.8C10.005 5.8 8.3064 6.5011 6.9042 7.9033C5.5014 9.3061 4.8 11.005 4.8 13C4.8 13.63 4.8861 14.2525 5.0583 14.8675C5.2311 15.4825 5.475 16.06 5.79 16.6H18.21C18.555 16.03 18.8064 15.4375 18.9642 14.8225C19.1214 14.2075 19.2 13.57 19.2 12.91C19.2 12.385 19.1364 11.8714 19.0092 11.3692C18.8814 10.8664 18.6975 10.3825 18.4575 9.9175C18.3525 9.7225 18.3225 9.52 18.3675 9.31C18.4125 9.1 18.5175 8.9275 18.6825 8.7925C18.9225 8.5825 19.185 8.5225 19.47 8.6125C19.755 8.7025 19.965 8.8975 20.1 9.1975C20.37 9.7675 20.58 10.3564 20.73 10.9642C20.88 11.5714 20.97 12.205 21 12.865C21 13.72 20.8989 14.5375 20.6967 15.3175C20.4939 16.0975 20.19 16.84 19.785 17.545C19.62 17.815 19.395 18.025 19.11 18.175C18.825 18.325 18.525 18.4 18.21 18.4H5.79Z" fill="black"/>
</svg>
