<svg width="24" height="24" viewBox="0 0 24 24" fill="none" xmlns="http://www.w3.org/2000/svg">
<path d="M7 14H13.025C13.3083 14 13.5417 13.904 13.725 13.712C13.9083 13.5207 14 13.2833 14 13C14 12.7167 13.9043 12.479 13.713 12.287C13.521 12.0957 13.2833 12 13 12H6.975C6.69167 12 6.45833 12.0957 6.275 12.287C6.09167 12.479 6 12.7167 6 13C6 13.2833 6.09567 13.5207 6.287 13.712C6.479 13.904 6.71667 14 7 14ZM7 11H17.025C17.3083 11 17.5417 10.904 17.725 10.712C17.9083 10.5207 18 10.2833 18 10C18 9.71667 17.904 9.479 17.712 9.287C17.5207 9.09567 17.2833 9 17 9H6.975C6.69167 9 6.45833 9.09567 6.275 9.287C6.09167 9.479 6 9.71667 6 10C6 10.2833 6.09567 10.5207 6.287 10.712C6.479 10.904 6.71667 11 7 11ZM7 8H17.025C17.3083 8 17.5417 7.90433 17.725 7.713C17.9083 7.521 18 7.28333 18 7C18 6.71667 17.904 6.479 17.712 6.287C17.5207 6.09567 17.2833 6 17 6H6.975C6.69167 6 6.45833 6.09567 6.275 6.287C6.09167 6.479 6 6.71667 6 7C6 7.28333 6.09567 7.521 6.287 7.713C6.479 7.90433 6.71667 8 7 8ZM2 19.575V4C2 3.45 2.196 2.979 2.588 2.587C2.97933 2.19567 3.45 2 4 2H20C20.55 2 21.021 2.19567 21.413 2.587C21.8043 2.979 22 3.45 22 4V16C22 16.55 21.8043 17.021 21.413 17.413C21.021 17.8043 20.55 18 20 18H6L3.7 20.3C3.38333 20.6167 3.02067 20.6873 2.612 20.512C2.204 20.3373 2 20.025 2 19.575ZM4 17.175L5.175 16H20V4H4V17.175ZM4 4V17.175V4Z" fill="black"/>
</svg>