<svg width="24" height="24" viewBox="0 0 24 24" xmlns="http://www.w3.org/2000/svg">
<path d="M7.5 14.8H12.9225C13.1775 14.8 13.3875 14.7136 13.5525 14.5408C13.7175 14.3686 13.8 14.155 13.8 13.9C13.8 13.645 13.7139 13.4311 13.5417 13.2583C13.3689 13.0861 13.155 13 12.9 13H7.4775C7.2225 13 7.0125 13.0861 6.8475 13.2583C6.6825 13.4311 6.6 13.645 6.6 13.9C6.6 14.155 6.6861 14.3686 6.8583 14.5408C7.0311 14.7136 7.245 14.8 7.5 14.8ZM7.5 12.1H16.5225C16.7775 12.1 16.9875 12.0136 17.1525 11.8408C17.3175 11.6686 17.4 11.455 17.4 11.2C17.4 10.945 17.3136 10.7311 17.1408 10.5583C16.9686 10.3861 16.755 10.3 16.5 10.3H7.4775C7.2225 10.3 7.0125 10.3861 6.8475 10.5583C6.6825 10.7311 6.6 10.945 6.6 11.2C6.6 11.455 6.6861 11.6686 6.8583 11.8408C7.0311 12.0136 7.245 12.1 7.5 12.1ZM7.5 9.4H16.5225C16.7775 9.4 16.9875 9.3139 17.1525 9.1417C17.3175 8.9689 17.4 8.755 17.4 8.5C17.4 8.245 17.3136 8.0311 17.1408 7.8583C16.9686 7.6861 16.755 7.6 16.5 7.6H7.4775C7.2225 7.6 7.0125 7.6861 6.8475 7.8583C6.6825 8.0311 6.6 8.245 6.6 8.5C6.6 8.755 6.6861 8.9689 6.8583 9.1417C7.0311 9.3139 7.245 9.4 7.5 9.4ZM3 19.8175V5.8C3 5.305 3.1764 4.8811 3.5292 4.5283C3.8814 4.1761 4.305 4 4.8 4H19.2C19.695 4 20.1189 4.1761 20.4717 4.5283C20.8239 4.8811 21 5.305 21 5.8V16.6C21 17.095 20.8239 17.5189 20.4717 17.8717C20.1189 18.2239 19.695 18.4 19.2 18.4H6.6L4.53 20.47C4.245 20.755 3.9186 20.8186 3.5508 20.6608C3.1836 20.5036 3 20.2225 3 19.8175ZM4.8 17.6575L5.8575 16.6H19.2V5.8H4.8V17.6575ZM4.8 5.8V17.6575V5.8Z" fill="black"/>
</svg>
