<svg width="24" height="24" viewBox="0 0 24 24" fill="none" xmlns="http://www.w3.org/2000/svg">
<path d="M10.45 15.5C10.85 15.9 11.3667 16.0957 12 16.087C12.6333 16.079 13.1 15.85 13.4 15.4L17.625 9.075C17.775 8.84167 17.754 8.62933 17.562 8.438C17.3707 8.246 17.1583 8.225 16.925 8.375L10.6 12.6C10.15 12.9 9.91267 13.3583 9.888 13.975C9.86267 14.5917 10.05 15.1 10.45 15.5ZM5.1 20C4.75 20 4.41667 19.9167 4.1 19.75C3.78333 19.5833 3.53333 19.35 3.35 19.05C2.91667 18.3 2.58333 17.5043 2.35 16.663C2.11667 15.821 2 14.9333 2 14C2 12.6167 2.26267 11.3207 2.788 10.112C3.31267 8.904 4.02933 7.84567 4.938 6.937C5.846 6.029 6.90833 5.31233 8.125 4.787C9.34167 4.26233 10.6333 4 12 4C12.75 4 13.475 4.079 14.175 4.237C14.875 4.39567 15.55 4.63333 16.2 4.95C16.55 5.13333 16.754 5.38333 16.812 5.7C16.8707 6.01667 16.7833 6.31667 16.55 6.6C16.4167 6.75 16.2333 6.84167 16 6.875C15.7667 6.90833 15.5583 6.88333 15.375 6.8C14.8417 6.53333 14.2917 6.33333 13.725 6.2C13.1583 6.06667 12.5833 6 12 6C9.78333 6 7.896 6.779 6.338 8.337C4.77933 9.89567 4 11.7833 4 14C4 14.7 4.09567 15.3917 4.287 16.075C4.479 16.7583 4.75 17.4 5.1 18H18.9C19.2833 17.3667 19.5627 16.7083 19.738 16.025C19.9127 15.3417 20 14.6333 20 13.9C20 13.3167 19.9293 12.746 19.788 12.188C19.646 11.6293 19.4417 11.0917 19.175 10.575C19.0583 10.3583 19.025 10.1333 19.075 9.9C19.125 9.66667 19.2417 9.475 19.425 9.325C19.6917 9.09167 19.9833 9.025 20.3 9.125C20.6167 9.225 20.85 9.44167 21 9.775C21.3 10.4083 21.5333 11.0627 21.7 11.738C21.8667 12.4127 21.9667 13.1167 22 13.85C22 14.8 21.8877 15.7083 21.663 16.575C21.4377 17.4417 21.1 18.2667 20.65 19.05C20.4667 19.35 20.2167 19.5833 19.9 19.75C19.5833 19.9167 19.25 20 18.9 20H5.1Z" fill="black"/>
</svg>