<svg width="24" height="24" viewBox="0 0 24 24" xmlns="http://www.w3.org/2000/svg">
<path d="M3 11.8851C3 11.6245 3.08828 11.4063 3.26483 11.2303C3.44077 11.0538 3.659 10.9655 3.91954 10.9655L7.5977 10.9655C8.45594 10.9655 9.09195 10.8352 9.50575 10.5747C9.91954 10.3142 10.3257 9.96935 10.7241 9.54023L12.0345 10.8506C11.8659 11.0345 11.686 11.2107 11.4947 11.3793C11.3028 11.5479 11.0996 11.7165 10.8851 11.8851C11.1762 12.0996 11.4331 12.3182 11.6556 12.5407C11.8775 12.7626 12.0958 12.9885 12.3103 13.2184C12.8467 13.8008 13.4674 14.3295 14.1724 14.8046C14.8774 15.2797 16.1111 15.5326 17.8736 15.5632L17.069 14.7586C16.9004 14.59 16.8161 14.3795 16.8161 14.1269C16.8161 13.8737 16.9004 13.6552 17.069 13.4713C17.2529 13.2874 17.4714 13.1954 17.7246 13.1954C17.9772 13.1954 18.1954 13.2874 18.3793 13.4713L20.7471 15.8391C20.8391 15.931 20.9044 16.0307 20.943 16.1379C20.981 16.2452 21 16.3602 21 16.4828C21 16.6054 20.981 16.7203 20.943 16.8276C20.9044 16.9349 20.8391 17.0345 20.7471 17.1264L18.3563 19.5172C18.1877 19.6858 17.9772 19.7741 17.7246 19.7821C17.4714 19.7894 17.2529 19.7011 17.069 19.5172C16.9004 19.3487 16.8161 19.1341 16.8161 18.8736C16.8161 18.613 16.9004 18.3985 17.069 18.2299L17.8736 17.4023C15.682 17.3716 14.1228 17.0345 13.1959 16.3908C12.2684 15.7471 11.5134 15.1034 10.931 14.4598C10.4866 13.9693 10.0538 13.5709 9.63264 13.2644C9.21088 12.9579 8.53257 12.8046 7.5977 12.8046H3.91954C3.659 12.8046 3.44077 12.7166 3.26483 12.5407C3.08828 12.3641 3 12.1456 3 11.8851ZM15.7126 6.55172C16.0192 6.49042 16.3563 6.44812 16.7241 6.42483C17.092 6.40215 17.4751 6.38314 17.8736 6.36782L17.046 5.54023C16.8774 5.37165 16.7931 5.16077 16.7931 4.90759C16.7931 4.65502 16.8851 4.43678 17.069 4.25287C17.2375 4.08429 17.4521 4 17.7126 4C17.9732 4 18.1877 4.08429 18.3563 4.25287L20.7471 6.64368C20.8391 6.73563 20.9044 6.83525 20.943 6.94253C20.981 7.04981 21 7.16475 21 7.28736C21 7.40996 20.981 7.5249 20.943 7.63218C20.9044 7.73946 20.8391 7.83908 20.7471 7.93103L18.3563 10.3218C18.1724 10.5057 17.9579 10.594 17.7126 10.5867C17.4674 10.5787 17.2529 10.4828 17.069 10.2988C16.9004 10.1149 16.8161 9.90038 16.8161 9.65517C16.8161 9.40996 16.9004 9.1954 17.069 9.01149L17.8506 8.2069C17.5287 8.2069 17.2259 8.22222 16.9421 8.25287C16.6589 8.28352 16.3946 8.31418 16.1494 8.34483L15.7126 6.55172ZM11.6667 8.52874C11.9885 8.22222 12.364 7.92736 12.7931 7.64414C13.2222 7.36031 13.751 7.11111 14.3793 6.89655L14.8161 8.66667C14.4023 8.81992 14.0498 8.99617 13.7586 9.1954C13.4674 9.39464 13.2069 9.60919 12.977 9.83908L11.6667 8.52874Z" fill="black"/>
</svg>
