<svg width="24" height="24" viewBox="0 0 24 24" fill="none" xmlns="http://www.w3.org/2000/svg">
<path d="M1.99995 12C1.99995 11.7167 2.09595 11.4794 2.28795 11.288C2.47928 11.096 2.71662 11 2.99995 11H6.99995C7.93328 11 8.62495 10.8584 9.07495 10.575C9.52495 10.2917 9.96662 9.91672 10.4 9.45005L11.825 10.875C11.6416 11.075 11.446 11.2667 11.238 11.45C11.0293 11.6334 10.8083 11.8167 10.575 12C10.8916 12.2334 11.171 12.471 11.413 12.713C11.6543 12.9544 11.8916 13.2 12.125 13.45C12.7083 14.0834 13.3833 14.6584 14.15 15.175C14.9166 15.6917 16.2583 15.9667 18.175 16L17.3 15.125C17.1166 14.9417 17.025 14.7127 17.025 14.438C17.025 14.1627 17.1166 13.925 17.3 13.725C17.5 13.525 17.7376 13.425 18.013 13.425C18.2876 13.425 18.525 13.525 18.725 13.725L21.3 16.3C21.4 16.4 21.471 16.5084 21.513 16.625C21.5543 16.7417 21.575 16.8667 21.575 17C21.575 17.1334 21.5543 17.2584 21.513 17.375C21.471 17.4917 21.4 17.6 21.3 17.7L18.7 20.3C18.5166 20.4834 18.2876 20.5794 18.013 20.588C17.7376 20.596 17.5 20.5 17.3 20.3C17.1166 20.1167 17.025 19.8834 17.025 19.6C17.025 19.3167 17.1166 19.0834 17.3 18.9L18.175 18C15.7916 17.9667 14.096 17.6 13.088 16.9C12.0793 16.2 11.2583 15.5 10.625 14.8C10.1416 14.2667 9.67095 13.8334 9.21295 13.5C8.75428 13.1667 8.01662 13 6.99995 13H2.99995C2.71662 13 2.47928 12.9044 2.28795 12.713C2.09595 12.521 1.99995 12.2834 1.99995 12ZM15.825 6.20005C16.1583 6.13338 16.525 6.08738 16.925 6.06205C17.325 6.03738 17.7416 6.01672 18.175 6.00005L17.275 5.10005C17.0916 4.91672 17 4.68738 17 4.41205C17 4.13738 17.1 3.90005 17.3 3.70005C17.4833 3.51672 17.7166 3.42505 18 3.42505C18.2833 3.42505 18.5166 3.51672 18.7 3.70005L21.3 6.30005C21.4 6.40005 21.471 6.50838 21.513 6.62505C21.5543 6.74172 21.575 6.86672 21.575 7.00005C21.575 7.13338 21.5543 7.25838 21.513 7.37505C21.471 7.49172 21.4 7.60005 21.3 7.70005L18.7 10.3C18.5 10.5 18.2666 10.596 18 10.588C17.7333 10.5794 17.5 10.475 17.3 10.275C17.1166 10.075 17.025 9.84172 17.025 9.57505C17.025 9.30838 17.1166 9.07505 17.3 8.87505L18.15 8.00005C17.8 8.00005 17.4706 8.01672 17.162 8.05005C16.854 8.08338 16.5666 8.11671 16.3 8.15005L15.825 6.20005ZM11.425 8.35005C11.775 8.01672 12.1833 7.69605 12.65 7.38805C13.1166 7.07938 13.6916 6.80838 14.375 6.57505L14.85 8.50005C14.4 8.66672 14.0166 8.85838 13.7 9.07505C13.3833 9.29172 13.1 9.52505 12.85 9.77505L11.425 8.35005Z" fill="black"/>
</svg>