<svg width="24" height="24" viewBox="0 0 24 24" xmlns="http://www.w3.org/2000/svg">
<path d="M4 15C3.71667 15 3.47933 14.904 3.288 14.712C3.096 14.5207 3 14.2833 3 14C3 13.7167 3.096 13.479 3.288 13.287C3.47933 13.0957 3.71667 13 4 13H20C20.2833 13 20.5207 13.0957 20.712 13.287C20.904 13.479 21 13.7167 21 14C21 14.2833 20.904 14.5207 20.712 14.712C20.5207 14.904 20.2833 15 20 15H4ZM4 19C3.71667 19 3.47933 18.904 3.288 18.712C3.096 18.5207 3 18.2833 3 18C3 17.7167 3.096 17.4793 3.288 17.288C3.47933 17.096 3.71667 17 4 17H20C20.2833 17 20.5207 17.096 20.712 17.288C20.904 17.4793 21 17.7167 21 18C21 18.2833 20.904 18.5207 20.712 18.712C20.5207 18.904 20.2833 19 20 19H4ZM4 11C3.71667 11 3.47933 10.904 3.288 10.712C3.096 10.5207 3 10.2833 3 10C3 9.71667 3.096 9.479 3.288 9.287C3.47933 9.09567 3.71667 9 4 9H20C20.2833 9 20.5207 9.09567 20.712 9.287C20.904 9.479 21 9.71667 21 10C21 10.2833 20.904 10.5207 20.712 10.712C20.5207 10.904 20.2833 11 20 11H4ZM4 7C3.71667 7 3.47933 6.90433 3.288 6.713C3.096 6.521 3 6.28333 3 6C3 5.71667 3.096 5.479 3.288 5.287C3.47933 5.09567 3.71667 5 4 5H20C20.2833 5 20.5207 5.09567 20.712 5.287C20.904 5.479 21 5.71667 21 6C21 6.28333 20.904 6.521 20.712 6.713C20.5207 6.90433 20.2833 7 20 7H4Z" fill="black"/>
</svg>
