<?xml version="1.0" encoding="UTF-8"?>
<svg width="24px" height="24px" viewBox="0 0 24 24" version="1.1" xmlns="http://www.w3.org/2000/svg" xmlns:xlink="http://www.w3.org/1999/xlink">
    <!-- Generator: Sketch 52.6 (67491) - http://www.bohemiancoding.com/sketch -->
    <title>Component / icon / 24px / Stock</title>
    <desc>Created with Sketch.</desc>
    <g id="Component-/-icon-/-24px-/-Stock" stroke="none" stroke-width="1"  fill-rule="evenodd">
        <path d="M3.69760298,11.1526138 L11.8588387,13.1602625 C11.9443126,13.1812453 12.0339079,13.1812453 12.119561,13.1602625 L20.2807967,11.1526138 C20.6200045,11.0690353 20.94864,11.3215342 20.94864,11.6657227 L20.94864,12.7793982 C20.94864,13.0220228 20.7809176,13.2336141 20.541519,13.292507 L12.119561,15.3643384 C12.0339079,15.3853212 11.9443126,15.3853212 11.8588387,15.3643384 L3.43688067,13.292507 C3.19748203,13.2336141 3.02958044,13.0220228 3.02958044,12.7793982 L3.02958044,11.6657227 C3.02958044,11.3215342 3.35821599,11.0690353 3.69760298,11.1526138" id="Fill-1" fill="#1A1A1A"></path>
        <path d="M3.69760298,15.5607052 L11.8588387,17.5685302 C11.9443126,17.589513 12.0339079,17.589513 12.119561,17.5685302 L20.2807967,15.5607052 C20.6200045,15.477303 20.94864,15.7298019 20.94864,16.0739904 L20.94864,17.1874895 C20.94864,17.4302905 20.7809176,17.6418818 20.541519,17.7007747 L11.9891102,19.8045211 L3.43688067,17.7007747 C3.19748203,17.6418818 3.02958044,17.4302905 3.02958044,17.1874895 L3.02958044,16.0739904 C3.02958044,15.7298019 3.35821599,15.477303 3.69760298,15.5607052" id="Fill-4" fill="#1A1A1A"></path>
        <path d="M3.43670147,6.52383011 L11.8586595,4.45199878 C11.9443126,4.43083965 12.0339079,4.43083965 12.1193818,4.45199878 L20.5413398,6.52383011 C20.7807384,6.58254669 20.94864,6.7943143 20.94864,7.03693898 L20.94864,8.41510355 C20.94864,8.65772822 20.7807384,8.86931951 20.5413398,8.92821242 L12.1193818,11.0000438 C12.0339079,11.0210266 11.9443126,11.0210266 11.8586595,11.0000438 L3.43670147,8.92821242 C3.19748203,8.86931951 3.02958044,8.65772822 3.02958044,8.41510355 L3.02958044,7.03693898 C3.02958044,6.7943143 3.19748203,6.58254669 3.43670147,6.52383011" id="Fill-7" fill="#1A1A1A"></path>
    </g>
</svg>