<svg width="24" height="24" viewBox="0 0 24 24" xmlns="http://www.w3.org/2000/svg">
<path d="M8.68848 16.9286L11.9998 14.9313L15.3111 16.9549L14.4439 13.1705L17.361 10.6476L13.5241 10.3059L11.9998 6.73181L10.4755 10.2796L6.63862 10.6213L9.55573 13.1705L8.68848 16.9286ZM11.9998 17.4016L7.63727 20.0296C7.44455 20.1523 7.24306 20.2048 7.03282 20.1873C6.82258 20.1698 6.63862 20.0997 6.48093 19.9771C6.32325 19.8544 6.20061 19.7013 6.11301 19.5177C6.02541 19.3334 6.00789 19.1274 6.06045 18.8996L7.21678 13.9326L3.35358 10.595C3.17837 10.4373 3.06905 10.2576 3.0256 10.0557C2.98145 9.85461 2.99441 9.65768 3.06449 9.46496C3.13457 9.27224 3.23969 9.11455 3.37986 8.99191C3.52002 8.86927 3.71274 8.79043 3.95802 8.75539L9.05641 8.30863L11.0274 3.63073C11.115 3.42049 11.251 3.2628 11.4353 3.15768C11.6189 3.05256 11.8071 3 11.9998 3C12.1925 3 12.381 3.05256 12.5654 3.15768C12.749 3.2628 12.8846 3.42049 12.9722 3.63073L14.9432 8.30863L20.0416 8.75539C20.2869 8.79043 20.4796 8.86927 20.6197 8.99191C20.7599 9.11455 20.865 9.27224 20.9351 9.46496C21.0052 9.65768 21.0185 9.85461 20.9751 10.0557C20.9309 10.2576 20.8212 10.4373 20.646 10.595L16.7828 13.9326L17.9392 18.8996C17.9917 19.1274 17.9742 19.3334 17.8866 19.5177C17.799 19.7013 17.6764 19.8544 17.5187 19.9771C17.361 20.0997 17.177 20.1698 16.9668 20.1873C16.7565 20.2048 16.5551 20.1523 16.3623 20.0296L11.9998 17.4016Z" fill="black"/>
</svg>
