<svg width="24" height="24" viewBox="0 0 24 24" fill="none" xmlns="http://www.w3.org/2000/svg">
<path d="M7.96041 17.9833L12 15.5485L16.0396 18.0122L14.9793 13.3998L18.5321 10.3057L13.8338 9.9041L12 5.54959L10.1662 9.87591L5.46789 10.2768L9.02067 13.3709L7.96041 17.9833ZM12 17.2386L7.27281 20.0749C7.12017 20.1515 6.97692 20.185 6.84307 20.1753C6.70922 20.1657 6.585 20.1226 6.4704 20.0461C6.3558 19.97 6.26504 19.865 6.19811 19.7311C6.13164 19.5973 6.12706 19.454 6.18436 19.3014L7.41583 13.9155L3.2621 10.2768C3.12825 10.1622 3.04711 10.0379 3.01869 9.9041C2.98981 9.7707 2.9944 9.63708 3.03244 9.50323C3.07095 9.36938 3.14269 9.2596 3.24766 9.17388C3.35263 9.0877 3.49107 9.03521 3.66296 9.01642L9.16369 8.52892L11.3124 3.42974C11.389 3.29589 11.4893 3.19069 11.6136 3.11414C11.7373 3.03805 11.8661 3 12 3C12.1339 3 12.2627 3.03805 12.3864 3.11414C12.5107 3.19069 12.611 3.29589 12.6876 3.42974L14.8363 8.52892L20.337 9.01642C20.5089 9.03521 20.6474 9.0877 20.7523 9.17388C20.8573 9.2596 20.929 9.36938 20.9676 9.50323C21.0056 9.63708 21.0102 9.7707 20.9813 9.9041C20.9529 10.0379 20.8718 10.1622 20.7379 10.2768L16.5842 13.9155L17.8445 19.3014C17.8826 19.454 17.8684 19.5973 17.8019 19.7311C17.735 19.865 17.6442 19.97 17.5296 20.0461C17.415 20.1226 17.2908 20.1657 17.1569 20.1753C17.0231 20.185 16.8798 20.1515 16.7272 20.0749L12 17.2386Z" fill="black"/>
</svg>
