<svg width="24" height="24" viewBox="0 0 24 24" xmlns="http://www.w3.org/2000/svg">
<path d="M8.85007 17.825L12.0001 15.925L15.1501 17.85L14.3251 14.25L17.1001 11.85L13.4501 11.525L12.0001 8.12495L10.5501 11.5L6.90007 11.825L9.67507 14.25L8.85007 17.825ZM12.0001 18.275L7.85007 20.775C7.66674 20.8916 7.47507 20.9416 7.27507 20.9249C7.07507 20.9083 6.90007 20.8416 6.75007 20.725C6.60007 20.6083 6.4834 20.4626 6.40007 20.288C6.31674 20.1126 6.30007 19.9166 6.35007 19.7L7.45007 14.975L3.77507 11.8C3.6084 11.65 3.5044 11.479 3.46307 11.287C3.42107 11.0956 3.4334 10.9083 3.50007 10.725C3.56674 10.5416 3.66674 10.3916 3.80007 10.275C3.9334 10.1583 4.11674 10.0833 4.35007 10.05L9.20007 9.62495L11.0751 5.17495C11.1584 4.97495 11.2877 4.82495 11.4631 4.72495C11.6377 4.62495 11.8167 4.57495 12.0001 4.57495C12.1834 4.57495 12.3627 4.62495 12.5381 4.72495C12.7127 4.82495 12.8417 4.97495 12.9251 5.17495L14.8001 9.62495L19.6501 10.05C19.8834 10.0833 20.0667 10.1583 20.2001 10.275C20.3334 10.3916 20.4334 10.5416 20.5001 10.725C20.5667 10.9083 20.5794 11.0956 20.5381 11.287C20.4961 11.479 20.3917 11.65 20.2251 11.8L16.5501 14.975L17.6501 19.7C17.7001 19.9166 17.6834 20.1126 17.6001 20.288C17.5167 20.4626 17.4001 20.6083 17.2501 20.725C17.1001 20.8416 16.9251 20.9083 16.7251 20.9249C16.5251 20.9416 16.3334 20.8916 16.1501 20.775L12.0001 18.275Z" fill="black"/>
</svg>
