<?xml version="1.0" encoding="UTF-8"?>
<svg width="11px" height="18px" viewBox="0 0 11 18" version="1.1" xmlns="http://www.w3.org/2000/svg" xmlns:xlink="http://www.w3.org/1999/xlink">
    <!-- Generator: Sketch 54.1 (76490) - https://sketchapp.com -->
    <title>Component / icon / 12px / suplink  </title>
    <desc>Created with Sketch.</desc>
    <defs>
        <path d="M16.4042799,17 L16.4042799,15.3750487 C16.4042799,15.2734624 16.4435534,15.1855439 16.5221656,15.1113756 C16.6008646,15.0372278 16.6939082,15 16.8014484,15 C16.9090103,15 17.0020539,15.0372278 17.080666,15.1113756 L19.8606277,17.7363474 C19.9392399,17.8105157 19.9786003,17.8984547 19.9786003,18 C19.9786003,18.1015453 19.9392399,18.1894022 19.8606277,18.2637142 L17.0806877,20.8886859 C17.0020539,20.9629158 16.9090103,21 16.8014701,21 C16.6939082,21 16.6008646,20.9629158 16.5221656,20.8886859 C16.4435534,20.8144561 16.4042799,20.7265992 16.4042799,20.6249718 L16.4042799,19 L10,19 C9.44771525,19 9,18.5522847 9,18 L9,4 C9,3.44771525 9.44771525,3 10,3 C10.5522847,3 11,3.44771525 11,4 L11,17 L16.4042799,17 Z" id="path-1"></path>
    </defs>
    <g id="Icons" stroke="none" stroke-width="1" fill="none" fill-rule="evenodd">
        <g id="Component-/-icon-/-12px-/-suplink--" transform="translate(-9.000000, -3.000000)">
            <g id="Component-/-icon-/-24px-/-suplink">
                <mask id="mask-2" fill="white">
                    <use xlink:href="#path-1"></use>
                </mask>
                <use id="Mask" fill="#1A1A1A" xlink:href="#path-1"></use>
            </g>
        </g>
    </g>
</svg>