<svg width="24" height="24" viewBox="0 0 24 24" xmlns="http://www.w3.org/2000/svg">
<path d="M13.0136 20.6742C12.8145 20.457 12.7102 20.2036 12.7008 19.914C12.6921 19.6244 12.7964 19.371 13.0136 19.1538L16.1357 16.0317H5.08597C4.77828 16.0317 4.52018 15.9274 4.31167 15.7189C4.10389 15.5111 4 15.2534 4 14.9457V4.08597C4 3.77828 4.10389 3.52018 4.31167 3.31167C4.52018 3.10389 4.77828 3 5.08597 3C5.39367 3 5.65176 3.10389 5.86027 3.31167C6.06805 3.52018 6.17195 3.77828 6.17195 4.08597V13.8597H16.1357L12.9864 10.7104C12.7873 10.5113 12.6834 10.2623 12.6748 9.96326C12.6653 9.66498 12.7692 9.40724 12.9864 9.19004C13.2036 8.97285 13.4617 8.8686 13.7607 8.87728C14.059 8.8867 14.3167 8.99095 14.5339 9.19004L19.5294 14.1855C19.638 14.2941 19.7151 14.4118 19.7607 14.5385C19.8056 14.6652 19.8281 14.8009 19.8281 14.9457C19.8281 15.0905 19.8056 15.2262 19.7607 15.3529C19.7151 15.4796 19.638 15.5973 19.5294 15.7059L14.5339 20.7014C14.3348 20.9005 14.0862 21 13.7879 21C13.4889 21 13.2308 20.8914 13.0136 20.6742V20.6742Z" fill="black"/>
</svg>
