<svg width="24" height="24" viewBox="0 0 24 24" xmlns="http://www.w3.org/2000/svg">
<path d="M13.3 20.275C13.1167 20.075 13.0207 19.8417 13.012 19.575C13.004 19.3083 13.1 19.075 13.3 18.875L16.175 16H6C5.71667 16 5.479 15.904 5.287 15.712C5.09567 15.5207 5 15.2833 5 15V5C5 4.71667 5.09567 4.479 5.287 4.287C5.479 4.09567 5.71667 4 6 4C6.28333 4 6.521 4.09567 6.713 4.287C6.90433 4.479 7 4.71667 7 5V14H16.175L13.275 11.1C13.0917 10.9167 12.996 10.6873 12.988 10.412C12.9793 10.1373 13.075 9.9 13.275 9.7C13.475 9.5 13.7127 9.404 13.988 9.412C14.2627 9.42067 14.5 9.51667 14.7 9.7L19.3 14.3C19.4 14.4 19.471 14.5083 19.513 14.625C19.5543 14.7417 19.575 14.8667 19.575 15C19.575 15.1333 19.5543 15.2583 19.513 15.375C19.471 15.4917 19.4 15.6 19.3 15.7L14.7 20.3C14.5167 20.4833 14.2877 20.575 14.013 20.575C13.7377 20.575 13.5 20.475 13.3 20.275Z" fill="black"/>
</svg>
