<?xml version="1.0" encoding="UTF-8"?>
<svg width="24px" height="24px" viewBox="0 0 24 24" version="1.1" xmlns="http://www.w3.org/2000/svg" xmlns:xlink="http://www.w3.org/1999/xlink">
    <!-- Generator: Sketch 50.2 (55047) - http://www.bohemiancoding.com/sketch -->
    <title>support</title>
    <desc>Created with Sketch.</desc>
    <defs></defs>
    <g id="Icons" stroke="none" stroke-width="1" fill-rule="evenodd">
        <g id="MC-icon-set" transform="translate(-170.000000, -1175.000000)">
            <g id="Support" transform="translate(170.000000, 1175.000000)">
                <path d="M14.700637,10.7322636 C14.4409304,11.1207268 14.0862173,11.4523632 13.6464963,11.7179761 C13.237066,11.9593734 12.9578265,12.1885362 12.8156966,12.399685 C12.676562,12.6062353 12.6060666,12.8781764 12.6060666,13.2077878 L12.6060666,13.7485059 L11.2234113,13.7485059 L11.2234113,13.0270563 C11.2187285,12.5663259 11.3330146,12.1607768 11.5630634,11.82277 C11.7894419,11.4900789 12.1431002,11.1799159 12.6142088,10.9008873 C12.9866828,10.6740448 13.2551645,10.4432366 13.4111741,10.2155925 C13.5633024,9.99351718 13.6404635,9.71170424 13.6404635,9.37804278 C13.6404635,8.99029686 13.5060117,8.67848856 13.2293457,8.42468816 C12.9539031,8.17206902 12.5757759,8.04398757 12.1055111,8.04398757 C11.6306479,8.04398757 11.2456863,8.1755284 10.9614265,8.43489755 C10.6776307,8.69388702 10.5167696,9.05210164 10.4833148,9.49971172 L10.4760164,9.59733375 L9.12242832,9.59733375 L9.12787051,9.48667576 C9.16470026,8.74079959 9.43693662,8.0984939 9.93715459,7.57760403 C10.4398194,7.05405633 11.1851472,6.78861217 12.1524237,6.78861217 C13.01845,6.78861217 13.732348,7.03060005 14.2742895,7.50786798 C14.8200278,7.98863748 15.0967361,8.59757281 15.0967361,9.31779893 C15.0967361,9.86319979 14.9634234,10.3391177 14.700637,10.7322636 Z M12.7463824,16.5626696 C12.5547243,16.7567324 12.3053536,16.855156 12.0051047,16.855156 C11.7051511,16.855156 11.4547679,16.7569012 11.2610004,16.5631337 C11.0672329,16.3693662 10.9689781,16.1190252 10.9689781,15.8190294 C10.9689781,15.5146039 11.0672329,15.262027 11.2610004,15.0682173 C11.4547679,14.8744498 11.7051511,14.776195 12.0051047,14.776195 C12.3053536,14.776195 12.5547243,14.8746186 12.7463824,15.0686814 C12.9376187,15.262491 13.0345657,15.5149414 13.0345657,15.8190294 C13.0345657,16.1186455 12.9376187,16.36886 12.7463824,16.5626696 Z M12.0002109,3 C7.02929223,3 3,7.02874379 3,11.9996625 C3,13.7617949 3.50658829,15.4051272 4.38138966,16.7929294 L3.33475834,20.6989073 L7.25516446,19.6486057 C8.63284161,20.5049711 10.2585395,21 12.0002109,21 C16.97075,21 21,16.9716359 21,11.9996625 C21,7.02874379 16.97075,3 12.0002109,3 Z" id="shape"></path>
            </g>
        </g>
    </g>
</svg>
