<svg width="24" height="24" viewBox="0 0 24 24" xmlns="http://www.w3.org/2000/svg">
<path d="M11.955 17.4C12.27 17.4 12.5364 17.2911 12.7542 17.0733C12.9714 16.8561 13.08 16.59 13.08 16.275C13.08 15.96 12.9714 15.6939 12.7542 15.4767C12.5364 15.2589 12.27 15.15 11.955 15.15C11.64 15.15 11.3736 15.2589 11.1558 15.4767C10.9386 15.6939 10.83 15.96 10.83 16.275C10.83 16.59 10.9386 16.8561 11.1558 17.0733C11.3736 17.2911 11.64 17.4 11.955 17.4ZM12.09 8.13C12.51 8.13 12.8475 8.2461 13.1025 8.4783C13.3575 8.7111 13.485 9.015 13.485 9.39C13.485 9.645 13.3989 9.9036 13.2267 10.1658C13.0539 10.4286 12.81 10.7025 12.495 10.9875C12.045 11.3775 11.715 11.7525 11.505 12.1125C11.295 12.4725 11.19 12.8325 11.19 13.1925C11.19 13.4025 11.2689 13.5786 11.4267 13.7208C11.5839 13.8636 11.7675 13.935 11.9775 13.935C12.1875 13.935 12.375 13.86 12.54 13.71C12.705 13.56 12.81 13.3725 12.855 13.1475C12.9 12.8925 13.0014 12.6564 13.1592 12.4392C13.3164 12.2214 13.575 11.94 13.935 11.595C14.4 11.16 14.7264 10.7625 14.9142 10.4025C15.1014 10.0425 15.195 9.645 15.195 9.21C15.195 8.445 14.9064 7.8186 14.3292 7.3308C13.7514 6.8436 13.005 6.6 12.09 6.6C11.46 6.6 10.9014 6.72 10.4142 6.96C9.9264 7.2 9.5475 7.5675 9.2775 8.0625C9.1725 8.2575 9.135 8.4486 9.165 8.6358C9.195 8.8236 9.3 8.9775 9.48 9.0975C9.675 9.2175 9.8889 9.255 10.1217 9.21C10.3539 9.165 10.545 9.0375 10.695 8.8275C10.86 8.6025 11.0589 8.43 11.2917 8.31C11.5239 8.19 11.79 8.13 12.09 8.13ZM12 21C10.77 21 9.6075 20.7636 8.5125 20.2908C7.4175 19.8186 6.4614 19.1775 5.6442 18.3675C4.8264 17.5575 4.1814 16.605 3.7092 15.51C3.2364 14.415 3 13.245 3 12C3 10.755 3.2364 9.585 3.7092 8.49C4.1814 7.395 4.8264 6.4425 5.6442 5.6325C6.4614 4.8225 7.4175 4.1811 8.5125 3.7083C9.6075 3.2361 10.77 3 12 3C13.26 3 14.4375 3.2361 15.5325 3.7083C16.6275 4.1811 17.58 4.8225 18.39 5.6325C19.2 6.4425 19.8375 7.395 20.3025 8.49C20.7675 9.585 21 10.755 21 12C21 13.245 20.7675 14.415 20.3025 15.51C19.8375 16.605 19.2 17.5575 18.39 18.3675C17.58 19.1775 16.6275 19.8186 15.5325 20.2908C14.4375 20.7636 13.26 21 12 21ZM12 19.2C14.01 19.2 15.7125 18.4989 17.1075 17.0967C18.5025 15.6939 19.2 13.995 19.2 12C19.2 10.005 18.5025 8.3061 17.1075 6.9033C15.7125 5.5011 14.01 4.8 12 4.8C10.035 4.8 8.3436 5.5011 6.9258 6.9033C5.5086 8.3061 4.8 10.005 4.8 12C4.8 13.995 5.5086 15.6939 6.9258 17.0967C8.3436 18.4989 10.035 19.2 12 19.2Z" fill="black"/>
</svg>
