<svg width="24" height="24" viewBox="0 0 24 24" fill="none" xmlns="http://www.w3.org/2000/svg">
<path d="M17 17V14C17 13.7167 17.096 13.479 17.288 13.287C17.4794 13.0957 17.7167 13 18 13C18.2834 13 18.5207 13.0917 18.712 13.275C18.904 13.4584 19 13.6917 19 13.975V18C19 18.2834 18.904 18.5207 18.712 18.712C18.5207 18.904 18.2834 19 18 19H6.85005L7.67505 19.8251C7.87505 20.0251 7.97938 20.2667 7.98805 20.55C7.99605 20.8334 7.90005 21.075 7.70005 21.275C7.50005 21.475 7.26272 21.5751 6.98805 21.5751C6.71272 21.5751 6.48338 21.4834 6.30005 21.3L3.70005 18.7001C3.51672 18.5167 3.42505 18.2834 3.42505 18C3.42505 17.7167 3.51672 17.4834 3.70005 17.3L6.27505 14.725C6.47505 14.525 6.71272 14.425 6.98805 14.425C7.26272 14.425 7.50005 14.525 7.70005 14.725C7.90005 14.925 8.00005 15.1627 8.00005 15.438C8.00005 15.7127 7.90005 15.95 7.70005 16.15L6.85005 17H17ZM7.00005 7.00005V10C7.00005 10.2834 6.90438 10.5207 6.71305 10.712C6.52105 10.904 6.28338 11 6.00005 11C5.71672 11 5.47905 10.9084 5.28705 10.725C5.09572 10.5417 5.00005 10.3084 5.00005 10.025V6.00005C5.00005 5.71672 5.09572 5.47905 5.28705 5.28705C5.47905 5.09572 5.71672 5.00005 6.00005 5.00005H17.15L16.325 4.17505C16.125 3.97505 16.021 3.73338 16.013 3.45005C16.0044 3.16672 16.1 2.92505 16.3 2.72505C16.5 2.52505 16.7377 2.42505 17.013 2.42505C17.2877 2.42505 17.5167 2.51672 17.7 2.70005L20.3 5.30005C20.4834 5.48338 20.5751 5.71672 20.5751 6.00005C20.5751 6.28338 20.4834 6.51672 20.3 6.70005L17.725 9.27505C17.525 9.47505 17.2877 9.57505 17.013 9.57505C16.7377 9.57505 16.5 9.47505 16.3 9.27505C16.1 9.07505 16 8.83738 16 8.56205C16 8.28738 16.1 8.05005 16.3 7.85005L17.15 7.00005H7.00005Z" fill="black"/>
</svg>