<svg width="24" height="24" viewBox="0 0 24 24" xmlns="http://www.w3.org/2000/svg">
<path d="M16.7598 16.6997V13.8799C16.7598 13.6136 16.85 13.3902 17.0305 13.2097C17.2103 13.0299 17.4334 12.9399 17.6997 12.9399C17.9661 12.9399 18.1891 13.0261 18.369 13.1984C18.5494 13.3708 18.6397 13.5901 18.6397 13.8564V17.6397C18.6397 17.906 18.5494 18.1291 18.369 18.3089C18.1891 18.4894 17.9661 18.5796 17.6997 18.5796H7.21932L7.99478 19.3551C8.18277 19.5431 8.28083 19.7702 8.28898 20.0366C8.2965 20.3029 8.20627 20.53 8.01828 20.718C7.83029 20.906 7.60721 21 7.34903 21C7.09023 21 6.87467 20.9138 6.70235 20.7415L4.25849 18.2977C4.08616 18.1253 4 17.906 4 17.6397C4 17.3734 4.08616 17.154 4.25849 16.9817L6.67885 14.5614C6.86684 14.3734 7.09023 14.2794 7.34903 14.2794C7.60721 14.2794 7.83029 14.3734 8.01828 14.5614C8.20627 14.7493 8.30026 14.9727 8.30026 15.2315C8.30026 15.4897 8.20627 15.7128 8.01828 15.9008L7.21932 16.6997H16.7598ZM7.36031 7.30026V10.1201C7.36031 10.3864 7.27039 10.6095 7.09055 10.7893C6.91008 10.9698 6.68668 11.0601 6.42037 11.0601C6.15405 11.0601 5.93065 10.9739 5.75018 10.8016C5.57034 10.6292 5.48042 10.4099 5.48042 10.1436V6.36031C5.48042 6.09399 5.57034 5.8706 5.75018 5.69013C5.93065 5.51029 6.15405 5.42037 6.42037 5.42037H16.9008L16.1253 4.64491C15.9373 4.45692 15.8396 4.22977 15.8321 3.96345C15.8239 3.69713 15.9138 3.46997 16.1018 3.28198C16.2898 3.09399 16.5132 3 16.772 3C17.0302 3 17.2454 3.08616 17.4178 3.25849L19.8616 5.70235C20.0339 5.87467 20.1201 6.09399 20.1201 6.36031C20.1201 6.62663 20.0339 6.84595 19.8616 7.01828L17.4413 9.43864C17.2533 9.62663 17.0302 9.72063 16.772 9.72063C16.5132 9.72063 16.2898 9.62663 16.1018 9.43864C15.9138 9.25065 15.8198 9.02726 15.8198 8.76846C15.8198 8.51029 15.9138 8.28721 16.1018 8.09922L16.9008 7.30026H7.36031Z" fill="black"/>
</svg>
