<svg width="24" height="24" viewBox="0 0 24 24" xmlns="http://www.w3.org/2000/svg">
<path d="M4.8 17.6H8.4V6.8H4.8V17.6ZM10.2 17.6H13.8V6.8H10.2V17.6ZM15.6 17.6H19.2V6.8H15.6V17.6ZM4.8 19.4C4.305 19.4 3.8814 19.2239 3.5292 18.8717C3.1764 18.5189 3 18.095 3 17.6V6.8C3 6.305 3.1764 5.8814 3.5292 5.5292C3.8814 5.1764 4.305 5 4.8 5H19.2C19.695 5 20.1189 5.1764 20.4717 5.5292C20.8239 5.8814 21 6.305 21 6.8V17.6C21 18.095 20.8239 18.5189 20.4717 18.8717C20.1189 19.2239 19.695 19.4 19.2 19.4H4.8Z" fill="black"/>
</svg>
