<svg width="24" height="24" viewBox="0 0 24 24" xmlns="http://www.w3.org/2000/svg">
<path d="M4.79641 18.121L4.03288 17.8066C3.56876 17.612 3.25826 17.2752 3.10136 16.7961C2.94386 16.317 2.96991 15.8454 3.17951 15.3813L4.79641 11.878V18.121ZM8.38953 20.0973C7.89548 20.0973 7.47239 19.9215 7.12026 19.57C6.76874 19.2178 6.59297 18.7948 6.59297 18.3007V12.911L8.97341 19.5134C9.01833 19.6182 9.06324 19.7194 9.10816 19.817C9.15307 19.914 9.21296 20.0074 9.28781 20.0973H8.38953ZM13.0157 20.0074C12.5366 20.1871 12.0725 20.1646 11.6233 19.9401C11.1742 19.7155 10.8598 19.3637 10.6801 18.8846L6.6828 7.92557C6.50314 7.44649 6.51812 6.97848 6.72771 6.52156C6.93731 6.06523 7.28165 5.75472 7.76074 5.59004L14.5427 3.11977C15.0218 2.94011 15.4859 2.96257 15.9351 3.18714C16.3842 3.41171 16.6986 3.76354 16.8783 4.24262L20.8756 15.2016C21.0553 15.6807 21.0403 16.1487 20.8307 16.6056C20.6211 17.062 20.2768 17.3725 19.7977 17.5372L13.0157 20.0074ZM11.0844 9.3179C11.3389 9.3179 11.5524 9.23167 11.7248 9.0592C11.8967 8.88733 11.9827 8.67413 11.9827 8.41962C11.9827 8.16511 11.8967 7.95162 11.7248 7.77915C11.5524 7.60728 11.3389 7.52134 11.0844 7.52134C10.8299 7.52134 10.6167 7.60728 10.4448 7.77915C10.2723 7.95162 10.1861 8.16511 10.1861 8.41962C10.1861 8.67413 10.2723 8.88733 10.4448 9.0592C10.6167 9.23167 10.8299 9.3179 11.0844 9.3179ZM12.3869 18.3007L19.1689 15.8304L15.1715 4.8265L8.38953 7.29677L12.3869 18.3007ZM8.38953 7.29677L15.1715 4.8265L8.38953 7.29677Z" fill="black"/>
</svg>
