<svg width="24" height="24" viewBox="0 0 24 24" xmlns="http://www.w3.org/2000/svg">
<path d="M3.97493 19.7999L3.12493 19.4499C2.60827 19.2332 2.2626 18.8582 2.08793 18.3249C1.9126 17.7916 1.9416 17.2666 2.17493 16.7499L3.97493 12.8499V19.7999ZM7.97493 21.9999C7.42493 21.9999 6.95393 21.8042 6.56193 21.4129C6.1706 21.0209 5.97493 20.5499 5.97493 19.9999V13.9999L8.62493 21.3499C8.67493 21.4666 8.72493 21.5792 8.77493 21.6879C8.82493 21.7959 8.8916 21.8999 8.97494 21.9999H7.97493ZM13.1249 21.8999C12.5916 22.0999 12.0749 22.0749 11.5749 21.8249C11.0749 21.5749 10.7249 21.1832 10.5249 20.6499L6.07493 8.44989C5.87493 7.91655 5.8916 7.39555 6.12493 6.88689C6.35827 6.37889 6.7416 6.03322 7.27493 5.84989L14.8249 3.09989C15.3583 2.89989 15.8749 2.92489 16.3749 3.17489C16.8749 3.42489 17.2249 3.81655 17.4249 4.34989L21.8749 16.5499C22.0749 17.0832 22.0583 17.6042 21.8249 18.1129C21.5916 18.6209 21.2083 18.9666 20.6749 19.1499L13.1249 21.8999ZM10.9749 9.99989C11.2583 9.99989 11.4959 9.90389 11.6879 9.71189C11.8793 9.52055 11.9749 9.28322 11.9749 8.99989C11.9749 8.71655 11.8793 8.47889 11.6879 8.28689C11.4959 8.09555 11.2583 7.99989 10.9749 7.99989C10.6916 7.99989 10.4543 8.09555 10.2629 8.28689C10.0709 8.47889 9.97494 8.71655 9.97494 8.99989C9.97494 9.28322 10.0709 9.52055 10.2629 9.71189C10.4543 9.90389 10.6916 9.99989 10.9749 9.99989ZM12.4249 19.9999L19.9749 17.2499L15.5249 4.99989L7.97493 7.74989L12.4249 19.9999ZM7.97493 7.74989L15.5249 4.99989L7.97493 7.74989Z" fill="black"/>
</svg>
