<svg width="24" height="24" viewBox="0 0 24 24" xmlns="http://www.w3.org/2000/svg">
<path d="M14.0388 20.4819C13.6934 20.8273 13.2653 21 12.7547 21C12.2441 21 11.816 20.8273 11.4706 20.4819L3.54068 12.5519C3.37547 12.3867 3.24421 12.1915 3.14688 11.9662C3.04896 11.7409 3 11.5006 3 11.2453V4.80225C3 4.30663 3.17662 3.8822 3.52986 3.52896C3.8825 3.17632 4.30663 3 4.80225 3H11.2453C11.5006 3 11.7409 3.04866 11.9662 3.14598C12.1915 3.2439 12.3867 3.37547 12.5519 3.54068L20.4819 11.4931C20.8273 11.8385 21 12.2627 21 12.7655C21 13.2689 20.8273 13.6934 20.4819 14.0388L14.0388 20.4819ZM12.7547 19.2203L19.1977 12.7772L11.2453 4.80225H4.80225V11.2453L12.7547 19.2203ZM7.05507 8.40676C7.43054 8.40676 7.74954 8.27519 8.01206 8.01206C8.27519 7.74954 8.40676 7.43054 8.40676 7.05507C8.40676 6.6796 8.27519 6.3606 8.01206 6.09807C7.74954 5.83494 7.43054 5.70338 7.05507 5.70338C6.6796 5.70338 6.3606 5.83494 6.09807 6.09807C5.83494 6.3606 5.70338 6.6796 5.70338 7.05507C5.70338 7.43054 5.83494 7.74954 6.09807 8.01206C6.3606 8.27519 6.6796 8.40676 7.05507 8.40676Z" fill="black"/>
</svg>
