<svg width="24" height="24" viewBox="0 0 24 24" fill="none" xmlns="http://www.w3.org/2000/svg">
<path d="M13 17C12.7167 17 12.4793 16.904 12.288 16.712C12.096 16.5207 12 16.2833 12 16C12 15.7167 12.096 15.479 12.288 15.287C12.4793 15.0957 12.7167 15 13 15H17C17.2833 15 17.5207 15.0957 17.712 15.287C17.904 15.479 18 15.7167 18 16C18 16.2833 17.904 16.5207 17.712 16.712C17.5207 16.904 17.2833 17 17 17H13ZM6.8 16.3C6.61667 16.1167 6.525 15.8833 6.525 15.6C6.525 15.3167 6.61667 15.0833 6.8 14.9L8.675 13L6.775 11.1C6.575 10.9 6.47933 10.6667 6.488 10.4C6.496 10.1333 6.6 9.9 6.8 9.7C7 9.51667 7.23333 9.42067 7.5 9.412C7.76667 9.404 8 9.5 8.2 9.7L10.8 12.3C10.9 12.4 10.971 12.5083 11.013 12.625C11.0543 12.7417 11.075 12.8667 11.075 13C11.075 13.1333 11.0543 13.2583 11.013 13.375C10.971 13.4917 10.9 13.6 10.8 13.7L8.2 16.3C8.01667 16.4833 7.78767 16.579 7.513 16.587C7.23767 16.5957 7 16.5 6.8 16.3ZM4 20C3.45 20 2.97933 19.8043 2.588 19.413C2.196 19.021 2 18.55 2 18V6C2 5.45 2.196 4.97933 2.588 4.588C2.97933 4.196 3.45 4 4 4H20C20.55 4 21.021 4.196 21.413 4.588C21.8043 4.97933 22 5.45 22 6V18C22 18.55 21.8043 19.021 21.413 19.413C21.021 19.8043 20.55 20 20 20H4ZM4 18H20V8H4V18Z" fill="black"/>
</svg>