<svg width="24" height="24" viewBox="0 0 24 24" xmlns="http://www.w3.org/2000/svg">
<path d="M12.9 16.7C12.645 16.7 12.4314 16.6136 12.2592 16.4408C12.0864 16.2686 12 16.055 12 15.8C12 15.545 12.0864 15.3311 12.2592 15.1583C12.4314 14.9861 12.645 14.9 12.9 14.9H16.5C16.755 14.9 16.9686 14.9861 17.1408 15.1583C17.3136 15.3311 17.4 15.545 17.4 15.8C17.4 16.055 17.3136 16.2686 17.1408 16.4408C16.9686 16.6136 16.755 16.7 16.5 16.7H12.9ZM7.32 16.07C7.155 15.905 7.0725 15.695 7.0725 15.44C7.0725 15.185 7.155 14.975 7.32 14.81L9.0075 13.1L7.2975 11.39C7.1175 11.21 7.0314 11 7.0392 10.76C7.0464 10.52 7.14 10.31 7.32 10.13C7.5 9.965 7.71 9.8786 7.95 9.8708C8.19 9.8636 8.4 9.95 8.58 10.13L10.92 12.47C11.01 12.56 11.0739 12.6575 11.1117 12.7625C11.1489 12.8675 11.1675 12.98 11.1675 13.1C11.1675 13.22 11.1489 13.3325 11.1117 13.4375C11.0739 13.5425 11.01 13.64 10.92 13.73L8.58 16.07C8.415 16.235 8.2089 16.3211 7.9617 16.3283C7.7139 16.3361 7.5 16.25 7.32 16.07ZM4.8 19.4C4.305 19.4 3.8814 19.2239 3.5292 18.8717C3.1764 18.5189 3 18.095 3 17.6V6.8C3 6.305 3.1764 5.8814 3.5292 5.5292C3.8814 5.1764 4.305 5 4.8 5H19.2C19.695 5 20.1189 5.1764 20.4717 5.5292C20.8239 5.8814 21 6.305 21 6.8V17.6C21 18.095 20.8239 18.5189 20.4717 18.8717C20.1189 19.2239 19.695 19.4 19.2 19.4H4.8ZM4.8 17.6H19.2V8.6H4.8V17.6Z" fill="black"/>
</svg>
