<svg width="24" height="24" viewBox="0 0 24 24" xmlns="http://www.w3.org/2000/svg">
<path d="M16.5 20.2C16.005 20.2 15.5814 20.0239 15.2292 19.6717C14.8764 19.3189 14.7 18.895 14.7 18.4V17.5H12.9C12.405 17.5 11.9814 17.3239 11.6292 16.9717C11.2764 16.6189 11.1 16.195 11.1 15.7V8.5H9.3V9.4C9.3 9.895 9.1236 10.3186 8.7708 10.6708C8.4186 11.0236 7.995 11.2 7.5 11.2H4.8C4.305 11.2 3.8814 11.0236 3.5292 10.6708C3.1764 10.3186 3 9.895 3 9.4V5.8C3 5.305 3.1764 4.8811 3.5292 4.5283C3.8814 4.1761 4.305 4 4.8 4H7.5C7.995 4 8.4186 4.1761 8.7708 4.5283C9.1236 4.8811 9.3 5.305 9.3 5.8V6.7H14.7V5.8C14.7 5.305 14.8764 4.8811 15.2292 4.5283C15.5814 4.1761 16.005 4 16.5 4H19.2C19.695 4 20.1189 4.1761 20.4717 4.5283C20.8239 4.8811 21 5.305 21 5.8V9.4C21 9.895 20.8239 10.3186 20.4717 10.6708C20.1189 11.0236 19.695 11.2 19.2 11.2H16.5C16.005 11.2 15.5814 11.0236 15.2292 10.6708C14.8764 10.3186 14.7 9.895 14.7 9.4V8.5H12.9V15.7H14.7V14.8C14.7 14.305 14.8764 13.8811 15.2292 13.5283C15.5814 13.1761 16.005 13 16.5 13H19.2C19.695 13 20.1189 13.1761 20.4717 13.5283C20.8239 13.8811 21 14.305 21 14.8V18.4C21 18.895 20.8239 19.3189 20.4717 19.6717C20.1189 20.0239 19.695 20.2 19.2 20.2H16.5ZM4.8 5.8V9.4V5.8ZM16.5 14.8V18.4V14.8ZM16.5 5.8V9.4V5.8ZM16.5 9.4H19.2V5.8H16.5V9.4ZM16.5 18.4H19.2V14.8H16.5V18.4ZM4.8 9.4H7.5V5.8H4.8V9.4Z" fill="black"/>
</svg>
