<svg width="24" height="24" viewBox="0 0 24 24" fill="none" xmlns="http://www.w3.org/2000/svg">
<path d="M17 21C16.45 21 15.9793 20.8043 15.588 20.413C15.196 20.021 15 19.55 15 19V18H13C12.45 18 11.9793 17.8043 11.588 17.413C11.196 17.021 11 16.55 11 16V8H9V9C9 9.55 8.804 10.0207 8.412 10.412C8.02067 10.804 7.55 11 7 11H4C3.45 11 2.97933 10.804 2.588 10.412C2.196 10.0207 2 9.55 2 9V5C2 4.45 2.196 3.979 2.588 3.587C2.97933 3.19567 3.45 3 4 3H7C7.55 3 8.02067 3.19567 8.412 3.587C8.804 3.979 9 4.45 9 5V6H15V5C15 4.45 15.196 3.979 15.588 3.587C15.9793 3.19567 16.45 3 17 3H20C20.55 3 21.021 3.19567 21.413 3.587C21.8043 3.979 22 4.45 22 5V9C22 9.55 21.8043 10.0207 21.413 10.412C21.021 10.804 20.55 11 20 11H17C16.45 11 15.9793 10.804 15.588 10.412C15.196 10.0207 15 9.55 15 9V8H13V16H15V15C15 14.45 15.196 13.979 15.588 13.587C15.9793 13.1957 16.45 13 17 13H20C20.55 13 21.021 13.1957 21.413 13.587C21.8043 13.979 22 14.45 22 15V19C22 19.55 21.8043 20.021 21.413 20.413C21.021 20.8043 20.55 21 20 21H17ZM4 5V9V5ZM17 15V19V15ZM17 5V9V5ZM17 9H20V5H17V9ZM17 19H20V15H17V19ZM4 9H7V5H4V9Z" fill="black"/>
</svg>