<svg width="24" height="24" viewBox="0 0 24 24" xmlns="http://www.w3.org/2000/svg">
<path d="M7.09091 18.0909C6.40909 18.0909 5.82955 17.8523 5.35227 17.375C4.875 16.8977 4.63636 16.3182 4.63636 15.6364C4.18636 15.6364 3.80127 15.4763 3.48109 15.1561C3.16036 14.8354 3 14.45 3 14V6.63636C3 6.18636 3.16036 5.80127 3.48109 5.48109C3.80127 5.16036 4.18636 5 4.63636 5H14.4545C14.9045 5 15.2899 5.16036 15.6106 5.48109C15.9308 5.80127 16.0909 6.18636 16.0909 6.63636V8.27273H18.1364C18.2727 8.27273 18.3955 8.3 18.5045 8.35455C18.6136 8.40909 18.7091 8.49091 18.7909 8.6L20.8364 11.3205C20.8909 11.3886 20.9318 11.4636 20.9591 11.5455C20.9864 11.6273 21 11.7159 21 11.8114V14.8182C21 15.05 20.9215 15.2442 20.7644 15.4007C20.6078 15.5578 20.4136 15.6364 20.1818 15.6364H19.3636C19.3636 16.3182 19.125 16.8977 18.6477 17.375C18.1705 17.8523 17.5909 18.0909 16.9091 18.0909C16.2273 18.0909 15.6477 17.8523 15.1705 17.375C14.6932 16.8977 14.4545 16.3182 14.4545 15.6364H9.54545C9.54545 16.3182 9.30682 16.8977 8.82955 17.375C8.35227 17.8523 7.77273 18.0909 7.09091 18.0909ZM7.09091 16.4545C7.32273 16.4545 7.51718 16.376 7.67427 16.2189C7.83082 16.0624 7.90909 15.8682 7.90909 15.6364C7.90909 15.4045 7.83082 15.2104 7.67427 15.0538C7.51718 14.8967 7.32273 14.8182 7.09091 14.8182C6.85909 14.8182 6.66464 14.8967 6.50755 15.0538C6.351 15.2104 6.27273 15.4045 6.27273 15.6364C6.27273 15.8682 6.351 16.0624 6.50755 16.2189C6.66464 16.376 6.85909 16.4545 7.09091 16.4545ZM4.63636 6.63636V14H5.29091C5.52273 13.7545 5.78864 13.5568 6.08864 13.4068C6.38864 13.2568 6.72273 13.1818 7.09091 13.1818C7.45909 13.1818 7.79318 13.2568 8.09318 13.4068C8.39318 13.5568 8.65909 13.7545 8.89091 14H14.4545V6.63636H4.63636ZM16.9091 16.4545C17.1409 16.4545 17.3351 16.376 17.4916 16.2189C17.6487 16.0624 17.7273 15.8682 17.7273 15.6364C17.7273 15.4045 17.6487 15.2104 17.4916 15.0538C17.3351 14.8967 17.1409 14.8182 16.9091 14.8182C16.6773 14.8182 16.4831 14.8967 16.3265 15.0538C16.1695 15.2104 16.0909 15.4045 16.0909 15.6364C16.0909 15.8682 16.1695 16.0624 16.3265 16.2189C16.4831 16.376 16.6773 16.4545 16.9091 16.4545ZM16.0909 12.3636H19.5682L17.7273 9.90909H16.0909V12.3636Z" fill="black"/>
</svg>
