<?xml version="1.0" encoding="UTF-8"?>
<svg width="24px" height="24px" viewBox="0 0 24 24" version="1.1" xmlns="http://www.w3.org/2000/svg" xmlns:xlink="http://www.w3.org/1999/xlink">
    <!-- Generator: sketchtool 45.2 (43514) - http://www.bohemiancoding.com/sketch -->
    <title>truck</title>
    <desc>Created with sketchtool.</desc>
    <defs></defs>
    <g id="Icons" stroke="none" stroke-width="1" fill-rule="evenodd">
        <g id="MC-icon-set" transform="translate(-96.000000, -408.000000)" fill="#000000">
            <g id="Switch-states" transform="translate(24.000000, 408.000000)">
                <g id="Truck" transform="translate(72.000000, 0.000000)">
                    <path d="M20.190752,14.3076923 C19.8226765,13.1292875 18.7227538,12.2740385 17.4230769,12.2740385 C16.1234001,12.2740385 15.0234773,13.1292875 14.6554018,14.3076923 L13.3846154,14.3076923 L13.3846154,7.38461538 L15.8156031,7.3734929 C17.7293995,7.36473672 18.96398,8.45457272 18.5769231,9.80769231 L20.1661144,10.869146 C20.6213942,11.1732368 21,11.8773389 21,12.4339512 L21,14.3076923 L20.190752,14.3076923 Z M10.440752,14.3076923 C10.0726765,13.1292875 8.97275377,12.2740385 7.67307692,12.2740385 C6.37340007,12.2740385 5.27347733,13.1292875 4.90540184,14.3076923 L3,14.3076923 L3,10.0078392 C3,7.79437075 4.80033395,6 6.99819038,6 L12.6923077,6 L12.6923077,14.3076923 L10.440752,14.3076923 Z M7.67307692,17.4230769 C6.43043624,17.4230769 5.42307692,16.4157176 5.42307692,15.1730769 C5.42307692,13.9304362 6.43043624,12.9230769 7.67307692,12.9230769 C8.91571761,12.9230769 9.92307692,13.9304362 9.92307692,15.1730769 C9.92307692,16.4157176 8.91571761,17.4230769 7.67307692,17.4230769 Z M17.4230769,17.4230769 C16.1804362,17.4230769 15.1730769,16.4157176 15.1730769,15.1730769 C15.1730769,13.9304362 16.1804362,12.9230769 17.4230769,12.9230769 C18.6657176,12.9230769 19.6730769,13.9304362 19.6730769,15.1730769 C19.6730769,16.4157176 18.6657176,17.4230769 17.4230769,17.4230769 Z" id="shape"></path>
                </g>
            </g>
        </g>
    </g>
</svg>