<svg width="24" height="24" viewBox="0 0 24 24" xmlns="http://www.w3.org/2000/svg">
<path d="M3 18.0909V15.8C3 15.3364 3.11945 14.9101 3.35836 14.5212C3.59673 14.1328 3.91364 13.8364 4.30909 13.6318C5.15455 13.2091 6.01364 12.8919 6.88636 12.6803C7.75909 12.4692 8.64545 12.3636 9.54545 12.3636C10.4455 12.3636 11.3318 12.4692 12.2045 12.6803C13.0773 12.8919 13.9364 13.2091 14.7818 13.6318C15.1773 13.8364 15.4942 14.1328 15.7325 14.5212C15.9715 14.9101 16.0909 15.3364 16.0909 15.8V18.0909H3ZM17.7273 18.0909V15.6364C17.7273 15.0364 17.5604 14.4601 17.2265 13.9075C16.8922 13.3555 16.4182 12.8818 15.8045 12.4864C16.5 12.5682 17.1545 12.7078 17.7682 12.9053C18.3818 13.1033 18.9545 13.3455 19.4864 13.6318C19.9773 13.9045 20.3523 14.2078 20.6114 14.5416C20.8705 14.876 21 15.2409 21 15.6364V18.0909H17.7273ZM9.54545 11.5455C8.64545 11.5455 7.875 11.225 7.23409 10.5841C6.59318 9.94318 6.27273 9.17273 6.27273 8.27273C6.27273 7.37273 6.59318 6.60227 7.23409 5.96136C7.875 5.32045 8.64545 5 9.54545 5C10.4455 5 11.2159 5.32045 11.8568 5.96136C12.4977 6.60227 12.8182 7.37273 12.8182 8.27273C12.8182 9.17273 12.4977 9.94318 11.8568 10.5841C11.2159 11.225 10.4455 11.5455 9.54545 11.5455ZM17.7273 8.27273C17.7273 9.17273 17.4068 9.94318 16.7659 10.5841C16.125 11.225 15.3545 11.5455 14.4545 11.5455C14.3045 11.5455 14.1136 11.5285 13.8818 11.4947C13.65 11.4604 13.4591 11.4227 13.3091 11.3818C13.6773 10.9455 13.9601 10.4614 14.1575 9.92954C14.3555 9.39773 14.4545 8.84545 14.4545 8.27273C14.4545 7.7 14.3555 7.14773 14.1575 6.61591C13.9601 6.08409 13.6773 5.6 13.3091 5.16364C13.5 5.09545 13.6909 5.051 13.8818 5.03027C14.0727 5.01009 14.2636 5 14.4545 5C15.3545 5 16.125 5.32045 16.7659 5.96136C17.4068 6.60227 17.7273 7.37273 17.7273 8.27273ZM4.63636 16.4545H14.4545V15.8C14.4545 15.65 14.4172 15.5136 14.3425 15.3909C14.2672 15.2682 14.1682 15.1727 14.0455 15.1045C13.3091 14.7364 12.5659 14.4601 11.8159 14.2757C11.0659 14.0919 10.3091 14 9.54545 14C8.78182 14 8.025 14.0919 7.275 14.2757C6.525 14.4601 5.78182 14.7364 5.04545 15.1045C4.92273 15.1727 4.824 15.2682 4.74927 15.3909C4.674 15.5136 4.63636 15.65 4.63636 15.8V16.4545ZM9.54545 9.90909C9.99545 9.90909 10.3808 9.74873 10.7015 9.428C11.0217 9.10782 11.1818 8.72273 11.1818 8.27273C11.1818 7.82273 11.0217 7.43764 10.7015 7.11745C10.3808 6.79673 9.99545 6.63636 9.54545 6.63636C9.09545 6.63636 8.71036 6.79673 8.39018 7.11745C8.06945 7.43764 7.90909 7.82273 7.90909 8.27273C7.90909 8.72273 8.06945 9.10782 8.39018 9.428C8.71036 9.74873 9.09545 9.90909 9.54545 9.90909Z" fill="#000"/>
</svg>
