<svg width="24" height="24" viewBox="0 0 24 24" xmlns="http://www.w3.org/2000/svg">
<path d="M12 12C10.7625 12 9.70313 11.5594 8.82188 10.6781C7.94063 9.79687 7.5 8.7375 7.5 7.5C7.5 6.2625 7.94063 5.20313 8.82188 4.32188C9.70313 3.44063 10.7625 3 12 3C13.2375 3 14.2969 3.44063 15.1781 4.32188C16.0594 5.20313 16.5 6.2625 16.5 7.5C16.5 8.7375 16.0594 9.79687 15.1781 10.6781C14.2969 11.5594 13.2375 12 12 12ZM18.75 21H5.25C4.63125 21 4.10175 20.7799 3.6615 20.3396C3.2205 19.8986 3 19.3688 3 18.75V17.85C3 17.2125 3.16425 16.6264 3.49275 16.0916C3.8205 15.5576 4.25625 15.15 4.8 14.8688C5.9625 14.2875 7.14375 13.8514 8.34375 13.5604C9.54375 13.2701 10.7625 13.125 12 13.125C13.2375 13.125 14.4562 13.2701 15.6562 13.5604C16.8563 13.8514 18.0375 14.2875 19.2 14.8688C19.7437 15.15 20.1795 15.5576 20.5073 16.0916C20.8358 16.6264 21 17.2125 21 17.85V18.75C21 19.3688 20.7799 19.8986 20.3396 20.3396C19.8986 20.7799 19.3688 21 18.75 21ZM5.25 18.75H18.75V17.85C18.75 17.6438 18.6986 17.4563 18.5959 17.2875C18.4924 17.1188 18.3563 16.9875 18.1875 16.8938C17.175 16.3875 16.1531 16.0076 15.1219 15.7541C14.0906 15.5014 13.05 15.375 12 15.375C10.95 15.375 9.90938 15.5014 8.87813 15.7541C7.84688 16.0076 6.825 16.3875 5.8125 16.8938C5.64375 16.9875 5.508 17.1188 5.40525 17.2875C5.30175 17.4563 5.25 17.6438 5.25 17.85V18.75ZM12 9.75C12.6188 9.75 13.1486 9.5295 13.5896 9.0885C14.0299 8.64825 14.25 8.11875 14.25 7.5C14.25 6.88125 14.0299 6.35175 13.5896 5.9115C13.1486 5.4705 12.6188 5.25 12 5.25C11.3812 5.25 10.8518 5.4705 10.4115 5.9115C9.9705 6.35175 9.75 6.88125 9.75 7.5C9.75 8.11875 9.9705 8.64825 10.4115 9.0885C10.8518 9.5295 11.3812 9.75 12 9.75Z" fill="black"/>
</svg>
