<svg width="24" height="24" viewBox="0 0 24 24" xmlns="http://www.w3.org/2000/svg">
<path d="M13 13C11.7625 13 10.7031 12.5594 9.82188 11.6781C8.94063 10.7969 8.5 9.7375 8.5 8.5C8.5 7.2625 8.94063 6.20313 9.82188 5.32188C10.7031 4.44063 11.7625 4 13 4C14.2375 4 15.2969 4.44063 16.1781 5.32188C17.0594 6.20313 17.5 7.2625 17.5 8.5C17.5 9.7375 17.0594 10.7969 16.1781 11.6781C15.2969 12.5594 14.2375 13 13 13ZM6.25 22C5.63125 22 5.10175 21.7799 4.6615 21.3396C4.2205 20.8986 4 20.3688 4 19.75V18.85C4 18.2125 4.16425 17.6264 4.49275 17.0916C4.8205 16.5576 5.25625 16.15 5.8 15.8688C6.9625 15.2875 8.14375 14.8514 9.34375 14.5604C10.5438 14.2701 11.7625 14.125 13 14.125C14.2375 14.125 15.4562 14.2701 16.6562 14.5604C17.8563 14.8514 19.0375 15.2875 20.2 15.8688C20.7437 16.15 21.1795 16.5576 21.5073 17.0916C21.8358 17.6264 22 18.2125 22 18.85V19.75C22 20.3688 21.7799 20.8986 21.3396 21.3396C20.8986 21.7799 20.3688 22 19.75 22H6.25Z" fill="black"/>
</svg>
