<svg width="24" height="24" viewBox="0 0 24 24" fill="none" xmlns="http://www.w3.org/2000/svg">
<path d="M6.69995 19.3002L3.94995 18.7002C3.69995 18.6502 3.49995 18.5209 3.34995 18.3122C3.19995 18.1042 3.14162 17.8752 3.17495 17.6252L3.44995 14.8002L1.57495 12.6502C1.40828 12.4669 1.32495 12.2502 1.32495 12.0002C1.32495 11.7502 1.40828 11.5335 1.57495 11.3502L3.44995 9.20021L3.17495 6.37521C3.14162 6.12521 3.19995 5.89621 3.34995 5.68821C3.49995 5.47954 3.69995 5.35021 3.94995 5.30021L6.69995 4.70021L8.14995 2.25021C8.28328 2.03354 8.46662 1.89187 8.69995 1.82521C8.93328 1.75854 9.16662 1.76687 9.39995 1.85021L12 2.95021L14.6 1.85021C14.8333 1.76687 15.0666 1.75854 15.3 1.82521C15.5333 1.89187 15.7166 2.03354 15.85 2.25021L17.3 4.70021L20.0499 5.30021C20.2999 5.35021 20.5 5.47954 20.65 5.68821C20.7999 5.89621 20.8583 6.12521 20.825 6.37521L20.5499 9.20021L22.4249 11.3502C22.5916 11.5335 22.6749 11.7502 22.6749 12.0002C22.6749 12.2502 22.5916 12.4669 22.4249 12.6502L20.5499 14.8002L20.825 17.6252C20.8583 17.8752 20.7999 18.1042 20.65 18.3122C20.5 18.5209 20.2999 18.6502 20.0499 18.7002L17.3 19.3002L15.85 21.7502C15.7166 21.9669 15.5333 22.1085 15.3 22.1752C15.0666 22.2419 14.8333 22.2335 14.6 22.1502L12 21.0502L9.39995 22.1502C9.16662 22.2335 8.93328 22.2419 8.69995 22.1752C8.46662 22.1085 8.28328 21.9669 8.14995 21.7502L6.69995 19.3002ZM10.25 14.8502C10.4333 15.0335 10.6666 15.1252 10.95 15.1252C11.2333 15.1252 11.4666 15.0335 11.65 14.8502L15.9 10.6002C16.1 10.4002 16.2 10.1625 16.2 9.88721C16.2 9.61254 16.1 9.37521 15.9 9.17521C15.7 8.97521 15.4626 8.87521 15.188 8.87521C14.9126 8.87521 14.675 8.97521 14.475 9.17521L10.95 12.7002L9.49995 11.2752C9.29995 11.0919 9.06262 11.0042 8.78795 11.0122C8.51262 11.0209 8.28329 11.1169 8.09995 11.3002C7.91662 11.4835 7.82495 11.7169 7.82495 12.0002C7.82495 12.2835 7.91662 12.5169 8.09995 12.7002L10.25 14.8502Z" fill="black"/>
</svg>