<svg width="24" height="24" viewBox="0 0 24 24" xmlns="http://www.w3.org/2000/svg">
<path d="M7.73362 18.4289L5.31177 17.9005C5.0916 17.8565 4.91547 17.7426 4.78336 17.5588C4.65126 17.3756 4.59989 17.174 4.62925 16.9538L4.87143 14.4659L3.22017 12.5724C3.07339 12.411 3 12.2202 3 12C3 11.7798 3.07339 11.589 3.22017 11.4276L4.87143 9.53411L4.62925 7.04621C4.59989 6.82604 4.65126 6.62437 4.78336 6.44119C4.91547 6.25742 5.0916 6.14352 5.31177 6.09948L7.73362 5.57108L9.0106 3.41343C9.12802 3.22261 9.28948 3.09785 9.49497 3.03914C9.70046 2.98043 9.90595 2.98777 10.1114 3.06116L12.4012 4.0299L14.6909 3.06116C14.8964 2.98777 15.1019 2.98043 15.3074 3.03914C15.5129 3.09785 15.6744 3.22261 15.7918 3.41343L17.0688 5.57108L19.4906 6.09948C19.7108 6.14352 19.8869 6.25742 20.019 6.44119C20.1511 6.62437 20.2025 6.82604 20.1731 7.04621L19.931 9.53411L21.5822 11.4276C21.729 11.589 21.8024 11.7798 21.8024 12C21.8024 12.2202 21.729 12.411 21.5822 12.5724L19.931 14.4659L20.1731 16.9538C20.2025 17.174 20.1511 17.3756 20.019 17.5588C19.8869 17.7426 19.7108 17.8565 19.4906 17.9005L17.0688 18.4289L15.7918 20.5866C15.6744 20.7774 15.5129 20.9021 15.3074 20.9609C15.1019 21.0196 14.8964 21.0122 14.6909 20.9388L12.4012 19.9701L10.1114 20.9388C9.90595 21.0122 9.70046 21.0196 9.49497 20.9609C9.28948 20.9021 9.12802 20.7774 9.0106 20.5866L7.73362 18.4289ZM10.86 14.5099C11.0215 14.6714 11.227 14.7521 11.4765 14.7521C11.726 14.7521 11.9315 14.6714 12.093 14.5099L15.8358 10.7671C16.012 10.5909 16.1 10.3816 16.1 10.1391C16.1 9.89724 16.012 9.68823 15.8358 9.5121C15.6597 9.33596 15.4507 9.24789 15.2088 9.24789C14.9663 9.24789 14.757 9.33596 14.5809 9.5121L11.4765 12.6165L10.1995 11.3615C10.0234 11.2001 9.81436 11.1228 9.57247 11.1299C9.32999 11.1375 9.12802 11.2221 8.96657 11.3835C8.80511 11.545 8.72438 11.7505 8.72438 12C8.72438 12.2495 8.80511 12.455 8.96657 12.6165L10.86 14.5099Z" fill="black"/>
</svg>
