<?xml version="1.0" encoding="UTF-8"?>
<svg width="25px" height="24px" viewBox="0 0 25 24" version="1.1" xmlns="http://www.w3.org/2000/svg" xmlns:xlink="http://www.w3.org/1999/xlink">
  <title>Component / icon / 24px / custom dashboard</title>
  <g id="Page-1" stroke="none" stroke-width="1" fill="none" fill-rule="evenodd">
    <g id="Component-/-icon-/-24px-/-custom-dashboard" transform="translate(0.500000, 0.000000)" fill="#1A1A1A" fill-rule="nonzero">
      <path d="M11,13.9 L11,19.9 C11,20.4522847 10.5522847,20.9 10,20.9 L4,20.9 C3.44771525,20.9 3,20.4522847 3,19.9 L3,13.9 C3,13.3477153 3.44771525,12.9 4,12.9 L10,12.9 C10.5522847,12.9 11,13.3477153 11,13.9 Z M11,4 L11,10 C11,10.5522847 10.5522847,11 10,11 L4,11 C3.44771525,11 3,10.5522847 3,10 L3,4 C3,3.44771525 3.44771525,3 4,3 L10,3 C10.5522847,3 11,3.44771525 11,4 Z M21,4 L21,10 C21,10.5522847 20.5522847,11 20,11 L14,11 C13.4477153,11 13,10.5522847 13,10 L13,4 C13,3.44771525 13.4477153,3 14,3 L20,3 C20.5522847,3 21,3.44771525 21,4 Z" id="Rectangle-3"></path>
      <path d="M18,14 L18,15.999 L18,15.999 L20.0000001,15.9996667 C20.5521545,16.0001841 20.9996666,16.4478454 21,17 C21,17.5522847 20.5522847,18 20,18 L18,18 L18,18 L18,20 C18,20.5522847 17.5522847,21 17,21 C16.4477153,21 16,20.5522847 16,20 L16,18 L16,18 L14,18 C13.4477153,18 13,17.5522847 13,17 C13,16.4477153 13.4477153,16 14,16 L16,16 L16,16 L16,14 C16,13.4477153 16.4477153,13 17,13 C17.5522847,13 18,13.4477153 18,14 Z" id="Rectangle-2"></path>
    </g>
  </g>
</svg>
