<svg width="24" height="24" viewBox="0 0 24 24" xmlns="http://www.w3.org/2000/svg">
<path d="M3.86602 19.7856C3.52984 19.7856 3.28136 19.6395 3.12058 19.3471C2.95981 19.0548 2.95981 18.7625 3.12058 18.4702L11.2326 4.43849C11.3934 4.14616 11.6492 4 12 4C12.3508 4 12.6066 4.14616 12.7674 4.43849L20.8794 18.4702C21.0402 18.7625 21.0402 19.0548 20.8794 19.3471C20.7186 19.6395 20.4702 19.7856 20.134 19.7856H3.86602ZM12 10.1389C11.7515 10.1389 11.5434 10.2228 11.3756 10.3905C11.2072 10.5589 11.123 10.7674 11.123 11.0158V13.6468C11.123 13.8952 11.2072 14.1034 11.3756 14.2712C11.5434 14.4396 11.7515 14.5238 12 14.5238C12.2485 14.5238 12.4569 14.4396 12.6253 14.2712C12.7931 14.1034 12.877 13.8952 12.877 13.6468V11.0158C12.877 10.7674 12.7931 10.5589 12.6253 10.3905C12.4569 10.2228 12.2485 10.1389 12 10.1389ZM12 17.1547C12.2485 17.1547 12.4569 17.0705 12.6253 16.9021C12.7931 16.7343 12.877 16.5262 12.877 16.2777C12.877 16.0292 12.7931 15.8211 12.6253 15.6533C12.4569 15.4849 12.2485 15.4007 12 15.4007C11.7515 15.4007 11.5434 15.4849 11.3756 15.6533C11.2072 15.8211 11.123 16.0292 11.123 16.2777C11.123 16.5262 11.2072 16.7343 11.3756 16.9021C11.5434 17.0705 11.7515 17.1547 12 17.1547ZM5.37881 18.0317H18.6212L12 6.63094L5.37881 18.0317Z" fill="black"/>
</svg>
