<?xml version="1.0" encoding="UTF-8"?>
<svg width="12" height="12" viewBox="0 0 12 12" xmlns="http://www.w3.org/2000/svg">
<path d="M1.28571 12C0.932143 12 0.629464 11.8741 0.377678 11.6223C0.125893 11.3705 0 11.0679 0 10.7143V1.28571C0 0.932143 0.125893 0.629465 0.377678 0.377679C0.629464 0.125893 0.932143 0 1.28571 0H10.7143C11.0679 0 11.3705 0.125893 11.6223 0.377679C11.8741 0.629465 12 0.932143 12 1.28571V10.7143C12 11.0679 11.8741 11.3705 11.6223 11.6223C11.3705 11.8741 11.0679 12 10.7143 12H1.28571ZM1.28571 10.7143H10.7143V2.57143H1.28571V10.7143ZM5.99793 9.21429C5.11836 9.21429 4.33333 8.97322 3.64286 8.49107C2.95238 8.00893 2.45238 7.39286 2.14286 6.64286C2.45238 5.89286 2.95307 5.27679 3.64493 4.79464C4.33679 4.3125 5.1225 4.07143 6.00207 4.07143C6.88164 4.07143 7.66667 4.3125 8.35714 4.79464C9.04762 5.27679 9.54762 5.89286 9.85714 6.64286C9.54762 7.39286 9.04693 8.00893 8.35507 8.49107C7.66321 8.97322 6.8775 9.21429 5.99793 9.21429ZM6 8.35714C6.63095 8.35714 7.20167 8.20571 7.71216 7.90286C8.22266 7.6 8.62218 7.18 8.91072 6.64286C8.62218 6.10571 8.22266 5.68571 7.71216 5.38286C7.20167 5.08 6.63095 4.92857 6 4.92857C5.36905 4.92857 4.79833 5.08 4.28784 5.38286C3.77734 5.68571 3.37782 6.10571 3.08929 6.64286C3.37782 7.18 3.77734 7.6 4.28784 7.90286C4.79833 8.20571 5.36905 8.35714 6 8.35714ZM6 7.71429C6.29762 7.71429 6.5506 7.61012 6.75893 7.40179C6.96726 7.19345 7.07143 6.94048 7.07143 6.64286C7.07143 6.34524 6.96726 6.09226 6.75893 5.88393C6.5506 5.6756 6.29762 5.57143 6 5.57143C5.70238 5.57143 5.44941 5.6756 5.24107 5.88393C5.03274 6.09226 4.92857 6.34524 4.92857 6.64286C4.92857 6.94048 5.03274 7.19345 5.24107 7.40179C5.44941 7.61012 5.70238 7.71429 6 7.71429Z" fill="#545878"/>
</svg>
