<?xml version="1.0" encoding="UTF-8"?>
<svg width="24px" height="24px" viewBox="0 0 24 24" version="1.1" xmlns="http://www.w3.org/2000/svg" xmlns:xlink="http://www.w3.org/1999/xlink">
    <!-- Generator: sketchtool 45.2 (43514) - http://www.bohemiancoding.com/sketch -->
    <title>world</title>
    <desc>Created with sketchtool.</desc>
    <defs></defs>
    <g id="Icons" stroke="none" stroke-width="1" fill-rule="evenodd">
        <g id="MC-icon-set" transform="translate(-96.000000, -24.000000)" fill="#000000">
            <g id="Application" transform="translate(24.000000, 24.000000)">
                <g id="World" transform="translate(72.000000, 0.000000)">
                    <path d="M19.708022,7.35948195 L19.708022,7.35114908 L19.7032604,7.35114908 C18.1247933,4.74534031 15.2624826,3 11.9998016,3 C7.03723299,3 3,7.03747589 3,12.0000992 C3,13.6942519 3.47119899,15.2800772 4.28840685,16.6347644 L4.28840685,16.6486525 L4.29654123,16.6486525 C5.87500827,19.2546597 8.73731896,21 12.0001984,21 C16.962767,21 21,16.9625241 21,12.0000992 C20.9998016,10.3035657 20.5274122,8.7153596 19.708022,7.35948195 L19.708022,7.35948195 Z M13.5159712,20.2651199 C13.1187752,20.3379333 12.7118577,20.3827721 12.297401,20.3972554 L12.297401,16.6488509 L16.1249256,16.6488509 C15.5330997,18.3128465 14.6254216,19.6107909 13.5159712,20.2651199 L13.5159712,20.2651199 Z M7.874876,16.6488509 L11.7022022,16.6488509 L11.7022022,20.3974538 C11.2879439,20.3829705 10.8812248,20.3381317 10.4840288,20.2655167 C9.3745784,19.6107909 8.46670194,18.3128465 7.874876,16.6488509 L7.874876,16.6488509 Z M10.4832352,3.73488013 C10.8806296,3.66206669 11.2875471,3.61722789 11.7022022,3.60274456 L11.7022022,7.35114908 L7.874876,7.35114908 C8.46670194,5.68755029 9.3739832,4.38960595 10.4832352,3.73488013 L10.4832352,3.73488013 Z M16.1247272,7.35114908 L12.297401,7.35114908 L12.297401,3.60274456 C12.7122545,3.61722789 13.1193704,3.66206669 13.5167648,3.73507853 C14.6260168,4.38980435 15.5332981,5.68755029 16.1247272,7.35114908 L16.1247272,7.35114908 Z M16.3183652,7.94635437 C16.6548509,9.08299807 16.8516632,10.3603086 16.8770584,11.7024966 L12.297401,11.7024966 L12.297401,7.94635437 L16.3183652,7.94635437 L16.3183652,7.94635437 Z M11.7022022,7.94635437 L11.7022022,11.7024966 L7.1227432,11.7024966 C7.14813835,10.3603086 7.34495073,9.08279967 7.68143641,7.94635437 L11.7022022,7.94635437 L11.7022022,7.94635437 Z M6.52754447,11.7024966 L3.60273791,11.7024966 C3.65035381,10.3444365 4.02017062,9.06752273 4.6401693,7.94635437 L7.06798492,7.94635437 C6.74201442,9.09648939 6.55214602,10.3708239 6.52754447,11.7024966 L6.52754447,11.7024966 Z M6.52754447,12.2977018 C6.55214602,13.6293745 6.74201442,14.9035106 7.06798492,16.0536456 L4.6401693,16.0536456 C4.02017062,14.9326757 3.65035381,13.6555635 3.60273791,12.2977018 L6.52754447,12.2977018 L6.52754447,12.2977018 Z M7.1227432,12.2977018 L11.7024006,12.2977018 L11.7024006,16.0536456 L7.68123801,16.0536456 C7.34475233,14.9172003 7.14813835,13.6398898 7.1227432,12.2977018 L7.1227432,12.2977018 Z M12.297401,16.0536456 L12.297401,12.2977018 L16.8770584,12.2977018 C16.8514649,13.6398898 16.6548509,14.9170019 16.3185636,16.0536456 L12.297401,16.0536456 L12.297401,16.0536456 Z M17.4720587,12.2977018 L20.3968653,12.2977018 C20.3492494,13.6555635 19.9794326,14.9324773 19.3594339,16.0536456 L16.9318167,16.0536456 C17.2575888,14.9035106 17.4474572,13.6293745 17.4720587,12.2977018 L17.4720587,12.2977018 Z M17.4720587,11.7024966 C17.4474572,10.3708239 17.2575888,9.09648939 16.9316183,7.94635437 L19.3592355,7.94635437 C19.9792342,9.06752273 20.349051,10.3444365 20.3966669,11.7024966 L17.4720587,11.7024966 L17.4720587,11.7024966 Z M18.9973547,7.35114908 L16.7473051,7.35114908 C16.3060644,6.04566547 15.6822961,4.93084596 14.9214338,4.11977955 C16.5965214,4.74276109 18.0206336,5.88555525 18.9973547,7.35114908 L18.9973547,7.35114908 Z M9.07856623,4.11958115 C8.31770386,4.93064756 7.69373719,6.04566547 7.25249653,7.35114908 L5.00224853,7.35114908 C5.97916804,5.88555525 7.40308181,4.74276109 9.07856623,4.11958115 L9.07856623,4.11958115 Z M5.00224853,16.6488509 L7.25249653,16.6488509 C7.69373719,17.9545329 8.31770386,19.0695508 9.07896303,19.8806172 C7.40328021,19.2574373 5.97916804,18.1144448 5.00224853,16.6488509 L5.00224853,16.6488509 Z M14.9212354,19.8804188 C15.6822961,19.0695508 16.3062628,17.9545329 16.7473051,16.6488509 L18.9975531,16.6488509 C18.0206336,18.1144448 16.5965214,19.2572389 14.9212354,19.8804188 L14.9212354,19.8804188 Z" id="shape"></path>
                </g>
            </g>
        </g>
    </g>
</svg>