<svg width="24" height="24" viewBox="0 0 24 24" xmlns="http://www.w3.org/2000/svg">
<path d="M12 21C10.77 21 9.6075 20.7636 8.5125 20.2908C7.4175 19.8186 6.4614 19.1736 5.6442 18.3558C4.8264 17.5386 4.1814 16.5825 3.7092 15.4875C3.2364 14.3925 3 13.23 3 12C3 10.755 3.2364 9.5889 3.7092 8.5017C4.1814 7.4139 4.8264 6.4614 5.6442 5.6442C6.4614 4.8264 7.4175 4.1811 8.5125 3.7083C9.6075 3.2361 10.77 3 12 3C13.245 3 14.4111 3.2361 15.4983 3.7083C16.5861 4.1811 17.5386 4.8264 18.3558 5.6442C19.1736 6.4614 19.8186 7.4139 20.2908 8.5017C20.7636 9.5889 21 10.755 21 12C21 13.23 20.7636 14.3925 20.2908 15.4875C19.8186 16.5825 19.1736 17.5386 18.3558 18.3558C17.5386 19.1736 16.5861 19.8186 15.4983 20.2908C14.4111 20.7636 13.245 21 12 21ZM12 19.155C12.39 18.615 12.7275 18.0525 13.0125 17.4675C13.2975 16.8825 13.53 16.26 13.71 15.6H10.29C10.47 16.26 10.7025 16.8825 10.9875 17.4675C11.2725 18.0525 11.61 18.615 12 19.155V19.155ZM9.66 18.795C9.39 18.3 9.1539 17.7861 8.9517 17.2533C8.7489 16.7211 8.58 16.17 8.445 15.6H5.79C6.225 16.35 6.7686 17.0025 7.4208 17.5575C8.0736 18.1125 8.82 18.525 9.66 18.795ZM14.34 18.795C15.18 18.525 15.9261 18.1125 16.5783 17.5575C17.2311 17.0025 17.775 16.35 18.21 15.6H15.555C15.42 16.17 15.2514 16.7211 15.0492 17.2533C14.8464 17.7861 14.61 18.3 14.34 18.795V18.795ZM5.025 13.8H8.085C8.04 13.5 8.0061 13.2036 7.9833 12.9108C7.9611 12.6186 7.95 12.315 7.95 12C7.95 11.685 7.9611 11.3814 7.9833 11.0892C8.0061 10.7964 8.04 10.5 8.085 10.2H5.025C4.95 10.5 4.8936 10.7964 4.8558 11.0892C4.8186 11.3814 4.8 11.685 4.8 12C4.8 12.315 4.8186 12.6186 4.8558 12.9108C4.8936 13.2036 4.95 13.5 5.025 13.8ZM9.885 13.8H14.115C14.16 13.5 14.1939 13.2036 14.2167 12.9108C14.2389 12.6186 14.25 12.315 14.25 12C14.25 11.685 14.2389 11.3814 14.2167 11.0892C14.1939 10.7964 14.16 10.5 14.115 10.2H9.885C9.84 10.5 9.8064 10.7964 9.7842 11.0892C9.7614 11.3814 9.75 11.685 9.75 12C9.75 12.315 9.7614 12.6186 9.7842 12.9108C9.8064 13.2036 9.84 13.5 9.885 13.8ZM15.915 13.8H18.975C19.05 13.5 19.1064 13.2036 19.1442 12.9108C19.1814 12.6186 19.2 12.315 19.2 12C19.2 11.685 19.1814 11.3814 19.1442 11.0892C19.1064 10.7964 19.05 10.5 18.975 10.2H15.915C15.96 10.5 15.9936 10.7964 16.0158 11.0892C16.0386 11.3814 16.05 11.685 16.05 12C16.05 12.315 16.0386 12.6186 16.0158 12.9108C15.9936 13.2036 15.96 13.5 15.915 13.8ZM15.555 8.4H18.21C17.775 7.65 17.2311 6.9975 16.5783 6.4425C15.9261 5.8875 15.18 5.475 14.34 5.205C14.61 5.7 14.8464 6.2136 15.0492 6.7458C15.2514 7.2786 15.42 7.83 15.555 8.4V8.4ZM10.29 8.4H13.71C13.53 7.74 13.2975 7.1175 13.0125 6.5325C12.7275 5.9475 12.39 5.385 12 4.845C11.61 5.385 11.2725 5.9475 10.9875 6.5325C10.7025 7.1175 10.47 7.74 10.29 8.4ZM5.79 8.4H8.445C8.58 7.83 8.7489 7.2786 8.9517 6.7458C9.1539 6.2136 9.39 5.7 9.66 5.205C8.82 5.475 8.0736 5.8875 7.4208 6.4425C6.7686 6.9975 6.225 7.65 5.79 8.4Z" fill="black"/>
</svg>
