<?xml version="1.0" encoding="UTF-8"?>
<svg width="16px" height="16px" viewBox="0 0 16 16" version="1.1" xmlns="http://www.w3.org/2000/svg" xmlns:xlink="http://www.w3.org/1999/xlink">
    <!-- Generator: Sketch 55.2 (78181) - https://sketchapp.com -->
    <title>Component / icon / 16px / Richtext / Bold </title>
    <desc>Created with Sketch.</desc>
    <g id="Component-/-icon-/-16px-/-Richtext-/-Bold-" stroke="none" stroke-width="1" fill="none" fill-rule="evenodd">
        <g fill="#1A1A1A" id="B">
            <path d="M4,2 L7.73242188,2 C9.43321163,2 10.6677696,2.24198977 11.4361328,2.72597656 C12.204496,3.20996336 12.5886719,3.97968222 12.5886719,5.03515625 C12.5886719,5.75156608 12.4205095,6.33945083 12.0841797,6.79882813 C11.7478499,7.25820542 11.300784,7.53437454 10.7429688,7.62734375 L10.7429688,7.709375 C11.5031288,7.8789071 12.0513655,8.19609143 12.3876953,8.6609375 C12.7240251,9.12578357 12.8921875,9.74374614 12.8921875,10.5148438 C12.8921875,11.6085992 12.4970743,12.4617157 11.7068359,13.0742187 C10.9165976,13.6867218 9.84336616,13.9929687 8.48710938,13.9929687 L4,13.9929687 L4,2 Z M6.54296875,6.74960938 L8.01953125,6.74960938 C8.7085972,6.74960938 9.20761564,6.64296982 9.51660156,6.4296875 C9.82558748,6.21640518 9.98007812,5.86367434 9.98007812,5.37148438 C9.98007812,4.91210708 9.81191574,4.58261819 9.47558594,4.38300781 C9.13925613,4.18339744 8.60742551,4.08359375 7.88007813,4.08359375 L6.54296875,4.08359375 L6.54296875,6.74960938 Z M6.54296875,8.76757812 L6.54296875,11.8929688 L8.2,11.8929688 C8.9000035,11.8929688 9.41679521,11.7589857 9.75039063,11.4910156 C10.083986,11.2230455 10.2507813,10.8128934 10.2507813,10.2605469 C10.2507813,9.2652294 9.53985086,8.76757812 8.11796875,8.76757812 L6.54296875,8.76757812 Z"></path>
        </g>
    </g>
</svg>