<?xml version="1.0" encoding="UTF-8"?>
<svg width="16px" height="16px" viewBox="0 0 16 16" version="1.1" xmlns="http://www.w3.org/2000/svg" xmlns:xlink="http://www.w3.org/1999/xlink">
    <!-- Generator: Sketch 55.2 (78181) - https://sketchapp.com -->
    <title>Component / icon / 16px / Richtext / Bullet-list</title>
    <desc>Created with Sketch.</desc>
    <defs>
        <path d="M4.62504105,6 C4.72658986,6 4.81447023,6.0370644 4.88868214,6.1111932 C4.96289405,6.18548619 5,6.27340639 5,6.37499487 L5,8.62500513 C5,8.72651151 4.96293509,8.81443172 4.88868214,8.88868366 C4.81447023,8.96285351 4.72658986,9 4.62504105,9 L2.37495895,9 C2.27341014,9 2.18557082,8.96268932 2.11131786,8.88868366 C2.03706491,8.8145959 2,8.72651151 2,8.62500513 L2,6.37499487 C2,6.27340639 2.03706491,6.18548619 2.11131786,6.1111932 C2.18552977,6.03694126 2.27341014,6 2.37495895,6 L4.62504105,6 Z M4.62504105,10 C4.72658986,10 4.81447023,10.0372296 4.88868214,10.1114015 C4.96289405,10.1857375 5,10.2736602 5,10.3750872 L5,12.625077 C5,12.7267914 4.96293509,12.814714 4.88868214,12.8888858 C4.81447023,12.9632219 4.72658986,13 4.62504105,13 L2.37495895,13 C2.27341014,13 2.18557082,12.9630988 2.11131786,12.8888858 C2.03706491,12.814714 2,12.7267914 2,12.625077 L2,10.3750872 C2,10.2736602 2.03710595,10.1854502 2.11131786,10.1114015 C2.18552977,10.0373527 2.27341014,10 2.37495895,10 L4.62504105,10 Z M4.62504105,2 C4.72658986,2 4.81447023,2.03726963 4.88868214,2.11131634 C4.96289405,2.18556828 5,2.27340639 5,2.37499487 L5,4.62500513 C5,4.72659361 4.96293509,4.81443172 4.88868214,4.88868366 C4.81447023,4.96305874 4.72658986,5 4.62504105,5 L2.37495895,5 C2.27341014,5 2.18557082,4.9629356 2.11131786,4.88868366 C2.03706491,4.81443172 2,4.72659361 2,4.62500513 L2,2.37499487 C2,2.27344744 2.03710595,2.18556828 2.11131786,2.11131634 C2.18552977,2.0370644 2.27341014,2 2.37495895,2 L4.62504105,2 Z M13.8181651,11 C13.8674597,11 13.9100278,11.0124509 13.9460684,11.0371338 C13.9820294,11.0619125 14,11.0912201 14,11.1250291 L14,11.8750257 C14,11.9089305 13.9820892,11.938238 13.9460684,11.9629619 C13.9100278,11.9877406 13.8674796,12 13.8181651,12 L6.18179511,12 C6.13250048,12 6.08997216,11.9876996 6.05397136,11.9629619 C6.01797055,11.938238 6,11.9089305 6,11.8750257 L6,11.1250291 C6,11.0912201 6.01799045,11.0618167 6.05397136,11.0371338 C6.08995226,11.0124509 6.13256018,11 6.18179511,11 L13.8181651,11 Z M13.9460684,3.03710545 C13.9820095,3.06185609 13.9999801,3.09114915 14,3.12499829 L14,3.87500171 C14,3.90886454 13.9820892,3.93814391 13.9460684,3.96289455 C13.9100278,3.98768625 13.8674796,4 13.8181651,4 L6.18179511,4 C6.13250048,4 6.08997216,3.9876452 6.05397136,3.96289455 C6.01797055,3.93814391 6,3.90886454 6,3.87500171 L6,3.12499829 C6,3.09113546 6.01799045,3.06185609 6.05397136,3.03710545 C6.08995226,3.0123548 6.13256018,3 6.18179511,3 L13.8181651,3 C13.8674796,3 13.9100278,3.01240953 13.9460684,3.03710545 Z M13.8181651,7 C13.8674597,7 13.9100278,7.0123548 13.9460684,7.0370644 C13.9820294,7.06182873 14,7.09113546 14,7.12499829 L14,7.87500171 C14,7.90883717 13.9820892,7.93814391 13.9460684,7.96289455 C13.9100278,7.98761784 13.8674796,8 13.8181651,8 L6.18179511,8 C6.13250048,8 6.08997216,7.98756311 6.05397136,7.96289455 C6.01797055,7.93814391 6,7.90883717 6,7.87500171 L6,7.12499829 C6,7.09113546 6.01797055,7.06182873 6.05397136,7.0370644 C6.08995226,7.01231375 6.13256018,7 6.18179511,7 L13.8181651,7 Z" id="path-1"></path>
    </defs>
    <g id="Component-/-icon-/-16px-/-Richtext-/-Bullet-list" stroke="none" stroke-width="1" fill="none" fill-rule="evenodd">
        <g>
            <mask id="mask-2" fill="white">
                <use xlink:href="#path-1"></use>
            </mask>
            <use id="shape" fill="#1A1A1A" xlink:href="#path-1"></use>
        </g>
    </g>
</svg>