<?xml version="1.0" encoding="UTF-8"?>
<svg width="16px" height="16px" viewBox="0 0 16 16" version="1.1" xmlns="http://www.w3.org/2000/svg" xmlns:xlink="http://www.w3.org/1999/xlink">
    <!-- Generator: Sketch 55.2 (78181) - https://sketchapp.com -->
    <title>Component / icon / 16px / Richtext / Expand</title>
    <desc>Created with Sketch.</desc>
    <g id="Component-/-icon-/-16px-/-Richtext-/-Expand" stroke="none" stroke-width="1" fill="none" fill-rule="evenodd">
        <g id="Component-/-icon-/-16px-/-Richtext-/-Indent" fill="#1A1A1A">
            <g id="full-size-copy-3" transform="translate(2.000000, 2.000000)">
                <path d="M0.473008151,4.10534698 C0.211718448,4.10534698 9.1038288e-14,3.89353868 9.1038288e-14,3.63234208 L9.1038288e-14,0.473067977 C9.1038288e-14,0.211808302 0.211718448,-2.26485497e-14 0.473008151,-2.26485497e-14 L3.63200886,-2.26485497e-14 C3.89329856,-2.26485497e-14 4.10501701,0.211808302 4.10501701,0.473067977 C4.10501701,0.734327652 3.89323549,0.946135954 3.63200886,0.946135954 L1.61478676,0.946135954 L4.66140073,3.99244142 C4.84618924,4.17712716 4.84618924,4.47667381 4.6614638,4.66142262 C4.5691326,4.75382857 4.44804252,4.8 4.32695243,4.8 C4.20592541,4.8 4.08489839,4.75382857 3.99250413,4.6614857 L0.946016302,1.6152433 L0.946016302,3.632279 C0.946016302,3.89353868 0.734297854,4.10534698 0.473008151,4.10534698 Z M11.5360012,7.9738613 C11.7922181,7.9738613 11.9999381,8.18158937 12,8.43781619 L12,11.5360451 C12,11.7922719 11.7923418,12 11.536063,12 L8.43783019,12 C8.18155142,12 7.97389324,11.7922719 7.97389324,11.5360451 C7.97389324,11.2798183 8.18155142,11.0720902 8.43783019,11.0720902 L10.4158718,11.0720902 L7.33588713,7.99198647 C7.15470429,7.81085848 7.15470429,7.51708224 7.33588713,7.33589239 C7.51706998,7.15470254 7.810773,7.15470254 7.99201771,7.33589239 L11.0720642,10.416058 L11.0720642,8.43781619 C11.0720642,8.18158937 11.2797224,7.9738613 11.5360012,7.9738613 Z M4.0079275,7.3358964 C4.18918651,7.15471151 4.48297459,7.15471151 4.66404801,7.33583454 C4.84530702,7.51701943 4.84530702,7.81078762 4.66410987,7.99197251 L1.58406766,11.0721156 L3.56232728,11.0721156 C3.81862628,11.0721156 4.02630086,11.279838 4.02630086,11.5360578 C4.02630086,11.7922776 3.81856442,12 3.56232728,12 L0.463973579,12 C0.207674574,12 9.1038288e-14,11.7922776 9.1038288e-14,11.5360578 L9.1038288e-14,8.43779003 C9.1038288e-14,8.18157022 0.207674574,7.97384784 0.463973579,7.97384784 C0.720272584,7.97384784 0.927947158,8.18157022 0.927947158,8.43779003 L0.927947158,10.4159158 L4.0079275,7.3358964 Z M11.5268915,-2.26485497e-14 C11.7881387,-2.26485497e-14 11.9999369,0.211731315 12,0.473036897 L12,3.63204037 C12,3.89328288 11.7882649,4.10507726 11.5269546,4.10507726 C11.2656443,4.10507726 11.0539091,3.89328288 11.0539091,3.63204037 L11.0539091,1.61501104 L8.0076226,4.66143173 C7.91522106,4.75376853 7.79412143,4.8 7.67308486,4.8 C7.5520483,4.8 7.43094867,4.7538316 7.3386102,4.6614948 C7.15380711,4.47675812 7.15380711,4.17723116 7.33854713,3.99249448 L10.3848336,0.946073794 L8.36783094,0.946073794 C8.10652064,0.946073794 7.8947855,0.734279407 7.8947855,0.473036897 C7.8947855,0.211794387 8.10652064,-2.26485497e-14 8.36783094,-2.26485497e-14 L11.5268915,-2.26485497e-14 Z" id="Combined-Shape"></path>
            </g>
        </g>
    </g>
</svg>