<?xml version="1.0" encoding="UTF-8"?>
<svg width="24px" height="24px" viewBox="0 0 24 24" version="1.1" xmlns="http://www.w3.org/2000/svg" xmlns:xlink="http://www.w3.org/1999/xlink">
    <!-- Generator: Sketch 57.1 (83088) - https://sketch.com -->
    <title>Component / icon / 24px / Richtext / more-styles</title>
    <desc>Created with Sketch.</desc>
    <defs>
        <path d="M9.26147461,8.05664063 C10.4714416,8.05664063 11.654047,8.30273191 12.8093262,8.79492188 L12.2043457,10.1791992 C11.0764104,9.71435314 10.0544479,9.48193359 9.13842773,9.48193359 C8.33178308,9.48193359 7.72339072,9.60839717 7.31323242,9.86132813 C6.90307412,10.1142591 6.69799805,10.4628884 6.69799805,10.9072266 C6.69799805,11.2080093 6.77490157,11.4643544 6.92871094,11.6762695 C7.0825203,11.8881847 7.33032056,12.0898428 7.67211914,12.28125 C8.01391772,12.4726572 8.67016116,12.7495099 9.64086914,13.1118164 C9.99623343,13.2412055 10.3208685,13.3708369 10.6147747,13.500711 L13.5,13.5 L13.5,14.75 L12.4928045,14.7501458 C12.8610471,15.2120067 13.045166,15.7733144 13.045166,16.434082 C13.045166,17.4799857 12.6555215,18.2866183 11.8762207,18.8540039 C11.0969199,19.4213896 10.0031809,19.7050781 8.5949707,19.7050781 C7.10472888,19.7050781 5.94263112,19.4692406 5.10864258,18.9975586 L5.10864258,17.418457 C5.64868434,17.6918959 6.22802425,17.9072258 6.84667969,18.0644531 C7.46533512,18.2216805 8.06176471,18.300293 8.63598633,18.300293 C9.52466265,18.300293 10.2082496,18.1584487 10.6867676,17.8747559 C11.1652856,17.591063 11.404541,17.1586943 11.404541,16.5776367 C11.404541,16.1401345 11.2148456,15.7658707 10.8354492,15.454834 C10.5802396,15.2456081 10.1618688,15.0108658 9.58033,14.7506038 L4.5,14.75 L4.5,13.5 L6.66433686,13.5004577 C6.56073206,13.442664 6.46770446,13.3866033 6.38525391,13.3322754 C5.94433373,13.0417466 5.61621201,12.7119159 5.40087891,12.3427734 C5.1855458,11.973631 5.07788086,11.5327174 5.07788086,11.0200195 C5.07788086,10.1039993 5.45043573,9.38110616 6.19555664,8.85131836 C6.94067755,8.32153055 7.96263999,8.05664063 9.26147461,8.05664063 Z M20.5311891,10.5 C20.6581721,10.5 20.7680701,10.5492878 20.8607805,10.6479452 C20.9534652,10.7467117 21,10.8634803 21,10.9984421 C21,11.0996839 20.9738242,11.1906767 20.9216349,11.2714666 L20.8607805,11.3488572 L17.5795657,14.8376792 C17.4868553,14.9363366 17.3769317,14.9857335 17.25,14.9857335 C17.1548012,14.9857335 17.0692272,14.9579478 16.9932022,14.9024338 L16.9203573,14.8376792 L13.6391426,11.3488845 C13.5463552,11.2501998 13.5,11.1334312 13.5,10.9984694 C13.5,10.8634803 13.5463552,10.7467117 13.6391426,10.6479452 C13.7087331,10.5739521 13.7879051,10.5277295 13.8767342,10.5092427 L13.9687853,10.5 L20.5311891,10.5 Z M13.4553223,3.40576172 L14.25,4.70947266 L15.052002,3.40576172 L16.3190918,3.40576172 L14.986084,5.40893555 L16.3813477,7.5 L15.1105957,7.5 L14.25,6.09741211 L13.3857422,7.5 L12.1186523,7.5 L13.5065918,5.40893555 L12.1882324,3.40576172 L13.4553223,3.40576172 Z" id="path-1"></path>
    </defs>
    <g id="Component-/-icon-/-24px-/-Richtext-/-more-styles" stroke="none" stroke-width="1" fill="none" fill-rule="evenodd">
        <g id="Component-/-icon-/-16px-/-Richtext-/-Strike-trough">
            <mask id="mask-2" fill="white">
                <use xlink:href="#path-1"></use>
            </mask>
            <use id="Combined-Shape" fill="#1A1A1A" xlink:href="#path-1"></use>
        </g>
    </g>
</svg>