<?xml version="1.0" encoding="UTF-8"?>
<svg width="16px" height="16px" viewBox="0 0 16 16" version="1.1" xmlns="http://www.w3.org/2000/svg" xmlns:xlink="http://www.w3.org/1999/xlink">
    <!-- Generator: Sketch 55.2 (78181) - https://sketchapp.com -->
    <title>Component / icon / 16px / Richtext / more-styles</title>
    <desc>Created with Sketch.</desc>
    <defs>
        <path d="M6.38598717,9.83333333 L3,9.83333333 L3,9 L4.4423444,9 C4.37349399,8.96157869 4.31165787,8.92430657 4.25683594,8.88818359 C3.96288916,8.69449773 3.74414134,8.47461061 3.60058594,8.22851563 C3.45703053,7.98242064 3.38525391,7.68847827 3.38525391,7.34667969 C3.38525391,6.73599955 3.63362382,6.25407078 4.13037109,5.90087891 C4.62711837,5.54768704 5.30842666,5.37109375 6.17431641,5.37109375 C6.98096106,5.37109375 7.76936464,5.53515461 8.53955078,5.86328125 L8.13623047,6.78613281 C7.38427358,6.47623543 6.70296529,6.32128906 6.09228516,6.32128906 C5.55452205,6.32128906 5.14892715,6.40559812 4.87548828,6.57421875 C4.60204941,6.74283938 4.46533203,6.97525894 4.46533203,7.27148438 C4.46533203,7.47200621 4.51660105,7.64290294 4.61914062,7.78417969 C4.7216802,7.92545644 4.88688037,8.0598952 5.11474609,8.1875 C5.34261182,8.3151048 5.78010744,8.49967327 6.42724609,8.74121094 C6.66372329,8.82731289 6.87978902,8.91357585 7.0754436,9 L9,9 L9,9.83333333 L8.32845881,9.83333333 C8.57400559,10.141259 8.69677734,10.5154966 8.69677734,10.9560547 C8.69677734,11.6533238 8.43701432,12.1910788 7.91748047,12.5693359 C7.39794662,12.947593 6.66878725,13.1367188 5.72998047,13.1367188 C4.73648592,13.1367188 3.96175408,12.9794938 3.40576172,12.6650391 L3.40576172,11.6123047 C3.76578956,11.7945973 4.15201617,11.9381505 4.56445312,12.0429688 C4.97689008,12.147787 5.3745098,12.2001953 5.75732422,12.2001953 C6.3497751,12.2001953 6.80549971,12.1056325 7.12451172,11.9165039 C7.44352373,11.7273754 7.60302734,11.4391295 7.60302734,11.0517578 C7.60302734,10.7600897 7.47656376,10.5105805 7.22363281,10.3032227 C7.05336152,10.1636309 6.77414781,10.0070018 6.38598717,9.83333333 Z M13.907187,7.09863011 C13.9689768,7.16447444 14,7.24232022 14,7.33229474 C14,7.42228745 13.9689768,7.50013323 13.907187,7.56590482 L11.7197105,9.89178617 C11.6579036,9.95755776 11.5846211,9.99048901 11.5,9.99048901 C11.4153789,9.99048901 11.3421649,9.95755776 11.2802382,9.89178617 L9.09276171,7.565923 C9.03090347,7.50013323 9,7.42228745 9,7.33231293 C9,7.24232022 9.03090347,7.16447444 9.09276171,7.09863011 C9.15461996,7.03285852 9.22783399,7 9.31252352,7 L13.6874594,7 C13.7721147,7 13.84538,7.03285852 13.907187,7.09863011 Z M9.00439453,3.60595703 L8.12548828,2.27050781 L8.97021484,2.27050781 L9.5,3.13964844 L10.034668,2.27050781 L10.8793945,2.27050781 L9.99072266,3.60595703 L10.9208984,5 L10.0737305,5 L9.5,4.06494141 L8.92382812,5 L8.07910156,5 L9.00439453,3.60595703 Z" id="path-1"></path>
    </defs>
    <g id="Component-/-icon-/-16px-/-Richtext-/-more-styles" stroke="none" stroke-width="1" fill="none" fill-rule="evenodd">
        <g id="Component-/-icon-/-16px-/-Richtext-/-Strike-trough">
            <mask id="mask-2" fill="white">
                <use xlink:href="#path-1"></use>
            </mask>
            <use id="Combined-Shape" fill="#1A1A1A" xlink:href="#path-1"></use>
        </g>
    </g>
</svg>