<?xml version="1.0" encoding="UTF-8"?>
<svg width="16px" height="16px" viewBox="0 0 16 16" version="1.1" xmlns="http://www.w3.org/2000/svg" xmlns:xlink="http://www.w3.org/1999/xlink">
    <!-- Generator: Sketch 55.2 (78181) - https://sketchapp.com -->
    <title>Component / icon / 16px / Richtext / Number-list</title>
    <desc>Created with Sketch.</desc>
    <g id="Component-/-icon-/-16px-/-Richtext-/-Number-list" stroke="none" stroke-width="1" fill="none" fill-rule="evenodd">
        <g fill="#1A1A1A" id="Combined-Shape">
            <path d="M13.8181651,11 C13.8674597,11 13.9100278,11.0124509 13.9460684,11.0371338 C13.9820294,11.0619125 14,11.0912201 14,11.1250291 L14,11.8750257 C14,11.9089305 13.9820892,11.938238 13.9460684,11.9629619 C13.9100278,11.9877406 13.8674796,12 13.8181651,12 L6.18179511,12 C6.13250048,12 6.08997216,11.9876996 6.05397136,11.9629619 C6.01797055,11.938238 6,11.9089305 6,11.8750257 L6,11.1250291 C6,11.0912201 6.01799045,11.0618167 6.05397136,11.0371338 C6.08995226,11.0124509 6.13256018,11 6.18179511,11 L13.8181651,11 Z M13.9460684,3.03710545 C13.9820095,3.06185609 13.9999801,3.09114915 14,3.12499829 L14,3.87500171 C14,3.90886454 13.9820892,3.93814391 13.9460684,3.96289455 C13.9100278,3.98768625 13.8674796,4 13.8181651,4 L6.18179511,4 C6.13250048,4 6.08997216,3.9876452 6.05397136,3.96289455 C6.01797055,3.93814391 6,3.90886454 6,3.87500171 L6,3.12499829 C6,3.09113546 6.01799045,3.06185609 6.05397136,3.03710545 C6.08995226,3.0123548 6.13256018,3 6.18179511,3 L13.8181651,3 C13.8674796,3 13.9100278,3.01240953 13.9460684,3.03710545 Z M13.8181651,7 C13.8674597,7 13.9100278,7.0123548 13.9460684,7.0370644 C13.9820294,7.06182873 14,7.09113546 14,7.12499829 L14,7.87500171 C14,7.90883717 13.9820892,7.93814391 13.9460684,7.96289455 C13.9100278,7.98761784 13.8674796,8 13.8181651,8 L6.18179511,8 C6.13250048,8 6.08997216,7.98756311 6.05397136,7.96289455 C6.01797055,7.93814391 6,7.90883717 6,7.87500171 L6,7.12499829 C6,7.09113546 6.01797055,7.06182873 6.05397136,7.0370644 C6.08995226,7.01231375 6.13256018,7 6.18179511,7 L13.8181651,7 Z M4.01074219,5 L3.40722656,5 L3.40722656,3.34765625 L3.41308594,3.07617188 L3.42285156,2.77929688 C3.32259064,2.87955779 3.25292988,2.94531234 3.21386719,2.9765625 L2.88574219,3.24023438 L2.59472656,2.87695312 L3.51464844,2.14453125 L4.01074219,2.14453125 L4.01074219,5 Z M4.51464844,9 L2.51855469,9 L2.51855469,8.58007812 L3.23535156,7.85546875 C3.44759221,7.63801975 3.5862627,7.48730511 3.65136719,7.40332031 C3.71647168,7.31933552 3.76334621,7.24153682 3.79199219,7.16992188 C3.82063816,7.09830693 3.83496094,7.02408893 3.83496094,6.94726562 C3.83496094,6.83268172 3.80338573,6.74739611 3.74023438,6.69140625 C3.67708302,6.63541639 3.59277396,6.60742188 3.48730469,6.60742188 C3.37662705,6.60742188 3.26920625,6.63281225 3.16503906,6.68359375 C3.06087188,6.73437525 2.952149,6.80664016 2.83886719,6.90039062 L2.51074219,6.51171875 C2.65136789,6.39192648 2.76790318,6.30729191 2.86035156,6.2578125 C2.95279994,6.20833309 3.05371039,6.17024753 3.16308594,6.14355469 C3.27246148,6.11686185 3.39485609,6.10351562 3.53027344,6.10351562 C3.70865975,6.10351562 3.86621025,6.13606738 4.00292969,6.20117188 C4.13964912,6.26627637 4.24576785,6.35742129 4.32128906,6.47460938 C4.39681027,6.59179746 4.43457031,6.7259107 4.43457031,6.87695312 C4.43457031,7.0084642 4.41145856,7.13183536 4.36523438,7.24707031 C4.31901019,7.36230526 4.24739632,7.48046814 4.15039062,7.6015625 C4.05338493,7.72265686 3.8824882,7.89518117 3.63769531,8.11914062 L3.27050781,8.46484375 L3.27050781,8.4921875 L4.51464844,8.4921875 L4.51464844,9 Z M4.40332031,10.7832031 C4.40332031,10.9615894 4.34928439,11.1132806 4.24121094,11.2382812 C4.13313748,11.3632819 3.98144629,11.4492185 3.78613281,11.4960938 L3.78613281,11.5078125 C4.01660271,11.5364585 4.19108014,11.6064448 4.30957031,11.7177734 C4.42806049,11.8291021 4.48730469,11.9791657 4.48730469,12.1679688 C4.48730469,12.4427097 4.38769631,12.6565748 4.18847656,12.8095703 C3.98925682,12.9625659 3.70475445,13.0390625 3.33496094,13.0390625 C3.02506355,13.0390625 2.75032672,12.9876307 2.51074219,12.8847656 L2.51074219,12.3710938 C2.62141982,12.4270836 2.7431634,12.4726561 2.87597656,12.5078125 C3.00878973,12.5429689 3.14029883,12.5605469 3.27050781,12.5605469 C3.46972756,12.5605469 3.6168615,12.526693 3.71191406,12.4589844 C3.80696662,12.3912757 3.85449219,12.2825528 3.85449219,12.1328125 C3.85449219,11.9986972 3.79980523,11.9036461 3.69042969,11.8476562 C3.58105414,11.7916664 3.40657672,11.7636719 3.16699219,11.7636719 L2.95019531,11.7636719 L2.95019531,11.3007812 L3.17089844,11.3007812 C3.39225371,11.3007812 3.55403595,11.2718102 3.65625,11.2138672 C3.75846405,11.1559242 3.80957031,11.0566413 3.80957031,10.9160156 C3.80957031,10.6998687 3.674155,10.5917969 3.40332031,10.5917969 C3.30956984,10.5917969 3.21419319,10.6074217 3.1171875,10.6386719 C3.02018181,10.669922 2.91243549,10.7239579 2.79394531,10.8007812 L2.51464844,10.3847656 C2.77506641,10.1972647 3.08561018,10.1035156 3.44628906,10.1035156 C3.74186346,10.1035156 3.97525956,10.1634109 4.14648438,10.2832031 C4.31770919,10.4029954 4.40332031,10.5696604 4.40332031,10.7832031 Z"></path>
        </g>
    </g>
</svg>