<?xml version="1.0" encoding="UTF-8"?>
<svg width="16px" height="16px" viewBox="0 0 16 16" version="1.1" xmlns="http://www.w3.org/2000/svg" xmlns:xlink="http://www.w3.org/1999/xlink">
    <!-- Generator: Sketch 55.2 (78181) - https://sketchapp.com -->
    <title>Component / icon / 16px / Richtext / Outdent</title>
    <desc>Created with Sketch.</desc>
    <g id="Component-/-icon-/-16px-/-Richtext-/-Outdent" stroke="none" stroke-width="1" fill="none" fill-rule="evenodd">
        <g id="Component-/-icon-/-16px-/-Richtext-/-Indent" fill="#1A1A1A">
            <g id="indent-right-copy-5" transform="translate(2.000000, 4.000000)">
                <path d="M2.72730258,6 C2.64768747,6 2.58240129,5.98128273 2.53126493,5.94382631 L0.0767194714,4.143707 C0.0256428117,4.10625058 0,4.05833 0,3.99998905 C0,3.94162621 0.0256428117,3.89374942 0.0767194714,3.85622732 L2.53126493,2.05621747 C2.58240129,2.01869537 2.64768747,2 2.72730258,2 C2.80115626,2 2.86506926,2.01970238 2.91904155,2.05930418 C2.9730437,2.09892786 3,2.14581954 3,2.20000109 L3,5.79997701 C3,5.85422425 2.9730437,5.90111592 2.91904155,5.94067393 C2.86506926,5.98014437 2.80115626,6 2.72730258,6 Z M11.7856954,7 C11.8437925,7 11.8939618,7.01235531 11.9364381,7.03702487 C11.9788205,7.06179022 12,7.09105711 12,7.12494869 L12,7.87502394 C12,7.90883343 11.9788909,7.93808664 11.9364381,7.96286567 C11.8939618,7.98764469 11.8438159,8 11.7856954,8 L0.214257653,8 C0.156231004,8 0.106038188,7.98767206 0.06360884,7.96286567 C0.0211794921,7.93808664 0,7.90883343 0,7.87502394 L0,7.12494869 C0,7.09107079 0.0211794921,7.06179022 0.06360884,7.03703856 C0.106014733,7.01225953 0.156231004,7 0.214257653,7 L11.7856954,7 Z M11.794397,3.5 C11.8471149,3.5 11.8926391,3.5123548 11.9311825,3.5370644 C11.9696407,3.56182873 11.9888592,3.59113546 11.9888592,3.62499829 L11.9888592,4.37500171 C11.9888592,4.40883717 11.9697046,4.43814391 11.9311825,4.46289455 C11.8926391,4.48761784 11.8471362,4.5 11.794397,4.5 L5.22486985,4.5 C5.17221587,4.5 5.12667039,4.48756311 5.08816956,4.46289455 C5.04966873,4.43814391 5.03045024,4.40883717 5.03045024,4.37500171 L5.03045024,3.62499829 C5.03045024,3.59113546 5.04966873,3.56182873 5.08816956,3.5370644 C5.1266491,3.51231375 5.17221587,3.5 5.22486985,3.5 L11.794397,3.5 Z M11.9364381,0.0371054468 C11.9787971,0.0618560933 12,0.0911491469 12,0.12499829 L12,0.87500171 C12,0.908864535 11.9788909,0.938143907 11.9364381,0.962894553 C11.8939618,0.987686246 11.8438159,1 11.7856954,1 L0.214257653,1 C0.156231004,1 0.106038188,0.9876452 0.06360884,0.962894553 C0.0211794921,0.938143907 0,0.908864535 0,0.87500171 L0,0.12499829 C0,0.0911491469 0.0212029467,0.0618560933 0.06360884,0.0371054468 C0.106014733,0.0123548003 0.156231004,0 0.214257653,0 L11.7856954,0 C11.8438159,0 11.8939618,0.0124095281 11.9364381,0.0371054468 Z" id="Combined-Shape"></path>
            </g>
        </g>
    </g>
</svg>