<?xml version="1.0" encoding="UTF-8"?>
<svg width="16px" height="16px" viewBox="0 0 16 16" version="1.1" xmlns="http://www.w3.org/2000/svg" xmlns:xlink="http://www.w3.org/1999/xlink">
    <!-- Generator: Sketch 55.2 (78181) - https://sketchapp.com -->
    <title>Component / icon / 16px / Richtext / Redo</title>
    <desc>Created with Sketch.</desc>
    <defs>
        <path d="M8.30547861,4.93981707 C6.49432138,4.93981707 4.88211811,5.78629998 3.83915745,7.10392949 L2.53019468,5.79506195 C2.23857332,5.50344059 2,5.60239376 2,6.01487322 L2,10.9051025 C2,11.317582 2.01600013,11.3008199 2.42857483,11.3008199 L7.28594671,11.3008199 C7.69852142,11.3008199 7.79718887,11.0621514 7.50566274,10.77053 L6.01050802,9.27537529 C6.67727522,7.84374488 8.12500099,6.84907032 9.80834769,6.84907032 C12.0774133,6.84907032 13.9209518,8.65356083 13.9931428,10.9051025 C13.9973333,10.8154828 14,10.7251963 14,10.6344337 C14,7.48945635 11.450456,4.93981707 8.30547861,4.93981707 Z" id="path-1"></path>
    </defs>
    <g id="Component-/-icon-/-16px-/-Richtext-/-Redo" stroke="none" stroke-width="1" fill="none" fill-rule="evenodd">
        <g id="Component-/-icon-/-12px-/-revert--" transform="translate(8.000000, 8.000000) scale(-1, 1) translate(-8.000000, -8.000000) ">
            <mask id="mask-2" fill="white">
                <use xlink:href="#path-1"></use>
            </mask>
            <use id="Shape" fill="#1A1A1A" xlink:href="#path-1"></use>
        </g>
    </g>
</svg>
