<?xml version="1.0" encoding="UTF-8"?>
<svg width="16px" height="16px" viewBox="0 0 16 16" version="1.1" xmlns="http://www.w3.org/2000/svg" xmlns:xlink="http://www.w3.org/1999/xlink">
    <!-- Generator: Sketch 55.2 (78181) - https://sketchapp.com -->
    <title>Component / icon / 16px / Richtext / Strike-trough</title>
    <desc>Created with Sketch.</desc>
    <g id="Component-/-icon-/-16px-/-Richtext-/-Strike-trough" stroke="none" stroke-width="1" fill="none" fill-rule="evenodd">
        <g fill="#1A1A1A" id="Combined-Shape">
            <path d="M8.49057208,8.83333333 L3,8.83333333 L3,8 L6.42454147,8 C5.71380178,7.6823191 5.18296851,7.32294615 4.83203125,6.921875 C4.3762998,6.40103906 4.1484375,5.72135836 4.1484375,4.8828125 C4.1484375,4.00259977 4.47916336,3.30208594 5.140625,2.78125 C5.80208664,2.26041406 6.67707789,2 7.765625,2 C8.90104734,2 9.94530773,2.20833125 10.8984375,2.625 L10.484375,3.78125 C9.54166195,3.38541469 8.62500445,3.1875 7.734375,3.1875 C7.03124648,3.1875 6.48177281,3.33854016 6.0859375,3.640625 C5.69010219,3.94270984 5.4921875,4.36197648 5.4921875,4.8984375 C5.4921875,5.29427281 5.56510344,5.61848832 5.7109375,5.87109375 C5.85677156,6.12369918 6.10286285,6.3554677 6.44921875,6.56640625 C6.79557465,6.7773448 7.32551727,7.01041539 8.0390625,7.265625 C8.69906939,7.5009318 9.24563356,7.7457227 9.67875916,8 L13,8 L13,8.83333333 L10.6718107,8.83333333 C11.0156051,9.29322884 11.1875,9.86440516 11.1875,10.546875 C11.1875,11.5520884 10.8229203,12.3359347 10.09375,12.8984375 C9.36457969,13.4609403 8.37500625,13.7421875 7.125,13.7421875 C5.77082656,13.7421875 4.72917031,13.5677101 4,13.21875 L4,11.9375 C4.46875234,12.1354177 4.97916391,12.2916661 5.53125,12.40625 C6.08333609,12.5208339 6.63020563,12.578125 7.171875,12.578125 C8.05729609,12.578125 8.72395609,12.4101579 9.171875,12.0742188 C9.61979391,11.7382796 9.84375,11.2708363 9.84375,10.671875 C9.84375,10.2760397 9.76432371,9.95182418 9.60546875,9.69921875 C9.44661379,9.44661332 9.18099145,9.21354273 8.80859375,9 C8.71487393,8.94625857 8.6088668,8.89070305 8.49057208,8.83333333 Z"></path>
        </g>
    </g>
</svg>