<?xml version="1.0" encoding="UTF-8"?>
<svg width="16px" height="16px" viewBox="0 0 16 16" version="1.1" xmlns="http://www.w3.org/2000/svg" xmlns:xlink="http://www.w3.org/1999/xlink">
    <!-- Generator: Sketch 55.2 (78181) - https://sketchapp.com -->
    <title>Component / icon / 16px / Richtext / Sub-script</title>
    <desc>Created with Sketch.</desc>
    <g id="Component-/-icon-/-16px-/-Richtext-/-Sub-script" stroke="none" stroke-width="1" fill="none" fill-rule="evenodd">
        <polygon id="x" fill="#333333" fill-rule="nonzero" transform="translate(5.694336, 6.548340) scale(1, -1) translate(-5.694336, -6.548340) " points="4.40576172 6.47216797 2.12060547 3 4.31689453 3 5.69433594 5.25976562 7.08447266 3 9.28076172 3 6.97021484 6.47216797 9.38867188 10.0966797 7.18603516 10.0966797 5.69433594 7.66552734 4.19628906 10.0966797 2 10.0966797"></polygon>
        <path d="M14.0292969,13 L10.0371094,13 L10.0371094,12.1601562 L11.4707031,10.7109375 C11.8951844,10.2760395 12.1725254,9.97461021 12.3027344,9.80664062 C12.4329434,9.63867104 12.5266924,9.48307363 12.5839844,9.33984375 C12.6412763,9.19661387 12.6699219,9.04817785 12.6699219,8.89453125 C12.6699219,8.66536344 12.6067715,8.49479223 12.4804688,8.3828125 C12.354166,8.27083277 12.1855479,8.21484375 11.9746094,8.21484375 C11.7532541,8.21484375 11.5384125,8.26562449 11.3300781,8.3671875 C11.1217438,8.46875051 10.904298,8.61328031 10.6777344,8.80078125 L10.0214844,8.0234375 C10.3027358,7.78385297 10.5358064,7.61458383 10.7207031,7.515625 C10.9055999,7.41666617 11.1074208,7.34049506 11.3261719,7.28710938 C11.544923,7.23372369 11.7897122,7.20703125 12.0605469,7.20703125 C12.4173195,7.20703125 12.7324205,7.27213477 13.0058594,7.40234375 C13.2792982,7.53255273 13.4915357,7.71484258 13.6425781,7.94921875 C13.7936205,8.18359492 13.8691406,8.45182141 13.8691406,8.75390625 C13.8691406,9.0169284 13.8229171,9.26367072 13.7304688,9.49414062 C13.6380204,9.72461053 13.4947926,9.96093629 13.3007812,10.203125 C13.1067699,10.4453137 12.7649764,10.7903623 12.2753906,11.2382812 L11.5410156,11.9296875 L11.5410156,11.984375 L14.0292969,11.984375 L14.0292969,13 Z" id="2" fill="#333333" fill-rule="nonzero"></path>
    </g>
</svg>