<?xml version="1.0" encoding="UTF-8"?>
<svg width="16px" height="16px" viewBox="0 0 16 16" version="1.1" xmlns="http://www.w3.org/2000/svg" xmlns:xlink="http://www.w3.org/1999/xlink">
    <!-- Generator: Sketch 55.2 (78181) - https://sketchapp.com -->
    <title>Component / icon / 16px / Richtext / Super-script</title>
    <desc>Created with Sketch.</desc>
    <g id="Component-/-icon-/-16px-/-Richtext-/-Super-script" stroke="none" stroke-width="1" fill="none" fill-rule="evenodd">
        <g id="Component-/-icon-/-16px-/-Richtext-/-Strike-trough"></g>
        <polygon id="x" fill="#333333" fill-rule="nonzero" points="4.71142578 9.37548828 2.42626953 5.90332031 4.62255859 5.90332031 6 8.16308594 7.39013672 5.90332031 9.58642578 5.90332031 7.27587891 9.37548828 9.69433594 13 7.49169922 13 6 10.5688477 4.50195312 13 2.30566406 13"></polygon>
        <path d="M14.0292969,9 L10.0371094,9 L10.0371094,8.16015625 L11.4707031,6.7109375 C11.8951844,6.27603949 12.1725254,5.97461021 12.3027344,5.80664062 C12.4329434,5.63867104 12.5266924,5.48307363 12.5839844,5.33984375 C12.6412763,5.19661387 12.6699219,5.04817785 12.6699219,4.89453125 C12.6699219,4.66536344 12.6067715,4.49479223 12.4804688,4.3828125 C12.354166,4.27083277 12.1855479,4.21484375 11.9746094,4.21484375 C11.7532541,4.21484375 11.5384125,4.26562449 11.3300781,4.3671875 C11.1217438,4.46875051 10.904298,4.61328031 10.6777344,4.80078125 L10.0214844,4.0234375 C10.3027358,3.78385297 10.5358064,3.61458383 10.7207031,3.515625 C10.9055999,3.41666617 11.1074208,3.34049506 11.3261719,3.28710938 C11.544923,3.23372369 11.7897122,3.20703125 12.0605469,3.20703125 C12.4173195,3.20703125 12.7324205,3.27213477 13.0058594,3.40234375 C13.2792982,3.53255273 13.4915357,3.71484258 13.6425781,3.94921875 C13.7936205,4.18359492 13.8691406,4.45182141 13.8691406,4.75390625 C13.8691406,5.0169284 13.8229171,5.26367072 13.7304688,5.49414062 C13.6380204,5.72461053 13.4947926,5.96093629 13.3007812,6.203125 C13.1067699,6.44531371 12.7649764,6.79036234 12.2753906,7.23828125 L11.5410156,7.9296875 L11.5410156,7.984375 L14.0292969,7.984375 L14.0292969,9 Z" id="2" fill="#333333" fill-rule="nonzero"></path>
    </g>
</svg>