<?xml version="1.0" encoding="UTF-8"?>
<svg width="16px" height="16px" viewBox="0 0 16 16" version="1.1" xmlns="http://www.w3.org/2000/svg" xmlns:xlink="http://www.w3.org/1999/xlink">
    <!-- Generator: Sketch 55.2 (78181) - https://sketchapp.com -->
    <title>Component / icon / 16px / Richtext / Underline</title>
    <desc>Created with Sketch.</desc>
    <g id="Component-/-icon-/-16px-/-Richtext-/-Underline" stroke="none" stroke-width="1" fill="none" fill-rule="evenodd">
        <g fill="#1A1A1A" id="U">
            <g transform="translate(3.000000, 2.000000)">
                <path d="M0,11.9166667 L0,11.0833333 L10,11.0833333 L10,11.9166667 L0,11.9166667 Z M8.72993164,0.148632813 L8.72993164,6.52304688 C8.72993164,7.64609937 8.41507033,8.52880538 7.78533825,9.17119141 C7.15560618,9.81357743 6.29025886,10.1347656 5.18927034,10.1347656 C4.08828181,10.1347656 3.23648812,9.81133136 2.63386372,9.16445313 C2.03123932,8.51757489 1.72993164,7.62813066 1.72993164,6.49609375 L1.72993164,0.148632813 L2.79338115,0.148632813 L2.79338115,6.57695313 C2.79338115,7.39902755 3.00189858,8.03017358 3.41893968,8.47041016 C3.83598079,8.91064673 4.44902202,9.13076172 5.25808177,9.13076172 C6.02960782,9.13076172 6.62388249,8.9095237 7.0409236,8.46704102 C7.45796471,8.02455833 7.66648213,7.3900432 7.66648213,6.56347656 L7.66648213,0.148632813 L8.72993164,0.148632813 Z" id="Combined-Shape"></path>
            </g>
        </g>
    </g>
</svg>
