<?xml version="1.0" encoding="utf-8"?>
<!-- Generator: Adobe Illustrator 19.0.0, SVG Export Plug-In . SVG Version: 6.00 Build 0)  -->
<svg version="1.1" id="Layer_1" xmlns="http://www.w3.org/2000/svg" xmlns:xlink="http://www.w3.org/1999/xlink" x="0px" y="0px"
	 viewBox="0 0 4998.1 1194.1" style="enable-background:new 0 0 4998.1 1194.1;" xml:space="preserve">
<style type="text/css">
	svg {fill:#FFFFFF;}
	.st0{display:none;}
	.st1{font-family:'NNMedien-Medium';}
	.st2{font-size:516px;}
</style>
<g id="XMLID_6_">
	<path id="XMLID_436_" d="M1199.4,718.8c23.2,0,36.6-1.5,66-7.7l7.2,49.5c-22.7,6.2-48,9.3-73.2,9.3
		c-112.9,0-145.4-70.6-145.4-153.1c1-80.4,49.5-148.5,144.9-148.5c25.3,0,46.9,3.1,73.2,9.8l-9.8,49c-27.8-6.2-44.3-7.2-61.9-7.2
		c-59.8,1-89.2,45.4-90.2,96.9C1110.2,667.8,1129.3,718.8,1199.4,718.8z"/>
	<path id="XMLID_433_" d="M1430.3,468.2c92.8,0.5,134.1,69.6,134.1,150.6c0,78.9-35.6,149.5-134.6,150c-96.9-1-134.1-71.2-134.1-150
		C1295.7,537.9,1337.5,469.3,1430.3,468.2z M1430.3,719.3c59.3-0.5,78.4-48.5,78.4-100.5c-0.5-47.4-20.6-101.1-78.9-101.1
		c-56.7,0.5-78.9,53.1-78.9,101.1C1350.9,672.9,1374.6,719.3,1430.3,719.3z"/>
	<path id="XMLID_431_" d="M1948.5,763.7V578.1c0-46.9-17.5-59.8-46.9-59.8c-20.1,0-42.8,11.3-63.4,28.4c1,6.2,1.5,18.6,1.5,22.2
		v194.9h-57.8V576c0-46.9-13.9-58.3-43.3-58.3c-18.6,0-44.3,12.4-66.5,28.9v217.1h-57.2V473.4h57.2v24.7
		c17.5-13.9,45.4-29.9,75.8-30.4c40.2-0.5,63.4,13.4,76.3,35.1c23.7-22.2,58.8-34.5,85.6-35.1c94.4-1.5,95.9,74.2,95.9,106.2v189.7
		H1948.5z"/>
	<path id="XMLID_429_" d="M2402.1,763.7V578.1c0-46.9-17.5-59.8-46.9-59.8c-20.1,0-42.8,11.3-63.4,28.4c1,6.2,1.5,18.6,1.5,22.2
		v194.9h-57.7V576c0-46.9-13.9-58.3-43.3-58.3c-18.6,0-44.3,12.4-66.5,28.9v217.1h-57.2V473.4h57.2v24.7
		c17.5-13.9,45.4-29.9,75.8-30.4c40.2-0.5,63.4,13.4,76.3,35.1c23.7-22.2,58.8-34.5,85.6-35.1c94.4-1.5,95.9,74.2,95.9,106.2v189.7
		H2402.1z"/>
	<path id="XMLID_426_" d="M2726.4,710.6l8.8,46.9c-25.8,8.8-61.4,12.9-89.2,12.9c-114.5,0-142.3-76.8-142.3-153.7
		c0-76.8,34-148,129.9-148c59.3,0,108.8,36.6,109.3,129.9l-0.5,30.4h-182.5c1,56.7,31.5,91.3,88.7,91.3
		C2671.2,720.4,2694.9,717.8,2726.4,710.6z M2562.4,584.8h127.4c-2.1-58.8-31.4-70.6-58.8-70.6
		C2587.7,513.6,2567.6,543,2562.4,584.8z"/>
	<path id="XMLID_424_" d="M2953.2,526.5c-15-3.6-27.9-4.1-37.1-4.1c-35.6-0.5-54.1,17-67.5,30.9v210.4h-57.2V473.4h57.2v25.8
		c15-15.5,37.6-28.9,67-29.4c11.9-0.5,31.4,1.5,47.9,7.7L2953.2,526.5z"/>
	<path id="XMLID_422_" d="M3120.8,718.8c23.2,0,36.6-1.5,66-7.7l7.2,49.5c-22.7,6.2-48,9.3-73.2,9.3
		c-112.9,0-145.4-70.6-145.4-153.1c1-80.4,49.5-148.5,144.9-148.5c25.3,0,46.9,3.1,73.2,9.8l-9.8,49c-27.8-6.2-44.3-7.2-61.9-7.2
		c-59.8,1-89.2,45.4-90.2,96.9C3031.6,667.8,3050.6,718.8,3120.8,718.8z"/>
	<path id="XMLID_419_" d="M3439.9,710.6l8.8,46.9c-25.8,8.8-61.4,12.9-89.2,12.9c-114.5,0-142.3-76.8-142.3-153.7
		c0-76.8,34-148,129.9-148c59.3,0,108.8,36.6,109.3,129.9l-0.5,30.4h-182.5c1,56.7,31.5,91.3,88.7,91.3
		C3384.7,720.4,3408.4,717.8,3439.9,710.6z M3275.9,584.8h127.4c-2.1-58.8-31.4-70.6-58.8-70.6
		C3301.2,513.6,3281.1,543,3275.9,584.8z"/>
	<path id="XMLID_417_" d="M3650.2,520.8h-78.9v140.8c0,29.4,3.6,50,33.5,54.1c16.5,1.5,33.5,0,50-2.1l3.6,49.5
		c-17,3.1-41.2,3.6-51,3.6c-67.5-2.6-92.8-37.1-92.8-91.3V520.8h-41.8v-39.7l41.8-4.6v-67.5h56.7v64.5h78.9V520.8z"/>
	<path id="XMLID_414_" d="M3816.7,468.2c92.8,0.5,134.1,69.6,134.1,150.6c0,78.9-35.6,149.5-134.6,150c-96.9-1-134.1-71.2-134.1-150
		C3682.2,537.9,3723.9,469.3,3816.7,468.2z M3816.7,719.3c59.3-0.5,78.4-48.5,78.4-100.5c-0.5-47.4-20.6-101.1-78.9-101.1
		c-56.7,0.5-78.9,53.1-78.9,101.1C3737.3,672.9,3761.1,719.3,3816.7,719.3z"/>
	<path id="XMLID_411_" d="M4125,468.2c92.8,0.5,134.1,69.6,134.1,150.6c0,78.9-35.6,149.5-134.6,150c-96.9-1-134.1-71.2-134.1-150
		C3990.5,537.9,4032.2,469.3,4125,468.2z M4125,719.3c59.3-0.5,78.4-48.5,78.4-100.5c-0.5-47.4-20.6-101.1-78.9-101.1
		c-56.7,0.5-78.9,53.1-78.9,101.1C4045.6,672.9,4069.3,719.3,4125,719.3z"/>
	<path id="XMLID_409_" d="M4304.4,763.7V369.8h55.2v393.9H4304.4z"/>
	<path id="XMLID_407_" d="M4417.8,707.5c32.5,8.2,62.9,12.4,82,12.4c22.7,0,45.9-4.6,47.4-32c1.5-28.9-28.4-37.6-62.4-52.1
		c-38.7-16-80.4-37.6-79.4-91.3c1-26.8,17-79.4,102.6-76.8c25.8,0.5,56.7,4.6,82.5,11.3l-9.8,47.4c-30.4-7.2-53.1-10.3-75.3-10.8
		c-24.8,0-43.8,7.7-44.9,30.9c-0.5,19.6,15,29.9,53.1,45.4c38.7,16,93.3,36.6,90.7,97.5c-1.5,38.7-26.8,81-104.7,79.9
		c-24.8-0.5-64.5-3.6-93.8-13.9L4417.8,707.5z"/>
</g>
<path id="XMLID_387_" d="M906.9,752L668.5,640.9c-1.9-0.9-3.9-1.6-6-2.1v-0.9v-66.5c0-6.6,0.2-6.7,4.5-8.6l0,0l9.5-4.4
	c16-7.4,16-7.4,110-51.4l120.5-56.4c7-3.3,11.5-10.3,11.5-18c0-7.7-4.5-14.8-11.5-18L668.5,303.4c-8.6-4-18.5-4-27.2,0L403,414.1
	c-6.9,3.2-11.5,10.2-11.5,17.9h0l0,337.6h0c0,7.7,4.5,14.8,11.4,18l238.7,111.7c1.9,0.9,3.8,1.5,5.7,2v0.9l7.4,0.1
	c0.2,0,0.4,0,0.6,0c0,0,0,0,0,0l7.1,0.1v-0.9c2.2-0.5,4.4-1.2,6.4-2.2l238-111.4c7-3.3,11.5-10.3,11.5-18
	C918.4,762.3,913.9,755.3,906.9,752z M406.7,750l0-298l235,110c2,0.9,4,1.6,6,2.1c0.1,0,0.1,0.1,0.2,0.1c-0.4,2.2-0.5,4.6-0.5,7.3
	v66.5v0.9c-0.2,0-0.3,0.1-0.4,0.2c-1.9,0.5-3.8,1.1-5.6,1.9L406.7,750z M409.4,427.9l238.3-110.8c2.3-1.1,4.7-1.6,7.2-1.6
	c2.5,0,4.9,0.5,7.2,1.6l238.4,111.1c1.7,0.8,2.7,2.5,2.7,4.3c0,1.8-1.1,3.5-2.7,4.3L780,493.2c-94,44-94,44-109.9,51.4l-9,4.2
	c-0.7,0.2-1.3,0.4-2,0.6c-0.3,0.1-0.6,0.2-0.9,0.2c-1,0.2-2,0.3-3.1,0.2c-2.4,0-4.8-0.6-7-1.6L409.4,436.5c-0.4-0.2-0.8-0.4-1.1-0.7
	c-1-0.9-1.6-2.1-1.6-3.6C406.7,430.3,407.8,428.6,409.4,427.9z M409.4,774c-1.7-0.8-2.7-2.5-2.7-4.3c0-0.5,0.1-0.9,0.2-1.3
	c0.4-1.3,1.3-2.4,2.5-2.9l237.9-110.6v230.6L409.4,774z M900.5,774.3l-238,111.4c0,0,0,0,0,0V654.8l238,110.9
	c1.7,0.8,2.7,2.5,2.7,4.3C903.2,771.9,902.2,773.6,900.5,774.3z"/>
<text id="XMLID_19_" transform="matrix(1 0 0 1 482.6271 298.0295)" class="st0 st1 st2">x</text>
</svg>
