<?xml version="1.0" encoding="UTF-8"?>
<svg width="24px" height="24px" viewBox="0 0 24 24" version="1.1" xmlns="http://www.w3.org/2000/svg" xmlns:xlink="http://www.w3.org/1999/xlink">
    <!-- Generator: sketchtool 45.2 (43514) - http://www.bohemiancoding.com/sketch -->
    <title>angle-down</title>
    <desc>Created with sketchtool.</desc>
    <defs></defs>
    <g id="Icons" stroke="none" stroke-width="1" fill-rule="evenodd">
        <g id="MC-icon-set" transform="translate(-168.000000, -888.000000)" fill="#000000">
            <g id="Directions" transform="translate(24.000000, 888.000000)">
                <g id="Angle-Down" transform="translate(144.000000, 0.000000)">
                    <path d="M20.8157053,8.1152896 L19.9141895,7.20623081 C19.7940632,7.08483615 19.6556842,7.02432989 19.4992421,7.02432989 C19.3431789,7.02432989 19.2048632,7.08483615 19.0847368,7.20623081 L11.9978526,14.3525297 L4.91128421,7.20642188 C4.79109474,7.08502722 4.65277895,7.02452096 4.49652632,7.02452096 C4.34021053,7.02452096 4.20189474,7.08502722 4.08176842,7.20642188 L3.18037895,8.11554437 C3.06,8.23668427 3,8.37616712 3,8.53380185 C3,8.6913092 3.06018947,8.83079205 3.18037895,8.95193195 L11.5830947,17.4257382 C11.7032211,17.5469418 11.8416,17.6075117 11.9978526,17.6075117 C12.1541053,17.6075117 12.2922316,17.5469418 12.4122947,17.4257382 L20.8157053,8.95193195 C20.9358316,8.83072836 20.9955158,8.69124551 20.9955158,8.53380185 C20.9955158,8.37616712 20.9358316,8.23668427 20.8157053,8.1152896 L20.8157053,8.1152896 Z" id="shape"></path>
                </g>
            </g>
        </g>
    </g>
</svg>