<?xml version="1.0" encoding="UTF-8"?>
<svg width="24px" height="24px" viewBox="0 0 24 24" version="1.1" xmlns="http://www.w3.org/2000/svg" xmlns:xlink="http://www.w3.org/1999/xlink">
    <!-- Generator: sketchtool 45.2 (43514) - http://www.bohemiancoding.com/sketch -->
    <title>angle-left</title>
    <desc>Created with sketchtool.</desc>
    <defs></defs>
    <g id="Icons" stroke="none" stroke-width="1" fill-rule="evenodd">
        <g id="MC-icon-set" transform="translate(-24.000000, -888.000000)" fill="#000000">
            <g id="Directions" transform="translate(24.000000, 888.000000)">
                <g id="Angle-Left">
                    <path d="M20.8157053,8.09095972 L19.9141895,7.18190093 C19.7940632,7.06050626 19.6556842,7 19.4992421,7 C19.3431789,7 19.2048632,7.06050626 19.0847368,7.18190093 L11.9978526,14.3281998 L4.91128421,7.182092 C4.79109474,7.06069733 4.65277895,7.00019107 4.49652632,7.00019107 C4.34021053,7.00019107 4.20189474,7.06069733 4.08176842,7.182092 L3.18037895,8.09121448 C3.06,8.21235438 3,8.35183723 3,8.50947197 C3,8.66697931 3.06018947,8.80646217 3.18037895,8.92760207 L11.5830947,17.4014083 C11.7032211,17.5226119 11.8416,17.5831818 11.9978526,17.5831818 C12.1541053,17.5831818 12.2922316,17.5226119 12.4122947,17.4014083 L20.8157053,8.92760207 C20.9358316,8.80639848 20.9955158,8.66691562 20.9955158,8.50947197 C20.9955158,8.35183723 20.9358316,8.21235438 20.8157053,8.09095972 L20.8157053,8.09095972 Z" id="shape" transform="translate(11.997758, 12.291591) rotate(90.000000) translate(-11.997758, -12.291591) "></path>
                </g>
            </g>
        </g>
    </g>
</svg>