<?xml version="1.0" encoding="UTF-8"?>
<svg width="24px" height="24px" viewBox="0 0 24 24" version="1.1" xmlns="http://www.w3.org/2000/svg" xmlns:xlink="http://www.w3.org/1999/xlink">
    <!-- Generator: sketchtool 45.2 (43514) - http://www.bohemiancoding.com/sketch -->
    <title>angle-up</title>
    <desc>Created with sketchtool.</desc>
    <defs></defs>
    <g id="Icons" stroke="none" stroke-width="1" fill-rule="evenodd">
        <g id="MC-icon-set" transform="translate(-240.000000, -888.000000)" fill="#000000">
            <g id="Directions" transform="translate(24.000000, 888.000000)">
                <g id="Angle-Up" transform="translate(216.000000, 0.000000)">
                    <path d="M20.8157053,8.12825749 L19.9141895,7.18811976 C19.7940632,7.06257485 19.6556842,7 19.4992421,7 C19.3431789,7 19.2048632,7.06257485 19.0847368,7.18811976 L11.9978526,14.5787365 L4.91128421,7.18831737 C4.79109474,7.06277246 4.65277895,7.0001976 4.49652632,7.0001976 C4.34021053,7.0001976 4.20189474,7.06277246 4.08176842,7.18831737 L3.18037895,8.12852096 C3.06,8.2538024 3,8.39805389 3,8.56107784 C3,8.72397006 3.06018947,8.86822156 3.18037895,8.99350299 L11.5830947,17.757012 C11.7032211,17.8823593 11.8416,17.945 11.9978526,17.945 C12.1541053,17.945 12.2922316,17.8823593 12.4122947,17.757012 L20.8157053,8.99350299 C20.9358316,8.86815569 20.9955158,8.72390419 20.9955158,8.56107784 C20.9955158,8.39805389 20.9358316,8.2538024 20.8157053,8.12825749 L20.8157053,8.12825749 Z" id="shape" transform="translate(11.997758, 12.472500) rotate(-180.000000) translate(-11.997758, -12.472500) "></path>
                </g>
            </g>
        </g>
    </g>
</svg>