<?xml version="1.0" encoding="UTF-8"?>
<svg width="24px" height="24px" viewBox="0 0 24 24" version="1.1" xmlns="http://www.w3.org/2000/svg" xmlns:xlink="http://www.w3.org/1999/xlink">
    <!-- Generator: sketchtool 45.2 (43514) - http://www.bohemiancoding.com/sketch -->
    <title>caret-up</title>
    <desc>Created with sketchtool.</desc>
    <defs></defs>
    <g id="Icons" stroke="none" stroke-width="1" fill-rule="evenodd">
        <g id="MC-icon-set" transform="translate(-240.000000, -936.000000)" fill="#000000">
            <g id="Directions" transform="translate(24.000000, 888.000000)">
                <g id="Caret-Up" transform="translate(216.000000, 48.000000)">
                    <path d="M20.6658731,7.35365683 C20.4433682,7.11782041 20.1796129,7 19.8748538,7 L4.12508466,7 C3.82020235,7 3.55663185,7.11782041 3.33394217,7.35365683 C3.11125249,7.58975405 3,7.86888475 3,8.19157052 C3,8.51419109 3.11125249,8.79332178 3.33394217,9.0292234 L11.2088575,17.3690434 C11.4317935,17.6048798 11.695364,17.722961 12,17.722961 C12.304636,17.722961 12.5684528,17.6048798 12.7909578,17.3690434 L20.6658731,9.0291582 C20.8883165,8.79332178 21,8.51419109 21,8.19150532 C21,7.86888475 20.8883165,7.58975405 20.6658731,7.35365683 L20.6658731,7.35365683 Z" id="shape" transform="translate(12.000000, 12.361481) rotate(-180.000000) translate(-12.000000, -12.361481) "></path>
                </g>
            </g>
        </g>
    </g>
</svg>