<?xml version="1.0" encoding="UTF-8"?>
<svg width="24px" height="24px" viewBox="0 0 24 24" version="1.1" xmlns="http://www.w3.org/2000/svg" xmlns:xlink="http://www.w3.org/1999/xlink">
    <!-- Generator: sketchtool 45.2 (43514) - http://www.bohemiancoding.com/sketch -->
    <title>chain</title>
    <desc>Created with sketchtool.</desc>
    <defs></defs>
    <g id="Icons" stroke="none" stroke-width="1" fill-rule="evenodd">
        <g id="MC-icon-set" transform="translate(-96.000000, -504.000000)" fill="#000000">
            <g id="Images" transform="translate(24.000000, 504.000000)">
                <g id="Chain" transform="translate(72.000000, 0.000000)">
                    <path d="M9.42141,17.9124838 L12.3501579,14.9837359 L14.0491136,16.6830195 L11.1203657,19.6117674 C10.2764614,20.4556716 9.16764857,20.8776238 8.05949143,20.8776238 C6.95067857,20.8776238 5.84219357,20.4559995 4.99828929,19.6117674 L4.26815143,18.8816295 C3.45047571,18.0639538 3,16.9767795 3,15.8204274 C3,14.6640752 3.45047571,13.5769009 4.26815143,12.7595531 L7.19689929,9.83080521 L8.895855,11.5300888 L5.96710714,14.4588366 C5.60384143,14.8224302 5.40319286,15.3060195 5.40319286,15.8204274 C5.40319286,16.3348352 5.60384143,16.8187524 5.96710714,17.1823459 L6.69757286,17.9128116 C7.44836571,18.6636045 8.67028929,18.6632766 9.42141,17.9124838 Z M18.8816951,4.26815143 L19.6118329,4.99828929 C20.4295086,5.815965 20.8796565,6.90313929 20.8796565,8.05916357 C20.8796565,9.21584357 20.4295086,10.30269 19.6118329,11.1203657 L16.6830851,14.0491136 L14.9841294,12.34983 L17.9128772,9.42108214 C18.2761429,9.05748857 18.4767915,8.57389929 18.4767915,8.05916357 C18.4767915,7.54475571 18.2761429,7.06116643 17.9128772,6.69757286 L17.1824115,5.967435 C16.8188179,5.60351357 16.3349008,5.40319286 15.8204929,5.40319286 C15.3060851,5.40319286 14.8224958,5.60351357 14.4585744,5.967435 L11.5298265,8.89618286 L9.83087079,7.19689929 L12.7596186,4.26815143 C13.5769665,3.45047571 14.6644686,3 15.8204929,3 C16.9768451,3 18.0640194,3.45047571 18.8816951,4.26815143 Z M8.33203907,15.4686694 C7.86254764,14.9995059 7.86254764,14.2385494 8.33203907,13.7693859 L13.7695498,8.33187514 C14.2383855,7.86271157 14.9996698,7.86271157 15.4685055,8.33187514 C15.9379969,8.80103871 15.9379969,9.56199514 15.4685055,10.0311587 L10.0309948,15.4686694 C9.79657693,15.7030873 9.48904693,15.8204601 9.18151693,15.8204601 C8.87431479,15.8204601 8.56645693,15.7030873 8.33203907,15.4686694 Z" id="shape"></path>
                </g>
            </g>
        </g>
    </g>
</svg>