<?xml version="1.0" encoding="UTF-8"?>
<svg width="24px" height="24px" viewBox="0 0 24 24" version="1.1" xmlns="http://www.w3.org/2000/svg" xmlns:xlink="http://www.w3.org/1999/xlink">
    <!-- Generator: sketchtool 45.2 (43514) - http://www.bohemiancoding.com/sketch -->
    <title>check-active</title>
    <desc>Created with sketchtool.</desc>
    <g id="Icons" stroke="none" stroke-width="1" fill-rule="evenodd">
        <g id="MC-icon-set" transform="translate(-240.000000, -312.000000)">
            <g id="Notices" transform="translate(24.000000, 312.000000)">
                <g id="Check-Active" transform="translate(216.000000, 0.000000)">
                    <path d="M12.0138114,21 C7.05087645,21 3.02762277,16.9767463 3.02762277,12.0138114 C3.02762277,7.05087645 7.05087645,3.02762277 12.0138114,3.02762277 C15.5132261,3.02762277 18.54545,5.02790407 20.0294859,7.94746929 C20.6501372,9.16848572 21,10.5502911 21,12.0138114 C21,16.9767463 16.9767463,21 12.0138114,21 Z M15.9132452,8.42800248 C15.7608294,8.27548727 15.5108435,8.27548727 15.3583283,8.42800248 L10.4364092,13.3502197 C10.283894,13.5027349 10.0340075,13.5027349 9.88149228,13.3502197 L8.66921993,12.1380467 C8.51670473,11.9855315 8.26681825,11.9855315 8.11430304,12.1380467 L7.37080382,12.8819433 C7.21828861,13.0344586 7.21828861,13.284345 7.37080382,13.4368602 L9.88149228,15.9470519 C10.0340075,16.0995671 10.283894,16.0995671 10.4364092,15.9470519 L16.6567444,9.7264186 C16.809359,9.57380403 16.809359,9.32401691 16.6567444,9.17140234 L15.9132452,8.42800248 Z" id="path-1"></path>
                </g>
            </g>
        </g>
    </g>
</svg>
