<?xml version="1.0" encoding="UTF-8"?>
<svg width="24px" height="24px" viewBox="0 0 24 24" version="1.1" xmlns="http://www.w3.org/2000/svg" xmlns:xlink="http://www.w3.org/1999/xlink">
    <!-- Generator: sketchtool 45.2 (43514) - http://www.bohemiancoding.com/sketch -->
    <title>columns</title>
    <desc>Created with sketchtool.</desc>
    <defs></defs>
    <g id="Icons" stroke="none" stroke-width="1" fill-rule="evenodd">
        <g id="MC-icon-set" transform="translate(-168.000000, -600.000000)" fill="#000000">
            <g id="Grid-display" transform="translate(24.000000, 600.000000)">
                <g id="Columns" transform="translate(144.000000, 0.000000)">
                    <path d="M19.2,17.6 L16.5,17.6 L16.5,15.8 L19.2,15.8 L19.2,17.6 Z M12.9,15.8 L15.6,15.8 L15.6,17.6 L12.9,17.6 L12.9,15.8 Z M9.3,15.8 L12,15.8 L12,17.6 L9.3,17.6 L9.3,15.8 Z M12,9.5 L9.3,9.5 L9.3,6.8 L12,6.8 L12,9.5 Z M15.6,9.5 L12.9,9.5 L12.9,6.8 L15.6,6.8 L15.6,9.5 Z M19.2,9.5 L16.5,9.5 L16.5,6.8 L19.2,6.8 L19.2,9.5 Z M16.5,13.1 L19.2,13.1 L19.2,14.9 L16.5,14.9 L16.5,13.1 Z M12.9,13.1 L15.6,13.1 L15.6,14.9 L12.9,14.9 L12.9,13.1 Z M9.3,13.1 L12,13.1 L12,14.9 L9.3,14.9 L9.3,13.1 Z M12,12.2 L9.3,12.2 L9.3,10.4 L12,10.4 L12,12.2 Z M15.6,12.2 L12.9,12.2 L12.9,10.4 L15.6,10.4 L15.6,12.2 Z M19.2,12.2 L16.5,12.2 L16.5,10.4 L19.2,10.4 L19.2,12.2 Z M19.3125,5 L19.2,5 L17.2875,5 L16.5,5 L15.6,5 L12.9,5 L12.1125,5 L12,5 L10.0875,5 L9.3,5 L8.4,5 L3.9,5 C3.402975,5 3,5.402975 3,5.9 L3,18.5 C3,18.997025 3.402975,19.4 3.9,19.4 L8.4,19.4 L9.3,19.4 L12,19.4 L12.9,19.4 L15.6,19.4 L16.5,19.4 L19.2,19.4 L20.1,19.4 C20.597025,19.4 21,18.997025 21,18.5 L21,5.9 C21,5.402975 20.597025,5 20.1,5 L19.3125,5 Z" id="shape"></path>
                </g>
            </g>
        </g>
    </g>
</svg>