<?xml version="1.0" encoding="UTF-8"?>
<svg width="24px" height="24px" viewBox="0 0 24 24" version="1.1" xmlns="http://www.w3.org/2000/svg" xmlns:xlink="http://www.w3.org/1999/xlink">
    <!-- Generator: sketchtool 45.2 (43514) - http://www.bohemiancoding.com/sketch -->
    <title>copy</title>
    <desc>Created with sketchtool.</desc>
    <defs></defs>
    <g id="Icons" stroke="none" stroke-width="1" fill-rule="evenodd">
        <g id="MC-icon-set" transform="translate(-240.000000, -696.000000)" fill="#000000">
            <g id="Actions" transform="translate(24.000000, 648.000000)">
                <g id="Copy" transform="translate(216.000000, 48.000000)">
                    <path d="M16.9090909,15.3242727 L16.3461818,15.3242727 L16.3461818,18.0856364 L16.9090909,18.0856364 L16.9090909,15.3242727 Z M18.0340909,15.3242727 L17.4204545,15.3242727 L17.4204545,18.0856364 L18.0340909,18.0856364 L18.0340909,15.3242727 Z M14.7106364,15.3242727 L13.6363636,15.3242727 L13.6363636,18.0856364 L14.7106364,18.0856364 L14.7106364,15.3242727 Z M15.8356364,18.0856364 L15.222,18.0856364 L15.222,15.3242727 L15.8356364,15.3242727 L15.8356364,18.0856364 Z M3.05154545,3.10227273 L3.05154545,15.9379091 L7.5,15.9379091 L7.5,14.7613636 L4.22727273,14.7613636 L4.22727273,4.32954545 L14.6590909,4.32954545 L14.6590909,7.54998779 L15.8863636,7.54998779 L15.8863636,3.10227273 L3.05154545,3.10227273 Z M7.5,20.3356364 L20.2840909,20.3356364 L20.2840909,7.55154545 L7.5,7.55154545 L7.5,20.3356364 Z M8.625,8.72727273 L19.0568182,8.72727273 L19.0568182,19.1590909 L8.625,19.1590909 L8.625,8.72727273 Z" id="shape"></path>
                </g>
            </g>
        </g>
    </g>
</svg>