<?xml version="1.0" encoding="UTF-8"?>
<svg width="24px" height="24px" viewBox="0 0 24 24" version="1.1" xmlns="http://www.w3.org/2000/svg" xmlns:xlink="http://www.w3.org/1999/xlink">
    <!-- Generator: sketchtool 45.2 (43514) - http://www.bohemiancoding.com/sketch -->
    <title>flame</title>
    <desc>Created with sketchtool.</desc>
    <defs></defs>
    <g id="Icons" stroke="none" stroke-width="1" fill-rule="evenodd">
        <g id="MC-icon-set" transform="translate(-96.000000, -72.000000)" fill="#000000">
            <g id="Application" transform="translate(24.000000, 24.000000)">
                <g id="Flames" transform="translate(72.000000, 48.000000)">
                    <path d="M12.0142754,21 C8.13342631,21 5,17.7354409 5,13.6921797 C5,12.014975 5.53900682,9.73876872 7.15602727,9.19966722 C7.15602727,9.19966722 7.42193731,11.4084859 8.77304773,12.546589 C8.94552991,10.6896839 7.67347382,5.12645591 13.0779155,3 C13.0779155,6.41430948 12.5460955,6.36938436 14.1631159,12 C14.1631159,8.6156406 14.9752195,7.58236273 17.332476,6.89351082 C17.303729,10.1580699 18.9998038,11.266223 18.9998038,13.6622296 C19.0285508,17.7354409 15.8951245,21 12.0142754,21 Z" id="shape" transform="translate(12.000000, 12.000000) rotate(-360.000000) translate(-12.000000, -12.000000) "></path>
                </g>
            </g>
        </g>
    </g>
</svg>