<?xml version="1.0" encoding="UTF-8"?>
<svg width="24px" height="24px" viewBox="0 0 24 24" version="1.1" xmlns="http://www.w3.org/2000/svg" xmlns:xlink="http://www.w3.org/1999/xlink">
    <!-- Generator: sketchtool 45.2 (43514) - http://www.bohemiancoding.com/sketch -->
    <title>grid</title>
    <desc>Created with sketchtool.</desc>
    <defs></defs>
    <g id="Icons" stroke="none" stroke-width="1" fill-rule="evenodd">
        <g id="MC-icon-set" transform="translate(-96.000000, -600.000000)" fill="#000000">
            <g id="Grid-display" transform="translate(24.000000, 600.000000)">
                <g id="Grid" transform="translate(72.000000, 0.000000)">
                    <path d="M3,5.30052586 C3,4.74794394 3.44137154,4.29998779 4.00560817,4.29998779 L7.61922906,4.29998779 C8.17461112,4.29998779 8.62483724,4.74718861 8.62483724,5.30052586 L8.62483724,7.96341734 C8.62483724,8.51599925 8.1834657,8.9639554 7.61922906,8.9639554 L4.00560817,8.9639554 C3.45022612,8.9639554 3,8.51675458 3,7.96341734 L3,5.30052586 Z M9.1875,5.30052586 C9.1875,4.74794394 9.62887154,4.29998779 10.1931082,4.29998779 L13.8067291,4.29998779 C14.3621111,4.29998779 14.8123372,4.74718861 14.8123372,5.30052586 L14.8123372,7.96341734 C14.8123372,8.51599925 14.3709657,8.9639554 13.8067291,8.9639554 L10.1931082,8.9639554 C9.63772612,8.9639554 9.1875,8.51675458 9.1875,7.96341734 L9.1875,5.30052586 Z M15.375,5.30052586 C15.375,4.74794394 15.8163715,4.29998779 16.3806082,4.29998779 L19.9942291,4.29998779 C20.5496111,4.29998779 20.9998372,4.74718861 20.9998372,5.30052586 L20.9998372,7.96341734 C20.9998372,8.51599925 20.5584657,8.9639554 19.9942291,8.9639554 L16.3806082,8.9639554 C15.8252261,8.9639554 15.375,8.51675458 15.375,7.96341734 L15.375,5.30052586 Z M3,10.715903 C3,10.163321 3.44137154,9.7153649 4.00560817,9.7153649 L7.61922906,9.7153649 C8.17461112,9.7153649 8.62483724,10.162168 8.62483724,10.7144374 L8.62483724,12.2804467 L8.62483724,13.3790662 C8.62483724,13.931498 8.1834657,14.3793325 7.61922906,14.3793325 L4.00560817,14.3793325 C3.45022612,14.3793325 3,13.9321317 3,13.3787944 L3,10.715903 Z M9.1875,10.715903 C9.1875,10.163321 9.62887154,9.7153649 10.1931082,9.7153649 L13.8067291,9.7153649 C14.3621111,9.7153649 14.8123372,10.1625657 14.8123372,10.715903 L14.8123372,13.3787944 C14.8123372,13.9313764 14.3709657,14.3793325 13.8067291,14.3793325 L10.1931082,14.3793325 C9.63772612,14.3793325 9.1875,13.9321317 9.1875,13.3787944 L9.1875,10.715903 Z M15.375,10.715903 C15.375,10.163321 15.8163715,9.7153649 16.3806082,9.7153649 L19.9942291,9.7153649 C20.5496111,9.7153649 20.9998372,10.1625657 20.9998372,10.715903 L20.9998372,13.3787944 C20.9998372,13.9313764 20.5584657,14.3793325 19.9942291,14.3793325 L16.3806082,14.3793325 C15.8252261,14.3793325 15.375,13.9321317 15.375,13.3787944 L15.375,10.715903 Z M3,16.1312801 C3,15.5786981 3.44137154,15.130742 4.00560817,15.130742 L7.61922906,15.130742 C8.17461112,15.130742 8.62483724,15.5779428 8.62483724,16.1312801 L8.62483724,18.7941715 C8.62483724,19.3467535 8.1834657,19.7947096 7.61922906,19.7947096 L4.00560817,19.7947096 C3.45022612,19.7947096 3,19.3475088 3,18.7941715 L3,16.1312801 Z M9.1875,16.1312801 C9.1875,15.5786981 9.62887154,15.130742 10.1931082,15.130742 L13.8067291,15.130742 C14.3621111,15.130742 14.8123372,15.5779428 14.8123372,16.1312801 L14.8123372,18.7941715 C14.8123372,19.3467535 14.3709657,19.7947096 13.8067291,19.7947096 L10.1931082,19.7947096 C9.63772612,19.7947096 9.1875,19.3475088 9.1875,18.7941715 L9.1875,16.1312801 Z M15.375,16.1312801 C15.375,15.5786981 15.8163715,15.130742 16.3806082,15.130742 L19.9942291,15.130742 C20.5496111,15.130742 20.9998372,15.5779428 20.9998372,16.1312801 L20.9998372,18.7941715 C20.9998372,19.3467535 20.5584657,19.7947096 19.9942291,19.7947096 L16.3806082,19.7947096 C15.8252261,19.7947096 15.375,19.3475088 15.375,18.7941715 L15.375,16.1312801 Z" id="shape"></path>
                </g>
            </g>
        </g>
    </g>
</svg>