<?xml version="1.0" encoding="UTF-8"?>
<svg width="24px" height="24px" viewBox="0 0 24 24" version="1.1" xmlns="http://www.w3.org/2000/svg" xmlns:xlink="http://www.w3.org/1999/xlink">
    <!-- Generator: sketchtool 45.2 (43514) - http://www.bohemiancoding.com/sketch -->
    <title>information</title>
    <desc>Created with sketchtool.</desc>
    <defs></defs>
    <g id="Icons" stroke="none" stroke-width="1" fill-rule="evenodd">
        <g id="MC-icon-set" transform="translate(-168.000000, -360.000000)" fill="#000000">
            <g id="Notices" transform="translate(24.000000, 312.000000)">
                <g id="Information" transform="translate(144.000000, 48.000000)">
                    <path d="M11.8560632,4.772758 C12.9230263,4.772758 13.7878737,5.63772615 13.7878737,6.7045685 C13.7878737,7.7718938 12.9230263,8.636379 11.8560632,8.636379 C10.7891001,8.636379 9.92425267,7.7718938 9.92425267,6.7045685 C9.92425267,5.63772615 10.7891001,4.772758 11.8560632,4.772758 Z M14.9684245,19.5833052 L9.17299303,19.5833052 C8.63957186,19.5833052 8.20708778,19.151304 8.20708778,18.6173999 C8.20708778,18.0839787 8.63957186,17.6514947 9.17299303,17.6514947 L10.1388983,17.6514947 L10.1388983,11.8560632 L9.17299303,11.8560632 C8.63957186,11.8560632 8.20708778,11.424062 8.20708778,10.8901579 C8.20708778,10.3567367 8.63957186,9.92425267 9.17299303,9.92425267 L13.036614,9.92425267 C13.5700352,9.92425267 14.0025193,10.3567367 14.0025193,10.8901579 L14.0025193,17.6514947 L14.9684245,17.6514947 C15.5018457,17.6514947 15.9343298,18.0839787 15.9343298,18.6173999 C15.9343298,19.151304 15.5018457,19.5833052 14.9684245,19.5833052 Z" id="shape"></path>
                </g>
            </g>
        </g>
    </g>
</svg>