<?xml version="1.0" encoding="UTF-8"?>
<svg width="24px" height="24px" viewBox="0 0 24 24" version="1.1" xmlns="http://www.w3.org/2000/svg" xmlns:xlink="http://www.w3.org/1999/xlink">
    <!-- Generator: sketchtool 45.2 (43514) - http://www.bohemiancoding.com/sketch -->
    <title>info</title>
    <desc>Created with sketchtool.</desc>
    <defs></defs>
    <g id="Icons" stroke="none" stroke-width="1" fill-rule="evenodd">
        <g id="MC-icon-set" transform="translate(-96.000000, -312.000000)" fill="#000000">
            <g id="Notices" transform="translate(24.000000, 312.000000)">
                <g id="Info" transform="translate(72.000000, 0.000000)">
                    <path d="M12,3 C7.02936328,3 3,7.02950391 3,12 C3,16.9707773 7.02936328,21 12,21 C16.9706367,21 21,16.9707773 21,12 C21,7.02950391 16.9706367,3 12,3 L12,3 Z M12,7.5 C12.6213516,7.5 13.125,8.00371875 13.125,8.625 C13.125,9.2465625 12.6213516,9.75 12,9.75 C11.3786484,9.75 10.875,9.2465625 10.875,8.625 C10.875,8.00371875 11.3786484,7.5 12,7.5 L12,7.5 Z M13.6875,16.5 L10.3125,16.5 C10.0018594,16.5 9.75,16.2484219 9.75,15.9375 C9.75,15.6268594 10.0018594,15.375 10.3125,15.375 L10.875,15.375 L10.875,12 L10.3125,12 C10.0018594,12 9.75,11.7484219 9.75,11.4375 C9.75,11.1268594 10.0018594,10.875 10.3125,10.875 L12.5625,10.875 C12.8731406,10.875 13.125,11.1268594 13.125,11.4375 L13.125,15.375 L13.6875,15.375 C13.9981406,15.375 14.25,15.6268594 14.25,15.9375 C14.25,16.2484219 13.9981406,16.5 13.6875,16.5 L13.6875,16.5 Z" id="shape"></path>
                </g>
            </g>
        </g>
    </g>
</svg>