<?xml version="1.0" encoding="UTF-8"?>
<svg width="24px" height="24px" viewBox="0 0 24 24" version="1.1" xmlns="http://www.w3.org/2000/svg" xmlns:xlink="http://www.w3.org/1999/xlink">
    <!-- Generator: sketchtool 45.2 (43514) - http://www.bohemiancoding.com/sketch -->
    <title>list</title>
    <desc>Created with sketchtool.</desc>
    <defs></defs>
    <g id="Icons" stroke="none" stroke-width="1" fill-rule="evenodd">
        <g id="MC-icon-set" transform="translate(-24.000000, -600.000000)" fill="#000000">
            <g id="Grid-display" transform="translate(24.000000, 600.000000)">
                <g id="List">
                    <path d="M5.24834766,9.83707692 C5.33532422,9.83707692 5.41059375,9.86844665 5.47415625,9.9311861 C5.53771875,9.99406452 5.5695,10.0684764 5.5695,10.1544566 L5.5695,12.0587692 C5.5695,12.1446799 5.53775391,12.2190918 5.47415625,12.2819355 C5.41059375,12.3447097 5.33532422,12.3761489 5.24834766,12.3761489 L3.32115234,12.3761489 C3.23417578,12.3761489 3.15894141,12.3445707 3.09534375,12.2819355 C3.03174609,12.2192308 3,12.1446799 3,12.0587692 L3,10.1544566 C3,10.0684764 3.03174609,9.99406452 3.09534375,9.9311861 C3.15890625,9.86834243 3.23417578,9.83707692 3.32115234,9.83707692 L5.24834766,9.83707692 Z M5.24834766,17.4543623 C5.33532422,17.4543623 5.41059375,17.485732 5.47415625,17.5483672 C5.53771875,17.6112457 5.5695,17.6855533 5.5695,17.771603 L5.5695,19.6760199 C5.5695,19.761861 5.53775391,19.836273 5.47415625,19.8990471 C5.41059375,19.9619603 5.33532422,19.99333 5.24834766,19.99333 L3.32115234,19.99333 C3.23417578,19.99333 3.15894141,19.9620298 3.09534375,19.8990471 C3.03174609,19.836134 3,19.761861 3,19.6760199 L3,17.771603 C3,17.6855881 3.03174609,17.6112457 3.09534375,17.548402 C3.15890625,17.4854888 3.23417578,17.4543623 3.32115234,17.4543623 L5.24834766,17.4543623 Z M5.24834766,13.6455285 C5.33532422,13.6455285 5.41059375,13.6770372 5.47415625,13.7398114 C5.53771875,13.8027246 5.5695,13.8771365 5.5695,13.9629777 L5.5695,15.8672208 C5.5695,15.9533052 5.53775391,16.0277171 5.47415625,16.0904913 C5.41059375,16.1534045 5.33532422,16.184531 5.24834766,16.184531 L3.32115234,16.184531 C3.23417578,16.184531 3.15894141,16.1533002 3.09534375,16.0904913 C3.03174609,16.0277171 3,15.9533052 3,15.8672208 L3,13.9629777 C3,13.8771365 3.03178125,13.8024814 3.09534375,13.7398114 C3.15890625,13.6771414 3.23417578,13.6455285 3.32115234,13.6455285 L5.24834766,13.6455285 Z M5.24834766,6.02838213 C5.33532422,6.02838213 5.41059375,6.05992556 5.47415625,6.12259553 C5.53771875,6.18543921 5.5695,6.25978164 5.5695,6.34576179 L5.5695,8.25007444 C5.5695,8.33605459 5.53775391,8.41039702 5.47415625,8.47324069 C5.41059375,8.53618859 5.33532422,8.56745409 5.24834766,8.56745409 L3.32115234,8.56745409 C3.23417578,8.56745409 3.15894141,8.53608437 3.09534375,8.47324069 C3.03174609,8.41039702 3,8.33605459 3,8.25007444 L3,6.34576179 C3,6.25981638 3.03178125,6.18543921 3.09534375,6.12259553 C3.15890625,6.05975186 3.23417578,6.02838213 3.32115234,6.02838213 L5.24834766,6.02838213 Z M20.6656641,17.4543623 C20.7527461,17.4543623 20.8279453,17.485732 20.8916133,17.548402 C20.9551406,17.6112804 20.9868867,17.6855881 20.9868867,17.7716377 L20.9868867,19.6760546 C20.9868867,19.7618958 20.9552461,19.8361687 20.8916133,19.8990819 C20.8279453,19.961995 20.7527812,19.9933648 20.6656641,19.9933648 L7.17554297,19.9933648 C7.08846094,19.9933648 7.01333203,19.9620645 6.94973438,19.8990819 C6.88613672,19.8361687 6.85439063,19.7618958 6.85439063,19.6760546 L6.85439063,17.7716377 C6.85439063,17.6855881 6.88613672,17.6112804 6.94973438,17.548402 C7.01329688,17.4854888 7.08856641,17.4543623 7.17554297,17.4543623 L20.6656641,17.4543623 Z M20.6656641,13.6455285 C20.7527461,13.6455285 20.8279453,13.6771414 20.8916133,13.7398114 C20.9551406,13.8027246 20.9868867,13.8771365 20.9868867,13.9629777 L20.9868867,15.8672208 C20.9868867,15.9533052 20.9552461,16.0277171 20.8916133,16.0904913 C20.8279453,16.1534045 20.7527812,16.184531 20.6656641,16.184531 L7.17554297,16.184531 C7.08846094,16.184531 7.01333203,16.1533002 6.94973438,16.0904913 C6.88613672,16.0277171 6.85439063,15.9533052 6.85439063,15.8672208 L6.85439063,13.9629777 C6.85439063,13.8771365 6.88617188,13.8024814 6.94973438,13.7398114 C7.01329688,13.6771414 7.08856641,13.6455285 7.17554297,13.6455285 L20.6656641,13.6455285 Z M20.8916133,6.12259553 C20.9551055,6.18543921 20.9868516,6.25981638 20.9868867,6.34576179 L20.9868867,8.25007444 C20.9868867,8.33605459 20.9552461,8.41039702 20.8916133,8.47324069 C20.8279453,8.53618859 20.7527812,8.56745409 20.6656641,8.56745409 L7.17554297,8.56745409 C7.08846094,8.56745409 7.01333203,8.53608437 6.94973438,8.47324069 C6.88613672,8.41039702 6.85439063,8.33605459 6.85439063,8.25007444 L6.85439063,6.34576179 C6.85439063,6.25978164 6.88617188,6.18543921 6.94973438,6.12259553 C7.01329688,6.05975186 7.08856641,6.02838213 7.17554297,6.02838213 L20.6656641,6.02838213 C20.7527812,6.02838213 20.8279453,6.05989082 20.8916133,6.12259553 Z M20.6656641,9.83707692 C20.7527461,9.83707692 20.8279453,9.86844665 20.8916133,9.9311861 C20.9551406,9.99406452 20.9868867,10.0684764 20.9868867,10.1544566 L20.9868867,12.0587692 C20.9868867,12.1446799 20.9552461,12.2190918 20.8916133,12.2819355 C20.8279453,12.3447097 20.7527812,12.3761489 20.6656641,12.3761489 L7.17554297,12.3761489 C7.08846094,12.3761489 7.01333203,12.3445707 6.94973438,12.2819355 C6.88613672,12.2190918 6.85439063,12.1446799 6.85439063,12.0587692 L6.85439063,10.1544566 C6.85439063,10.0684764 6.88613672,9.99406452 6.94973438,9.9311861 C7.01329688,9.86834243 7.08856641,9.83707692 7.17554297,9.83707692 L20.6656641,9.83707692 Z" id="shape"></path>
                </g>
            </g>
        </g>
    </g>
</svg>