<?xml version="1.0" encoding="UTF-8"?>
<svg width="24px" height="24px" viewBox="0 0 24 24" version="1.1" xmlns="http://www.w3.org/2000/svg" xmlns:xlink="http://www.w3.org/1999/xlink">
    <!-- Generator: sketchtool 45.2 (43514) - http://www.bohemiancoding.com/sketch -->
    <title>pages</title>
    <desc>Created with sketchtool.</desc>
    <defs></defs>
    <g id="Icons" stroke="none" stroke-width="1" fill-rule="evenodd">
        <g id="MC-icon-set" transform="translate(-24.000000, -264.000000)">
            <g id="Menu" transform="translate(24.000000, 168.000000)">
                <g id="Pages" transform="translate(0.000000, 96.000000)">
                    <path d="M7.7365,18.058 C7.5605,18.058 7.4155,17.911 7.4155,17.731 L7.4155,6.253 C7.4155,6.072 7.5605,5.926 7.7365,5.926 L16.2625,5.926 C16.4385,5.926 16.5825,6.072 16.5825,6.253 L16.5825,6.999 L9.3505,6.999 C8.8805,6.999 8.4995,7.38 8.4995,7.85 L8.4995,18.058 L7.7365,18.058 Z M6.4995,6.253 L6.4995,16.066 L5.7365,16.066 C5.5605,16.066 5.4155,15.919 5.4155,15.74 L5.4155,4.26 C5.4155,4.08 5.5605,3.933 5.7365,3.933 L14.2625,3.933 C14.4375,3.933 14.5825,4.08 14.5825,4.26 L14.5825,4.992 L7.7365,4.992 C7.0545,4.992 6.4995,5.558 6.4995,6.253 Z M18.6495,6.999 L17.4995,6.999 L17.4995,6.253 C17.4995,5.558 16.9445,4.992 16.2625,4.992 L15.4995,4.992 L15.4995,4.26 C15.4995,3.565 14.9445,3 14.2625,3 L5.7365,3 C5.0545,3 4.4995,3.565 4.4995,4.26 L4.4995,15.74 C4.4995,16.433 5.0545,17 5.7365,17 L6.4995,17 L6.4995,17.731 C6.4995,18.427 7.0545,18.991 7.7365,18.991 L8.4995,18.991 L8.4995,20.149 C8.4995,20.618 8.8805,20.999 9.3505,20.999 L18.6495,20.999 C19.1195,20.999 19.5005,20.618 19.5005,20.149 L19.5005,7.85 C19.5005,7.38 19.1195,6.999 18.6495,6.999 L18.6495,6.999 Z" id="shape"></path>
                </g>
            </g>
        </g>
    </g>
</svg>
