<?xml version="1.0" encoding="UTF-8"?>
<svg width="24px" height="24px" viewBox="0 0 24 24" version="1.1" xmlns="http://www.w3.org/2000/svg" xmlns:xlink="http://www.w3.org/1999/xlink">
    <!-- Generator: sketchtool 45.2 (43514) - http://www.bohemiancoding.com/sketch -->
    <title>project-settings</title>
    <desc>Created with sketchtool.</desc>
    <defs></defs>
    <g id="Icons" stroke="none" stroke-width="1" fill-rule="evenodd">
        <g id="MC-icon-set" transform="translate(-168.000000, -744.000000)" fill="#000000">
            <g id="Actions" transform="translate(24.000000, 648.000000)">
                <g id="Pin" transform="translate(144.000000, 96.000000)">
                    <path d="M13.9934463,2.98196266 L14.2278212,5.0835237 C15.2111955,5.40176848 16.1034699,5.92218812 16.8528193,6.59914765 L18.790318,5.74758574 L20.7903166,9.21633333 L19.0793928,10.4663325 C19.1835177,10.9555171 19.2434427,11.4617193 19.2434427,11.9819689 C19.2434427,12.5021935 19.1834927,13.0083932 19.0793928,13.4975929 L20.7903166,14.747567 L18.790318,18.2163396 L16.8528193,17.3647652 C16.1034699,18.0417147 15.2111955,18.5621643 14.2278212,18.8804141 L13.9934463,20.9819627 L9.9934491,20.9819627 L9.75907426,18.8804141 C8.77569995,18.5621643 7.88342556,18.0417147 7.13407609,17.3647652 L5.19657743,18.2163396 L3.19657882,14.747567 L4.90750263,13.4975929 C4.8033777,13.0083932 4.74345275,12.5021935 4.74345275,11.9819689 C4.74345275,11.4617193 4.8034027,10.9555171 4.90750263,10.4663325 L3.19657882,9.21633333 L5.19657743,5.74758574 L7.13407609,6.59914765 C7.88342556,5.92218562 8.77569995,5.40176848 9.75907426,5.0835237 L9.9934491,2.98196266 L13.9934463,2.98196266 Z M11.9934477,7.6069632 C9.56979609,7.6069632 7.61845606,9.5582876 7.61845606,11.9819705 C7.61845606,14.4055908 9.56979609,16.3569621 11.9934477,16.3569621 C14.4170681,16.3569621 16.3684394,14.4055908 16.3684394,11.9819705 C16.3684394,9.55829072 14.4170681,7.6069632 11.9934477,7.6069632 Z" id="Combined-Shape"></path>
                </g>
            </g>
        </g>
    </g>
</svg>
