<?xml version="1.0" encoding="UTF-8"?>
<svg width="24px" height="24px" viewBox="0 0 24 24" version="1.1" xmlns="http://www.w3.org/2000/svg" xmlns:xlink="http://www.w3.org/1999/xlink">
    <!-- Generator: sketchtool 45.2 (43514) - http://www.bohemiancoding.com/sketch -->
    <title>refresh</title>
    <desc>Created with sketchtool.</desc>
    <defs></defs>
    <g id="Icons" stroke="none" stroke-width="1" fill-rule="evenodd">
        <g id="MC-icon-set" transform="translate(-168.000000, -984.000000)" fill-rule="nonzero" fill="#000000">
            <g id="Directions" transform="translate(24.000000, 888.000000)">
                <g id="Refresh" transform="translate(144.000000, 96.000000)">
                    <path d="M18.2565976,5.32902203 C14.6669785,2.11189315 9.11976834,2.22768194 5.67106188,5.67638839 C2.1289775,9.2713397 2.1289775,15.0867021 5.69749535,18.65522 C7.46853754,20.4262622 9.82111598,21.325 12.1736944,21.325 C14.5262728,21.325 16.8524178,20.4262622 18.6498935,18.65522 C19.760099,17.5450144 20.553103,16.1704742 20.9760384,14.6902001 C21.1346392,14.1350974 20.8174377,13.5535611 20.2359014,13.3949603 C19.6807986,13.2363595 19.0992624,13.5535611 18.9406616,14.1350974 C18.62346,15.2717364 17.9890568,16.329075 17.1431859,17.1749459 C14.3941055,19.9240263 9.92684984,19.9240263 7.17776942,17.1749459 C4.428689,14.4258655 4.428689,9.95860981 7.17776942,7.20952939 C9.79780555,4.58949326 13.9784975,4.46650643 16.7450508,6.84056888 L15.592448,7.99317164 C15.5180612,8.06755841 15.4841913,8.16230311 15.4907837,8.27756144 C15.4974434,8.39288714 15.5424093,8.49214096 15.6257711,8.57550272 C15.709116,8.65884764 15.8083698,8.70381354 15.923645,8.71042274 L19.9994942,8.94354628 C20.1148126,8.95007855 20.2096247,8.91627602 20.2839514,8.84194934 C20.3582781,8.76762265 20.3921407,8.67275048 20.3855032,8.55753722 L20.1523629,4.48167118 C20.1457104,4.36647294 20.1008497,4.26711397 20.0174879,4.18375221 C19.934143,4.10040729 19.834784,4.05554654 19.7195184,4.04882672 C19.6043051,4.04218931 19.5095154,4.07610427 19.4351586,4.150461 L18.2565976,5.32902203 Z" id="shape"></path>
                </g>
            </g>
        </g>
    </g>
</svg>