<svg xmlns="http://www.w3.org/2000/svg" width="24" height="24" viewBox="0 0 24 24">
  <path d="M17.4195619,8.31394081 C17.1868786,7.95349919 17.2904472,7.47267645 17.6508888,7.23999315 C18.0113304,7.00730986 18.4921531,7.11087845 18.7248364,7.47132007 C20.9099461,10.8561977 20.4338297,15.307527 17.5822461,18.1536773 C14.7306626,20.9998277 10.2784334,21.4674539 6.89772924,19.2758928 C3.51702511,17.0843317 2.12643814,12.8290659 3.56058076,9.06405121 C4.99472338,5.29903655 8.86391581,3.0472885 12.8459185,3.66027732 C13.2699455,3.72555196 13.5607717,4.12220932 13.4954971,4.54623632 C13.4302224,4.97026332 13.0335651,5.26108957 12.6095381,5.19581493 C9.35153589,4.69427862 6.18583299,6.53661793 5.01244358,9.61708447 C3.83905416,12.697551 4.97680714,16.1791321 7.74283779,17.9722276 C10.5088684,19.765323 14.1516014,19.3827197 16.4847152,17.0540513 C18.817829,14.7253828 19.2073788,11.0833861 17.4195619,8.31394081 Z M10.4439565,7.63795798 C10.4387409,7.20896792 10.7822779,6.85697461 11.2112679,6.85175893 C11.640258,6.84654324 11.9922513,7.19008025 11.997467,7.61907032 L12.059612,12.7304974 C12.0648277,13.1594875 11.7212907,13.5114808 11.2923006,13.5166965 C10.8633105,13.5219121 10.5113172,13.1783751 10.5061016,12.7493851 L10.4439565,7.63795798 Z M14.7222128,13.7706862 C15.096796,13.9798443 15.2308995,14.4530601 15.0217414,14.8276433 C14.8125833,15.2022265 14.3393674,15.33633 13.9647843,15.1271719 L10.9041425,13.4181841 C10.5295593,13.209026 10.3954558,12.7358101 10.6046139,12.361227 C10.8137721,11.9866438 11.2869879,11.8525403 11.6615711,12.0616984 L14.7222128,13.7706862 Z M16.5674895,10.328249 C16.4827989,10.2945369 16.421206,10.2367113 16.3828918,10.1545463 C16.3445699,10.0723647 16.3398641,9.98801222 16.3685082,9.90153218 L17.3836535,6.84231066 C17.4123133,6.7558233 17.4654789,6.69441969 17.5430637,6.65824134 C17.6206484,6.62206299 17.7017978,6.62083448 17.7865829,6.6544216 L20.7825976,7.84318829 C20.8673277,7.87682127 20.9288108,7.93469802 20.967125,8.01686305 C21.0054469,8.09904468 21.0102625,8.18334596 20.9815866,8.26992167 C20.9528798,8.35643097 20.8997459,8.41773891 20.8220984,8.45394651 L16.8109464,10.3243774 C16.7333303,10.3605704 16.6521649,10.3618873 16.5674895,10.328249 Z"/>
</svg>
