<?xml version="1.0" encoding="UTF-8"?>
<svg width="12px" height="12px" viewBox="0 0 12 12" version="1.1" xmlns="http://www.w3.org/2000/svg" xmlns:xlink="http://www.w3.org/1999/xlink">
    <!-- Generator: Sketch 48.1 (47250) - http://www.bohemiancoding.com/sketch -->
    <title>review16</title>
    <desc>Created with Sketch.</desc>
    <defs>
        <path d="M7.99079241,11.9815848 C5.78673862,11.9815848 4,10.1948462 4,7.99079241 C4,5.78673862 5.78673862,4 7.99079241,4 C9.54489262,4 10.8915121,4.88833072 11.5505767,6.1849181 C11.8262098,6.72717504 11.9815848,7.34083883 11.9815848,7.99079241 C11.9815848,10.1948462 10.1948462,11.9815848 7.99079241,11.9815848 Z M10.2346044,5.90463457 C10.1469013,5.81687428 10.0030545,5.81687428 9.91529418,5.90463457 L7.08312371,8.73697656 C6.99536342,8.82473686 6.85157375,8.82473686 6.76381346,8.73697656 L6.06624776,8.03946804 C5.97848747,7.95170775 5.8346978,7.95170775 5.74693751,8.03946804 L5.31911322,8.46752102 C5.23135293,8.55528131 5.23135293,8.69907098 5.31911322,8.78683127 L6.76381346,10.2312456 C6.85157375,10.3190059 6.99536342,10.3190059 7.08312371,10.2312456 L10.6624287,6.65176911 C10.7502462,6.56395165 10.7502462,6.42021915 10.6624287,6.33240169 L10.2346044,5.90463457 Z" id="path-1"></path>
    </defs>
    <g id="Icons" stroke="none" stroke-width="1" fill="none" fill-rule="evenodd" transform="translate(-162.000000, -478.000000)">
        <g transform="translate(64.000000, 236.000000)" id="Menu">
            <g transform="translate(0.000000, 144.000000)">
                <g id="Review-edits" transform="translate(72.000000, 96.000000)">
                    <g id="review16" transform="translate(24.000000, 0.000000)">
                        <g id="Shape" transform="translate(2.000000, 2.000000)">
                            <path d="M10.6666667,3.38017171 L10.6666667,2.66666667 L1.33333333,2.66666667 L1.33333333,10.6666667 L3.38017171,10.6666667 C3.6704899,11.1685403 4.04024099,11.618715 4.47223414,12 L1.33333333,12 L0,12 L0,2.66666667 L0,0 L12,0 L12,2.66666667 L12,4.47223414 C11.618715,4.04024099 11.1685403,3.6704899 10.6666667,3.38017171 Z M12,11.9853763 L12,12 L11.9873747,12 C11.9915922,11.9951404 11.9958006,11.9902658 12,11.9853763 Z" id="Combined-Shape" fill="#000105"></path>
                            <mask id="mask-2" fill="white">
                                <use xlink:href="#path-1"></use>
                            </mask>
                            <use id="Combined-Shape" fill="#000105" xlink:href="#path-1"></use>
                        </g>
                    </g>
                </g>
            </g>
        </g>
    </g>
</svg>
