<?xml version="1.0" encoding="UTF-8"?>
<svg width="24px" height="24px" viewBox="0 0 24 24" version="1.1" xmlns="http://www.w3.org/2000/svg" xmlns:xlink="http://www.w3.org/1999/xlink">
    <!-- Generator: sketchtool 45.2 (43514) - http://www.bohemiancoding.com/sketch -->
    <title>speedometer</title>
    <desc>Created with sketchtool.</desc>
    <defs></defs>
    <g id="Icons" stroke="none" stroke-width="1" fill-rule="evenodd">
        <g id="MC-icon-set" transform="translate(-24.000000, -168.000000)" fill="#000000">
            <g id="Menu" transform="translate(24.000000, 168.000000)">
                <g id="Speedometer">
                    <path d="M15.3825839,10.0353144 C14.5133697,9.17077233 13.31667,8.6366011 11.9955707,8.6366011 C10.6785985,8.6366011 9.48524989,9.16744002 8.61639097,10.0272215 L8.61690737,10.0277361 C7.74340467,10.8981544 7.2029498,12.1011068 7.2029498,13.43025 C7.2029498,14.6537147 7.66133625,15.7707126 8.41610281,16.6198095 C8.48088819,16.6926917 8.41610281,16.6198095 8.41610281,16.6198095 C8.41610281,16.6198095 8.29979278,17.1484634 7.9086121,17.538307 L6.3992345,19.0425256 C6.00406908,19.4363404 5.55653689,19.6078265 5.3907432,19.4344205 C5.3907432,19.4344205 5.48827093,19.5414786 5.3907432,19.4344205 C3.94535571,17.8477901 3.06444825,15.7414781 3.06444825,13.43025 C3.06444825,10.9691397 4.0627771,8.7409189 5.67767594,7.12501283 L5.67725513,7.12459054 C7.29426165,5.50189641 9.52832741,4.49809955 11.9959019,4.49809955 C14.461317,4.49809955 16.6935693,5.5000775 18.3102907,7.12098371 L18.3195479,7.11176884 C19.1440592,7.93260631 19.8084064,8.91222982 20.2642067,10.0001467 C20.04298,10.0692419 19.8237555,10.1429877 19.6045309,10.2183945 L16.2514294,11.2282472 C16.0215272,10.7877654 15.7312298,10.3838243 15.3818719,10.0360231 L15.3825839,10.0353143 Z M12.0225984,12.4403484 L15.7714219,11.9379757 L12.8897598,14.4159712 C12.7974519,14.5033145 12.5288124,14.6545314 12.4066228,14.7097894 C11.8288111,14.9685514 11.1521826,14.7086011 10.8933064,14.128986 C10.6353177,13.5499651 10.8938981,12.8699349 11.4717098,12.6096875 C11.5941952,12.5556178 11.895971,12.4498551 12.0225984,12.4403484 Z M20.1115468,17.1635019 C20.5164519,16.246945 20.7820882,15.2525417 20.8710747,14.2046612 C19.4912876,14.2093997 18.1124929,14.1955227 16.7350214,14.1000762 C16.6844083,14.4662928 16.5917829,14.8186325 16.4674003,15.1543875 C17.7108958,15.7717434 18.919326,16.4530688 20.1115468,17.1635019 L20.1115468,17.1635019 Z M17.0113337,13.5353171 L20.9342199,13.5625588 C20.9348858,13.5421275 20.9355518,13.5223772 20.9355518,13.5019459 C20.9355518,12.5205618 20.7793954,11.5773162 20.5007114,10.6905972 L18.1500429,11.4176114 C17.6576011,11.5929802 17.1608309,11.7540471 16.654738,11.8803807 L16.5318773,11.9181786 C16.6963575,12.4160216 16.7895851,12.9468953 16.7895851,13.5016054 C16.7899181,13.5094374 16.7889192,13.5159073 16.7889192,13.5233988 C16.8631684,13.5285066 16.9370846,13.5305498 17.0113337,13.5353171 Z M15.9740232,16.0454283 C15.6469871,16.485986 15.6954585,17.162195 16.0762969,17.5496885 L17.6176828,19.1180098 C18.0012031,19.5082321 18.5963771,19.4798607 18.9425756,19.043388 C18.9425756,19.043388 19.3821564,18.5610808 19.7855464,17.828589 L16.153372,15.8038234 L15.9740232,16.0454283 Z" id="shape"></path>
                </g>
            </g>
        </g>
    </g>
</svg>