<?xml version="1.0" encoding="UTF-8"?>
<svg width="24px" height="24px" viewBox="0 0 24 24" version="1.1" xmlns="http://www.w3.org/2000/svg" xmlns:xlink="http://www.w3.org/1999/xlink">
    <!-- Generator: sketchtool 45.2 (43514) - http://www.bohemiancoding.com/sketch -->
    <title>table</title>
    <desc>Created with sketchtool.</desc>
    <defs></defs>
    <g id="Icons" stroke="none" stroke-width="1" fill-rule="evenodd">
        <g id="MC-icon-set" transform="translate(-240.000000, -600.000000)" fill="#000000">
            <g id="Grid-display" transform="translate(24.000000, 600.000000)">
                <g id="Table" transform="translate(216.000000, 0.000000)">
                    <path d="M20.4579958,4.51032926 C20.1195882,4.17690619 19.7131134,4.01021329 19.2378908,4.01021329 L4.72747059,4.01021329 C4.25243697,4.01021329 3.84573529,4.17686892 3.50740336,4.51032926 C3.16914706,4.84382688 3,5.24456823 3,5.71285152 L3,18.653655 C3,19.1220501 3.16914706,19.5228287 3.50740336,19.8562891 C3.84573529,20.1897494 4.25239916,20.3564796 4.72747059,20.3564796 L19.2378908,20.3564796 C19.7130756,20.3564796 20.1195504,20.1897494 20.4579958,19.8562891 C20.7962521,19.522866 20.9652857,19.1220874 20.9652857,18.653655 L20.9652857,5.71285152 C20.9652857,5.24456823 20.7962521,4.84382688 20.4579958,4.51032926 L20.4579958,4.51032926 Z M11.2917605,18.9943839 L4.72747059,18.9943839 C4.63391597,18.9943839 4.55295378,18.9605757 4.48458403,18.8934811 C4.41617647,18.8259764 4.38202941,18.7462829 4.38202941,18.6539159 L4.38202941,6.73474011 L11.2917983,6.73474011 L11.2917983,18.9943839 L11.2917605,18.9943839 Z M19.5832941,18.653655 C19.5832941,18.746022 19.5491471,18.8258646 19.4808151,18.8932201 C19.4122563,18.9605757 19.3314832,18.9942348 19.2377773,18.9942348 L12.6736008,18.9942348 L12.6736008,6.73447919 L19.583521,6.73447919 L19.583521,18.653655 L19.5832941,18.653655 L19.5832941,18.653655 Z" id="shape"></path>
                </g>
            </g>
        </g>
    </g>
</svg>