<?xml version="1.0" encoding="UTF-8"?>
<svg width="24px" height="24px" viewBox="0 0 24 24" version="1.1" xmlns="http://www.w3.org/2000/svg" xmlns:xlink="http://www.w3.org/1999/xlink">
    <!-- Generator: sketchtool 45.2 (43514) - http://www.bohemiancoding.com/sketch -->
    <title>tag-multi</title>
    <desc>Created with sketchtool.</desc>
    <defs></defs>
    <g id="Icons" stroke="none" stroke-width="1" fill-rule="evenodd">
        <g id="MC-icon-set" transform="translate(-168.000000, -216.000000)" fill="#000000">
            <g id="Menu" transform="translate(24.000000, 168.000000)">
                <g id="Tag-Multi" transform="translate(144.000000, 48.000000)">
                    <path d="M20.71942,11.5601951 L12.97102,4.00078049 L7.47722,4 C6.77202,4 6.19982,4.55804878 6.19982,5.2462439 L6.19962,10.6068293 L13.94822,18.166439 C14.32262,18.5315122 14.92822,18.5315122 15.30262,18.166439 L20.71922,12.8813659 C21.09362,12.5159024 21.09362,11.9252683 20.71942,11.5601951 L20.71942,11.5601951 Z M9.05602,6.78731707 C8.68202,7.15258537 8.07562,7.15258537 7.70162,6.78731707 C7.32802,6.42243902 7.32762,5.83141463 7.70162,5.46653659 C8.07562,5.10146341 8.68222,5.10146341 9.05602,5.46634146 C9.43022,5.83082927 9.43022,6.4222439 9.05602,6.78731707 Z M4.67682,10.857561 L6.86202,18.8124878 L3.71002,17.9886829 C3.19902,17.854439 2.89642,17.3422439 3.03262,16.8444878 L4.67682,10.857561 Z M6.49202,12.6532683 L13.00222,19.0040976 L9.48042,19.9252683 C8.96982,20.0583415 8.44522,19.7625366 8.30762,19.2643902 L6.49202,12.6532683 Z" id="shape"></path>
                </g>
            </g>
        </g>
    </g>
</svg>