<?xml version="1.0" encoding="UTF-8"?>
<svg width="24px" height="24px" viewBox="0 0 24 24" version="1.1" xmlns="http://www.w3.org/2000/svg" xmlns:xlink="http://www.w3.org/1999/xlink">
    <!-- Generator: sketchtool 45.2 (43514) - http://www.bohemiancoding.com/sketch -->
    <title>tag</title>
    <desc>Created with sketchtool.</desc>
    <defs></defs>
    <g id="Icons" stroke="none" stroke-width="1" fill-rule="evenodd">
        <g id="MC-icon-set" transform="translate(-24.000000, -456.000000)" fill="#000000">
            <g id="Switch-states" transform="translate(24.000000, 408.000000)">
                <g id="Tag" transform="translate(0.000000, 48.000000)">
                    <path d="M20.6587091,12.4239068 L11.23525,3.00097289 L4.55379322,3 C3.69614217,3 3.00024324,3.69561692 3.00024324,4.55346339 L3,11.2355206 L12.4237024,20.6586977 C12.8790406,21.1137674 13.61556,21.1137674 14.0708983,20.6586977 L20.6584659,14.0707677 C21.1138042,13.6152116 21.1138042,12.8789764 20.6587091,12.4239068 L20.6587091,12.4239068 Z M6.47390024,6.47443628 C6.01904844,6.92974918 5.2815561,6.92974918 4.8267043,6.47443628 C4.37233897,6.01960983 4.3718525,5.28288827 4.8267043,4.82806182 C5.2815561,4.37299215 6.01929167,4.37299215 6.47390024,4.8278186 C6.92899528,5.2821586 6.92899528,6.01936661 6.47390024,6.47443628 L6.47390024,6.47443628 Z" id="shape"></path>
                </g>
            </g>
        </g>
    </g>
</svg>