<?xml version="1.0" encoding="UTF-8" standalone="no"?>
<svg width="249px" height="227px" viewBox="0 0 249 227" version="1.1" xmlns="http://www.w3.org/2000/svg" xmlns:xlink="http://www.w3.org/1999/xlink">
    <!-- Generator: Sketch 45.1 (43504) - http://www.bohemiancoding.com/sketch -->
    <title>Illustration</title>
    <desc>Created with Sketch.</desc>
    <defs>
        <rect id="path-1" x="0" y="0" width="250" height="226.69384"></rect>
        <rect id="path-3" x="0" y="226.69384" width="248.77451" height="2.45074421" rx="1.22537211"></rect>
        <polygon id="path-4" points="4.96192202e-16 66.8925948 4.96192202e-16 1.78530272e-14 55.8517081 0 55.8517081 66.8925948"></polygon>
        <polygon id="path-6" points="98.8616877 0.00161417266 6.91788281e-05 0.00161417266 6.91788281e-05 102.894006 98.8616877 102.894006 98.8616877 0.00161417266"></polygon>
    </defs>
    <g id="403" stroke="none" stroke-width="1" fill="none" fill-rule="evenodd">
        <g id="404----Section-403----Screen:-1280-x-1024-Copy-2" transform="translate(-617.000000, -78.000000)">
            <g id="Illustration" transform="translate(617.000000, 75.000000)">
                <g id="Oval-Copy">
                    <mask id="mask-2" fill="white">
                        <use xlink:href="#path-1"></use>
                    </mask>
                    <g id="Mask"></g>
                    <ellipse id="Oval" fill="#F2F2F2" mask="url(#mask-2)" cx="124.387255" cy="126.213327" rx="123.161765" ry="122.537211"></ellipse>
                </g>
                <g id="Rectangle-4">
                    <use fill="#000000" fill-rule="evenodd" xlink:href="#path-3"></use>
                    <rect stroke="#000000" stroke-width="1" x="0.5" y="227.19384" width="247.77451" height="1.45074421" rx="0.725372106"></rect>
                </g>
                <g id="Page-1" transform="translate(16.961305, 56.153182)">
                    <polygon id="Fill-1" fill="#333333" points="66.5676227 63.9699185 100.663472 63.9699185 100.663472 62.6709093 66.5676227 62.6709093"></polygon>
                    <polygon id="Fill-2" fill="#333333" points="4.87097019 67.8666318 56.8263105 67.8666318 56.8263105 66.5676227 4.87097019 66.5676227"></polygon>
                    <polygon id="Fill-3" fill="#333333" points="157.813906 64.9438613 209.769247 64.9438613 209.769247 63.6451662 157.813906 63.6451662"></polygon>
                    <polygon id="Fill-3" fill="#333333" points="141.813906 88.9438613 193.769247 88.9438613 193.769247 87.6451662 141.813906 87.6451662"></polygon>
                    <polygon id="Fill-4" fill="#333333" points="129.563284 56.8263105 148.072594 56.8263105 148.072594 55.5273013 129.563284 55.5273013"></polygon>
                    <polygon id="Fill-4" fill="#333333" points="128.563284 98.8263105 147.072594 98.8263105 147.072594 97.5273013 128.563284 97.5273013"></polygon>
                    <polygon id="Fill-4-Copy" fill="#333333" points="17.5632843 114.82631 36.0725941 114.82631 36.0725941 113.527301 17.5632843 113.527301"></polygon>
                    <polygon id="Fill-4-Copy-2" fill="#333333" points="15.5632843 77.8263105 34.0725941 77.8263105 34.0725941 76.5273013 15.5632843 76.5273013"></polygon>
                    <polygon id="Fill-5" fill="#333333" points="100.013967 76.6340013 118.522963 76.6340013 118.522963 75.3353062 100.013967 75.3353062"></polygon>
                    <polygon id="Fill-6" fill="#333333" points="201.002191 56.1764918 219.510873 56.1764918 219.510873 54.8777967 201.002191 54.8777967"></polygon>
                    <polygon id="Fill-7" fill="#333333" points="30.8486403 47.4091224 165.282581 47.4091224 165.282581 46.1101132 30.8486403 46.1101132"></polygon>
                    <g id="Group-19">
                        <path d="M204.574592,50.6560485 C204.557946,50.6560485 204.541614,50.6554203 204.524654,50.654164 C204.167238,50.6268396 203.899333,50.3152784 203.926344,49.9575484 C203.930427,49.9010151 204.314853,44.2439183 201.082092,40.7589556 C199.37887,38.9235085 196.948253,37.9922798 193.858081,37.9922798 L114.626061,37.9922798 C114.267703,37.9922798 113.976871,37.7014474 113.976871,37.3427752 C113.976871,36.984417 114.267703,36.6932706 114.626061,36.6932706 L193.858081,36.6932706 C197.327968,36.6932706 200.080824,37.7661466 202.040645,39.8820617 C205.658147,43.7894535 205.241057,49.80271 205.221584,50.0567957 C205.195202,50.3972517 204.910337,50.6560485 204.574592,50.6560485" id="Fill-8" fill="#333333"></path>
                        <path d="M108.456679,37.3428694 L92.2206347,37.3428694 C91.8619625,37.3428694 91.5711302,37.0520371 91.5711302,36.6933648 C91.5711302,36.3346926 91.8619625,36.0438603 92.2206347,36.0438603 L108.456679,36.0438603 C108.815351,36.0438603 109.105869,36.3346926 109.105869,36.6933648 C109.105869,37.0520371 108.815351,37.3428694 108.456679,37.3428694" id="Fill-10" fill="#333333"></path>
                        <path d="M139.456679,69.3428694 L123.220635,69.3428694 C122.861962,69.3428694 122.57113,69.0520371 122.57113,68.6933648 C122.57113,68.3346926 122.861962,68.0438603 123.220635,68.0438603 L139.456679,68.0438603 C139.815351,68.0438603 140.105869,68.3346926 140.105869,68.6933648 C140.105869,69.0520371 139.815351,69.3428694 139.456679,69.3428694" id="Fill-10-Copy" fill="#333333"></path>
                        <path d="M164.957734,34.7453222 C164.874505,34.7453222 164.790019,34.7289904 164.708046,34.6950704 C164.37764,34.5571921 164.220917,34.1784191 164.357539,33.8476994 C164.401195,33.7399721 165.279974,31.4795831 163.652758,29.0634136 C161.806318,26.3228058 156.477742,23.0551822 141.578082,23.0551822 L78.5821067,23.0551822 C78.2237485,23.0551822 77.9329162,22.7643499 77.9329162,22.4056777 C77.9329162,22.0470054 78.2237485,21.7564872 78.5821067,21.7564872 L141.578082,21.7564872 C154.028909,21.7564872 161.825162,23.9807577 164.750131,28.3683683 C166.756749,31.3775091 165.607239,34.2258442 165.557301,34.3455063 C165.453657,34.5948809 165.212134,34.7453222 164.957734,34.7453222" id="Fill-12" fill="#333333"></path>
                        <path d="M49.6816346,44.1620392 C49.3873474,44.1620392 49.121641,43.961032 49.0503463,43.6626619 C48.9755967,43.3489022 47.256671,35.9251404 50.4960279,31.8242791 C51.8584799,30.0997 53.8789165,29.2246905 56.5014325,29.2246905 L67.1501039,29.2246905 C66.9440715,26.8465238 66.5282378,19.3712539 69.0989317,16.4842877 C69.8209873,15.6730352 70.7176679,15.2615985 71.7632195,15.2615985 L87.4267069,15.2615985 C87.7966858,12.7584305 89.7932528,3.2473344 98.7148324,3.2473344 L130.212663,3.2473344 C132.484987,3.2473344 140.006112,3.35474763 141.387722,4.73635817 C142.972224,6.32117444 142.634909,14.8909915 142.551366,16.5929573 C142.533777,16.9506873 142.233209,17.2258159 141.870768,17.2094841 C141.512724,17.191896 141.236653,16.8869303 141.253927,16.5288862 C141.486655,11.8017618 141.256125,6.44177877 140.469371,5.65470989 C139.785004,4.97034313 134.612523,4.54634353 130.212663,4.54602946 L98.7148324,4.54602946 C94.9556834,4.54602946 92.1255646,6.43392692 90.3033086,10.1569575 C88.9034817,13.0169133 88.6487679,15.9349727 88.6465694,15.9644956 L88.5972598,16.5599795 L87.9992633,16.5606077 L71.7632195,16.5606077 C71.0948705,16.5606077 70.5405303,16.8181482 70.0687915,17.3479906 C67.8884913,19.7965098 68.2053918,27.1662509 68.5116137,29.7991314 L68.5960996,30.5236996 L56.5014325,30.5236996 C54.2972628,30.5236996 52.6204229,31.2316219 51.5170817,32.6270517 C48.6665481,36.2323045 50.2975332,43.2917408 50.3141792,43.3624074 C50.3964665,43.7113434 50.1810119,44.0615356 49.8320759,44.144137 C49.7818241,44.1560718 49.7312582,44.1620392 49.6816346,44.1620392" id="Fill-14" fill="#333333"></path>
                        <g id="Group-18">
                            <mask id="mask-5" fill="white">
                                <use xlink:href="#path-4"></use>
                            </mask>
                            <g id="Clip-17"></g>
                            <path d="M49.5199808,22.0808626 C46.0227693,22.0808626 43.1879394,24.9141221 43.1879394,28.4154166 L43.1879394,40.9413069 L43.1879394,41.8888675 L39.9407306,41.8888675 L39.9407306,11.6900458 C39.9407306,5.23488747 34.7070052,-9.42221325e-05 28.2505906,-9.42221325e-05 C21.7932338,-9.42221325e-05 16.5607647,5.23363118 16.5607647,11.6900458 L16.5607647,38.6416587 L12.6640514,38.6416587 L12.6640514,37.6940981 L12.6640514,25.1678937 C12.6640514,21.6669133 9.82922148,18.8336538 6.33200998,18.8336538 C2.83417034,18.8336538 -3.14073776e-05,21.6687978 -3.14073776e-05,25.1660093 L-3.14073776e-05,41.7261772 C-3.14073776e-05,45.2233887 2.83479849,48.0585327 6.33200998,48.0585327 L12.5016752,48.0585327 L16.5607647,48.0585327 L16.5607647,66.8925948 L39.9407306,66.8925948 L39.9407306,51.3057415 L43.3500015,51.3057415 L49.5199808,51.3057415 C53.0168782,51.3057415 55.8517081,48.4702834 55.8517081,44.9737001 L55.8517081,28.413218 C55.8517081,24.9160065 53.0178204,22.0808626 49.5199808,22.0808626" id="Fill-16" fill="#333333" mask="url(#mask-5)"></path>
                        </g>
                    </g>
                </g>
                <g id="Page-1" transform="translate(34.992159, 69.213752)">
                    <path d="M127.20822,94.0928452 C127.20822,94.0928452 157.493097,95.7300774 168.543031,106.370473 C179.592965,117.01133 178.365041,138.292582 178.365041,138.292582 C178.365041,138.292582 173.454036,137.064658 173.044728,136.65535 C172.63542,136.246272 177.955733,146.068282 182.45766,146.068282 C186.27172,146.068282 170.9915,156.056091 161.753821,150.148219 C159.3939,148.639198 157.957978,146.016398 157.841066,143.217653 C157.758513,141.246057 156.958114,137.487802 153.809785,130.516651 C148.080395,117.829715 137.03046,101.868776 132.528533,101.868776 L127.20822,94.0928452 Z" id="Fill-1" fill="#00B49F"></path>
                    <path d="M173.615914,136.069221 L173.623524,136.0766 C173.620987,136.074063 173.618451,136.071527 173.615914,136.069221 L173.615914,136.069221 Z M132.98788,101.090791 C138.494746,102.021477 149.464432,118.905492 154.555533,130.179796 C157.121837,135.862145 158.540695,140.358769 158.658529,143.184032 C158.766679,145.765786 160.088456,148.111871 162.195182,149.459013 C166.379117,152.134389 171.771376,151.12115 174.613473,150.278321 C178.042898,149.261623 180.636182,147.720088 181.721828,146.818458 C177.040727,145.963407 172.366545,137.370936 172.235105,136.881149 L172.072996,136.274682 L172.615588,135.934322 L173.159565,135.620711 L173.575791,136.030019 C173.972877,136.244935 175.782595,136.775536 177.577094,137.245722 C177.6412,132.952484 177.278933,115.919273 167.975073,106.960153 C158.748462,98.0750552 135.319899,95.5657085 128.842916,95.0325704 L132.98788,101.090791 Z M168.714364,152.80773 C166.1054,152.80773 163.527105,152.254069 161.312921,150.837978 C158.757224,149.203282 157.153198,146.367181 157.023142,143.252058 C156.946814,141.426429 156.1983,137.793849 153.064037,130.853598 C147.000744,117.428524 136.253582,102.687208 132.528533,102.687208 L132.096857,102.687208 L125.596123,93.1859568 L127.252494,93.2756587 C127.328591,93.2795789 134.983228,93.7080264 143.888158,95.4381889 C155.926427,97.7768945 164.412594,101.25682 169.110989,105.781115 C174.981504,111.434409 177.405992,120.000132 178.405856,126.190945 C179.482048,132.853558 179.194726,138.118759 179.182504,138.33967 L179.125316,139.32639 L178.166267,139.08657 C176.681689,138.715311 175.591662,138.416919 174.789418,138.176638 C176.433107,140.798746 179.768679,145.249943 182.45766,145.249943 C183.40518,145.249943 183.715331,145.736962 183.816332,146.027513 C184.111495,146.878413 183.293802,147.6629 182.547823,148.25069 C179.947391,150.302303 174.262506,152.807499 168.714364,152.80773 L168.714364,152.80773 Z" id="Fill-3" fill="#000000"></path>
                    <path d="M108.382424,143.612688 L102.86449,155.531508 L100.197416,157.118009 C100.197416,157.118009 95.9996443,151.375013 94.6197572,148.107697 C93.2401008,144.840381 90.4960073,137.414265 90.4960073,137.414265 L89.4202765,136.70472 C89.4202765,136.70472 79.4096389,135.836987 77.3213607,135.427679 C75.2328518,135.018371 68.4494066,132.812028 68.4494066,132.812028 C68.4494066,132.812028 67.8436306,132.417939 67.241083,133.104424 C66.6385354,133.790678 58.8656023,153.190496 58.8656023,153.190496 L57.2256029,155.481238 L55.2454742,153.505721 L50.2682881,137.064681 L47.4035929,121.922127 L74.4142357,108.826114 C74.4142357,108.826114 95.695488,119.057663 96.1050267,119.057663 C96.5141041,119.057663 105.927037,126.833132 105.927037,126.833132 L108.382424,143.612688 Z" id="Fill-5" fill="#00B49F"></path>
                    <path d="M176.728039,124.377722 C176.728039,124.377722 175.091037,125.605416 171.817034,123.150028 C168.543031,120.694411 165.269027,122.331412 164.450411,125.196338 C163.631795,128.061264 160.7671,132.153653 159.130098,130.516651 C157.493097,128.879419 154.628171,131.335037 154.628171,131.335037 L156.725903,137.927087 L158.158366,145.225684 C158.158366,145.225684 159.789603,148.694311 161.301622,149.836914 C162.81341,150.979287 165.473566,151.826959 168.236107,152.01697 C170.998418,152.207212 174.272652,151.512656 176.728039,150.427471 C179.183426,149.342286 182.048352,148.5239 182.45766,147.296207 C182.866738,146.068282 181.229736,146.47759 180.002042,145.658974 C178.774349,144.840358 177.546655,144.021973 177.137117,142.794279 C176.728039,141.566355 175.091037,141.157277 174.681729,140.338661 C174.272652,139.520276 175.091037,139.520276 174.272652,138.292582 C173.454036,137.064658 174.973433,137.372734 174.973433,137.372734 L178.376801,138.031317 L177.953427,128.867889 L176.728039,124.377722 Z" id="Fill-7" fill="#FFFFFF"></path>
                    <path d="M173.615914,136.069221 L173.623524,136.0766 C173.620987,136.074063 173.618451,136.071527 173.615914,136.069221 L173.615914,136.069221 Z M132.98788,101.090791 C138.494746,102.021477 149.464432,118.905492 154.555533,130.179796 C157.121837,135.862145 158.540695,140.358769 158.658529,143.184032 C158.766679,145.765786 160.088456,148.111871 162.195182,149.459013 C166.379117,152.134389 171.771376,151.12115 174.613473,150.278321 C178.042898,149.261623 180.636182,147.720088 181.721828,146.818458 C177.040727,145.963407 172.366545,137.370936 172.235105,136.881149 L172.072996,136.274682 L172.615588,135.934322 L173.159565,135.620711 L173.575791,136.030019 C173.972877,136.244935 175.782595,136.775536 177.577094,137.245722 C177.6412,132.952484 177.278933,115.919273 167.975073,106.960153 C158.748462,98.0750552 135.319899,95.5657085 128.842916,95.0325704 L132.98788,101.090791 Z M168.714364,152.80773 C166.1054,152.80773 163.527105,152.254069 161.312921,150.837978 C158.757224,149.203282 157.153198,146.367181 157.023142,143.252058 C156.946814,141.426429 156.1983,137.793849 153.064037,130.853598 C147.000744,117.428524 136.253582,102.687208 132.528533,102.687208 L132.096857,102.687208 L125.596123,93.1859568 L127.252494,93.2756587 C127.328591,93.2795789 134.983228,93.7080264 143.888158,95.4381889 C155.926427,97.7768945 164.412594,101.25682 169.110989,105.781115 C174.981504,111.434409 177.405992,120.000132 178.405856,126.190945 C179.482048,132.853558 179.194726,138.118759 179.182504,138.33967 L179.125316,139.32639 L178.166267,139.08657 C176.681689,138.715311 175.591662,138.416919 174.789418,138.176638 C176.433107,140.798746 179.768679,145.249943 182.45766,145.249943 C183.40518,145.249943 183.715331,145.736962 183.816332,146.027513 C184.111495,146.878413 183.293802,147.6629 182.547823,148.25069 C179.947391,150.302303 174.262506,152.807499 168.714364,152.80773 L168.714364,152.80773 Z" id="Fill-9" fill="#000000"></path>
                    <path d="M105.108582,138.292536 C105.108582,138.292536 107.154661,154.253475 112.065897,158.345864 C116.976902,162.438483 123.934216,134.199916 123.934216,134.199916 C123.934216,134.199916 137.03046,112.509356 132.528533,101.86873 C128.026836,91.2281038 115.749208,88.7727166 109.200971,87.9541004 C102.652964,87.1354843 89.1474122,81.4060938 88.3290266,80.5874776 L28.5778892,94.5023377 C28.5778892,94.5023377 35.9442814,147.29616 40.855517,155.481169 C45.766522,163.666177 51.9052206,124.787214 51.9052206,124.787214" id="Fill-11" fill="#00B49F"></path>
                    <path d="M113.083287,159.570883 C112.539541,159.570883 112.016319,159.370264 111.541752,158.974561 C106.44258,154.725367 104.381974,139.061436 104.296653,138.396396 C104.239004,137.948118 104.556074,137.538348 105.004122,137.480699 C105.452862,137.41913 105.862862,137.739659 105.92028,138.187938 C105.925353,138.2276 106.440966,142.195928 107.543216,146.601467 C108.972911,152.313332 110.717601,156.156908 112.58958,157.717351 C112.903191,157.978386 113.126178,157.954635 113.320801,157.891913 C116.43846,156.867835 120.997806,142.696322 123.139121,134.004002 L123.169099,133.8834 L123.233666,133.777095 C123.362338,133.563794 136.061957,112.321282 131.774945,102.187737 C128.636532,94.7703826 121.007491,90.2548499 109.099509,88.7661215 C103.229454,88.0325953 90.7825691,83.0597906 88.166687,81.4656798 L29.4935863,95.1291901 C30.4097446,101.556134 37.0993372,147.630156 41.5572209,155.059962 C41.8491556,155.546289 42.1413208,155.820698 42.3262589,155.79026 C42.712738,155.715316 44.8074729,154.609838 48.0985403,140.177521 C49.8598333,132.452551 51.0849903,124.736345 51.0967507,124.659556 C51.1675437,124.212661 51.5925323,123.909889 52.0329709,123.978376 C52.4798661,124.048938 52.7842529,124.467931 52.7139211,124.914596 C52.7014689,124.992537 51.468241,132.763164 49.6942653,140.541862 C46.4195702,154.902926 44.2035417,157.093358 42.6389472,157.397515 C41.990511,157.524112 41.0326148,157.367076 40.1535825,155.902329 C35.2135224,147.668896 28.0689636,96.7777216 27.7675745,94.6151914 L27.6638063,93.8747474 L28.3920287,93.7047981 L88.5866025,79.6870921 L88.9078228,80.0090043 C89.8447347,80.7718161 102.811614,86.3307962 109.302433,87.1420332 C121.832333,88.7082419 129.900429,93.555833 133.282352,101.549908 C137.777822,112.174853 125.808732,132.65686 124.698643,134.516617 C124.482574,135.377663 123.1269,140.698668 121.29712,146.116523 C117.164607,158.352874 114.655952,159.176333 113.831571,159.447053 C113.57976,159.529606 113.329563,159.570883 113.083287,159.570883" id="Fill-13" fill="#000000"></path>
                    <path d="M93.6492705,137.064566 C93.6492705,137.064566 96.1048883,140.748108 101.015893,143.203495 C105.926898,145.659113 104.290127,152.207119 104.290127,152.207119 L105.570858,150.16081 L106.895633,145.301689 L105.926898,138.29249 C105.926898,138.29249 105.517821,135.836872 104.699205,135.018486 C103.783969,134.103251 96.634337,135.95217 96.634337,135.95217 L93.6492705,137.064566 Z" id="Fill-15" fill="#A8DBD5"></path>
                    <path d="M113.083287,159.570883 C112.539541,159.570883 112.016319,159.370264 111.541752,158.974561 C106.44258,154.725367 104.381974,139.061436 104.296653,138.396396 C104.239004,137.948118 104.556074,137.538348 105.004122,137.480699 C105.452862,137.41913 105.862862,137.739659 105.92028,138.187938 C105.925353,138.2276 106.440966,142.195928 107.543216,146.601467 C108.972911,152.313332 110.717601,156.156908 112.58958,157.717351 C112.903191,157.978386 113.126178,157.954635 113.320801,157.891913 C116.43846,156.867835 120.997806,142.696322 123.139121,134.004002 L123.169099,133.8834 L123.233666,133.777095 C123.362338,133.563794 136.061957,112.321282 131.774945,102.187737 C128.636532,94.7703826 121.007491,90.2548499 109.099509,88.7661215 C103.229454,88.0325953 90.7825691,83.0597906 88.166687,81.4656798 L29.4935863,95.1291901 C30.4097446,101.556134 37.0993372,147.630156 41.5572209,155.059962 C41.8491556,155.546289 42.1413208,155.820698 42.3262589,155.79026 C42.712738,155.715316 44.8074729,154.609838 48.0985403,140.177521 C49.8598333,132.452551 51.0849903,124.736345 51.0967507,124.659556 C51.1675437,124.212661 51.5925323,123.909889 52.0329709,123.978376 C52.4798661,124.048938 52.7842529,124.467931 52.7139211,124.914596 C52.7014689,124.992537 51.468241,132.763164 49.6942653,140.541862 C46.4195702,154.902926 44.2035417,157.093358 42.6389472,157.397515 C41.990511,157.524112 41.0326148,157.367076 40.1535825,155.902329 C35.2135224,147.668896 28.0689636,96.7777216 27.7675745,94.6151914 L27.6638063,93.8747474 L28.3920287,93.7047981 L88.5866025,79.6870921 L88.9078228,80.0090043 C89.8447347,80.7718161 102.811614,86.3307962 109.302433,87.1420332 C121.832333,88.7082419 129.900429,93.555833 133.282352,101.549908 C137.777822,112.174853 125.808732,132.65686 124.698643,134.516617 C124.482574,135.377663 123.1269,140.698668 121.29712,146.116523 C117.164607,158.352874 114.655952,159.176333 113.831571,159.447053 C113.57976,159.529606 113.329563,159.570883 113.083287,159.570883" id="Fill-17" fill="#000000"></path>
                    <path d="M56.9878814,156.349294 C56.7432189,156.349294 56.4950975,156.285649 56.2594283,156.160205 C53.3345475,154.601145 50.3188117,139.700025 49.4642226,135.170196 C49.3802856,134.726068 49.6724509,134.297851 50.116579,134.214375 C50.5646272,134.127671 50.988924,134.422834 51.0726304,134.866501 C53.2323934,146.310062 55.7770213,153.946021 56.9638994,154.682315 C58.4254174,153.416342 64.5754152,138.983794 73.2324538,114.285107 C73.3821107,113.858274 73.8492983,113.633673 74.2759011,113.7831 C74.7025039,113.932757 74.9271045,114.399714 74.7776782,114.826316 C74.7428582,114.925703 71.2514028,124.876617 67.4548687,134.849436 C59.6577229,155.329137 58.2328697,155.939986 57.5482299,156.233304 C57.3679037,156.310784 57.1788149,156.349294 56.9878814,156.349294" id="Fill-19" fill="#000000"></path>
                    <path d="M89.8865418,137.508648 C76.827885,137.508648 67.6448568,133.362299 67.5235632,133.305803 C67.1128716,133.116714 66.933929,132.630848 67.1232484,132.220387 C67.3121066,131.809926 67.7979726,131.628908 68.2088948,131.819381 C68.3668532,131.892249 84.1647609,139.005447 103.686104,134.223576 C104.1217,134.115887 104.568134,134.38407 104.675592,134.823587 C104.78328,135.262642 104.514636,135.705847 104.07535,135.813305 C99.0432821,137.045841 94.2475751,137.508648 89.8865418,137.508648" id="Fill-21" fill="#000000"></path>
                    <path d="M100.567153,157.983505 C100.378065,157.983505 100.188515,157.959754 99.998734,157.912251 C96.5596238,157.052128 91.1703625,141.939782 89.6002337,137.328552 C89.4549582,136.900335 89.6834789,136.435684 90.1114652,136.289717 C90.539221,136.144672 91.0047945,136.372501 91.1503006,136.800948 C94.2306033,145.848386 98.6409842,155.885542 100.396051,156.324136 C101.594228,156.620221 104.135397,152.815386 105.960565,146.654089 C106.089238,146.220107 106.546049,145.9736 106.978186,146.102042 C107.411476,146.230484 107.658675,146.68568 107.530464,147.119432 C107.496105,147.234499 106.680948,149.969369 105.442647,152.652354 C103.791117,156.230053 102.19055,157.983505 100.567153,157.983505" id="Fill-23" fill="#000000"></path>
                    <path d="M81.7809969,85.498644 C81.7809969,85.498644 69.9124465,101.868661 67.0477513,107.598282 C64.183056,113.327903 55.997817,123.149913 55.997817,123.149913 C55.997817,123.149913 53.9515073,114.964905 50.2684265,112.099979 C46.5851151,109.235514 41.264802,112.509517 41.264802,116.601906 C41.264802,120.694526 31.8521001,99.822351 33.0797937,98.1855799 C34.3074873,96.5485783 37.5814906,89.1819555 37.5814906,89.1819555 L81.7809969,85.498644 Z" id="Fill-25" fill="#FFFFFF"></path>
                    <path d="M56.4071021,33.5233222 L59.6811054,31.8860899 C59.6811054,31.8860899 73.1866574,6.10314069 83.0086674,1.19213569 C83.0086674,1.19213569 88.3292111,5.28475516 80.9623577,43.7546403 C80.9623577,43.7546403 84.0920079,54.5875836 85.0549772,56.0322681 C85.3874967,56.5305863 86.0571478,57.6365251 86.7353309,58.7742863 C88.0582607,60.9928513 90.0252454,62.7562196 92.3768643,63.8248019 L93.2399855,64.2172765 L88.7382886,64.6265845 L97.741913,76.4951349 C97.741913,76.4951349 70.3219621,99.8224663 47.4034776,102.278084 C47.4034776,102.278084 34.3074642,103.915086 1.15766157,78.9505221 L11.3892102,65.8542781 L7.29659078,65.0358926 L8.7710222,63.3158763 C9.34728184,62.6434581 10.0070173,62.0512873 10.7380069,61.551355 C13.1855538,59.877458 19.2509229,54.8294789 17.9372169,46.6193356 C17.9372169,46.6193356 10.161286,8.14945043 11.3892102,6.92175683 C11.3892102,6.92175683 12.6171344,7.33106489 38.8093918,31.8860899 L48.6314018,24.1103897 L44.9480904,32.7047061 L52.7237906,27.7937011 L51.496097,33.1140141 C51.0870196,35.5696319 56.4071021,33.5233222 56.4071021,33.5233222" id="Fill-27" fill="#00B49F"></path>
                    <g id="Group-31" transform="translate(0.000000, 0.228982)">
                        <mask id="mask-7" fill="white">
                            <use xlink:href="#path-6"></use>
                        </mask>
                        <g id="Clip-30"></g>
                        <path d="M56.4068715,33.2943403 L56.4107916,33.2943403 L56.4068715,33.2943403 Z M2.31663754,78.5679632 C18.844382,90.9359846 30.1452047,96.4426194 36.7437119,98.8864768 C43.9858129,101.569001 47.2734214,101.240863 47.307319,101.236251 C67.8757988,99.0324441 92.4983885,79.5085646 96.6161429,76.1360967 L87.1939865,63.7161911 L90.3559202,63.4288684 C88.5937048,62.3051736 87.1185816,60.7866984 86.0322434,58.964528 C85.2087848,57.5832574 84.6509728,56.6726335 84.3740269,56.2577911 C83.3697809,54.750615 80.5000125,44.8741843 80.1757944,43.7527955 L80.1216043,43.5643985 L80.1587303,43.3718508 C86.1982726,11.8304559 83.6741678,3.73491881 82.7764572,2.01813089 C73.3494583,7.47933818 60.5373087,31.786703 60.4063301,32.0368998 L60.283653,32.2711854 L56.7008815,34.0580745 C55.7565905,34.4221858 52.5704442,35.5232821 51.2470533,34.44317 C50.9710297,34.2178776 50.5310524,33.6983446 50.6887801,32.7503641 L50.6984652,32.7007859 L51.4790329,29.3188636 L43.1579729,34.5743792 L46.6063069,26.5284203 L38.7639643,32.7367589 L38.2492738,32.2543519 C20.4710068,15.5873274 14.2407615,10.0857658 12.0865328,8.27673947 C12.4303516,13.6210345 16.1796135,33.5625235 18.7392301,46.2282446 C20.1221149,54.8656825 13.9273815,60.1329584 11.2001215,61.997789 C10.5304704,62.4559835 9.9219273,63.0015738 9.39247867,63.6195714 L8.82774884,64.2783844 L12.8514201,65.0829342 L2.31663754,78.5679632 Z M46.811768,102.894006 C43.7067916,102.894237 29.9660316,101.44102 0.665338909,79.3755107 L6.91788281e-05,78.8741948 L9.92700042,66.1678888 L5.76566331,65.3352063 L8.14956573,62.5539868 C8.77263637,61.8273785 9.48794546,61.185399 10.2761229,60.6467265 C12.7460377,58.9573796 18.3575936,54.1997209 17.1292082,46.5199486 C17.1153724,46.4563041 15.1691414,36.8160038 13.3979328,27.1496462 C9.7392952,7.18509757 10.3333107,6.59108203 10.8106446,6.11397871 L11.1680686,5.75632417 L11.6481697,5.91612726 C12.5274326,6.2092149 22.4333796,15.1895492 38.854358,30.5779183 L50.6564967,21.2343952 L46.7377467,30.3772997 L53.9690096,25.8105747 L52.3001856,33.0409152 C52.2833521,33.1548296 52.2978797,33.1984123 52.2978797,33.1988735 C52.5852024,33.4368487 54.3024515,33.2184742 56.0773496,32.5439806 L59.0797108,31.0428 C60.5472243,28.2738021 73.0907294,5.00688686 82.6424808,0.231011167 L83.1015977,0.00156805344 L83.507908,0.314486953 C84.0922385,0.764149335 89.0013987,5.79137478 81.8033416,43.486457 C83.0091286,47.6464106 85.0953315,54.388118 85.7359274,55.3494731 C86.0280927,55.7869139 86.6008934,56.7212892 87.4381878,58.1263112 C88.6831761,60.2134365 90.5081136,61.8474404 92.7153794,62.8505334 L96.3945401,64.5235081 L90.2825906,65.0790141 L98.8616877,76.3879077 L98.2722841,76.8894542 C98.2031052,76.9482562 91.2612404,82.8296096 81.6041066,88.9291068 C65.4045004,99.1604249 54.1115179,102.153332 47.4906429,102.862645 C47.4302267,102.870485 47.2072403,102.894006 46.811768,102.894006 L46.811768,102.894006 Z" id="Fill-29" fill="#000000" mask="url(#mask-7)"></path>
                    </g>
                    <path d="M67.0478435,33.9324919 C67.0478435,33.9324919 73.5958502,33.5234144 76.4605455,38.0251114 C79.3254713,42.5270389 77.6884697,21.6548641 77.6884697,21.6548641 C77.6884697,21.6548641 66.6385354,32.2954902 67.0478435,33.9324919" id="Fill-32" fill="#A8DBD5"></path>
                    <path d="M68.2156974,33.1211165 C70.3339531,33.2274213 74.6726186,33.892691 77.0369204,37.4108956 C77.4838156,35.4083991 77.3895018,29.278002 76.9995638,23.4679028 C73.1970342,27.2093244 69.3887397,31.3113984 68.2156974,33.1211165 M77.1595975,39.4841851 C76.667736,39.4841851 76.2017013,39.1429029 75.7700254,38.4647198 C73.2046439,34.4332083 67.1581837,34.7470496 67.0977676,34.7495861 L66.4195844,34.790171 L66.2535553,34.1311274 C66.1085103,33.5502558 65.8892134,32.6728377 71.6204487,26.6171537 C74.3131193,23.7713673 77.0929552,21.0920713 77.1203962,21.0653221 L78.369074,19.8632247 L78.5044339,21.5908506 C78.5078929,21.6321273 78.8293438,25.7655623 78.9370322,29.915139 C79.1519478,38.1886963 78.393056,39.1327567 77.5278595,39.4221548 C77.4040294,39.4634315 77.2808911,39.4841851 77.1595975,39.4841851" id="Fill-34" fill="#000000"></path>
                    <path d="M21.0479813,38.6991207 C21.0479813,38.6991207 25.2353758,33.6483745 30.4775168,34.6450108 C35.7196578,35.6418777 19.3925319,22.5366405 19.3925319,22.5366405 C19.3925319,22.5366405 19.5749334,37.8758926 21.0479813,38.6991207" id="Fill-36" fill="#A8DBD5"></path>
                    <path d="M20.2413562,24.280339 C20.3624191,29.6133348 20.7422109,35.1983722 21.2569014,37.2926459 C22.7850617,35.8216735 26.2430807,33.1137835 30.4247103,33.8046494 C29.272191,32.1072316 24.7412083,27.9767944 20.2413562,24.280339 L20.2413562,24.280339 Z M21.2432962,39.7454966 L20.6485889,39.4134382 C20.1262887,39.121273 19.3364971,38.6801426 18.8508617,30.3567766 C18.6225716,26.4454057 18.574377,22.5847659 18.5741464,22.5460258 L18.5536233,20.8135573 L19.9049165,21.8982813 C19.9371999,21.9241081 23.1683124,24.5213119 26.2654485,27.2852367 C32.4396589,32.7962527 32.6084553,33.9960442 32.2265881,34.824576 C31.9487198,35.4264318 31.3088157,35.6351212 30.3244009,35.4492608 C25.6160899,34.5545479 21.71671,39.1745407 21.6779698,39.2213517 L21.2432962,39.7454966 Z" id="Fill-38" fill="#000000"></path>
                    <path d="M32.2611775,84.680074 C32.6672573,84.7308052 38.3998762,83.4523804 38.3998762,80.5874546 C38.3998762,77.7227593 33.4888711,76.9041432 33.4888711,76.9041432 C33.4888711,76.9041432 26.5315564,76.085527 25.7131709,78.9504529 C25.7131709,78.9504529 25.7131709,83.8614579 32.2611775,84.680074" id="Fill-40" fill="#A8DBD5"></path>
                    <path d="M26.5377133,79.0667194 C26.5914422,79.7582771 27.120199,83.1897776 32.3090724,83.8612734 C33.2443701,83.7860991 37.581652,82.5113639 37.581652,80.5875007 C37.581652,78.4849255 33.3958717,77.7186547 33.3534421,77.7115062 C31.3926835,77.4829855 27.1670101,77.5189585 26.5377133,79.0667194 L26.5377133,79.0667194 Z M32.3494267,83.8663465 C32.3540386,83.8665771 32.3581893,83.8670383 32.3628012,83.8679607 C32.3581893,83.8670383 32.3540386,83.8665771 32.3494267,83.8663465 L32.3494267,83.8663465 Z M32.3628012,83.8679607 L32.3667214,83.8679607 L32.3628012,83.8679607 Z M32.2424301,85.4966609 C32.2101466,85.4966609 32.1824751,85.4950467 32.1596461,85.492049 C24.9777307,84.594569 24.8944856,79.0067645 24.8944856,78.950499 L24.8944856,78.8358928 L24.9263078,78.7256678 C25.908186,75.2904778 32.8018562,75.9993302 33.5844993,76.091338 C33.8519908,76.1349207 39.2184231,77.0697573 39.2184231,80.5875007 C39.2184231,81.5387096 38.7747562,82.4124382 37.9003358,83.1840127 C36.1378899,84.7403057 32.9844883,85.4966609 32.2424301,85.4966609 L32.2424301,85.4966609 Z" id="Fill-42" fill="#000000"></path>
                    <path d="M22.438983,56.441507 C22.438983,61.6400653 26.7057026,65.1192992 31.8519156,65.8542089 C37.5815367,66.6728251 40.5776718,61.5946379 41.2648481,56.441507 C42.0832337,50.3028084 37.0504739,47.028805 31.8519156,47.028805 C26.6533573,47.028805 22.438983,50.3028084 22.438983,56.441507" id="Fill-44" fill="#FFFFFF"></path>
                    <path d="M31.8520078,47.8470753 C26.6310817,47.8470753 23.2574608,51.2206961 23.2574608,56.4416223 C23.2574608,61.5244214 27.6323299,64.4248591 31.9677671,65.0442402 C33.7818665,65.3036608 35.3805893,64.9204101 36.7185078,63.9074014 C38.6449076,62.4488811 40.0061163,59.6879541 40.4534727,56.3332421 C40.7474827,54.1259763 40.2171117,52.1755946 38.9195475,50.6933229 C37.3597955,48.9110457 34.7176255,47.8470753 31.8520078,47.8470753 M33.0591784,66.7610281 C32.6284249,66.7610281 32.1875251,66.7292058 31.736018,66.6646389 C25.6856377,65.7999036 21.6206897,61.6918342 21.6206897,56.4416223 C21.6206897,50.3218326 25.7322181,46.2100736 31.8520078,46.2100736 C35.1822766,46.2100736 38.2847165,47.4831946 40.1511612,49.6148249 C41.769254,51.4625914 42.4347544,53.8605602 42.0761774,56.5497719 C41.571172,60.3340844 39.9791366,63.4920979 37.7070732,65.2125753 C36.3467869,66.2424175 34.7877267,66.7610281 33.0591784,66.7610281" id="Fill-46" fill="#000000"></path>
                    <path d="M50.2683804,56.441507 C49.5814346,61.5946379 54.482524,65.8542089 59.6810823,65.8542089 C64.8796407,65.8542089 69.701405,61.6045535 69.0942455,56.441507 C68.2756293,49.4841922 64.8796407,47.028805 59.6810823,47.028805 C54.482524,47.028805 51.0869965,50.3028084 50.2683804,56.441507" id="Fill-48" fill="#FFFFFF"></path>
                    <path d="M50.2683804,56.441507 L51.079848,56.5498872 C50.8245782,58.4615288 51.4409615,60.3782435 52.8141613,61.9467581 C54.507659,63.8812288 57.0746547,65.036054 59.6810823,65.036054 C62.2434661,65.036054 64.7777172,63.9056719 66.4610687,62.0127086 C67.8647071,60.434509 68.5108374,58.4898921 68.2811636,56.5369738 C67.574156,50.527409 64.9220704,47.84696 59.6810823,47.84696 C54.8134294,47.84696 51.8387398,50.8564696 51.079848,56.5498872 L50.2683804,56.441507 Z M59.6810823,66.6728251 C56.609773,66.6728251 53.5822768,65.3093104 51.5827781,63.0257173 C49.8938923,61.0965503 49.1389207,58.7195658 49.4569127,56.3331268 C50.3147302,49.899957 54.0416243,46.2101889 59.6810823,46.2101889 C65.759826,46.2101889 69.1046223,49.5256995 69.9070967,56.3460402 C70.1918829,58.769144 69.4030136,61.1678045 67.684381,63.1001998 C65.6952591,65.3372125 62.7035053,66.6728251 59.6810823,66.6728251 L59.6810823,66.6728251 Z" id="Fill-50" fill="#000000"></path>
                    <path d="M53.9516226,56.441507 C54.316195,59.357164 56.3336803,61.7618201 59.2719357,61.7618201 C62.2101911,61.7618201 64.9169281,59.3617759 64.5924794,56.441507 C64.1829407,52.7581956 62.2101911,51.1211939 59.2719357,51.1211939 C56.3336803,51.1211939 53.5425451,53.1675037 53.9516226,56.441507" id="Fill-52" fill="#000000"></path>
                    <path d="M33.3299213,51.6471836 C30.4008897,51.4138204 27.6374261,52.9027793 27.0427188,55.780388 C26.4480114,58.657766 28.2505811,61.7941035 31.1759231,62.0675905 C34.8659218,62.4125622 36.8684183,60.8117642 37.4631256,57.9343861 C38.0580636,55.0567774 36.6191439,51.9093714 33.3299213,51.6471836" id="Fill-54" fill="#000000"></path>
                    <path d="M30.791335,52.216018 C30.2014702,51.7384535 29.3953062,51.6517494 28.8481017,52.1775085 C28.3008972,52.7034982 28.2266452,53.6348758 28.8095922,54.1207418 C29.5451937,54.7334356 30.2056209,54.685241 30.7528254,54.1592513 C31.30003,53.6332616 31.453607,52.7526152 30.791335,52.216018" id="Fill-56" fill="#FFFFFF"></path>
                    <path d="M63.5317143,52.6254184 C62.9418495,52.1476232 62.1356855,52.0609191 61.588481,52.5869088 C61.0412765,53.1126679 60.9670245,54.0440455 61.5499714,54.5299115 C62.285573,55.1426053 62.9460002,55.0944107 63.4932047,54.568421 C64.0404092,54.0426619 64.1939862,53.1617849 63.5317143,52.6254184" id="Fill-58" fill="#FFFFFF"></path>
                    <path d="M56.8165024,59.7155795 C56.4071943,59.306502 54.7701926,57.6692698 55.1792701,56.8506536 C55.5888088,56.0322681 56.8165024,59.7155795 56.8165024,59.7155795" id="Fill-60" fill="#FFFFFF"></path>
                    <path d="M58.0442421,60.5341495 C58.0442421,60.5341495 58.4533196,61.0341495 59.2719357,61.0341495 C60.0905518,61.0341495 58.0442421,60.5341495 58.0442421,60.5341495" id="Fill-62" fill="#FFFFFF"></path>
                    <path d="M33.6731174,61.0678411 C34.1954176,60.8185667 36.2846182,59.8212386 36.1718567,58.9129206 C36.0590952,58.0050638 33.6731174,61.0678411 33.6731174,61.0678411" id="Fill-64" fill="#FFFFFF"></path>
                    <path d="M32.2427068,61.5769052 C32.2427068,61.5769052 31.720176,62.0891512 30.9486015,61.5276235 C30.177027,60.9670435 32.2427068,61.5769052 32.2427068,61.5769052" id="Fill-66" fill="#FFFFFF"></path>
                    <polygon id="Fill-68" fill="#A8DBD5" points="30.0078414 71.7862484 51.0078414 71.7862484 45.7665681 73.6301859 40.4462551 73.6301859 34.7166339 74.039494"></polygon>
                    <path d="M52.7238598,125.196292 C52.7238598,125.196292 52.3147824,128.061218 53.1331679,132.972223 C53.9515534,137.883228 53.1331679,144.022157 53.1331679,144.022157 C53.1331679,144.022157 51.0868582,135.42761 51.0868582,134.608994 C51.0868582,133.790839 51.4961662,132.153607 51.4961662,132.153607 L52.7238598,125.196292 Z" id="Fill-70" fill="#A8DBD5"></path>
                </g>
            </g>
        </g>
    </g>
</svg>